<svg width="219" height="67" viewBox="0 0 219 67" fill="none" xmlns="http://www.w3.org/2000/svg">
<path d="M139.577 62.718L152.453 55.284C153.7 54.5644 154.127 52.9712 153.407 51.7248L138.075 25.1685C137.099 23.4785 134.938 22.8995 133.248 23.8752L121.979 30.3812C120.289 31.3569 119.71 33.5181 120.686 35.208L136.018 61.7644C136.738 63.0108 138.331 63.4376 139.577 62.718Z" fill="white"/>
<path d="M152.508 55.3785L139.632 62.8125C138.336 63.5608 136.672 63.1151 135.924 61.819L120.592 35.2627C119.587 33.5235 120.185 31.2914 121.925 30.2873L133.193 23.7812C134.933 22.7771 137.165 23.3752 138.169 25.1144L153.501 51.6707C154.249 52.9668 153.804 54.6302 152.508 55.3785ZM122.033 30.4757C120.398 31.4197 119.836 33.5183 120.78 35.1539L136.112 61.7102C136.801 62.9027 138.33 63.3126 139.523 62.6241L152.399 55.1901C153.591 54.5016 154.001 52.9719 153.313 51.7795L137.98 25.2231C137.036 23.588 134.938 23.0253 133.302 23.9696L122.033 30.4757Z" fill="#0C0C0C"/>
<path d="M138.22 57.7494C138.168 57.7796 138.102 57.7618 138.072 57.7096L125.153 35.333C125.122 35.2807 125.14 35.2145 125.192 35.1844C125.245 35.1542 125.311 35.172 125.341 35.2242L138.26 57.6004C138.29 57.6526 138.272 57.7193 138.22 57.7494Z" fill="#0C0C0C"/>
<path d="M124.096 27.7783L129.935 24.407L122.777 12.0078L116.937 15.3791L124.096 27.7783Z" fill="white"/>
<path d="M129.99 24.5017L124.15 27.873C124.098 27.9032 124.032 27.8854 124.002 27.8332L116.843 15.434C116.813 15.3818 116.831 15.3156 116.883 15.2855L122.722 11.9142C122.774 11.884 122.841 11.9017 122.871 11.954L130.029 24.3531C130.06 24.4051 130.042 24.4715 129.99 24.5017ZM124.136 27.63L129.787 24.3674L122.737 12.1567L117.086 15.4192L124.136 27.63Z" fill="#0C0C0C"/>
<path d="M122.346 20.2123C122.294 20.2425 122.228 20.2248 122.197 20.1725L120.58 17.3711C120.55 17.3188 120.568 17.2526 120.62 17.2225C120.672 17.1923 120.738 17.2101 120.768 17.2623L122.386 20.0638C122.416 20.1157 122.398 20.1822 122.346 20.2123Z" fill="#0C0C0C"/>
<path d="M122.207 30.2501L133.02 24.0071L129.482 17.8796L118.669 24.1227L122.207 30.2501Z" fill="white"/>
<path d="M133.074 24.1012L122.261 30.3442C122.209 30.3744 122.143 30.3566 122.113 30.3044L118.575 24.177C118.545 24.1247 118.562 24.0585 118.615 24.0284L129.428 17.7854C129.48 17.7552 129.546 17.7729 129.577 17.8252L133.114 23.9526C133.144 24.0048 133.126 24.0713 133.074 24.1012ZM122.247 30.1014L132.871 23.9672L129.443 18.0285L118.818 24.1628L122.247 30.1014Z" fill="#0C0C0C"/>
<path d="M127.624 19.0781L122.735 21.9006C122.683 21.9308 122.617 21.913 122.586 21.8608C122.556 21.8086 122.574 21.7424 122.626 21.7122L127.515 18.8897C127.567 18.8595 127.633 18.8773 127.664 18.9295C127.694 18.9817 127.676 19.0479 127.624 19.0781Z" fill="#0C0C0C"/>
<path d="M133.075 24.1011L122.261 30.3441C122.209 30.3743 122.143 30.3565 122.113 30.3043L118.575 24.1769C118.545 24.1246 118.563 24.0584 118.615 24.0283L121.007 22.6469L116.843 15.4341C116.813 15.3819 116.831 15.3157 116.883 15.2855L122.722 11.9142C122.774 11.884 122.841 11.9018 122.871 11.954L127.035 19.1668L129.428 17.7855C129.48 17.7553 129.546 17.7731 129.576 17.8253L133.114 23.9527C133.145 24.0047 133.126 24.0712 133.075 24.1011ZM122.247 30.1013L132.872 23.9671L129.443 18.0284L127.05 19.4098C126.998 19.44 126.932 19.4222 126.902 19.37L122.737 12.1567L117.086 15.4193L121.251 22.6321C121.281 22.6843 121.263 22.7505 121.211 22.7807L118.818 24.162L122.247 30.1011L122.247 30.1013Z" fill="#0C0C0C"/>
<path d="M123.955 27.986C123.902 28.0161 123.836 27.9984 123.806 27.9461L121.908 24.6591C121.878 24.6069 121.896 24.5407 121.948 24.5106C122 24.4804 122.067 24.4981 122.097 24.5504L123.994 27.8374C124.025 27.8894 124.007 27.9558 123.955 27.986Z" fill="#0C0C0C"/>
<path d="M113.418 14.9788C113.418 14.9788 116.842 22.0163 111.993 27.6856L113.142 29.72C113.142 29.72 120.881 21.4113 117.128 13.7131L113.418 14.9788Z" fill="white"/>
<path d="M113.197 29.8142C113.177 29.8258 113.153 29.8308 113.129 29.828C113.095 29.8239 113.065 29.8038 113.048 29.7731L111.898 27.7392C111.876 27.6995 111.881 27.6494 111.911 27.6151C114.388 24.718 114.641 21.4534 114.417 19.2251C114.173 16.8025 113.329 15.0444 113.321 15.0265C113.307 14.9986 113.306 14.9658 113.318 14.9372C113.33 14.9086 113.354 14.8859 113.383 14.8761L117.093 13.61C117.145 13.5924 117.202 13.616 117.226 13.6655C119.184 17.6812 117.989 21.8561 116.641 24.651C115.185 27.6706 113.242 29.7734 113.222 29.7943C113.215 29.8023 113.206 29.809 113.197 29.8142ZM112.125 27.6986L113.162 29.5346C113.576 29.0649 115.194 27.1509 116.446 24.551C117.762 21.8209 118.931 17.7564 117.072 13.8474L113.567 15.0437C113.756 15.4715 114.418 17.0868 114.632 19.1958C114.861 21.4533 114.609 24.755 112.125 27.6986Z" fill="#0C0C0C"/>
<path d="M113.267 27.5507C113.229 27.5727 113.18 27.5701 113.144 27.5412C113.097 27.5031 113.09 27.4348 113.128 27.3882C115.285 24.7319 116.092 20.7722 115.626 18.4786C115.615 18.4197 115.653 18.3623 115.712 18.3501C115.77 18.3384 115.828 18.3759 115.84 18.4352C116.315 20.7783 115.494 24.8192 113.298 27.5256C113.288 27.5354 113.279 27.544 113.267 27.5507Z" fill="#0C0C0C"/>
<path d="M109.307 17.3234L129.054 11.0587L127.6 6.78993L107.947 13.0003L109.307 17.3234Z" fill="white"/>
<path d="M129.109 11.1527C129.102 11.1567 129.095 11.1598 129.087 11.1622L109.341 17.4274C109.313 17.4363 109.283 17.4337 109.258 17.42C109.232 17.4069 109.213 17.3837 109.204 17.356L107.844 13.0329C107.827 12.9757 107.858 12.9151 107.915 12.8964L127.568 6.68565C127.625 6.66786 127.685 6.69812 127.704 6.75433L129.158 11.0231C129.167 11.0509 129.166 11.0811 129.152 11.1069C129.142 11.1262 129.127 11.1421 129.109 11.1527ZM109.378 17.1863L128.915 10.988L127.531 6.92552L108.084 13.0715L109.378 17.1863Z" fill="#0C0C0C"/>
<path d="M126.921 8.52229C126.914 8.52625 126.907 8.52934 126.899 8.53202L109.481 14.0117C109.424 14.03 109.362 13.998 109.344 13.9404C109.327 13.8828 109.359 13.8224 109.416 13.8039L126.834 8.32417C126.891 8.30589 126.953 8.33787 126.971 8.3955C126.986 8.44529 126.964 8.49733 126.921 8.52229Z" fill="#0C0C0C"/>
<path d="M113.39 17.8277L126.086 13.834L123.683 6.19296L110.987 10.1867L113.39 17.8277Z" fill="white"/>
<mask id="path-19-inside-1_108_816" fill="white">
<path d="M126.145 13.9323C126.138 13.9363 126.131 13.9394 126.123 13.942L113.428 17.9359C113.401 17.9445 113.37 17.9418 113.345 17.9285C113.32 17.9152 113.3 17.8922 113.292 17.8646L110.888 10.2238C110.88 10.1962 110.882 10.1661 110.895 10.1408C110.909 10.1154 110.932 10.0958 110.959 10.0873L123.655 6.09339C123.712 6.07511 123.773 6.10709 123.791 6.16472L126.195 13.8055C126.21 13.8553 126.188 13.9073 126.145 13.9323ZM113.466 17.6958L125.954 13.767L123.615 6.33408L111.128 10.2628L113.466 17.6958Z"/>
</mask>
<path d="M126.145 13.9323C126.138 13.9363 126.131 13.9394 126.123 13.942L113.428 17.9359C113.401 17.9445 113.37 17.9418 113.345 17.9285C113.32 17.9152 113.3 17.8922 113.292 17.8646L110.888 10.2238C110.88 10.1962 110.882 10.1661 110.895 10.1408C110.909 10.1154 110.932 10.0958 110.959 10.0873L123.655 6.09339C123.712 6.07511 123.773 6.10709 123.791 6.16472L126.195 13.8055C126.21 13.8553 126.188 13.9073 126.145 13.9323ZM113.466 17.6958L125.954 13.767L123.615 6.33408L111.128 10.2628L113.466 17.6958Z" fill="#0C0C0C"/>
<path d="M126.123 13.942L126.423 14.8959L126.439 14.8909L126.455 14.8854L126.123 13.942ZM113.428 17.9359L113.723 18.8915L113.728 18.8899L113.428 17.9359ZM113.345 17.9285L113.81 17.043L113.345 17.9285ZM113.292 17.8646L114.247 17.5697L114.246 17.5645L113.292 17.8646ZM110.888 10.2238L109.932 10.5187L109.934 10.5239L110.888 10.2238ZM110.959 10.0873L111.254 11.0428L111.259 11.0412L110.959 10.0873ZM123.655 6.09339L123.955 7.04731L123.958 7.04619L123.655 6.09339ZM123.791 6.16472L122.836 6.46071L122.837 6.4648L123.791 6.16472ZM126.195 13.8055L127.149 13.5063L127.149 13.5054L126.195 13.8055ZM113.466 17.6958L112.513 17.9959L112.813 18.9498L113.767 18.6497L113.466 17.6958ZM125.954 13.767L126.254 14.7209L127.208 14.4208L126.908 13.4669L125.954 13.767ZM123.615 6.33408L124.569 6.03398L124.269 5.08006L123.315 5.38018L123.615 6.33408ZM111.128 10.2628L110.828 9.3089L109.874 9.60901L110.174 10.5629L111.128 10.2628ZM125.645 13.0663C125.709 13.0295 125.763 13.0088 125.792 12.9987L126.455 14.8854C126.499 14.8699 126.568 14.843 126.645 14.7983L125.645 13.0663ZM125.823 12.9881L113.128 16.982L113.728 18.8899L126.423 14.8959L125.823 12.9881ZM113.133 16.9804C113.354 16.9124 113.597 16.9314 113.81 17.043L112.881 18.8141C113.144 18.9523 113.448 18.9765 113.723 18.8915L113.133 16.9804ZM113.81 17.043C114.013 17.1498 114.175 17.3357 114.247 17.5697L112.336 18.1595C112.425 18.4488 112.626 18.6806 112.881 18.8141L113.81 17.043ZM114.246 17.5645L111.842 9.92375L109.934 10.5239L112.338 18.1647L114.246 17.5645ZM111.844 9.92892C111.912 10.1492 111.893 10.3926 111.781 10.6053L110.01 9.67622C109.872 9.93972 109.847 10.2432 109.933 10.5187L111.844 9.92892ZM111.781 10.6053C111.674 10.8089 111.488 10.9706 111.254 11.0428L110.664 9.13179C110.375 9.22107 110.143 9.4219 110.01 9.67622L111.781 10.6053ZM111.259 11.0412L123.955 7.0473L123.354 5.13949L110.659 9.1334L111.259 11.0412ZM123.958 7.04619C123.486 7.19679 122.982 6.93281 122.836 6.4607L124.746 5.86874C124.564 5.28138 123.938 4.95343 123.351 5.1406L123.958 7.04619ZM122.837 6.4648L125.241 14.1056L127.149 13.5054L124.745 5.86464L122.837 6.4648ZM125.241 14.1048C125.112 13.6939 125.295 13.2682 125.645 13.0663L126.645 14.7983C127.081 14.5465 127.309 14.0167 127.149 13.5063L125.241 14.1048ZM113.767 18.6497L126.254 14.7209L125.654 12.8131L113.166 16.7418L113.767 18.6497ZM126.908 13.4669L124.569 6.03398L122.662 6.63418L125 14.0671L126.908 13.4669ZM123.315 5.38018L110.828 9.3089L111.428 11.2167L123.916 7.28798L123.315 5.38018ZM110.174 10.5629L112.513 17.9959L114.42 17.3957L112.082 9.9627L110.174 10.5629Z" fill="#0C0C0C" mask="url(#path-19-inside-1_108_816)"/>
<mask id="path-21-inside-2_108_816" fill="white">
<path d="M122.978 8.00482C122.971 8.00877 122.964 8.01187 122.956 8.01454L112.652 11.2567C112.594 11.275 112.533 11.243 112.515 11.1854C112.497 11.1278 112.53 11.068 112.587 11.0489L122.891 7.8067C122.948 7.78842 123.01 7.8204 123.028 7.87802C123.043 7.92738 123.021 7.97985 122.978 8.00482Z"/>
</mask>
<path d="M122.978 8.00482C122.971 8.00877 122.964 8.01187 122.956 8.01454L112.652 11.2567C112.594 11.275 112.533 11.243 112.515 11.1854C112.497 11.1278 112.53 11.068 112.587 11.0489L122.891 7.8067C122.948 7.78842 123.01 7.8204 123.028 7.87802C123.043 7.92738 123.021 7.97985 122.978 8.00482Z" fill="#0C0C0C"/>
<path d="M122.956 8.01454L123.557 9.92234L123.588 9.91231L123.62 9.90122L122.956 8.01454ZM112.652 11.2567L112.051 9.34891L112.045 9.35113L112.652 11.2567ZM112.587 11.0489L111.986 9.14108L111.967 9.14701L111.949 9.15331L112.587 11.0489ZM122.891 7.8067L123.491 9.71451L123.498 9.71229L122.891 7.8067ZM123.028 7.87802L121.117 8.46999L121.118 8.47254L123.028 7.87802ZM121.978 6.27277C122.112 6.19526 122.228 6.15074 122.293 6.12787L123.62 9.90122C123.7 9.87301 123.83 9.82228 123.978 9.73687L121.978 6.27277ZM122.356 6.10675L112.051 9.34892L113.252 13.1645L123.557 9.92234L122.356 6.10675ZM112.045 9.35113C113.047 9.03169 114.115 9.59142 114.426 10.5934L110.605 11.7774C110.951 12.8946 112.142 13.5183 113.259 13.1623L112.045 9.35113ZM114.426 10.5934C114.743 11.6186 114.151 12.6327 113.224 12.9444L111.949 9.15331C110.909 9.50329 110.251 10.6369 110.605 11.7774L114.426 10.5934ZM113.187 12.9567L123.491 9.7145L122.291 5.89891L111.986 9.14108L113.187 12.9567ZM123.498 9.71229C122.496 10.0317 121.428 9.47216 121.117 8.46999L124.938 7.28605C124.592 6.16863 123.401 5.54516 122.284 5.90112L123.498 9.71229ZM121.118 8.47254C120.85 7.61145 121.228 6.70603 121.978 6.27277L123.978 9.73687C124.815 9.25367 125.236 8.24331 124.937 7.28351L121.118 8.47254Z" fill="#0C0C0C" mask="url(#path-21-inside-2_108_816)"/>
<path d="M75.9594 16.779C75.9441 16.8044 75.9131 16.8198 75.8675 16.8211L74.7222 16.8497C74.6168 16.8523 74.4748 16.777 74.4054 16.6813C74.336 16.5856 74.3649 16.5056 74.4703 16.503L75.6156 16.4743C75.721 16.4717 75.863 16.547 75.9324 16.6427C75.9713 16.6974 75.9791 16.7461 75.9594 16.779Z" fill="#0C0C0C"/>
<path d="M104.254 16.068C104.239 16.0935 104.208 16.1088 104.162 16.1101L101.805 16.1698C101.7 16.1725 101.558 16.0972 101.488 16.0015C101.419 15.9058 101.449 15.8263 101.553 15.8231L103.911 15.7639C104.017 15.7613 104.159 15.8366 104.228 15.9323C104.266 15.9859 104.274 16.0352 104.254 16.068ZM99.5385 16.1868C99.5232 16.2123 99.4922 16.2277 99.4463 16.2294L97.0879 16.2886C96.9824 16.2912 96.8405 16.2159 96.7714 16.1198C96.702 16.024 96.7306 15.9445 96.8372 15.9419L99.1956 15.8828C99.3011 15.8801 99.443 15.9554 99.5121 16.0516C99.5507 16.1048 99.5585 16.1535 99.5385 16.1868ZM94.822 16.3046C94.8067 16.3301 94.7757 16.3455 94.7298 16.3472L92.3714 16.4064C92.2659 16.409 92.124 16.3337 92.0549 16.2375C91.9855 16.1418 92.0141 16.0623 92.1207 16.0597L94.4791 16.0006C94.5846 15.9979 94.7265 16.0732 94.7956 16.1694C94.8348 16.2236 94.8417 16.2718 94.822 16.3046ZM90.1062 16.4235C90.0909 16.449 90.0598 16.4643 90.0139 16.4661L87.6555 16.5252C87.5501 16.5279 87.4082 16.4526 87.3391 16.3564C87.2697 16.2607 87.2982 16.1812 87.4049 16.1786L89.7633 16.1194C89.8687 16.1168 90.0106 16.1921 90.0798 16.2883C90.1183 16.3414 90.1259 16.3907 90.1062 16.4235ZM85.3906 16.5419C85.3753 16.5673 85.3443 16.5827 85.2987 16.584L82.9403 16.6431C82.8348 16.6458 82.6929 16.5705 82.6235 16.4748C82.5541 16.3791 82.583 16.299 82.6884 16.2964L85.0458 16.2367C85.1513 16.234 85.2932 16.3093 85.3626 16.405C85.4025 16.4603 85.4103 16.509 85.3906 16.5419ZM80.6748 16.6607C80.6595 16.6862 80.6284 16.7015 80.5828 16.7028L78.2254 16.7625C78.1199 16.7652 77.978 16.6899 77.9086 16.5942C77.8392 16.4985 77.868 16.4185 77.9735 16.4158L80.3319 16.3567C80.4373 16.354 80.5792 16.4293 80.6486 16.525C80.6869 16.5786 80.6945 16.6279 80.6748 16.6607Z" fill="#0C0C0C"/>
<path d="M107.758 15.9801C107.743 16.0056 107.712 16.021 107.666 16.0227L106.521 16.0513C106.415 16.054 106.273 15.9787 106.204 15.8825C106.135 15.7868 106.163 15.7073 106.27 15.7047L107.415 15.6761C107.521 15.6734 107.663 15.7487 107.732 15.8449C107.77 15.8981 107.778 15.9473 107.758 15.9801Z" fill="#0C0C0C"/>
<path d="M84.2344 36.0457C84.2128 36.0899 84.1839 36.1295 84.1502 36.1584L83.304 36.8778C83.2261 36.9441 83.1535 36.9245 83.1421 36.8336C83.1307 36.7427 83.1844 36.6152 83.2623 36.5489L84.1085 35.8295C84.1864 35.7632 84.259 35.7828 84.2704 35.8737C84.2764 35.9261 84.2622 35.9887 84.2344 36.0457Z" fill="#0C0C0C"/>
<path d="M105.142 18.2648C105.12 18.3091 105.091 18.3487 105.058 18.3775L103.315 19.8596C103.237 19.9258 103.165 19.9062 103.153 19.8154C103.142 19.7245 103.196 19.5972 103.274 19.5307L105.016 18.0488C105.094 17.9826 105.167 18.0022 105.178 18.0931C105.184 18.1444 105.17 18.2078 105.142 18.2648ZM101.657 21.2287C101.635 21.273 101.607 21.3126 101.572 21.3423L99.8298 22.8241C99.7519 22.8904 99.6793 22.8707 99.6684 22.779C99.657 22.6882 99.7103 22.5615 99.7891 22.4946L101.532 21.0127C101.61 20.9465 101.682 20.9661 101.693 21.0578C101.699 21.1083 101.685 21.1709 101.657 21.2287ZM98.1723 24.1916C98.1508 24.2358 98.1219 24.2754 98.0877 24.3051L96.3451 25.7869C96.2672 25.8532 96.1946 25.8336 96.1836 25.7419C96.1722 25.651 96.2256 25.5243 96.3044 25.4574L98.0469 23.9756C98.1248 23.9093 98.1974 23.9289 98.2084 24.0206C98.2148 24.0722 98.2001 24.1345 98.1723 24.1916ZM94.6876 27.1555C94.6661 27.1997 94.6372 27.2393 94.603 27.269L92.8604 28.7508C92.7825 28.8171 92.7099 28.7975 92.6989 28.7058C92.6875 28.6149 92.7409 28.4882 92.8197 28.4213L94.5622 26.9395C94.6402 26.8732 94.7128 26.8928 94.7237 26.9845C94.7301 27.035 94.7155 27.0985 94.6876 27.1555ZM91.2034 30.1185C91.1818 30.1627 91.1529 30.2024 91.1192 30.2312L89.3766 31.713C89.2987 31.7793 89.2261 31.7597 89.2147 31.6688C89.2033 31.5779 89.257 31.4504 89.3349 31.3841L91.0771 29.9021C91.155 29.8358 91.2276 29.8554 91.239 29.9463C91.2454 29.9989 91.2312 30.0615 91.2034 30.1185ZM87.7187 33.0824C87.6971 33.1266 87.6682 33.1663 87.6345 33.1951L85.8924 34.6771C85.8144 34.7434 85.7418 34.7238 85.7304 34.6329C85.719 34.5421 85.7728 34.4145 85.8507 34.3483L87.5933 32.8664C87.6712 32.8001 87.7438 32.8198 87.7552 32.9106C87.7611 32.962 87.7465 33.0254 87.7187 33.0824Z" fill="#0C0C0C"/>
<path d="M107.73 16.064C107.709 16.1082 107.68 16.1479 107.646 16.1775L106.8 16.897C106.722 16.9633 106.649 16.9436 106.638 16.8519C106.627 16.7611 106.68 16.6344 106.759 16.5675L107.605 15.848C107.683 15.7817 107.755 15.8014 107.766 15.8931C107.773 15.9436 107.758 16.007 107.73 16.064Z" fill="#0C0C0C"/>
<path d="M84.3923 25.1529C84.3747 25.1823 84.3483 25.2056 84.3149 25.2186L83.479 25.5425C83.402 25.5723 83.3187 25.5338 83.2932 25.4562C83.2677 25.3786 83.3092 25.2913 83.3861 25.2615L84.2221 24.9377C84.299 24.9079 84.3823 24.9464 84.4078 25.024C84.4219 25.0685 84.415 25.1151 84.3923 25.1529Z" fill="#0C0C0C"/>
<path d="M105.046 17.1485C105.028 17.1779 105.002 17.2012 104.969 17.2142L103.248 17.8816C103.171 17.9114 103.088 17.8729 103.062 17.7953C103.037 17.7177 103.079 17.6308 103.155 17.6006L104.876 16.9336C104.953 16.9038 105.037 16.9423 105.062 17.0199C105.076 17.0635 105.069 17.1107 105.046 17.1485ZM101.604 18.4829C101.586 18.5123 101.56 18.5356 101.526 18.5492L99.8046 19.2162C99.7276 19.246 99.6443 19.2075 99.6191 19.1294C99.5936 19.0518 99.6347 18.9651 99.7126 18.935L101.434 18.268C101.511 18.2381 101.594 18.2766 101.619 18.3548C101.634 18.3979 101.627 18.4445 101.604 18.4829ZM98.1611 19.8164C98.1435 19.8457 98.1171 19.8691 98.0834 19.8826L96.362 20.5497C96.285 20.5795 96.2017 20.541 96.1765 20.4628C96.151 20.3853 96.1922 20.2986 96.27 20.2685L97.9915 19.6015C98.0684 19.5716 98.1517 19.6101 98.1769 19.6883C98.1913 19.7323 98.1839 19.7786 98.1611 19.8164ZM94.7187 21.1508C94.7011 21.1801 94.6747 21.2034 94.641 21.217L92.9196 21.884C92.8426 21.9139 92.7593 21.8754 92.7341 21.7972C92.7086 21.7196 92.7498 21.6329 92.8276 21.6029L94.5491 20.9358C94.626 20.906 94.7093 20.9445 94.7345 21.0227C94.7487 21.0658 94.7415 21.1129 94.7187 21.1508ZM91.2767 22.4846C91.259 22.5139 91.2326 22.5372 91.1993 22.5503L89.4778 23.2173C89.4009 23.2471 89.3176 23.2086 89.2921 23.131C89.2665 23.0534 89.308 22.9662 89.385 22.9363L91.1059 22.269C91.1829 22.2392 91.2662 22.2777 91.2917 22.3553C91.3063 22.4001 91.2994 22.4467 91.2767 22.4846ZM87.8343 23.8189C87.8166 23.8483 87.7902 23.8716 87.7569 23.8846L86.036 24.552C85.959 24.5818 85.8757 24.5433 85.8502 24.4657C85.8247 24.3881 85.8662 24.3009 85.9431 24.271L87.6646 23.604C87.7416 23.5742 87.8248 23.6127 87.8504 23.6903C87.8642 23.7339 87.857 23.7811 87.8343 23.8189Z" fill="#0C0C0C"/>
<path d="M107.604 16.1578C107.586 16.1872 107.56 16.2105 107.526 16.2241L106.69 16.5479C106.613 16.5777 106.53 16.5392 106.505 16.461C106.479 16.3835 106.52 16.2968 106.598 16.2667L107.434 15.9429C107.511 15.913 107.594 15.9515 107.619 16.0297C107.634 16.0728 107.626 16.12 107.604 16.1578Z" fill="#0C0C0C"/>
<path d="M86.1634 28.757C86.1469 28.7845 86.1249 28.8079 86.0992 28.8233L85.4553 29.209C85.396 29.2445 85.341 29.2222 85.3326 29.159C85.3242 29.0958 85.3654 29.0156 85.4247 28.9801L86.0686 28.5944C86.1279 28.5589 86.1829 28.5812 86.1912 28.6444C86.1956 28.6808 86.1846 28.7216 86.1634 28.757Z" fill="#0C0C0C"/>
<path d="M102.072 19.2258C102.056 19.2532 102.034 19.2766 102.008 19.2921L100.682 20.0866C100.623 20.1221 100.568 20.0999 100.56 20.0366C100.551 19.9734 100.593 19.8934 100.652 19.8577L101.978 19.0634C102.037 19.0278 102.092 19.0501 102.1 19.1134C102.105 19.149 102.093 19.1904 102.072 19.2258ZM99.4205 20.8146C99.404 20.8421 99.382 20.8655 99.356 20.8815L98.03 21.6758C97.9707 21.7113 97.9157 21.689 97.9076 21.6253C97.8993 21.562 97.9401 21.4824 98.0001 21.4465L99.326 20.6522C99.3853 20.6167 99.4403 20.639 99.4484 20.7027C99.453 20.7379 99.4421 20.7787 99.4205 20.8146ZM96.7689 22.4027C96.7524 22.4302 96.7303 22.4536 96.7043 22.4696L95.3783 23.2639C95.3191 23.2994 95.2641 23.2771 95.256 23.2134C95.2476 23.1501 95.2885 23.0705 95.3484 23.0346L96.6744 22.2403C96.7337 22.2048 96.7887 22.2271 96.7967 22.2908C96.8014 22.3267 96.7901 22.3673 96.7689 22.4027ZM94.1173 23.9915C94.1008 24.019 94.0787 24.0424 94.0527 24.0584L92.7267 24.8527C92.6675 24.8882 92.6125 24.866 92.6044 24.8022C92.596 24.739 92.6369 24.6593 92.6968 24.6235L94.0228 23.8291C94.0821 23.7936 94.1371 23.8159 94.1451 23.8797C94.1498 23.9148 94.1385 23.9562 94.1173 23.9915ZM91.466 25.5798C91.4495 25.6073 91.4274 25.6307 91.4018 25.6462L90.0758 26.4405C90.0165 26.476 89.9615 26.4538 89.9531 26.3905C89.9447 26.3273 89.9859 26.2471 90.0452 26.2116L91.3708 25.417C91.4301 25.3815 91.4851 25.4038 91.4935 25.467C91.4982 25.5036 91.4872 25.5445 91.466 25.5798ZM88.8144 27.1687C88.7979 27.1961 88.7758 27.2196 88.7502 27.235L87.4245 28.0295C87.3652 28.0651 87.3102 28.0428 87.3019 27.9796C87.2935 27.9163 87.3346 27.8361 87.3939 27.8006L88.7199 27.0063C88.7792 26.9708 88.8342 26.993 88.8426 27.0563C88.8469 27.0919 88.8356 27.1333 88.8144 27.1687Z" fill="#0C0C0C"/>
<path d="M104.042 18.0456C104.026 18.0731 104.004 18.0965 103.978 18.1125L103.334 18.4981C103.275 18.5336 103.22 18.5114 103.212 18.4476C103.203 18.3844 103.244 18.3047 103.304 18.2688L103.948 17.8832C104.007 17.8477 104.062 17.87 104.07 17.9337C104.075 17.9689 104.064 18.0102 104.042 18.0456Z" fill="#0C0C0C"/>
<path d="M83.0469 18.8665C83.0359 18.8848 83.0153 18.8969 82.9861 18.9L82.2538 18.9755C82.1864 18.9824 82.0994 18.9374 82.0598 18.8747C82.0202 18.8121 82.0425 18.7555 82.1099 18.7485L82.8422 18.673C82.9097 18.6661 82.9966 18.7111 83.0362 18.7738C83.0584 18.8096 83.0611 18.8429 83.0469 18.8665Z" fill="#0C0C0C"/>
<path d="M101.14 16.9991C101.129 17.0175 101.109 17.0296 101.08 17.0327L99.5721 17.1886C99.5047 17.1955 99.4177 17.1505 99.3781 17.0878C99.3385 17.0252 99.3613 16.9689 99.4282 16.9616L100.936 16.806C101.004 16.7991 101.091 16.8441 101.13 16.9068C101.152 16.9419 101.155 16.9755 101.14 16.9991ZM98.1247 17.3106C98.1137 17.3289 98.0932 17.341 98.0638 17.3445L96.5557 17.5C96.4883 17.507 96.4013 17.4619 96.3619 17.3989C96.3223 17.3363 96.3444 17.28 96.4126 17.273L97.9207 17.1175C97.9881 17.1105 98.075 17.1556 98.1144 17.2186C98.1365 17.2534 98.1391 17.2866 98.1247 17.3106ZM95.1087 17.6213C95.0977 17.6397 95.0772 17.6518 95.0478 17.6552L93.5397 17.8108C93.4723 17.8177 93.3853 17.7727 93.3459 17.7097C93.3063 17.647 93.3284 17.5908 93.3966 17.5838L94.9047 17.4282C94.9721 17.4213 95.059 17.4663 95.0984 17.5293C95.1208 17.5648 95.1229 17.5977 95.1087 17.6213ZM92.0931 17.9328C92.0821 17.9511 92.0615 17.9632 92.0321 17.9667L90.524 18.1222C90.4566 18.1292 90.3697 18.0841 90.3303 18.0211C90.2906 17.9585 90.3127 17.9022 90.3809 17.8952L91.889 17.7397C91.9565 17.7327 92.0434 17.7778 92.0828 17.8408C92.1048 17.8756 92.1073 17.9092 92.0931 17.9328ZM89.0777 18.2439C89.0667 18.2622 89.0461 18.2743 89.0169 18.2774L87.5088 18.433C87.4414 18.4399 87.3545 18.3949 87.3148 18.3322C87.2752 18.2696 87.2975 18.213 87.3649 18.206L88.8725 18.0501C88.9399 18.0431 89.0268 18.0882 89.0665 18.1508C89.0892 18.187 89.0919 18.2203 89.0777 18.2439ZM86.062 18.5553C86.051 18.5737 86.0305 18.5858 86.0013 18.5889L84.4938 18.7448C84.4264 18.7517 84.3394 18.7067 84.2998 18.644C84.2602 18.5814 84.2825 18.5248 84.3499 18.5178L85.858 18.3622C85.9254 18.3553 86.0123 18.4003 86.052 18.463C86.0738 18.4981 86.0762 18.5317 86.062 18.5553Z" fill="#0C0C0C"/>
<path d="M103.381 16.768C103.37 16.7863 103.349 16.7984 103.32 16.8019L102.588 16.8773C102.52 16.8843 102.433 16.8393 102.394 16.7762C102.354 16.7136 102.376 16.6573 102.445 16.6504L103.177 16.5749C103.244 16.5679 103.331 16.613 103.371 16.676C103.393 16.7108 103.395 16.7444 103.381 16.768Z" fill="#0C0C0C"/>
<path d="M89.4349 20.6793C89.4254 20.6951 89.4102 20.7069 89.3902 20.7126L88.8877 20.8538C88.8414 20.8668 88.7878 20.8408 88.768 20.7955C88.7482 20.7502 88.7695 20.7029 88.8158 20.6899L89.3183 20.5487C89.3646 20.5357 89.4182 20.5617 89.438 20.607C89.449 20.633 89.4471 20.659 89.4349 20.6793Z" fill="#0C0C0C"/>
<path d="M101.85 17.189C101.841 17.2048 101.826 17.2167 101.806 17.2224L100.771 17.5134C100.725 17.5264 100.671 17.5004 100.652 17.4551C100.632 17.4098 100.653 17.3627 100.699 17.3495L101.734 17.0586C101.781 17.0456 101.834 17.0717 101.854 17.1169C101.865 17.1424 101.863 17.1688 101.85 17.189ZM99.7811 17.771C99.7717 17.7867 99.7565 17.7986 99.7363 17.8046L98.7014 18.0954C98.6552 18.1084 98.6015 18.0824 98.5819 18.0368C98.5621 17.9915 98.5833 17.9445 98.6301 17.9314L99.6649 17.6405C99.7112 17.6275 99.7648 17.6536 99.7844 17.6991C99.7954 17.7243 99.7935 17.7504 99.7811 17.771ZM97.7117 18.3524C97.7022 18.3681 97.687 18.38 97.6668 18.386L96.6319 18.6768C96.5857 18.6898 96.532 18.6638 96.5124 18.6182C96.4926 18.5729 96.5138 18.5259 96.5606 18.5128L97.5954 18.2219C97.6417 18.2089 97.6953 18.235 97.7149 18.2805C97.7261 18.3062 97.7238 18.3321 97.7117 18.3524ZM95.6423 18.9343C95.6329 18.95 95.6177 18.9619 95.5974 18.9679L94.5626 19.2588C94.5163 19.2718 94.4627 19.2457 94.4431 19.2001C94.4233 19.1549 94.4445 19.1078 94.4913 19.0947L95.5261 18.8038C95.5724 18.7908 95.626 18.8169 95.6456 18.8625C95.6566 18.8876 95.6545 18.914 95.6423 18.9343ZM93.5732 19.5159C93.5637 19.5316 93.5485 19.5435 93.5285 19.5492L92.4936 19.8401C92.4474 19.8531 92.3937 19.827 92.3739 19.7817C92.3542 19.7365 92.3755 19.6891 92.4218 19.6761L93.4562 19.385C93.5025 19.372 93.5562 19.3981 93.5759 19.4433C93.5873 19.4695 93.5854 19.4956 93.5732 19.5159ZM91.5039 20.0978C91.4944 20.1135 91.4792 20.1254 91.4591 20.1311L90.4247 20.4222C90.3784 20.4352 90.3247 20.4091 90.305 20.3639C90.2852 20.3186 90.3065 20.2712 90.3528 20.2582L91.3876 19.9674C91.4339 19.9543 91.4875 19.9804 91.5073 20.0257C91.5181 20.0511 91.516 20.0775 91.5039 20.0978Z" fill="#0C0C0C"/>
<path d="M103.388 16.7569C103.379 16.7727 103.363 16.7845 103.343 16.7905L102.841 16.9317C102.794 16.9447 102.741 16.9187 102.721 16.8731C102.701 16.8278 102.722 16.7808 102.769 16.7677L103.272 16.6265C103.318 16.6135 103.372 16.6395 103.391 16.6851C103.402 16.7102 103.4 16.7366 103.388 16.7569Z" fill="#0C0C0C"/>
<path d="M21.7252 35.599C21.3452 34.899 20.7952 34.369 20.0752 34.009C19.3752 33.629 18.5452 33.439 17.5852 33.439C15.9252 33.439 14.5952 33.989 13.5952 35.089C12.5952 36.169 12.0952 37.619 12.0952 39.439C12.0952 41.379 12.6152 42.899 13.6552 43.999C14.7152 45.079 16.1652 45.619 18.0052 45.619C19.2652 45.619 20.3252 45.299 21.1852 44.659C22.0652 44.019 22.7052 43.099 23.1052 41.899H16.5952V38.119H27.7552V42.889C27.3752 44.169 26.7252 45.359 25.8052 46.459C24.9052 47.559 23.7552 48.449 22.3552 49.129C20.9552 49.809 19.3752 50.149 17.6152 50.149C15.5352 50.149 13.6752 49.699 12.0352 48.799C10.4152 47.879 9.14515 46.609 8.22515 44.989C7.32515 43.369 6.87515 41.519 6.87515 39.439C6.87515 37.359 7.32515 35.509 8.22515 33.889C9.14515 32.249 10.4152 30.979 12.0352 30.079C13.6552 29.159 15.5052 28.699 17.5852 28.699C20.1052 28.699 22.2252 29.309 23.9452 30.529C25.6852 31.749 26.8352 33.439 27.3952 35.599H21.7252ZM83.6787 41.599C83.6787 39.879 83.9987 38.369 84.6387 37.069C85.2987 35.769 86.1887 34.769 87.3087 34.069C88.4287 33.369 89.6787 33.019 91.0587 33.019C92.1587 33.019 93.1587 33.249 94.0587 33.709C94.9787 34.169 95.6987 34.789 96.2187 35.569V27.799H101.349V49.999H96.2187V47.599C95.7387 48.399 95.0487 49.039 94.1487 49.519C93.2687 49.999 92.2387 50.239 91.0587 50.239C89.6787 50.239 88.4287 49.889 87.3087 49.189C86.1887 48.469 85.2987 47.459 84.6387 46.159C83.9987 44.839 83.6787 43.319 83.6787 41.599ZM96.2187 41.629C96.2187 40.349 95.8587 39.339 95.1387 38.599C94.4387 37.859 93.5787 37.489 92.5587 37.489C91.5387 37.489 90.6687 37.859 89.9487 38.599C89.2487 39.319 88.8987 40.319 88.8987 41.599C88.8987 42.879 89.2487 43.899 89.9487 44.659C90.6687 45.399 91.5387 45.769 92.5587 45.769C93.5787 45.769 94.4387 45.399 95.1387 44.659C95.8587 43.919 96.2187 42.909 96.2187 41.629ZM122.31 35.719C122.31 36.939 122.03 38.059 121.47 39.079C120.91 40.079 120.05 40.889 118.89 41.509C117.73 42.129 116.29 42.439 114.57 42.439H111.39V49.999H106.26V28.939H114.57C116.25 28.939 117.67 29.229 118.83 29.809C119.99 30.389 120.86 31.189 121.44 32.209C122.02 33.229 122.31 34.399 122.31 35.719ZM114.18 38.359C115.16 38.359 115.89 38.129 116.37 37.669C116.85 37.209 117.09 36.559 117.09 35.719C117.09 34.879 116.85 34.229 116.37 33.769C115.89 33.309 115.16 33.079 114.18 33.079H111.39V38.359H114.18ZM133.801 50.239C132.161 50.239 130.681 49.889 129.361 49.189C128.061 48.489 127.031 47.489 126.271 46.189C125.531 44.889 125.161 43.369 125.161 41.629C125.161 39.909 125.541 38.399 126.301 37.099C127.061 35.779 128.101 34.769 129.421 34.069C130.741 33.369 132.221 33.019 133.861 33.019C135.501 33.019 136.981 33.369 138.301 34.069C139.621 34.769 140.661 35.779 141.421 37.099C142.181 38.399 142.561 39.909 142.561 41.629C142.561 43.349 142.171 44.869 141.391 46.189C140.631 47.489 139.581 48.489 138.241 49.189C136.921 49.889 135.441 50.239 133.801 50.239ZM133.801 45.799C134.781 45.799 135.611 45.439 136.291 44.719C136.991 43.999 137.341 42.969 137.341 41.629C137.341 40.289 137.001 39.259 136.321 38.539C135.661 37.819 134.841 37.459 133.861 37.459C132.861 37.459 132.031 37.819 131.371 38.539C130.711 39.239 130.381 40.269 130.381 41.629C130.381 42.969 130.701 43.999 131.341 44.719C132.001 45.439 132.821 45.799 133.801 45.799ZM149.062 31.519C148.162 31.519 147.422 31.259 146.842 30.739C146.282 30.199 146.002 29.539 146.002 28.759C146.002 27.959 146.282 27.299 146.842 26.779C147.422 26.239 148.162 25.969 149.062 25.969C149.942 25.969 150.662 26.239 151.222 26.779C151.802 27.299 152.092 27.959 152.092 28.759C152.092 29.539 151.802 30.199 151.222 30.739C150.662 31.259 149.942 31.519 149.062 31.519ZM151.612 33.259V49.999H146.482V33.259H151.612ZM163.34 50.239C161.88 50.239 160.58 49.989 159.44 49.489C158.3 48.989 157.4 48.309 156.74 47.449C156.08 46.569 155.71 45.589 155.63 44.509H160.7C160.76 45.089 161.03 45.559 161.51 45.919C161.99 46.279 162.58 46.459 163.28 46.459C163.92 46.459 164.41 46.339 164.75 46.099C165.11 45.839 165.29 45.509 165.29 45.109C165.29 44.629 165.04 44.279 164.54 44.059C164.04 43.819 163.23 43.559 162.11 43.279C160.91 42.999 159.91 42.709 159.11 42.409C158.31 42.089 157.62 41.599 157.04 40.939C156.46 40.259 156.17 39.349 156.17 38.209C156.17 37.249 156.43 36.379 156.95 35.599C157.49 34.799 158.27 34.169 159.29 33.709C160.33 33.249 161.56 33.019 162.98 33.019C165.08 33.019 166.73 33.539 167.93 34.579C169.15 35.619 169.85 36.999 170.03 38.719H165.29C165.21 38.139 164.95 37.679 164.51 37.339C164.09 36.999 163.53 36.829 162.83 36.829C162.23 36.829 161.77 36.949 161.45 37.189C161.13 37.409 160.97 37.719 160.97 38.119C160.97 38.599 161.22 38.959 161.72 39.199C162.24 39.439 163.04 39.679 164.12 39.919C165.36 40.239 166.37 40.559 167.15 40.879C167.93 41.179 168.61 41.679 169.19 42.379C169.79 43.059 170.1 43.979 170.12 45.139C170.12 46.119 169.84 46.999 169.28 47.779C168.74 48.539 167.95 49.139 166.91 49.579C165.89 50.019 164.7 50.239 163.34 50.239ZM182.078 50.239C180.438 50.239 178.958 49.889 177.638 49.189C176.338 48.489 175.308 47.489 174.548 46.189C173.808 44.889 173.438 43.369 173.438 41.629C173.438 39.909 173.818 38.399 174.578 37.099C175.338 35.779 176.378 34.769 177.698 34.069C179.018 33.369 180.498 33.019 182.138 33.019C183.778 33.019 185.258 33.369 186.578 34.069C187.898 34.769 188.938 35.779 189.698 37.099C190.458 38.399 190.838 39.909 190.838 41.629C190.838 43.349 190.448 44.869 189.668 46.189C188.908 47.489 187.858 48.489 186.518 49.189C185.198 49.889 183.718 50.239 182.078 50.239ZM182.078 45.799C183.058 45.799 183.888 45.439 184.568 44.719C185.268 43.999 185.618 42.969 185.618 41.629C185.618 40.289 185.278 39.259 184.598 38.539C183.938 37.819 183.118 37.459 182.138 37.459C181.138 37.459 180.308 37.819 179.648 38.539C178.988 39.239 178.658 40.269 178.658 41.629C178.658 42.969 178.978 43.999 179.618 44.719C180.278 45.439 181.098 45.799 182.078 45.799ZM204.96 33.079C206.92 33.079 208.48 33.719 209.64 34.999C210.82 36.259 211.41 37.999 211.41 40.219V49.999H206.31V40.909C206.31 39.789 206.02 38.919 205.44 38.299C204.86 37.679 204.08 37.369 203.1 37.369C202.12 37.369 201.34 37.679 200.76 38.299C200.18 38.919 199.89 39.789 199.89 40.909V49.999H194.76V33.259H199.89V35.479C200.41 34.739 201.11 34.159 201.99 33.739C202.87 33.299 203.86 33.079 204.96 33.079Z" fill="#0C0C0C"/>
<path d="M78.604 36.616C77.8566 36.0509 75.9755 35.9306 74.5281 35.9306C73.1027 35.9306 71.71 36.04 70.8825 36.1457C70.3903 36.2077 69.5518 36.2988 68.582 36.4082C65.8113 36.7181 62.0198 37.1373 60.7147 37.4217C60.0694 37.5602 59.6975 37.6514 59.4897 37.7571C59.5444 37.0462 59.4751 36.3462 59.3804 35.7666C60.2298 35.1796 60.7001 33.6411 60.7001 33.6411C60.7183 33.5391 61.5678 31.6652 61.9615 30.4767C62.3552 29.2882 62.0818 29.0148 62.0818 29.0148C63.7515 27.4325 63.7078 26.9732 63.7078 26.9732C64.6083 26.5649 64.4661 26.1165 64.4661 26.1165C65.1551 25.7774 65.0785 25.3071 65.0785 25.3071C65.5051 25.1431 65.5197 24.7858 65.5197 24.7858C65.7238 24.6144 66.2196 24.1806 65.9936 24.0275C65.7056 23.8379 65.3811 24.691 65.3811 24.691C65.1077 24.64 64.9728 25.2379 64.9728 25.2379C64.6848 25.2196 64.3603 26.0217 64.3603 26.0217C64.0359 25.8358 63.5765 26.8711 63.5765 26.8711C63.3031 26.8018 61.8412 28.9127 61.8412 28.9127C61.4146 28.9127 61.1777 30.0866 61.1084 31.0564C61.0391 32.0261 60.361 33.5063 60.361 33.5063C59.7449 33.7578 59.3512 34.2354 59.0996 34.7057C58.7752 33.9729 58.2939 33.6667 58.2939 33.6667C58.9575 33.55 59.0668 33.251 59.1288 33.1818C59.1871 33.1125 59.4533 33.1635 59.4022 32.3141C59.3512 31.4647 58.1335 30.9871 57.9294 30.9288C57.7252 30.8668 57.8455 30.9178 57.4882 30.6481C57.131 30.3746 56.3471 30.4111 56.3471 30.4111C56.3471 30.4111 55.5633 30.3783 55.206 30.6481C54.8488 30.9215 54.9691 30.8704 54.7649 30.9288C54.5608 30.9871 53.3431 31.4647 53.2921 32.3141C53.241 33.1635 53.5035 33.1125 53.5655 33.1818C53.6238 33.251 53.7368 33.55 54.4003 33.6667C54.4003 33.6667 53.9191 33.9729 53.5947 34.7057C53.3431 34.2354 52.9494 33.7542 52.3332 33.5063C52.3332 33.5063 51.6515 32.0261 51.5859 31.0564C51.5166 30.0866 51.2796 28.9127 50.8531 28.9127C50.8531 28.9127 49.3912 26.8018 49.1178 26.8711C49.1178 26.8711 48.6584 25.8321 48.334 26.0217C48.334 26.0217 48.0095 25.2196 47.7215 25.2379C47.7215 25.2379 47.5866 24.6436 47.3131 24.691C47.3131 24.691 46.9887 23.8379 46.7007 24.0275C46.4746 24.1806 46.9705 24.6144 47.1746 24.7858C47.1746 24.7858 47.1892 25.1467 47.6157 25.3071C47.6157 25.3071 47.5392 25.7811 48.2282 26.1165C48.2282 26.1165 48.086 26.5649 48.9865 26.9732C48.9865 26.9732 48.9464 27.4289 50.6125 29.0148C50.6125 29.0148 50.3391 29.2882 50.7328 30.4767C51.1229 31.6688 51.976 33.5391 51.9906 33.6411C51.9906 33.6411 52.4608 35.1796 53.3103 35.7666C53.2155 36.3499 53.1462 37.0462 53.2009 37.7571C52.9931 37.6514 52.6213 37.5602 51.976 37.4217C50.6708 37.1373 46.8793 36.7145 44.1086 36.4082C43.1389 36.3025 42.3003 36.2077 41.8082 36.1457C40.977 36.04 39.5843 35.9306 38.1625 35.9306C36.7188 35.9306 34.8376 36.0509 34.0866 36.616C33.3976 37.1374 33.0112 37.7863 33.0002 38.4389C32.9893 39.106 33.3648 39.7659 34.0866 40.3455C35.4173 41.421 37.3714 42.0955 38.6656 42.5439C38.9208 42.6314 39.1432 42.7079 39.3328 42.7809C39.7265 42.9267 40.1385 43.1746 40.5796 43.4407C41.4801 43.9839 42.5009 44.5964 43.9154 44.7495L43.9336 44.7532C44.1305 44.775 44.32 44.7933 44.5096 44.8152C44.5133 44.8152 44.5206 44.8152 44.5279 44.8152C44.9398 44.8553 45.3409 44.8844 45.7382 44.8844C46.4747 44.8844 47.2767 44.7969 48.0605 44.3448C48.0277 44.4469 48.0131 44.5344 48.0204 44.6219C48.0204 44.6219 46.0809 46.5104 45.9788 46.8859C45.9788 46.8859 45.1476 47.4255 44.9289 47.7827C44.9289 47.7827 44.4659 47.9759 44.3273 48.2494C44.3273 48.2494 43.9518 48.3697 43.868 48.6066C43.868 48.6066 43.1425 48.9749 43.2227 49.2519C43.2774 49.4415 43.7951 48.9639 43.9482 48.727C43.9482 48.727 44.3711 48.6358 44.4294 48.366C44.4294 48.366 44.907 48.2421 45.0419 47.8885C45.0419 47.8885 45.7564 47.4801 46.0627 47.039C46.0627 47.039 46.5403 46.7328 47.273 46C48.0058 45.2672 48.0897 45.0302 48.3631 44.961C48.6365 44.8917 48.9574 44.5709 49.198 44.024C49.2745 43.8454 49.4204 43.3933 49.5844 42.8647C49.6136 42.821 49.6427 42.7772 49.6719 42.7335C49.7485 42.7007 50.113 42.5475 50.5104 42.285C50.9114 42.0262 51.4291 41.6033 51.6734 41.0492C51.7937 41.1585 52.0926 41.3846 52.5374 41.3846C52.8692 41.3846 53.2082 41.257 53.5473 41.0091C53.5655 41.0054 53.6092 40.9981 53.6603 40.9835C53.6931 40.9908 53.7295 40.9945 53.7623 40.9981C53.6384 41.3991 53.4926 41.9059 53.3613 42.4418C52.8947 42.6059 52.3989 42.8501 52.0708 43.2074C51.2687 44.0751 51.2031 44.5672 51.2031 44.7568C51.2031 44.7568 50.5906 45.8286 50.4557 46.9187C50.3208 48.0087 49.9125 49.3358 50.2516 49.642C50.2516 49.642 48.4469 51.1586 48.2246 51.618C48.2246 51.618 47.5939 51.855 47.4225 52.3325C47.4225 52.3325 46.6387 52.7226 46.7262 52.9122C46.7262 52.9122 46.1939 53.0835 46.2122 53.3023C46.2122 53.3023 45.4138 53.7471 45.5705 53.9658C45.6908 54.1371 46.2231 53.6195 46.2924 53.4153C46.2924 53.4153 46.5877 53.47 46.8101 53.0143C46.8101 53.0143 47.0507 53.0908 47.5282 52.431C47.5282 52.431 48.1261 52.2232 48.3376 51.7529C48.3376 51.7529 48.498 51.7711 49.1032 51.155C49.7084 50.5352 50.2771 49.8608 50.4375 49.828C50.5979 49.7951 50.7364 49.4889 50.7875 49.128C50.7875 49.128 51.1338 45.2927 51.2906 45.0886C51.451 44.8844 51.575 44.8808 51.8374 44.7641C52.0817 44.6584 52.5483 44.3995 53.0332 44.0678C52.9712 44.5089 52.9421 44.9209 52.9712 45.2599C53.1061 46.9296 53.6129 48.8691 54.9472 50.3165C55.8732 51.3227 56.0701 51.5268 56.3435 51.5268C56.6169 51.5268 56.8101 51.3263 57.7398 50.3165C59.0705 48.8728 59.5772 46.9296 59.7157 45.2599C59.7449 44.9209 59.7158 44.5089 59.6538 44.0678C60.1387 44.3995 60.6089 44.6584 60.8495 44.7641C61.1157 44.8808 61.2396 44.8844 61.4 45.0886C61.5605 45.2927 61.9032 49.128 61.9032 49.128C61.9542 49.4925 62.0964 49.7988 62.2531 49.828C62.4136 49.8608 62.9823 50.5352 63.5875 51.155C64.1926 51.7748 64.3531 51.7529 64.3531 51.7529C64.5645 52.2268 65.1624 52.431 65.1624 52.431C65.64 53.0945 65.8806 53.0143 65.8806 53.0143C66.103 53.47 66.3983 53.4153 66.3983 53.4153C66.4675 53.6195 67.0035 54.1335 67.1201 53.9658C67.2732 53.7434 66.4785 53.3023 66.4785 53.3023C66.4967 53.0799 65.9644 52.9122 65.9644 52.9122C66.0483 52.7263 65.2645 52.3325 65.2645 52.3325C65.0931 51.855 64.4661 51.618 64.4661 51.618C64.2437 51.1586 62.4391 49.642 62.4391 49.642C62.7781 49.3358 62.3698 48.0087 62.2349 46.9187C62.1 45.8286 61.4875 44.7568 61.4875 44.7568C61.4875 44.5709 61.4183 44.0751 60.6199 43.2074C60.2918 42.8501 59.7996 42.6059 59.3293 42.4418C59.1944 41.9059 59.0486 41.3991 58.9283 40.9981C58.9611 40.9945 58.9975 40.9872 59.0304 40.9835C59.0814 40.9981 59.1251 41.0054 59.1434 41.0091C59.4824 41.2606 59.8251 41.3846 60.1532 41.3846C60.598 41.3846 60.8969 41.1585 61.0173 41.0492C61.2615 41.6033 61.7792 42.0262 62.1802 42.285C62.5776 42.5475 62.9422 42.7007 63.0187 42.7335C63.0479 42.7772 63.0771 42.821 63.1062 42.8647C63.2703 43.397 63.4161 43.849 63.4963 44.024C63.7333 44.5672 64.0578 44.8917 64.3312 44.961C64.6046 45.0302 64.6885 45.2672 65.4212 46C66.154 46.7328 66.628 47.039 66.628 47.039C66.9342 47.4801 67.6487 47.8885 67.6487 47.8885C67.7836 48.2384 68.2612 48.366 68.2612 48.366C68.3195 48.6358 68.7424 48.727 68.7424 48.727C68.8956 48.9639 69.4132 49.4415 69.4679 49.2519C69.5445 48.9749 68.8226 48.6066 68.8226 48.6066C68.7388 48.3697 68.3633 48.2494 68.3633 48.2494C68.2284 47.9759 67.7618 47.7827 67.7618 47.7827C67.5394 47.4255 66.7118 46.8859 66.7118 46.8859C66.6097 46.5104 64.6702 44.6219 64.6702 44.6219C64.6775 44.5344 64.6666 44.4433 64.6301 44.3448C65.4139 44.7969 66.216 44.8844 66.9524 44.8844C67.3498 44.8844 67.7508 44.8516 68.1628 44.8152C68.1701 44.8152 68.1737 44.8152 68.181 44.8152C68.3706 44.7969 68.5602 44.775 68.757 44.7532L68.7753 44.7495C70.1898 44.5964 71.2106 43.9803 72.1111 43.4407C72.5485 43.1782 72.9641 42.9267 73.3579 42.7809C73.5474 42.7116 73.7698 42.635 74.025 42.5439C75.3192 42.0955 77.2733 41.421 78.604 40.3455C79.3258 39.7659 79.6977 39.106 79.6904 38.4389C79.6795 37.7863 79.293 37.1374 78.604 36.616ZM53.5072 40.9143L53.4962 40.9216C53.4816 40.9325 53.4707 40.9398 53.4561 40.9507C53.1462 41.1731 52.8364 41.2861 52.5374 41.2861C52.0817 41.2861 51.7791 41.0164 51.7098 40.9471C51.7208 40.8924 51.7463 40.7393 51.8119 40.5862C51.8703 40.444 51.9541 40.3018 52.078 40.2252C52.202 40.1523 52.3296 40.0721 52.4536 39.9956C52.6504 39.8716 52.8363 39.755 52.9895 39.6711C53.0077 39.6602 53.0223 39.6529 53.0405 39.6456C53.3066 39.507 53.4889 39.4378 53.6056 39.4123C53.6785 39.569 53.7624 39.7258 53.8608 39.8716C53.9191 39.9591 53.9811 40.0466 54.0504 40.1304C54.0504 40.1304 53.9556 40.4002 53.8207 40.8268C53.6749 40.8851 53.5217 40.9106 53.5217 40.9106L53.5072 40.9143ZM43.9445 44.6511H43.9263C42.5337 44.5016 41.5238 43.8928 40.6306 43.3569C40.2879 43.1491 39.9598 42.9522 39.6426 42.8064C39.752 42.5876 40.3135 41.5887 41.604 41.257C42.3149 41.0747 43.2373 40.8851 44.4258 40.6809L44.6008 40.6518C45.4466 40.5059 47.4954 40.156 48.8407 39.7987C48.8334 39.8716 48.8443 39.981 48.9282 40.0903C48.7459 40.2179 48.5673 40.3419 48.4032 40.4549C47.7069 40.9289 46.1137 42.2194 46.3106 43.9694C45.658 44.3594 44.8742 44.7532 44.5315 44.724C44.3346 44.6912 44.1414 44.673 43.9445 44.6511ZM39.3692 42.6861C39.176 42.6132 38.9573 42.5366 38.6984 42.4491C37.4115 42.0043 35.4647 41.3299 34.1486 40.269C33.4523 39.7075 33.0914 39.0768 33.1023 38.4425C33.1059 38.1034 33.2226 37.7644 33.4341 37.4436C33.569 37.5858 33.9663 37.9904 34.3819 38.2311C34.4877 38.293 34.5934 38.3514 34.6991 38.406C35.0965 38.6175 35.4683 38.818 35.6069 39.1753C35.7527 39.5581 36.0225 39.5253 36.5183 39.4669C36.7006 39.4451 36.9303 39.4195 37.2 39.405C37.6813 39.3831 38.137 39.3284 38.538 39.2774C38.8406 39.2409 39.1104 39.2081 39.3473 39.1935C39.3656 39.2992 39.4531 39.5362 39.8723 39.8898C40.4155 40.3492 40.5468 40.5497 40.7108 40.8924C40.8384 41.1585 40.9259 41.3117 40.966 41.3736C40.0655 41.8184 39.6463 42.5621 39.5515 42.7517C39.4859 42.7335 39.4276 42.7079 39.3692 42.6861ZM35.6251 36.2004C35.8256 36.6233 36.8355 36.6415 38.2245 36.667C38.8442 36.678 39.5442 36.6889 40.2405 36.7436C41.6879 36.853 42.2092 37.0863 42.7159 37.3123C42.9821 37.429 43.23 37.542 43.6018 37.6295C44.5935 37.8665 45.895 38.2019 46.9996 38.5008C46.409 38.5264 45.2971 38.5628 44.6299 38.479C44.1852 38.4243 43.6638 38.293 43.1133 38.1581C42.4899 38.0014 41.841 37.841 41.2249 37.768L40.9405 37.7352C39.5624 37.5712 36.6933 37.2321 36.0298 37.2212L35.8147 37.2175C35.2496 37.2066 33.9919 37.1847 33.7002 37.1118C33.8314 36.9697 33.9809 36.8311 34.1523 36.7035C34.4658 36.4556 35.0017 36.2988 35.6251 36.2004ZM41.7936 36.2478C42.0634 36.2806 42.4352 36.3244 42.8764 36.3754C43.1534 37.1592 46.2778 37.9248 46.307 37.9321C46.4892 37.9686 46.8356 38.0415 47.2329 38.118C47.7288 38.2165 48.3449 38.3404 48.8772 38.4498C48.9173 38.4571 48.9537 38.4607 48.9902 38.468C48.4944 38.5263 47.6777 38.5737 47.0288 38.3987C45.9205 38.0962 44.6154 37.7608 43.6201 37.5238C43.2592 37.4363 43.0149 37.3269 42.7524 37.2139C42.2384 36.9842 41.7098 36.7509 40.2442 36.6379C39.5442 36.5832 38.8406 36.5723 38.2208 36.5613C37.0032 36.5395 35.9423 36.5212 35.7272 36.1822C36.5001 36.0655 37.3896 36.0327 38.1552 36.0327C39.5807 36.0363 40.9697 36.1457 41.7936 36.2478ZM44.094 36.5103C44.3201 36.5358 44.5497 36.5613 44.7867 36.5869C45.2424 37.5748 46.5038 37.7134 47.7251 37.8483C48.0386 37.8811 48.3631 37.9175 48.6584 37.9686C49.5735 38.1217 49.9052 38.0925 50.1714 38.0706C50.3245 38.0561 50.4557 38.0451 50.6672 38.0706C51.1666 38.129 52.8072 38.3988 53.2957 38.479C53.2957 38.4863 53.2994 38.4935 53.2994 38.5045C52.7562 38.4206 51.1921 38.1873 50.7547 38.1764C50.5505 38.1691 50.3646 38.2238 50.1714 38.2785C49.8469 38.3696 49.4823 38.4753 48.8954 38.355C48.3668 38.2456 47.747 38.1217 47.2512 38.0233C46.8501 37.943 46.5075 37.8738 46.3252 37.8373C45.7893 37.7243 43.3138 37.0134 42.9857 36.3936C43.3284 36.4264 43.7003 36.4665 44.094 36.5103ZM50.6344 37.3014C50.5432 37.3889 50.4922 37.4873 50.4849 37.5931C50.4776 37.7425 50.5578 37.8774 50.6271 37.9649C50.4375 37.9467 50.3099 37.9576 50.1641 37.9686C49.9016 37.9904 49.5771 38.0196 48.6766 37.8665C48.3777 37.8155 48.0532 37.7826 47.7361 37.7462C46.5658 37.6186 45.3627 37.4837 44.907 36.6014C46.8574 36.8202 49.1105 37.0754 50.6344 37.3014ZM51.9505 37.5238C52.6942 37.6842 53.0478 37.779 53.2082 37.8847C53.2228 38.0451 53.2447 38.2092 53.2738 38.3696C52.7744 38.2857 51.3526 38.0524 50.7802 37.9795C50.7364 37.9394 50.5797 37.7754 50.587 37.5967C50.5906 37.4946 50.6562 37.3998 50.7693 37.3196C51.2614 37.3926 51.6661 37.4618 51.9505 37.5238ZM35.8074 37.3123L36.0225 37.316C36.6824 37.3306 39.5479 37.666 40.9223 37.83L41.2066 37.8628C41.8155 37.9358 42.4571 38.0962 43.0805 38.2493C43.6347 38.3878 44.1596 38.5191 44.6117 38.5738C44.9289 38.6139 45.3445 38.6248 45.7601 38.6248C46.5804 38.6248 47.3861 38.5738 47.4007 38.5738C47.6376 38.6066 47.8819 38.6211 48.1188 38.6211C48.8225 38.6211 49.4313 38.5081 49.4605 38.5045C49.7594 38.4972 49.9927 38.4316 50.2078 38.3696C50.4047 38.3149 50.5724 38.2639 50.762 38.2712C51.1994 38.2857 52.8291 38.53 53.3322 38.6066C53.365 38.7451 53.4014 38.88 53.4488 39.0149C53.4087 39.0149 53.365 39.0149 53.3176 39.0185C53.1827 39.0222 53.0442 39.0258 52.9384 38.9966C52.7525 38.9456 52.4937 38.9638 52.264 38.9821C52.151 38.9894 52.0452 38.9966 51.9687 38.993C51.7791 38.9857 51.3672 38.9893 51.225 38.993C51.2177 38.9383 51.1958 38.8763 51.1521 38.7925C51.1265 38.7451 51.0864 38.7123 51.0317 38.6977C50.7802 38.6284 50.2406 38.9565 50.1057 39.0404C49.9235 38.9565 49.3948 39.0039 48.436 39.1097C48.3558 39.1206 48.272 39.1279 48.1954 39.1352C47.3095 39.2336 46.3106 39.1315 45.0856 38.9492C44.4294 38.8508 43.9482 38.8727 43.394 38.8946C42.9748 38.9128 42.541 38.9274 41.9649 38.8982C41.1264 38.8545 40.6416 38.9456 40.2515 39.0149C40.0109 39.0586 39.8249 39.0914 39.6135 39.0878C39.3218 39.0768 38.95 39.1242 38.5234 39.1753C38.1224 39.2227 37.6703 39.281 37.1928 39.2992C36.9193 39.3102 36.686 39.3393 36.5037 39.3612C36.0188 39.4195 35.8183 39.4414 35.7017 39.1352C35.5522 38.7414 35.1585 38.5336 34.7465 38.3113C34.6408 38.2566 34.5351 38.1982 34.433 38.1399C34.021 37.8957 33.6054 37.4691 33.4924 37.3524C33.5325 37.2941 33.5799 37.2394 33.6273 37.1848C33.8424 37.2613 34.6007 37.2905 35.8074 37.3123ZM49.7302 40.1195C49.5625 40.2289 49.424 40.3054 49.311 40.3674C49.0558 40.506 48.9027 40.5898 48.8407 40.8487C48.8261 40.907 48.8152 40.9617 48.8042 41.0127C48.7459 41.2716 48.6949 41.4939 48.5053 41.8403C48.2756 42.2559 47.6485 43.0543 47.0616 43.4735C46.8939 43.5939 46.6642 43.7433 46.409 43.8964C46.2523 42.2267 47.7871 40.9872 48.4615 40.5278C49.311 39.9482 49.8141 39.5727 50.0511 39.332C50.0912 39.2919 50.124 39.2555 50.1495 39.2227C50.1823 39.1789 50.186 39.1461 50.1787 39.1206C50.3792 38.993 50.8239 38.7487 51.0062 38.7998C51.0317 38.8071 51.05 38.8217 51.0609 38.8399C51.1703 39.055 51.1703 39.055 50.8677 39.2664L50.8021 39.3138C50.6562 39.4195 50.5432 39.5107 50.4229 39.6091C50.2406 39.7549 50.0547 39.9081 49.7302 40.1195ZM48.9464 39.7622C49.2271 39.6857 49.4714 39.6091 49.661 39.5362C49.4714 39.6893 49.2417 39.857 49.0084 40.0247C48.9209 39.9154 48.9355 39.806 48.9464 39.7622ZM41.0535 41.3335C41.0207 41.2788 40.9296 41.1257 40.802 40.856C40.6306 40.495 40.4994 40.2909 39.9379 39.8169C39.5588 39.4961 39.4713 39.281 39.4494 39.1935C39.5041 39.1935 39.5624 39.1899 39.6135 39.1899C39.8322 39.1972 40.0364 39.1607 40.2733 39.117C40.6598 39.0477 41.1374 38.9602 41.9613 39.0039C42.541 39.0331 42.9967 39.0149 43.3977 39.0003C43.9482 38.9784 44.4221 38.9602 45.0711 39.055C46.3033 39.2373 47.3059 39.343 48.2063 39.2409C48.2865 39.2336 48.3668 39.2227 48.4506 39.2154C48.4543 39.2154 48.4615 39.2154 48.4652 39.2154C48.4324 39.281 48.3996 39.3758 48.4068 39.4815C48.4141 39.5836 48.4579 39.6784 48.5381 39.7622C47.6303 39.9846 46.3069 40.2471 44.5825 40.5424L44.4075 40.5716C43.2154 40.7794 42.2894 40.969 41.5785 41.1512C41.3853 41.2023 41.2139 41.2643 41.0535 41.3335ZM48.6511 39.7331C48.5308 39.6237 48.4834 39.5034 48.5126 39.3685C48.5308 39.2919 48.5636 39.2336 48.5855 39.2008C49.1725 39.1352 50.0073 39.0513 50.0729 39.1425C50.0729 39.1425 50.0729 39.1498 50.062 39.1607C50.0401 39.1899 50.0073 39.2263 49.9709 39.2591C49.8287 39.3904 49.3839 39.5508 48.6511 39.7331ZM47.1163 43.5574C47.7433 43.109 48.3667 42.2996 48.5891 41.8913C48.786 41.5304 48.8371 41.3007 48.899 41.0382C48.91 40.9872 48.9245 40.9325 48.9355 40.8742C48.9865 40.6627 49.1032 40.5971 49.3584 40.4586C49.4021 40.433 49.4495 40.4075 49.5006 40.3783C49.5042 40.4841 49.4422 40.619 49.373 40.7612C49.3 40.9179 49.2235 41.082 49.2162 41.2351C49.2089 41.4465 49.2709 41.7455 49.3256 41.997C49.3292 42.0116 49.3329 42.0298 49.3365 42.0481C49.362 42.1647 49.3875 42.2741 49.3985 42.358C49.4313 42.5548 49.5152 42.6569 49.5662 42.7043C49.1105 43.4006 48.622 43.8709 48.1261 44.1808C47.3205 44.6839 46.4929 44.7787 45.7346 44.7787C45.4648 44.7787 45.195 44.7641 44.9216 44.7422C45.6216 44.5271 46.7116 43.8454 47.1163 43.5574ZM49.6573 42.6314C49.6537 42.635 49.6464 42.635 49.6427 42.6387C49.6063 42.6095 49.5261 42.5293 49.5006 42.3434C49.486 42.2595 49.4641 42.1465 49.4349 42.0262C49.4203 41.9679 49.4094 41.9022 49.3948 41.8403C49.3511 41.6288 49.311 41.4028 49.3183 41.2424C49.3219 41.1075 49.3948 40.9544 49.4641 40.8086C49.548 40.6336 49.6245 40.4659 49.5953 40.3237C49.6537 40.2872 49.7157 40.2508 49.7849 40.207C49.938 40.1086 50.0583 40.0211 50.1604 39.9445C50.2844 39.8534 50.3865 39.7695 50.4849 39.6893C50.5469 39.6383 50.6088 39.5872 50.6708 39.5398C50.7292 39.4961 50.7911 39.4487 50.8568 39.4013L50.9224 39.3539C51.0791 39.2445 51.1703 39.1789 51.2067 39.1024C51.3307 39.1024 51.7645 39.0951 51.9578 39.1024C52.038 39.106 52.1473 39.0987 52.264 39.0878C52.4864 39.0732 52.7379 39.055 52.9056 39.0987C53.0259 39.1315 53.1791 39.1279 53.3176 39.1243C53.3723 39.1243 53.4306 39.1206 53.4853 39.1243C53.5108 39.1899 53.5327 39.2555 53.5618 39.3211C53.4051 39.3576 53.2009 39.4451 52.9421 39.5836C52.9275 39.5909 52.9093 39.6018 52.8947 39.6091C52.7488 39.6893 52.5812 39.795 52.4025 39.9081C52.2786 39.9846 52.151 40.0648 52.0307 40.1377C51.8775 40.2289 51.7791 40.3966 51.7171 40.5606C51.6442 40.7429 51.6187 40.9143 51.6114 40.9507C51.2177 41.9314 49.8979 42.5293 49.6573 42.6314ZM73.9922 42.4491C73.737 42.5366 73.5146 42.6132 73.3214 42.6861C73.2594 42.7079 73.2011 42.7335 73.1391 42.759C73.0443 42.5731 72.6287 41.8293 71.7246 41.3809C71.7647 41.3189 71.8522 41.1658 71.9798 40.8997C72.1439 40.5534 72.2715 40.3565 72.8183 39.8971C73.2376 39.5435 73.3251 39.3065 73.3433 39.2008C73.5803 39.2154 73.8501 39.2482 74.1526 39.2846C74.5537 39.332 75.0094 39.3904 75.4906 39.4123C75.7604 39.4268 75.9901 39.4524 76.1723 39.4742C76.6645 39.5326 76.9379 39.5654 77.0838 39.1826C77.2223 38.8217 77.5942 38.6248 77.9915 38.4133C78.0973 38.3587 78.203 38.3003 78.3087 38.2383C78.7207 37.9977 79.1217 37.5894 79.2566 37.4509C79.468 37.7717 79.5847 38.1107 79.5883 38.4498C79.5993 39.0841 79.2347 39.7148 78.542 40.2763C77.2223 41.3299 75.2792 42.0043 73.9922 42.4491ZM72.06 43.3532C71.1668 43.8891 70.157 44.498 68.7643 44.6474H68.7461C68.5492 44.6693 68.3524 44.6875 68.1628 44.7094C67.8164 44.7386 67.0363 44.3485 66.3837 43.9548C66.5806 42.2049 64.9874 40.9179 64.2911 40.4403C64.127 40.3273 63.9447 40.2034 63.7661 40.0758C63.8499 39.97 63.8609 39.857 63.8536 39.7841C65.1989 40.1414 67.2477 40.4914 68.0935 40.6372L68.2685 40.6664C69.457 40.8705 70.3794 41.0601 71.0903 41.2424C72.3772 41.5741 72.9423 42.5731 73.0516 42.7918C72.7308 42.9486 72.4027 43.1454 72.06 43.3532ZM59.2345 40.9507C59.2199 40.9398 59.209 40.9325 59.1944 40.9216L59.1835 40.9143L59.1725 40.9106C59.1689 40.9106 59.0194 40.8851 58.8736 40.8268C58.7897 40.794 58.7059 40.7502 58.6585 40.6919C58.6148 40.5497 58.5273 40.1779 58.6075 40.0357C58.6221 40.0102 58.6439 39.97 58.6694 39.9226C58.7351 39.8023 58.8335 39.6164 58.9356 39.4013C58.972 39.394 59.0194 39.394 59.0923 39.4123C59.209 39.4378 59.3876 39.5034 59.6574 39.6456C59.6757 39.6565 59.6902 39.6638 59.7084 39.6711C59.8616 39.7513 60.0475 39.868 60.2444 39.9956C60.3683 40.0721 60.4959 40.1523 60.6199 40.2252C60.7438 40.3018 60.8277 40.444 60.886 40.5862C60.948 40.7393 60.9771 40.8924 60.9881 40.9471C60.9188 41.0164 60.6199 41.2861 60.1605 41.2861C59.8543 41.2861 59.5444 41.1731 59.2345 40.9507ZM61.9141 37.3196C62.0308 37.4035 62.0927 37.4946 62.0964 37.5967C62.1073 37.7754 61.9469 37.9394 61.9032 37.9795C61.3308 38.0524 59.909 38.2857 59.4095 38.3696C59.3694 38.3769 59.3329 38.3805 59.3038 38.3878C59.3257 38.2894 59.3402 38.1982 59.3439 38.1144C59.3475 38.0196 59.3767 37.9503 59.4751 37.8884C59.6392 37.779 59.9928 37.6879 60.7365 37.5274C61.0245 37.4618 61.4292 37.3926 61.9141 37.3196ZM67.7763 36.6014C67.3206 37.4837 66.1176 37.6186 64.9473 37.7462C64.6338 37.779 64.3093 37.8155 64.0104 37.8665C63.1099 38.016 62.7818 37.9904 62.5229 37.9686C62.3807 37.9576 62.2495 37.9467 62.0599 37.9649C62.1292 37.8774 62.2094 37.7462 62.2021 37.5931C62.1948 37.4873 62.1474 37.3889 62.0526 37.3014C63.5765 37.0754 65.8295 36.8202 67.7763 36.6014ZM68.593 36.5103C68.9867 36.4665 69.3586 36.4264 69.6976 36.3863C69.3731 37.0061 66.8977 37.7206 66.3618 37.83C66.1795 37.8665 65.8368 37.9357 65.4358 38.016C64.94 38.1144 64.3202 38.2384 63.7916 38.3477C63.2083 38.468 62.8401 38.3623 62.5156 38.2712C62.3188 38.2165 62.1365 38.1618 61.9323 38.1691C61.4948 38.1836 59.9345 38.417 59.3876 38.4972C59.3439 38.5045 59.3074 38.5081 59.2783 38.5118C59.2819 38.5045 59.2819 38.4972 59.2856 38.4899C59.3074 38.4862 59.3475 38.479 59.3913 38.4717C59.8798 38.3915 61.5167 38.1217 62.0198 38.0633C62.2313 38.0378 62.3625 38.0524 62.5156 38.0633C62.7818 38.0852 63.1172 38.1144 64.0286 37.9613C64.3239 37.9102 64.6484 37.8774 64.9619 37.841C66.1832 37.7061 67.4482 37.5675 67.9003 36.5796C68.1373 36.5613 68.367 36.5358 68.593 36.5103ZM70.8934 36.2478C71.721 36.1457 73.11 36.0327 74.5281 36.0327C75.2937 36.0327 76.1833 36.0655 76.9561 36.1822C76.7411 36.5212 75.6802 36.5395 74.4625 36.5613C73.8428 36.5723 73.1391 36.5832 72.4392 36.6379C70.9736 36.7509 70.445 36.9842 69.9309 37.2139C69.6721 37.3306 69.4242 37.4399 69.0633 37.5238C68.068 37.7608 66.7628 38.0962 65.6545 38.3987C65.0056 38.5737 64.1927 38.5263 63.6932 38.468C63.7297 38.4607 63.7661 38.4571 63.8062 38.4498C64.3348 38.3404 64.9546 38.2165 65.4504 38.118C65.8514 38.0378 66.1941 37.9686 66.3764 37.9321C66.4092 37.9248 69.5299 37.1592 69.807 36.3754C70.2518 36.3244 70.6273 36.2806 70.8934 36.2478ZM78.542 36.6999C78.7134 36.8275 78.8628 36.966 78.9941 37.1082C78.7024 37.1811 77.4447 37.203 76.8796 37.2139L76.6645 37.2175C76.001 37.2285 73.1318 37.5675 71.7538 37.7316L71.4694 37.7644C70.8533 37.8373 70.208 37.9977 69.5809 38.1545C69.0305 38.293 68.5091 38.4206 68.0644 38.4753C67.3972 38.5555 66.2853 38.5227 65.6947 38.4972C66.7993 38.1982 68.1008 37.8628 69.0924 37.6259C69.4607 37.5384 69.7122 37.4254 69.9783 37.3087C70.4814 37.0827 71.0064 36.853 72.4537 36.74C73.1501 36.6853 73.8537 36.6744 74.4734 36.6634C75.8588 36.6379 76.8687 36.6197 77.0728 36.1968C77.6853 36.2988 78.2249 36.4556 78.542 36.6999ZM79.1982 37.3561C79.0852 37.4727 78.6733 37.8993 78.2577 38.1436C78.1556 38.2019 78.0499 38.2602 77.9441 38.3149C77.5285 38.5373 77.1384 38.7451 76.989 39.1388C76.8723 39.4451 76.6718 39.4232 76.1869 39.3649C76.001 39.343 75.7713 39.3138 75.4979 39.3029C75.0203 39.281 74.5682 39.2263 74.1672 39.1789C73.737 39.1279 73.3688 39.0805 73.0772 39.0914C72.8657 39.0987 72.6798 39.0623 72.4392 39.0185C72.0491 38.9492 71.5642 38.8617 70.7257 38.9019C70.1497 38.931 69.7159 38.9128 69.2966 38.8982C68.7425 38.8763 68.2612 38.8581 67.605 38.9529C66.3801 39.1352 65.3848 39.2373 64.4952 39.1388C64.415 39.1315 64.3348 39.1206 64.2546 39.1133C63.2958 39.0076 62.7672 38.9602 62.5849 39.044C62.45 38.9602 61.9105 38.6321 61.6589 38.7013C61.6042 38.7159 61.5641 38.7487 61.5422 38.7961C61.4985 38.88 61.4766 38.9456 61.4693 38.9966C61.3271 38.993 60.9152 38.9893 60.7256 38.9966C60.649 39.0003 60.5433 38.993 60.4303 38.9857C60.2006 38.9711 59.9381 38.9493 59.7558 39.0003C59.6501 39.0295 59.5116 39.0258 59.3767 39.0222C59.3293 39.0222 59.2892 39.0185 59.2455 39.0185C59.1908 39.0185 59.1397 39.0222 59.096 39.0295C59.1507 38.8946 59.2017 38.7597 59.2455 38.6284C59.271 38.6248 59.3111 38.6175 59.3621 38.6102C59.8652 38.5336 61.4948 38.2894 61.9323 38.2748C62.1183 38.2675 62.2896 38.3185 62.4865 38.3732C62.7016 38.4352 62.9349 38.5008 63.2338 38.5081C63.2666 38.5154 63.8755 38.6248 64.5754 38.6248C64.8124 38.6248 65.0567 38.6102 65.2936 38.5774C65.3046 38.5774 66.1139 38.6284 66.9342 38.6284C67.3461 38.6284 67.7654 38.6175 68.0826 38.5774C68.5346 38.5227 69.0596 38.3915 69.6138 38.2529C70.2372 38.0962 70.8788 37.9358 71.4876 37.8665L71.772 37.8337C73.1464 37.6696 76.0119 37.3342 76.6718 37.3196L76.8869 37.316C78.0936 37.2941 78.8519 37.2649 79.067 37.192C79.1108 37.2431 79.1545 37.3014 79.1982 37.3561ZM71.1121 41.1512C70.4012 40.969 69.4752 40.7794 68.2831 40.5716L68.1081 40.5424C66.3837 40.2471 65.064 39.9883 64.1525 39.7622C64.2291 39.6784 64.2729 39.5836 64.2838 39.4815C64.2911 39.3758 64.2619 39.281 64.2291 39.2154C64.2327 39.2154 64.24 39.2154 64.2437 39.2154C64.3275 39.2263 64.4077 39.2336 64.4843 39.2409C65.3811 39.3393 66.3873 39.2373 67.6196 39.055C68.2649 38.9602 68.7425 38.9784 69.2929 39.0003C69.694 39.0149 70.1497 39.0331 70.7293 39.0039C71.5533 38.9602 72.0345 39.0477 72.4173 39.117C72.6506 39.1607 72.8548 39.1972 73.0772 39.1899C73.1282 39.1899 73.1829 39.1899 73.2412 39.1935C73.2194 39.281 73.1355 39.4961 72.7527 39.8169C72.1949 40.2872 72.06 40.495 71.8887 40.856C71.7574 41.1294 71.6699 41.2825 71.6371 41.3372C71.4767 41.2642 71.3017 41.2023 71.1121 41.1512ZM63.6786 40.0211C63.4416 39.8534 63.212 39.6857 63.0224 39.5326C63.2156 39.6055 63.4599 39.682 63.7406 39.7586C63.7515 39.806 63.7661 39.9154 63.6786 40.0211ZM66.2816 43.9001C66.0301 43.747 65.8004 43.5975 65.6327 43.4735C65.0457 43.0543 64.4187 42.2559 64.189 41.8403C63.9958 41.4939 63.9484 41.2716 63.8901 41.0127C63.8791 40.9617 63.8645 40.907 63.8536 40.8487C63.7916 40.5898 63.6385 40.5096 63.3833 40.3674C63.2703 40.3054 63.1281 40.2289 62.9641 40.1195C62.6396 39.9044 62.4537 39.7549 62.275 39.6091C62.1547 39.5107 62.0417 39.4195 61.8959 39.3138L61.8302 39.2664C61.5313 39.055 61.5313 39.055 61.637 38.8399C61.648 38.818 61.6662 38.8071 61.6917 38.7998C61.874 38.7487 62.3188 38.993 62.5193 39.1206C62.512 39.1461 62.5156 39.1826 62.5484 39.2227C62.574 39.2555 62.6068 39.2919 62.6469 39.332C62.8838 39.569 63.3833 39.9482 64.2364 40.5278C64.9072 40.9872 66.442 42.2304 66.2816 43.9001ZM62.7125 39.2628C62.676 39.2263 62.6469 39.1935 62.6214 39.1644C62.6141 39.1534 62.6104 39.1498 62.6104 39.1498C62.6833 39.055 63.5146 39.1425 64.0979 39.2044C64.1307 39.2482 64.189 39.3576 64.1781 39.4779C64.1708 39.5727 64.1197 39.6602 64.0359 39.7367C63.3031 39.5508 62.862 39.3904 62.7125 39.2628ZM61.0829 40.9471C61.0792 40.9106 61.0501 40.7393 60.9772 40.557C60.9115 40.3966 60.8131 40.2252 60.6636 40.1341C60.5397 40.0612 60.4121 39.981 60.2918 39.9044C60.1095 39.7914 59.9418 39.6857 59.796 39.6055C59.7814 39.5945 59.7632 39.5873 59.7486 39.58C59.4897 39.4414 59.2856 39.3539 59.1288 39.3175C59.0705 39.3029 59.0231 39.2992 58.9757 39.2992C58.9939 39.2555 59.0158 39.2117 59.034 39.168C59.0486 39.1352 59.1179 39.1279 59.2017 39.1243C59.2564 39.1243 59.3147 39.1243 59.3694 39.1243C59.5043 39.1279 59.6574 39.1315 59.7777 39.0987C59.9454 39.0513 60.197 39.0696 60.4194 39.0878C60.536 39.0951 60.6418 39.106 60.7256 39.1024C60.9188 39.0951 61.3527 39.0987 61.4766 39.1024C61.5131 39.1789 61.6042 39.2445 61.761 39.3539L61.8266 39.4013C61.8959 39.4487 61.9578 39.4961 62.0162 39.5398C62.0818 39.5909 62.1401 39.6383 62.2021 39.6893C62.3005 39.7695 62.4026 39.8497 62.5266 39.9445C62.6323 40.0211 62.7526 40.1086 62.9021 40.207C62.9713 40.2508 63.0333 40.2909 63.0916 40.3237C63.0625 40.4622 63.139 40.6299 63.2229 40.8086C63.2922 40.958 63.3651 41.1111 63.3687 41.2424C63.376 41.4064 63.3359 41.6288 63.2922 41.8403C63.2776 41.9022 63.263 41.9679 63.2521 42.0262C63.2265 42.1465 63.201 42.2559 63.1864 42.3434C63.1573 42.5293 63.0771 42.6095 63.0443 42.6387C63.0406 42.6387 63.037 42.635 63.0297 42.6314C62.7891 42.5293 61.4693 41.9314 61.0829 40.9471ZM63.1208 42.7043C63.1755 42.6569 63.2593 42.5548 63.2885 42.358C63.2994 42.2741 63.325 42.1647 63.3505 42.0481C63.3541 42.0298 63.3578 42.0153 63.3614 41.997C63.4161 41.7455 63.4781 41.4465 63.4708 41.2351C63.4635 41.082 63.3869 40.9179 63.314 40.7612C63.2448 40.619 63.1828 40.4804 63.1864 40.3783C63.2375 40.4075 63.2885 40.433 63.3286 40.4586C63.5838 40.5971 63.6968 40.6591 63.7515 40.8742C63.7661 40.9289 63.777 40.9835 63.788 41.0382C63.8463 41.3007 63.8973 41.5304 64.0979 41.8913C64.3202 42.2996 64.9436 43.1126 65.5707 43.5574C65.9754 43.8454 67.0618 44.5271 67.7618 44.7459C67.4883 44.7678 67.2149 44.7823 66.9488 44.7823C66.1905 44.7823 65.3629 44.6875 64.5572 44.1844C64.0614 43.8709 63.5729 43.4043 63.1208 42.7043Z" fill="#0C0C0C"/>
</svg>
