<svg width="219" height="67" viewBox="0 0 219 67" fill="none" xmlns="http://www.w3.org/2000/svg">
<path d="M129.948 54.866L140.461 44.3527C141.479 43.335 141.479 41.6857 140.461 40.668L118.778 18.9848C117.398 17.605 115.161 17.605 113.781 18.9848L104.58 28.1858C103.2 29.5656 103.2 31.803 104.58 33.1829L126.263 54.866C127.281 55.8837 128.93 55.8837 129.948 54.866Z" fill="#F3F2F2"/>
<path d="M140.538 44.4299L130.025 54.9432C128.966 56.0014 127.244 56.0014 126.186 54.9432L104.503 33.26C103.083 31.84 103.083 29.5292 104.503 28.1091L113.704 18.9082C115.124 17.4881 117.435 17.4881 118.855 18.9082L140.538 40.5913C141.596 41.6496 141.596 43.3717 140.538 44.4299ZM104.657 28.2629C103.322 29.598 103.321 31.7708 104.657 33.1062L126.34 54.7894C127.313 55.763 128.897 55.763 129.871 54.7894L140.384 44.276C141.358 43.3024 141.358 41.7188 140.384 40.7452L118.701 19.062C117.366 17.7269 115.193 17.7265 113.858 19.062L104.657 28.2629V28.2629Z" fill="black"/>
<path d="M127.351 50.4179C127.308 50.4606 127.24 50.4606 127.197 50.4179L108.927 32.1475C108.884 32.1048 108.884 32.0363 108.927 31.9936C108.969 31.951 109.038 31.951 109.08 31.9936L127.351 50.2637C127.393 50.3064 127.394 50.3753 127.351 50.4179Z" fill="black"/>
<path d="M105.951 25.124L110.719 20.3562L100.595 10.2323L95.8272 15.0001L105.951 25.124Z" fill="#F3F2F2"/>
<path d="M110.796 20.4335L106.028 25.2013C105.985 25.2439 105.917 25.2439 105.874 25.2013L95.7502 15.0774C95.7076 15.0347 95.7076 14.9662 95.7502 14.9236L100.518 10.1558C100.561 10.1132 100.629 10.1132 100.672 10.1558L110.796 20.2797C110.839 20.322 110.838 20.3909 110.796 20.4335ZM105.951 24.9702L110.565 20.3563L100.595 10.3862L95.9813 15.0001L105.951 24.9702Z" fill="black"/>
<path d="M102.302 18.2686C102.26 18.3113 102.191 18.3112 102.148 18.2686L99.8611 15.9812C99.8184 15.9386 99.8184 15.87 99.8611 15.8274C99.9037 15.7847 99.9723 15.7847 100.015 15.8274L102.302 18.1148C102.345 18.1571 102.345 18.2259 102.302 18.2686Z" fill="black"/>
<path d="M104.766 28.0004L113.595 19.1714L108.592 14.1684L99.7627 22.9973L104.766 28.0004Z" fill="#F3F2F2"/>
<path d="M113.672 19.2483L104.843 28.0773C104.8 28.1199 104.731 28.1199 104.689 28.0773L99.6858 23.0742C99.6431 23.0316 99.6431 22.9631 99.6858 22.9204L108.515 14.0914C108.557 14.0488 108.626 14.0488 108.669 14.0914L113.672 19.0945C113.714 19.1371 113.714 19.206 113.672 19.2483ZM104.766 27.8465L113.441 19.1714L108.592 14.3225L99.9169 22.9977L104.766 27.8465Z" fill="black"/>
<path d="M107.107 15.8072L103.115 19.7988C103.072 19.8415 103.004 19.8415 102.961 19.7988C102.919 19.7562 102.919 19.6877 102.961 19.645L106.953 15.6534C106.995 15.6107 107.064 15.6107 107.107 15.6534C107.149 15.696 107.149 15.7645 107.107 15.8072Z" fill="black"/>
<path d="M113.672 19.2481L104.843 28.0771C104.8 28.1198 104.732 28.1198 104.689 28.0771L99.686 23.0741C99.6434 23.0314 99.6434 22.9629 99.686 22.9203L101.64 20.9667L95.7503 15.0775C95.7076 15.0348 95.7076 14.9663 95.7503 14.9237L100.518 10.1559C100.561 10.1133 100.629 10.1133 100.672 10.1559L106.561 16.0452L108.515 14.0916C108.557 14.049 108.626 14.049 108.668 14.0916L113.671 19.0947C113.714 19.137 113.714 19.2058 113.672 19.2481ZM104.766 27.8464L113.441 19.1712L108.592 14.3224L106.639 16.2759C106.596 16.3185 106.528 16.3185 106.485 16.2759L100.595 10.3863L95.9814 15.0002L101.871 20.8895C101.913 20.9321 101.913 21.0006 101.871 21.0433L99.9171 22.9968L104.766 27.846L104.766 27.8464Z" fill="black"/>
<path d="M105.868 25.3611C105.826 25.4037 105.757 25.4037 105.714 25.3611L103.031 22.6773C102.988 22.6346 102.988 22.5661 103.031 22.5234C103.073 22.4808 103.142 22.4808 103.184 22.5234L105.868 25.2073C105.911 25.2496 105.911 25.3184 105.868 25.3611Z" fill="black"/>
<path d="M92.3239 15.524C92.3239 15.524 97.4525 21.4356 94.2362 28.1666L95.873 29.8342C95.873 29.8342 101.197 19.8058 95.5801 13.3411L92.3239 15.524Z" fill="#F3F2F2"/>
<path d="M95.95 29.9112C95.9336 29.9276 95.9122 29.9384 95.8885 29.9419C95.8542 29.9468 95.8196 29.9353 95.7951 29.9101L94.1587 28.2429C94.1269 28.2104 94.1185 28.1607 94.1384 28.1198C95.7818 24.6802 95.1809 21.4615 94.3877 19.3671C93.5252 17.0902 92.2551 15.6103 92.2422 15.5953C92.2216 15.5719 92.2125 15.5404 92.2167 15.5097C92.2209 15.4789 92.2377 15.4509 92.2639 15.4338L95.5197 13.2506C95.5655 13.2202 95.6266 13.2282 95.6626 13.2698C98.5929 16.642 98.5188 20.9839 97.9406 24.0324C97.3159 27.3259 95.9829 29.8601 95.9696 29.8853C95.964 29.8951 95.9573 29.9038 95.95 29.9112ZM94.367 28.145L95.8441 29.65C96.1223 29.0893 97.1893 26.8218 97.7266 23.9863C98.2905 21.0088 98.3681 16.7801 95.5602 13.4855L92.4845 15.5481C92.7781 15.9124 93.8357 17.3013 94.5876 19.2832C95.3931 21.4045 96.0045 24.6589 94.367 28.145Z" fill="black"/>
<path d="M95.4318 27.7067C95.4007 27.7378 95.3528 27.7479 95.3105 27.7294C95.2556 27.7046 95.2307 27.6406 95.2556 27.5857C96.6511 24.4618 96.4057 20.4282 95.3629 18.3331C95.3363 18.2792 95.3583 18.2138 95.4118 18.1869C95.4657 18.1604 95.531 18.1817 95.558 18.2359C96.6235 20.3761 96.8763 24.4918 95.4548 27.6745C95.4485 27.6864 95.4412 27.6973 95.4318 27.7067Z" fill="black"/>
<path d="M88.9601 18.8525L106.413 7.69037L103.903 3.94342L86.5276 15.0287L88.9601 18.8525Z" fill="#F3F2F2"/>
<path d="M106.49 7.76728C106.484 7.77288 106.478 7.77777 106.472 7.78196L89.0192 18.9445C88.9951 18.9602 88.9654 18.9655 88.9371 18.9588C88.9087 18.9529 88.8843 18.9354 88.8689 18.9109L86.4364 15.0871C86.4046 15.0364 86.4196 14.9696 86.47 14.9367L103.845 3.85114C103.895 3.81933 103.962 3.83296 103.995 3.88225L106.504 7.62919C106.52 7.65367 106.526 7.68338 106.52 7.7117C106.515 7.73302 106.505 7.75225 106.49 7.76728ZM88.9933 18.7019L106.26 7.65821L103.872 4.09235L86.678 15.0622L88.9933 18.7019Z" fill="black"/>
<path d="M103.696 5.79284C103.69 5.79843 103.684 5.80333 103.677 5.80787L88.2707 15.6091C88.22 15.6416 88.1525 15.6265 88.1204 15.5755C88.0882 15.5245 88.1039 15.4577 88.1539 15.4252L103.56 5.62398C103.611 5.59147 103.679 5.60651 103.711 5.65755C103.739 5.7016 103.731 5.75753 103.696 5.79284Z" fill="black"/>
<path d="M93.0344 18.2833L104.264 11.1396L99.9648 4.38109L88.735 11.5247L93.0344 18.2833Z" fill="#F3F2F2"/>
<mask id="path-19-inside-1_108_816" fill="white">
<path d="M104.347 11.2192C104.341 11.2248 104.335 11.2297 104.328 11.2343L93.0992 18.3778C93.0747 18.3932 93.045 18.3985 93.017 18.3922C92.9891 18.3859 92.9642 18.3688 92.9489 18.3443L88.6496 11.5859C88.6342 11.5615 88.6289 11.5318 88.6352 11.5038C88.6415 11.4758 88.6586 11.451 88.6831 11.4356L99.9121 4.29203C99.9627 4.25952 100.03 4.27455 100.062 4.32559L104.362 11.0839C104.39 11.128 104.382 11.1839 104.347 11.2192ZM93.074 18.1359L104.119 11.1091L99.9365 4.53465L88.8915 11.5615L93.074 18.1359Z"/>
</mask>
<path d="M104.347 11.2192C104.341 11.2248 104.335 11.2297 104.328 11.2343L93.0992 18.3778C93.0747 18.3932 93.045 18.3985 93.017 18.3922C92.9891 18.3859 92.9642 18.3688 92.9489 18.3443L88.6496 11.5859C88.6342 11.5615 88.6289 11.5318 88.6352 11.5038C88.6415 11.4758 88.6586 11.451 88.6831 11.4356L99.9121 4.29203C99.9627 4.25952 100.03 4.27455 100.062 4.32559L104.362 11.0839C104.39 11.128 104.382 11.1839 104.347 11.2192ZM93.074 18.1359L104.119 11.1091L99.9365 4.53465L88.8915 11.5615L93.074 18.1359Z" fill="black"/>
<path d="M104.328 11.2343L104.865 12.078L104.879 12.069L104.893 12.0596L104.328 11.2343ZM93.0992 18.3778L93.6314 19.2245L93.6359 19.2216L93.0992 18.3778ZM93.017 18.3922L93.2365 17.4166L93.017 18.3922ZM92.9489 18.3443L93.7955 17.8121L93.7926 17.8075L92.9489 18.3443ZM88.6496 11.5859L87.8029 12.1181L87.8058 12.1227L88.6496 11.5859ZM88.6831 11.4356L89.2153 12.2823L89.2199 12.2794L88.6831 11.4356ZM99.9121 4.29203L100.449 5.13577L100.452 5.13377L99.9121 4.29203ZM100.062 4.32559L99.2163 4.85872L99.2186 4.86234L100.062 4.32559ZM104.362 11.0839L105.206 10.5479L105.205 10.5472L104.362 11.0839ZM93.074 18.1359L92.2303 18.6727L92.7671 19.5164L93.6108 18.9796L93.074 18.1359ZM104.119 11.1091L104.656 11.9528L105.5 11.4161L104.963 10.5723L104.119 11.1091ZM99.9365 4.53465L100.78 3.99789L100.243 3.15415L99.3997 3.69093L99.9365 4.53465ZM88.8915 11.5615L88.3547 10.7177L87.511 11.2545L88.0477 12.0982L88.8915 11.5615ZM103.64 10.5121C103.692 10.4601 103.738 10.4261 103.763 10.409L104.893 12.0596C104.931 12.0333 104.991 11.9895 105.054 11.9263L103.64 10.5121ZM103.791 10.3905L92.5624 17.5341L93.6359 19.2216L104.865 12.078L103.791 10.3905ZM92.567 17.5312C92.7622 17.4085 93.0021 17.3638 93.2365 17.4166L92.7975 19.3678C93.0878 19.4331 93.3872 19.3779 93.6314 19.2245L92.567 17.5312ZM93.2365 17.4166C93.4608 17.467 93.6652 17.6048 93.7955 17.8121L92.1022 18.8765C92.2633 19.1327 92.5173 19.3047 92.7975 19.3678L93.2365 17.4166ZM93.7926 17.8075L89.4933 11.0492L87.8058 12.1227L92.1051 18.881L93.7926 17.8075ZM89.4962 11.0538C89.6189 11.249 89.6636 11.4889 89.6108 11.7233L87.6596 11.2843C87.5943 11.5746 87.6494 11.874 87.8029 12.1181L89.4962 11.0538ZM89.6108 11.7233C89.5604 11.9476 89.4227 12.1519 89.2153 12.2823L88.1509 10.589C87.8946 10.7501 87.7227 11.0041 87.6596 11.2843L89.6108 11.7233ZM89.2199 12.2794L100.449 5.13576L99.3753 3.4483L88.1464 10.5919L89.2199 12.2794ZM100.452 5.13377C100.034 5.40157 99.4798 5.27687 99.2163 4.85871L100.908 3.79247C100.581 3.27223 99.8911 3.11747 99.3722 3.45029L100.452 5.13377ZM99.2186 4.86234L103.518 11.6207L105.205 10.5472L100.906 3.78885L99.2186 4.86234ZM103.517 11.6199C103.287 11.2565 103.354 10.7977 103.64 10.5121L105.054 11.9263C105.41 11.5702 105.493 10.9995 105.206 10.5479L103.517 11.6199ZM93.6108 18.9796L104.656 11.9528L103.582 10.2654L92.5372 17.2922L93.6108 18.9796ZM104.963 10.5723L100.78 3.99789L99.0928 5.07142L103.275 11.6459L104.963 10.5723ZM99.3997 3.69093L88.3547 10.7177L89.4283 12.4052L100.473 5.37838L99.3997 3.69093ZM88.0477 12.0982L92.2303 18.6727L93.9177 17.5992L89.7352 11.0247L88.0477 12.0982Z" fill="black" mask="url(#path-19-inside-1_108_816)"/>
<mask id="path-21-inside-2_108_816" fill="white">
<path d="M99.7532 6.31329C99.7476 6.31889 99.7413 6.32378 99.7347 6.32833L90.6204 12.127C90.5698 12.1595 90.5023 12.1445 90.4701 12.0935C90.438 12.0424 90.4537 11.9764 90.5037 11.9431L99.6179 6.14444C99.6686 6.11193 99.7361 6.12696 99.7683 6.178C99.7959 6.2217 99.7885 6.27799 99.7532 6.31329Z"/>
</mask>
<path d="M99.7532 6.31329C99.7476 6.31889 99.7413 6.32378 99.7347 6.32833L90.6204 12.127C90.5698 12.1595 90.5023 12.1445 90.4701 12.0935C90.438 12.0424 90.4537 11.9764 90.5037 11.9431L99.6179 6.14444C99.6686 6.11193 99.7361 6.12696 99.7683 6.178C99.7959 6.2217 99.7885 6.27799 99.7532 6.31329Z" fill="black"/>
<path d="M99.7347 6.32833L100.808 8.01576L100.836 7.99782L100.864 7.97894L99.7347 6.32833ZM90.6204 12.127L89.5469 10.4396L89.5407 10.4435L90.6204 12.127ZM90.5037 11.9431L89.4301 10.2557L89.4134 10.2663L89.397 10.2773L90.5037 11.9431ZM99.6179 6.14444L100.692 7.83188L100.698 7.82793L99.6179 6.14444ZM99.7683 6.178L98.0762 7.24424L98.0776 7.24649L99.7683 6.178ZM98.339 4.89908C98.4486 4.78947 98.5484 4.71663 98.6053 4.67771L100.864 7.97894C100.934 7.93094 101.047 7.8483 101.167 7.72751L98.339 4.89908ZM98.6611 4.6409L89.5469 10.4396L91.694 13.8145L100.808 8.01576L98.6611 4.6409ZM89.5407 10.4435C90.4263 9.87554 91.6029 10.1397 92.1622 11.0272L88.778 13.1597C89.4016 14.1493 90.7132 14.4435 91.7002 13.8105L89.5407 10.4435ZM92.1622 11.0272C92.7344 11.9352 92.4245 13.0682 91.6104 13.609L89.397 10.2773C88.4829 10.8845 88.1415 12.1496 88.778 13.1597L92.1622 11.0272ZM91.5773 13.6306L100.692 7.83187L98.5443 4.45701L89.4301 10.2557L91.5773 13.6306ZM100.698 7.82793C99.8122 8.39584 98.6355 8.13189 98.0762 7.24424L101.46 5.11176C100.837 4.12202 99.525 3.82802 98.5382 4.46095L100.698 7.82793ZM98.0776 7.24649C97.5958 6.48414 97.7263 5.51181 98.339 4.89908L101.167 7.72751C101.851 7.04416 101.996 5.95926 101.459 5.1095L98.0776 7.24649Z" fill="black" mask="url(#path-21-inside-2_108_816)"/>
<path d="M55.6189 28.0872C55.6112 28.1159 55.5856 28.1392 55.5421 28.153L54.449 28.4962C54.3484 28.5278 54.1912 28.4946 54.0981 28.4217C54.005 28.3488 54.0107 28.2639 54.1113 28.2323L55.2044 27.8891C55.305 27.8575 55.4622 27.8908 55.5553 27.9636C55.6078 28.0055 55.6288 28.0502 55.6189 28.0872Z" fill="black"/>
<path d="M82.6218 19.6044C82.6141 19.6331 82.5885 19.6565 82.545 19.6703L80.2953 20.3774C80.1947 20.4091 80.0375 20.3758 79.9444 20.303C79.8513 20.2301 79.8581 20.1455 79.9576 20.1136L82.2084 19.4067C82.309 19.3751 82.4662 19.4083 82.5593 19.4812C82.6108 19.5222 82.6317 19.5675 82.6218 19.6044ZM78.1214 21.0186C78.1137 21.0473 78.0881 21.0706 78.0445 21.0849L75.7937 21.7918C75.6931 21.8234 75.5359 21.7902 75.443 21.7168C75.3499 21.6439 75.3554 21.5596 75.4572 21.5277L77.708 20.8208C77.8086 20.7892 77.9658 20.8224 78.0587 20.8958C78.1104 20.9363 78.1315 20.981 78.1214 21.0186ZM73.6201 22.4318C73.6124 22.4605 73.5868 22.4839 73.5431 22.4982L71.2924 23.2051C71.1918 23.2367 71.0346 23.2035 70.9417 23.1301C70.8486 23.0572 70.8541 22.9729 70.9559 22.941L73.2067 22.2341C73.3073 22.2025 73.4645 22.2357 73.5574 22.3091C73.61 22.3504 73.63 22.3948 73.6201 22.4318ZM69.1197 23.8459C69.112 23.8747 69.0864 23.898 69.0427 23.9123L66.792 24.6192C66.6914 24.6508 66.5342 24.6176 66.4413 24.5442C66.3482 24.4713 66.3537 24.387 66.4555 24.3551L68.7063 23.6482C68.8069 23.6166 68.9641 23.6498 69.057 23.7232C69.1087 23.7637 69.1296 23.809 69.1197 23.8459ZM64.6194 25.2595C64.6117 25.2882 64.5861 25.3115 64.5426 25.3253L62.2919 26.0322C62.1913 26.0638 62.0341 26.0306 61.941 25.9577C61.8479 25.8849 61.8536 25.8 61.9542 25.7684L64.2039 25.0612C64.3045 25.0296 64.4617 25.0628 64.5548 25.1357C64.6083 25.1778 64.6293 25.2225 64.6194 25.2595ZM60.119 26.6736C60.1113 26.7023 60.0857 26.7256 60.0422 26.7394L57.7926 27.4466C57.6919 27.4782 57.5348 27.445 57.4417 27.3721C57.3486 27.2993 57.3542 27.2144 57.4548 27.1828L59.7056 26.4759C59.8062 26.4442 59.9634 26.4775 60.0565 26.5504C60.108 26.5914 60.1289 26.6366 60.119 26.6736Z" fill="black"/>
<path d="M85.9657 18.5545C85.958 18.5832 85.9324 18.6065 85.8888 18.6208L84.7957 18.964C84.6951 18.9956 84.538 18.9624 84.445 18.889C84.3519 18.8161 84.3574 18.7318 84.4593 18.6999L85.5523 18.3567C85.6529 18.3251 85.8101 18.3583 85.903 18.4317C85.9548 18.4722 85.9756 18.5175 85.9657 18.5545Z" fill="black"/>
<path d="M68.8838 44.3266C68.8753 44.3751 68.8585 44.4211 68.8339 44.4581L68.2189 45.383C68.1622 45.4681 68.087 45.4693 68.051 45.3851C68.015 45.3009 68.0315 45.1635 68.0882 45.0783L68.7033 44.1535C68.7599 44.0683 68.8351 44.0671 68.8711 44.1513C68.8913 44.2001 68.8949 44.2641 68.8838 44.3266Z" fill="black"/>
<path d="M84.0802 21.4717C84.0716 21.5202 84.0548 21.5662 84.0303 21.6032L82.7642 23.5081C82.7075 23.5933 82.6323 23.5944 82.5963 23.5102C82.5603 23.426 82.5773 23.2887 82.6335 23.2034L83.9001 21.2987C83.9567 21.2135 84.0319 21.2123 84.0679 21.2965C84.0878 21.3443 84.0912 21.4093 84.0802 21.4717ZM81.5474 25.2813C81.5389 25.3298 81.522 25.3758 81.4974 25.4138L80.2308 27.3185C80.1741 27.4037 80.0989 27.4049 80.0631 27.3197C80.0271 27.2355 80.0435 27.099 80.1007 27.013L81.3674 25.1083C81.424 25.0231 81.4992 25.0219 81.535 25.1071C81.555 25.1538 81.5586 25.2179 81.5474 25.2813ZM79.0144 29.0899C79.0058 29.1384 78.989 29.1844 78.9643 29.2224L77.6977 31.1271C77.6411 31.2123 77.5659 31.2134 77.53 31.1283C77.494 31.0441 77.5104 30.9076 77.5677 30.8216L78.8343 28.9168C78.8909 28.8317 78.9661 28.8305 79.002 28.9156C79.0223 28.9634 79.0254 29.0274 79.0144 29.0899ZM76.4816 32.8995C76.4731 32.948 76.4562 32.994 76.4316 33.0319L75.165 34.9367C75.1083 35.0219 75.0331 35.023 74.9973 34.9379C74.9613 34.8537 74.9777 34.7172 75.0349 34.6312L76.3016 32.7264C76.3582 32.6413 76.4334 32.6401 76.4692 32.7252C76.4892 32.772 76.4927 32.837 76.4816 32.8995ZM73.9491 36.7081C73.9405 36.7566 73.9237 36.8027 73.8992 36.8397L72.6326 38.7444C72.5759 38.8296 72.5007 38.8308 72.4647 38.7466C72.4287 38.6624 72.4453 38.5249 72.5019 38.4398L73.768 36.5349C73.8246 36.4497 73.8998 36.4486 73.9358 36.5328C73.9565 36.5816 73.9601 36.6457 73.9491 36.7081ZM71.4163 40.5177C71.4078 40.5662 71.3909 40.6123 71.3664 40.6493L70.1003 42.5541C70.0437 42.6393 69.9685 42.6404 69.9325 42.5562C69.8965 42.472 69.913 42.3346 69.9696 42.2494L71.2363 40.3447C71.2929 40.2595 71.3681 40.2584 71.4041 40.3426C71.4239 40.3903 71.4274 40.4553 71.4163 40.5177Z" fill="black"/>
<path d="M85.9619 18.6425C85.9534 18.6909 85.9365 18.737 85.9118 18.7749L85.2967 19.6998C85.2401 19.7849 85.1649 19.7861 85.1291 19.701C85.0931 19.6168 85.1094 19.4803 85.1667 19.3943L85.7818 18.4694C85.8384 18.3842 85.9136 18.3831 85.9495 18.4682C85.9695 18.515 85.9729 18.58 85.9619 18.6425Z" fill="black"/>
<path d="M66.0332 33.8124C66.0244 33.8455 66.0054 33.8752 65.977 33.8969L65.2627 34.4385C65.1969 34.4884 65.1062 34.4744 65.0603 34.4068C65.0144 34.3393 65.0302 34.244 65.096 34.1941L65.8103 33.6524C65.876 33.6025 65.9667 33.6166 66.0126 33.6841C66.0384 33.7231 66.0447 33.7697 66.0332 33.8124Z" fill="black"/>
<path d="M83.6807 20.4252C83.6718 20.4583 83.6529 20.488 83.6244 20.5097L82.1541 21.6256C82.0883 21.6755 81.9977 21.6614 81.9517 21.5939C81.9058 21.5263 81.9222 21.4312 81.9874 21.3811L83.4583 20.2654C83.5241 20.2155 83.6147 20.2296 83.6607 20.2971C83.686 20.3353 83.6921 20.3826 83.6807 20.4252ZM80.7394 22.6568C80.7306 22.6899 80.7116 22.7196 80.683 22.7419L79.2121 23.8576C79.1463 23.9075 79.0556 23.8934 79.0099 23.8252C78.964 23.7577 78.9796 23.663 79.0462 23.6126L80.5171 22.497C80.5828 22.4471 80.6735 22.4611 80.7193 22.5293C80.7448 22.5668 80.751 22.6135 80.7394 22.6568ZM77.7978 24.8875C77.7889 24.9206 77.7699 24.9503 77.7413 24.9726L76.2704 26.0883C76.2046 26.1382 76.114 26.1241 76.0682 26.056C76.0223 25.9884 76.0379 25.8937 76.1045 25.8434L77.5754 24.7277C77.6412 24.6778 77.7318 24.6919 77.7776 24.76C77.8035 24.7984 77.8092 24.8449 77.7978 24.8875ZM74.8565 27.1191C74.8476 27.1521 74.8287 27.1818 74.8001 27.2042L73.3291 28.3199C73.2634 28.3697 73.1727 28.3557 73.127 28.2875C73.081 28.22 73.0967 28.1253 73.1632 28.0749L74.6342 26.9592C74.6999 26.9093 74.7906 26.9234 74.8363 26.9916C74.8619 27.0291 74.8679 27.0764 74.8565 27.1191ZM71.9154 29.3499C71.9066 29.383 71.8876 29.4127 71.8592 29.4344L70.3882 30.5501C70.3225 30.6 70.2318 30.5859 70.1859 30.5184C70.14 30.4509 70.1558 30.3555 70.2216 30.3056L71.6919 29.1898C71.7576 29.1399 71.8483 29.154 71.8942 29.2215C71.9206 29.2606 71.9269 29.3073 71.9154 29.3499ZM68.9742 31.5815C68.9653 31.6146 68.9464 31.6443 68.9179 31.666L67.4476 32.7818C67.3818 32.8317 67.2912 32.8176 67.2453 32.7501C67.1993 32.6826 67.2152 32.5872 67.2809 32.5373L68.7518 31.4217C68.8176 31.3718 68.9083 31.3858 68.9542 31.4534C68.9795 31.4915 68.9856 31.5388 68.9742 31.5815Z" fill="black"/>
<path d="M85.866 18.7679C85.8572 18.801 85.8382 18.8307 85.8096 18.853L85.0953 19.3947C85.0295 19.4446 84.9389 19.4305 84.8931 19.3623C84.8472 19.2948 84.8628 19.2001 84.9294 19.1497L85.6437 18.6081C85.7094 18.5582 85.8001 18.5722 85.8459 18.6404C85.8714 18.6779 85.8775 18.7252 85.866 18.7679Z" fill="black"/>
<path d="M68.7291 36.7887C68.7208 36.8196 68.7061 36.8482 68.6857 36.8701L68.173 37.4183C68.1258 37.4688 68.0668 37.4625 68.0414 37.4041C68.0159 37.3456 68.0333 37.2572 68.0805 37.2067L68.5932 36.6585C68.6404 36.608 68.6994 36.6142 68.7249 36.6727C68.7391 36.7065 68.7398 36.7488 68.7291 36.7887Z" fill="black"/>
<path d="M81.3944 23.2416C81.3861 23.2726 81.3714 23.3012 81.351 23.3231L80.2957 24.4522C80.2485 24.5027 80.1895 24.4965 80.164 24.438C80.1385 24.3795 80.1564 24.2912 80.2032 24.2406L81.2589 23.1116C81.306 23.0611 81.3651 23.0673 81.3905 23.1258C81.4045 23.1589 81.4051 23.2018 81.3944 23.2416ZM79.2835 25.4998C79.2752 25.5307 79.2605 25.5593 79.2399 25.5819L78.1842 26.7109C78.137 26.7614 78.078 26.7551 78.0527 26.6961C78.0272 26.6376 78.0445 26.5498 78.0922 26.4988L79.1479 25.3697C79.1951 25.3193 79.2541 25.3255 79.2794 25.3846C79.2936 25.4171 79.2943 25.4593 79.2835 25.4998ZM77.1723 27.7573C77.164 27.7882 77.1493 27.8168 77.1287 27.8393L76.073 28.9684C76.0258 29.0189 75.9668 29.0126 75.9415 28.9535C75.916 28.8951 75.9333 28.8072 75.9811 28.7562L77.0367 27.6272C77.0839 27.5767 77.1429 27.583 77.1683 27.642C77.1826 27.6752 77.183 27.7174 77.1723 27.7573ZM75.0614 30.0154C75.0531 30.0464 75.0383 30.075 75.0178 30.0975L73.9621 31.2265C73.9149 31.277 73.8559 31.2708 73.8306 31.2117C73.8051 31.1532 73.8224 31.0654 73.8701 31.0144L74.9258 29.8854C74.973 29.8349 75.032 29.8411 75.0573 29.9002C75.0715 29.9327 75.072 29.9756 75.0614 30.0154ZM72.9506 32.273C72.9423 32.304 72.9276 32.3325 72.9071 32.3545L71.8515 33.4835C71.8043 33.534 71.7453 33.5278 71.7198 33.4693C71.6943 33.4108 71.7118 33.3224 71.759 33.2719L72.8142 32.1427C72.8614 32.0923 72.9204 32.0985 72.9459 32.157C72.9605 32.1909 72.9613 32.2332 72.9506 32.273ZM70.8396 34.5312C70.8313 34.5621 70.8166 34.5907 70.7962 34.6127L69.7409 35.7418C69.6937 35.7923 69.6347 35.786 69.6092 35.7276C69.5838 35.6691 69.6012 35.5806 69.6484 35.5302L70.7041 34.4011C70.7513 34.3506 70.8103 34.3569 70.8358 34.4154C70.8497 34.4484 70.8503 34.4913 70.8396 34.5312Z" fill="black"/>
<path d="M82.963 21.564C82.9547 21.595 82.9399 21.6236 82.9194 21.6461L82.4067 22.1943C82.3595 22.2448 82.3005 22.2385 82.2752 22.1794C82.2497 22.121 82.267 22.0331 82.3147 21.9821L82.8274 21.434C82.8746 21.3835 82.9336 21.3897 82.9589 21.4488C82.9731 21.4813 82.9736 21.5242 82.963 21.564Z" fill="black"/>
<path d="M63.0072 28.1403C63.0017 28.1609 62.9853 28.1782 62.9581 28.1893L62.2749 28.4637C62.212 28.4889 62.116 28.4696 62.0606 28.4203C62.0052 28.371 62.0111 28.3104 62.074 28.2852L62.7572 28.0107C62.8201 27.9855 62.916 28.0048 62.9714 28.0541C63.0026 28.0825 63.0143 28.1137 63.0072 28.1403Z" fill="black"/>
<path d="M79.885 21.3581C79.8795 21.3788 79.8631 21.3961 79.8359 21.4071L78.4297 21.9725C78.3668 21.9978 78.2709 21.9784 78.2155 21.9291C78.1601 21.8798 78.1666 21.8194 78.2288 21.794L79.6356 21.2288C79.6985 21.2035 79.7945 21.2228 79.8499 21.2721C79.8805 21.2999 79.8922 21.3315 79.885 21.3581ZM77.0721 22.4887C77.0665 22.5094 77.0501 22.5267 77.0228 22.5381L75.616 23.1033C75.5531 23.1286 75.4571 23.1093 75.4019 23.0596C75.3465 23.0102 75.3522 22.9501 75.4159 22.9246L76.8227 22.3594C76.8856 22.3341 76.9815 22.3534 77.0368 22.4031C77.0676 22.4305 77.0793 22.4617 77.0721 22.4887ZM74.2586 23.6188C74.253 23.6394 74.2366 23.6567 74.2093 23.6681L72.8025 24.2334C72.7396 24.2586 72.6436 24.2393 72.5884 24.1896C72.533 24.1403 72.5387 24.0801 72.6024 24.0546L74.0092 23.4894C74.0721 23.4641 74.168 23.4835 74.2233 23.5332C74.2546 23.5611 74.2657 23.5922 74.2586 23.6188ZM71.4456 24.7494C71.4401 24.77 71.4236 24.7873 71.3963 24.7987L69.9895 25.364C69.9266 25.3892 69.8307 25.3699 69.7754 25.3202C69.72 25.2709 69.7258 25.2107 69.7894 25.1852L71.1962 24.62C71.2591 24.5947 71.3551 24.6141 71.4103 24.6638C71.4411 24.6912 71.4527 24.7228 71.4456 24.7494ZM68.6327 25.8796C68.6272 25.9002 68.6108 25.9175 68.5836 25.9286L67.1768 26.4938C67.1139 26.5191 67.0179 26.4997 66.9625 26.4504C66.9072 26.4011 66.913 26.3405 66.9759 26.3153L68.3821 25.7499C68.4449 25.7246 68.5409 25.7439 68.5963 25.7932C68.6281 25.8218 68.6399 25.853 68.6327 25.8796ZM65.8198 27.0102C65.8142 27.0308 65.7978 27.0481 65.7706 27.0592L64.3645 27.6245C64.3016 27.6498 64.2056 27.6305 64.1502 27.5812C64.0949 27.5319 64.1007 27.4713 64.1636 27.446L65.5704 26.8808C65.6333 26.8555 65.7292 26.8749 65.7846 26.9242C65.8153 26.952 65.8269 26.9836 65.8198 27.0102Z" fill="black"/>
<path d="M81.9752 20.5181C81.9697 20.5388 81.9532 20.5561 81.9259 20.5675L81.2427 20.8419C81.1798 20.8672 81.0839 20.8478 81.0286 20.7981C80.9732 20.7488 80.979 20.6886 81.0426 20.6631L81.7258 20.3887C81.7887 20.3635 81.8847 20.3828 81.9399 20.4325C81.9707 20.4599 81.9823 20.4915 81.9752 20.5181Z" fill="black"/>
<path d="M69.6473 28.1219C69.6426 28.1397 69.6312 28.1553 69.6135 28.1663L69.1694 28.4405C69.1285 28.4657 69.0698 28.4555 69.0383 28.4174C69.0068 28.3794 69.0142 28.3279 69.0551 28.3027L69.4992 28.0285C69.5401 28.0032 69.5989 28.0135 69.6304 28.0515C69.6481 28.0735 69.6534 28.099 69.6473 28.1219Z" fill="black"/>
<path d="M80.6199 21.3446C80.6152 21.3623 80.6038 21.378 80.5862 21.389L79.672 21.9539C79.6311 21.9791 79.5723 21.9689 79.5408 21.9308C79.5093 21.8928 79.5172 21.8414 79.5577 21.8161L80.4723 21.2513C80.5131 21.226 80.5719 21.2363 80.6034 21.2743C80.6208 21.2958 80.6261 21.3217 80.6199 21.3446ZM78.7912 22.4744C78.7864 22.4921 78.7751 22.5077 78.7573 22.5191L77.8427 23.0839C77.8018 23.1091 77.7431 23.0989 77.7117 23.0605C77.6802 23.0224 77.6875 22.9713 77.7289 22.9458L78.6435 22.381C78.6844 22.3558 78.7431 22.366 78.7745 22.4044C78.792 22.4256 78.7974 22.4511 78.7912 22.4744ZM76.9621 23.6037C76.9573 23.6214 76.946 23.637 76.9282 23.6484L76.0136 24.2132C75.9728 24.2384 75.914 24.2282 75.8826 24.1898C75.8511 24.1517 75.8585 24.1006 75.8998 24.0751L76.8144 23.5103C76.8553 23.4851 76.9141 23.4953 76.9455 23.5337C76.9633 23.5553 76.9682 23.5808 76.9621 23.6037ZM75.1333 24.7334C75.1286 24.7512 75.1172 24.7668 75.0995 24.7781L74.1849 25.3429C74.144 25.3682 74.0852 25.3579 74.0538 25.3195C74.0223 25.2815 74.0297 25.2304 74.0711 25.2049L74.9857 24.6401C75.0265 24.6148 75.0853 24.6251 75.1167 24.6635C75.1342 24.6846 75.1395 24.7106 75.1333 24.7334ZM73.3047 25.8628C73.2999 25.8806 73.2886 25.8962 73.2709 25.9072L72.3563 26.472C72.3154 26.4973 72.2567 26.487 72.2252 26.4489C72.1937 26.4109 72.2011 26.3595 72.242 26.3342L73.1562 25.7693C73.1971 25.744 73.2558 25.7543 73.2873 25.7923C73.3054 25.8144 73.3108 25.84 73.3047 25.8628ZM71.4759 26.9926C71.4711 27.0103 71.4598 27.0259 71.4421 27.0369L70.5279 27.6019C70.487 27.6271 70.4283 27.6169 70.3968 27.5788C70.3653 27.5407 70.3727 27.4893 70.4136 27.4641L71.3282 26.8992C71.3691 26.874 71.4278 26.8842 71.4593 26.9223C71.4767 26.9438 71.482 26.9697 71.4759 26.9926Z" fill="black"/>
<path d="M81.9786 20.5054C81.9739 20.5231 81.9625 20.5388 81.9447 20.5501L81.5006 20.8243C81.4597 20.8496 81.401 20.8393 81.3696 20.8009C81.3381 20.7628 81.3454 20.7118 81.3868 20.6863L81.8309 20.4121C81.8718 20.3868 81.9306 20.3971 81.962 20.4355C81.9795 20.4566 81.9848 20.4825 81.9786 20.5054Z" fill="black"/>
<path d="M17.9464 45.6C17.5664 44.9 17.0164 44.37 16.2964 44.01C15.5964 43.63 14.7664 43.44 13.8064 43.44C12.1464 43.44 10.8164 43.99 9.81645 45.09C8.81645 46.17 8.31645 47.62 8.31645 49.44C8.31645 51.38 8.83645 52.9 9.87645 54C10.9364 55.08 12.3864 55.62 14.2264 55.62C15.4864 55.62 16.5464 55.3 17.4064 54.66C18.2864 54.02 18.9264 53.1 19.3264 51.9H12.8164V48.12H23.9764V52.89C23.5964 54.17 22.9464 55.36 22.0264 56.46C21.1264 57.56 19.9764 58.45 18.5764 59.13C17.1764 59.81 15.5964 60.15 13.8364 60.15C11.7564 60.15 9.89645 59.7 8.25645 58.8C6.63645 57.88 5.36645 56.61 4.44645 54.99C3.54645 53.37 3.09645 51.52 3.09645 49.44C3.09645 47.36 3.54645 45.51 4.44645 43.89C5.36645 42.25 6.63645 40.98 8.25645 40.08C9.87645 39.16 11.7264 38.7 13.8064 38.7C16.3264 38.7 18.4464 39.31 20.1664 40.53C21.9064 41.75 23.0564 43.44 23.6164 45.6H17.9464ZM87.4574 51.6C87.4574 49.88 87.7774 48.37 88.4174 47.07C89.0774 45.77 89.9674 44.77 91.0874 44.07C92.2074 43.37 93.4574 43.02 94.8374 43.02C95.9374 43.02 96.9374 43.25 97.8374 43.71C98.7574 44.17 99.4774 44.79 99.9974 45.57V37.8H105.127V60H99.9974V57.6C99.5174 58.4 98.8274 59.04 97.9274 59.52C97.0474 60 96.0174 60.24 94.8374 60.24C93.4574 60.24 92.2074 59.89 91.0874 59.19C89.9674 58.47 89.0774 57.46 88.4174 56.16C87.7774 54.84 87.4574 53.32 87.4574 51.6ZM99.9974 51.63C99.9974 50.35 99.6374 49.34 98.9174 48.6C98.2174 47.86 97.3574 47.49 96.3374 47.49C95.3174 47.49 94.4474 47.86 93.7274 48.6C93.0274 49.32 92.6774 50.32 92.6774 51.6C92.6774 52.88 93.0274 53.9 93.7274 54.66C94.4474 55.4 95.3174 55.77 96.3374 55.77C97.3574 55.77 98.2174 55.4 98.9174 54.66C99.6374 53.92 99.9974 52.91 99.9974 51.63ZM126.089 45.72C126.089 46.94 125.809 48.06 125.249 49.08C124.689 50.08 123.829 50.89 122.669 51.51C121.509 52.13 120.069 52.44 118.349 52.44H115.169V60H110.039V38.94H118.349C120.029 38.94 121.449 39.23 122.609 39.81C123.769 40.39 124.639 41.19 125.219 42.21C125.799 43.23 126.089 44.4 126.089 45.72ZM117.959 48.36C118.939 48.36 119.669 48.13 120.149 47.67C120.629 47.21 120.869 46.56 120.869 45.72C120.869 44.88 120.629 44.23 120.149 43.77C119.669 43.31 118.939 43.08 117.959 43.08H115.169V48.36H117.959ZM137.579 60.24C135.939 60.24 134.459 59.89 133.139 59.19C131.839 58.49 130.809 57.49 130.049 56.19C129.309 54.89 128.939 53.37 128.939 51.63C128.939 49.91 129.319 48.4 130.079 47.1C130.839 45.78 131.879 44.77 133.199 44.07C134.519 43.37 135.999 43.02 137.639 43.02C139.279 43.02 140.759 43.37 142.079 44.07C143.399 44.77 144.439 45.78 145.199 47.1C145.959 48.4 146.339 49.91 146.339 51.63C146.339 53.35 145.949 54.87 145.169 56.19C144.409 57.49 143.359 58.49 142.019 59.19C140.699 59.89 139.219 60.24 137.579 60.24ZM137.579 55.8C138.559 55.8 139.389 55.44 140.069 54.72C140.769 54 141.119 52.97 141.119 51.63C141.119 50.29 140.779 49.26 140.099 48.54C139.439 47.82 138.619 47.46 137.639 47.46C136.639 47.46 135.809 47.82 135.149 48.54C134.489 49.24 134.159 50.27 134.159 51.63C134.159 52.97 134.479 54 135.119 54.72C135.779 55.44 136.599 55.8 137.579 55.8ZM152.841 41.52C151.941 41.52 151.201 41.26 150.621 40.74C150.061 40.2 149.781 39.54 149.781 38.76C149.781 37.96 150.061 37.3 150.621 36.78C151.201 36.24 151.941 35.97 152.841 35.97C153.721 35.97 154.441 36.24 155.001 36.78C155.581 37.3 155.871 37.96 155.871 38.76C155.871 39.54 155.581 40.2 155.001 40.74C154.441 41.26 153.721 41.52 152.841 41.52ZM155.391 43.26V60H150.261V43.26H155.391ZM167.119 60.24C165.659 60.24 164.359 59.99 163.219 59.49C162.079 58.99 161.179 58.31 160.519 57.45C159.859 56.57 159.489 55.59 159.409 54.51H164.479C164.539 55.09 164.809 55.56 165.289 55.92C165.769 56.28 166.359 56.46 167.059 56.46C167.699 56.46 168.189 56.34 168.529 56.1C168.889 55.84 169.069 55.51 169.069 55.11C169.069 54.63 168.819 54.28 168.319 54.06C167.819 53.82 167.009 53.56 165.889 53.28C164.689 53 163.689 52.71 162.889 52.41C162.089 52.09 161.399 51.6 160.819 50.94C160.239 50.26 159.949 49.35 159.949 48.21C159.949 47.25 160.209 46.38 160.729 45.6C161.269 44.8 162.049 44.17 163.069 43.71C164.109 43.25 165.339 43.02 166.759 43.02C168.859 43.02 170.509 43.54 171.709 44.58C172.929 45.62 173.629 47 173.809 48.72H169.069C168.989 48.14 168.729 47.68 168.289 47.34C167.869 47 167.309 46.83 166.609 46.83C166.009 46.83 165.549 46.95 165.229 47.19C164.909 47.41 164.749 47.72 164.749 48.12C164.749 48.6 164.999 48.96 165.499 49.2C166.019 49.44 166.819 49.68 167.899 49.92C169.139 50.24 170.149 50.56 170.929 50.88C171.709 51.18 172.389 51.68 172.969 52.38C173.569 53.06 173.879 53.98 173.899 55.14C173.899 56.12 173.619 57 173.059 57.78C172.519 58.54 171.729 59.14 170.689 59.58C169.669 60.02 168.479 60.24 167.119 60.24ZM185.857 60.24C184.217 60.24 182.737 59.89 181.417 59.19C180.117 58.49 179.087 57.49 178.327 56.19C177.587 54.89 177.217 53.37 177.217 51.63C177.217 49.91 177.597 48.4 178.357 47.1C179.117 45.78 180.157 44.77 181.477 44.07C182.797 43.37 184.277 43.02 185.917 43.02C187.557 43.02 189.037 43.37 190.357 44.07C191.677 44.77 192.717 45.78 193.477 47.1C194.237 48.4 194.617 49.91 194.617 51.63C194.617 53.35 194.227 54.87 193.447 56.19C192.687 57.49 191.637 58.49 190.297 59.19C188.977 59.89 187.497 60.24 185.857 60.24ZM185.857 55.8C186.837 55.8 187.667 55.44 188.347 54.72C189.047 54 189.397 52.97 189.397 51.63C189.397 50.29 189.057 49.26 188.377 48.54C187.717 47.82 186.897 47.46 185.917 47.46C184.917 47.46 184.087 47.82 183.427 48.54C182.767 49.24 182.437 50.27 182.437 51.63C182.437 52.97 182.757 54 183.397 54.72C184.057 55.44 184.877 55.8 185.857 55.8ZM208.739 43.08C210.699 43.08 212.259 43.72 213.419 45C214.599 46.26 215.189 48 215.189 50.22V60H210.089V50.91C210.089 49.79 209.799 48.92 209.219 48.3C208.639 47.68 207.859 47.37 206.879 47.37C205.899 47.37 205.119 47.68 204.539 48.3C203.959 48.92 203.669 49.79 203.669 50.91V60H198.539V43.26H203.669V45.48C204.189 44.74 204.889 44.16 205.769 43.74C206.649 43.3 207.639 43.08 208.739 43.08Z" fill="#0C0C0C"/>
<path d="M81.2047 46.7187C80.3327 46.0594 78.1381 45.9191 76.4495 45.9191C74.7865 45.9191 73.1617 46.0467 72.1962 46.17C71.622 46.2423 70.6438 46.3487 69.5124 46.4763C66.2799 46.8378 61.8564 47.3269 60.3338 47.6587C59.5809 47.8203 59.1471 47.9266 58.9047 48.05C58.9685 47.2206 58.8877 46.4039 58.7771 45.7277C59.7681 45.0429 60.3168 43.248 60.3168 43.248C60.338 43.1289 61.3291 40.9427 61.7884 39.5561C62.2478 38.1696 61.9288 37.8506 61.9288 37.8506C63.8768 36.0046 63.8257 35.4687 63.8257 35.4687C64.8763 34.9924 64.7104 34.4692 64.7104 34.4692C65.5143 34.0736 65.425 33.525 65.425 33.525C65.9226 33.3336 65.9396 32.9168 65.9396 32.9168C66.1778 32.7169 66.7563 32.2107 66.4926 32.0321C66.1565 31.8109 65.778 32.8062 65.778 32.8062C65.459 32.7466 65.3016 33.4442 65.3016 33.4442C64.9656 33.4229 64.5871 34.3586 64.5871 34.3586C64.2085 34.1417 63.6726 35.3496 63.6726 35.3496C63.3536 35.2688 61.648 37.7315 61.648 37.7315C61.1504 37.7315 60.8739 39.1011 60.7931 40.2324C60.7123 41.3638 59.9212 43.0906 59.9212 43.0906C59.2024 43.3841 58.743 43.9413 58.4496 44.4899C58.071 43.635 57.5096 43.2778 57.5096 43.2778C58.2837 43.1417 58.4113 42.7929 58.4836 42.7121C58.5517 42.6313 58.8621 42.6908 58.8026 41.6998C58.743 40.7088 57.3225 40.1516 57.0843 40.0835C56.8461 40.0112 56.9864 40.0708 56.5696 39.7561C56.1528 39.4371 55.2383 39.4796 55.2383 39.4796C55.2383 39.4796 54.3239 39.4413 53.9071 39.7561C53.4902 40.0751 53.6306 40.0155 53.3924 40.0835C53.1542 40.1516 51.7336 40.7088 51.6741 41.6998C51.6145 42.6908 51.9208 42.6313 51.9931 42.7121C52.0611 42.7929 52.193 43.1417 52.9671 43.2778C52.9671 43.2778 52.4056 43.635 52.0271 44.4899C51.7336 43.9413 51.2743 43.3798 50.5555 43.0906C50.5555 43.0906 49.7601 41.3638 49.6835 40.2324C49.6027 39.1011 49.3263 37.7315 48.8286 37.7315C48.8286 37.7315 47.123 35.2688 46.8041 35.3496C46.8041 35.3496 46.2682 34.1375 45.8896 34.3586C45.8896 34.3586 45.5111 33.4229 45.1751 33.4442C45.1751 33.4442 45.0177 32.7509 44.6987 32.8062C44.6987 32.8062 44.3201 31.8109 43.9841 32.0321C43.7204 32.2107 44.2989 32.7169 44.5371 32.9168C44.5371 32.9168 44.5541 33.3378 45.0517 33.525C45.0517 33.525 44.9624 34.0779 45.7662 34.4692C45.7662 34.4692 45.6004 34.9924 46.6509 35.4687C46.6509 35.4687 46.6042 36.0004 48.5479 37.8506C48.5479 37.8506 48.2289 38.1696 48.6883 39.5561C49.1434 40.947 50.1386 43.1289 50.1556 43.248C50.1556 43.248 50.7043 45.0429 51.6953 45.7277C51.5848 46.4082 51.5039 47.2206 51.5677 48.05C51.3253 47.9266 50.8915 47.8203 50.1386 47.6587C48.616 47.3269 44.1925 46.8335 40.96 46.4763C39.8287 46.3529 38.8504 46.2423 38.2762 46.17C37.3065 46.0467 35.6817 45.9191 34.0229 45.9191C32.3386 45.9191 30.1439 46.0594 29.2677 46.7187C28.4639 47.3269 28.013 48.084 28.0003 48.8453C27.9875 49.6237 28.4256 50.3935 29.2677 51.0698C30.8202 52.3245 33.1 53.1114 34.6099 53.6345C34.9076 53.7366 35.1671 53.8259 35.3882 53.911C35.8476 54.0811 36.3282 54.3704 36.8429 54.6808C37.8934 55.3146 39.0843 56.0291 40.7346 56.2078L40.7559 56.212C40.9856 56.2375 41.2067 56.2588 41.4279 56.2843C41.4321 56.2843 41.4407 56.2843 41.4492 56.2843C41.9298 56.3311 42.3977 56.3652 42.8613 56.3652C43.7204 56.3652 44.6562 56.2631 45.5706 55.7357C45.5323 55.8547 45.5153 55.9568 45.5238 56.0589C45.5238 56.0589 43.2611 58.2621 43.142 58.7002C43.142 58.7002 42.1722 59.3297 41.917 59.7465C41.917 59.7465 41.3768 59.9719 41.2152 60.2909C41.2152 60.2909 40.7772 60.4313 40.6793 60.7078C40.6793 60.7078 39.8329 61.1373 39.9265 61.4606C39.9903 61.6818 40.5943 61.1246 40.7729 60.8481C40.7729 60.8481 41.2663 60.7418 41.3343 60.427C41.3343 60.427 41.8915 60.2824 42.0489 59.8699C42.0489 59.8699 42.8825 59.3935 43.2398 58.8788C43.2398 58.8788 43.797 58.5216 44.6519 57.6667C45.5068 56.8118 45.6046 56.5353 45.9236 56.4545C46.2426 56.3736 46.6169 55.9994 46.8976 55.3614C46.987 55.1529 47.1571 54.6255 47.3485 54.0088C47.3825 53.9578 47.4165 53.9067 47.4506 53.8557C47.5399 53.8174 47.9652 53.6388 48.4288 53.3326C48.8967 53.0306 49.5006 52.5372 49.7856 51.8907C49.926 52.0183 50.2747 52.282 50.7936 52.282C51.1807 52.282 51.5763 52.1331 51.9718 51.8439C51.9931 51.8397 52.0441 51.8311 52.1037 51.8141C52.1419 51.8226 52.1845 51.8269 52.2227 51.8311C52.0781 52.299 51.908 52.8902 51.7549 53.5154C51.2105 53.7068 50.632 53.9918 50.2492 54.4086C49.3135 55.4209 49.2369 55.9951 49.2369 56.2163C49.2369 56.2163 48.5224 57.4667 48.365 58.7385C48.2077 60.0102 47.7313 61.5584 48.1268 61.9157C48.1268 61.9157 46.0214 63.6851 45.762 64.221C45.762 64.221 45.0262 64.4974 44.8263 65.0546C44.8263 65.0546 43.9118 65.5097 44.0139 65.7309C44.0139 65.7309 43.3929 65.9308 43.4142 66.186C43.4142 66.186 42.4827 66.7049 42.6656 66.9601C42.806 67.16 43.4269 66.556 43.5078 66.3178C43.5078 66.3178 43.8523 66.3817 44.1117 65.85C44.1117 65.85 44.3924 65.9393 44.9496 65.1695C44.9496 65.1695 45.6472 64.927 45.8938 64.3783C45.8938 64.3783 46.081 64.3996 46.787 63.6808C47.4931 62.9578 48.1566 62.1709 48.3437 62.1326C48.5309 62.0943 48.6925 61.737 48.7521 61.316C48.7521 61.316 49.1561 56.8415 49.339 56.6033C49.5262 56.3652 49.6708 56.3609 49.977 56.2248C50.262 56.1014 50.8064 55.7995 51.3721 55.4124C51.2998 55.9271 51.2658 56.4077 51.2998 56.8032C51.4572 58.7512 52.0484 61.014 53.6051 62.7025C54.6854 63.8765 54.9151 64.1146 55.2341 64.1146C55.5531 64.1146 55.7785 63.8807 56.8631 62.7025C58.4155 61.0182 59.0067 58.7512 59.1684 56.8032C59.2024 56.4077 59.1684 55.9271 59.0961 55.4124C59.6618 55.7995 60.2104 56.1014 60.4911 56.2248C60.8016 56.3609 60.9462 56.3652 61.1334 56.6033C61.3205 56.8415 61.7203 61.316 61.7203 61.316C61.7799 61.7413 61.9458 62.0986 62.1287 62.1326C62.3158 62.1709 62.9793 62.9578 63.6854 63.6808C64.3914 64.4039 64.5786 64.3783 64.5786 64.3783C64.8253 64.9313 65.5228 65.1695 65.5228 65.1695C66.08 65.9436 66.3607 65.85 66.3607 65.85C66.6202 66.3817 66.9647 66.3178 66.9647 66.3178C67.0455 66.556 67.6707 67.1557 67.8068 66.9601C67.9854 66.7006 67.0582 66.186 67.0582 66.186C67.0795 65.9265 66.4585 65.7309 66.4585 65.7309C66.5563 65.514 65.6419 65.0546 65.6419 65.0546C65.442 64.4974 64.7104 64.221 64.7104 64.221C64.451 63.6851 62.3456 61.9157 62.3456 61.9157C62.7412 61.5584 62.2648 60.0102 62.1074 58.7385C61.95 57.4667 61.2355 56.2163 61.2355 56.2163C61.2355 55.9994 61.1547 55.4209 60.2232 54.4086C59.8404 53.9918 59.2662 53.7068 58.7175 53.5154C58.5602 52.8902 58.39 52.299 58.2497 51.8311C58.288 51.8269 58.3305 51.8184 58.3688 51.8141C58.4283 51.8311 58.4793 51.8397 58.5006 51.8439C58.8962 52.1374 59.296 52.282 59.6788 52.282C60.1977 52.282 60.5464 52.0183 60.6868 51.8907C60.9718 52.5372 61.5757 53.0306 62.0436 53.3326C62.5072 53.6388 62.9325 53.8174 63.0219 53.8557C63.0559 53.9067 63.0899 53.9578 63.1239 54.0088C63.3153 54.6298 63.4855 55.1572 63.579 55.3614C63.8555 55.9951 64.2341 56.3736 64.5531 56.4545C64.872 56.5353 64.9699 56.8118 65.8248 57.6667C66.6797 58.5216 67.2326 58.8788 67.2326 58.8788C67.5899 59.3935 68.4235 59.8699 68.4235 59.8699C68.5809 60.2782 69.1381 60.427 69.1381 60.427C69.2061 60.7418 69.6995 60.8481 69.6995 60.8481C69.8782 61.1246 70.4821 61.6818 70.5459 61.4606C70.6352 61.1373 69.7931 60.7078 69.7931 60.7078C69.6953 60.4313 69.2572 60.2909 69.2572 60.2909C69.0998 59.9719 68.5554 59.7465 68.5554 59.7465C68.2959 59.3297 67.3304 58.7002 67.3304 58.7002C67.2113 58.2621 64.9486 56.0589 64.9486 56.0589C64.9571 55.9568 64.9443 55.8505 64.9018 55.7357C65.8163 56.2631 66.752 56.3652 67.6112 56.3652C68.0748 56.3652 68.5426 56.3269 69.0232 56.2843C69.0317 56.2843 69.036 56.2843 69.0445 56.2843C69.2657 56.2631 69.4869 56.2375 69.7165 56.212L69.7378 56.2078C71.3881 56.0291 72.579 55.3103 73.6296 54.6808C74.14 54.3746 74.6248 54.0811 75.0842 53.911C75.3053 53.8302 75.5648 53.7409 75.8625 53.6345C77.3725 53.1114 79.6522 52.3245 81.2047 51.0698C82.0468 50.3935 82.4806 49.6237 82.4721 48.8453C82.4594 48.084 82.0085 47.3269 81.2047 46.7187ZM51.925 51.7333L51.9123 51.7418C51.8952 51.7546 51.8825 51.7631 51.8655 51.7758C51.5039 52.0353 51.1424 52.1672 50.7936 52.1672C50.262 52.1672 49.9089 51.8524 49.8281 51.7716C49.8409 51.7078 49.8707 51.5291 49.9472 51.3505C50.0153 51.1846 50.1131 51.0188 50.2577 50.9294C50.4023 50.8444 50.5512 50.7508 50.6958 50.6615C50.9255 50.5169 51.1424 50.3808 51.321 50.283C51.3423 50.2702 51.3593 50.2617 51.3806 50.2532C51.6911 50.0916 51.9037 50.0107 52.0399 49.981C52.1249 50.1639 52.2227 50.3468 52.3376 50.5169C52.4056 50.619 52.478 50.721 52.5588 50.8188C52.5588 50.8188 52.4482 51.1336 52.2908 51.6312C52.1207 51.6993 51.942 51.7291 51.942 51.7291L51.925 51.7333ZM40.7686 56.0929H40.7474C39.1226 55.9186 37.9445 55.2083 36.9024 54.583C36.5026 54.3406 36.1198 54.1109 35.7498 53.9408C35.8774 53.6856 36.5324 52.5202 38.038 52.1331C38.8674 51.9205 39.9435 51.6993 41.3301 51.4611L41.5342 51.4271C42.521 51.2569 44.9113 50.8486 46.4808 50.4318C46.4723 50.5169 46.4851 50.6445 46.5829 50.7721C46.3702 50.9209 46.1618 51.0655 45.9704 51.1974C45.158 51.7503 43.2993 53.256 43.529 55.2976C42.7677 55.7527 41.8532 56.212 41.4534 56.178C41.2238 56.1397 40.9983 56.1185 40.7686 56.0929ZM35.4308 53.8004C35.2053 53.7153 34.9501 53.626 34.6482 53.524C33.1468 53.0051 30.8755 52.2182 29.34 50.9805C28.5277 50.3255 28.1066 49.5896 28.1193 48.8496C28.1236 48.454 28.2597 48.0585 28.5064 47.6842C28.6638 47.8501 29.1274 48.3222 29.6123 48.6029C29.7356 48.6752 29.8589 48.7433 29.9823 48.8071C30.4459 49.0537 30.8797 49.2877 31.0414 49.7045C31.2115 50.1511 31.5262 50.1128 32.1047 50.0447C32.3173 50.0192 32.5853 49.9895 32.9 49.9724C33.4615 49.9469 33.9932 49.8831 34.461 49.8236C34.814 49.7811 35.1288 49.7428 35.4052 49.7258C35.4265 49.8491 35.5286 50.1256 36.0177 50.5381C36.6515 51.0741 36.8046 51.308 36.996 51.7078C37.1448 52.0183 37.2469 52.1969 37.2937 52.2692C36.2431 52.7881 35.754 53.6558 35.6434 53.877C35.5669 53.8557 35.4988 53.8259 35.4308 53.8004ZM31.0626 46.2338C31.2966 46.7272 32.4747 46.7484 34.0952 46.7782C34.8183 46.791 35.6349 46.8038 36.4473 46.8676C38.1359 46.9951 38.7441 47.2674 39.3353 47.5311C39.6458 47.6672 39.935 47.799 40.3688 47.9011C41.5257 48.1776 43.0441 48.5689 44.3329 48.9176C43.6439 48.9474 42.3466 48.9899 41.5683 48.8921C41.0494 48.8283 40.4411 48.6752 39.7989 48.5178C39.0716 48.3349 38.3145 48.1478 37.5957 48.0627L37.2639 48.0244C35.6562 47.833 32.3089 47.4375 31.5348 47.4247L31.2838 47.4205C30.6245 47.4077 29.1572 47.3822 28.8169 47.2971C28.97 47.1313 29.1444 46.9696 29.3443 46.8208C29.7101 46.5315 30.3353 46.3487 31.0626 46.2338ZM38.2592 46.2891C38.5739 46.3274 39.0078 46.3784 39.5224 46.438C39.8457 47.3524 43.4908 48.2456 43.5248 48.2541C43.7374 48.2967 44.1415 48.3817 44.6051 48.4711C45.1836 48.5859 45.9024 48.7305 46.5233 48.8581C46.5701 48.8666 46.6127 48.8708 46.6552 48.8793C46.0767 48.9474 45.124 49.0027 44.3669 48.7985C43.0739 48.4455 41.5513 48.0542 40.3901 47.7778C39.969 47.6757 39.6841 47.5481 39.3778 47.4162C38.7781 47.1483 38.1614 46.8761 36.4516 46.7442C35.6349 46.6804 34.814 46.6676 34.091 46.6549C32.6704 46.6294 31.4327 46.6081 31.1817 46.2126C32.0834 46.0764 33.1212 46.0382 34.0144 46.0382C35.6774 46.0424 37.298 46.17 38.2592 46.2891ZM40.943 46.5953C41.2067 46.6251 41.4747 46.6549 41.7511 46.6847C42.2828 47.8373 43.7544 47.9989 45.1793 48.1563C45.5451 48.1946 45.9236 48.2371 46.2681 48.2967C47.3357 48.4753 47.7228 48.4413 48.0333 48.4158C48.2119 48.3987 48.365 48.386 48.6117 48.4158C49.1944 48.4838 51.1084 48.7985 51.6783 48.8921C51.6783 48.9006 51.6826 48.9091 51.6826 48.9219C51.0488 48.8241 49.2242 48.5519 48.7138 48.5391C48.4756 48.5306 48.2587 48.5944 48.0333 48.6582C47.6547 48.7645 47.2294 48.8879 46.5446 48.7475C45.9279 48.6199 45.2048 48.4753 44.6264 48.3605C44.1585 48.2669 43.7587 48.1861 43.546 48.1435C42.9208 48.0117 40.0328 47.1823 39.65 46.4592C40.0498 46.4975 40.4837 46.5443 40.943 46.5953ZM48.5734 47.5183C48.4671 47.6204 48.4075 47.7352 48.399 47.8586C48.3905 48.033 48.4841 48.1903 48.5649 48.2924C48.3437 48.2711 48.1949 48.2839 48.0247 48.2967C47.7185 48.3222 47.34 48.3562 46.2894 48.1776C45.9407 48.118 45.5621 48.0797 45.1921 48.0372C43.8268 47.8883 42.4232 47.731 41.8915 46.7017C44.167 46.9569 46.7956 47.2546 48.5734 47.5183ZM50.1089 47.7778C50.9765 47.9649 51.3891 48.0755 51.5763 48.1988C51.5933 48.386 51.6188 48.5774 51.6528 48.7645C51.0701 48.6667 49.4113 48.3945 48.7436 48.3094C48.6925 48.2626 48.5096 48.0712 48.5181 47.8628C48.5224 47.7437 48.599 47.6332 48.7308 47.5396C49.305 47.6246 49.7771 47.7055 50.1089 47.7778ZM31.2753 47.5311L31.5262 47.5353C32.2961 47.5523 35.6392 47.9436 37.2427 48.135L37.5744 48.1733C38.2847 48.2584 39.0333 48.4455 39.7606 48.6242C40.4071 48.7858 41.0196 48.9389 41.547 49.0027C41.917 49.0495 42.4019 49.0622 42.8868 49.0622C43.8438 49.0622 44.7838 49.0027 44.8008 49.0027C45.0772 49.041 45.3622 49.058 45.6387 49.058C46.4595 49.058 47.1698 48.9262 47.2039 48.9219C47.5526 48.9134 47.8248 48.8368 48.0758 48.7645C48.3055 48.7007 48.5011 48.6412 48.7223 48.6497C49.2327 48.6667 51.1339 48.9517 51.7209 49.041C51.7591 49.2026 51.8017 49.36 51.857 49.5173C51.8102 49.5173 51.7591 49.5173 51.7039 49.5216C51.5465 49.5259 51.3849 49.5301 51.2615 49.4961C51.0446 49.4365 50.7426 49.4578 50.4746 49.4791C50.3428 49.4876 50.2194 49.4961 50.1301 49.4918C49.909 49.4833 49.4283 49.4876 49.2625 49.4918C49.254 49.428 49.2284 49.3557 49.1774 49.2579C49.1476 49.2026 49.1008 49.1643 49.037 49.1473C48.7436 49.0665 48.1141 49.4493 47.9567 49.5471C47.744 49.4493 47.1273 49.5046 46.0087 49.6279C45.9151 49.6407 45.8173 49.6492 45.728 49.6577C44.6944 49.7725 43.529 49.6535 42.0999 49.4408C41.3343 49.3259 40.7729 49.3515 40.1264 49.377C39.6373 49.3983 39.1311 49.4153 38.4591 49.3812C37.4808 49.3302 36.9151 49.4365 36.46 49.5173C36.1793 49.5684 35.9624 49.6067 35.7157 49.6024C35.3755 49.5897 34.9416 49.6449 34.444 49.7045C33.9761 49.7598 33.4487 49.8278 32.8916 49.8491C32.5726 49.8619 32.3003 49.8959 32.0877 49.9214C31.522 49.9895 31.2881 50.015 31.1519 49.6577C30.9776 49.1984 30.5182 48.9559 30.0376 48.6965C29.9142 48.6327 29.7909 48.5646 29.6718 48.4966C29.1912 48.2116 28.7063 47.7139 28.5745 47.5778C28.6212 47.5098 28.6765 47.446 28.7318 47.3822C28.9828 47.4715 29.8674 47.5055 31.2753 47.5311ZM47.5186 50.8061C47.323 50.9337 47.1613 51.023 47.0295 51.0953C46.7318 51.2569 46.5531 51.3548 46.4808 51.6568C46.4638 51.7248 46.451 51.7886 46.4383 51.8482C46.3702 52.1501 46.3107 52.4096 46.0895 52.8136C45.8215 53.2985 45.09 54.23 44.4052 54.7191C44.2095 54.8595 43.9416 55.0339 43.6439 55.2125C43.461 53.2645 45.2516 51.8184 46.0385 51.2825C47.0295 50.6062 47.6164 50.1681 47.8929 49.8874C47.9397 49.8406 47.978 49.7981 48.0077 49.7598C48.046 49.7087 48.0503 49.6705 48.0418 49.6407C48.2757 49.4918 48.7946 49.2069 49.0073 49.2664C49.037 49.2749 49.0583 49.2919 49.0711 49.3132C49.1987 49.5641 49.1986 49.5641 48.8456 49.8108L48.7691 49.8661C48.5989 49.9895 48.4671 50.0958 48.3267 50.2106C48.1141 50.3808 47.8971 50.5594 47.5186 50.8061ZM46.6042 50.3893C46.9317 50.3 47.2166 50.2106 47.4378 50.1256C47.2166 50.3042 46.9487 50.4999 46.6765 50.6955C46.5744 50.5679 46.5914 50.4403 46.6042 50.3893ZM37.3958 52.2225C37.3575 52.1587 37.2512 51.98 37.1023 51.6653C36.9024 51.2442 36.7493 51.006 36.0943 50.4531C35.6519 50.0788 35.5499 49.8278 35.5243 49.7258C35.5881 49.7258 35.6562 49.7215 35.7157 49.7215C35.9709 49.73 36.2091 49.6875 36.4856 49.6364C36.9364 49.5556 37.4936 49.4536 38.4548 49.5046C39.1311 49.5386 39.6628 49.5174 40.1306 49.5003C40.7729 49.4748 41.3258 49.4536 42.0829 49.5641C43.5205 49.7768 44.6902 49.9001 45.7407 49.781C45.8343 49.7725 45.9279 49.7598 46.0257 49.7513C46.03 49.7513 46.0385 49.7513 46.0427 49.7513C46.0044 49.8279 45.9661 49.9384 45.9747 50.0618C45.9832 50.1809 46.0342 50.2915 46.1278 50.3893C45.0687 50.6487 43.5248 50.955 41.513 51.2995L41.3088 51.3335C39.918 51.5759 38.8376 51.7971 38.0083 52.0098C37.7828 52.0693 37.5829 52.1416 37.3958 52.2225ZM46.2596 50.3553C46.1193 50.2277 46.064 50.0873 46.098 49.9299C46.1193 49.8406 46.1576 49.7725 46.1831 49.7343C46.8679 49.6577 47.8419 49.5599 47.9184 49.6662C47.9184 49.6662 47.9184 49.6747 47.9057 49.6875C47.8801 49.7215 47.8419 49.7641 47.7993 49.8023C47.6335 49.9555 47.1146 50.1426 46.2596 50.3553ZM44.469 54.817C45.2006 54.2938 45.9279 53.3496 46.1873 52.8732C46.417 52.4521 46.4766 52.1842 46.5489 51.8779C46.5616 51.8184 46.5786 51.7546 46.5914 51.6865C46.6509 51.4398 46.7871 51.3633 47.0848 51.2017C47.1358 51.1719 47.1911 51.1421 47.2506 51.1081C47.2549 51.2314 47.1826 51.3888 47.1018 51.5547C47.0167 51.7376 46.9274 51.929 46.9189 52.1076C46.9104 52.3543 46.9827 52.7031 47.0465 52.9965C47.0507 53.0135 47.055 53.0348 47.0593 53.0561C47.089 53.1922 47.1188 53.3198 47.1316 53.4176C47.1698 53.6473 47.2677 53.7664 47.3272 53.8217C46.7956 54.634 46.2256 55.1827 45.6472 55.5443C44.7072 56.1312 43.7417 56.2418 42.857 56.2418C42.5423 56.2418 42.2275 56.2248 41.9085 56.1993C42.7251 55.9483 43.9969 55.153 44.469 54.817ZM47.4336 53.7366C47.4293 53.7409 47.4208 53.7409 47.4165 53.7451C47.374 53.7111 47.2804 53.6175 47.2506 53.4006C47.2336 53.3028 47.2081 53.1709 47.1741 53.0306C47.1571 52.9625 47.1443 52.8859 47.1273 52.8136C47.0763 52.567 47.0295 52.3033 47.038 52.1161C47.0422 51.9588 47.1273 51.7801 47.2081 51.61C47.3059 51.4058 47.3953 51.2102 47.3612 51.0443C47.4293 51.0018 47.5016 50.9592 47.5824 50.9082C47.761 50.7933 47.9014 50.6913 48.0205 50.602C48.1651 50.4956 48.2842 50.3978 48.399 50.3042C48.4713 50.2447 48.5437 50.1851 48.616 50.1298C48.684 50.0788 48.7563 50.0235 48.8329 49.9682L48.9094 49.9129C49.0923 49.7853 49.1987 49.7087 49.2412 49.6194C49.3858 49.6194 49.892 49.6109 50.1174 49.6194C50.211 49.6237 50.3385 49.6152 50.4746 49.6024C50.7341 49.5854 51.0276 49.5641 51.2232 49.6152C51.3636 49.6535 51.5422 49.6492 51.7039 49.645C51.7677 49.645 51.8357 49.6407 51.8995 49.645C51.9293 49.7215 51.9548 49.7981 51.9888 49.8746C51.8059 49.9172 51.5677 50.0192 51.2657 50.1809C51.2487 50.1894 51.2275 50.2021 51.2105 50.2106C51.0403 50.3042 50.8447 50.4276 50.6363 50.5594C50.4917 50.6487 50.3428 50.7423 50.2024 50.8274C50.0238 50.9337 49.909 51.1293 49.8367 51.3207C49.7516 51.5334 49.7218 51.7333 49.7133 51.7758C49.254 52.92 47.7143 53.6175 47.4336 53.7366ZM75.8243 53.524C75.5265 53.626 75.2671 53.7153 75.0417 53.8004C74.9694 53.8259 74.9013 53.8557 74.829 53.8855C74.7184 53.6686 74.2335 52.8009 73.1787 52.2777C73.2255 52.2054 73.3276 52.0268 73.4764 51.7163C73.6678 51.3123 73.8167 51.0826 74.4547 50.5467C74.9438 50.1341 75.0459 49.8576 75.0672 49.7343C75.3436 49.7513 75.6584 49.7895 76.0114 49.8321C76.4793 49.8874 77.0109 49.9554 77.5724 49.981C77.8871 49.998 78.1551 50.0277 78.3677 50.0533C78.9419 50.1213 79.2609 50.1596 79.4311 49.713C79.5927 49.2919 80.0265 49.0623 80.4901 48.8156C80.6135 48.7518 80.7368 48.6837 80.8602 48.6114C81.3408 48.3307 81.8087 47.8543 81.966 47.6927C82.2127 48.067 82.3488 48.4625 82.3531 48.8581C82.3658 49.5982 81.9405 50.334 81.1324 50.989C79.5927 52.2182 77.3257 53.0051 75.8243 53.524ZM73.57 54.5788C72.528 55.204 71.3498 55.9143 69.725 56.0887H69.7038C69.4741 56.1142 69.2444 56.1355 69.0232 56.161C68.6192 56.195 67.709 55.7399 66.9476 55.2806C67.1773 53.239 65.3186 51.7376 64.5062 51.1804C64.3148 51.0485 64.1022 50.9039 63.8938 50.7551C63.9916 50.6317 64.0044 50.4999 63.9959 50.4148C65.5653 50.8316 67.9557 51.2399 68.9424 51.4101L69.1466 51.4441C70.5332 51.6823 71.6093 51.9035 72.4386 52.1161C73.9401 52.5032 74.5993 53.6686 74.7269 53.9238C74.3526 54.1067 73.9698 54.3363 73.57 54.5788ZM58.6069 51.7758C58.5899 51.7631 58.5772 51.7546 58.5602 51.7418L58.5474 51.7333L58.5346 51.7291C58.5304 51.7291 58.356 51.6993 58.1859 51.6312C58.088 51.593 57.9902 51.5419 57.9349 51.4739C57.8839 51.308 57.7818 50.8742 57.8754 50.7083C57.8924 50.6785 57.9179 50.6317 57.9477 50.5764C58.0242 50.436 58.1391 50.2191 58.2582 49.9682C58.3007 49.9597 58.356 49.9597 58.4411 49.981C58.5772 50.0107 58.7856 50.0873 59.1003 50.2532C59.1216 50.2659 59.1386 50.2744 59.1599 50.283C59.3385 50.3765 59.5554 50.5126 59.7851 50.6615C59.9297 50.7508 60.0786 50.8444 60.2232 50.9294C60.3678 51.0188 60.4656 51.1846 60.5337 51.3505C60.606 51.5291 60.64 51.7078 60.6528 51.7716C60.572 51.8524 60.2232 52.1672 59.6873 52.1672C59.33 52.1672 58.9685 52.0353 58.6069 51.7758ZM61.7331 47.5396C61.8692 47.6374 61.9415 47.7437 61.9458 47.8628C61.9585 48.0712 61.7714 48.2626 61.7203 48.3094C61.0526 48.3945 59.3938 48.6667 58.8111 48.7645C58.7643 48.773 58.7218 48.7773 58.6877 48.7858C58.7133 48.671 58.7303 48.5646 58.7345 48.4668C58.7388 48.3562 58.7728 48.2754 58.8877 48.2031C59.0791 48.0755 59.4916 47.9692 60.3593 47.782C60.6953 47.7055 61.1674 47.6246 61.7331 47.5396ZM68.5724 46.7017C68.0407 47.731 66.6372 47.8883 65.2719 48.0372C64.9061 48.0755 64.5275 48.118 64.1788 48.1776C63.1282 48.352 62.7454 48.3222 62.4434 48.2967C62.2775 48.2839 62.1244 48.2711 61.9032 48.2924C61.984 48.1903 62.0776 48.0372 62.0691 47.8586C62.0606 47.7352 62.0053 47.6204 61.8947 47.5183C63.6726 47.2546 66.3011 46.9569 68.5724 46.7017ZM69.5252 46.5953C69.9845 46.5443 70.4183 46.4975 70.8139 46.4507C70.4353 47.1738 67.5473 48.0074 66.9221 48.135C66.7094 48.1776 66.3096 48.2584 65.8418 48.3519C65.2633 48.4668 64.5403 48.6114 63.9235 48.739C63.243 48.8794 62.8134 48.756 62.4349 48.6497C62.2052 48.5859 61.9926 48.5221 61.7544 48.5306C61.244 48.5476 59.4236 48.8198 58.7856 48.9134C58.7346 48.9219 58.692 48.9261 58.658 48.9304C58.6622 48.9219 58.6622 48.9134 58.6665 48.9049C58.692 48.9006 58.7388 48.8921 58.7898 48.8836C59.3598 48.79 61.2695 48.4753 61.8565 48.4072C62.1031 48.3775 62.2563 48.3945 62.4349 48.4072C62.7454 48.4328 63.1367 48.4668 64.2 48.2882C64.5445 48.2286 64.9231 48.1903 65.2889 48.1478C66.7137 47.9904 68.1896 47.8288 68.717 46.6761C68.9935 46.6549 69.2614 46.6251 69.5252 46.5953ZM72.209 46.2891C73.1745 46.17 74.795 46.0382 76.4495 46.0382C77.3427 46.0382 78.3805 46.0764 79.2822 46.2126C79.0312 46.6081 77.7935 46.6294 76.3729 46.6549C75.6499 46.6676 74.829 46.6804 74.0124 46.7442C72.3025 46.8761 71.6858 47.1483 71.0861 47.4162C70.7841 47.5523 70.4949 47.6799 70.0738 47.7778C68.9127 48.0542 67.39 48.4455 66.097 48.7985C65.3399 49.0027 64.3914 48.9474 63.8087 48.8793C63.8513 48.8708 63.8938 48.8666 63.9406 48.8581C64.5573 48.7305 65.2803 48.5859 65.8588 48.4711C66.3267 48.3775 66.7265 48.2967 66.9391 48.2541C66.9774 48.2456 70.6182 47.3524 70.9415 46.438C71.4604 46.3784 71.8985 46.3274 72.209 46.2891ZM81.1324 46.8165C81.3323 46.9654 81.5067 47.127 81.6598 47.2929C81.3195 47.3779 79.8521 47.4035 79.1929 47.4162L78.9419 47.4205C78.1678 47.4332 74.8205 47.8288 73.2127 48.0202L72.881 48.0585C72.1622 48.1435 71.4093 48.3307 70.6778 48.5136C70.0355 48.6752 69.4273 48.8241 68.9084 48.8879C68.1301 48.9814 66.8328 48.9432 66.1438 48.9134C67.4325 48.5646 68.951 48.1733 70.1078 47.8968C70.5374 47.7948 70.8309 47.6629 71.1414 47.5268C71.7284 47.2631 72.3408 46.9951 74.0294 46.8633C74.8417 46.7995 75.6626 46.7868 76.3857 46.774C78.0019 46.7442 79.1801 46.7229 79.4183 46.2296C80.1328 46.3486 80.7623 46.5315 81.1324 46.8165ZM81.898 47.5821C81.7661 47.7182 81.2855 48.2159 80.8006 48.5008C80.6815 48.5689 80.5582 48.6369 80.4348 48.7007C79.95 48.9602 79.4949 49.2026 79.3205 49.662C79.1844 50.0192 78.9504 49.9937 78.3847 49.9257C78.1678 49.9001 77.8999 49.8661 77.5809 49.8534C77.0237 49.8278 76.4963 49.764 76.0284 49.7087C75.5265 49.6492 75.097 49.5939 74.7567 49.6067C74.51 49.6152 74.2931 49.5726 74.0124 49.5216C73.5573 49.4408 72.9916 49.3387 72.0133 49.3855C71.3413 49.4195 70.8352 49.3982 70.346 49.3812C69.6995 49.3557 69.1381 49.3345 68.3725 49.445C66.9434 49.6577 65.7822 49.7768 64.7444 49.662C64.6509 49.6535 64.5573 49.6407 64.4637 49.6322C63.3451 49.5088 62.7284 49.4536 62.5157 49.5514C62.3583 49.4536 61.7289 49.0708 61.4354 49.1516C61.3716 49.1686 61.3248 49.2069 61.2993 49.2622C61.2482 49.36 61.2227 49.4365 61.2142 49.4961C61.0483 49.4918 60.5677 49.4876 60.3465 49.4961C60.2572 49.5003 60.1339 49.4918 60.002 49.4833C59.7341 49.4663 59.4278 49.4408 59.2152 49.5003C59.0918 49.5344 58.9302 49.5301 58.7728 49.5259C58.7175 49.5259 58.6707 49.5216 58.6197 49.5216C58.5559 49.5216 58.4963 49.5259 58.4453 49.5344C58.5091 49.377 58.5687 49.2196 58.6197 49.0665C58.6495 49.0622 58.6963 49.0537 58.7558 49.0452C59.3428 48.9559 61.244 48.671 61.7544 48.6539C61.9713 48.6454 62.1712 48.705 62.4009 48.7688C62.6518 48.8411 62.924 48.9176 63.2728 48.9262C63.3111 48.9347 64.0214 49.0622 64.838 49.0622C65.1145 49.0622 65.3994 49.0452 65.6759 49.007C65.6887 49.007 66.6329 49.0665 67.5899 49.0665C68.0705 49.0665 68.5596 49.0538 68.9297 49.007C69.4571 48.9432 70.0696 48.79 70.7161 48.6284C71.4434 48.4455 72.1919 48.2584 72.9022 48.1776L73.234 48.1393C74.8375 47.9479 78.1806 47.5566 78.9504 47.5396L79.2014 47.5353C80.6092 47.5098 81.4939 47.4758 81.7448 47.3907C81.7959 47.4502 81.8469 47.5183 81.898 47.5821ZM72.4642 52.0098C71.6348 51.7971 70.5544 51.5759 69.1636 51.3335L68.9595 51.2995C66.9476 50.955 65.4079 50.653 64.3446 50.3893C64.4339 50.2915 64.485 50.1809 64.4978 50.0618C64.5063 49.9384 64.4722 49.8279 64.4339 49.7513C64.4382 49.7513 64.4467 49.7513 64.451 49.7513C64.5488 49.7641 64.6424 49.7725 64.7317 49.781C65.778 49.8959 66.9519 49.7768 68.3895 49.5641C69.1423 49.4536 69.6995 49.4748 70.3418 49.5003C70.8096 49.5174 71.3413 49.5386 72.0176 49.5046C72.9788 49.4536 73.5403 49.5556 73.9868 49.6364C74.2591 49.6875 74.4972 49.73 74.7567 49.7215C74.8162 49.7215 74.88 49.7215 74.9481 49.7258C74.9226 49.8278 74.8247 50.0788 74.3781 50.4531C73.7274 51.0017 73.57 51.2442 73.3701 51.6653C73.217 51.9843 73.1149 52.1629 73.0766 52.2267C72.8895 52.1416 72.6853 52.0693 72.4642 52.0098ZM63.7917 50.6913C63.5152 50.4956 63.2473 50.3 63.0261 50.1213C63.2515 50.2064 63.5365 50.2957 63.864 50.385C63.8768 50.4403 63.8938 50.5679 63.7917 50.6913ZM66.8286 55.2168C66.5351 55.0381 66.2671 54.8637 66.0715 54.7191C65.3867 54.23 64.6551 53.2985 64.3872 52.8136C64.1617 52.4096 64.1064 52.1501 64.0384 51.8482C64.0256 51.7886 64.0086 51.7248 63.9959 51.6568C63.9236 51.3548 63.7449 51.2612 63.4472 51.0953C63.3153 51.023 63.1495 50.9337 62.9581 50.8061C62.5795 50.5552 62.3626 50.3808 62.1542 50.2106C62.0138 50.0958 61.882 49.9895 61.7118 49.8661L61.6353 49.8108C61.2865 49.5641 61.2865 49.5641 61.4099 49.3132C61.4226 49.2877 61.4439 49.2749 61.4736 49.2664C61.6863 49.2069 62.2052 49.4918 62.4392 49.6407C62.4306 49.6705 62.4349 49.713 62.4732 49.7598C62.503 49.7981 62.5412 49.8406 62.588 49.8874C62.8645 50.1638 63.4472 50.6062 64.4425 51.2825C65.2251 51.8184 67.0157 53.2688 66.8286 55.2168ZM62.6646 49.8066C62.6221 49.764 62.588 49.7258 62.5583 49.6917C62.5498 49.679 62.5455 49.6747 62.5455 49.6747C62.6306 49.5641 63.6003 49.6662 64.2808 49.7385C64.3191 49.7896 64.3872 49.9172 64.3744 50.0575C64.3659 50.1681 64.3064 50.2702 64.2085 50.3595C63.3536 50.1426 62.839 49.9554 62.6646 49.8066ZM60.7634 51.7716C60.7591 51.7291 60.7251 51.5292 60.64 51.3165C60.5635 51.1294 60.4486 50.9294 60.2742 50.8231C60.1296 50.738 59.9808 50.6445 59.8404 50.5551C59.6277 50.4233 59.4321 50.2999 59.262 50.2064C59.2449 50.1936 59.2237 50.1851 59.2067 50.1766C58.9047 50.015 58.6665 49.9129 58.4836 49.8704C58.4155 49.8534 58.3603 49.8491 58.305 49.8491C58.3262 49.7981 58.3517 49.747 58.373 49.696C58.39 49.6577 58.4708 49.6492 58.5687 49.645C58.6325 49.645 58.7005 49.645 58.7643 49.645C58.9217 49.6492 59.1003 49.6535 59.2407 49.6152C59.4363 49.5599 59.7298 49.5811 59.9893 49.6024C60.1254 49.6109 60.2487 49.6237 60.3465 49.6194C60.572 49.6109 61.0781 49.6152 61.2227 49.6194C61.2653 49.7087 61.3716 49.7853 61.5545 49.9129L61.631 49.9682C61.7118 50.0235 61.7841 50.0788 61.8522 50.1298C61.9288 50.1894 61.9968 50.2447 62.0691 50.3042C62.184 50.3978 62.3031 50.4914 62.4477 50.602C62.571 50.6913 62.7114 50.7933 62.8857 50.9082C62.9666 50.9592 63.0389 51.006 63.1069 51.0443C63.0729 51.2059 63.1622 51.4016 63.26 51.61C63.3408 51.7844 63.4259 51.963 63.4302 52.1161C63.4387 52.3075 63.3919 52.567 63.3408 52.8136C63.3238 52.8859 63.3068 52.9625 63.2941 53.0306C63.2643 53.1709 63.2345 53.2985 63.2175 53.4006C63.1835 53.6175 63.0899 53.7111 63.0516 53.7451C63.0474 53.7451 63.0431 53.7409 63.0346 53.7366C62.7539 53.6175 61.2142 52.92 60.7634 51.7716ZM63.141 53.8217C63.2048 53.7664 63.3026 53.6473 63.3366 53.4176C63.3494 53.3198 63.3791 53.1922 63.4089 53.0561C63.4132 53.0348 63.4174 53.0178 63.4217 52.9965C63.4855 52.7031 63.5578 52.3543 63.5493 52.1076C63.5408 51.929 63.4514 51.7376 63.3664 51.5547C63.2856 51.3888 63.2133 51.2272 63.2175 51.1081C63.2771 51.1421 63.3366 51.1719 63.3834 51.2017C63.6811 51.3633 63.813 51.4356 63.8768 51.6865C63.8938 51.7503 63.9065 51.8141 63.9193 51.8779C63.9873 52.1842 64.0469 52.4521 64.2808 52.8732C64.5403 53.3496 65.2676 54.2981 65.9992 54.817C66.4713 55.153 67.7388 55.9483 68.5554 56.2035C68.2364 56.229 67.9174 56.2461 67.6069 56.2461C66.7222 56.2461 65.7567 56.1355 64.8168 55.5485C64.2383 55.1827 63.6684 54.6383 63.141 53.8217Z" fill="black"/>
</svg>
