<svg width="113" height="102" viewBox="0 0 113 102" fill="none" xmlns="http://www.w3.org/2000/svg">
<path d="M86.9294 78.0544C85.7731 87.1225 74.6429 76.3343 43.6058 85.062C31.7063 88.4069 18.9737 87.9259 6.81013 80.242C-2.81783 74.1604 -2.8497 67.5976 10.6477 59.646C30.8414 47.7504 58.4779 64.1301 70.0543 68.7231C81.6306 73.3162 87.2936 75.2042 86.9294 78.0544Z" fill="#0C0C0C"/>
<path d="M90.7806 71.2239C97.9503 65.5052 82.887 61.7065 74.1604 30.8214C70.8145 18.9803 63.7494 8.43717 50.8074 2.13308C40.5604 -2.85482 34.9156 0.549117 35.1478 16.1482C35.4937 39.4856 63.977 54.3721 73.9646 61.7882C83.9522 69.2042 88.5226 73.0211 90.7806 71.2239Z" fill="#0C0C0C"/>
<path d="M27.5865 52.8291C26.9537 52.5613 26.3437 52.2436 25.7611 51.876C19.1148 47.6732 3.34588 33.8669 5.99983 29.1377C8.69019 24.3449 29.3118 30.6127 36.1492 33.9849C36.6409 34.2254 37.1052 34.5068 37.5604 34.8154L67.7918 55.289C69.3213 56.3238 69.8904 58.1619 69.1119 59.5461L65.5066 65.9728C64.7372 67.3389 62.8981 67.8336 61.2184 67.121L27.5865 52.8291Z" fill="#0C0C0C"/>
<path d="M52.8741 64.5749C52.7103 64.5749 52.5373 64.534 52.3825 64.4478C51.9 64.1755 51.727 63.5673 51.9956 63.0817L59.4703 49.7564C59.7435 49.2753 60.3535 49.1029 60.8405 49.3706C61.3231 49.643 61.4961 50.2511 61.2275 50.7368L53.7527 64.062C53.5706 64.3888 53.2247 64.5749 52.8741 64.5749Z" fill="#F3F2F2"/>
<path d="M44.7439 61.121C44.58 61.121 44.407 61.0801 44.2522 60.9939C43.7651 60.7216 43.5967 60.1134 43.8653 59.6278L52.1139 44.9273C52.3871 44.4462 52.997 44.2738 53.4841 44.5415C53.9712 44.8139 54.1397 45.422 53.8711 45.9077L45.6224 60.6081C45.4403 60.9349 45.0989 61.121 44.7439 61.121Z" fill="#F3F2F2"/>
<path d="M36.6636 57.5855C36.4998 57.5855 36.3268 57.5446 36.172 57.4584C35.6849 57.1861 35.5165 56.5779 35.7851 56.0923L44.885 39.8759C45.1581 39.3948 45.7681 39.2224 46.2552 39.4901C46.7423 39.7625 46.9107 40.3706 46.6421 40.8563L37.5422 57.0726C37.3556 57.3994 37.0142 57.5855 36.6636 57.5855Z" fill="#F3F2F2"/>
<path d="M28.0372 53.8865C27.8733 53.8865 27.7003 53.8457 27.5455 53.7594C27.063 53.4871 26.89 52.8789 27.1586 52.3933L37.0597 34.7473C37.3328 34.2662 37.9428 34.0892 38.4299 34.3615C38.9124 34.6339 39.0854 35.242 38.8168 35.7277L28.9158 53.3737C28.7337 53.705 28.3922 53.8865 28.0372 53.8865Z" fill="#F3F2F2"/>
<path d="M20.048 48.3358C19.8841 48.3358 19.7111 48.295 19.5564 48.2088C19.0693 47.9365 18.9008 47.3283 19.1694 46.8427L28.1146 30.8986C28.3877 30.4175 28.9977 30.2451 29.4848 30.5129C29.9673 30.7852 30.1403 31.3933 29.8717 31.879L20.9266 47.823C20.7445 48.1498 20.4031 48.3358 20.048 48.3358Z" fill="#F3F2F2"/>
<path d="M98.0778 83.7095C98.6969 84.5537 99.1476 85.4387 99.4935 86.4009C99.6711 86.8774 99.794 87.3721 99.9305 87.8669C100.003 88.3752 100.122 88.879 100.154 89.3963C100.313 91.4659 99.8304 93.6399 98.7333 95.4508L97.8229 96.7307C97.5224 97.1573 97.1036 97.475 96.7531 97.8517C96.0566 98.6324 95.1507 99.1134 94.3404 99.7171C93.4709 100.216 92.565 100.647 91.6682 101.06C90.7305 101.374 89.8064 101.705 88.8686 101.977C88.6091 102.054 88.3406 101.905 88.2677 101.651C88.204 101.428 88.2996 101.201 88.4908 101.092L88.5363 101.065C89.3648 100.593 90.2024 100.185 91.0309 99.7488C91.8094 99.2451 92.5923 98.7549 93.3435 98.242C94.7683 97.121 96.0702 95.8911 96.9534 94.4024C97.7864 92.9001 98.2371 91.2254 98.228 89.478C98.2553 87.7398 97.8229 85.9198 97.1992 84.236L97.181 84.1861C97.0808 83.9183 97.222 83.6233 97.486 83.5234C97.7045 83.4508 97.9458 83.528 98.0778 83.7095Z" fill="#0C0C0C"/>
<path d="M101.251 77.0106C103.012 76.6475 104.792 76.0575 106.267 75.1271C107.769 74.2194 108.971 72.9667 109.823 71.4736C110.628 69.9441 111.015 68.2012 111.22 66.404C111.27 65.5008 111.27 64.5795 111.293 63.6536C111.229 62.7277 111.138 61.7973 111.106 60.8487V60.7988C111.097 60.531 111.307 60.3087 111.575 60.2996C111.803 60.2905 112.003 60.4448 112.062 60.6536C112.322 61.5931 112.522 62.5507 112.75 63.5129C112.863 64.4887 112.982 65.4826 113 66.4857C112.913 67.4887 112.968 68.5144 112.668 69.5129C112.531 70.0076 112.486 70.5295 112.267 71.0106L111.648 72.4539C110.665 74.3283 109.058 75.8714 107.21 76.8155C106.75 77.056 106.258 77.2239 105.785 77.4282C105.293 77.5734 104.806 77.7323 104.305 77.8276C103.304 78.0409 102.311 78.1271 101.264 78.05C100.978 78.0273 100.768 77.7822 100.786 77.4962C100.805 77.2602 100.978 77.0742 101.196 77.0288L101.251 77.0106Z" fill="#0C0C0C"/>
<path d="M62.7843 68.4418C62.1379 68.4418 61.4733 68.3101 60.8269 68.0378L27.195 53.7504C26.5031 53.4554 25.8384 53.1104 25.2239 52.7201C20.8447 49.9516 1.64335 34.8517 5.1258 28.6475C8.48535 22.6611 31.1463 30.3949 36.5999 33.0862C37.0961 33.3313 37.5969 33.6263 38.1295 33.9849L68.3608 54.4584C70.3274 55.7927 71.033 58.1891 69.9951 60.0318L66.3897 66.4584C65.675 67.7292 64.2866 68.4418 62.7843 68.4418ZM10.9527 28.3797C8.86318 28.3797 7.37461 28.7474 6.88296 29.6278C4.85267 33.2451 18.6641 46.1982 26.3028 51.0318C26.8263 51.3631 27.3908 51.6581 27.9826 51.9077L61.6144 66.1952C62.8208 66.708 64.1181 66.3994 64.6325 65.4826L68.2379 59.056C68.7614 58.1256 68.329 56.8638 67.2273 56.1195L37.0005 35.6415C36.5453 35.3374 36.1265 35.0877 35.7122 34.8835C29.8171 31.9788 17.476 28.3797 10.9527 28.3797Z" fill="#F3F2F2"/>
<path d="M68.0695 66.4902L70.6779 61.8381C71.6066 60.1815 73.9328 59.705 75.8675 60.7761L90.8306 69.0499C92.87 70.18 93.7304 72.5083 92.7517 74.2511L90.3754 78.4856C89.4194 80.1876 87.0341 80.6732 85.0493 79.5749L69.7857 71.1331C67.9602 70.1301 67.1909 68.0469 68.0695 66.4902Z" fill="#0C0C0C"/>
<path d="M87.2617 81.1634C86.3604 81.1634 85.4271 80.9365 84.5577 80.4554L69.294 72.0136C68.1014 71.351 67.2137 70.2708 66.8632 69.0454C66.5627 67.9925 66.6765 66.9123 67.1909 66.0046L69.7993 61.3525C70.9966 59.2194 73.9373 58.5658 76.3545 59.9047L91.3177 68.1785C92.6242 68.9002 93.5984 70.0848 93.9808 71.4282C94.3085 72.5764 94.1811 73.7565 93.6257 74.7459L91.2494 78.9804C90.4574 80.3873 88.9187 81.1634 87.2617 81.1634ZM73.6915 61.2028C72.7856 61.2028 71.9662 61.5976 71.5565 62.3238L68.9481 66.9758C68.6294 67.5386 68.6931 68.1105 68.8024 68.4917C69.0073 69.2088 69.5444 69.8533 70.2773 70.2572L85.5364 78.699C87.0432 79.5295 88.8186 79.2118 89.5014 77.9955L91.8777 73.761C92.2555 73.0938 92.1781 72.4176 92.0506 71.9728C91.8139 71.1377 91.1903 70.3934 90.3481 69.9259L75.3849 61.6521C74.8296 61.348 74.2423 61.2028 73.6915 61.2028ZM68.0695 66.4902H68.0786H68.0695Z" fill="#F3F2F2"/>
<path d="M91.0992 81.8443L96.052 73.0213C96.1749 72.7989 96.4845 72.7399 96.744 72.8806L97.4223 73.2527C100.459 74.932 101.733 78.3949 100.277 80.991L100.154 81.2134C98.6969 83.8095 95.0551 84.5538 92.0233 82.8745L91.345 82.5024C91.081 82.3571 90.9763 82.0621 91.0992 81.8443Z" fill="#0C0C0C"/>
<path d="M95.4056 84.7716C94.1174 84.7716 92.7744 84.4403 91.5271 83.7504L90.8534 83.3783C90.4892 83.1786 90.2115 82.8382 90.0977 82.4433C89.993 82.0711 90.034 81.6854 90.2206 81.354L95.1735 72.531C95.565 71.8321 96.4891 71.5961 97.2265 72.0046L97.9048 72.3767C99.7394 73.3934 101.096 75.05 101.633 76.9199C102.084 78.5038 101.915 80.1241 101.151 81.4811L101.023 81.7035C99.9123 83.6823 97.7455 84.7716 95.4056 84.7716ZM92.2418 81.8533L92.5013 81.9985C95.046 83.41 98.0823 82.8336 99.2659 80.7232L99.3934 80.5008C99.8941 79.6112 99.9988 78.5356 99.6938 77.469C99.3023 76.1029 98.2963 74.8866 96.9215 74.1286L96.6575 73.9834L92.2418 81.8533ZM91.0992 81.8442H91.1083H91.0992Z" fill="#F3F2F2"/>
</svg>
