<svg width="102" height="153" viewBox="0 0 102 153" fill="none" xmlns="http://www.w3.org/2000/svg">
<path d="M69.9068 125.674C60.1197 129.556 46.2128 117.793 42.3106 108.051L28.0555 72.4488C24.9947 64.8046 28.7422 56.1331 36.4258 53.0899L44.0417 50.0708C51.7253 47.0227 60.4389 50.7556 63.4997 58.3998L77.7548 94.0021C81.6619 103.739 79.6938 121.791 69.9068 125.674Z" fill="#0C0C0C"/>
<path d="M69.9068 126.735C69.4813 126.735 69.0799 126.479 68.9155 126.064L42.2477 59.4705C42.0302 58.9255 42.2961 58.3034 42.8425 58.0864C43.3889 57.8693 44.0127 58.1346 44.2303 58.6796L70.8981 125.278C71.1157 125.823 70.8497 126.445 70.3033 126.662C70.1728 126.715 70.0374 126.735 69.9068 126.735Z" fill="#F3F2F2"/>
<path d="M38.2971 37.3239C39.7478 34.5219 41.0002 31.551 42.1075 28.5608C43.2003 25.561 44.1288 22.4985 44.8541 19.3878C45.5407 16.2722 45.9953 13.1084 46.1693 9.93017C46.2612 6.74709 46.0146 3.56401 45.3135 0.462923L45.3086 0.448454C45.2651 0.250717 45.3908 0.0529805 45.5891 0.00957491C45.7873 -0.0338307 45.9808 0.0867404 46.0291 0.279654C46.8125 3.44826 47.1219 6.70851 47.0929 9.95911C46.9817 13.2097 46.5707 16.4362 45.9372 19.6193C45.2651 22.7927 44.3802 25.9179 43.3309 28.9852C42.2623 32.0526 41.0679 35.0524 39.6124 37.9991C39.4335 38.3657 38.9886 38.5152 38.6211 38.3367C38.2536 38.1583 38.1037 37.7146 38.2826 37.3529C38.2826 37.3481 38.2875 37.3481 38.2875 37.3432L38.2971 37.3239Z" fill="#0C0C0C"/>
<path d="M31.3147 41.2932C28.22 40.1502 25.28 38.7901 22.3835 37.2902C19.4967 35.7855 16.697 34.1168 14.0133 32.2745C11.3489 30.3984 8.82479 28.3342 6.49408 26.0482C4.22139 23.7091 2.19532 21.1289 0.575426 18.293C0.473881 18.1194 0.536742 17.8927 0.715655 17.7915C0.889733 17.6902 1.11217 17.7529 1.21371 17.9217L1.22338 17.9361C2.85778 20.6707 4.88386 23.1496 7.14687 25.3971C9.47274 27.5867 11.9872 29.5688 14.6419 31.3629C17.3159 33.1281 20.106 34.7148 22.9735 36.1424C25.8409 37.5603 28.8051 38.8577 31.7934 39.8994L31.8176 39.909C32.2044 40.0441 32.4075 40.4637 32.2721 40.8447C32.1367 41.2305 31.716 41.4331 31.3292 41.298C31.3244 41.298 31.3195 41.2932 31.3147 41.2932Z" fill="#0C0C0C"/>
<path d="M99.7611 134.162C99.5048 134.109 99.2872 133.921 99.205 133.656C99.1857 133.588 97.0678 126.875 92.3241 125.283C91.9373 125.153 91.7294 124.738 91.8599 124.352C91.9905 123.966 92.4112 123.759 92.798 123.889C98.267 125.722 100.525 132.918 100.622 133.226C100.743 133.617 100.52 134.027 100.129 134.143C100.003 134.181 99.8772 134.186 99.7611 134.162Z" fill="#0C0C0C"/>
<path d="M91.7245 124.95C90.6462 121.835 90.1385 118.676 89.9064 115.531C89.684 112.391 89.7565 109.257 90.0708 106.165C90.3851 103.069 90.9412 100.006 91.7632 97.0211C92.5853 94.0357 93.6878 91.1227 95.1481 88.3978C95.2496 88.2049 95.4914 88.1326 95.6848 88.2387C95.8686 88.3351 95.9411 88.557 95.8589 88.7402C94.6597 91.5085 93.8328 94.4215 93.2816 97.3683C92.7303 100.32 92.4499 103.315 92.3967 106.3C92.3483 109.286 92.5321 112.271 92.9914 115.184C93.4508 118.087 94.1858 120.947 95.327 123.518L95.3367 123.537C95.7719 124.511 95.327 125.654 94.3454 126.084C93.3638 126.513 92.2178 126.074 91.7826 125.095C91.7632 125.051 91.7391 124.998 91.7245 124.95Z" fill="#0C0C0C"/>
<path d="M87.5032 101.429C80.5014 104.67 76.5121 103.151 75.2548 100.006L73.1611 94.7785C73.1611 94.7785 83.6589 96.4375 95.0079 88.2242C95.5107 87.8625 96.1877 88.3207 96.0185 88.9139C95.032 92.3526 92.5224 99.1046 87.5032 101.429Z" fill="#0C0C0C"/>
<path d="M79.8098 76.4564C77.5275 82.7261 74.1523 84.2405 71.4347 83.0878L66.9184 81.1684C66.9184 81.1684 74.3651 75.7571 76.2316 63.782C76.3138 63.2515 77.0149 63.1164 77.276 63.5842C78.8041 66.2899 81.4442 71.9615 79.8098 76.4564Z" fill="#0C0C0C"/>
<path d="M96.3134 75.0627C96.0571 75.0096 95.8346 74.8167 95.7573 74.5466C95.6412 74.156 95.8685 73.7509 96.2602 73.6351C96.4294 73.5869 100.395 72.3764 100.525 68.8075C100.54 68.4023 100.883 68.084 101.289 68.0985C101.7 68.113 102.014 68.4554 102 68.8605C101.831 73.5001 96.8839 74.9855 96.6712 75.0482C96.5503 75.082 96.4294 75.0868 96.3134 75.0627Z" fill="#0C0C0C"/>
<path d="M96.0233 76.2491C93.8135 76.3841 91.7487 75.9308 89.8387 75.2508C87.9238 74.5611 86.154 73.6062 84.5148 72.4921C81.2363 70.2591 78.4801 67.3799 76.3476 64.1293C76.1736 63.864 76.2461 63.5071 76.5169 63.3383C76.7683 63.1744 77.1068 63.2322 77.2857 63.4686L77.2906 63.4782C79.5729 66.4346 82.4017 68.957 85.5883 70.7896C87.1792 71.7012 88.8667 72.4439 90.593 72.9213C92.3145 73.3988 94.0939 73.6062 95.6993 73.3843L95.7331 73.3795C96.5262 73.2686 97.2563 73.8184 97.3675 74.6093C97.4788 75.3955 96.9227 76.1285 96.1297 76.2346C96.1007 76.2395 96.0571 76.2443 96.0233 76.2491Z" fill="#0C0C0C"/>
<path d="M64.5345 29.7231C64.462 29.7086 64.3943 29.6845 64.3266 29.6459C63.9688 29.4482 63.843 28.9997 64.0413 28.6428C66.0964 24.9919 63.2724 18.8186 63.2434 18.7608C63.0742 18.3942 63.2338 17.9554 63.6061 17.7817C63.9736 17.6129 64.4136 17.7721 64.5877 18.1386C64.7183 18.4183 67.7598 25.0546 65.3324 29.3614C65.1728 29.6508 64.844 29.7858 64.5345 29.7231Z" fill="#0C0C0C"/>
<path d="M66.4252 28.4788C68.5625 31.7198 70.2791 35.3128 71.1059 39.1229C71.957 42.9233 71.9086 46.8394 71.251 50.5819C71.2172 50.7749 71.0334 50.9051 70.8351 50.8713C70.6514 50.8376 70.5257 50.6688 70.5402 50.4903C70.8642 46.7767 70.5692 43.0342 69.4667 39.5569C68.3835 36.07 66.5122 32.8966 64.2492 30.0318C63.7898 29.453 63.8914 28.6139 64.4716 28.1605C65.0519 27.7072 65.8933 27.8036 66.3526 28.3824C66.3768 28.4113 66.3962 28.4403 66.4203 28.474L66.4252 28.4788Z" fill="#0C0C0C"/>
<path d="M68.9928 60.6182C65.0809 65.388 60.9901 64.7417 59.1478 62.7403L56.0917 59.4173C56.0917 59.4173 64.4281 57.6956 70.5837 48.3441C70.8545 47.9293 71.4154 48.0981 71.5363 48.5756C72.4551 52.1155 72.6823 56.1185 68.9928 60.6182Z" fill="#0C0C0C"/>
<path d="M53.9351 152.981C53.7223 152.937 53.5289 152.797 53.4274 152.59C53.2823 152.306 49.9507 145.534 52.6537 140.461C52.8471 140.104 53.292 139.964 53.6547 140.157C54.0173 140.35 54.1527 140.793 53.9593 141.15C51.6141 145.549 54.7185 151.871 54.7475 151.934C54.9312 152.296 54.7813 152.74 54.4138 152.923C54.2591 153 54.0898 153.014 53.9351 152.981Z" fill="#0C0C0C"/>
<path d="M50.5551 141.922C49.6073 139.274 48.1615 136.699 46.4884 134.273C44.8057 131.847 42.8812 129.556 40.7825 127.42C38.6791 125.288 36.4064 123.306 33.9645 121.541C31.5274 119.775 28.9162 118.227 26.131 117.036C25.9279 116.949 25.836 116.723 25.9231 116.52C26.0053 116.332 26.218 116.235 26.4114 116.298C29.3563 117.272 32.1705 118.637 34.8301 120.238C37.4896 121.844 40.0137 123.687 42.3783 125.717C44.7428 127.752 46.9623 129.971 48.9739 132.406C50.9758 134.847 52.7891 137.485 54.1624 140.485C54.6072 141.459 54.1769 142.602 53.2001 143.046C52.2233 143.489 51.0725 143.06 50.6276 142.086C50.6034 142.038 50.5841 141.989 50.5648 141.936L50.5551 141.922Z" fill="#0C0C0C"/>
<path d="M40.9663 120.533C48.2921 118.092 50.1344 114.268 48.8772 111.118L46.7834 105.89C46.7834 105.89 40.3087 114.277 26.3921 116.076C25.778 116.153 25.6039 116.954 26.1358 117.272C29.2257 119.091 35.7149 122.278 40.9663 120.533Z" fill="#0C0C0C"/>
<path d="M29.2934 97.137C35.2846 100.132 38.7807 98.9166 39.9557 96.2207L41.9092 91.7402C41.9092 91.7402 32.7605 92.9074 23.1282 85.4898C22.7026 85.1619 22.0982 85.5429 22.2336 86.0638C23.0024 89.0684 24.9995 94.9908 29.2934 97.137Z" fill="#0C0C0C"/>
<path d="M10.8992 108.398C9.8934 108.186 8.86344 107.713 7.93019 106.802C7.64006 106.517 7.63522 106.05 7.92052 105.76C8.20581 105.471 8.67486 105.466 8.96499 105.751C11.5423 108.268 15.3575 106.358 15.3962 106.339C15.7589 106.156 16.2037 106.296 16.3923 106.657C16.5809 107.019 16.4358 107.463 16.0732 107.651C15.9378 107.723 13.5007 108.938 10.8992 108.398Z" fill="#0C0C0C"/>
<path d="M15.6332 105.78C16.9533 104.844 18.0993 103.474 19.018 101.95C19.9416 100.421 20.6524 98.7285 21.1795 96.9778C22.2288 93.462 22.5383 89.7001 22.1514 85.9914V85.9817C22.1176 85.6682 22.3497 85.3837 22.664 85.3547C22.9638 85.3258 23.2346 85.5332 23.2878 85.8226C23.9841 89.6423 23.9744 93.6163 23.1379 97.4794C22.7172 99.4085 22.0886 101.314 21.1795 103.122C20.2656 104.926 19.076 106.662 17.3788 108.08C16.7647 108.591 15.8508 108.514 15.3382 107.902C14.8256 107.294 14.903 106.382 15.5171 105.871C15.5461 105.847 15.5751 105.823 15.6041 105.804L15.6332 105.78Z" fill="#0C0C0C"/>
<path d="M7.32089 53.0561C7.29672 53.0513 7.27737 53.0465 7.2532 53.0368C2.51441 51.5755 0.135343 44.674 0.0386331 44.3846C-0.0919253 43.9988 0.116001 43.584 0.502841 43.4538C0.889681 43.3236 1.31037 43.531 1.44093 43.9168C1.46511 43.9795 3.67976 50.3939 7.69323 51.6382C8.0849 51.7588 8.3025 52.1687 8.18161 52.5594C8.06556 52.9211 7.69323 53.1333 7.32089 53.0561Z" fill="#0C0C0C"/>
<path d="M8.50074 52.7861C8.83439 56.4129 9.67093 59.9962 11.2957 63.271C12.8962 66.5505 15.2704 69.4683 18.0702 71.9473C18.2201 72.0775 18.2298 72.3041 18.0992 72.4488C17.9735 72.5887 17.7656 72.608 17.6157 72.4971C14.5548 70.2303 11.8131 67.4186 9.80149 64.0764C7.77058 60.7438 6.53269 56.9627 5.84605 53.1478C5.71549 52.4244 6.19904 51.7251 6.9292 51.5948C7.65936 51.4646 8.35567 51.9469 8.4814 52.6703C8.49107 52.7089 8.4959 52.7475 8.50074 52.7861Z" fill="#0C0C0C"/>
<path d="M26.1987 78.2362C32.3349 79.0223 34.859 75.7573 34.8107 73.042L34.7333 68.5375C34.7333 68.5375 27.4946 72.989 16.5567 70.4136C16.0731 70.2978 15.783 70.8042 16.0248 71.2334C17.8091 74.4358 20.4154 77.4935 26.1987 78.2362Z" fill="#0C0C0C"/>
<path d="M53.0551 49.5451L29.5304 58.8725C28.9453 59.104 28.278 58.8194 28.041 58.2359L27.4269 56.7022C24.6707 49.8152 28.0459 42.0118 34.9655 39.2676L35.5554 39.0313C42.475 36.2871 50.323 39.6438 53.0793 46.5308L53.6934 48.0645C53.9255 48.648 53.6402 49.3088 53.0551 49.5451Z" fill="#0C0C0C"/>
<path d="M29.4095 60.7244C28.5198 60.7244 27.6736 60.1939 27.3254 59.3209L26.5517 57.387C25.0817 53.7168 25.1349 49.6993 26.7016 46.0677C28.2732 42.4313 31.1696 39.6196 34.8639 38.1534C42.4798 35.1343 51.1499 38.8479 54.1866 46.4246L54.9603 48.3586C55.4148 49.5016 54.8539 50.8038 53.7079 51.2571L30.2315 60.5604C29.9607 60.6761 29.6851 60.7244 29.4095 60.7244ZM40.3522 39.2338C38.7855 39.2338 37.1946 39.5231 35.6521 40.1356C32.4897 41.3896 30.0043 43.7962 28.66 46.9117C27.3206 50.0176 27.277 53.4563 28.5343 56.596L29.308 58.53C29.3273 58.583 29.395 58.612 29.4433 58.5878L52.9197 49.2846C52.9729 49.2605 53.0019 49.2026 52.9777 49.1495L52.204 47.2204C50.2166 42.2625 45.4198 39.2338 40.3522 39.2338ZM53.3162 50.2733H53.3259H53.3162Z" fill="#F3F2F2"/>
<path d="M65.6999 127.516C55.8693 127.516 44.8008 117.132 41.3241 108.446L27.0642 72.8442C25.3186 68.4891 25.5846 63.6132 27.7896 59.4656C28.0652 58.9447 28.7131 58.747 29.2305 59.0219C29.7528 59.2968 29.951 59.9431 29.6754 60.4591C27.7654 64.0521 27.5381 68.2818 29.0468 72.0532L43.3067 107.655C46.9623 116.78 60.4437 128.288 69.5151 124.68C72.3245 123.566 74.66 121.01 76.2654 117.282C79.1232 110.65 79.3408 100.812 76.7732 94.3927L62.5181 58.7904C60.9949 54.9804 57.8712 52.0577 53.9544 50.77C53.3935 50.5867 53.0889 49.9839 53.2775 49.4244C53.4612 48.865 54.0608 48.5611 54.6266 48.7444C59.1429 50.2298 62.7454 53.601 64.5055 57.9995L78.7605 93.6017C81.5651 100.604 81.3427 110.916 78.2335 118.126C76.396 122.384 73.6591 125.331 70.3081 126.662C68.8236 127.246 67.2762 127.516 65.6999 127.516Z" fill="#F3F2F2"/>
</svg>
