<svg width="75" height="75" viewBox="0 0 75 75" fill="none" xmlns="http://www.w3.org/2000/svg">
<path d="M72.9289 15.0532C72.6166 14.4112 72.1405 13.8629 71.5487 13.4635C70.9569 13.0642 70.2703 12.8278 69.558 12.7784L66.0398 12.4552L72.2303 6.20908C72.6241 5.80549 72.8425 5.26263 72.8379 4.69874C72.8333 4.13486 72.6061 3.59562 72.2058 3.19847C71.8055 2.80132 71.2645 2.57844 70.7005 2.57836C70.1366 2.57829 69.5955 2.80103 69.1951 3.19807L62.9714 9.47756L62.6389 5.8594C62.5895 5.14756 62.3535 4.4613 61.9546 3.8697C61.5556 3.2781 61.0079 2.80203 60.3664 2.48944C59.6475 2.15772 58.8438 2.0554 58.0647 2.19637C57.2856 2.33735 56.5687 2.71479 56.0116 3.2774L51.3997 7.89049C51.1774 8.11283 51.0067 8.38137 50.8998 8.67705C50.7929 8.97274 50.7524 9.28832 50.7811 9.60143L51.5845 18.3381C51.6534 19.0865 51.5575 19.8409 51.3036 20.5483C51.0496 21.2556 50.6439 21.8988 50.1147 22.4325L34.0078 38.6793C33.8092 38.8793 33.652 39.1165 33.5451 39.3774C33.4383 39.6382 33.3839 39.9175 33.385 40.1994C33.3861 40.4813 33.4428 40.7602 33.5518 41.0201C33.6608 41.2801 33.8199 41.516 34.0201 41.7144C34.2177 41.9113 34.4526 42.0669 34.7111 42.1719C34.9695 42.277 35.2463 42.3295 35.5253 42.3263C35.8068 42.3272 36.0858 42.2726 36.3463 42.1656C36.6067 42.0585 36.8435 41.9011 37.043 41.7024L53.2433 25.3621C53.7776 24.8232 54.4246 24.4091 55.1377 24.1495C55.8508 23.89 56.6126 23.7913 57.3683 23.8607L65.8166 24.6372C65.8824 24.6431 65.9483 24.6462 66.0126 24.6462C66.2939 24.6462 66.5724 24.5908 66.8322 24.4831C67.0921 24.3755 67.3281 24.2176 67.5269 24.0187L72.1406 19.4063C72.7032 18.8495 73.0807 18.133 73.2218 17.3542C73.3628 16.5753 73.2606 15.7719 72.9289 15.0532ZM65.209 20.2798L55.9863 19.4324L55.1378 10.2097L58.4342 6.91268L59.1192 14.3621C59.1649 14.8602 59.3835 15.3267 59.7372 15.6805C60.0909 16.0343 60.5573 16.253 61.0555 16.2988L68.5039 16.9838L65.209 20.2798Z" fill="#F3F2F2"/>
<path d="M39.6973 28.7792C37.0835 27.8177 34.2195 27.7794 31.5809 28.6706C28.9424 29.5619 26.6882 31.329 25.1927 33.6784C23.6973 36.0278 23.0507 38.8182 23.3602 41.5859C23.6698 44.3536 24.917 46.9321 26.8946 48.8931C28.8721 50.8541 31.4611 52.0795 34.2313 52.3657C37.0015 52.6519 39.7863 51.9818 42.1231 50.4666C44.4598 48.9514 46.2079 46.6824 47.0768 44.0364C47.9458 41.3905 47.8833 38.5268 46.8998 35.9213L39.1145 43.774C38.1645 44.7231 36.877 45.2568 35.5341 45.2579C34.1913 45.259 32.9028 44.7275 31.9513 43.78C30.9997 42.8325 30.4628 41.5462 30.4583 40.2034C30.4537 38.8606 30.9819 37.5707 31.927 36.6168L39.6973 28.7792Z" fill="#F3F2F2"/>
<path d="M65.5492 27.5545L57.1005 26.7781C57.0328 26.7718 56.965 26.7687 56.8975 26.7687C56.3067 26.7704 55.7407 27.0064 55.3239 27.425L53.4968 29.2678C56.178 33.6715 57.1547 38.9042 56.2427 43.9787C55.3307 49.0531 52.5929 53.6182 48.5461 56.8127C44.4993 60.0072 39.4232 61.61 34.2757 61.3189C29.1282 61.0277 24.2653 58.8626 20.6045 55.2322C16.9437 51.6017 14.7383 46.7569 14.4043 41.612C14.0703 36.4671 15.6309 31.3779 18.7916 27.3046C21.9523 23.2314 26.4946 20.4558 31.5612 19.5016C36.6279 18.5474 41.8686 19.4806 46.2944 22.1251L48.0342 20.37C48.2623 20.1403 48.4372 19.8633 48.5465 19.5586C48.6559 19.2539 48.697 18.929 48.667 18.6066L47.8641 9.86984C47.856 9.78148 47.8724 9.69558 47.8686 9.60745C40.8089 6.76097 32.9816 6.44564 25.7157 8.71501C18.4499 10.9844 12.1935 15.6986 8.0088 22.0571C3.82412 28.4156 1.96914 36.0265 2.75885 43.5974C3.54856 51.1683 6.93428 58.2325 12.3411 63.5906C17.7479 68.9486 24.8426 72.2701 32.4203 72.9912C39.9981 73.7123 47.5918 71.7884 53.9121 67.5462C60.2325 63.3041 64.8897 57.0052 67.0932 49.7191C69.2966 42.433 68.9103 34.6089 66 27.5752C65.8521 27.5748 65.7016 27.5684 65.5492 27.5545Z" fill="#F3F2F2"/>
</svg>
