<svg width="750" height="865" viewBox="0 0 750 865" fill="none" xmlns="http://www.w3.org/2000/svg">
<path d="M733.01 320.746L388.99 124.575L44.9705 320.746H88.1339V730.8H659.388V320.746H733.01Z" fill="#F3F2F2"/>
<path d="M485.477 394.383H347.787V730.8H485.477V394.383Z" fill="#0C0C0C"/>
<path d="M733.01 320.746L388.99 124.575L44.9705 320.746H88.1339V730.8H659.388V320.746H733.01Z" fill="#F3F2F2"/>
<path d="M659.388 731.704H88.1339C87.6678 731.704 87.2895 731.299 87.2895 730.8V321.655H44.9705C44.5808 321.655 44.2445 321.372 44.149 320.967C44.0535 320.562 44.2292 320.144 44.5731 319.948L388.593 123.773C388.841 123.629 389.139 123.629 389.388 123.773L733.408 319.948C733.752 320.144 733.924 320.566 733.832 320.967C733.736 321.372 733.4 321.655 733.01 321.655H660.236V730.8C660.236 731.299 659.858 731.704 659.388 731.704ZM88.9821 729.895H658.543V320.746C658.543 320.246 658.921 319.841 659.388 319.841H729.618L388.987 125.598L48.3595 319.841H88.1339C88.6001 319.841 88.9783 320.246 88.9783 320.746V729.895H88.9821Z" fill="#0C0C0C"/>
<path d="M388.02 149.996L688.269 320.746H732.04L388.02 124.575L44 320.746H87.771L388.02 149.996Z" fill="#0C0C0C"/>
<path d="M301.334 621.001H176.677C176.211 621.001 175.833 620.596 175.833 620.096V394.383C175.833 393.884 176.211 393.479 176.677 393.479H301.334C301.8 393.479 302.178 393.884 302.178 394.383V620.096C302.182 620.596 301.804 621.001 301.334 621.001ZM177.525 619.188H300.49V395.288H177.525V619.188ZM284.84 599.617H248.798C248.332 599.617 247.954 599.212 247.954 598.712V415.763C247.954 415.264 248.332 414.859 248.798 414.859H284.84C285.306 414.859 285.684 415.264 285.684 415.763V598.712C285.688 599.212 285.306 599.617 284.84 599.617ZM249.642 597.803H283.995V416.668H249.642V597.803ZM229.217 599.617H193.175C192.709 599.617 192.331 599.212 192.331 598.712V415.763C192.331 415.264 192.709 414.859 193.175 414.859H229.217C229.683 414.859 230.061 415.264 230.061 415.763V598.712C230.061 599.212 229.683 599.617 229.217 599.617ZM194.019 597.803H228.372V416.668H194.019V597.803Z" fill="#0C0C0C"/>
<path d="M327.426 270.855L382.877 236.118C428.001 207.853 469.567 173.517 506.56 133.949L508.107 115.001C508.107 115.001 529.657 115.029 533.848 115.001C545.222 114.923 551.943 122.34 551.943 122.34C597.85 163.913 644.28 193.607 699.452 219.167L738.486 237.252C747.556 241.452 751.358 249.81 749.57 262.39L715.565 488.647C698.409 552.542 617.928 642.541 572.384 689.673C564.097 698.249 558.251 704.377 543.316 704.377C538.544 704.377 512.134 704.79 512.134 704.79C512.134 704.79 506.021 700.557 500.095 694.978C453.287 650.945 378.231 562.735 357.836 492.037L318.573 295.244C315.872 285.898 319.544 275.792 327.426 270.855Z" fill="#0C0C0C"/>
<path d="M303.791 242.27L361.083 219.699C429.032 190.173 444.827 176.513 481.53 137.253L495.308 122.516C502.475 114.849 513.93 114.341 521.667 121.345C567.215 162.595 618.177 196.444 672.921 221.803L711.652 239.745C720.65 243.912 725.361 254.596 722.648 264.69L688.911 489.188C671.889 552.587 591.167 642.729 545.979 689.497C528.484 707.602 500.959 708.261 482.68 691.065C436.238 647.375 354.202 562.698 333.963 492.548L295.007 267.375C292.332 258.1 295.97 247.17 303.791 242.27Z" fill="#F3F2F2"/>
<path d="M513.54 704.438C501.967 704.438 490.845 699.956 482.118 691.744C435.18 647.588 353.411 563.029 333.153 492.818C333.146 492.786 333.134 492.753 333.13 492.716L294.181 267.592C291.365 257.748 295.309 246.536 303.363 241.488C303.405 241.464 303.451 241.439 303.496 241.419L360.789 218.847C430.11 188.728 445.79 174.196 480.93 136.61L494.708 121.873C502.246 113.809 514.072 113.281 522.21 120.654C567.731 161.879 618.547 195.629 673.253 220.972L711.985 238.914C721.33 243.244 726.263 254.403 723.474 264.887L689.744 489.331C689.736 489.368 689.732 489.405 689.721 489.437C672.718 552.763 592.73 642.369 546.564 690.148C537.951 699.063 526.611 704.131 514.637 704.426C514.274 704.434 513.907 704.438 513.54 704.438ZM334.785 492.331C354.943 562.108 436.441 646.364 483.238 690.381C501.058 707.144 528.361 706.468 545.394 688.842C591.427 641.202 671.159 551.903 688.086 488.987L721.815 264.547C721.823 264.51 721.827 264.473 721.838 264.44C724.421 254.813 719.901 244.554 711.32 240.58L672.588 222.638C617.73 197.226 566.772 163.381 521.125 122.041C513.663 115.283 502.823 115.766 495.908 123.159L482.13 137.895C446.81 175.674 431.05 190.275 361.404 220.542L304.154 243.093C296.787 247.751 293.203 258.063 295.813 267.109C295.821 267.142 295.832 267.175 295.836 267.212L334.785 492.331Z" fill="#0C0C0C"/>
<path d="M513.541 704.438C501.967 704.438 490.845 699.956 482.118 691.744C435.18 647.588 353.411 563.03 333.154 492.819C333.146 492.786 333.134 492.753 333.131 492.716L331.572 483.698C331.488 483.207 331.789 482.732 332.248 482.642C332.71 482.54 333.15 482.876 333.234 483.367L334.785 492.331C354.943 562.104 436.441 646.36 483.238 690.381C501.058 707.144 528.361 706.468 545.394 688.842C591.427 641.202 671.159 551.904 688.086 488.987L721.815 264.547C721.823 264.51 721.827 264.473 721.838 264.44C724.421 254.813 719.901 244.554 711.32 240.58L689.843 230.633C689.415 230.432 689.217 229.9 689.404 229.441C689.587 228.983 690.088 228.77 690.516 228.971L711.992 238.918C721.338 243.249 726.271 254.407 723.481 264.891L689.751 489.335C689.744 489.372 689.74 489.409 689.729 489.441C672.726 552.767 592.738 642.373 546.571 690.152C537.959 699.063 526.619 704.135 514.645 704.43C514.274 704.434 513.907 704.438 513.541 704.438ZM688.911 489.188H688.919H688.911Z" fill="#0C0C0C"/>
<path d="M650.539 211.762C650.416 211.762 650.29 211.733 650.172 211.672C603.822 187.77 560.406 157.613 521.121 122.041C513.659 115.283 502.819 115.766 495.904 123.159L482.126 137.895C454.173 167.794 438.267 182.792 403.311 200.939C402.894 201.156 402.386 200.971 402.18 200.517C401.977 200.067 402.153 199.526 402.573 199.305C437.297 181.282 453.115 166.361 480.93 136.61L494.708 121.873C502.246 113.809 514.072 113.281 522.21 120.654C561.384 156.132 604.682 186.202 650.902 210.038C651.322 210.255 651.501 210.8 651.299 211.25C651.154 211.573 650.852 211.762 650.539 211.762Z" fill="#0C0C0C"/>
<path d="M320.759 417.155C320.358 417.155 320.002 416.852 319.926 416.414L294.181 267.592C291.365 257.748 295.309 246.536 303.363 241.488C303.405 241.464 303.451 241.439 303.496 241.419L322.914 233.768C323.353 233.596 323.838 233.838 323.999 234.304C324.159 234.775 323.934 235.295 323.498 235.467L304.154 243.093C296.787 247.751 293.203 258.063 295.813 267.109C295.821 267.142 295.832 267.175 295.836 267.212L321.592 416.087C321.676 416.578 321.374 417.053 320.915 417.143C320.862 417.151 320.812 417.155 320.759 417.155Z" fill="#0C0C0C"/>
<path d="M512.253 226.682C419.606 226.682 344.501 307.147 344.501 406.406C344.501 505.664 419.606 586.129 512.253 586.129C604.899 586.129 680.005 505.664 680.005 406.406C680.005 307.147 604.899 226.682 512.253 226.682Z" fill="#F3F2F2"/>
<path d="M495.797 532.754C495.797 532.754 484.724 548.964 476.605 554.167C471.535 557.417 496.721 552.919 501.704 544.814C506.686 536.709 495.797 532.754 495.797 532.754Z" fill="#0C0C0C"/>
<path d="M528.709 532.754C528.709 532.754 539.782 548.964 547.901 554.167C552.971 557.417 527.784 552.919 522.802 544.814C517.82 536.709 528.709 532.754 528.709 532.754Z" fill="#0C0C0C"/>
<path d="M585.348 584.115C584.993 584.115 584.664 583.873 584.546 583.497C582.869 578.106 578.838 570.029 575.751 564.2C572.549 558.154 570.436 551.592 569.465 544.687L566.527 523.781C566.458 523.286 566.776 522.824 567.238 522.75C567.696 522.684 568.132 523.016 568.201 523.511L571.139 544.417C572.075 551.097 574.123 557.45 577.225 563.304C580.347 569.198 584.435 577.389 586.155 582.92C586.304 583.395 586.063 583.91 585.62 584.066C585.524 584.099 585.436 584.115 585.348 584.115Z" fill="#0C0C0C"/>
<path d="M541.688 445.556C541.688 445.556 574.803 441.74 578.257 447.942C584.179 458.585 573.993 523.544 570.944 528.338C567.884 533.147 561.724 532.767 562.993 521.866C564.265 510.965 570.623 464.635 568.717 460.206C566.81 455.777 541.688 469.744 541.688 469.744V445.556Z" fill="#0C0C0C"/>
<path d="M439.161 584.115C439.062 584.115 438.959 584.095 438.859 584.058C438.424 583.882 438.202 583.358 438.37 582.887C441.026 575.421 443.456 570.897 445.603 566.906C450.081 558.572 453.619 551.99 456.305 523.56C456.355 523.061 456.764 522.717 457.234 522.75C457.7 522.799 458.036 523.245 457.99 523.745C455.27 552.559 451.651 559.288 447.07 567.811C444.957 571.745 442.558 576.202 439.952 583.534C439.822 583.894 439.501 584.115 439.161 584.115Z" fill="#0C0C0C"/>
<path d="M482.818 445.555C479.012 445.351 444.14 440.721 445.213 451.016C442.543 468.119 448.362 533.495 458.414 531.256C459.644 530.982 460.489 529.746 460.523 528.399C462.109 465.495 436.823 444.995 482.821 469.744V445.555H482.818Z" fill="#0C0C0C"/>
<path d="M592.023 406.905C591.622 406.905 591.267 406.598 591.19 406.164C591.106 405.673 591.408 405.198 591.87 405.108C592.115 405.059 616.694 400.237 632.356 401.719C632.822 401.764 633.166 402.202 633.124 402.701C633.081 403.2 632.68 403.581 632.207 403.524C616.786 402.079 592.421 406.844 592.176 406.889C592.126 406.901 592.073 406.905 592.023 406.905Z" fill="#0C0C0C"/>
<path d="M560.574 383.851C560.574 383.851 565.026 380.506 574.127 390.539C583.228 400.568 596.754 401.686 596.754 401.686L593.632 411.715C593.632 411.715 574.325 407.814 560.571 389.147V383.851H560.574Z" fill="#0C0C0C"/>
<path d="M541.383 389.463C541.383 389.463 558.267 380.527 562.244 381.554C566.221 382.578 568.059 396.352 546.942 403.565L541.383 389.463Z" fill="#0C0C0C"/>
<path d="M432.482 406.905C432.433 406.905 432.379 406.901 432.33 406.889C432.085 406.839 407.724 402.071 392.299 403.524C391.833 403.573 391.424 403.196 391.382 402.701C391.34 402.202 391.684 401.764 392.15 401.719C407.804 400.249 432.391 405.059 432.635 405.108C433.094 405.198 433.399 405.673 433.315 406.164C433.239 406.602 432.884 406.905 432.482 406.905Z" fill="#0C0C0C"/>
<path d="M463.931 383.851C463.931 383.851 459.48 380.506 450.379 390.539C441.278 400.568 427.752 401.686 427.752 401.686L430.874 411.715C430.874 411.715 450.18 407.814 463.935 389.147V383.851H463.931Z" fill="#0C0C0C"/>
<path d="M483.123 389.463C483.123 389.463 466.239 380.527 462.262 381.554C458.284 382.582 456.446 396.352 477.564 403.565L483.123 389.463Z" fill="#0C0C0C"/>
<path d="M521.621 318.47C521.511 318.47 521.404 318.449 521.297 318.4C520.865 318.208 520.662 317.68 520.842 317.213C521.129 316.476 549.983 242.843 586.422 203.247C586.751 202.891 587.286 202.887 587.618 203.239C587.95 203.591 587.954 204.164 587.626 204.52C551.42 243.863 522.687 317.172 522.401 317.909C522.271 318.261 521.954 318.47 521.621 318.47Z" fill="#0C0C0C"/>
<path d="M502.884 318.47C502.552 318.47 502.239 318.261 502.105 317.913C501.814 317.168 472.719 242.929 436.185 203.771C435.852 203.415 435.852 202.842 436.185 202.49C436.513 202.134 437.052 202.134 437.381 202.49C474.156 241.906 503.377 316.468 503.668 317.217C503.847 317.68 503.645 318.212 503.213 318.404C503.102 318.45 502.991 318.47 502.884 318.47Z" fill="#0C0C0C"/>
<path d="M512.253 554.167C534.344 554.167 552.253 501.202 552.253 435.866C552.253 370.53 534.344 317.565 512.253 317.565C490.162 317.565 472.253 370.53 472.253 435.866C472.253 501.202 490.162 554.167 512.253 554.167Z" fill="#0C0C0C"/>
<path d="M512.253 544.899C511.787 544.899 511.408 544.494 511.408 543.995V368.762C511.408 368.263 511.787 367.857 512.253 367.857C512.719 367.857 513.097 368.263 513.097 368.762V543.995C513.097 544.494 512.719 544.899 512.253 544.899Z" fill="#F3F2F2"/>
<path d="M537.482 348.585C540.68 346.367 541.918 342.028 540.492 338.241C534.238 321.667 523.918 310.84 512.245 310.84C500.58 310.84 490.268 321.65 484.013 338.204C482.577 342.007 483.834 346.371 487.062 348.577L501.574 358.504C508.199 363.039 516.689 363.011 523.287 358.43L537.482 348.585Z" fill="#0C0C0C"/>
<path d="M512.379 362.778C508.463 362.778 504.543 361.607 501.119 359.265L491.544 352.716C491.151 352.446 491.036 351.885 491.288 351.463C491.54 351.042 492.06 350.919 492.457 351.189L502.032 357.739C508.363 362.069 516.524 362.041 522.833 357.669L531.483 351.668C531.876 351.398 532.4 351.517 532.652 351.938C532.904 352.36 532.793 352.921 532.4 353.191L523.75 359.192C520.299 361.582 516.341 362.778 512.379 362.778Z" fill="#F3F2F2"/>
<path d="M493.05 341.07C492.931 341.07 492.817 341.045 492.702 340.988C492.278 340.783 492.087 340.243 492.278 339.789C498.173 325.834 504.611 319.608 513.151 319.608C516.742 319.608 520.257 320.734 523.601 322.948C523.998 323.21 524.12 323.771 523.876 324.197C523.631 324.622 523.108 324.753 522.71 324.491C519.642 322.453 516.425 321.421 513.151 321.421C505.364 321.421 499.4 327.316 493.818 340.534C493.68 340.873 493.374 341.07 493.05 341.07Z" fill="#F3F2F2"/>
<path d="M512.253 226.682C419.606 226.682 344.501 307.147 344.501 406.406C344.501 505.664 419.606 586.129 512.253 586.129C604.899 586.129 680.005 505.664 680.005 406.406C680.005 326.313 631.102 258.456 563.539 235.238C547.374 229.683 530.142 226.682 512.253 226.682ZM512.253 253.323C591.167 253.323 655.139 321.859 655.139 406.406C655.139 442.96 643.172 476.518 623.216 502.843L422.243 287.528C446.81 266.143 478.133 253.323 512.253 253.323ZM369.367 406.406C369.367 369.851 381.334 336.293 401.29 309.968L602.263 525.284C577.692 546.664 546.369 559.485 512.249 559.485C491.525 559.485 471.837 554.757 454.062 546.259C404.155 522.39 369.367 468.749 369.367 406.406ZM570.493 545.837L580.099 570.823L570.493 545.837ZM444.331 571.151L454.066 546.259L444.331 571.151ZM460.917 234.898C460.917 234.898 471.481 252.09 475.149 258.902L460.917 234.898ZM549.532 258.587L563.539 235.238L549.532 258.587Z" fill="#F3F2F2"/>
<path d="M512.253 587.034C488.27 587.034 465.441 581.643 444.766 571.929C444.541 572.072 444.262 572.105 444.002 571.986C443.731 571.867 443.551 571.614 443.498 571.327C384.703 543.086 343.653 479.785 343.653 406.406C343.653 326.297 392.586 258.198 460.111 234.616C460.168 234.427 460.282 234.259 460.451 234.141C460.752 233.924 461.138 233.948 461.413 234.165C477.461 228.717 494.544 225.774 512.253 225.774C529.848 225.774 547.183 228.664 563.776 234.366C563.788 234.37 563.799 234.374 563.814 234.378C597.544 245.975 626.582 268.301 647.788 298.948C669.417 330.214 680.853 367.371 680.853 406.402C680.853 479.92 639.649 543.32 580.676 571.483C580.603 571.556 580.519 571.614 580.42 571.659C580.339 571.695 580.255 571.716 580.171 571.724C559.382 581.569 536.404 587.034 512.253 587.034ZM445.572 570.328C466.006 579.907 488.56 585.224 512.253 585.224C535.961 585.224 558.538 579.899 578.983 570.308L570.149 547.327C552.012 555.87 532.266 560.393 512.253 560.393C492.163 560.393 472.742 556.042 454.513 547.462L445.572 570.328ZM460.76 236.294C393.847 259.594 345.349 327.046 345.349 406.406C345.349 478.979 385.915 541.592 444.025 569.591L452.97 546.725C401.645 521.796 368.526 466.817 368.526 406.406C368.526 371.165 379.931 336.715 400.64 309.395C400.793 309.194 401.014 309.076 401.251 309.059C401.507 309.051 401.725 309.141 401.893 309.325L602.867 524.641C603.035 524.821 603.126 525.071 603.115 525.329C603.104 525.587 602.989 525.824 602.802 525.984C593.261 534.285 582.792 541.191 571.697 546.582L580.53 569.563C638.618 541.551 679.156 478.954 679.156 406.398C679.156 328.585 632.864 260.318 563.895 236.306L550.85 258.047C611.421 276.156 655.979 335.806 655.979 406.393C655.979 441.634 644.574 476.089 623.866 503.404C623.713 503.605 623.491 503.724 623.254 503.74C623.002 503.756 622.781 503.658 622.612 503.474L421.639 288.158C421.471 287.978 421.379 287.728 421.391 287.47C421.402 287.212 421.517 286.975 421.704 286.815C437.056 273.454 454.823 263.712 473.713 258.071C470.19 251.747 462.827 239.675 460.76 236.294ZM401.358 311.323C381.269 338.192 370.211 371.914 370.211 406.406C370.211 466.399 403.261 520.969 454.406 545.432C472.647 554.155 492.11 558.58 512.249 558.58C532.109 558.58 551.699 554.073 569.683 545.563C569.756 545.317 569.928 545.104 570.168 544.998C570.394 544.9 570.635 544.912 570.841 545.01C581.577 539.807 591.729 533.172 601.002 525.21L401.358 311.323ZM423.504 287.597L623.147 501.489C643.237 474.623 654.294 440.897 654.294 406.406C654.294 322.498 590.575 254.231 512.257 254.231C499.927 254.231 487.7 255.971 475.902 259.324C475.829 259.471 475.718 259.598 475.573 259.688C475.291 259.86 474.954 259.844 474.698 259.668C456.133 265.128 438.649 274.596 423.504 287.597ZM462.434 235.725C464.86 239.691 472.093 251.575 475.409 257.584C487.368 254.182 499.755 252.418 512.253 252.418C524.999 252.418 537.367 254.207 549.143 257.559L562.229 235.745C546.116 230.334 529.309 227.591 512.253 227.591C494.906 227.591 478.171 230.436 462.434 235.725Z" fill="#0C0C0C"/>
<path d="M337.184 263.99C337.184 263.99 329.929 267.187 325.97 267.146C323.498 267.122 333.406 271.408 336.837 269.676C340.264 267.949 337.184 263.99 337.184 263.99Z" fill="#0C0C0C"/>
<path d="M348.933 271.69C348.933 271.69 349.583 280.069 351.421 283.823C352.571 286.169 344.494 278.673 344.367 274.613C344.241 270.556 348.933 271.69 348.933 271.69Z" fill="#0C0C0C"/>
<path d="M358.875 303.856C358.81 303.856 358.749 303.848 358.684 303.832C358.229 303.717 357.947 303.234 358.05 302.743C358.539 300.467 358.745 296.676 358.829 293.901C358.921 290.929 359.513 288.027 360.598 285.276L363.811 277.126C363.995 276.663 364.488 276.447 364.92 276.643C365.351 276.84 365.55 277.368 365.37 277.83L362.157 285.98C361.152 288.526 360.602 291.212 360.518 293.958C360.43 296.816 360.216 300.733 359.696 303.152C359.609 303.574 359.257 303.856 358.875 303.856Z" fill="#0C0C0C"/>
<path d="M371.338 243.592C371.338 243.592 383.939 249.978 383.909 252.999C383.855 258.185 366.979 278.993 364.916 279.991C362.845 280.994 360.721 279.414 363.395 275.82C366.07 272.226 377.784 257.17 378.006 255.144C378.227 253.118 366.413 252.229 366.413 252.229L371.338 243.592Z" fill="#0C0C0C"/>
<path d="M306.679 269.664C306.427 269.664 306.175 269.541 306.011 269.312C305.724 268.915 305.793 268.346 306.163 268.039C308.662 265.967 310.473 264.911 312.066 263.978C315.314 262.079 317.878 260.58 324.564 251.149C324.847 250.752 325.378 250.67 325.749 250.977C326.119 251.28 326.192 251.849 325.909 252.246C319.001 261.989 316.3 263.569 312.873 265.57C311.333 266.471 309.587 267.494 307.191 269.475C307.046 269.602 306.863 269.664 306.679 269.664Z" fill="#0C0C0C"/>
<path d="M350.32 229.822C349.002 228.86 337.498 219.048 335.782 222.974C331.342 228.455 320.098 253.155 324.144 254.71C324.637 254.899 325.191 254.657 325.477 254.182C338.862 232.094 334.013 218.86 345.391 238.455L350.32 229.822Z" fill="#0C0C0C"/>
<path d="M412.431 250.359C412.255 250.359 412.079 250.302 411.93 250.183C406.776 246.102 397.167 242.131 397.068 242.09C396.632 241.91 396.414 241.386 396.582 240.919C396.75 240.453 397.24 240.219 397.675 240.399C398.076 240.563 407.594 244.497 412.939 248.726C413.314 249.024 413.394 249.589 413.115 249.995C412.947 250.232 412.691 250.359 412.431 250.359Z" fill="#0C0C0C"/>
<path d="M390.656 225.982C390.656 225.982 392.926 225.831 394.133 231.541C395.341 237.252 399.941 240.813 399.941 240.813L396.781 243.666C396.781 243.666 390.683 237.759 389.579 227.873L390.656 225.982Z" fill="#0C0C0C"/>
<path d="M382.659 223.493C382.659 223.493 390.507 224.255 391.719 225.548C392.93 226.842 390.779 232.192 381.769 229.826L382.659 223.493Z" fill="#0C0C0C"/>
<path d="M340.409 204.832C340.207 204.832 340.004 204.754 339.844 204.598C339.767 204.525 332.087 197.169 326.349 194.111C325.932 193.89 325.76 193.345 325.967 192.895C326.173 192.445 326.681 192.261 327.101 192.486C333.05 195.654 340.654 202.936 340.975 203.247C341.322 203.583 341.353 204.156 341.04 204.529C340.871 204.729 340.642 204.832 340.409 204.832Z" fill="#0C0C0C"/>
<path d="M356.151 203.374C356.151 203.374 355.241 201.139 349.95 202.593C344.654 204.046 339.599 201.279 339.599 201.279L338.671 205.589C338.671 205.589 346.358 208.712 355.073 205.266L356.151 203.374Z" fill="#0C0C0C"/>
<path d="M361.859 209.867C361.859 209.867 357.652 202.728 356.021 202.163C354.393 201.598 350.928 206.084 356.999 213.6L361.859 209.867Z" fill="#0C0C0C"/>
<path d="M426.136 172.579C425.8 172.579 425.483 172.362 425.349 172.01C425.177 171.543 425.387 171.019 425.819 170.831C429.636 169.198 433.25 167.917 436.567 167.037C437.018 166.918 437.48 167.213 437.591 167.7C437.702 168.187 437.427 168.678 436.972 168.797C433.732 169.66 430.19 170.913 426.442 172.518C426.346 172.559 426.239 172.579 426.136 172.579Z" fill="#F3F2F2"/>
<path d="M390.259 194.111C389.995 194.111 389.739 193.98 389.575 193.738C389.3 193.333 389.384 192.768 389.762 192.473C389.938 192.334 407.72 178.592 425.823 170.835C426.251 170.651 426.747 170.876 426.923 171.339C427.095 171.805 426.885 172.329 426.453 172.518C408.541 180.193 390.935 193.804 390.759 193.939C390.603 194.053 390.431 194.111 390.259 194.111Z" fill="#0C0C0C"/>
<path d="M385.517 152.329C385.066 152.329 384.692 151.948 384.673 151.461C384.394 144.297 383.649 137.989 382.464 132.717C382.354 132.23 382.636 131.739 383.091 131.624C383.542 131.509 384 131.808 384.111 132.291C385.322 137.682 386.079 144.105 386.366 151.387C386.385 151.887 386.022 152.308 385.556 152.333C385.54 152.329 385.529 152.329 385.517 152.329Z" fill="#F3F2F2"/>
<path d="M383.569 189.727C383.527 189.727 383.481 189.723 383.439 189.714C382.977 189.637 382.659 189.174 382.732 188.679C382.759 188.495 385.399 170.037 384.673 151.457C384.654 150.958 385.017 150.536 385.483 150.511C385.976 150.47 386.343 150.88 386.366 151.379C387.099 170.144 384.432 188.769 384.406 188.953C384.337 189.407 383.978 189.727 383.569 189.727Z" fill="#0C0C0C"/>
<path d="M377.075 242.615C390.39 219.288 394.79 196.189 386.904 191.022C379.017 185.855 361.83 200.577 348.515 223.904C335.2 247.231 330.799 270.33 338.686 275.497C346.572 280.664 363.76 265.942 377.075 242.615Z" fill="#0C0C0C"/>
<path d="M343.217 268.464C343.068 268.464 342.916 268.423 342.778 268.333C342.381 268.071 342.255 267.515 342.499 267.089L373.497 212.777C373.742 212.351 374.261 212.216 374.659 212.474C375.056 212.736 375.182 213.293 374.938 213.718L343.94 268.03C343.783 268.313 343.504 268.464 343.217 268.464Z" fill="#F3F2F2"/>
<path d="M389.598 207.988C391.191 207.942 392.517 206.682 392.781 204.999C393.927 197.619 392.448 191.339 388.28 188.609C384.115 185.883 378.231 187.328 372.626 191.773C371.338 192.797 370.899 194.647 371.602 196.19L374.758 203.129C376.198 206.297 379.236 208.274 382.526 208.18L389.598 207.988Z" fill="#0C0C0C"/>
<path d="M382.033 209.956C378.116 209.956 375.404 208.188 373.749 204.553L372.221 201.192C372.015 200.742 372.19 200.198 372.611 199.981C373.031 199.76 373.539 199.948 373.742 200.398L375.27 203.759C376.691 206.886 378.892 208.241 382.358 208.139L390.282 207.922C391.65 207.885 392.807 206.796 393.033 205.331C393.503 202.31 393.568 199.498 393.228 196.972C393.163 196.477 393.484 196.018 393.946 195.944C394.408 195.875 394.836 196.219 394.905 196.714C395.268 199.424 395.199 202.424 394.703 205.626C394.343 207.947 392.502 209.674 390.324 209.731L382.4 209.948C382.281 209.956 382.155 209.956 382.033 209.956Z" fill="#F3F2F2"/>
<path d="M387.909 198.536C387.6 198.536 387.302 198.352 387.153 198.036C386.515 196.681 385.636 195.633 384.547 194.917C382.388 193.501 379.821 193.767 376.474 195.748C376.065 195.994 375.549 195.83 375.323 195.396C375.098 194.958 375.247 194.405 375.656 194.164C379.534 191.863 382.732 191.606 385.429 193.37C386.79 194.262 387.879 195.556 388.662 197.218C388.872 197.664 388.704 198.208 388.287 198.433C388.169 198.503 388.039 198.536 387.909 198.536Z" fill="#F3F2F2"/>
<path d="M649.927 291.175C649.927 291.175 644.257 296.988 640.555 298.49C638.243 299.431 648.926 299.554 651.536 296.607C654.145 293.66 649.927 291.175 649.927 291.175Z" fill="#0C0C0C"/>
<path d="M663.487 293.758C663.487 293.758 666.941 301.306 669.933 304.086C671.801 305.821 661.73 301.994 660.232 298.261C658.73 294.536 663.487 293.758 663.487 293.758Z" fill="#0C0C0C"/>
<path d="M683.374 319.899C682.962 319.899 682.599 319.575 682.538 319.125C682.221 316.816 681.12 313.206 680.257 310.582C679.332 307.782 678.9 304.847 678.973 301.859L679.191 293.017C679.202 292.526 679.58 292.133 680.035 292.133C680.043 292.133 680.05 292.133 680.058 292.133C680.524 292.145 680.895 292.562 680.883 293.062L680.665 301.904C680.597 304.667 680.998 307.381 681.854 309.972C682.744 312.669 683.879 316.399 684.215 318.855C684.284 319.35 683.963 319.813 683.5 319.882C683.455 319.894 683.413 319.899 683.374 319.899Z" fill="#0C0C0C"/>
<path d="M674.797 258.849C674.797 258.849 688.704 259.876 689.702 262.701C691.413 267.551 682.775 293.516 681.193 295.252C679.603 296.996 677.089 296.353 678.362 291.961C679.634 287.568 685.419 268.98 684.933 267.003C684.448 265.03 673.146 268.812 673.146 268.812L674.797 258.849Z" fill="#0C0C0C"/>
<path d="M623.14 308.429C622.991 308.429 622.842 308.388 622.704 308.298C622.303 308.04 622.173 307.483 622.414 307.053C624.038 304.151 625.363 302.46 626.533 300.966C628.909 297.933 630.789 295.534 633.807 284.142C633.933 283.659 634.4 283.377 634.854 283.52C635.305 283.659 635.565 284.159 635.435 284.642C632.313 296.41 630.334 298.936 627.828 302.137C626.701 303.578 625.421 305.207 623.866 307.991C623.709 308.269 623.426 308.429 623.14 308.429Z" fill="#0C0C0C"/>
<path d="M650.539 254.231C648.984 253.851 634.935 249.205 634.671 253.531C632.401 260.367 630.33 287.761 634.625 287.63C635.149 287.613 635.584 287.171 635.687 286.619C640.639 260.826 631.622 250.396 648.884 264.199L650.539 254.231Z" fill="#0C0C0C"/>
<path d="M715.06 249.172C714.988 249.172 714.915 249.164 714.839 249.139C708.653 247.35 698.34 247.399 698.245 247.403C698.245 247.403 698.241 247.403 698.237 247.403C697.771 247.403 697.393 247.002 697.393 246.503C697.389 246.004 697.767 245.594 698.234 245.59C698.665 245.582 708.863 245.537 715.278 247.387C715.729 247.518 715.996 248.017 715.874 248.501C715.775 248.906 715.431 249.172 715.06 249.172Z" fill="#0C0C0C"/>
<path d="M686.798 234.906C686.798 234.906 688.861 233.879 691.925 238.725C694.99 243.572 700.488 245.095 700.488 245.095L698.516 248.984C698.516 248.984 690.829 245.86 686.439 237.092L686.798 234.906Z" fill="#0C0C0C"/>
<path d="M678.507 235.713C678.507 235.713 686.076 233.355 687.642 234.092C689.213 234.824 689.025 240.645 679.833 241.959L678.507 235.713Z" fill="#0C0C0C"/>
<path d="M632.504 234.886C632.405 234.886 632.306 234.865 632.206 234.828C632.111 234.788 622.46 230.936 616.071 230.33C615.605 230.285 615.261 229.847 615.303 229.347C615.345 228.848 615.766 228.471 616.22 228.525C622.838 229.151 632.397 232.966 632.799 233.13C633.238 233.306 633.46 233.83 633.295 234.296C633.169 234.665 632.845 234.886 632.504 234.886Z" fill="#0C0C0C"/>
<path d="M646.974 227.321C646.974 227.321 645.369 225.594 640.933 229.012C636.497 232.43 630.85 231.828 630.85 231.828L631.45 236.204C631.45 236.204 639.672 236.11 646.615 229.499L646.974 227.321Z" fill="#0C0C0C"/>
<path d="M654.501 231.14C654.501 231.14 648.154 226.134 646.447 226.244C644.739 226.355 643.038 231.885 651.249 236.515L654.501 231.14Z" fill="#0C0C0C"/>
<path d="M675.278 205.442C675.122 205.442 674.965 205.397 674.824 205.298C674.43 205.028 674.315 204.467 674.568 204.046C674.736 203.763 691.711 175.604 709.509 162.088C709.891 161.797 710.418 161.895 710.689 162.305C710.961 162.714 710.869 163.279 710.487 163.57C692.961 176.882 676.157 204.746 675.989 205.028C675.828 205.298 675.557 205.442 675.278 205.442Z" fill="#0C0C0C"/>
<path d="M667.556 203.972C667.17 203.972 666.819 203.685 666.731 203.264C666.662 202.936 659.77 170.164 647.448 151.248C647.18 150.839 647.276 150.274 647.658 149.987C648.04 149.701 648.567 149.803 648.834 150.213C661.348 169.423 668.313 202.539 668.382 202.871C668.481 203.358 668.194 203.845 667.74 203.951C667.679 203.968 667.617 203.972 667.556 203.972Z" fill="#0C0C0C"/>
<path d="M679.808 255.653C684.274 228.73 680.516 205.5 671.414 203.767C662.312 202.033 651.312 222.453 646.846 249.376C642.379 276.299 646.137 299.529 655.24 301.262C664.342 302.996 675.342 282.576 679.808 255.653Z" fill="#0C0C0C"/>
<path d="M656.763 293.05C656.713 293.05 656.663 293.045 656.614 293.037C656.155 292.951 655.846 292.481 655.93 291.985L666.437 228.659C666.517 228.168 666.956 227.833 667.419 227.927C667.877 228.013 668.187 228.483 668.103 228.979L657.596 292.305C657.519 292.738 657.164 293.05 656.763 293.05Z" fill="#F3F2F2"/>
<path d="M679.691 218.565C681.162 217.902 681.968 216.211 681.64 214.537C680.196 207.218 676.684 201.946 671.874 201.029C667.067 200.112 662.081 203.759 658.371 210.088C657.519 211.541 657.741 213.436 658.918 214.603L664.217 219.83C666.636 222.217 670.135 222.871 673.169 221.504L679.691 218.565Z" fill="#0C0C0C"/>
<path d="M669.925 223.35C667.361 223.35 664.817 222.368 662.857 220.505L660.538 218.307C660.19 217.976 660.155 217.403 660.465 217.026C660.774 216.653 661.309 216.621 661.661 216.948L663.98 219.146C666.479 221.516 670.093 222.192 673.192 220.87L680.509 217.755C681.754 217.222 682.446 215.843 682.156 214.472C681.372 210.787 680.058 207.574 678.362 205.184C678.079 204.786 678.151 204.217 678.522 203.915C678.893 203.612 679.424 203.689 679.706 204.086C681.552 206.686 682.969 210.137 683.802 214.07C684.28 216.318 683.157 218.577 681.132 219.441L673.815 222.556C672.562 223.092 671.24 223.35 669.925 223.35Z" fill="#F3F2F2"/>
<path d="M662.662 212.613C662.471 212.613 662.28 212.544 662.123 212.405C661.764 212.085 661.714 211.512 662.012 211.127C664.844 207.472 667.736 205.986 670.846 206.575C672.416 206.874 673.872 207.656 675.164 208.896C675.511 209.232 675.542 209.805 675.229 210.178C674.915 210.55 674.38 210.583 674.033 210.247C672.978 209.232 671.805 208.598 670.548 208.36C668.053 207.889 665.753 209.134 663.312 212.286C663.147 212.503 662.903 212.613 662.662 212.613Z" fill="#F3F2F2"/>
<path d="M656.266 216.784C656.014 216.784 655.765 216.666 655.597 216.437C655.311 216.039 655.376 215.47 655.746 215.163L656.927 214.181L656.407 211.013C655.716 206.821 663.667 201.467 664.576 200.869C664.973 200.607 665.497 200.742 665.741 201.168C665.986 201.594 665.86 202.15 665.463 202.412C662.184 204.565 657.725 208.561 658.077 210.693L658.688 214.398C658.742 214.73 658.623 215.065 658.375 215.27L656.793 216.588C656.629 216.723 656.445 216.784 656.266 216.784Z" fill="#F3F2F2"/>
<path d="M146.657 570.725L83.6101 566.656C76.981 566.227 71.93 560.123 72.3311 553.021L80.863 401.354C81.8564 383.728 95.9971 370.297 112.449 371.362L139.921 373.134C156.373 374.194 168.909 389.348 167.916 406.975L159.384 558.641C158.987 565.744 153.29 571.155 146.657 570.725Z" fill="#0C0C0C"/>
<path d="M85.1919 532.5C85.1728 532.5 85.1575 532.5 85.1384 532.5C84.6723 532.468 84.3169 532.038 84.3475 531.538L91.3052 410.704C91.8515 400.974 94.5032 394.137 99.4129 389.815C104.976 384.915 113.294 383.343 124.836 385.005C125.299 385.07 125.623 385.529 125.562 386.024C125.501 386.52 125.066 386.859 124.611 386.802C113.557 385.201 105.668 386.651 100.49 391.211C95.9665 395.198 93.5174 401.608 92.9978 410.81L86.0401 531.645C86.0057 532.132 85.6351 532.5 85.1919 532.5Z" fill="#F3F2F2"/>
<path d="M131.672 856.355C131.836 859.146 134.992 861.381 137.544 861.799C146.416 863.248 167.27 862.638 172.936 863.06C180.288 863.608 194.096 863.019 194.627 857.947C195.28 851.762 189.114 842.744 174.365 837.803C166.735 835.249 158.669 822.588 155.097 822.363C151.528 822.137 146.997 827.389 146.997 827.389L135.978 826.98C135.978 826.98 130.831 842.204 131.672 856.355Z" fill="#F3F2F2"/>
<path d="M177.51 864.104C174.839 864.104 172.94 863.968 172.879 863.964C170.949 863.821 167.144 863.796 162.735 863.772C154.069 863.719 143.283 863.653 137.418 862.695C134.385 862.2 131.015 859.556 130.827 856.412C129.987 842.236 134.969 827.299 135.183 826.669C135.309 826.3 135.642 826.063 136.008 826.071L146.653 826.468C147.731 825.293 151.7 821.212 155.154 821.458C157.061 821.577 159.56 824.164 162.72 827.438C166.227 831.069 170.59 835.588 174.621 836.939C189.935 842.068 196.163 851.479 195.471 858.049C194.913 863.322 183.955 864.104 177.51 864.104ZM136.574 827.909C135.642 830.893 131.794 844.095 132.516 856.297C132.646 858.471 135.344 860.522 137.67 860.902C143.413 861.84 154.13 861.905 162.742 861.959C167.178 861.983 171.011 862.008 172.994 862.155C181.453 862.785 193.385 861.639 193.786 857.845C194.424 851.803 187.868 843.276 174.113 838.667C169.696 837.189 165.172 832.506 161.539 828.74C158.979 826.088 156.327 823.345 155.047 823.263C152.465 823.108 148.804 826.628 147.616 827.999C147.448 828.196 147.219 828.319 146.966 828.29L136.574 827.909Z" fill="#0C0C0C"/>
<path d="M181.365 856.559C179.401 856.559 177.261 856.441 175.057 856.314C171.714 856.125 168.26 855.929 164.859 856.097C157.126 856.477 150.508 856.146 146.321 855.806C138.503 855.163 138.19 854.635 138.041 854.378C137.877 854.103 137.865 853.747 138.01 853.461C138.232 853.018 138.74 852.851 139.157 853.088C140.448 853.44 151.292 854.951 164.783 854.287C168.263 854.116 171.763 854.312 175.145 854.504C179.057 854.725 182.752 854.93 185.503 854.463C185.965 854.386 186.397 854.721 186.47 855.217C186.542 855.712 186.229 856.175 185.767 856.252C184.452 856.482 182.966 856.559 181.365 856.559Z" fill="#0C0C0C"/>
<path d="M77.0575 861.946C71.823 862.744 63.2835 863.084 53.1661 861.934C48.6308 861.418 46.8618 854.602 47.6603 851.094C49.8802 841.319 53.7354 825.563 60.2957 816.971L78.5476 816.582L81.8143 855.135C82.2155 858.434 80.0988 861.483 77.0575 861.946Z" fill="#F3F2F2"/>
<path d="M65.8855 863.588C62.2901 863.588 57.9879 863.395 53.0744 862.838C51.3015 862.638 49.7503 861.59 48.5811 859.813C46.7395 857.009 46.3077 853.198 46.8312 850.881C49.4943 839.146 53.3571 824.618 59.6347 816.398C59.7913 816.194 60.0244 816.071 60.2727 816.067L78.5246 815.678C78.964 815.678 79.3461 816.03 79.3843 816.501L82.6511 855.053C83.1058 858.802 80.649 862.314 77.1683 862.847C75.3037 863.129 71.4333 863.588 65.8855 863.588ZM77.0575 861.946H77.0651H77.0575ZM60.7045 817.872C54.0181 826.914 50.1438 843.976 48.4818 851.311C48.05 853.207 48.4894 856.518 49.9681 858.77C50.8583 860.125 51.9663 860.89 53.2539 861.033C61.7896 861.999 70.6423 862.008 76.9352 861.046C79.5028 860.653 81.3138 858.053 80.9738 855.245L77.7758 817.499L60.7045 817.872Z" fill="#0C0C0C"/>
<path d="M63.3141 855.442C59.9556 855.442 56.3411 855.118 52.7458 854.23C52.2911 854.119 52.0046 853.632 52.1115 853.141C52.2185 852.654 52.6732 852.351 53.1279 852.462C62.0761 854.668 71.204 853.247 75.8463 852.204C76.3048 852.105 76.7518 852.412 76.8473 852.904C76.9428 853.395 76.6525 853.874 76.194 853.976C73.2634 854.635 68.6097 855.442 63.3141 855.442Z" fill="#0C0C0C"/>
<path d="M200.652 559.305C205.604 590.648 214.61 667.671 195.169 725.282C178.438 774.866 163.507 817.856 158.914 826.824C157.661 829.276 155.154 830.643 152.591 830.287L139.363 830.222C135.829 829.731 133.368 826.173 133.93 822.358C138.282 792.857 152.973 661.858 148.369 648.587L80.7445 815.616C79.946 817.614 78.1196 818.895 76.1099 818.871L63.5968 818.719C60.8115 818.686 58.5878 816.177 58.6604 813.156C62.3551 660.81 104.051 625 116.14 552.161C116.167 551.99 120.099 557.11 120.248 557.205C132.352 564.786 138.408 564.196 156.981 565.293C177.067 566.48 195.727 558.285 200.125 558.506C200.457 558.519 200.595 558.94 200.652 559.305Z" fill="#F3F2F2"/>
<path d="M153.412 831.249C153.122 831.249 152.827 831.229 152.533 831.192L139.355 831.127C139.321 831.127 139.287 831.122 139.248 831.118C137.323 830.848 135.615 829.78 134.446 828.106C133.261 826.407 132.78 824.315 133.089 822.215C137.518 792.194 150.684 673.966 148.09 651.542L81.5163 815.973C80.5879 818.289 78.4941 819.775 76.1634 819.775C76.1405 819.775 76.1175 819.775 76.0946 819.775L63.5815 819.624C62.0188 819.603 60.5555 818.928 59.4665 817.712C58.3585 816.48 57.7701 814.851 57.8121 813.132C60.2269 713.583 78.6202 664.298 94.8509 620.813C103.215 598.401 111.116 577.23 115.304 552.002C115.361 551.654 115.602 551.371 115.919 551.281C116.515 551.105 116.515 551.109 119.369 554.728C119.931 555.44 120.561 556.234 120.763 556.476C131.229 563.009 137.048 563.316 151.043 564.053C152.889 564.151 154.872 564.254 157.023 564.38C170.64 565.183 183.421 561.683 191.88 559.37C195.808 558.293 198.65 557.52 200.163 557.593C200.492 557.61 201.275 557.794 201.489 559.149C206.345 589.879 215.53 667.613 195.968 725.589C175.481 786.299 163.602 819.554 159.659 827.258C158.375 829.755 155.995 831.249 153.412 831.249ZM139.417 829.313L152.591 829.379C152.625 829.379 152.659 829.383 152.698 829.387C154.937 829.698 157.08 828.523 158.173 826.39C162.074 818.773 173.914 785.599 194.375 724.979C213.803 667.413 204.656 590.051 199.819 559.46C199.816 559.444 199.812 559.427 199.812 559.411C198.436 559.456 195.701 560.205 192.3 561.134C183.741 563.476 170.804 567.017 156.931 566.198C154.784 566.071 152.805 565.969 150.963 565.87C137.051 565.138 130.701 564.802 119.816 557.986C119.64 557.876 119.632 557.872 118.077 555.903C117.672 555.391 117.138 554.708 116.664 554.118C112.377 578.74 104.621 599.519 96.4212 621.488C80.244 664.83 61.908 713.955 59.5009 813.181C59.4704 814.409 59.8907 815.576 60.6854 816.456C61.461 817.319 62.4964 817.798 63.6045 817.815L76.1175 817.966C77.7605 817.966 79.2964 816.926 79.9651 815.26L147.593 648.227C147.731 647.887 148.036 647.703 148.392 647.682C148.735 647.695 149.041 647.928 149.163 648.272C153.928 662.005 139.084 793.217 134.767 822.502C134.53 824.115 134.897 825.723 135.806 827.025C136.685 828.286 137.968 829.096 139.417 829.313Z" fill="#0C0C0C"/>
<path d="M150.837 402.443C134.721 406.402 123.32 414.933 123.32 414.933C123.32 414.933 98.6678 431.773 99.2524 463.911C99.7071 488.848 117.019 518.534 116.882 520.658C115.361 544.458 99.325 579.485 102.244 587.742C115.269 624.583 208.263 614.554 211.465 605.639C215.542 594.287 204.038 544.347 207.102 520.609C209.287 503.671 212.191 488.357 215.221 489.712C238.058 499.95 286.223 503.564 308.995 489.544C338.166 471.586 351.21 430.017 351.21 430.017L333.398 418.011C333.398 418.011 278.959 466.338 216.849 418.51C207.415 411.248 197.634 404.466 186.217 402.161C176.176 400.139 163.721 399.279 150.837 402.443Z" fill="#F3F2F2"/>
<path d="M167.339 614.886C167.175 614.886 167.018 614.886 166.854 614.886C150.027 614.841 109.97 612.135 101.457 588.065C99.9058 583.681 103.027 573.296 106.978 560.148C110.868 547.192 115.281 532.513 116.041 520.601C115.976 520.159 114.853 517.74 113.664 515.177C108.827 504.751 98.7557 483.064 98.408 463.935C97.8196 431.662 122.617 414.347 122.865 414.175C122.949 414.11 134.556 405.518 150.646 401.567C161.76 398.837 173.781 398.739 186.374 401.281C198.291 403.684 208.607 411.056 217.341 417.782C249.13 442.26 278.822 440.844 298.128 435.347C319.097 429.378 332.722 417.442 332.855 417.319C333.138 417.069 333.535 417.041 333.845 417.249L351.657 429.256C351.99 429.477 352.135 429.915 352.009 430.312C351.879 430.733 338.525 472.417 309.415 490.338C285.348 505.156 236.587 500.281 214.892 490.555C214.858 490.539 214.827 490.522 214.732 490.584C213.784 491.161 211.228 495.258 207.939 520.736C206.391 532.722 208.638 551.814 210.621 568.654C212.611 585.576 214.331 600.19 212.256 605.966C210.544 610.739 189.618 614.886 167.339 614.886ZM151.028 403.328C135.256 407.204 123.919 415.592 123.809 415.678C123.537 415.866 99.5351 432.661 100.104 463.894C100.444 482.618 110.398 504.059 115.181 514.367C117.199 518.71 117.776 519.995 117.73 520.724C116.954 532.857 112.511 547.651 108.587 560.705C105.045 572.498 101.698 583.636 103.039 587.423C111.177 610.44 150.378 613.027 166.857 613.072C167.018 613.072 167.182 613.072 167.346 613.072C190.898 613.072 209.551 608.459 210.682 605.311C212.604 599.961 210.827 584.864 208.947 568.879C206.953 551.924 204.691 532.705 206.269 520.486C210.025 491.374 212.94 489.593 213.899 489.008C214.434 488.68 215.007 488.635 215.553 488.881C237.183 498.578 285.772 502.803 308.578 488.766C335.129 472.421 348.356 435.813 350.19 430.406L333.459 419.128C330.834 421.31 317.721 431.63 298.636 437.082C278.959 442.703 248.71 444.172 216.36 419.259C207.774 412.648 197.645 405.399 186.068 403.066C173.7 400.56 161.913 400.65 151.028 403.328ZM150.837 402.443H150.845H150.837Z" fill="#0C0C0C"/>
<path d="M133.88 634.354C133.601 634.354 133.33 634.354 133.055 634.35C118.903 634.154 106.672 628.734 98.6105 619.09C80.8248 597.804 84.5844 551.675 84.7525 549.722C84.7945 549.223 85.2034 548.85 85.6733 548.903C86.1395 548.948 86.4795 549.39 86.4375 549.89C86.3955 550.361 82.5785 597.19 99.8714 617.882C107.612 627.146 119.403 632.348 133.074 632.537C133.334 632.541 133.597 632.541 133.857 632.541C162.185 632.541 196.235 611.558 229.843 573.353C230.164 572.989 230.699 572.973 231.039 573.317C231.379 573.66 231.394 574.234 231.073 574.598C187.769 623.83 154.444 634.354 133.88 634.354Z" fill="#0C0C0C"/>
<path d="M412.467 341.699L227.175 571.921L232.788 577.107L418.08 346.884L412.467 341.699Z" fill="#0C0C0C"/>
<path d="M421.513 314.696L412.068 342.245L417.681 347.431L440.319 333.751L421.513 314.696Z" fill="#F3F2F2"/>
<path d="M417.681 348.336C417.482 348.336 417.287 348.262 417.127 348.115L411.518 342.928C411.25 342.683 411.155 342.286 411.277 341.93L420.722 314.385C420.821 314.098 421.047 313.885 421.322 313.816C421.601 313.75 421.891 313.832 422.098 314.041L440.903 333.096C441.098 333.292 441.194 333.579 441.159 333.866C441.129 334.152 440.968 334.402 440.735 334.545L418.097 348.221C417.967 348.299 417.826 348.336 417.681 348.336ZM413.065 341.966L417.784 346.326L438.905 333.563L421.864 316.3L413.065 341.966Z" fill="#0C0C0C"/>
<path d="M232.808 578.028C232.613 578.028 232.415 577.954 232.258 577.807C231.903 577.479 231.864 576.906 232.17 576.53L417.043 346.838C417.108 346.76 417.184 346.69 417.268 346.641L439.906 332.965C440.315 332.719 440.831 332.875 441.06 333.309C441.289 333.747 441.144 334.299 440.739 334.545L418.231 348.144L233.454 577.717C233.282 577.922 233.045 578.028 232.808 578.028Z" fill="#0C0C0C"/>
<path d="M417.562 340.075C417.421 340.075 417.276 340.038 417.146 339.957C416.741 339.707 416.599 339.154 416.829 338.72L424.344 324.602C424.573 324.168 425.093 324.013 425.498 324.262C425.903 324.512 426.044 325.065 425.815 325.498L418.3 339.617C418.143 339.911 417.856 340.075 417.562 340.075Z" fill="#0C0C0C"/>
<path d="M220.306 542.309C213.15 543.176 220.902 523.155 220.902 523.155L242.417 523.47C246.945 523.221 251.324 521.678 255.102 518.992L264.586 512.254C269.606 508.963 272.689 514.932 270.152 518.002L265.315 524.383C263.871 526.291 263.867 529.144 265.525 530.839C269.728 535.149 275.226 520.396 280.652 522.382C283.632 523.47 279.475 540.299 269.977 544.875C269.977 544.875 258.766 550.012 248.519 538.473C248.512 538.477 232.621 540.819 220.306 542.309Z" fill="#F3F2F2"/>
<path d="M263.798 546.889C259.519 546.889 253.712 545.456 248.202 539.435C245.585 539.816 231.467 541.866 220.402 543.205C218.732 543.406 217.808 542.636 217.33 541.952C214.434 537.826 219.531 524.33 220.123 522.803C220.253 522.463 220.562 522.242 220.906 522.242C220.91 522.242 220.914 522.242 220.918 522.242L242.433 522.558C246.75 522.32 250.987 520.822 254.636 518.231L264.119 511.493C267.157 509.499 269.553 510.486 270.787 512.07C272.281 513.982 272.281 516.79 270.787 518.599L265.972 524.952C264.754 526.557 264.815 528.857 266.11 530.184C266.481 530.564 266.84 530.74 267.241 530.724C268.613 530.691 270.454 528.62 272.231 526.614C274.829 523.687 277.775 520.372 280.923 521.522C281.565 521.755 282.348 522.472 282.436 524.559C282.665 529.844 278.241 541.887 270.321 545.702C270.256 545.735 267.642 546.889 263.798 546.889ZM248.511 537.568C248.741 537.568 248.962 537.671 249.123 537.851C258.824 548.776 269.201 544.245 269.637 544.044C276.778 540.606 280.946 529.373 280.74 524.649C280.694 523.577 280.434 523.27 280.369 523.245C278.245 522.468 275.807 525.214 273.45 527.871C271.341 530.245 269.35 532.488 267.275 532.542C266.427 532.587 265.632 532.214 264.933 531.498C263.008 529.521 262.881 526.148 264.65 523.814L269.488 517.433C270.588 516.102 270.298 514.289 269.48 513.241C268.464 511.943 266.798 511.865 265.021 513.032L255.565 519.749C251.664 522.521 247.132 524.121 242.456 524.379L221.46 524.072C219.412 529.541 216.986 538.469 218.675 540.868C218.877 541.154 219.256 541.527 220.207 541.408C232.372 539.938 248.236 537.601 248.393 537.581C248.435 537.572 248.473 537.568 248.511 537.568ZM220.306 542.309H220.314H220.306Z" fill="#0C0C0C"/>
<path d="M345.051 424.949C348.07 420.987 351.042 417.192 351.742 416.979C356.07 415.649 360.82 415.993 360.82 415.993C376.023 415.931 374.586 406.602 365.699 406.111C361.752 405.894 365.03 400.831 369.191 396.36C373.776 391.436 377.398 390.372 376.026 387.375C373.459 381.775 357.725 385.132 349.399 396.966C342.763 406.398 342.591 409.754 339.645 415.301C338.793 416.91 337.543 418.527 336.153 420.049C331.98 424.613 341.823 429.186 345.051 424.949Z" fill="#F3F2F2"/>
<path d="M341.246 427.536C340.719 427.536 340.168 427.479 339.607 427.364C337.486 426.926 335.068 425.522 334.441 423.369C334.166 422.419 334.132 420.962 335.545 419.415C337.031 417.79 338.162 416.255 338.904 414.851C339.832 413.103 340.474 411.584 341.154 409.979C342.629 406.496 344.157 402.898 348.715 396.418C354.821 387.74 365.137 383.241 371.587 383.888C374.177 384.15 375.973 385.218 376.775 386.974C377.998 389.639 376.133 391.235 373.772 393.258C372.649 394.22 371.25 395.419 369.779 396.999C365.645 401.44 364.53 404.126 364.789 404.846C364.893 405.129 365.481 405.194 365.733 405.206C370.693 405.481 373.233 408.219 373.176 410.782C373.111 413.717 369.829 416.869 360.816 416.901C360.709 416.897 356.093 416.582 351.967 417.851C351.478 418.146 349.346 420.733 345.701 425.522C344.711 426.832 343.107 427.536 341.246 427.536ZM370.261 385.636C364.251 385.636 355.459 389.852 350.072 397.507C345.624 403.827 344.138 407.335 342.698 410.728C341.999 412.374 341.341 413.925 340.379 415.747C339.565 417.282 338.346 418.944 336.756 420.68C336.088 421.408 335.855 422.133 336.057 422.825C336.409 424.032 338.036 425.191 339.928 425.579C341.849 425.981 343.515 425.526 344.394 424.372C349.506 417.659 350.802 416.32 351.505 416.103C355.925 414.744 360.674 415.072 360.873 415.084C368.079 415.051 371.441 412.808 371.487 410.733C371.526 409.066 369.352 407.216 365.649 407.012C364.056 406.922 363.448 406.136 363.215 405.493C362.356 403.102 365.661 398.857 368.587 395.714C370.127 394.06 371.564 392.828 372.721 391.837C375.285 389.639 375.828 389.004 375.262 387.768C374.739 386.626 373.379 385.889 371.43 385.689C371.056 385.656 370.662 385.636 370.261 385.636Z" fill="#0C0C0C"/>
<path d="M207.942 515.361C207.839 515.361 207.732 515.341 207.625 515.296C207.193 515.107 206.983 514.579 207.155 514.117C207.216 513.957 213.192 497.837 214.728 477.935C216.138 459.674 213.987 434.384 195.735 417.605C195.38 417.278 195.341 416.705 195.643 416.328C195.949 415.947 196.48 415.907 196.835 416.23C211.717 429.914 218.488 451.319 216.409 478.131C214.847 498.296 208.787 514.633 208.726 514.792C208.596 515.144 208.279 515.361 207.942 515.361Z" fill="#0C0C0C"/>
<path d="M110.669 536.958C110.306 536.958 109.966 536.705 109.859 536.312C109.725 535.833 109.981 535.329 110.428 535.182C145.35 524.056 164.252 509.458 164.122 464.267C164.057 441.163 156.686 423.815 142.817 414.101C132.31 406.741 121.665 406.275 121.558 406.267C121.092 406.25 120.725 405.833 120.741 405.329C120.756 404.826 121.153 404.424 121.612 404.453C122.062 404.469 132.776 404.928 143.673 412.534C153.725 419.546 165.723 434.213 165.811 464.259C165.944 510.355 145.782 525.808 110.91 536.917C110.829 536.946 110.749 536.958 110.669 536.958Z" fill="#0C0C0C"/>
<path d="M135.13 417.266C135.13 417.266 117.577 425.248 108.308 457.746C103.192 475.683 104.128 501.259 129.356 535.26C134.404 542.059 141.487 548.825 149.488 549.8L236.186 546.668L235.846 520.138C235.846 520.138 166.357 515.726 157.42 512.091C149.503 508.873 138.041 466.981 136.849 446.427L135.13 417.266Z" fill="#F3F2F2"/>
<path d="M149.488 550.708C149.458 550.708 149.423 550.708 149.393 550.7C140.612 549.628 133.288 542.018 128.692 535.82C125.975 532.157 123.35 528.444 120.897 524.784C120.626 524.379 120.71 523.81 121.092 523.519C121.47 523.225 122.001 523.319 122.273 523.728C124.71 527.363 127.316 531.055 130.017 534.695C134.404 540.606 141.346 547.859 149.523 548.891L235.33 545.792L235.013 520.994C226.932 520.47 165.665 516.413 157.126 512.942C149.962 510.027 141.518 480.902 138.064 462.138C137.972 461.647 138.27 461.172 138.729 461.074C139.187 460.976 139.63 461.299 139.722 461.79C143.684 483.334 152.052 508.947 157.722 511.251C166.437 514.792 235.204 519.197 235.895 519.242C236.338 519.27 236.686 519.659 236.69 520.134L237.03 546.664C237.038 547.155 236.675 547.564 236.212 547.581L149.515 550.712C149.507 550.708 149.496 550.708 149.488 550.708Z" fill="#0C0C0C"/>
<path d="M205.455 379.725C205.604 379.725 205.26 355.115 201.458 347.526C197.657 339.94 186.087 333.276 172.443 336.977C158.799 340.677 156.553 349.433 155.345 357.825C154.138 366.216 151.719 399.152 156.381 407.294C161.046 415.436 179.562 415.477 189.091 412.517C207.522 406.795 205.455 379.725 205.455 379.725Z" fill="#F3F2F2"/>
<path d="M175.714 415.211C167.45 415.211 158.822 413.295 155.659 407.773C150.718 399.144 153.382 365.508 154.509 357.69C155.781 348.852 158.2 339.912 172.237 336.101C185.717 332.449 198.062 338.819 202.207 347.1C205.593 353.862 206.67 375.815 206.292 379.655H206.303C206.326 379.933 208.21 407.531 189.327 413.397C185.866 414.47 180.857 415.211 175.714 415.211ZM180.104 336.854C177.701 336.854 175.198 337.169 172.65 337.861C159.606 341.398 157.416 349.388 156.178 357.968C154.91 366.761 152.721 399.181 157.099 406.827C161.394 414.327 179.053 414.699 188.85 411.658C206.399 406.205 204.63 380.068 204.611 379.802C204.603 379.716 204.611 379.626 204.626 379.545C204.699 378.079 204.248 355.021 200.713 347.959C197.649 341.831 189.66 336.854 180.104 336.854Z" fill="#0C0C0C"/>
<path d="M186.527 416.337C185.064 415.395 169.429 413.635 170.732 379.844C171.408 362.332 187.753 354.861 197.191 359.335C200.675 360.989 202.716 363.85 203.782 365.57C208.156 372.619 208.752 398.088 205.245 409.091C201.737 420.095 186.527 416.337 186.527 416.337Z" fill="#F3F2F2"/>
<path d="M192.147 417.835C188.907 417.835 186.397 417.237 186.336 417.221C186.252 417.2 186.168 417.163 186.091 417.114C186.007 417.065 185.698 416.955 185.426 416.861C174.316 412.914 169.085 400.446 169.884 379.807C170.308 368.787 176.448 363.093 180.07 360.678C185.637 356.969 192.491 356.118 197.531 358.508C200.282 359.814 202.555 361.959 204.485 365.066C209.192 372.651 209.44 398.731 206.043 409.382C203.801 416.431 197.114 417.835 192.147 417.835ZM186.817 415.477C188.113 415.768 201.367 418.449 204.446 408.8C207.958 397.793 207.151 372.635 203.079 366.073C201.332 363.261 199.296 361.329 196.847 360.166C192.304 358.013 186.068 358.815 180.964 362.217C177.624 364.44 171.966 369.696 171.576 379.88C170.816 399.615 175.657 411.478 185.961 415.137C186.336 415.272 186.607 415.371 186.817 415.477Z" fill="#0C0C0C"/>
<path d="M196.289 378.771C196.289 378.771 184.483 386.876 185.461 399.594C186.439 412.313 193.225 416.283 196.289 416.918C199.353 417.552 210.013 411.228 210.116 404.977C210.223 398.477 209.658 372.062 196.289 378.771Z" fill="#F3F2F2"/>
<path d="M196.736 417.863C196.514 417.863 196.312 417.843 196.125 417.806C192.308 417.016 185.587 412.3 184.613 399.664C183.604 386.553 195.326 378.345 195.827 378.005C195.857 377.985 195.892 377.964 195.926 377.948C199.048 376.38 201.783 376.388 204.053 377.969C210.796 382.656 211.045 399.836 210.961 404.989C210.903 408.358 208.324 411.293 206.173 413.164C203.029 415.894 199.009 417.863 196.736 417.863ZM196.702 379.565C195.934 380.118 185.407 387.887 186.305 399.521C187.195 411.076 193.102 415.338 196.449 416.03C197.714 416.292 201.615 414.793 205.107 411.76C207.755 409.46 209.234 407.044 209.268 404.961C209.429 395.288 207.919 382.815 203.132 379.491C201.374 378.263 199.269 378.288 196.702 379.565Z" fill="#0C0C0C"/>
<path d="M218.904 393.34C217.51 392.767 212.577 390.748 211.182 390.179C206.632 388.317 200.771 392.898 198.092 400.413C195.414 407.929 196.931 415.53 201.481 417.393C202.876 417.966 207.809 419.984 209.203 420.553C213.754 422.415 219.615 417.835 222.293 410.319C224.972 402.8 223.455 395.202 218.904 393.34Z" fill="#F3F2F2"/>
<path d="M211.347 421.875C210.506 421.875 209.685 421.715 208.901 421.396L201.18 418.236C198.704 417.225 196.95 414.728 196.247 411.212C195.574 407.835 195.949 403.884 197.301 400.09C198.654 396.295 200.836 393.082 203.438 391.047C206.15 388.927 209.005 388.321 211.484 389.332L219.206 392.492C224.185 394.531 225.923 402.673 223.084 410.639C221.732 414.433 219.55 417.647 216.948 419.681C215.095 421.13 213.169 421.875 211.347 421.875ZM209.043 390.667C207.576 390.667 205.99 391.293 204.431 392.509C202.089 394.338 200.117 397.261 198.879 400.732C197.641 404.204 197.294 407.79 197.901 410.827C198.478 413.725 199.858 415.751 201.783 416.537L209.505 419.697C211.427 420.487 213.719 419.959 215.951 418.211C218.293 416.382 220.264 413.459 221.502 409.988C224.009 402.951 222.71 395.861 218.602 394.179L210.881 391.019C210.296 390.785 209.681 390.667 209.043 390.667Z" fill="#0C0C0C"/>
<path d="M222.294 410.285C224.973 402.77 223.455 395.169 218.903 393.306C214.351 391.443 208.49 396.025 205.811 403.54C203.132 411.054 204.65 418.656 209.202 420.518C213.754 422.381 219.616 417.799 222.294 410.285Z" fill="#F3F2F2"/>
<path d="M211.297 421.863C210.476 421.863 209.673 421.711 208.901 421.396C203.923 419.358 202.181 411.216 205.023 403.246C206.376 399.451 208.558 396.238 211.159 394.203C213.872 392.083 216.73 391.477 219.206 392.488C224.185 394.527 225.927 402.669 223.084 410.634C220.685 417.372 215.767 421.863 211.297 421.863ZM216.765 393.827C215.297 393.827 213.712 394.453 212.153 395.669C209.811 397.499 207.839 400.421 206.601 403.892C204.091 410.929 205.394 418.019 209.501 419.701C213.612 421.388 218.992 417.028 221.499 409.992C224.005 402.955 222.706 395.865 218.599 394.183C218.022 393.945 217.403 393.827 216.765 393.827Z" fill="#0C0C0C"/>
<path d="M110.998 186.575C116.332 186.575 120.656 181.942 120.656 176.226C120.656 170.511 116.332 165.878 110.998 165.878C105.663 165.878 101.339 170.511 101.339 176.226C101.339 181.942 105.663 186.575 110.998 186.575Z" fill="#0C0C0C"/>
<path d="M143.745 214.402C143.279 214.402 142.897 213.997 142.897 213.497L142.893 207.914C142.893 207.414 143.272 207.009 143.738 207.009C144.204 207.009 144.586 207.414 144.586 207.914L144.59 213.497C144.59 213.992 144.212 214.402 143.745 214.402Z" fill="#0C0C0C"/>
<path d="M143.738 194.86C143.272 194.86 142.893 194.455 142.89 193.955L142.886 188.372C142.886 187.872 143.264 187.467 143.73 187.467C144.196 187.467 144.575 187.872 144.578 188.372L144.582 193.955C144.582 194.455 144.204 194.86 143.738 194.86Z" fill="#0C0C0C"/>
<path d="M155.464 201.843H150.252C149.786 201.843 149.408 201.438 149.408 200.939C149.408 200.439 149.786 200.034 150.252 200.034H155.464C155.93 200.034 156.308 200.439 156.308 200.939C156.312 201.438 155.93 201.843 155.464 201.843Z" fill="#0C0C0C"/>
<path d="M137.223 201.835L132.012 201.831C131.546 201.831 131.167 201.426 131.167 200.926C131.167 200.427 131.546 200.022 132.012 200.022L137.223 200.026C137.69 200.026 138.068 200.431 138.068 200.93C138.072 201.43 137.693 201.835 137.223 201.835Z" fill="#0C0C0C"/>
<path d="M165.13 171.994C164.913 171.994 164.699 171.904 164.531 171.728C164.198 171.376 164.198 170.798 164.531 170.446L168.214 166.496C168.546 166.14 169.081 166.14 169.41 166.496C169.742 166.848 169.742 167.425 169.41 167.777L165.726 171.728C165.566 171.908 165.348 171.994 165.13 171.994Z" fill="#0C0C0C"/>
<path d="M178.026 158.17C177.808 158.17 177.594 158.08 177.426 157.904C177.093 157.552 177.093 156.975 177.426 156.623L181.109 152.673C181.441 152.316 181.976 152.316 182.305 152.673C182.633 153.025 182.633 153.602 182.305 153.954L178.622 157.904C178.457 158.084 178.24 158.17 178.026 158.17Z" fill="#0C0C0C"/>
<path d="M181.709 171.994C181.491 171.994 181.277 171.904 181.109 171.728L177.426 167.777C177.097 167.421 177.097 166.848 177.426 166.496C177.758 166.14 178.293 166.14 178.622 166.496L182.305 170.446C182.633 170.798 182.633 171.376 182.305 171.728C182.141 171.908 181.923 171.994 181.709 171.994Z" fill="#0C0C0C"/>
<path d="M168.814 158.17C168.596 158.17 168.382 158.08 168.214 157.904L164.531 153.954C164.202 153.598 164.202 153.025 164.531 152.673C164.863 152.316 165.398 152.316 165.727 152.673L169.41 156.623C169.738 156.979 169.738 157.552 169.41 157.904C169.249 158.084 169.032 158.17 168.814 158.17Z" fill="#0C0C0C"/>
<path d="M47.6556 62.7764L45.6256 57.3164C45.5556 57.1464 45.6456 56.9464 45.8256 56.8864C45.9956 56.8264 46.1756 56.9064 46.2456 57.0664L48.6456 62.3764C48.7656 62.6464 48.6456 62.9664 48.3756 63.0864C48.1056 63.2064 47.7856 63.0864 47.6656 62.8164C47.6656 62.8064 47.6556 62.7864 47.6556 62.7764Z" fill="#0C0C0C"/>
<path d="M45.7455 57.0664L49.1755 53.4464C49.2655 53.3464 49.4256 53.3464 49.5256 53.4364C49.6256 53.5264 49.6256 53.6864 49.5356 53.7864L46.1255 57.4264C46.0255 57.5364 45.8555 57.5364 45.7455 57.4364C45.6455 57.3464 45.6455 57.1764 45.7455 57.0664Z" fill="#0C0C0C"/>
<path d="M49.4756 53.4565L51.3755 54.9065C51.4455 54.9565 51.4556 55.0565 51.4056 55.1265C51.3556 55.1965 51.2556 55.2065 51.1956 55.1565L49.2455 53.7765C49.1555 53.7165 49.1356 53.5865 49.1956 53.4965C49.2556 53.4165 49.3856 53.3965 49.4756 53.4565Z" fill="#0C0C0C"/>
<path d="M46.8755 64.9264C46.8755 64.9264 46.8256 64.8664 46.7256 64.7364C46.6156 64.6064 46.4855 64.4264 46.3055 64.1964C46.1355 63.9664 45.9255 63.6864 45.6955 63.3564C45.4655 63.0364 45.2055 62.6664 44.9355 62.2564C44.6555 61.8564 44.3856 61.3964 44.0956 60.9264C43.8156 60.4464 43.5055 59.9464 43.2155 59.4064C43.0655 59.1364 42.9155 58.8664 42.7655 58.5964C42.6255 58.3164 42.4755 58.0364 42.3355 57.7464C42.0355 57.1764 41.7655 56.5864 41.4855 56.0064C41.1955 55.4264 40.9655 54.8164 40.7055 54.2264C40.4555 53.6364 40.2455 53.0464 40.0155 52.4764C39.7955 51.9064 39.6255 51.3464 39.4655 50.8064C39.2955 50.2764 39.1856 49.7564 39.0456 49.2864C38.9156 48.8164 38.7555 48.3964 38.6455 48.0164C38.5355 47.6364 38.4255 47.3064 38.3255 47.0364C38.1355 46.4964 38.0055 46.1964 38.0055 46.1964C37.7555 45.6264 38.0055 44.9564 38.5855 44.6964C39.1555 44.4464 39.8255 44.6964 40.0855 45.2764C40.1355 45.3964 40.1655 45.5264 40.1755 45.6564V45.6964C40.1755 45.6964 40.1956 46.0064 40.2856 46.5564C40.3256 46.8264 40.3855 47.1564 40.4655 47.5264C40.5355 47.8964 40.6656 48.3164 40.7956 48.7564C40.9356 49.2064 41.0955 49.6864 41.3055 50.1864C41.5155 50.6864 41.6855 51.2164 41.9055 51.7664C42.1255 52.3064 42.3255 52.8764 42.5755 53.4464C42.8255 54.0064 43.0555 54.5864 43.3255 55.1464C43.5955 55.7064 43.8555 56.2764 44.1455 56.8164C44.2855 57.0864 44.4255 57.3564 44.5655 57.6264C44.7055 57.8864 44.8555 58.1464 44.9955 58.4064C45.2755 58.9264 45.5756 59.3964 45.8456 59.8664C46.1356 60.3164 46.3955 60.7564 46.6555 61.1364C46.9055 61.5264 47.1455 61.8864 47.3655 62.1864C47.5755 62.4964 47.7755 62.7564 47.9355 62.9764C48.0955 63.1864 48.2255 63.3564 48.3055 63.4564C48.3955 63.5664 48.4455 63.6264 48.4455 63.6264L48.4655 63.6464C48.8155 64.0764 48.7455 64.7164 48.3055 65.0564C47.8455 65.4264 47.2155 65.3564 46.8755 64.9264Z" fill="#0C0C0C"/>
<path d="M38.2256 46.1865C38.2256 46.1865 38.1556 45.8765 38.0356 45.3265C37.9756 45.0465 37.8955 44.7165 37.8155 44.3365C37.7255 43.9565 37.6255 43.5265 37.5155 43.0565C37.4055 42.5865 37.2855 42.0765 37.1555 41.5465C37.0255 41.0065 36.8955 40.4465 36.7455 39.8565C36.4555 38.6865 36.1455 37.4365 35.8355 36.1865C35.6655 35.5665 35.5255 34.9365 35.3655 34.3165C35.2055 33.6965 35.0555 33.0965 34.9055 32.5065C34.6155 31.3265 34.3556 30.2265 34.1056 29.2865C33.9856 28.8165 33.8956 28.3765 33.7956 27.9865C33.7056 27.5965 33.6255 27.2565 33.5555 26.9765C33.4255 26.4165 33.3355 26.0965 33.3355 26.0965C33.1455 25.3565 33.5855 24.6065 34.3155 24.4165C35.0555 24.2265 35.8055 24.6665 35.9955 25.3965C36.0155 25.4865 36.0356 25.5665 36.0356 25.6565V25.7265C36.0356 25.7265 36.0556 26.0365 36.1056 26.5865C36.1356 26.8565 36.1555 27.1965 36.1955 27.5765C36.2355 27.9565 36.2555 28.3965 36.3255 28.8665C36.3955 29.3365 36.4656 29.8565 36.5356 30.3965C36.6156 30.9365 36.6856 31.5065 36.7956 32.0965C36.8956 32.6865 37.0055 33.2965 37.1155 33.9165C37.2355 34.5365 37.3456 35.1665 37.4756 35.7865C37.6056 36.4165 37.7355 37.0365 37.8655 37.6565C37.9955 38.2765 38.1355 38.8765 38.2655 39.4565C38.5355 40.6265 38.8055 41.7165 39.0555 42.6365C39.2955 43.5665 39.5155 44.3365 39.6755 44.8665C39.8355 45.4065 39.9355 45.7065 39.9355 45.7065C40.0855 46.1765 39.8256 46.6765 39.3556 46.8265C38.8856 46.9765 38.3855 46.7165 38.2355 46.2465C38.2255 46.2165 38.2155 46.1865 38.2155 46.1665L38.2256 46.1865Z" fill="#0C0C0C"/>
<path d="M33.9156 26.5064C33.9156 26.5064 33.6156 24.8864 33.1756 22.4564C32.9556 21.2364 32.7056 19.8164 32.4256 18.2964C32.1456 16.7764 31.8656 15.1464 31.5856 13.5264C31.3056 11.8964 31.0256 10.2764 30.7556 8.74639C30.6256 7.98639 30.4956 7.24639 30.3856 6.54639C30.2756 5.84639 30.1756 5.17639 30.0856 4.56639C29.7056 2.11639 29.4556 0.486392 29.4556 0.486392C29.4256 0.256392 29.5756 0.046392 29.8056 0.00639205C30.0256 -0.033608 30.2356 0.126392 30.2756 0.346392V0.366393C30.2756 0.366393 30.5756 1.98639 31.0156 4.41639C31.1256 5.02639 31.2456 5.67639 31.3756 6.37639C31.4956 7.07639 31.6556 7.80639 31.8056 8.55639C32.1156 10.0664 32.4456 11.6864 32.7656 13.2964C33.0856 14.9164 33.4256 16.5264 33.7456 18.0364C34.0656 19.5464 34.3556 20.9564 34.6156 22.1664C35.1256 24.5864 35.4756 26.1964 35.4756 26.1964C35.5656 26.6264 35.2956 27.0564 34.8556 27.1464C34.4256 27.2364 34.0056 26.9664 33.9056 26.5264C33.9256 26.5264 33.9156 26.5164 33.9156 26.5064Z" fill="#0C0C0C"/>
<path d="M46.3755 67.3465C46.3755 67.3465 46.1156 67.1865 45.6556 66.9065C45.1956 66.6265 44.5255 66.2265 43.7355 65.7465C42.9455 65.2665 42.0256 64.6965 41.0356 64.0865C40.5456 63.7765 40.0356 63.4665 39.5256 63.1365C39.0156 62.8065 38.4956 62.4765 37.9756 62.1465C37.4556 61.8265 36.9355 61.4765 36.4255 61.1465C35.9155 60.8065 35.4155 60.4765 34.9255 60.1565C34.4355 59.8365 33.9856 59.4965 33.5456 59.1965C33.1056 58.8865 32.6955 58.5965 32.3155 58.3265C32.2255 58.2565 32.1256 58.1965 32.0356 58.1265C31.9456 58.0565 31.8556 57.9865 31.7756 57.9265C31.6056 57.7965 31.4456 57.6665 31.2856 57.5565C30.9756 57.3265 30.6956 57.1365 30.4656 56.9765C30.0056 56.6665 29.7156 56.5165 29.7156 56.5165C29.0056 56.1365 28.7455 55.2565 29.1255 54.5465C29.5055 53.8365 30.3856 53.5765 31.0956 53.9565C31.2556 54.0365 31.3855 54.1565 31.5055 54.2765L31.5655 54.3465C31.5655 54.3465 31.7655 54.5765 32.1355 54.9265C32.3255 55.1065 32.5556 55.3165 32.8356 55.5565C32.9756 55.6765 33.1256 55.7965 33.2756 55.9265C33.3556 55.9865 33.4355 56.0565 33.5155 56.1265C33.6055 56.1865 33.6956 56.2565 33.7856 56.3165C34.1556 56.5765 34.5556 56.8665 34.9756 57.1665C35.4056 57.4665 35.8355 57.7965 36.3155 58.1065C36.7955 58.4165 37.2856 58.7465 37.7756 59.0765C38.2756 59.4065 38.7756 59.7465 39.2956 60.0665C39.8156 60.3865 40.3356 60.7165 40.8356 61.0265C41.3456 61.3465 41.8556 61.6465 42.3456 61.9465C42.8356 62.2365 43.3055 62.5265 43.7555 62.7965C44.2155 63.0565 44.6356 63.3065 45.0356 63.5365C45.8256 63.9965 46.4956 64.3665 46.9556 64.6265C47.4256 64.8865 47.6955 65.0365 47.6955 65.0365H47.7056C48.3556 65.3965 48.5855 66.2065 48.2355 66.8565C47.8755 67.5065 47.0656 67.7365 46.4156 67.3865C46.4056 67.3665 46.3955 67.3565 46.3755 67.3465Z" fill="#0C0C0C"/>
<path d="M30.6855 56.8864C30.6855 56.8864 30.4456 56.6664 30.0256 56.2864C29.6056 55.9064 29.0056 55.3664 28.2956 54.7164C27.5856 54.0564 26.7555 53.2964 25.8655 52.4764C25.4255 52.0664 24.9655 51.6364 24.5055 51.1964C24.0455 50.7564 23.5755 50.3164 23.1155 49.8664C22.6555 49.4164 22.1855 48.9664 21.7355 48.5164C21.5055 48.2864 21.2855 48.0664 21.0655 47.8464C20.8455 47.6264 20.6356 47.3964 20.4156 47.1764C19.9856 46.7464 19.5755 46.3164 19.1955 45.9064C18.8055 45.5064 18.4456 45.1064 18.1056 44.7464C17.7656 44.3864 17.4655 44.0464 17.1955 43.7364C17.0555 43.5864 16.9355 43.4364 16.8155 43.3064C16.6955 43.1764 16.5955 43.0364 16.4955 42.9264C16.1155 42.4564 15.8855 42.1864 15.8855 42.1864C15.4155 41.6364 15.4856 40.8164 16.0356 40.3464C16.5856 39.8764 17.4155 39.9464 17.8755 40.4964C17.9355 40.5764 17.9956 40.6564 18.0356 40.7364L18.0755 40.8164C18.0755 40.8164 18.2156 41.0764 18.4656 41.5364C18.5856 41.7664 18.7656 42.0364 18.9756 42.3464C19.0856 42.5064 19.1955 42.6664 19.3155 42.8464C19.4355 43.0164 19.5756 43.1964 19.7256 43.3764C20.0156 43.7464 20.3255 44.1464 20.6855 44.5564C21.0355 44.9664 21.4155 45.3964 21.8255 45.8264C22.0255 46.0464 22.2355 46.2664 22.4455 46.4864C22.6655 46.7064 22.8756 46.9264 23.0956 47.1464C23.5356 47.5964 23.9855 48.0464 24.4355 48.4864C24.8855 48.9364 25.3555 49.3664 25.8055 49.7964C26.2555 50.2264 26.7256 50.6364 27.1656 51.0464C27.6056 51.4464 28.0455 51.8364 28.4555 52.1964C28.8755 52.5564 29.2555 52.8964 29.6255 53.2064C30.3555 53.8264 30.9656 54.3364 31.4056 54.6864C31.8356 55.0364 32.0856 55.2264 32.0856 55.2264L32.0956 55.2364C32.5656 55.6064 32.6355 56.2864 32.2655 56.7564C31.8955 57.2264 31.2155 57.2964 30.7455 56.9264C30.7255 56.9164 30.7055 56.8964 30.6855 56.8864Z" fill="#0C0C0C"/>
<path d="M16.5356 42.6566C16.5356 42.6566 16.3056 42.3166 15.9056 41.7266C15.5056 41.1366 14.9256 40.2966 14.2156 39.2966C12.8056 37.2966 10.8956 34.6466 8.90558 32.0466C7.91558 30.7466 6.89554 29.4766 5.92554 28.2966C5.43554 27.7066 4.95555 27.1466 4.49555 26.6266C4.03555 26.1066 3.58559 25.6166 3.16559 25.1766C2.74559 24.7366 2.35555 24.3466 1.99555 24.0066C1.63555 23.6666 1.3156 23.3966 1.0456 23.1766C0.775595 22.9666 0.555571 22.7966 0.395571 22.6966C0.245571 22.5966 0.15558 22.5366 0.15558 22.5366L0.135561 22.5166C-0.00443916 22.4266 -0.0444562 22.2365 0.0555438 22.0965C0.145544 21.9565 0.325578 21.9166 0.465578 22.0066C0.465578 22.0066 0.555588 22.0565 0.725588 22.1665C0.905588 22.2665 1.14556 22.4266 1.44556 22.6366C1.73556 22.8566 2.09554 23.1266 2.48554 23.4566C2.87554 23.7866 3.30556 24.1666 3.75556 24.5866C4.20556 25.0066 4.68555 25.4866 5.18555 25.9866C5.68555 26.4966 6.19559 27.0366 6.72559 27.6066C7.77559 28.7366 8.86555 29.9766 9.93555 31.2266C12.0755 33.7266 14.1356 36.2966 15.6556 38.2266C16.4156 39.1966 17.0455 40.0066 17.4855 40.5866C17.9255 41.1666 18.1755 41.4866 18.1755 41.4866C18.5055 41.9266 18.4255 42.5566 17.9855 42.8866C17.5455 43.2166 16.9156 43.1366 16.5856 42.6966C16.5756 42.6866 16.5655 42.6666 16.5555 42.6566H16.5356Z" fill="#0C0C0C"/>
<path d="M46.9355 69.1564C46.9355 69.1564 46.6556 69.1164 46.1556 69.0564C45.6556 68.9964 44.9456 68.9164 44.0956 68.8164C43.2456 68.7164 42.2455 68.6164 41.1855 68.5264C40.1155 68.4264 38.9755 68.3364 37.8355 68.2564C36.6955 68.1664 35.5555 68.1064 34.4955 68.0564C33.9655 68.0364 33.4455 68.0064 32.9555 67.9964C32.4655 67.9864 32.0055 67.9864 31.5855 67.9964C31.1655 68.0164 30.7755 68.0164 30.4355 68.0464C30.0955 68.0764 29.8055 68.0964 29.5655 68.1264C29.1055 68.1964 28.8456 68.2564 28.8456 68.2564L28.7956 68.2664C28.1156 68.4064 27.4455 67.9664 27.3055 67.2864C27.1655 66.6064 27.6056 65.9364 28.2856 65.7864C28.4056 65.7664 28.5355 65.7564 28.6455 65.7664C28.6455 65.7664 28.9655 65.7864 29.5055 65.8164C30.0155 65.8564 30.7555 65.9164 31.6355 65.9864C32.0755 66.0064 32.5356 66.0664 33.0356 66.0864C33.5356 66.1164 34.0556 66.1564 34.5956 66.1864C35.6756 66.2664 36.8156 66.3464 37.9656 66.4264C40.2556 66.5964 42.5455 66.7764 44.2655 66.9064C45.1255 66.9664 45.8456 67.0164 46.3456 67.0464C46.8456 67.0764 47.1355 67.0964 47.1355 67.0964C47.7055 67.1364 48.1356 67.6264 48.0956 68.1864C48.0556 68.7564 47.5755 69.1864 47.0055 69.1464C46.9855 69.1564 46.9655 69.1564 46.9355 69.1564Z" fill="#0C0C0C"/>
<path d="M29.3456 67.7065C29.3456 67.7065 28.9955 67.8165 28.3655 67.9965C28.0555 68.0865 27.6755 68.1865 27.2355 68.3065C26.7955 68.4165 26.3055 68.5565 25.7755 68.6965C25.2455 68.8365 24.6655 68.9865 24.0555 69.1465C23.4555 69.3065 22.8155 69.4865 22.1556 69.6665C21.8356 69.7565 21.5056 69.8465 21.1656 69.9465C20.8256 70.0265 20.4955 70.0965 20.1455 70.1565C19.8055 70.2165 19.4455 70.2665 19.1155 70.3465C18.7855 70.4265 18.4656 70.5465 18.2256 70.6965C17.6056 71.1165 16.9855 71.5365 16.3855 71.9465C15.7755 72.3565 15.1855 72.7765 14.6155 73.1765C13.4755 73.9865 12.4155 74.7365 11.5155 75.4065C10.6155 76.0665 9.87555 76.6365 9.34555 77.0265C8.82555 77.4165 8.53555 77.6565 8.53555 77.6565C8.39555 77.7665 8.19554 77.7465 8.08554 77.6065C7.97554 77.4665 7.99553 77.2665 8.13553 77.1565C8.13553 77.1565 8.42552 76.9265 8.93552 76.5165C9.43552 76.0965 10.1755 75.5165 11.0255 74.7965C11.8855 74.0765 12.8955 73.2365 13.9655 72.3265C15.0355 71.4165 16.1755 70.4465 17.3155 69.4865C17.6855 69.1965 18.0255 68.9665 18.3755 68.7365C18.7155 68.5065 19.0555 68.2965 19.4056 68.0965C19.7456 67.9065 20.1055 67.7465 20.4555 67.6165C20.8055 67.4865 21.1655 67.4065 21.5155 67.3065C22.2155 67.1165 22.8856 66.9765 23.5356 66.8465C24.1756 66.7165 24.7856 66.6165 25.3456 66.5365C25.9056 66.4465 26.4255 66.3965 26.8855 66.3465C27.3455 66.3065 27.7455 66.2665 28.0755 66.2465C28.7355 66.2065 29.1255 66.2065 29.1255 66.2065C29.5555 66.2065 29.8955 66.5565 29.8955 66.9765C29.8855 67.3265 29.6556 67.6065 29.3456 67.7065Z" fill="#0C0C0C"/>
<path d="M47.4855 70.4364C47.4855 70.4364 47.4456 70.4464 47.3856 70.4764C47.3356 70.4964 47.2956 70.5264 47.2256 70.5564C47.0556 70.6464 46.7556 70.8164 46.4056 71.0864C46.2256 71.2064 46.0356 71.3764 45.8256 71.5564C45.7256 71.6464 45.6155 71.7364 45.4955 71.8364C45.3855 71.9364 45.2756 72.0564 45.1656 72.1664C45.0456 72.2864 44.9355 72.4064 44.8055 72.5264C44.7455 72.5864 44.6855 72.6564 44.6155 72.7164C44.5555 72.7864 44.4955 72.8564 44.4355 72.9264C44.1955 73.2164 43.9455 73.5164 43.6855 73.8264C43.4355 74.1564 43.1955 74.5164 42.9355 74.8764C42.8055 75.0564 42.6656 75.2364 42.5456 75.4364C42.4256 75.6364 42.3055 75.8364 42.1855 76.0464C41.9455 76.4664 41.6755 76.8764 41.4355 77.3264C41.2055 77.7764 40.9755 78.2464 40.7355 78.7164C40.6155 78.9464 40.4955 79.1864 40.3755 79.4264C40.2655 79.6764 40.1655 79.9264 40.0555 80.1764C39.8455 80.6764 39.6256 81.1864 39.4056 81.7064C39.3556 81.8364 39.2955 81.9664 39.2455 82.0964L39.1056 82.4964C39.0156 82.7664 38.9156 83.0264 38.8256 83.2964C38.6356 83.8364 38.4456 84.3664 38.2556 84.9064C37.9056 85.9964 37.6056 87.0964 37.2856 88.1764C37.1156 88.7164 36.9955 89.2664 36.8655 89.7964C36.7355 90.3364 36.6155 90.8664 36.4855 91.3864C36.3655 91.9064 36.2455 92.4264 36.1255 92.9264C36.0355 93.4364 35.9456 93.9364 35.8556 94.4264C35.6756 95.3964 35.5156 96.3164 35.3556 97.1664C35.2756 97.5864 35.2355 98.0064 35.1755 98.3964C35.1255 98.7864 35.0756 99.1564 35.0356 99.5064C34.9456 100.206 34.8756 100.806 34.8156 101.316C34.6956 102.316 34.6356 102.886 34.6356 102.886L34.6255 102.946C34.5455 103.756 33.8156 104.346 33.0056 104.266C32.1956 104.186 31.6055 103.456 31.6855 102.646C31.6855 102.606 31.6956 102.556 31.7056 102.516C31.7056 102.516 31.8155 101.936 31.9955 100.926C32.0855 100.416 32.1956 99.8064 32.3156 99.0964C32.3756 98.7464 32.4356 98.3664 32.5056 97.9664C32.5756 97.5664 32.6355 97.1564 32.7355 96.7164C32.9155 95.8464 33.1055 94.9164 33.3055 93.9164C33.4055 93.4164 33.5155 92.9064 33.6155 92.3864C33.7455 91.8664 33.8656 91.3364 34.0056 90.8064C34.1356 90.2664 34.2756 89.7264 34.4056 89.1664C34.5456 88.6164 34.6656 88.0464 34.8456 87.4964C35.1856 86.3764 35.5055 85.2364 35.8755 84.1164C36.0755 83.5564 36.2756 82.9964 36.4756 82.4364C36.5756 82.1564 36.6756 81.8764 36.7756 81.6064L36.9255 81.1864C36.9755 81.0464 37.0456 80.9164 37.0956 80.7764C37.3256 80.2364 37.5556 79.6964 37.7756 79.1664C37.8856 78.9064 38.0055 78.6364 38.1155 78.3764C38.2455 78.1164 38.3755 77.8664 38.4955 77.6164C38.7455 77.1164 38.9955 76.6164 39.2455 76.1364C39.5055 75.6564 39.7955 75.2064 40.0555 74.7564C40.1855 74.5364 40.3256 74.3164 40.4456 74.0964C40.5756 73.8764 40.7355 73.6764 40.8655 73.4764C41.1555 73.0764 41.4155 72.6764 41.6855 72.3064C41.9755 71.9464 42.2656 71.6064 42.5256 71.2764C42.5956 71.1964 42.6556 71.1164 42.7256 71.0364C42.7956 70.9564 42.8655 70.8864 42.9355 70.8164C43.0755 70.6664 43.2156 70.5264 43.3456 70.3864C43.4756 70.2464 43.6055 70.1164 43.7355 69.9864C43.8755 69.8664 44.0056 69.7464 44.1356 69.6364C44.3856 69.4164 44.6255 69.2064 44.8655 69.0464C45.3255 68.6964 45.7256 68.4664 46.0356 68.2964C46.2056 68.2064 46.3555 68.1464 46.4355 68.1064C46.5055 68.0764 46.5356 68.0664 46.5356 68.0664C47.1856 67.8064 47.9155 68.1264 48.1755 68.7664C48.4355 69.4164 48.1256 70.1464 47.4756 70.4064H47.4656L47.4855 70.4364Z" fill="#0C0C0C"/>
<path d="M34.2756 101.926C34.2756 101.926 34.2256 102.276 34.1356 102.876C34.0456 103.476 33.9256 104.346 33.7756 105.386C33.6256 106.426 33.4656 107.636 33.2956 108.936C33.2156 109.586 33.1156 110.256 33.0356 110.936C32.9556 111.616 32.8656 112.316 32.7856 113.006C32.6956 113.696 32.6256 114.396 32.5456 115.076C32.4756 115.756 32.4056 116.436 32.3356 117.086C32.2556 117.736 32.2156 118.366 32.1656 118.966C32.1156 119.566 32.0656 120.126 32.0256 120.646C31.9756 121.166 31.9655 121.646 31.9355 122.066C31.9155 122.486 31.8956 122.856 31.8856 123.166C31.8556 123.776 31.8456 124.126 31.8456 124.126V124.156C31.8356 124.406 31.6255 124.596 31.3755 124.586C31.1355 124.576 30.9456 124.376 30.9456 124.136C30.9456 124.136 30.9455 123.786 30.9355 123.166C30.9355 122.856 30.9355 122.486 30.9255 122.046C30.9255 121.616 30.9055 121.126 30.9355 120.606C30.9555 120.076 30.9655 119.506 30.9855 118.906C31.0055 118.306 31.0155 117.666 31.0555 117.006C31.0855 116.346 31.1256 115.666 31.1556 114.976C31.1856 114.286 31.2256 113.586 31.2756 112.886C31.3256 112.186 31.3656 111.486 31.4056 110.796C31.4456 110.106 31.5055 109.426 31.5555 108.776C31.6455 107.466 31.7456 106.236 31.8356 105.186C31.9256 104.136 32.0055 103.256 32.0555 102.646C32.1155 102.036 32.1456 101.686 32.1456 101.686C32.1956 101.086 32.7256 100.646 33.3256 100.706C33.9256 100.756 34.3655 101.286 34.3055 101.886C34.2855 101.886 34.2856 101.896 34.2756 101.926Z" fill="#0C0C0C"/>
<path d="M52.1556 97.8665C67.4656 87.6965 58.2855 73.0565 56.9955 71.1465C56.9155 71.0365 56.9056 70.8465 56.9756 70.7265C59.3256 66.4265 57.0156 63.1265 56.3456 62.3265C56.2556 62.2165 56.2155 62.0265 56.2455 61.8965C56.7455 59.7165 54.9656 58.3665 54.3256 57.9665C54.2056 57.8965 54.1155 57.9565 54.0655 58.0865C53.9955 58.2565 53.8555 58.4265 53.7355 58.5565C53.6455 58.6565 53.4556 58.6965 53.3556 58.6065C53.1056 58.3865 52.9155 58.0065 52.8055 57.7565C52.7555 57.6265 52.6256 57.5965 52.5156 57.6765L52.1356 57.9765C52.0256 58.0565 51.8455 58.0565 51.7455 57.9765L51.3655 57.6765C51.2555 57.5865 51.1256 57.6265 51.0756 57.7565C50.9656 58.0065 50.7756 58.3865 50.5256 58.6065C50.4156 58.6965 50.2356 58.6565 50.1456 58.5565C50.0356 58.4265 49.8956 58.2465 49.8256 58.0865C49.7656 57.9565 49.6855 57.8965 49.5655 57.9665C48.9355 58.3665 47.1456 59.7165 47.6456 61.8965C47.6756 62.0365 47.6356 62.2165 47.5456 62.3265C46.8856 63.1265 44.5656 66.4265 46.9156 70.7265C46.9856 70.8465 46.9756 71.0365 46.8956 71.1465C45.6056 73.0465 36.4255 87.6865 51.7355 97.8665C51.8555 97.9465 52.0456 97.9465 52.1556 97.8665Z" fill="#0C0C0C"/>
<path d="M55.2555 62.3765L57.6556 57.0665C57.7356 56.8965 57.9356 56.8265 58.0956 56.8965C58.2556 56.9665 58.3356 57.1565 58.2656 57.3165L56.2355 62.7765C56.1355 63.0565 55.8256 63.1965 55.5456 63.0865C55.2656 62.9865 55.1256 62.6765 55.2256 62.3965C55.2456 62.3965 55.2455 62.3865 55.2555 62.3765Z" fill="#0C0C0C"/>
<path d="M57.7655 57.4364L54.3556 53.7964C54.2656 53.6964 54.2655 53.5364 54.3655 53.4464C54.4655 53.3564 54.6256 53.3564 54.7156 53.4564L58.1455 57.0764C58.2455 57.1864 58.2455 57.3464 58.1355 57.4464C58.0355 57.5464 57.8655 57.5364 57.7655 57.4364Z" fill="#0C0C0C"/>
<path d="M54.6556 53.7764L52.7056 55.1564C52.6356 55.2064 52.5355 55.1864 52.4855 55.1164C52.4355 55.0464 52.4556 54.9564 52.5156 54.9064L54.4156 53.4564C54.4956 53.3864 54.6256 53.4064 54.6956 53.4964C54.7656 53.5864 54.7456 53.7064 54.6556 53.7764Z" fill="#0C0C0C"/>
<path d="M55.4756 63.6464C55.4756 63.6464 55.5256 63.5864 55.6056 63.4764C55.6856 63.3764 55.8156 63.2064 55.9756 62.9964C56.1356 62.7764 56.3256 62.5164 56.5456 62.2064C56.7656 61.8964 56.9956 61.5464 57.2556 61.1564C57.5156 60.7664 57.7756 60.3364 58.0656 59.8864C58.3356 59.4264 58.6356 58.9464 58.9156 58.4264C59.0556 58.1764 59.2056 57.9164 59.3456 57.6464C59.4856 57.3764 59.6256 57.1064 59.7656 56.8364C60.0556 56.2964 60.3156 55.7264 60.5856 55.1664C60.8556 54.6064 61.0856 54.0264 61.3356 53.4664C61.5756 52.9064 61.7856 52.3364 62.0056 51.7864C62.2156 51.2464 62.3956 50.7064 62.6056 50.2064C62.8156 49.7064 62.9755 49.2264 63.1155 48.7764C63.2455 48.3264 63.3756 47.9164 63.4456 47.5464C63.5256 47.1764 63.5756 46.8464 63.6256 46.5764C63.7156 46.0364 63.7355 45.7164 63.7355 45.7164V45.6764C63.7755 45.0464 64.3156 44.5764 64.9456 44.6164C65.5656 44.6564 66.0456 45.1964 66.0056 45.8264C65.9956 45.9664 65.9656 46.0964 65.9156 46.2164C65.9156 46.2164 65.7756 46.5164 65.5956 47.0564C65.4956 47.3264 65.3956 47.6564 65.2756 48.0364C65.1656 48.4164 65.0156 48.8364 64.8756 49.3064C64.7356 49.7764 64.6256 50.2864 64.4556 50.8264C64.2956 51.3564 64.1356 51.9264 63.9056 52.4964C63.6856 53.0664 63.4656 53.6564 63.2156 54.2464C62.9556 54.8264 62.7156 55.4364 62.4356 56.0264C62.1556 56.6164 61.8856 57.2064 61.5856 57.7664C61.4356 58.0464 61.2956 58.3364 61.1456 58.6164C60.9956 58.8864 60.8456 59.1664 60.6956 59.4264C60.4056 59.9664 60.0956 60.4664 59.8156 60.9464C59.5156 61.4264 59.2456 61.8764 58.9756 62.2764C58.7056 62.6864 58.4556 63.0564 58.2156 63.3764C57.9856 63.7064 57.7756 63.9864 57.6056 64.2164C57.4256 64.4464 57.2956 64.6264 57.1856 64.7564C57.0856 64.8764 57.0356 64.9464 57.0356 64.9464C56.6856 65.3764 56.0455 65.4364 55.6155 65.0864C55.1855 64.7364 55.1256 64.1064 55.4656 63.6764L55.4756 63.6464Z" fill="#0C0C0C"/>
<path d="M63.9455 45.7366C63.9455 45.7366 64.0455 45.4266 64.1955 44.8966C64.3555 44.3566 64.5755 43.5966 64.8155 42.6666C65.0655 41.7366 65.3356 40.6566 65.6056 39.4866C65.7456 38.9066 65.8856 38.2966 66.0156 37.6866C66.1456 37.0666 66.2756 36.4466 66.4056 35.8166C66.5356 35.1866 66.6456 34.5566 66.7656 33.9466C66.8756 33.3266 66.9856 32.7166 67.0856 32.1266C67.1856 31.5366 67.2656 30.9666 67.3456 30.4266C67.4256 29.8866 67.4955 29.3766 67.5555 28.8966C67.6255 28.4266 67.6455 27.9866 67.6855 27.6066C67.7155 27.2266 67.7456 26.8866 67.7756 26.6166C67.8256 26.0666 67.8456 25.7566 67.8456 25.7566V25.6966C67.8956 24.9366 68.5455 24.3566 69.3055 24.4066C70.0655 24.4566 70.6456 25.1066 70.5956 25.8666C70.5956 25.9566 70.5755 26.0466 70.5555 26.1266C70.5555 26.1266 70.4756 26.4466 70.3356 27.0066C70.2756 27.2866 70.1856 27.6266 70.0956 28.0166C69.9956 28.4066 69.9056 28.8466 69.7856 29.3166C69.5356 30.2566 69.2755 31.3566 68.9855 32.5366C68.8355 33.1266 68.6856 33.7266 68.5256 34.3466C68.3756 34.9666 68.2255 35.5866 68.0555 36.2166C67.7455 37.4666 67.4356 38.7166 67.1456 39.8866C66.9956 40.4666 66.8655 41.0366 66.7355 41.5766C66.6055 42.1166 66.4855 42.6266 66.3655 43.0866C66.2555 43.5566 66.1555 43.9866 66.0655 44.3666C65.9755 44.7466 65.9056 45.0866 65.8456 45.3566C65.7256 45.9066 65.6556 46.2166 65.6556 46.2166V46.2266C65.5456 46.7066 65.0756 47.0166 64.5956 46.9066C64.1156 46.8066 63.8056 46.3266 63.9156 45.8466C63.9256 45.7866 63.9355 45.7566 63.9455 45.7366Z" fill="#0C0C0C"/>
<path d="M68.4056 26.1965C68.4056 26.1965 68.7456 24.5864 69.2656 22.1664C69.5156 20.9564 69.8156 19.5464 70.1356 18.0364C70.4556 16.5264 70.7855 14.9165 71.1155 13.2965C71.4455 11.6765 71.7656 10.0665 72.0756 8.55645C72.2256 7.79645 72.3856 7.06645 72.5056 6.37645C72.6356 5.68645 72.7555 5.02645 72.8655 4.41645C73.3155 1.98645 73.6056 0.366451 73.6056 0.366451L73.6155 0.34645C73.6555 0.11645 73.8756 -0.0335497 74.1056 0.00645033C74.3256 0.0464503 74.4756 0.256452 74.4456 0.476452C74.4456 0.476452 74.1956 2.10645 73.8156 4.55645C73.7256 5.16645 73.6156 5.83645 73.5156 6.53645C73.4156 7.23645 73.2756 7.97645 73.1456 8.73645C72.8856 10.2565 72.6056 11.8865 72.3256 13.5165C72.0456 15.1465 71.7555 16.7664 71.4855 18.2864C71.2155 19.8064 70.9555 21.2265 70.7355 22.4465C70.2855 24.8765 69.9955 26.4964 69.9955 26.4964C69.9155 26.9264 69.5056 27.2164 69.0656 27.1364C68.6356 27.0564 68.3455 26.6364 68.4255 26.2064C68.4055 26.2164 68.4056 26.2065 68.4056 26.1965Z" fill="#0C0C0C"/>
<path d="M56.1855 65.0266C56.1855 65.0266 56.4555 64.8766 56.9255 64.6166C57.3855 64.3566 58.0556 63.9866 58.8456 63.5266C59.2456 63.2966 59.6756 63.0466 60.1256 62.7866C60.5756 62.5166 61.0456 62.2266 61.5356 61.9366C62.0256 61.6466 62.5356 61.3366 63.0456 61.0166C63.5556 60.6966 64.0756 60.3766 64.5856 60.0566C65.1056 59.7366 65.6056 59.3966 66.1056 59.0666C66.6056 58.7366 67.0956 58.4066 67.5656 58.0966C68.0456 57.7866 68.4756 57.4566 68.9056 57.1566C69.3256 56.8566 69.7256 56.5766 70.0956 56.3066C70.1856 56.2366 70.2755 56.1766 70.3655 56.1166C70.4455 56.0466 70.5256 55.9866 70.6056 55.9166C70.7656 55.7866 70.9155 55.6666 71.0555 55.5466C71.3355 55.3066 71.5656 55.0966 71.7556 54.9166C72.1356 54.5566 72.3356 54.3366 72.3356 54.3366L72.3956 54.2666C72.9256 53.6566 73.8456 53.5966 74.4456 54.1166C75.0556 54.6466 75.1256 55.5666 74.5956 56.1666C74.4756 56.3066 74.3355 56.4166 74.1855 56.4966C74.1855 56.4966 73.8955 56.6466 73.4355 56.9566C73.2055 57.1066 72.9255 57.3066 72.6155 57.5366C72.4555 57.6466 72.2956 57.7766 72.1256 57.9066C72.0456 57.9766 71.9555 58.0366 71.8655 58.1066C71.7755 58.1666 71.6856 58.2366 71.5856 58.3066C71.2056 58.5766 70.7956 58.8666 70.3556 59.1766C69.9156 59.4766 69.4656 59.8266 68.9756 60.1366C68.4856 60.4566 67.9856 60.7866 67.4756 61.1266C66.9656 61.4666 66.4455 61.8066 65.9255 62.1266C65.4055 62.4566 64.8856 62.7966 64.3756 63.1166C63.8656 63.4466 63.3555 63.7566 62.8655 64.0666C61.8755 64.6766 60.9555 65.2366 60.1755 65.7266C59.3855 66.2166 58.7256 66.6066 58.2556 66.8866C57.7956 67.1666 57.5256 67.3266 57.5256 67.3266C56.8956 67.7066 56.0755 67.5066 55.6855 66.8666C55.3055 66.2366 55.5056 65.4166 56.1456 65.0366C56.1556 65.0266 56.1755 65.0166 56.1855 65.0166V65.0266Z" fill="#0C0C0C"/>
<path d="M71.8155 55.2265C71.8155 55.2265 72.0655 55.0265 72.4955 54.6865C72.9255 54.3365 73.5356 53.8265 74.2756 53.2065C74.6456 52.8965 75.0255 52.5565 75.4455 52.1965C75.8555 51.8365 76.2855 51.4465 76.7355 51.0465C77.1755 50.6365 77.6356 50.2265 78.0956 49.7965C78.5456 49.3665 79.0156 48.9265 79.4656 48.4866C79.9256 48.0466 80.3755 47.5965 80.8055 47.1465C81.0255 46.9265 81.2456 46.7066 81.4556 46.4866C81.6656 46.2666 81.8755 46.0465 82.0755 45.8265C82.4855 45.3965 82.8656 44.9665 83.2156 44.5566C83.5756 44.1466 83.8855 43.7465 84.1755 43.3765C84.3155 43.1865 84.4555 43.0165 84.5755 42.8465C84.6955 42.6765 84.8056 42.5065 84.9156 42.3465C85.1256 42.0365 85.3055 41.7665 85.4255 41.5365C85.6755 41.0765 85.8155 40.8165 85.8155 40.8165L85.8556 40.7465C86.1856 40.1065 86.9755 39.8565 87.6155 40.1865C88.2555 40.5165 88.5055 41.3065 88.1755 41.9465C88.1355 42.0365 88.0655 42.1165 88.0055 42.1965C88.0055 42.1965 87.7756 42.4665 87.3956 42.9365C87.2956 43.0465 87.2056 43.1865 87.0856 43.3165C86.9656 43.4465 86.8356 43.5965 86.7056 43.7465C86.4356 44.0565 86.1356 44.3965 85.7956 44.7565C85.4556 45.1165 85.1056 45.5165 84.7056 45.9165C84.3156 46.3265 83.9155 46.7565 83.4855 47.1865C83.2755 47.4065 83.0556 47.6265 82.8356 47.8565C82.6156 48.0765 82.3956 48.2965 82.1656 48.5265C81.7156 48.9765 81.2456 49.4265 80.7856 49.8765C80.3256 50.3265 79.8455 50.7665 79.3855 51.2065C78.9255 51.6365 78.4656 52.0666 78.0256 52.4866C77.1356 53.3066 76.3056 54.0665 75.5956 54.7265C74.8856 55.3865 74.2855 55.9265 73.8655 56.2965C73.4455 56.6765 73.2056 56.8965 73.2056 56.8965C72.7656 57.2965 72.0755 57.2665 71.6755 56.8265C71.2755 56.3865 71.3055 55.6965 71.7455 55.2965C71.7655 55.2865 71.7756 55.2665 71.7956 55.2565L71.8155 55.2265Z" fill="#0C0C0C"/>
<path d="M85.7355 41.4965C85.7355 41.4965 85.9855 41.1665 86.4255 40.5965C86.8655 40.0265 87.4956 39.2065 88.2556 38.2365C89.7756 36.2965 91.8356 33.7365 93.9756 31.2365C95.0456 29.9865 96.1356 28.7465 97.1856 27.6165C97.7156 27.0465 98.2256 26.5065 98.7256 25.9965C99.2256 25.4865 99.6956 25.0165 100.156 24.5965C100.606 24.1665 101.036 23.7865 101.426 23.4665C101.806 23.1365 102.166 22.8665 102.466 22.6465C102.766 22.4365 103.006 22.2665 103.186 22.1765C103.356 22.0765 103.446 22.0165 103.446 22.0165C103.596 21.9265 103.776 21.9765 103.866 22.1265C103.946 22.2665 103.906 22.4465 103.776 22.5365L103.756 22.5565C103.756 22.5565 103.676 22.6165 103.526 22.7165C103.366 22.8065 103.156 22.9765 102.876 23.1965C102.606 23.4165 102.286 23.6965 101.926 24.0265C101.566 24.3565 101.176 24.7565 100.756 25.1965C100.336 25.6365 99.8855 26.1265 99.4255 26.6465C98.9655 27.1665 98.4856 27.7365 97.9956 28.3165C97.0156 29.4865 96.0056 30.7665 95.0156 32.0665C93.0256 34.6565 91.1156 37.3065 89.7056 39.3165C88.9956 40.3165 88.4156 41.1565 88.0156 41.7465C87.6156 42.3365 87.3856 42.6765 87.3856 42.6765L87.3756 42.6865C87.0656 43.1465 86.4455 43.2565 85.9855 42.9465C85.5255 42.6365 85.4056 42.0165 85.7256 41.5565C85.7156 41.5265 85.7255 41.5065 85.7355 41.4965Z" fill="#0C0C0C"/>
<path d="M56.7556 67.1064C56.7556 67.1064 57.0456 67.0864 57.5456 67.0564C58.0456 67.0264 58.7655 66.9764 59.6255 66.9164C61.3455 66.7864 63.6355 66.6164 65.9255 66.4364C67.0755 66.3564 68.2156 66.2664 69.2956 66.1964C69.8356 66.1564 70.3556 66.1264 70.8556 66.0964C71.3556 66.0664 71.8156 66.0164 72.2556 65.9964C73.1356 65.9264 73.8756 65.8664 74.3856 65.8264C74.9256 65.7964 75.2455 65.7764 75.2455 65.7764C75.9455 65.7164 76.5555 66.2364 76.6155 66.9264C76.6755 67.6264 76.1556 68.2364 75.4656 68.2964C75.3456 68.3064 75.2256 68.2964 75.1056 68.2764L75.0456 68.2664C75.0456 68.2664 74.7856 68.2164 74.3356 68.1364C74.0956 68.1064 73.8056 68.0764 73.4656 68.0564C73.1256 68.0264 72.7356 68.0264 72.3156 68.0064C71.8956 67.9964 71.4256 67.9964 70.9456 68.0064C70.4556 68.0164 69.9456 68.0364 69.4056 68.0664C68.3456 68.1164 67.2056 68.1864 66.0656 68.2664C64.9256 68.3464 63.7856 68.4364 62.7156 68.5364C61.6456 68.6364 60.6555 68.7364 59.8055 68.8264C58.9555 68.9264 58.2455 69.0064 57.7455 69.0664C57.2455 69.1364 56.9656 69.1664 56.9656 69.1664C56.4056 69.2364 55.8856 68.8464 55.8156 68.2764C55.7356 67.7164 56.1356 67.1964 56.6956 67.1164C56.7056 67.1064 56.7256 67.1064 56.7556 67.1064Z" fill="#0C0C0C"/>
<path d="M74.7756 66.2065C74.7756 66.2065 75.1656 66.2065 75.8256 66.2465C76.1556 66.2665 76.5556 66.2965 77.0156 66.3465C77.4756 66.3965 77.9956 66.4465 78.5556 66.5365C79.1156 66.6165 79.7256 66.7165 80.3656 66.8465C81.0056 66.9665 81.6856 67.1165 82.3856 67.3065C82.7356 67.4065 83.0956 67.4965 83.4456 67.6165C83.8056 67.7365 84.1556 67.9065 84.4956 68.0965C84.8356 68.2965 85.1756 68.5065 85.5256 68.7365C85.8656 68.9665 86.2156 69.1965 86.5856 69.4865C87.7256 70.4565 88.8656 71.4265 89.9356 72.3265C91.0056 73.2365 92.0056 74.0765 92.8656 74.7965C93.7256 75.5165 94.4556 76.0965 94.9556 76.5165C95.4656 76.9265 95.7556 77.1565 95.7556 77.1565C95.8956 77.2665 95.9156 77.4665 95.8056 77.6065C95.6956 77.7465 95.4956 77.7665 95.3556 77.6665C95.3556 77.6665 95.0656 77.4366 94.5456 77.0366C94.0256 76.6466 93.2856 76.0765 92.3756 75.4165C91.4756 74.7465 90.4156 73.9865 89.2756 73.1865C88.7056 72.7865 88.1156 72.3665 87.5056 71.9565C86.8956 71.5465 86.2756 71.1265 85.6556 70.7065C85.4156 70.5565 85.0956 70.4365 84.7656 70.3565C84.4356 70.2765 84.0856 70.2265 83.7356 70.1665C83.3856 70.1165 83.0456 70.0465 82.7156 69.9565C82.3856 69.8665 82.0556 69.7665 81.7256 69.6765C81.0656 69.4965 80.4256 69.3265 79.8256 69.1565C79.2156 68.9965 78.6356 68.8465 78.1056 68.7065C77.5656 68.5765 77.0856 68.4265 76.6456 68.3165C76.2056 68.1965 75.8256 68.0865 75.5156 68.0065C74.8856 67.8265 74.5356 67.7165 74.5356 67.7165C74.1256 67.5865 73.9056 67.1565 74.0356 66.7465C74.1456 66.4165 74.4556 66.2065 74.7756 66.2065Z" fill="#0C0C0C"/>
<path d="M57.3055 68.0765C57.3055 68.0765 57.3356 68.0865 57.4056 68.1165C57.4856 68.1565 57.6355 68.2165 57.8055 68.3065C58.1155 68.4765 58.5156 68.7065 58.9756 69.0565C59.2156 69.2165 59.4456 69.4265 59.7056 69.6465C59.8356 69.7565 59.9656 69.8765 60.1056 69.9965C60.2356 70.1165 60.3555 70.2565 60.4955 70.3965C60.6255 70.5365 60.7656 70.6765 60.9056 70.8265C60.9756 70.8965 61.0455 70.9765 61.1155 71.0465C61.1855 71.1265 61.2455 71.2065 61.3155 71.2865C61.5855 71.6165 61.8656 71.9565 62.1556 72.3165C62.4256 72.6865 62.6956 73.0865 62.9756 73.4865C63.1156 73.6865 63.2656 73.8865 63.3956 74.1065C63.5256 74.3265 63.6556 74.5465 63.7856 74.7665C64.0456 75.2165 64.3356 75.6665 64.5956 76.1465C64.8456 76.6265 65.0956 77.1265 65.3456 77.6265C65.4756 77.8765 65.5956 78.1265 65.7256 78.3865C65.8356 78.6465 65.9455 78.9165 66.0655 79.1765C66.2855 79.7065 66.5155 80.2465 66.7455 80.7865C66.8055 80.9265 66.8656 81.0565 66.9156 81.1965L67.0655 81.6165C67.1655 81.8965 67.2655 82.1665 67.3655 82.4465C67.5655 83.0065 67.7656 83.5665 67.9756 84.1265C68.3456 85.2565 68.6656 86.3965 69.0056 87.5065C69.1856 88.0665 69.3056 88.6265 69.4456 89.1765C69.5856 89.7265 69.7156 90.2765 69.8456 90.8165C69.9756 91.3565 70.1056 91.8865 70.2256 92.3965C70.3356 92.9165 70.4356 93.4265 70.5356 93.9265C70.7356 94.9165 70.9256 95.8565 71.1056 96.7265C71.2056 97.1565 71.2656 97.5765 71.3356 97.9765C71.4056 98.3765 71.4656 98.7465 71.5256 99.1065C71.6456 99.8165 71.7556 100.427 71.8456 100.937C72.0256 101.947 72.1356 102.527 72.1356 102.527C72.2856 103.327 71.7656 104.107 70.9656 104.257C70.1656 104.417 69.3855 103.887 69.2355 103.087C69.2255 103.047 69.2256 103.007 69.2156 102.957L69.2056 102.897C69.2056 102.897 69.1456 102.327 69.0256 101.327C68.9656 100.827 68.8955 100.217 68.8055 99.5165C68.7655 99.1665 68.7156 98.7965 68.6656 98.4065C68.6156 98.0165 68.5755 97.5965 68.4955 97.1765C68.3455 96.3265 68.1755 95.4065 67.9955 94.4365C67.9055 93.9465 67.8156 93.4465 67.7256 92.9365C67.6056 92.4365 67.4855 91.9165 67.3655 91.3965C67.2455 90.8765 67.1155 90.3365 66.9855 89.8065C66.8555 89.2665 66.7355 88.7165 66.5655 88.1865C66.2455 87.1065 65.9456 85.9965 65.5956 84.9165C65.4056 84.3765 65.2156 83.8465 65.0256 83.3065C64.9356 83.0365 64.8355 82.7765 64.7455 82.5065L64.6056 82.1065C64.5556 81.9765 64.4956 81.8465 64.4456 81.7165C64.2256 81.2065 64.0156 80.6965 63.7956 80.1865C63.6856 79.9365 63.5856 79.6865 63.4756 79.4365C63.3556 79.1965 63.2355 78.9565 63.1155 78.7265C62.8755 78.2565 62.6456 77.7865 62.4156 77.3365C62.1756 76.8865 61.9156 76.4765 61.6656 76.0565C61.5456 75.8465 61.4155 75.6465 61.3055 75.4465C61.1855 75.2465 61.0456 75.0665 60.9156 74.8865C60.6556 74.5165 60.4156 74.1665 60.1656 73.8365C59.9056 73.5265 59.6556 73.2165 59.4156 72.9365C59.3556 72.8665 59.2955 72.7965 59.2355 72.7265C59.1755 72.6665 59.1155 72.5965 59.0555 72.5365C58.9355 72.4165 58.8156 72.2965 58.6956 72.1765C58.5756 72.0665 58.4755 71.9465 58.3655 71.8465C58.2455 71.7465 58.1456 71.6565 58.0356 71.5665C57.8256 71.3865 57.6356 71.2165 57.4556 71.0965C57.1056 70.8265 56.8056 70.6665 56.6356 70.5665C56.5656 70.5365 56.5256 70.5065 56.4756 70.4865C56.4056 70.4665 56.3755 70.4465 56.3755 70.4465L56.3456 70.4365C55.6956 70.1865 55.3755 69.4565 55.6255 68.8065C55.9155 68.1365 56.6455 67.8165 57.3055 68.0765Z" fill="#0C0C0C"/>
<path d="M71.7756 101.666C71.7756 101.666 71.8055 102.016 71.8655 102.626C71.9155 103.236 71.9956 104.116 72.0856 105.166C72.1756 106.216 72.2755 107.436 72.3655 108.756C72.4155 109.416 72.4656 110.086 72.5156 110.776C72.5556 111.466 72.6056 112.166 72.6456 112.866C72.6956 113.566 72.7356 114.266 72.7656 114.956C72.7956 115.646 72.8355 116.326 72.8655 116.986C72.9055 117.646 72.9155 118.286 72.9355 118.886C72.9555 119.486 72.9655 120.066 72.9855 120.586C73.0055 121.116 72.9955 121.606 72.9955 122.026C72.9955 122.456 72.9855 122.836 72.9855 123.146C72.9755 123.766 72.9756 124.116 72.9756 124.116C72.9756 124.366 72.7656 124.566 72.5156 124.566C72.2756 124.566 72.0755 124.376 72.0655 124.136V124.106C72.0655 124.106 72.0456 123.756 72.0156 123.146C72.0056 122.846 71.9856 122.476 71.9656 122.046C71.9456 121.626 71.9355 121.146 71.8755 120.626C71.8355 120.106 71.7855 119.536 71.7355 118.946C71.6855 118.346 71.6355 117.716 71.5655 117.066C71.4955 116.416 71.4256 115.746 71.3556 115.056C71.2856 114.376 71.2055 113.676 71.1155 112.986C71.0355 112.296 70.9455 111.596 70.8655 110.916C70.7855 110.236 70.6956 109.566 70.6056 108.916C70.4356 107.616 70.2755 106.406 70.1255 105.366C69.9755 104.326 69.8556 103.466 69.7656 102.856C69.6756 102.246 69.6255 101.906 69.6255 101.906C69.5355 101.316 69.9456 100.756 70.5456 100.676C71.1356 100.586 71.6956 100.996 71.7756 101.586C71.7656 101.626 71.7656 101.646 71.7756 101.666Z" fill="#0C0C0C"/>
</svg>
