<svg width="72" height="72" viewBox="0 0 72 72" fill="none" xmlns="http://www.w3.org/2000/svg">
<path d="M54.0711 62.3687H17.8074C16.9033 62.3687 16.0363 62.7278 15.397 63.3671C14.7578 64.0063 14.3986 64.8733 14.3986 65.7774V69.1887C14.3986 69.3235 14.4251 69.457 14.4766 69.5815C14.5282 69.706 14.6038 69.8192 14.699 69.9145C14.7943 70.0098 14.9075 70.0855 15.032 70.137C15.1565 70.1886 15.29 70.2152 15.4247 70.2152H56.4535C56.7257 70.2152 56.9868 70.107 57.1793 69.9145C57.3718 69.7221 57.4799 69.461 57.4799 69.1887V65.7779C57.48 65.3302 57.3919 64.8868 57.2206 64.4732C57.0493 64.0596 56.7982 63.6837 56.4817 63.3672C56.1651 63.0506 55.7893 62.7995 55.3757 62.6281C54.9621 62.4568 54.5188 62.3686 54.0711 62.3687Z" fill="#F3F2F2"/>
<path d="M62.6558 6.95549H56.97V5.10385C56.97 4.52197 56.7389 3.96391 56.3275 3.55239C55.9161 3.14088 55.3581 2.9096 54.7762 2.90942H17.4861C17.1979 2.90941 16.9125 2.96616 16.6463 3.07643C16.38 3.18671 16.1381 3.34834 15.9343 3.55212C15.7305 3.75589 15.5689 3.99781 15.4586 4.26405C15.3483 4.5303 15.2915 4.81566 15.2915 5.10385V6.95549H9.34469C7.99903 6.95709 6.70895 7.49237 5.75743 8.44389C4.8059 9.39541 4.27063 10.6855 4.26902 12.0311V15.3193C4.23578 17.954 4.89352 20.5515 6.17671 22.8528C7.4599 25.1542 9.32374 27.0792 11.5825 28.4359C13.546 29.5685 15.7425 30.237 18.004 30.3904C18.0524 30.3936 18.1008 30.3952 18.1492 30.3953C18.2291 30.3928 18.3088 30.3853 18.3878 30.3728C20.5642 33.9097 23.7442 36.7187 27.5228 38.4419C28.9048 39.0972 30.07 40.1352 30.8799 41.4327C31.6898 42.7303 32.1105 44.2329 32.0922 45.7624V49.5304C32.0922 50.2056 31.8241 50.8531 31.3468 51.3305C30.8694 51.8079 30.222 52.0762 29.5469 52.0763H24.2845C23.4654 52.0763 22.6799 52.4017 22.1007 52.9809C21.5216 53.5601 21.1962 54.3456 21.1962 55.1647V59.3866H51.0658V55.1641C51.0656 54.3451 50.7402 53.5597 50.161 52.9806C49.5818 52.4016 48.7963 52.0763 47.9773 52.0763H42.7148C42.0396 52.0763 41.3921 51.8081 40.9147 51.3306C40.4373 50.8532 40.169 50.2057 40.169 49.5305V45.7619C40.1507 44.2324 40.5715 42.7298 41.3815 41.4322C42.1914 40.1347 43.3566 39.0967 44.7388 38.4414C48.5093 36.7221 51.6841 33.9216 53.8605 30.3951C53.9055 30.3951 53.951 30.3934 53.9964 30.3904C56.2576 30.2372 58.4538 29.5687 60.4168 28.4359C62.6758 27.0793 64.5398 25.1544 65.8232 22.853C67.1066 20.5516 67.7646 17.9541 67.7315 15.3193V12.0311C67.7299 10.6855 67.1946 9.39541 66.2431 8.44389C65.2916 7.49237 64.0015 6.95709 62.6558 6.95549ZM13.5547 25.0274C11.893 24.0172 10.5249 22.5895 9.58659 20.8862C8.64828 19.1829 8.17246 17.2636 8.20652 15.3193V12.0311C8.20685 11.7294 8.32687 11.4401 8.54024 11.2267C8.75362 11.0133 9.04293 10.8933 9.34469 10.893H15.2915V19.4655C15.2933 21.7398 15.6684 23.9984 16.402 26.1511C15.404 25.9147 14.4451 25.5363 13.5547 25.0274ZM44.0112 20.4526L41.615 22.1934C41.3403 22.393 41.1358 22.6744 41.031 22.9973C40.9261 23.3203 40.9261 23.6681 41.0311 23.991L41.9459 26.8073C42.0509 27.1303 42.0509 27.4782 41.946 27.8011C41.8411 28.1241 41.6366 28.4055 41.3619 28.6051C41.0872 28.8047 40.7563 28.9123 40.4168 28.9123C40.0772 28.9123 39.7463 28.8048 39.4716 28.6052L37.0754 26.8646C36.8007 26.6651 36.4699 26.5576 36.1304 26.5576C35.7909 26.5576 35.4601 26.6651 35.1854 26.8646L32.7891 28.6052C32.5144 28.8048 32.1835 28.9123 31.844 28.9123C31.5044 28.9123 31.1736 28.8047 30.8988 28.6051C30.6241 28.4055 30.4197 28.1241 30.3148 27.8011C30.2098 27.4782 30.2099 27.1303 30.3148 26.8073L31.2299 23.991C31.3348 23.6681 31.3347 23.3202 31.2298 22.9973C31.1248 22.6744 30.9204 22.393 30.6457 22.1934L28.251 20.4526C27.9762 20.253 27.7717 19.9716 27.6668 19.6486C27.5618 19.3257 27.5618 18.9778 27.6667 18.6548C27.7716 18.3318 27.9761 18.0504 28.2508 17.8508C28.5255 17.6512 28.8564 17.5437 29.196 17.5436H32.1571C32.4967 17.5437 32.8275 17.4362 33.1022 17.2366C33.377 17.0371 33.5815 16.7556 33.6864 16.4327L34.6016 13.6164C34.7065 13.2934 34.911 13.012 35.1857 12.8124C35.4605 12.6128 35.7913 12.5053 36.1309 12.5053C36.4704 12.5053 36.8013 12.6128 37.076 12.8124C37.3507 13.012 37.5552 13.2934 37.6601 13.6164L38.5753 16.4327C38.6804 16.7556 38.8849 17.0369 39.1596 17.2365C39.4343 17.436 39.7651 17.5436 40.1047 17.5436H43.0661C43.4057 17.5437 43.7365 17.6512 44.0112 17.8508C44.2859 18.0505 44.4903 18.3319 44.5952 18.6548C44.7002 18.9778 44.7002 19.3256 44.5953 19.6486C44.4903 19.9715 44.2859 20.2529 44.0112 20.4526ZM63.794 15.3192C63.8279 17.2637 63.3519 19.1832 62.4134 20.8865C61.4749 22.5899 60.1066 24.0178 58.4447 25.0279C57.6404 25.4887 56.7795 25.843 55.8838 26.0818C56.6019 23.9497 56.9689 21.715 56.9704 19.4651V10.8926H62.6558C62.9576 10.893 63.2469 11.013 63.4603 11.2264C63.6737 11.4397 63.7937 11.7291 63.794 12.0308V15.3192Z" fill="#F3F2F2"/>
</svg>
