<svg width="73" height="117" viewBox="0 0 73 117" fill="none" xmlns="http://www.w3.org/2000/svg">
<path d="M27.6896 25.0601C27.6896 25.0601 27.6796 25.0501 27.6596 25.0201C27.6396 24.9901 27.6096 24.9601 27.5696 24.9001C27.4996 24.8001 27.3996 24.6601 27.2696 24.4701C27.1496 24.2801 27.0096 24.0501 26.8596 23.7801C26.7196 23.5101 26.5596 23.1901 26.4196 22.8301C26.2796 22.4701 26.1396 22.0701 26.0296 21.6401C25.9696 21.4201 25.9296 21.1901 25.8896 20.9601C25.8596 20.7201 25.8196 20.4801 25.8196 20.2301C25.7896 19.7301 25.8196 19.2001 25.9096 18.6801C25.9296 18.5501 25.9596 18.4201 25.9896 18.2801C26.0296 18.1501 26.0596 18.0201 26.0996 17.8901L26.1596 17.6901L26.2296 17.5001L26.3796 17.1201C26.6096 16.6301 26.8696 16.1401 27.1896 15.7201C27.2696 15.6101 27.3496 15.5101 27.4296 15.4001C27.5196 15.3001 27.5996 15.2001 27.6796 15.1001C27.7696 15.0001 27.8496 14.9101 27.9296 14.8101C28.0196 14.7201 28.1096 14.6301 28.1996 14.5501C28.2896 14.4601 28.3796 14.3801 28.4596 14.2901C28.5496 14.2101 28.6396 14.1301 28.7296 14.0601C28.9096 13.9101 29.0896 13.7501 29.2696 13.6201C29.4496 13.4901 29.6296 13.3601 29.7996 13.2301C29.9696 13.1101 30.1396 13.0101 30.3096 12.9001C30.6296 12.6801 30.9396 12.5201 31.2196 12.3701C31.3596 12.2901 31.4796 12.2201 31.5996 12.1601C31.7196 12.1001 31.8296 12.0501 31.9296 12.0001C32.3296 11.8001 32.5596 11.6901 32.5596 11.6901C33.1496 11.4001 33.8596 11.6501 34.1496 12.2401C34.4396 12.8301 34.1896 13.5401 33.5996 13.8301C33.5696 13.8501 33.5396 13.8601 33.5096 13.8701L33.4596 13.8901C33.4596 13.8901 33.2496 13.9701 32.8796 14.1101C32.7896 14.1501 32.6796 14.1801 32.5696 14.2301C32.4596 14.2701 32.3396 14.3301 32.2196 14.3801C31.9696 14.4901 31.6796 14.6101 31.3896 14.7701C31.2396 14.8501 31.0896 14.9201 30.9296 15.0101C30.7796 15.1001 30.6196 15.2001 30.4596 15.3001C30.2896 15.3901 30.1496 15.5101 29.9796 15.6201C29.8996 15.6801 29.8196 15.7301 29.7296 15.7901C29.6496 15.8501 29.5796 15.9201 29.4996 15.9801C29.4196 16.0401 29.3396 16.1101 29.2596 16.1701C29.1896 16.2401 29.1096 16.3101 29.0396 16.3801C28.9696 16.4501 28.8896 16.5201 28.8196 16.6001C28.7496 16.6801 28.6896 16.7501 28.6196 16.8301C28.3396 17.1401 28.1096 17.4901 27.8996 17.8501L27.7696 18.1301L27.6996 18.2701L27.6396 18.4101L27.5296 18.7001C27.4996 18.8001 27.4696 18.9001 27.4496 19.0001C27.3496 19.4001 27.2796 19.8001 27.2696 20.2101C27.2596 20.4101 27.2696 20.6101 27.2796 20.8001C27.2996 20.9901 27.3096 21.1901 27.3496 21.3701C27.3996 21.7401 27.4896 22.1001 27.5896 22.4201C27.6796 22.7401 27.7996 23.0301 27.8996 23.2901C28.0096 23.5401 28.1096 23.7601 28.2096 23.9301C28.2996 24.1101 28.3796 24.2401 28.4296 24.3301C28.4596 24.3701 28.4796 24.4001 28.4896 24.4201C28.5096 24.4401 28.5096 24.4601 28.5096 24.4601L28.5196 24.4701C28.6696 24.7001 28.6096 25.0101 28.3796 25.1601C28.1296 25.3101 27.8496 25.2601 27.6896 25.0601Z" fill="#0C0C0C"/>
<path d="M26.4596 27.0401C26.4596 27.0401 26.4196 27.0201 26.3396 26.9701C26.2896 26.9401 26.2596 26.9201 26.2096 26.8801C26.1596 26.8501 26.1096 26.8101 26.0596 26.7701C25.8396 26.6001 25.5495 26.3401 25.2295 25.9901C24.9195 25.6401 24.5696 25.2001 24.2196 24.6701C23.8596 24.1501 23.5295 23.5301 23.1795 22.8601C23.0195 22.5201 22.8395 22.1601 22.6795 21.7901C22.5995 21.6001 22.5195 21.4101 22.4295 21.2201C22.3495 21.0301 22.2796 20.8301 22.1996 20.6301C22.0396 20.2201 21.8995 19.8401 21.7295 19.4301C21.5695 19.0301 21.3996 18.6101 21.2196 18.1901C20.4996 16.5201 19.6696 14.7601 18.7696 13.0401C18.3196 12.1801 17.8495 11.3301 17.3595 10.5101C16.8795 9.69006 16.3795 8.89006 15.8695 8.14006C14.8595 6.63006 13.8395 5.29005 12.8595 4.25005C12.3695 3.73005 11.9095 3.27007 11.4795 2.90007C11.0495 2.52007 10.6596 2.22007 10.3196 1.99007C9.98956 1.76007 9.71958 1.61005 9.52958 1.50005C9.33958 1.40005 9.23954 1.35006 9.23954 1.35006L9.21959 1.34008C8.86959 1.16008 8.73954 0.730065 8.91954 0.390065C9.09954 0.0500647 9.52955 -0.0899231 9.86955 0.0900769C9.86955 0.0900769 9.87957 0.100056 9.88957 0.100056C9.88957 0.100056 9.99959 0.170059 10.2196 0.290059C10.4296 0.420059 10.7395 0.610076 11.1095 0.870076C11.4795 1.14008 11.9095 1.48007 12.3695 1.90007C12.8295 2.32007 13.3196 2.81006 13.8196 3.38005C14.8196 4.51006 15.8796 5.90007 16.8996 7.46007C17.4096 8.24007 17.9096 9.06007 18.3996 9.90007C18.8896 10.7401 19.3696 11.6101 19.8296 12.4801C20.7496 14.2301 21.5996 16.0101 22.3296 17.7101C22.5096 18.1401 22.6895 18.5601 22.8595 18.9701C23.0295 19.3801 23.1796 19.8101 23.3396 20.1801C23.6296 20.9501 23.9796 21.6401 24.3096 22.2701C24.6496 22.8901 24.9996 23.4301 25.3396 23.8801C25.6796 24.3301 26.0095 24.6801 26.2895 24.9501C26.5795 25.2101 26.8096 25.3801 26.9696 25.4701C27.0096 25.4901 27.0396 25.51 27.0696 25.53C27.0896 25.54 27.1296 25.56 27.1296 25.56C27.1396 25.56 27.1396 25.5601 27.1496 25.5701C27.1596 25.5801 27.1695 25.5801 27.1695 25.5801L27.1896 25.5901C27.6096 25.7601 27.7996 26.2401 27.6296 26.6601C27.4596 27.0701 26.9796 27.2701 26.5596 27.1001C26.5296 27.0701 26.4896 27.0501 26.4596 27.0401Z" fill="#0C0C0C"/>
<path d="M26.8196 48.5001C25.2496 47.3201 19.3796 43.2101 17.3596 43.5701C17.3596 43.5701 16.9696 36.7401 16.6396 34.5301C16.3096 32.3201 14.9196 27.2401 13.7396 27.1501C13.7396 27.1501 13.9496 24.8201 13.4696 24.0101C12.9896 23.1901 12.1696 22.4701 12.1396 22.1401C12.1096 21.8101 11.8096 20.8101 10.9596 20.3601C10.9596 20.3601 10.8596 19.5901 11.4296 19.2601C11.5196 19.2101 11.5096 19.2001 11.4196 19.2301C11.1296 19.3401 10.5496 19.6601 10.4196 20.5701C10.4196 20.5701 9.62957 21.8401 10.8696 23.0501C12.1096 24.2601 13.0796 24.3201 13.0496 25.4401C13.0196 26.5601 12.6296 27.3801 12.6596 28.1301C12.6896 28.8901 13.8096 41.4601 16.1696 43.7901C16.1696 43.7901 17.1996 46.7201 21.2496 49.2901C24.6196 51.4301 26.9296 52.1201 28.5296 51.9601C29.0296 51.9101 29.2296 51.4001 28.9696 50.9701C28.5096 50.2601 27.7696 49.2101 26.8196 48.5001Z" fill="#0C0C0C"/>
<path d="M22.1496 59.5901C18.8996 58.4901 12.4196 57.7201 11.1496 59.3501C11.1496 59.3501 4.34959 66.1201 5.18959 75.9201C5.18959 75.9201 0.169564 79.0901 0.229564 81.6901C0.229564 81.6901 -0.220401 82.6901 0.139599 83.4701C0.179599 83.5601 0.219616 83.5501 0.219616 83.4501C0.209616 83.1101 0.249613 82.4001 0.779613 82.1501C1.47961 81.8201 2.34962 81.0001 2.65962 80.3101C2.95962 79.6101 5.71961 77.5301 5.83961 76.8901C5.83961 76.8901 8.1996 73.0201 9.1396 69.4501C10.0796 65.8801 11.5896 60.8001 11.5896 60.8001C11.5896 60.8001 16.1196 61.4101 19.1196 62.7001C22.6896 64.2401 24.8196 64.5601 26.2296 64.0001C26.6996 63.8201 26.9096 63.1001 26.6096 62.7001C25.8796 61.7601 25.1796 60.6201 22.1496 59.5901Z" fill="#0C0C0C"/>
<path d="M20.6196 71.6901C18.1696 73.2601 8.73961 78.3401 9.45961 84.5101C9.45961 84.5101 8.81961 86.5101 11.0896 93.7901C13.3596 101.08 15.7296 105.64 17.0496 106.82C17.0496 106.82 15.0796 109.54 14.0796 110.48C13.0796 111.42 13.2596 113.59 13.8696 114.62C13.8696 114.62 14.7096 116.32 16.2096 116C16.4096 115.96 16.3996 115.86 16.2096 115.8C15.6696 115.63 14.7496 115.19 15.2296 114.29C15.5496 113.69 16.2896 113.32 16.6196 111.99C16.9496 110.66 17.9496 108.39 17.8596 107.51C17.8596 107.51 17.0096 100.62 15.6796 97.1401C14.3496 93.6601 11.3596 85.6501 10.6596 85.0401C10.6596 85.0401 13.1696 82.0201 16.6196 79.9901C19.7096 78.1701 24.9596 74.9701 24.9496 72.3901C24.9496 71.8901 24.3996 71.2601 23.9196 71.1001C23.2096 70.8701 22.0496 70.7701 20.6196 71.6901Z" fill="#0C0C0C"/>
<path d="M36.3096 102.68C40.8796 102.68 41.9996 100.44 41.9996 100.44C44.5996 98.8701 44.4195 96.8101 44.4195 96.8101C46.9595 95.3001 47.1996 92.5801 47.1996 92.5801C49.5596 90.5801 48.9496 87.3201 48.9496 87.3201C50.3996 85.2601 49.5496 82.7201 49.5496 82.7201C51.2996 79.9401 49.9896 76.9801 49.9896 76.9801C50.9196 74.6801 49.4896 72.6901 49.4896 72.6901C50.8796 69.9101 48.9496 67.9101 48.9496 67.9101C49.3696 65.0701 47.5596 63.6201 47.5596 63.6201C47.9796 60.6601 45.9896 59.5101 45.9896 59.5101C48.2296 56.2401 44.4795 54.3701 44.4795 54.3701C44.8995 53.4601 44.0596 53.1001 44.0596 53.1001C45.9396 49.0501 42.1396 48.1401 42.1396 48.1401C42.1396 48.1401 45.3596 46.9001 45.3996 44.4501C45.4396 41.6101 43.6496 41.9701 43.2196 42.0901C42.7996 42.2101 42.1296 41.3601 42.1296 41.3601C46.9696 38.3401 48.1196 33.9801 47.9296 29.1401C47.7496 24.3001 45.2696 24.3601 45.2696 24.3601C44.0596 18.0701 36.3196 18.0101 36.3196 18.0101C36.3196 18.0101 28.5796 18.0701 27.3696 24.3601C27.3696 24.3601 24.8896 24.3001 24.7096 29.1401C24.5296 33.9801 25.6796 38.3301 30.5096 41.3601C30.5096 41.3601 29.8395 42.2101 29.4195 42.0901C28.9995 41.9701 27.2096 41.6101 27.2396 44.4501C27.2696 46.9001 30.4996 48.1401 30.4996 48.1401C30.4996 48.1401 26.6996 49.0501 28.5696 53.1001C28.5696 53.1001 27.7196 53.4601 28.1496 54.3701C28.1496 54.3701 24.3996 56.2501 26.6396 59.5101C26.6396 59.5101 24.6396 60.6601 25.0696 63.6201C25.0696 63.6201 23.2596 65.0701 23.6796 67.9101C23.6796 67.9101 21.7396 69.9101 23.1396 72.6901C23.1396 72.6901 21.7096 74.6901 22.6396 76.9801C22.6396 76.9801 21.3296 79.9401 23.0796 82.7201C23.0796 82.7201 22.2296 85.2601 23.6896 87.3201C23.6896 87.3201 23.0796 90.5901 25.4396 92.5801C25.4396 92.5801 25.6796 95.3001 28.2196 96.8101C28.2196 96.8101 28.0396 98.8701 30.6396 100.44C30.6296 100.44 31.7496 102.68 36.3096 102.68Z" fill="#0C0C0C"/>
<path d="M44.1296 24.4701C44.1296 24.4701 44.1396 24.4601 44.1496 24.4301C44.1596 24.4101 44.1796 24.3801 44.2096 24.3401C44.2596 24.2501 44.3396 24.1201 44.4296 23.9401C44.5196 23.7701 44.6296 23.5501 44.7396 23.3001C44.8396 23.0501 44.9596 22.7601 45.0496 22.4301C45.1496 22.1101 45.2295 21.7601 45.2895 21.3801C45.3195 21.1901 45.3295 21.0001 45.3495 20.8101C45.3495 20.6101 45.3695 20.4201 45.3495 20.2201C45.3395 19.8201 45.2796 19.4101 45.1696 19.0101C45.1396 18.9101 45.1096 18.8101 45.0796 18.7101L44.9696 18.4201L44.9096 18.2801L44.8396 18.1401L44.6996 17.8601C44.4896 17.5001 44.2596 17.1501 43.9796 16.8401C43.9096 16.7601 43.8396 16.6801 43.7796 16.6101C43.6996 16.5401 43.6296 16.4701 43.5596 16.3901C43.4896 16.3201 43.4096 16.2501 43.3396 16.1801C43.2596 16.1101 43.1795 16.0501 43.0995 15.9901C43.0195 15.9301 42.9396 15.8601 42.8696 15.8001C42.7896 15.7401 42.7096 15.6801 42.6296 15.6301C42.4696 15.5201 42.3196 15.4001 42.1496 15.3101C41.9896 15.2101 41.8296 15.1201 41.6796 15.0201C41.5296 14.9301 41.3696 14.8501 41.2196 14.7801C40.9296 14.6201 40.6396 14.5001 40.3896 14.3901C40.2596 14.3301 40.1495 14.2801 40.0395 14.2401C39.9295 14.2001 39.8196 14.1601 39.7296 14.1201C39.3596 13.9801 39.1496 13.9001 39.1496 13.9001L39.0995 13.8801C38.4895 13.6401 38.1796 12.9601 38.4196 12.3501C38.6596 11.7401 39.3396 11.4301 39.9596 11.6601C39.9896 11.6701 40.0196 11.6901 40.0596 11.7001C40.0596 11.7001 40.2896 11.8101 40.6896 12.0101C40.7896 12.0601 40.8996 12.1101 41.0196 12.1701C41.1396 12.2301 41.2696 12.3101 41.3996 12.3801C41.6796 12.5301 41.9896 12.7001 42.3096 12.9101C42.4696 13.0201 42.6396 13.1201 42.8196 13.2401C42.9896 13.3601 43.1695 13.4901 43.3495 13.6301C43.5295 13.7501 43.7096 13.9201 43.8896 14.0701C43.9796 14.1501 44.0696 14.2201 44.1596 14.3001C44.2496 14.3901 44.3296 14.4701 44.4196 14.5601C44.5096 14.6501 44.5996 14.7301 44.6896 14.8201C44.7796 14.9101 44.8596 15.0101 44.9396 15.1101C45.0196 15.2101 45.1096 15.3101 45.1896 15.4101C45.2696 15.5201 45.3496 15.6201 45.4296 15.7301C45.7496 16.1501 46.0096 16.6401 46.2396 17.1301L46.3896 17.5101L46.4596 17.7001L46.5196 17.9001C46.5596 18.0301 46.5896 18.1601 46.6296 18.2901C46.6596 18.4201 46.6796 18.5501 46.7096 18.6901C46.7996 19.2201 46.8296 19.7401 46.7996 20.2401C46.7896 20.4901 46.7496 20.7301 46.7296 20.9701C46.6896 21.2001 46.6496 21.4301 46.5896 21.6501C46.4896 22.0901 46.3496 22.4801 46.1996 22.8401C46.0596 23.2001 45.8996 23.5101 45.7596 23.7901C45.6096 24.0601 45.4695 24.3001 45.3495 24.4801C45.2295 24.6701 45.1296 24.8101 45.0496 24.9101C45.0096 24.9601 44.9796 25.0001 44.9596 25.0301C44.9396 25.0501 44.9296 25.0701 44.9296 25.0701C44.7596 25.2901 44.4396 25.3201 44.2296 25.1501C44.0296 24.9901 43.9796 24.7001 44.1196 24.4901L44.1296 24.4701Z" fill="#0C0C0C"/>
<path d="M45.4496 25.5701C45.4496 25.5701 45.4596 25.5701 45.4696 25.5601C45.4796 25.5601 45.4796 25.5601 45.4896 25.5501C45.4896 25.5501 45.5296 25.5301 45.5496 25.5201C45.5696 25.5101 45.6096 25.4901 45.6496 25.4601C45.8096 25.3701 46.0396 25.2001 46.3196 24.9401C46.6096 24.6801 46.9296 24.3201 47.2696 23.8701C47.6096 23.4201 47.9596 22.8801 48.2996 22.2601C48.6296 21.6301 48.9696 20.9401 49.2696 20.1701C49.4296 19.8001 49.5796 19.3701 49.7496 18.9601C49.9196 18.5501 50.0896 18.1301 50.2796 17.7001C51.0096 16.0001 51.8596 14.2101 52.7796 12.4701C53.2396 11.6001 53.7196 10.7301 54.2096 9.89011C54.6996 9.05011 55.1996 8.23011 55.7096 7.45011C56.7296 5.89011 57.7895 4.50012 58.7895 3.37012C59.2895 2.81012 59.7796 2.31011 60.2396 1.89011C60.6996 1.47011 61.1296 1.13011 61.4896 0.860111C61.8596 0.590111 62.1696 0.400093 62.3796 0.280093C62.5996 0.160093 62.7096 0.0901216 62.7096 0.0901216C63.0496 -0.0998784 63.4795 0.0201106 63.6695 0.360111C63.8596 0.700111 63.7396 1.1301 63.3996 1.3201L63.3896 1.33011L63.3596 1.3501C63.3596 1.3501 63.2596 1.40009 63.0696 1.50009C62.8796 1.60009 62.6096 1.76012 62.2796 1.99012C61.9496 2.22012 61.5496 2.52012 61.1196 2.90012C60.6896 3.28012 60.2196 3.73009 59.7396 4.25009C58.7596 5.29009 57.7395 6.64011 56.7295 8.14011C56.2295 8.89011 55.7296 9.6901 55.2396 10.5101C54.7496 11.3301 54.2896 12.1801 53.8296 13.0401C52.9296 14.7601 52.0996 16.5201 51.3796 18.1901C51.1996 18.6101 51.0296 19.0201 50.8696 19.4301C50.7096 19.8401 50.5596 20.2201 50.3996 20.6301C50.3196 20.8301 50.2396 21.0301 50.1695 21.2201C50.0896 21.4101 49.9995 21.6001 49.9195 21.7901C49.7596 22.1701 49.5795 22.5201 49.4195 22.8601C49.0696 23.5301 48.7296 24.1501 48.3796 24.6701C48.0296 25.2001 47.6796 25.6401 47.3696 25.9901C47.0496 26.3401 46.7595 26.5901 46.5395 26.7701C46.4895 26.8101 46.4396 26.8501 46.3896 26.8801C46.3396 26.9101 46.3096 26.9401 46.2596 26.9701C46.1796 27.0201 46.1396 27.0401 46.1396 27.0401C45.7496 27.2701 45.2496 27.1301 45.0196 26.7501C44.7896 26.3601 44.9296 25.8601 45.3196 25.6301C45.3496 25.6101 45.3796 25.6001 45.4096 25.5901L45.4496 25.5701Z" fill="#0C0C0C"/>
<path d="M45.8096 48.5001C47.3796 47.3201 53.2496 43.2101 55.2696 43.5701C55.2696 43.5701 55.6596 36.7401 55.9996 34.5301C56.3296 32.3201 57.7296 27.2401 58.8996 27.1501C58.8996 27.1501 58.6895 24.8201 59.1695 24.0101C59.6495 23.1901 60.4696 22.4701 60.4996 22.1401C60.5296 21.8101 60.8296 20.8101 61.6796 20.3601C61.6796 20.3601 61.7796 19.5901 61.2096 19.2601C61.1196 19.2101 61.1296 19.2001 61.2196 19.2301C61.5096 19.3401 62.0896 19.6601 62.2196 20.5701C62.2196 20.5701 63.0096 21.8401 61.7696 23.0501C60.5296 24.2601 59.5596 24.3201 59.5896 25.4401C59.6196 26.5601 60.0095 27.3801 59.9795 28.1301C59.9495 28.8901 58.8296 41.4601 56.4696 43.7901C56.4696 43.7901 55.4396 46.7201 51.3896 49.2901C48.0196 51.4301 45.7095 52.1201 44.1095 51.9601C43.6095 51.9101 43.4095 51.4001 43.6695 50.9701C44.1095 50.2601 44.8496 49.2101 45.8096 48.5001Z" fill="#0C0C0C"/>
<path d="M50.4696 59.5901C53.7196 58.4901 60.1996 57.7201 61.4696 59.3501C61.4696 59.3501 68.2696 66.1201 67.4296 75.9201C67.4296 75.9201 72.4496 79.0901 72.3896 81.6901C72.3896 81.6901 72.8396 82.6901 72.4796 83.4701C72.4396 83.5601 72.3996 83.5501 72.3996 83.4501C72.4096 83.1101 72.3596 82.4001 71.8396 82.1501C71.1396 81.8201 70.2696 81.0001 69.9696 80.3101C69.6696 79.6101 66.9196 77.5301 66.7996 76.8901C66.7996 76.8901 64.4396 73.0201 63.4996 69.4501C62.5596 65.8801 61.0496 60.8001 61.0496 60.8001C61.0496 60.8001 56.5196 61.4101 53.5196 62.7001C49.9496 64.2401 47.8196 64.5601 46.4096 64.0001C45.9496 63.8201 45.7296 63.1001 46.0296 62.7001C46.7496 61.7601 47.4396 60.6201 50.4696 59.5901Z" fill="#0C0C0C"/>
<path d="M52.0096 71.6901C54.4596 73.2601 63.8896 78.3401 63.1696 84.5101C63.1696 84.5101 63.7996 86.5101 61.5396 93.7901C59.2696 101.08 56.9096 105.64 55.5796 106.82C55.5796 106.82 57.5496 109.54 58.5496 110.48C59.5496 111.42 59.3696 113.59 58.7596 114.62C58.7596 114.62 57.9196 116.32 56.4096 116C56.2196 115.96 56.2296 115.86 56.4096 115.8C56.9496 115.63 57.8696 115.19 57.3896 114.29C57.0696 113.69 56.3296 113.32 55.9996 111.99C55.6696 110.66 54.6696 108.39 54.7596 107.51C54.7596 107.51 55.6096 100.62 56.9396 97.1401C58.2696 93.6601 61.2596 85.6501 61.9596 85.0401C61.9596 85.0401 59.4496 82.0201 55.9996 79.9901C52.9096 78.1701 47.6596 74.9701 47.6696 72.3901C47.6696 71.8901 48.2196 71.2601 48.6996 71.1001C49.4096 70.8701 50.5696 70.7701 52.0096 71.6901Z" fill="#0C0C0C"/>
</svg>
