<svg width="102" height="113" viewBox="0 0 102 113" fill="none" xmlns="http://www.w3.org/2000/svg">
<path d="M46.9756 21.2903C46.9756 21.2903 46.7256 20.9304 46.2956 20.3004C45.8556 19.6704 45.2256 18.7803 44.4456 17.7203C42.8856 15.6003 40.7256 12.8403 38.3956 10.2503C37.8156 9.60034 37.2156 8.97036 36.6256 8.36036C36.0256 7.75036 35.4256 7.17035 34.8356 6.63035C34.2456 6.09035 33.6556 5.58036 33.0856 5.14036C32.9456 5.03035 32.8056 4.92034 32.6656 4.81034C32.5256 4.71034 32.3856 4.61035 32.2456 4.51035C32.1056 4.41035 31.9756 4.32034 31.8456 4.22034C31.7156 4.13034 31.5756 4.05034 31.4456 3.97034C31.3156 3.89034 31.1856 3.80035 31.0656 3.73035C30.9356 3.66035 30.8156 3.59034 30.6956 3.53034C30.5756 3.47034 30.4556 3.39034 30.3456 3.34034C30.2356 3.29034 30.1256 3.24034 30.0156 3.19034C29.9056 3.14034 29.8056 3.09036 29.7056 3.05036C29.6056 3.02036 29.5056 2.98035 29.4156 2.95035C29.2356 2.88035 29.0656 2.82035 28.9156 2.79035C28.7656 2.76035 28.6356 2.72035 28.5256 2.70035C28.4156 2.69035 28.3256 2.68036 28.2456 2.68036C28.0956 2.66036 28.0156 2.66034 28.0156 2.66034L27.8256 2.64036C27.1056 2.56036 26.5856 1.92035 26.6656 1.20035C26.7456 0.480353 27.3856 -0.0396508 28.1056 0.0403492C28.1156 0.0403492 28.1256 0.0403492 28.1356 0.0403492C28.1356 0.0403492 28.2756 0.060337 28.5356 0.090337C28.6656 0.110337 28.8256 0.130344 29.0156 0.160344C29.1956 0.210344 29.3956 0.260358 29.6156 0.330358C29.8456 0.390358 30.0756 0.480358 30.3256 0.580358C30.4556 0.630358 30.5856 0.680361 30.7156 0.740361C30.8456 0.800361 30.9756 0.870343 31.1056 0.940343C31.2356 1.01034 31.3756 1.08033 31.5156 1.15033C31.6556 1.23033 31.7856 1.31033 31.9256 1.40033C32.0656 1.49033 32.2056 1.57035 32.3556 1.67035C32.4956 1.76035 32.6356 1.87034 32.7856 1.97034C32.9256 2.07034 33.0756 2.18034 33.2256 2.28034C33.3656 2.39034 33.5156 2.51034 33.6656 2.62034C33.8156 2.74034 33.9656 2.85035 34.1156 2.98035C34.2656 3.11035 34.4056 3.23036 34.5656 3.36036C35.1656 3.87036 35.7656 4.44035 36.3756 5.04035C36.9756 5.64035 37.5756 6.28036 38.1656 6.93036C38.7556 7.59036 39.3356 8.27036 39.9056 8.96036C42.1856 11.7204 44.2456 14.6204 45.7356 16.8304C46.4756 17.9404 47.0856 18.8704 47.4956 19.5204C47.9056 20.1804 48.1456 20.5603 48.1456 20.5603C48.3456 20.8903 48.2556 21.3204 47.9256 21.5204C47.6056 21.7204 47.1956 21.6303 46.9856 21.3203L46.9756 21.2903Z" fill="#0C0C0C"/>
<path d="M36.3056 33.8303C36.3056 33.8303 36.2755 33.8203 36.2055 33.8103C36.1355 33.7903 36.0056 33.7603 35.8756 33.7203C35.6156 33.6403 35.2356 33.5203 34.7656 33.3403C34.3056 33.1603 33.7456 32.9203 33.1356 32.6103C32.8356 32.4403 32.5056 32.2803 32.1756 32.0703C32.0156 31.9703 31.8456 31.8603 31.6756 31.7603C31.5056 31.6503 31.3356 31.5203 31.1656 31.4003C30.4656 30.9203 29.7656 30.3103 29.0656 29.6403C28.3956 28.9403 27.6956 28.1703 27.1156 27.2803C26.9656 27.0603 26.8156 26.8403 26.6756 26.6103C26.5456 26.3803 26.4156 26.1403 26.2756 25.9003C26.1456 25.6603 26.0055 25.4203 25.8955 25.2003C25.7755 24.9703 25.6656 24.7503 25.5456 24.5203C25.0856 23.6203 24.5856 22.7103 24.0656 21.8303C23.0256 20.0703 21.8856 18.3803 20.6156 17.0503C19.9856 16.3903 19.3256 15.8103 18.6556 15.3803C17.9856 14.9503 17.3156 14.6603 16.6856 14.5203C16.0556 14.3803 15.4556 14.3903 14.9356 14.4803C14.4056 14.5603 13.9555 14.7403 13.5855 14.8903C13.4055 14.9803 13.2456 15.0603 13.1056 15.1403C12.9656 15.2103 12.8556 15.2903 12.7556 15.3503C12.5656 15.4703 12.4656 15.5303 12.4656 15.5303L12.4056 15.5703C11.9856 15.8303 11.4356 15.7003 11.1756 15.2803C10.9256 14.8703 11.0356 14.3403 11.4256 14.0703C11.4256 14.0703 11.5456 13.9903 11.7656 13.8303C11.8756 13.7603 12.0056 13.6503 12.1856 13.5503C12.3556 13.4503 12.5556 13.3403 12.7756 13.2103C13.2456 12.9903 13.8256 12.7103 14.5656 12.5603C15.2956 12.4003 16.1755 12.3403 17.0855 12.5103C18.0055 12.6703 18.9356 13.0403 19.7956 13.5703C20.6656 14.0903 21.4655 14.7603 22.2055 15.5103C22.9455 16.2603 23.6356 17.0803 24.2856 17.9403C24.9256 18.8003 25.5355 19.7103 26.0855 20.6303C26.6455 21.5503 27.1656 22.4903 27.6656 23.4203C27.7856 23.6503 27.9056 23.8803 28.0256 24.1103C28.1456 24.3503 28.2656 24.5503 28.3756 24.7503C28.4956 24.9503 28.6056 25.1603 28.7156 25.3603C28.8456 25.5503 28.9756 25.7403 29.1056 25.9303C29.6056 26.6903 30.1956 27.3403 30.7656 27.9403C31.3656 28.5103 31.9656 29.0303 32.5656 29.4503C33.1556 29.8803 33.7356 30.2103 34.2556 30.5003C34.7856 30.7703 35.2455 30.9903 35.6455 31.1503C36.0355 31.3103 36.3456 31.4103 36.5556 31.4703C36.6656 31.5103 36.7256 31.5203 36.7656 31.5303C36.8256 31.5503 36.8556 31.5503 36.8556 31.5503L36.8856 31.5603C37.5156 31.7203 37.8956 32.3603 37.7356 32.9903C37.5656 33.6003 36.9356 33.9803 36.3056 33.8303Z" fill="#0C0C0C"/>
<path d="M28.6556 46.6403C28.6556 46.6403 28.6256 46.6503 28.5656 46.6803C28.4956 46.7103 28.4456 46.7403 28.3756 46.7703C28.3356 46.7903 28.2956 46.8103 28.2556 46.8303C28.2356 46.8403 28.2056 46.8503 28.1856 46.8603C28.1556 46.8803 28.1256 46.9003 28.0956 46.9103C27.9656 46.9903 27.8156 47.0803 27.6456 47.1703C27.4756 47.2603 27.2956 47.4103 27.0956 47.5403C26.8956 47.6803 26.6756 47.8203 26.4556 48.0203C26.2256 48.2003 25.9956 48.4003 25.7456 48.6103C25.4956 48.8103 25.2556 49.0803 24.9856 49.3303C24.8556 49.4603 24.7256 49.5803 24.5856 49.7203C24.4456 49.8503 24.3056 49.9803 24.1756 50.1403C23.9156 50.4403 23.6356 50.7503 23.3556 51.0603C23.2156 51.2203 23.0756 51.3803 22.9256 51.5403C22.7956 51.7103 22.6556 51.8903 22.5256 52.0703C22.2556 52.4303 21.9756 52.7903 21.6956 53.1703L21.4856 53.4503L21.4356 53.5203L21.3856 53.5903L21.2756 53.7403C21.1356 53.9403 20.9956 54.1503 20.8556 54.3603C20.5756 54.7703 20.2956 55.1803 20.0156 55.6003C19.4556 56.4503 18.8756 57.3203 18.3056 58.1803C17.7156 59.0603 17.1556 59.9503 16.3556 60.8703C16.1656 61.1003 15.9256 61.3203 15.6856 61.5403L15.2856 61.8503C15.1556 61.9503 14.9856 62.0403 14.8356 62.1303C14.2056 62.4803 13.5056 62.6503 12.8956 62.7103C12.1156 62.7803 11.2456 63.0103 10.4556 63.2803C9.66557 63.5503 8.91562 63.8403 8.25562 64.1503C7.59562 64.4603 7.00563 64.7803 6.51563 65.1003C6.02563 65.4103 5.63561 65.7003 5.36561 65.9603C5.08561 66.2203 4.93559 66.4203 4.84559 66.5503C4.75559 66.6803 4.7356 66.7403 4.7356 66.7403L3.77558 67.0103C3.40558 67.1103 3.02561 66.9003 2.92561 66.5303C2.88561 66.3903 2.89562 66.2503 2.93562 66.1203C2.93562 66.1203 2.94559 66.0803 2.97559 65.9903C3.00559 65.9003 3.05562 65.7803 3.12562 65.6303C3.26562 65.3303 3.51562 64.9403 3.87562 64.5403C4.23562 64.1403 4.68561 63.7103 5.24561 63.2903C5.79561 62.8703 6.4456 62.4503 7.1656 62.0503C7.8956 61.6403 8.69558 61.2503 9.58558 60.9003C10.4856 60.5603 11.4356 60.2303 12.5956 60.0603C12.9456 60.0003 13.2256 59.9003 13.4756 59.7503C13.5356 59.7003 13.6056 59.6803 13.6656 59.6203C13.7256 59.5603 13.7956 59.5103 13.8556 59.4603C13.9856 59.3203 14.1156 59.2003 14.2556 59.0303C14.7956 58.3803 15.3356 57.5003 15.8756 56.6303C16.4256 55.7403 16.9756 54.8403 17.5156 53.9703C17.7956 53.5303 18.0756 53.0803 18.3556 52.6603C18.4956 52.4503 18.6356 52.2403 18.7656 52.0303L18.8656 51.8703L18.9256 51.7803L18.9856 51.7003L19.2156 51.3903C19.5156 50.9803 19.8056 50.5703 20.0956 50.1703C20.2456 49.9703 20.3856 49.7703 20.5256 49.5803C20.6856 49.3903 20.8356 49.2103 20.9856 49.0303C21.2956 48.6703 21.5956 48.3203 21.8856 47.9803C22.0256 47.8103 22.1856 47.6503 22.3356 47.5003C22.4856 47.3503 22.6456 47.2003 22.7856 47.0503C23.0856 46.7603 23.3556 46.4703 23.6556 46.2203C23.9556 45.9703 24.2356 45.7403 24.4956 45.5203C24.7556 45.2903 25.0356 45.1103 25.2756 44.9303C25.5256 44.7603 25.7456 44.5903 25.9756 44.4503C26.2056 44.3203 26.4056 44.2003 26.5756 44.1003C26.6156 44.0803 26.6656 44.0503 26.7056 44.0303C26.7556 44.0103 26.8056 43.9803 26.8456 43.9603C26.9356 43.9203 27.0156 43.8803 27.0956 43.8403C27.2456 43.7703 27.3656 43.7103 27.4156 43.7003C27.4756 43.6803 27.5056 43.6603 27.5056 43.6603C28.3256 43.3303 29.2556 43.7203 29.5856 44.5403C29.9156 45.3603 29.5256 46.2903 28.7056 46.6203L28.6556 46.6403Z" fill="#0C0C0C"/>
<path d="M26.3556 66.1603C26.3556 66.1603 26.0556 66.5803 25.5256 67.3203C24.9956 68.0503 24.2456 69.0903 23.3156 70.3303C22.8556 70.9503 22.3456 71.6103 21.8056 72.3203C21.2656 73.0203 20.6956 73.7603 20.0856 74.5103C19.4856 75.2703 18.8456 76.0403 18.1756 76.8203C17.8356 77.2103 17.5056 77.6003 17.1456 77.9803C16.7956 78.3703 16.4456 78.7603 16.0656 79.1303C15.8756 79.3203 15.6956 79.5103 15.4956 79.7003L14.8856 80.2503C14.6956 80.4303 14.4556 80.6203 14.2156 80.7903L13.8556 81.0503L13.8156 81.0803L13.7656 81.1103L13.7556 81.1203L13.7356 81.1303L13.6556 81.1804L13.4956 81.2803C12.9256 81.6003 12.3856 81.8004 11.8456 81.9604C11.3056 82.1203 10.7856 82.2203 10.2856 82.3003C9.27558 82.4503 8.33558 82.5203 7.47558 82.6003C6.60558 82.6703 5.8156 82.7603 5.1156 82.8903C4.4156 83.0203 3.81562 83.2003 3.32562 83.4103C2.83562 83.6303 2.4556 83.8803 2.1856 84.1303C1.9056 84.3703 1.72559 84.6003 1.60559 84.7603C1.48559 84.9303 1.42559 85.0203 1.42559 85.0203L1.38562 85.0803C1.14562 85.4303 0.675618 85.5103 0.325618 85.2703C-0.00438184 85.0403 -0.0944135 84.6003 0.105586 84.2503C0.105586 84.2503 0.185608 84.1203 0.315608 83.8903C0.465608 83.6603 0.695608 83.3203 1.06561 82.9503C1.42561 82.5803 1.93561 82.1803 2.56561 81.8603C3.18561 81.5303 3.92557 81.2603 4.71557 81.0603C5.50557 80.8603 6.35559 80.7103 7.23559 80.5803C8.10559 80.4403 9.00562 80.3203 9.88562 80.1203C10.3156 80.0203 10.7456 79.9003 11.1456 79.7603C11.5456 79.6103 11.9256 79.4303 12.2156 79.2403L12.3756 79.1303L12.4556 79.0803L12.4756 79.0703L12.4856 79.0603C12.5256 79.0403 12.4456 79.0903 12.4556 79.0803L12.4856 79.0503L12.7256 78.8403C12.8856 78.7003 13.0456 78.5803 13.2056 78.3903L13.6956 77.8903L14.1756 77.3403C14.4956 76.9803 14.8056 76.5903 15.1056 76.2003C15.4156 75.8203 15.7056 75.4203 16.0056 75.0303C16.5956 74.2403 17.1656 73.4504 17.7056 72.6804C18.2456 71.9104 18.7556 71.1504 19.2456 70.4304C19.7256 69.7104 20.1756 69.0203 20.5956 68.3903C21.4156 67.1203 22.0956 66.0503 22.5656 65.3003C23.0256 64.5503 23.2956 64.1203 23.2956 64.1203L23.3056 64.1003C23.8456 63.2303 24.9856 62.9603 25.8556 63.4903C26.7256 64.0303 26.9956 65.1703 26.4656 66.0403C26.3956 66.0903 26.3756 66.1203 26.3556 66.1603Z" fill="#0C0C0C"/>
<path d="M50.5356 112.73C59.6356 112.73 68.9456 107.88 76.2656 100.06C83.5856 92.2403 79.2356 69.5803 76.8556 53.1603C74.4756 36.7303 65.3756 37.5303 65.3756 37.5303C66.3656 36.3403 66.9556 31.8903 65.3756 27.4403C63.7956 22.9903 57.4556 23.6803 57.4556 23.6803C57.1556 18.5303 50.5256 18.6303 50.5256 18.6303C50.5256 18.6303 43.8956 18.5303 43.5956 23.6803C43.5956 23.6803 37.2656 22.9903 35.6756 27.4403C34.0956 31.8903 34.6856 36.3503 35.6756 37.5303C35.6756 37.5303 26.5756 36.7403 24.1956 53.1603C21.8156 69.5903 17.4656 92.2503 24.7856 100.06C32.1256 107.89 41.4256 112.73 50.5356 112.73Z" fill="#0C0C0C"/>
<path d="M52.9156 20.5303C52.9156 20.5303 53.1556 20.1503 53.5656 19.4903C53.9856 18.8303 54.5856 17.9003 55.3256 16.8003C56.8156 14.5903 58.8756 11.6903 61.1556 8.93031C61.7256 8.24031 62.3156 7.56028 62.8956 6.90028C63.4856 6.24028 64.0856 5.6003 64.6856 5.0103C65.2856 4.4103 65.8856 3.84031 66.4956 3.33031C66.6456 3.20031 66.7956 3.0703 66.9456 2.9503C67.0956 2.8303 67.2456 2.71029 67.3956 2.59029C67.5456 2.47029 67.6856 2.36029 67.8356 2.25029C67.9856 2.14029 68.1356 2.04029 68.2756 1.94029C68.4256 1.84029 68.5556 1.74031 68.7056 1.64031C68.8556 1.55031 68.9956 1.46029 69.1356 1.37029C69.2756 1.28029 69.4056 1.20029 69.5456 1.12029C69.6856 1.05029 69.8256 0.970294 69.9656 0.910294C70.0956 0.840294 70.2356 0.780313 70.3556 0.710313C70.4956 0.660313 70.6256 0.600309 70.7456 0.550309C70.9956 0.450309 71.2256 0.350309 71.4556 0.300309C71.6856 0.240309 71.8856 0.180295 72.0556 0.130295C72.2456 0.100295 72.4056 0.0802881 72.5356 0.0602881C72.7956 0.0302881 72.9356 0.0103003 72.9356 0.0103003C73.6556 -0.0796997 74.3056 0.430305 74.3956 1.14031C74.4856 1.86031 73.9757 2.5103 73.2657 2.6003C73.2557 2.6003 73.2556 2.6003 73.2456 2.6003L73.0456 2.62029C73.0456 2.62029 72.9656 2.63031 72.8156 2.64031C72.7356 2.65031 72.6456 2.65029 72.5456 2.66029C72.4256 2.69029 72.2956 2.72029 72.1556 2.75029C72.0056 2.77029 71.8356 2.84029 71.6556 2.91029C71.5656 2.94029 71.4656 2.9803 71.3656 3.0103C71.2656 3.0603 71.1656 3.10028 71.0556 3.15028C70.9456 3.20028 70.8356 3.25031 70.7256 3.30031C70.6156 3.35031 70.4956 3.43031 70.3756 3.49031C70.2556 3.56031 70.1356 3.62029 70.0056 3.69029C69.8756 3.76029 69.7556 3.85031 69.6256 3.93031C69.4956 4.01031 69.3656 4.10031 69.2256 4.18031C69.0956 4.27031 68.9556 4.37029 68.8256 4.47029C68.6856 4.57029 68.5456 4.67031 68.4056 4.77031C68.2656 4.88031 68.1256 4.9903 67.9856 5.1003C67.4156 5.5403 66.8256 6.05029 66.2356 6.59029C65.6456 7.13029 65.0456 7.7203 64.4456 8.3203C63.8556 8.9303 63.2556 9.56031 62.6756 10.2103C60.3456 12.8003 58.1856 15.5703 56.6256 17.6803C55.8456 18.7403 55.2056 19.6303 54.7756 20.2603C54.3456 20.8903 54.0956 21.2503 54.0956 21.2503L54.0856 21.2603C53.8656 21.5803 53.4356 21.6603 53.1156 21.4403C52.7956 21.2703 52.7156 20.8503 52.9156 20.5303Z" fill="#0C0C0C"/>
<path d="M64.2156 31.5402C64.2156 31.5402 64.2456 31.5303 64.3056 31.5203C64.3556 31.5002 64.4056 31.4903 64.5156 31.4603C64.7256 31.4003 65.0356 31.3002 65.4256 31.1402C65.8156 30.9902 66.2856 30.7703 66.8156 30.4903C67.3356 30.2003 67.9156 29.8702 68.5056 29.4402C69.1056 29.0302 69.7056 28.5103 70.3056 27.9303C70.8756 27.3303 71.4656 26.6702 71.9656 25.9202C72.0956 25.7302 72.2256 25.5502 72.3556 25.3502C72.4756 25.1502 72.5856 24.9503 72.7056 24.7403C72.8156 24.5403 72.9456 24.3402 73.0556 24.1002C73.1756 23.8702 73.2956 23.6402 73.4156 23.4102C73.9156 22.4802 74.4356 21.5402 74.9956 20.6202C75.5556 19.6902 76.1556 18.7903 76.8056 17.9303C77.4456 17.0703 78.1356 16.2402 78.8856 15.5002C79.6256 14.7602 80.4256 14.0802 81.2956 13.5602C82.1656 13.0402 83.0956 12.6702 84.0056 12.5002C84.9156 12.3302 85.7956 12.3802 86.5256 12.5502C87.2656 12.7002 87.8456 12.9802 88.3156 13.2002C88.5356 13.3302 88.7356 13.4402 88.9056 13.5402C89.0756 13.6402 89.2056 13.7402 89.3256 13.8202C89.5456 13.9702 89.6656 14.0602 89.6656 14.0602C90.0756 14.3402 90.1756 14.9002 89.8956 15.3102C89.6256 15.7002 89.0956 15.8102 88.6956 15.5602L88.6256 15.5203C88.6256 15.5203 88.5256 15.4602 88.3356 15.3402C88.2456 15.2802 88.1256 15.2002 87.9856 15.1302C87.8456 15.0602 87.6856 14.9802 87.5056 14.8802C87.1356 14.7302 86.6856 14.5402 86.1556 14.4702C85.6256 14.3802 85.0356 14.3702 84.4056 14.5102C83.7756 14.6502 83.0956 14.9402 82.4356 15.3702C81.7656 15.8002 81.1056 16.3802 80.4756 17.0402C79.2056 18.3702 78.0556 20.0602 77.0256 21.8202C76.5056 22.7002 76.0156 23.6102 75.5456 24.5102C75.4256 24.7402 75.3156 24.9702 75.1956 25.1902C75.0856 25.4202 74.9456 25.6502 74.8156 25.8902C74.6856 26.1302 74.5456 26.3702 74.4156 26.6002C74.2756 26.8302 74.1256 27.0503 73.9756 27.2703C73.3956 28.1603 72.7056 28.9302 72.0256 29.6302C71.3256 30.3002 70.6256 30.9102 69.9256 31.3902C69.7556 31.5102 69.5856 31.6402 69.4156 31.7502C69.2456 31.8602 69.0756 31.9602 68.9056 32.0602C68.5856 32.2702 68.2556 32.4302 67.9456 32.6002C67.3256 32.9102 66.7856 33.1602 66.3156 33.3302C65.8556 33.5102 65.4756 33.6303 65.2056 33.7103C65.0756 33.7503 64.9456 33.7802 64.8756 33.8002C64.8156 33.8202 64.7756 33.8202 64.7756 33.8202C64.1456 33.9702 63.5056 33.5802 63.3556 32.9502C63.2056 32.3202 63.5856 31.6902 64.2056 31.5302L64.2156 31.5402Z" fill="#0C0C0C"/>
<path d="M73.5756 43.6703C73.5756 43.6703 73.6056 43.6803 73.6656 43.7103C73.7156 43.7303 73.8356 43.7803 73.9856 43.8503C74.0556 43.8903 74.1456 43.9203 74.2356 43.9703C74.2756 43.9903 74.3256 44.0203 74.3756 44.0403C74.4156 44.0603 74.4656 44.0903 74.5056 44.1103C74.6856 44.2103 74.8856 44.3303 75.1056 44.4603C75.3356 44.5903 75.5456 44.7603 75.8056 44.9403C76.0556 45.1203 76.3356 45.3003 76.5856 45.5303C76.8456 45.7503 77.1356 45.9903 77.4256 46.2303C77.7256 46.4803 77.9956 46.7703 78.2956 47.0603C78.4456 47.2103 78.5956 47.3603 78.7456 47.5103C78.9056 47.6603 79.0556 47.8203 79.1956 47.9903C79.4856 48.3303 79.7856 48.6803 80.0956 49.0403C80.2456 49.2203 80.4056 49.4003 80.5556 49.5903C80.6956 49.7803 80.8456 49.9803 80.9856 50.1803C81.2756 50.5803 81.5756 50.9803 81.8656 51.4003L82.0856 51.7103L82.1456 51.7903L82.2056 51.8803L82.3056 52.0403C82.4456 52.2503 82.5756 52.4603 82.7156 52.6703C82.9956 53.0903 83.2656 53.5403 83.5456 53.9803C84.0856 54.8603 84.6356 55.7503 85.1856 56.6403C85.7256 57.5103 86.2656 58.4003 86.8056 59.0403C86.9356 59.2103 87.0656 59.3303 87.1956 59.4703C87.2556 59.5203 87.3256 59.5703 87.3856 59.6303C87.4456 59.6803 87.5156 59.7103 87.5756 59.7603C87.8256 59.9103 88.0956 60.0103 88.4556 60.0703C89.6156 60.2403 90.5656 60.5703 91.4656 60.9103C92.3556 61.2603 93.1656 61.6503 93.8856 62.0603C94.6156 62.4703 95.2556 62.8803 95.8056 63.3003C96.3556 63.7203 96.8156 64.1503 97.1756 64.5503C97.5356 64.9503 97.7856 65.3403 97.9256 65.6403C98.0056 65.7903 98.0456 65.9103 98.0756 66.0003C98.1056 66.0803 98.1156 66.1303 98.1156 66.1303C98.2456 66.4903 98.0556 66.8803 97.6956 67.0103C97.5556 67.0603 97.4156 67.0603 97.2856 67.0203L96.3256 66.7503C96.3156 66.7503 96.3056 66.6903 96.2156 66.5603C96.1256 66.4303 95.9656 66.2203 95.6956 65.9703C95.4256 65.7103 95.0356 65.4203 94.5456 65.1103C94.0656 64.8003 93.4756 64.4703 92.8056 64.1603C92.1456 63.8503 91.3956 63.5603 90.6056 63.2903C89.8156 63.0303 88.9456 62.8003 88.1656 62.7203C87.5456 62.6603 86.8556 62.4903 86.2256 62.1403C86.0756 62.0503 85.9156 61.9603 85.7756 61.8603L85.3656 61.5503C85.1256 61.3303 84.8856 61.1103 84.6956 60.8803C83.8956 59.9703 83.3356 59.0703 82.7456 58.1903C82.1756 57.3203 81.6056 56.4603 81.0356 55.6103C80.7556 55.1903 80.4656 54.7803 80.1856 54.3703C80.0456 54.1603 79.9056 53.9603 79.7656 53.7503L79.6556 53.6003L79.6056 53.5303L79.5556 53.4603L79.3456 53.1803C79.0656 52.8103 78.7856 52.4403 78.5156 52.0803C78.3856 51.9003 78.2456 51.7203 78.1156 51.5503C77.9756 51.3903 77.8256 51.2303 77.6856 51.0703C77.4056 50.7503 77.1356 50.4503 76.8656 50.1503C76.7356 50.0003 76.5956 49.8603 76.4556 49.7303C76.3156 49.6003 76.1856 49.4703 76.0556 49.3403C75.7856 49.0903 75.5556 48.8303 75.2956 48.6203C75.0456 48.4103 74.8056 48.2203 74.5756 48.0303C74.3556 47.8303 74.1356 47.7003 73.9356 47.5503C73.7356 47.4203 73.5556 47.2703 73.3856 47.1803C73.2156 47.0803 73.0656 46.9903 72.9356 46.9203C72.9056 46.9003 72.8756 46.8803 72.8456 46.8703C72.8156 46.8603 72.7956 46.8503 72.7756 46.8403C72.7356 46.8203 72.6956 46.8003 72.6556 46.7803C72.5856 46.7403 72.5356 46.7103 72.4656 46.6903C72.4056 46.6703 72.3756 46.6503 72.3756 46.6503L72.3456 46.6403C71.5256 46.3103 71.1356 45.3703 71.4756 44.5603C71.8356 43.7203 72.7656 43.3303 73.5756 43.6703Z" fill="#0C0C0C"/>
<path d="M77.8056 64.1203C77.8056 64.1203 78.0656 64.5504 78.5356 65.3004C79.0056 66.0504 79.6756 67.1204 80.5056 68.3904C80.9156 69.0304 81.3656 69.7104 81.8456 70.4304C82.3256 71.1504 82.8356 71.9104 83.3856 72.6804C83.9256 73.4504 84.4956 74.2403 85.0856 75.0303C85.3856 75.4203 85.6756 75.8204 85.9856 76.2004C86.2956 76.5804 86.5956 76.9803 86.9156 77.3403L87.3956 77.8904L87.8856 78.3904C88.0456 78.5704 88.2056 78.7003 88.3656 78.8403L88.6056 79.0504L88.6356 79.0804C88.6456 79.0904 88.5656 79.0403 88.6056 79.0603L88.6156 79.0704L88.6356 79.0804L88.7156 79.1304L88.8756 79.2404C89.1656 79.4304 89.5456 79.6104 89.9456 79.7604C90.3456 79.9104 90.7756 80.0203 91.2056 80.1203C92.0756 80.3103 92.9756 80.4404 93.8456 80.5804C94.7156 80.7104 95.5656 80.8603 96.3656 81.0603C97.1556 81.2603 97.8956 81.5304 98.5156 81.8604C99.1456 82.1904 99.6456 82.5804 100.016 82.9504C100.386 83.3204 100.616 83.6604 100.766 83.8904C100.906 84.1304 100.986 84.2503 100.986 84.2503C101.196 84.6103 101.076 85.0804 100.716 85.2904C100.366 85.5004 99.9256 85.3904 99.7056 85.0704L99.6656 85.0104C99.6656 85.0104 99.6056 84.9203 99.4856 84.7503C99.3656 84.5903 99.1856 84.3603 98.9056 84.1203C98.6256 83.8703 98.2556 83.6203 97.7656 83.4003C97.2756 83.1803 96.6756 83.0004 95.9756 82.8804C95.2756 82.7504 94.4856 82.6703 93.6156 82.5903C92.7456 82.5103 91.8056 82.4504 90.8056 82.2904C90.3056 82.2104 89.7756 82.1104 89.2456 81.9504C88.7156 81.7904 88.1656 81.5904 87.5956 81.2704L87.4356 81.1704L87.3556 81.1203L87.3356 81.1104L87.3256 81.1004L87.2756 81.0704L87.2356 81.0404L86.8756 80.7803C86.6356 80.6003 86.3956 80.4204 86.2056 80.2404L85.5956 79.6903C85.4056 79.5003 85.2156 79.3103 85.0256 79.1203C84.6456 78.7403 84.2956 78.3503 83.9456 77.9703C83.5856 77.5903 83.2556 77.1903 82.9156 76.8103C82.2456 76.0303 81.6056 75.2603 81.0056 74.5003C80.3956 73.7503 79.8256 73.0103 79.2856 72.3103C78.7456 71.6103 78.2456 70.9404 77.7756 70.3204C76.8556 69.0804 76.0956 68.0503 75.5656 67.3103C75.0356 66.5703 74.7356 66.1503 74.7356 66.1503C74.1456 65.3203 74.3356 64.1603 75.1656 63.5603C75.9956 62.9703 77.1556 63.1604 77.7456 63.9904C77.7656 64.0204 77.7956 64.0503 77.8156 64.0903L77.8056 64.1203Z" fill="#0C0C0C"/>
</svg>
