<svg width="74" height="113" viewBox="0 0 74 113" fill="none" xmlns="http://www.w3.org/2000/svg">
<path d="M16.7213 111.321C16.7213 111.321 16.7713 111.331 16.8513 111.341C16.9313 111.351 17.0313 111.381 17.1613 111.421C17.2813 111.461 17.4213 111.501 17.5613 111.561C17.6313 111.591 17.7013 111.621 17.7713 111.651C17.8413 111.681 17.9113 111.721 17.9813 111.761C18.0513 111.791 18.1213 111.831 18.1913 111.861C18.2613 111.901 18.3313 111.941 18.3913 111.971C18.4613 112.001 18.5213 112.041 18.5813 112.071C18.6413 112.101 18.6913 112.151 18.7513 112.171C18.8613 112.231 18.9513 112.291 19.0113 112.331C19.0713 112.371 19.1113 112.411 19.1113 112.411L19.1213 112.421C19.1613 112.451 19.1613 112.501 19.1313 112.541C19.1213 112.551 19.1113 112.561 19.0913 112.561C19.0913 112.561 19.0513 112.571 18.9713 112.591C18.8913 112.601 18.7813 112.621 18.6413 112.621C18.5713 112.631 18.5013 112.611 18.4213 112.601C18.3413 112.591 18.2613 112.581 18.1813 112.561C18.1013 112.551 18.0113 112.521 17.9313 112.491C17.8513 112.461 17.7613 112.431 17.6813 112.391C17.6013 112.361 17.5213 112.311 17.4513 112.271C17.3813 112.221 17.3013 112.181 17.2413 112.131C17.1113 112.031 16.9913 111.931 16.9013 111.821C16.8113 111.721 16.7413 111.621 16.7013 111.551C16.6613 111.481 16.6413 111.431 16.6413 111.431V111.421C16.6313 111.371 16.6513 111.321 16.7013 111.311C16.6913 111.321 16.7113 111.311 16.7213 111.321Z" fill="#0C0C0C"/>
<path d="M57.0213 111.321C57.0213 111.321 56.9713 111.331 56.8913 111.341C56.8113 111.351 56.7113 111.381 56.5813 111.421C56.4613 111.461 56.3213 111.501 56.1813 111.561C56.1113 111.591 56.0413 111.621 55.9713 111.651C55.9013 111.681 55.8313 111.721 55.7613 111.761C55.6913 111.791 55.6213 111.831 55.5513 111.861C55.4813 111.901 55.4213 111.941 55.3513 111.971C55.2813 112.001 55.2213 112.041 55.1613 112.071C55.1013 112.101 55.0513 112.151 54.9913 112.171C54.8813 112.231 54.7913 112.291 54.7313 112.331C54.6613 112.371 54.6313 112.411 54.6313 112.411L54.6213 112.421C54.5913 112.451 54.5813 112.501 54.6113 112.541C54.6213 112.551 54.6313 112.561 54.6513 112.561C54.6513 112.561 54.7013 112.571 54.7713 112.591C54.8513 112.601 54.9613 112.621 55.1113 112.621C55.1813 112.631 55.2513 112.611 55.3313 112.601C55.4113 112.591 55.4913 112.581 55.5713 112.561C55.6613 112.551 55.7413 112.521 55.8213 112.491C55.9013 112.461 55.9813 112.431 56.0713 112.391C56.1513 112.361 56.2313 112.311 56.3013 112.271C56.3713 112.221 56.4513 112.181 56.5113 112.131C56.6413 112.031 56.7613 111.931 56.8513 111.821C56.9413 111.721 57.0113 111.621 57.0513 111.551C57.0913 111.481 57.1113 111.431 57.1113 111.431V111.421C57.1313 111.371 57.1013 111.321 57.0613 111.311C57.0513 111.321 57.0413 111.311 57.0213 111.321Z" fill="#0C0C0C"/>
<path d="M34.4013 54.1513C34.4013 54.1513 33.9813 53.2313 33.2213 51.6213C32.4613 50.0213 31.3713 47.7313 30.0413 44.9913C27.3613 39.5313 23.7013 32.2813 19.7413 25.2013C17.7613 21.6613 15.7113 18.1613 13.6813 14.9513C11.6513 11.7413 9.63129 8.82129 7.73129 6.45128C6.78129 5.26128 5.86128 4.22128 5.00128 3.35128C4.13128 2.48128 3.32128 1.78128 2.59128 1.29128C2.23128 1.04128 1.89128 0.841283 1.59128 0.691283C1.28128 0.541283 1.0213 0.441283 0.801299 0.371283C0.581299 0.301283 0.401289 0.271281 0.291289 0.251281C0.171289 0.231281 0.111296 0.231284 0.111296 0.231284H0.101287C0.0412865 0.221284 -0.00871957 0.171283 0.00128043 0.101283C0.0112804 0.0412828 0.0612853 -0.00871949 0.131285 0.00128051C0.131285 0.00128051 0.201288 0.011281 0.321288 0.021281C0.451288 0.041281 0.631276 0.0712837 0.871276 0.141284C1.10128 0.211284 1.3913 0.311283 1.7113 0.461283C2.0313 0.611283 2.38128 0.811282 2.75128 1.06128C3.50128 1.56128 4.34129 2.25128 5.23129 3.13128C6.12129 4.00128 7.06128 5.04128 8.03128 6.23128C9.97128 8.59128 12.0313 11.5013 14.1113 14.6913C16.1913 17.8913 18.2913 21.3713 20.3213 24.8913C24.3713 31.9413 28.1413 39.1513 30.8813 44.5913C32.2513 47.3113 33.3813 49.5913 34.1513 51.1913C34.9313 52.7913 35.3613 53.7113 35.3613 53.7113C35.4813 53.9713 35.3713 54.2813 35.1113 54.4013C34.8313 54.5313 34.5213 54.4213 34.4013 54.1513C34.4013 54.1613 34.4013 54.1613 34.4013 54.1513Z" fill="#0C0C0C"/>
<path d="M32.9613 56.9913C32.9613 56.9913 32.9413 56.9613 32.9213 56.9113C32.8913 56.8613 32.8513 56.7813 32.7913 56.6813C32.6813 56.4913 32.5413 56.2113 32.3713 55.8813C32.2013 55.5513 32.0113 55.1513 31.8213 54.7313C31.7213 54.5213 31.6313 54.2913 31.5313 54.0713C31.4413 53.8413 31.3413 53.6113 31.2613 53.3813C31.1713 53.1413 31.0813 52.9113 31.0013 52.6813C30.9213 52.4513 30.8413 52.2213 30.7813 52.0013C30.7213 51.7813 30.6413 51.5613 30.5913 51.3513C30.5413 51.1413 30.4813 50.9513 30.4413 50.7713C30.4013 50.5913 30.3713 50.4213 30.3313 50.2713C30.3013 50.1213 30.2813 49.9913 30.2713 49.8813C30.2413 49.6613 30.2213 49.5413 30.2213 49.5413C30.2113 49.4713 30.2613 49.3913 30.3313 49.3813C30.4013 49.3713 30.4713 49.4213 30.4813 49.4813V49.4913C30.4813 49.4913 30.5113 49.6113 30.5613 49.8213C30.5813 49.9213 30.6113 50.0513 30.6513 50.1913C30.6913 50.3313 30.7413 50.4913 30.7913 50.6713C30.8413 50.8513 30.9113 51.0313 30.9713 51.2313C31.0313 51.4313 31.1213 51.6313 31.2013 51.8513C31.2813 52.0613 31.3713 52.2813 31.4713 52.5013C31.5613 52.7213 31.6713 52.9413 31.7613 53.1613C31.8613 53.3813 31.9713 53.6013 32.0813 53.8113C32.1913 54.0213 32.2913 54.2313 32.4013 54.4313C32.6113 54.8313 32.8313 55.2013 33.0113 55.5213C33.2013 55.8313 33.3613 56.0913 33.4713 56.2713C33.5313 56.3613 33.5713 56.4313 33.6013 56.4713C33.6313 56.5213 33.6513 56.5413 33.6513 56.5413C33.7813 56.7313 33.7213 56.9913 33.5313 57.1113C33.3413 57.2413 33.0813 57.1913 32.9613 57.0013C32.9713 57.0113 32.9713 57.0013 32.9613 56.9913Z" fill="#0C0C0C"/>
<path d="M28.3613 61.6312L25.1713 58.7412C25.0113 58.6012 25.0013 58.3612 25.1413 58.2112C25.2813 58.0612 25.5113 58.0512 25.6613 58.1712L28.9713 60.9212C29.1713 61.0912 29.2013 61.3812 29.0313 61.5912C28.8613 61.7912 28.5713 61.8212 28.3713 61.6512C28.3713 61.6312 28.3613 61.6312 28.3613 61.6312Z" fill="#0C0C0C"/>
<path d="M25.4213 58.6713C25.3413 58.6713 25.2713 58.6313 25.2313 58.5613C25.2113 58.5213 22.7913 54.6813 20.9313 52.9413C20.8413 52.8513 20.8313 52.7113 20.9213 52.6213C21.0013 52.5313 21.1513 52.5213 21.2413 52.6113C23.1313 54.3913 25.5113 58.1613 25.6113 58.3213C25.6813 58.4313 25.6513 58.5713 25.5413 58.6313C25.5013 58.6613 25.4613 58.6713 25.4213 58.6713Z" fill="#0C0C0C"/>
<path d="M21.9213 52.3013C21.9213 52.3013 21.8713 52.4213 21.7813 52.5813C21.6913 52.7413 21.5413 52.9313 21.3813 53.1013C21.2213 53.2713 21.0313 53.4313 20.8813 53.5213C20.7313 53.6213 20.6013 53.6613 20.6013 53.6613C20.5613 53.6813 20.5113 53.6513 20.4913 53.6113C20.4813 53.5913 20.4813 53.5713 20.4913 53.5613C20.4913 53.5613 20.5313 53.4313 20.6313 53.2813C20.7213 53.1213 20.8713 52.9313 21.0413 52.7713C21.2113 52.6013 21.3913 52.4513 21.5513 52.3513C21.7013 52.2513 21.8213 52.2013 21.8213 52.2013C21.8613 52.1813 21.9113 52.2013 21.9313 52.2413C21.9313 52.2613 21.9313 52.2813 21.9213 52.3013Z" fill="#0C0C0C"/>
<path d="M26.6013 68.9113C26.6013 68.9113 26.5913 68.9113 26.5713 68.9113C26.5613 68.9113 26.5513 68.9113 26.5513 68.9113C26.5413 68.9113 26.5313 68.9113 26.5313 68.9113C26.5213 68.9113 26.5113 68.9113 26.5013 68.9113C26.4813 68.9113 26.4613 68.9113 26.4413 68.9113C26.3913 68.9113 26.3513 68.9113 26.2913 68.9213C26.2313 68.9313 26.1613 68.9413 26.0913 68.9513C26.0113 68.9713 25.9313 68.9913 25.8513 69.0113C25.7613 69.0313 25.6713 69.0713 25.5713 69.1013C25.4713 69.1413 25.3713 69.1713 25.2613 69.2213C25.1513 69.2713 25.0413 69.3313 24.9313 69.3813C24.8113 69.4313 24.7013 69.5113 24.5813 69.5813C24.4713 69.6513 24.3313 69.7213 24.2213 69.8113C24.0913 69.9013 23.9613 70.0013 23.8313 70.0913C23.5713 70.2813 23.2913 70.4813 23.0113 70.6813C22.7313 70.8813 22.4613 71.0913 22.1813 71.2913C21.6313 71.7013 21.0713 72.1213 20.5613 72.5113C20.0413 72.9013 19.5613 73.2713 19.1413 73.5913C18.3013 74.2213 17.7513 74.6413 17.7513 74.6413C17.5613 74.7913 17.2813 74.7513 17.1413 74.5513C17.0013 74.3613 17.0313 74.0913 17.2213 73.9513L17.2313 73.9413C17.2313 73.9413 17.7713 73.5113 18.5813 72.8613C18.9913 72.5313 19.4613 72.1513 19.9713 71.7413C20.4813 71.3313 21.0313 70.9013 21.5813 70.4613C21.8513 70.2413 22.1313 70.0213 22.4013 69.8213C22.6713 69.6113 22.9413 69.4113 23.2013 69.2113C23.3313 69.1113 23.4613 69.0113 23.5813 68.9213C23.7213 68.8113 23.8613 68.7313 23.9913 68.6413C24.1313 68.5613 24.2513 68.4613 24.3913 68.3913C24.5313 68.3213 24.6613 68.2513 24.7913 68.1813C24.9113 68.1113 25.0513 68.0713 25.1713 68.0113C25.2913 67.9613 25.4113 67.9113 25.5313 67.8813C25.6513 67.8513 25.7613 67.8213 25.8613 67.7913C25.9713 67.7713 26.0713 67.7513 26.1613 67.7413C26.2513 67.7213 26.3413 67.7213 26.4113 67.7113C26.4513 67.7113 26.4813 67.7113 26.5113 67.7013C26.5513 67.7013 26.5813 67.7013 26.6213 67.7013C26.6513 67.7013 26.6813 67.7013 26.7013 67.7013C26.7313 67.7013 26.7513 67.7013 26.7513 67.7013C26.7713 67.7013 26.7813 67.7013 26.7813 67.7013C27.1113 67.7313 27.3513 68.0213 27.3213 68.3513C27.2913 68.6813 27.0013 68.9213 26.6713 68.8913H26.6613L26.6013 68.9113Z" fill="#0C0C0C"/>
<path d="M7.18131 75.5813C7.04131 75.5813 6.9213 75.4913 6.8913 75.3513C6.8513 75.1913 6.9513 75.0213 7.1113 74.9813C11.0613 74.0013 17.2713 74.0513 17.5413 74.0513C17.7113 74.0513 17.8413 74.1913 17.8413 74.3613C17.8413 74.5213 17.7013 74.6613 17.5413 74.6613C17.4813 74.6613 11.1413 74.6113 7.2713 75.5713C7.2313 75.5713 7.20131 75.5813 7.18131 75.5813Z" fill="#0C0C0C"/>
<path d="M7.12128 74.0912C7.12128 74.0912 7.1913 74.2212 7.2713 74.4312C7.3113 74.5312 7.3513 74.6513 7.3913 74.7812C7.4213 74.9112 7.4613 75.0512 7.4913 75.1912C7.5513 75.4712 7.5813 75.7612 7.5813 75.9812C7.5813 76.0912 7.58129 76.1813 7.57129 76.2513C7.56129 76.3213 7.56128 76.3512 7.56128 76.3512C7.55128 76.3912 7.5113 76.4212 7.4613 76.4112C7.4413 76.4112 7.42129 76.3912 7.41129 76.3712C7.41129 76.3712 7.3913 76.3412 7.3613 76.2812C7.3313 76.2213 7.29128 76.1412 7.25128 76.0312C7.17128 75.8212 7.09129 75.5512 7.04129 75.2612C7.01129 75.1212 7.00129 74.9712 6.98129 74.8412C6.97129 74.7012 6.9613 74.5813 6.9613 74.4713C6.9613 74.2513 6.98129 74.1012 6.98129 74.1012C6.99129 74.0612 7.03129 74.0312 7.07129 74.0312C7.09129 74.0512 7.11128 74.0712 7.12128 74.0912Z" fill="#0C0C0C"/>
<path d="M23.7213 99.4713L18.0313 112.491C17.9513 112.681 17.7213 112.771 17.5313 112.691C17.3413 112.611 17.2513 112.391 17.3313 112.201L22.7813 99.0813C22.8913 98.8213 23.1913 98.7013 23.4513 98.8113C23.7113 98.9213 23.8313 99.2213 23.7213 99.4813C23.7213 99.4613 23.7213 99.4613 23.7213 99.4713Z" fill="#0C0C0C"/>
<path d="M27.1913 81.4613C27.1813 81.4613 27.1613 81.4413 27.1213 81.4113C27.0813 81.3813 27.0213 81.3413 26.9413 81.2913C26.7913 81.1913 26.5713 81.0513 26.2813 80.8813C25.9913 80.7113 25.6313 80.5113 25.1713 80.3113C24.9413 80.2113 24.6913 80.1113 24.3913 80.0213C24.0913 79.9313 23.7513 79.8513 23.3113 79.8413C23.2513 79.8413 23.2013 79.8413 23.1413 79.8413C23.0813 79.8513 23.0213 79.8513 22.9513 79.8613C22.8913 79.8713 22.8313 79.8713 22.7613 79.8813C22.6913 79.8913 22.6213 79.9113 22.5513 79.9313L22.4513 79.9613L22.3413 80.0013C22.2713 80.0313 22.1913 80.0613 22.1213 80.0913C21.9713 80.1713 21.8213 80.2613 21.7013 80.3713C21.5713 80.4813 21.4413 80.6013 21.3513 80.7413C21.3013 80.8013 21.2513 80.8713 21.2113 80.9413C21.1713 81.0013 21.1413 81.0713 21.1113 81.1413C21.0813 81.2013 21.0413 81.2813 21.0213 81.3413L20.9613 81.5313C20.9413 81.5913 20.9213 81.6613 20.9113 81.7213L20.8813 81.8913L20.8513 82.0713L20.8413 82.2313C20.8413 82.3313 20.8213 82.4513 20.8313 82.5513C20.8313 82.6513 20.8413 82.7513 20.8413 82.8513V82.8913V82.9313V82.9413L20.8513 83.0013L20.8613 83.1113C20.8913 83.4213 20.9213 83.7313 20.9613 84.0513C21.0913 85.3313 21.2313 86.7013 21.3713 88.0613C21.5113 89.4313 21.6513 90.7913 21.7913 92.0713C21.9313 93.3513 22.0713 94.5513 22.1813 95.5813C22.4113 97.6313 22.5613 99.0013 22.5613 99.0013C22.6013 99.3813 22.9413 99.6713 23.3313 99.6513C23.7413 99.6313 24.0513 99.2813 24.0313 98.8813C24.0313 98.8813 23.9613 97.5113 23.8613 95.4613C23.8113 94.4313 23.7513 93.2413 23.6813 91.9613C23.6313 90.6713 23.5713 89.3013 23.5113 87.9313C23.4513 86.5613 23.4013 85.1913 23.3413 83.9013C23.3313 83.5813 23.2313 82.5613 23.3113 82.5013C23.3713 82.4613 23.4613 82.5113 23.5813 82.5713C23.7213 82.6413 23.8613 82.7113 24.0113 82.7813C24.3113 82.9313 24.5813 83.1013 24.8013 83.2513C25.0213 83.4013 25.1913 83.5213 25.3013 83.6113C25.3513 83.6513 25.3913 83.6813 25.4213 83.7013C25.4413 83.7213 25.4513 83.7313 25.4513 83.7313C25.4713 83.7513 25.5013 83.7713 25.5313 83.7913C26.1613 84.2413 27.0513 84.1013 27.5013 83.4613C27.9713 82.8013 27.8213 81.9213 27.1913 81.4613Z" fill="#0C0C0C"/>
<path d="M36.8313 110.221C37.1913 110.221 38.7513 109.621 39.1513 108.561C39.5513 107.501 42.7813 105.941 44.7413 103.371C46.7113 100.801 47.9613 94.9013 48.9213 80.7013C49.8813 66.4913 44.9213 65.4713 44.9213 65.4713C44.9213 65.4713 46.4813 65.2413 46.0913 62.0312C45.6413 58.3313 40.3113 56.2113 40.3113 56.2113C40.3113 56.2113 41.6013 55.8213 40.9513 54.3613C40.2913 52.8713 36.8313 52.9613 36.8313 52.9613C36.8313 52.9613 33.3713 52.8713 32.7113 54.3613C32.0613 55.8313 33.3513 56.2113 33.3513 56.2113C33.3513 56.2113 28.0213 58.3313 27.5713 62.0312C27.1813 65.2413 28.7413 65.4713 28.7413 65.4713C28.7413 65.4713 23.7813 66.4913 24.7313 80.7013C25.6913 94.9113 26.9513 100.801 28.9113 103.371C30.8713 105.941 34.1013 107.501 34.5013 108.561C34.9113 109.611 36.4713 110.221 36.8313 110.221Z" fill="#0C0C0C"/>
<path d="M38.3313 53.7213C38.3313 53.7213 38.7613 52.8013 39.5413 51.2013C40.3213 49.6013 41.4413 47.3213 42.8113 44.6013C45.5613 39.1613 49.3213 31.9513 53.3713 24.9013C55.4013 21.3813 57.5013 17.9013 59.5813 14.7013C61.6613 11.5013 63.7213 8.60129 65.6613 6.24129C66.6313 5.06129 67.5713 4.01129 68.4613 3.14129C69.3513 2.27129 70.1913 1.57129 70.9413 1.07129C71.3113 0.821288 71.6713 0.621289 71.9813 0.471289C72.3013 0.321289 72.5813 0.22129 72.8113 0.15129C73.0413 0.0812897 73.2313 0.0512908 73.3613 0.0312908C73.4913 0.0112908 73.5513 0.0112904 73.5513 0.0112904C73.6113 0.00129035 73.6713 0.0512888 73.6813 0.111289C73.6913 0.171289 73.6413 0.23129 73.5813 0.24129H73.5713C73.5713 0.24129 73.5113 0.25129 73.3913 0.26129C73.2713 0.28129 73.1013 0.311289 72.8813 0.381289C72.6613 0.451289 72.3913 0.551289 72.0913 0.701289C71.7913 0.851289 71.4513 1.05129 71.0913 1.30129C70.3613 1.79129 69.5513 2.49129 68.6813 3.36129C67.8113 4.23129 66.8913 5.28129 65.9513 6.46129C64.0513 8.83129 62.0313 11.7513 60.0013 14.9613C57.9713 18.1713 55.9113 21.6713 53.9413 25.2113C49.9813 32.2913 46.3113 39.5313 43.6413 45.0013C42.3013 47.7313 41.2113 50.0213 40.4613 51.6313C39.7013 53.2413 39.2813 54.1613 39.2813 54.1613C39.1613 54.4213 38.8613 54.5313 38.6013 54.4113C38.3213 54.2913 38.2113 53.9913 38.3313 53.7213C38.3313 53.7213 38.3213 53.7313 38.3313 53.7213Z" fill="#0C0C0C"/>
<path d="M39.9913 56.5513C39.9913 56.5513 40.0113 56.5313 40.0413 56.4813C40.0713 56.4313 40.1213 56.3613 40.1713 56.2813C40.2913 56.1013 40.4513 55.8413 40.6313 55.5313C40.8113 55.2213 41.0313 54.8513 41.2413 54.4413C41.3513 54.2413 41.4513 54.0313 41.5613 53.8213C41.6713 53.6013 41.7713 53.3913 41.8813 53.1713C41.9813 52.9513 42.0913 52.7313 42.1813 52.5113C42.2713 52.2913 42.3713 52.0713 42.4513 51.8613C42.5313 51.6513 42.6113 51.4413 42.6813 51.2413C42.7513 51.0413 42.8213 50.8613 42.8613 50.6813C42.9113 50.5013 42.9613 50.3413 43.0013 50.2013C43.0413 50.0613 43.0613 49.9313 43.0913 49.8313C43.1413 49.6213 43.1713 49.5013 43.1713 49.5013V49.4913C43.1913 49.4213 43.2613 49.3713 43.3313 49.3913C43.4013 49.4113 43.4413 49.4713 43.4313 49.5513C43.4313 49.5513 43.4113 49.6713 43.3813 49.8913C43.3613 50.0013 43.3413 50.1313 43.3213 50.2813C43.2913 50.4313 43.2513 50.6013 43.2113 50.7813C43.1713 50.9613 43.1213 51.1613 43.0613 51.3613C43.0113 51.5713 42.9413 51.7813 42.8713 52.0113C42.8113 52.2413 42.7213 52.4613 42.6513 52.6913C42.5713 52.9213 42.4813 53.1513 42.4013 53.3913C42.3113 53.6213 42.2213 53.8513 42.1213 54.0813C42.0213 54.3113 41.9313 54.5313 41.8313 54.7413C41.6413 55.1713 41.4513 55.5613 41.2813 55.8913C41.1113 56.2313 40.9713 56.5013 40.8613 56.6913C40.8113 56.7913 40.7613 56.8613 40.7313 56.9213C40.7013 56.9713 40.6913 57.0013 40.6913 57.0013C40.5813 57.2013 40.3313 57.2713 40.1313 57.1613C39.9313 57.0513 39.8613 56.7913 39.9813 56.6013C39.9813 56.5713 39.9813 56.5713 39.9913 56.5513Z" fill="#0C0C0C"/>
<path d="M44.6813 60.9113L47.9913 58.1613C48.1513 58.0313 48.3913 58.0513 48.5213 58.2113C48.6513 58.3713 48.6313 58.6013 48.4813 58.7313L45.2913 61.6213C45.1013 61.7913 44.8013 61.7813 44.6213 61.5913C44.4413 61.4013 44.4613 61.1013 44.6513 60.9213C44.6713 60.9213 44.6813 60.9213 44.6813 60.9113Z" fill="#0C0C0C"/>
<path d="M48.2413 58.6713C48.2013 58.6713 48.1613 58.6613 48.1213 58.6313C48.0113 58.5613 47.9813 58.4213 48.0513 58.3213C48.1513 58.1613 50.5213 54.3913 52.4213 52.6113C52.5113 52.5213 52.6513 52.5313 52.7413 52.6213C52.8213 52.7113 52.8213 52.8513 52.7313 52.9413C50.8813 54.6813 48.4613 58.5213 48.4313 58.5613C48.3913 58.6413 48.3213 58.6713 48.2413 58.6713Z" fill="#0C0C0C"/>
<path d="M51.8413 52.2013C51.8413 52.2013 51.9613 52.2513 52.1113 52.3513C52.2613 52.4513 52.4513 52.6013 52.6213 52.7713C52.7913 52.9413 52.9413 53.1213 53.0313 53.2813C53.1313 53.4413 53.1713 53.5613 53.1713 53.5613C53.1813 53.6013 53.1613 53.6513 53.1213 53.6713C53.1013 53.6813 53.0813 53.6813 53.0613 53.6713C53.0613 53.6713 52.9413 53.6213 52.7913 53.5313C52.6313 53.4313 52.4513 53.2813 52.2913 53.1113C52.1313 52.9413 51.9813 52.7513 51.8913 52.5913C51.7913 52.4413 51.7513 52.3113 51.7513 52.3113C51.7313 52.2713 51.7613 52.2213 51.8013 52.2013C51.8013 52.1913 51.8213 52.1913 51.8413 52.2013Z" fill="#0C0C0C"/>
<path d="M46.9113 67.7313C46.9113 67.7313 46.9213 67.7313 46.9413 67.7313C46.9513 67.7313 46.9713 67.7313 46.9913 67.7313C47.0113 67.7313 47.0413 67.7313 47.0813 67.7313C47.1113 67.7313 47.1513 67.7313 47.1913 67.7313C47.2213 67.7313 47.2613 67.7313 47.2913 67.7413C47.3613 67.7513 47.4513 67.7513 47.5413 67.7713C47.6313 67.7913 47.7313 67.8013 47.8313 67.8213C47.9313 67.8513 48.0413 67.8813 48.1613 67.9113C48.2813 67.9413 48.3913 67.9913 48.5213 68.0413C48.6413 68.0913 48.7813 68.1313 48.9013 68.2113C49.0313 68.2813 49.1613 68.3413 49.2913 68.4213C49.4313 68.4913 49.5513 68.5813 49.6913 68.6713C49.8213 68.7613 49.9613 68.8413 50.1013 68.9513C50.2313 69.0413 50.3513 69.1413 50.4813 69.2413C50.7413 69.4413 51.0113 69.6413 51.2813 69.8513C51.5513 70.0513 51.8313 70.2713 52.1013 70.4913C52.6513 70.9213 53.1913 71.3613 53.7113 71.7713C54.2213 72.1813 54.6913 72.5613 55.1013 72.8913C55.9113 73.5413 56.4513 73.9713 56.4513 73.9713L56.4613 73.9813C56.6513 74.1313 56.6813 74.4113 56.5313 74.5913C56.3813 74.7813 56.1113 74.8113 55.9213 74.6713C55.9213 74.6713 55.3613 74.2513 54.5313 73.6213C54.1113 73.3013 53.6313 72.9413 53.1113 72.5413C52.5913 72.1513 52.0413 71.7413 51.4913 71.3213C51.2113 71.1113 50.9413 70.9013 50.6613 70.7113C50.3813 70.5113 50.1113 70.3113 49.8413 70.1213C49.7113 70.0313 49.5813 69.9313 49.4513 69.8413C49.3413 69.7613 49.2113 69.6913 49.0913 69.6113C48.9713 69.5413 48.8613 69.4613 48.7413 69.4113C48.6313 69.3613 48.5213 69.3013 48.4113 69.2513C48.3013 69.1913 48.2013 69.1713 48.1013 69.1313C48.0013 69.1013 47.9113 69.0513 47.8213 69.0413C47.7313 69.0213 47.6513 69.0013 47.5713 68.9813C47.5013 68.9713 47.4313 68.9613 47.3713 68.9513C47.3113 68.9413 47.2613 68.9413 47.2213 68.9413C47.2013 68.9413 47.1813 68.9413 47.1613 68.9413C47.1513 68.9413 47.1413 68.9413 47.1313 68.9413C47.1213 68.9413 47.1113 68.9413 47.1113 68.9413C47.1113 68.9413 47.1013 68.9413 47.0813 68.9413C47.0613 68.9413 47.0513 68.9413 47.0513 68.9413H47.0313C46.7013 68.9813 46.4113 68.7513 46.3613 68.4213C46.3213 68.0913 46.5513 67.7913 46.8813 67.7513C46.8913 67.7313 46.9013 67.7313 46.9113 67.7313Z" fill="#0C0C0C"/>
<path d="M66.4813 75.5813C66.4613 75.5813 66.4313 75.5813 66.4113 75.5713C62.5413 74.6113 56.2013 74.6613 56.1313 74.6613C55.9613 74.6613 55.8313 74.5313 55.8313 74.3613C55.8313 74.1913 55.9613 74.0613 56.1313 74.0513C56.3913 74.0513 62.6113 74.0013 66.5613 74.9813C66.7213 75.0213 66.8213 75.1813 66.7813 75.3513C66.7413 75.4913 66.6113 75.5813 66.4813 75.5813Z" fill="#0C0C0C"/>
<path d="M66.6813 74.1213C66.6813 74.1213 66.7013 74.2713 66.7013 74.4913C66.7013 74.6013 66.6913 74.7313 66.6813 74.8613C66.6613 74.9913 66.6513 75.1413 66.6213 75.2813C66.5713 75.5713 66.4913 75.8413 66.4113 76.0513C66.3713 76.1513 66.3313 76.2413 66.3013 76.3013C66.2713 76.3613 66.2513 76.3913 66.2513 76.3913C66.2313 76.4313 66.1713 76.4413 66.1413 76.4113C66.1213 76.4013 66.1113 76.3813 66.1013 76.3613C66.1013 76.3613 66.0913 76.3213 66.0913 76.2613C66.0813 76.1913 66.0813 76.1013 66.0813 75.9913C66.0813 75.7713 66.1113 75.4813 66.1713 75.2013C66.2013 75.0613 66.2413 74.9213 66.2713 74.7913C66.3113 74.6613 66.3513 74.5413 66.3913 74.4413C66.4713 74.2313 66.5413 74.1013 66.5413 74.1013C66.5613 74.0613 66.6113 74.0513 66.6513 74.0713C66.6613 74.0713 66.6813 74.0913 66.6813 74.1213Z" fill="#0C0C0C"/>
<path d="M50.8713 99.0613L56.3213 112.181C56.4013 112.371 56.3113 112.591 56.1113 112.671C55.9213 112.751 55.7013 112.661 55.6213 112.471L49.9313 99.4513C49.8213 99.1913 49.9313 98.8913 50.1913 98.7813C50.4613 98.6813 50.7613 98.8013 50.8713 99.0613Z" fill="#0C0C0C"/>
<path d="M46.4713 81.4613C46.4813 81.4613 46.5013 81.4413 46.5413 81.4113C46.5813 81.3813 46.6413 81.3413 46.7213 81.2913C46.8713 81.1913 47.0913 81.0513 47.3813 80.8813C47.6713 80.7113 48.0313 80.5113 48.4913 80.3113C48.7213 80.2113 48.9713 80.1113 49.2713 80.0213C49.5713 79.9313 49.9113 79.8513 50.3513 79.8413C50.4113 79.8413 50.4613 79.8413 50.5213 79.8413C50.5813 79.8513 50.6413 79.8513 50.7113 79.8613C50.7813 79.8713 50.8313 79.8713 50.9013 79.8813C50.9713 79.8913 51.0413 79.9113 51.1113 79.9313L51.2113 79.9613L51.3213 80.0013C51.3913 80.0313 51.4713 80.0613 51.5413 80.0913C51.6913 80.1713 51.8413 80.2613 51.9613 80.3713C52.0913 80.4813 52.2213 80.6013 52.3113 80.7413C52.3613 80.8013 52.4113 80.8713 52.4513 80.9413C52.4813 81.0013 52.5213 81.0713 52.5513 81.1413C52.5813 81.2013 52.6213 81.2813 52.6413 81.3413L52.7013 81.5313C52.7213 81.5913 52.7413 81.6613 52.7513 81.7213L52.7813 81.8913L52.8113 82.0713L52.8213 82.2313C52.8213 82.3313 52.8413 82.4513 52.8313 82.5513C52.8313 82.6513 52.8213 82.7513 52.8213 82.8513V82.8913V82.9313V82.9413L52.8113 83.0013L52.8013 83.1113C52.7713 83.4213 52.7413 83.7313 52.7013 84.0513C52.5713 85.3313 52.4313 86.7013 52.2913 88.0613C52.1513 89.4313 52.0113 90.7913 51.8813 92.0713C51.7413 93.3513 51.6013 94.5513 51.4913 95.5813C51.2613 97.6313 51.1013 99.0013 51.1013 99.0013C51.0613 99.3813 50.7213 99.6713 50.3313 99.6513C49.9213 99.6313 49.6113 99.2813 49.6313 98.8813C49.6313 98.8813 49.7013 97.5113 49.8013 95.4613C49.8513 94.4313 49.9113 93.2413 49.9713 91.9613C50.0213 90.6713 50.0813 89.3013 50.1413 87.9313C50.2013 86.5613 50.2513 85.1913 50.3113 83.9013C50.3213 83.5813 50.4213 82.5613 50.3413 82.5013C50.2813 82.4613 50.1913 82.5113 50.0713 82.5713C49.9313 82.6413 49.7913 82.7113 49.6413 82.7813C49.3413 82.9313 49.0713 83.1013 48.8513 83.2513C48.6313 83.4013 48.4613 83.5213 48.3513 83.6113C48.3013 83.6513 48.2613 83.6813 48.2313 83.7013C48.2113 83.7213 48.1913 83.7313 48.1913 83.7313C48.1713 83.7513 48.1413 83.7713 48.1213 83.7913C47.4813 84.2413 46.6013 84.1013 46.1513 83.4613C45.6913 82.8013 45.8413 81.9213 46.4713 81.4613Z" fill="#0C0C0C"/>
</svg>
