<svg width="129" height="83" viewBox="0 0 129 83" fill="none" xmlns="http://www.w3.org/2000/svg">
<path d="M125.091 34.6054C123.041 33.0554 117.881 32.7254 113.911 32.7254C110.001 32.7254 106.181 33.0254 103.911 33.3154C102.561 33.4854 100.261 33.7354 97.6006 34.0354C90.0006 34.8854 79.6006 36.0354 76.0206 36.8154C74.2506 37.1954 73.2306 37.4454 72.6606 37.7354C72.8106 35.7854 72.6206 33.8654 72.3606 32.2754C74.6906 30.6654 75.9806 26.4454 75.9806 26.4454C76.0306 26.1654 78.3606 21.0254 79.4406 17.7654C80.5206 14.5054 79.7706 13.7554 79.7706 13.7554C84.3506 9.41539 84.2306 8.15542 84.2306 8.15542C86.7006 7.03542 86.3106 5.80538 86.3106 5.80538C88.2006 4.87538 87.9906 3.58541 87.9906 3.58541C89.1606 3.13541 89.2006 2.15542 89.2006 2.15542C89.7606 1.68542 91.1206 0.4954 90.5006 0.0753998C89.7106 -0.4446 88.8206 1.89541 88.8206 1.89541C88.0706 1.75541 87.7006 3.39541 87.7006 3.39541C86.9106 3.34541 86.0206 5.54543 86.0206 5.54543C85.1306 5.03543 83.8706 7.87539 83.8706 7.87539C83.1206 7.68539 79.1106 13.4754 79.1106 13.4754C77.9406 13.4754 77.2906 16.6954 77.1006 19.3554C76.9106 22.0154 75.0506 26.0754 75.0506 26.0754C73.3606 26.7654 72.2806 28.0754 71.5906 29.3654C70.7006 27.3554 69.3806 26.5154 69.3806 26.5154C71.2006 26.1954 71.5006 25.3754 71.6706 25.1854C71.8306 24.9954 72.5606 25.1354 72.4206 22.8054C72.2806 20.4754 68.9406 19.1654 68.3806 19.0054C67.8206 18.8354 68.1506 18.9754 67.1706 18.2354C66.1906 17.4854 64.0406 17.5854 64.0406 17.5854C64.0406 17.5854 61.8906 17.4954 60.9106 18.2354C59.9306 18.9854 60.2606 18.8454 59.7006 19.0054C59.1406 19.1654 55.8006 20.4754 55.6606 22.8054C55.5206 25.1354 56.2406 24.9954 56.4106 25.1854C56.5706 25.3754 56.8806 26.1954 58.7006 26.5154C58.7006 26.5154 57.3806 27.3554 56.4906 29.3654C55.8006 28.0754 54.7206 26.7554 53.0306 26.0754C53.0306 26.0754 51.1606 22.0154 50.9806 19.3554C50.7906 16.6954 50.1406 13.4754 48.9706 13.4754C48.9706 13.4754 44.9606 7.68539 44.2106 7.87539C44.2106 7.87539 42.9506 5.02543 42.0606 5.54543C42.0606 5.54543 41.1706 3.34541 40.3806 3.39541C40.3806 3.39541 40.0106 1.76541 39.2606 1.89541C39.2606 1.89541 38.3706 -0.4446 37.5806 0.0753998C36.9606 0.4954 38.3206 1.68542 38.8806 2.15542C38.8806 2.15542 38.9206 3.14541 40.0906 3.58541C40.0906 3.58541 39.8806 4.88538 41.7706 5.80538C41.7706 5.80538 41.3806 7.03542 43.8506 8.15542C43.8506 8.15542 43.7406 9.40539 48.3106 13.7554C48.3106 13.7554 47.5606 14.5054 48.6406 17.7654C49.7106 21.0354 52.0506 26.1654 52.0906 26.4454C52.0906 26.4454 53.3806 30.6654 55.7106 32.2754C55.4506 33.8754 55.2606 35.7854 55.4106 37.7354C54.8406 37.4454 53.8206 37.1954 52.0506 36.8154C48.4706 36.0354 38.0706 34.8754 30.4706 34.0354C27.8106 33.7454 25.5106 33.4854 24.1606 33.3154C21.8806 33.0254 18.0606 32.7254 14.1606 32.7254C10.2006 32.7254 5.04062 33.0554 2.98062 34.6054C1.09062 36.0354 0.0306371 37.8154 0.000637116 39.6054C-0.0293629 41.4354 1.00062 43.2454 2.98062 44.8354C6.63062 47.7854 11.9906 49.6354 15.5406 50.8654C16.2406 51.1054 16.8506 51.3154 17.3706 51.5154C18.4506 51.9154 19.5806 52.5954 20.7906 53.3254C23.2606 54.8154 26.0606 56.4954 29.9406 56.9154L29.9906 56.9254C30.5306 56.9854 31.0506 57.0354 31.5706 57.0954C31.5806 57.0954 31.6006 57.0954 31.6206 57.0954C32.7506 57.2054 33.8506 57.2854 34.9406 57.2854C36.9606 57.2854 39.1606 57.0454 41.3106 55.8054C41.2206 56.0854 41.1806 56.3254 41.2006 56.5654C41.2006 56.5654 35.8806 61.7454 35.6006 62.7754C35.6006 62.7754 33.3206 64.2554 32.7206 65.2354C32.7206 65.2354 31.4506 65.7654 31.0706 66.5154C31.0706 66.5154 30.0406 66.8454 29.8106 67.4954C29.8106 67.4954 27.8206 68.5054 28.0406 69.2654C28.1906 69.7854 29.6106 68.4754 30.0306 67.8254C30.0306 67.8254 31.1906 67.5754 31.3506 66.8354C31.3506 66.8354 32.6606 66.4954 33.0306 65.5254C33.0306 65.5254 34.9906 64.4054 35.8306 63.1954C35.8306 63.1954 37.1406 62.3554 39.1506 60.3454C41.1606 58.3354 41.3906 57.6854 42.1406 57.4954C42.8906 57.3054 43.7706 56.4254 44.4306 54.9254C44.6406 54.4354 45.0406 53.1954 45.4906 51.7454C45.5706 51.6254 45.6506 51.5054 45.7306 51.3854C45.9406 51.2954 46.9406 50.8754 48.0306 50.1554C49.1306 49.4454 50.5506 48.2854 51.2206 46.7654C51.5506 47.0654 52.3706 47.6854 53.5906 47.6854C54.5006 47.6854 55.4306 47.3354 56.3606 46.6554C56.4106 46.6454 56.5306 46.6254 56.6706 46.5854C56.7606 46.6054 56.8606 46.6154 56.9506 46.6254C56.6106 47.7254 56.2106 49.1154 55.8506 50.5854C54.5706 51.0354 53.2106 51.7054 52.3106 52.6854C50.1106 55.0654 49.9306 56.4154 49.9306 56.9354C49.9306 56.9354 48.2506 59.8754 47.8806 62.8654C47.5106 65.8554 46.3906 69.4954 47.3206 70.3354C47.3206 70.3354 42.3706 74.4954 41.7606 75.7554C41.7606 75.7554 40.0306 76.4054 39.5606 77.7154C39.5606 77.7154 37.4106 78.7854 37.6506 79.3054C37.6506 79.3054 36.1906 79.7754 36.2406 80.3754C36.2406 80.3754 34.0506 81.5954 34.4806 82.1954C34.8106 82.6654 36.2706 81.2454 36.4606 80.6854C36.4606 80.6854 37.2706 80.8354 37.8806 79.5854C37.8806 79.5854 38.5406 79.7954 39.8506 77.9854C39.8506 77.9854 41.4906 77.4154 42.0706 76.1254C42.0706 76.1254 42.5106 76.1754 44.1706 74.4854C45.8306 72.7854 47.3906 70.9354 47.8306 70.8454C48.2706 70.7554 48.6506 69.9154 48.7906 68.9254C48.7906 68.9254 49.7406 58.4054 50.1706 57.8454C50.6106 57.2854 50.9506 57.2754 51.6706 56.9554C52.3406 56.6654 53.6206 55.9554 54.9506 55.0454C54.7806 56.2554 54.7006 57.3854 54.7806 58.3154C55.1506 62.8954 56.5406 68.2154 60.2006 72.1854C62.7406 74.9454 63.2806 75.5054 64.0306 75.5054C64.7806 75.5054 65.3106 74.9554 67.8606 72.1854C71.5106 68.2254 72.9006 62.8954 73.2806 58.3154C73.3606 57.3854 73.2806 56.2554 73.1106 55.0454C74.4406 55.9554 75.7306 56.6654 76.3906 56.9554C77.1206 57.2754 77.4606 57.2854 77.9006 57.8454C78.3406 58.4054 79.2806 68.9254 79.2806 68.9254C79.4206 69.9254 79.8106 70.7654 80.2406 70.8454C80.6806 70.9354 82.2406 72.7854 83.9006 74.4854C85.5606 76.1854 86.0006 76.1254 86.0006 76.1254C86.5806 77.4254 88.2206 77.9854 88.2206 77.9854C89.5306 79.8054 90.1906 79.5854 90.1906 79.5854C90.8006 80.8354 91.6106 80.6854 91.6106 80.6854C91.8006 81.2454 93.2706 82.6554 93.5906 82.1954C94.0106 81.5854 91.8306 80.3754 91.8306 80.3754C91.8806 79.7654 90.4206 79.3054 90.4206 79.3054C90.6506 78.7954 88.5006 77.7154 88.5006 77.7154C88.0306 76.4054 86.3106 75.7554 86.3106 75.7554C85.7006 74.4954 80.7506 70.3354 80.7506 70.3354C81.6806 69.4954 80.5606 65.8554 80.1906 62.8654C79.8206 59.8754 78.1406 56.9354 78.1406 56.9354C78.1406 56.4254 77.9506 55.0654 75.7606 52.6854C74.8606 51.7054 73.5106 51.0354 72.2206 50.5854C71.8506 49.1154 71.4506 47.7254 71.1206 46.6254C71.2106 46.6154 71.3106 46.5954 71.4006 46.5854C71.5406 46.6254 71.6606 46.6454 71.7106 46.6554C72.6406 47.3454 73.5806 47.6854 74.4806 47.6854C75.7006 47.6854 76.5206 47.0654 76.8506 46.7654C77.5206 48.2854 78.9406 49.4454 80.0406 50.1554C81.1306 50.8754 82.1306 51.2954 82.3406 51.3854C82.4206 51.5054 82.5006 51.6254 82.5806 51.7454C83.0306 53.2054 83.4306 54.4454 83.6506 54.9254C84.3006 56.4154 85.1906 57.3054 85.9406 57.4954C86.6906 57.6854 86.9206 58.3354 88.9306 60.3454C90.9406 62.3554 92.2406 63.1954 92.2406 63.1954C93.0806 64.4054 95.0406 65.5254 95.0406 65.5254C95.4106 66.4854 96.7206 66.8354 96.7206 66.8354C96.8806 67.5754 98.0406 67.8254 98.0406 67.8254C98.4606 68.4754 99.8806 69.7854 100.031 69.2654C100.241 68.5054 98.2606 67.4954 98.2606 67.4954C98.0306 66.8454 97.0006 66.5154 97.0006 66.5154C96.6306 65.7654 95.3506 65.2354 95.3506 65.2354C94.7406 64.2554 92.4706 62.7754 92.4706 62.7754C92.1906 61.7454 86.8706 56.5654 86.8706 56.5654C86.8906 56.3254 86.8606 56.0754 86.7606 55.8054C88.9106 57.0454 91.1106 57.2854 93.1306 57.2854C94.2206 57.2854 95.3206 57.1954 96.4506 57.0954C96.4706 57.0954 96.4806 57.0954 96.5006 57.0954C97.0206 57.0454 97.5406 56.9854 98.0806 56.9254L98.1306 56.9154C102.011 56.4954 104.811 54.8054 107.281 53.3254C108.481 52.6054 109.621 51.9154 110.701 51.5154C111.221 51.3254 111.831 51.1154 112.531 50.8654C116.081 49.6354 121.441 47.7854 125.091 44.8354C127.071 43.2454 128.091 41.4354 128.071 39.6054C128.041 37.8154 126.981 36.0354 125.091 34.6054ZM56.2506 46.3954L56.2206 46.4154C56.1806 46.4454 56.1506 46.4654 56.1106 46.4954C55.2606 47.1054 54.4106 47.4154 53.5906 47.4154C52.3406 47.4154 51.5106 46.6754 51.3206 46.4854C51.3506 46.3354 51.4206 45.9154 51.6006 45.4954C51.7606 45.1054 51.9906 44.7154 52.3306 44.5054C52.6706 44.3054 53.0206 44.0854 53.3606 43.8754C53.9006 43.5354 54.4106 43.2154 54.8306 42.9854C54.8806 42.9554 54.9206 42.9354 54.9706 42.9154C55.7006 42.5354 56.2006 42.3454 56.5206 42.2754C56.7206 42.7054 56.9506 43.1354 57.2206 43.5354C57.3806 43.7754 57.5506 44.0154 57.7406 44.2454C57.7406 44.2454 57.4806 44.9854 57.1106 46.1554C56.7106 46.3154 56.2906 46.3854 56.2906 46.3854L56.2506 46.3954ZM30.0206 56.6454H29.9706C26.1506 56.2354 23.3806 54.5654 20.9306 53.0954C19.9906 52.5254 19.0906 51.9854 18.2206 51.5854C18.5206 50.9854 20.0606 48.2454 23.6006 47.3354C25.5506 46.8354 28.0806 46.3154 31.3406 45.7554L31.8206 45.6754C34.1406 45.2754 39.7606 44.3154 43.4506 43.3354C43.4306 43.5354 43.4606 43.8354 43.6906 44.1354C43.1906 44.4854 42.7006 44.8254 42.2506 45.1354C40.3406 46.4354 35.9706 49.9754 36.5106 54.7754C34.7206 55.8454 32.5706 56.9254 31.6306 56.8454C31.0906 56.7554 30.5606 56.7054 30.0206 56.6454ZM17.4706 51.2554C16.9406 51.0554 16.3406 50.8454 15.6306 50.6054C12.1006 49.3854 6.7606 47.5354 3.1506 44.6254C1.2406 43.0854 0.250605 41.3554 0.280605 39.6154C0.290605 38.6854 0.61064 37.7554 1.19064 36.8754C1.56064 37.2654 2.65062 38.3754 3.79062 39.0354C4.08062 39.2054 4.37061 39.3654 4.66061 39.5154C5.75061 40.0954 6.7706 40.6454 7.1506 41.6254C7.5506 42.6754 8.2906 42.5854 9.6506 42.4254C10.1506 42.3654 10.7806 42.2954 11.5206 42.2554C12.8406 42.1954 14.0906 42.0454 15.1906 41.9054C16.0206 41.8054 16.7606 41.7154 17.4106 41.6754C17.4606 41.9654 17.7006 42.6154 18.8506 43.5854C20.3406 44.8454 20.7006 45.3954 21.1506 46.3354C21.5006 47.0654 21.7406 47.4854 21.8506 47.6554C19.3806 48.8754 18.2306 50.9154 17.9706 51.4354C17.7906 51.3854 17.6306 51.3154 17.4706 51.2554ZM7.20059 33.4654C7.75059 34.6254 10.5206 34.6754 14.3306 34.7454C16.0306 34.7754 17.9506 34.8054 19.8606 34.9554C23.8306 35.2554 25.2606 35.8954 26.6506 36.5154C27.3806 36.8354 28.0606 37.1454 29.0806 37.3854C31.8006 38.0354 35.3706 38.9554 38.4006 39.7754C36.7806 39.8454 33.7306 39.9454 31.9006 39.7154C30.6806 39.5654 29.2506 39.2054 27.7406 38.8354C26.0306 38.4054 24.2506 37.9654 22.5606 37.7654L21.7806 37.6754C18.0006 37.2254 10.1306 36.2954 8.31063 36.2654L7.72061 36.2554C6.17061 36.2254 2.72062 36.1654 1.92062 35.9654C2.28062 35.5754 2.69061 35.1954 3.16061 34.8454C4.02061 34.1654 5.49059 33.7354 7.20059 33.4654ZM24.1206 33.5954C24.8606 33.6854 25.8806 33.8054 27.0906 33.9454C27.8506 36.0954 36.4206 38.1954 36.5006 38.2154C37.0006 38.3154 37.9506 38.5154 39.0406 38.7254C40.4006 38.9954 42.0906 39.3354 43.5506 39.6354C43.6606 39.6554 43.7606 39.6654 43.8606 39.6854C42.5006 39.8454 40.2606 39.9754 38.4806 39.4954C35.4406 38.6654 31.8606 37.7454 29.1306 37.0954C28.1406 36.8554 27.4706 36.5554 26.7506 36.2454C25.3406 35.6154 23.8906 34.9754 19.8706 34.6654C17.9506 34.5154 16.0206 34.4854 14.3206 34.4554C10.9806 34.3954 8.07062 34.3454 7.48062 33.4154C9.60062 33.0954 12.0406 33.0054 14.1406 33.0054C18.0506 33.0154 21.8606 33.3154 24.1206 33.5954ZM30.4306 34.3154C31.0506 34.3854 31.6806 34.4554 32.3306 34.5254C33.5806 37.2354 37.0406 37.6154 40.3906 37.9854C41.2506 38.0754 42.1406 38.1754 42.9506 38.3154C45.4606 38.7354 46.3706 38.6554 47.1006 38.5954C47.5206 38.5554 47.8806 38.5254 48.4606 38.5954C49.8306 38.7554 54.3306 39.4954 55.6706 39.7154C55.6706 39.7354 55.6806 39.7554 55.6806 39.7854C54.1906 39.5554 49.9006 38.9154 48.7006 38.8854C48.1406 38.8654 47.6306 39.0154 47.1006 39.1654C46.2106 39.4154 45.2106 39.7054 43.6006 39.3754C42.1506 39.0754 40.4506 38.7354 39.0906 38.4654C37.9906 38.2454 37.0506 38.0554 36.5506 37.9554C35.0806 37.6454 28.2906 35.6954 27.3906 33.9954C28.3306 34.0854 29.3506 34.1954 30.4306 34.3154ZM48.3706 36.4854C48.1206 36.7254 47.9806 36.9954 47.9606 37.2854C47.9406 37.6954 48.1606 38.0654 48.3506 38.3054C47.8306 38.2554 47.4806 38.2854 47.0806 38.3154C46.3606 38.3754 45.4706 38.4554 43.0006 38.0354C42.1806 37.8954 41.2906 37.8054 40.4206 37.7054C37.2106 37.3554 33.9106 36.9854 32.6606 34.5654C38.0106 35.1654 44.1906 35.8654 48.3706 36.4854ZM51.9806 37.0954C54.0206 37.5354 54.9906 37.7954 55.4306 38.0854C55.4706 38.5254 55.5306 38.9754 55.6106 39.4154C54.2406 39.1854 50.3406 38.5454 48.7706 38.3454C48.6506 38.2354 48.2206 37.7854 48.2406 37.2954C48.2506 37.0154 48.4306 36.7554 48.7406 36.5354C50.0906 36.7354 51.2006 36.9254 51.9806 37.0954ZM7.70059 36.5154L8.29062 36.5254C10.1006 36.5654 17.9606 37.4854 21.7306 37.9354L22.5106 38.0254C24.1806 38.2254 25.9406 38.6654 27.6506 39.0854C29.1706 39.4654 30.6106 39.8254 31.8506 39.9754C32.7206 40.0854 33.8606 40.1154 35.0006 40.1154C37.2506 40.1154 39.4606 39.9754 39.5006 39.9754C40.1506 40.0654 40.8206 40.1054 41.4706 40.1054C43.4006 40.1054 45.0706 39.7954 45.1506 39.7854C45.9706 39.7654 46.6106 39.5854 47.2006 39.4154C47.7406 39.2654 48.2006 39.1254 48.7206 39.1454C49.9206 39.1854 54.3906 39.8554 55.7706 40.0654C55.8606 40.4454 55.9606 40.8154 56.0906 41.1854C55.9806 41.1854 55.8606 41.1854 55.7306 41.1954C55.3606 41.2054 54.9806 41.2154 54.6906 41.1354C54.1806 40.9954 53.4706 41.0454 52.8406 41.0954C52.5306 41.1154 52.2406 41.1354 52.0306 41.1254C51.5106 41.1054 50.3806 41.1154 49.9906 41.1254C49.9706 40.9754 49.9106 40.8054 49.7906 40.5754C49.7206 40.4454 49.6106 40.3554 49.4606 40.3154C48.7706 40.1254 47.2906 41.0254 46.9206 41.2554C46.4206 41.0254 44.9706 41.1554 42.3406 41.4454C42.1206 41.4754 41.8906 41.4954 41.6806 41.5154C39.2506 41.7854 36.5106 41.5054 33.1506 41.0054C31.3506 40.7354 30.0306 40.7954 28.5106 40.8554C27.3606 40.9054 26.1706 40.9454 24.5906 40.8654C22.2906 40.7454 20.9606 40.9954 19.8906 41.1854C19.2306 41.3054 18.7206 41.3954 18.1406 41.3854C17.3406 41.3554 16.3206 41.4854 15.1506 41.6254C14.0506 41.7554 12.8106 41.9154 11.5006 41.9654C10.7506 41.9954 10.1106 42.0754 9.61062 42.1354C8.28062 42.2954 7.73061 42.3554 7.41061 41.5154C7.00061 40.4354 5.92062 39.8654 4.79062 39.2554C4.50062 39.1054 4.21063 38.9454 3.93063 38.7854C2.80063 38.1154 1.66061 36.9454 1.35061 36.6254C1.46061 36.4654 1.59061 36.3154 1.72061 36.1654C2.31061 36.3754 4.39059 36.4554 7.70059 36.5154ZM45.8906 44.2154C45.4306 44.5154 45.0506 44.7254 44.7406 44.8954C44.0406 45.2754 43.6206 45.5054 43.4506 46.2154C43.4106 46.3754 43.3806 46.5254 43.3506 46.6654C43.1906 47.3754 43.0506 47.9854 42.5306 48.9354C41.9006 50.0754 40.1806 52.2654 38.5706 53.4154C38.1106 53.7454 37.4806 54.1554 36.7806 54.5754C36.3506 49.9954 40.5606 46.5954 42.4106 45.3354C44.7406 43.7454 46.1206 42.7154 46.7706 42.0554C46.8806 41.9454 46.9706 41.8454 47.0406 41.7554C47.1306 41.6354 47.1406 41.5454 47.1206 41.4754C47.6706 41.1254 48.8906 40.4554 49.3906 40.5954C49.4606 40.6154 49.5106 40.6554 49.5406 40.7054C49.8406 41.2954 49.8406 41.2954 49.0106 41.8754L48.8306 42.0054C48.4306 42.2954 48.1206 42.5454 47.7906 42.8154C47.2906 43.2154 46.7806 43.6354 45.8906 44.2154ZM43.7406 43.2354C44.5106 43.0254 45.1806 42.8154 45.7006 42.6154C45.1806 43.0354 44.5506 43.4954 43.9106 43.9554C43.6706 43.6554 43.7106 43.3554 43.7406 43.2354ZM22.0906 47.5454C22.0006 47.3954 21.7506 46.9754 21.4006 46.2354C20.9306 45.2454 20.5706 44.6854 19.0306 43.3854C17.9906 42.5054 17.7506 41.9154 17.6906 41.6754C17.8406 41.6754 18.0006 41.6654 18.1406 41.6654C18.7406 41.6854 19.3006 41.5854 19.9506 41.4654C21.0106 41.2754 22.3206 41.0354 24.5806 41.1554C26.1706 41.2354 27.4206 41.1854 28.5206 41.1454C30.0306 41.0854 31.3306 41.0354 33.1106 41.2954C36.4906 41.7954 39.2406 42.0854 41.7106 41.8054C41.9306 41.7854 42.1506 41.7554 42.3806 41.7354C42.3906 41.7354 42.4106 41.7354 42.4206 41.7354C42.3306 41.9154 42.2406 42.1754 42.2606 42.4654C42.2806 42.7454 42.4006 43.0054 42.6206 43.2354C40.1306 43.8454 36.5006 44.5654 31.7706 45.3754L31.2906 45.4554C28.0206 46.0254 25.4806 46.5454 23.5306 47.0454C23.0006 47.1854 22.5306 47.3554 22.0906 47.5454ZM42.9306 43.1554C42.6006 42.8554 42.4706 42.5254 42.5506 42.1554C42.6006 41.9454 42.6906 41.7854 42.7506 41.6954C44.3606 41.5154 46.6506 41.2854 46.8306 41.5354C46.8306 41.5354 46.8306 41.5554 46.8006 41.5854C46.7406 41.6654 46.6506 41.7654 46.5506 41.8554C46.1606 42.2154 44.9406 42.6554 42.9306 43.1554ZM38.7206 53.6454C40.4406 52.4154 42.1506 50.1954 42.7606 49.0754C43.3006 48.0854 43.4406 47.4554 43.6106 46.7354C43.6406 46.5954 43.6806 46.4454 43.7106 46.2854C43.8506 45.7054 44.1706 45.5254 44.8706 45.1454C44.9906 45.0754 45.1206 45.0054 45.2606 44.9254C45.2706 45.2154 45.1006 45.5854 44.9106 45.9754C44.7106 46.4054 44.5006 46.8554 44.4806 47.2754C44.4606 47.8554 44.6306 48.6754 44.7806 49.3654C44.7906 49.4054 44.8006 49.4554 44.8106 49.5054C44.8806 49.8254 44.9506 50.1254 44.9806 50.3554C45.0706 50.8954 45.3006 51.1754 45.4406 51.3054C44.1906 53.2154 42.8506 54.5054 41.4906 55.3554C39.2806 56.7354 37.0106 56.9954 34.9306 56.9954C34.1906 56.9954 33.4506 56.9554 32.7006 56.8954C34.6206 56.3054 37.6106 54.4354 38.7206 53.6454ZM45.6906 51.1054C45.6806 51.1154 45.6606 51.1154 45.6506 51.1254C45.5506 51.0454 45.3306 50.8254 45.2606 50.3154C45.2206 50.0854 45.1606 49.7754 45.0806 49.4454C45.0406 49.2854 45.0106 49.1054 44.9706 48.9354C44.8506 48.3554 44.7406 47.7354 44.7606 47.2954C44.7706 46.9254 44.9706 46.5054 45.1606 46.1054C45.3906 45.6254 45.6006 45.1654 45.5206 44.7754C45.6806 44.6754 45.8506 44.5754 46.0406 44.4554C46.4606 44.1854 46.7906 43.9454 47.0706 43.7354C47.4106 43.4854 47.6906 43.2554 47.9606 43.0354C48.1306 42.8954 48.3006 42.7554 48.4706 42.6254C48.6306 42.5054 48.8006 42.3754 48.9806 42.2454L49.1606 42.1154C49.5906 41.8154 49.8406 41.6354 49.9406 41.4254C50.2806 41.4254 51.4706 41.4054 52.0006 41.4254C52.2206 41.4354 52.5206 41.4154 52.8406 41.3854C53.4506 41.3454 54.1406 41.2954 54.6006 41.4154C54.9306 41.5054 55.3506 41.4954 55.7306 41.4854C55.8806 41.4854 56.0406 41.4754 56.1906 41.4854C56.2606 41.6654 56.3206 41.8454 56.4006 42.0254C55.9706 42.1254 55.4106 42.3654 54.7006 42.7454C54.6606 42.7654 54.6106 42.7954 54.5706 42.8154C54.1706 43.0354 53.7106 43.3254 53.2206 43.6354C52.8806 43.8454 52.5306 44.0654 52.2006 44.2654C51.7806 44.5154 51.5106 44.9754 51.3406 45.4254C51.1406 45.9254 51.0706 46.3954 51.0506 46.4954C49.9706 49.1854 46.3506 50.8254 45.6906 51.1054ZM112.441 50.6054C111.741 50.8454 111.131 51.0554 110.601 51.2554C110.431 51.3154 110.271 51.3854 110.101 51.4554C109.841 50.9454 108.701 48.9054 106.221 47.6754C106.331 47.5054 106.571 47.0854 106.921 46.3554C107.371 45.4054 107.721 44.8654 109.221 43.6054C110.371 42.6354 110.611 41.9854 110.661 41.6954C111.311 41.7354 112.051 41.8254 112.881 41.9254C113.981 42.0554 115.231 42.2154 116.551 42.2754C117.291 42.3154 117.921 42.3854 118.421 42.4454C119.771 42.6054 120.521 42.6954 120.921 41.6454C121.301 40.6554 122.321 40.1154 123.411 39.5354C123.701 39.3854 123.991 39.2254 124.281 39.0554C125.411 38.3954 126.511 37.2754 126.881 36.8954C127.461 37.7754 127.781 38.7054 127.791 39.6354C127.821 41.3754 126.821 43.1054 124.921 44.6454C121.301 47.5354 115.971 49.3854 112.441 50.6054ZM107.141 53.0854C104.691 54.5554 101.921 56.2254 98.1006 56.6354H98.0506C97.5106 56.6954 96.9706 56.7454 96.4506 56.8054C95.5006 56.8854 93.3606 55.8154 91.5706 54.7354C92.1106 49.9354 87.7406 46.4054 85.8306 45.0954C85.3806 44.7854 84.8806 44.4454 84.3906 44.0954C84.6206 43.8054 84.6506 43.4954 84.6306 43.2954C88.3206 44.2754 93.9406 45.2354 96.2606 45.6354L96.7406 45.7154C100.001 46.2754 102.531 46.7954 104.481 47.2954C108.011 48.2054 109.561 50.9454 109.861 51.5454C108.981 51.9754 108.081 52.5154 107.141 53.0854ZM71.9606 46.4954C71.9206 46.4654 71.8906 46.4454 71.8506 46.4154L71.8206 46.3954L71.7906 46.3854C71.7806 46.3854 71.3706 46.3154 70.9706 46.1554C70.7406 46.0654 70.5106 45.9454 70.3806 45.7854C70.2606 45.3954 70.0206 44.3754 70.2406 43.9854C70.2806 43.9154 70.3406 43.8054 70.4106 43.6754C70.5906 43.3454 70.8606 42.8354 71.1406 42.2454C71.2406 42.2254 71.3706 42.2254 71.5706 42.2754C71.8906 42.3454 72.3806 42.5254 73.1206 42.9154C73.1706 42.9454 73.2106 42.9654 73.2606 42.9854C73.6806 43.2054 74.1906 43.5254 74.7306 43.8754C75.0706 44.0854 75.4206 44.3054 75.7606 44.5054C76.1006 44.7154 76.3306 45.1054 76.4906 45.4954C76.6606 45.9154 76.7406 46.3354 76.7706 46.4854C76.5806 46.6754 75.7606 47.4154 74.5006 47.4154C73.6606 47.4154 72.8106 47.1054 71.9606 46.4954ZM79.3106 36.5354C79.6306 36.7654 79.8006 37.0154 79.8106 37.2954C79.8406 37.7854 79.4006 38.2354 79.2806 38.3454C77.7106 38.5454 73.8106 39.1854 72.4406 39.4154C72.3306 39.4354 72.2306 39.4454 72.1506 39.4654C72.2106 39.1954 72.2506 38.9454 72.2606 38.7154C72.2706 38.4554 72.3506 38.2654 72.6206 38.0954C73.0706 37.7954 74.0406 37.5454 76.0806 37.1054C76.8706 36.9254 77.9806 36.7354 79.3106 36.5354ZM95.3906 34.5654C94.1406 36.9854 90.8406 37.3554 87.6306 37.7054C86.7706 37.7954 85.8806 37.8954 85.0606 38.0354C82.5906 38.4454 81.6906 38.3754 80.9806 38.3154C80.5906 38.2854 80.2306 38.2554 79.7106 38.3054C79.9006 38.0654 80.1206 37.7054 80.1006 37.2854C80.0806 36.9954 79.9506 36.7254 79.6906 36.4854C83.8706 35.8654 90.0506 35.1654 95.3906 34.5654ZM97.6306 34.3154C98.7106 34.1954 99.7306 34.0854 100.661 33.9754C99.7706 35.6754 92.9806 37.6354 91.5106 37.9354C91.0106 38.0354 90.0706 38.2254 88.9706 38.4454C87.6106 38.7154 85.9106 39.0554 84.4606 39.3554C82.8606 39.6854 81.8506 39.3954 80.9606 39.1454C80.4206 38.9954 79.9206 38.8454 79.3606 38.8654C78.1606 38.9054 73.8806 39.5454 72.3806 39.7654C72.2606 39.7854 72.1606 39.7954 72.0806 39.8054C72.0906 39.7854 72.0906 39.7654 72.1006 39.7454C72.1606 39.7354 72.2706 39.7154 72.3906 39.6954C73.7306 39.4754 78.2206 38.7354 79.6006 38.5754C80.1806 38.5054 80.5406 38.5454 80.9606 38.5754C81.6906 38.6354 82.6106 38.7154 85.1106 38.2954C85.9206 38.1554 86.8106 38.0654 87.6706 37.9654C91.0206 37.5954 94.4906 37.2154 95.7306 34.5054C96.3806 34.4554 97.0106 34.3854 97.6306 34.3154ZM103.941 33.5954C106.211 33.3154 110.021 33.0054 113.911 33.0054C116.011 33.0054 118.451 33.0954 120.571 33.4154C119.981 34.3454 117.071 34.3954 113.731 34.4554C112.031 34.4854 110.101 34.5154 108.181 34.6654C104.161 34.9754 102.711 35.6154 101.301 36.2454C100.591 36.5654 99.9106 36.8654 98.9206 37.0954C96.1906 37.7454 92.6106 38.6654 89.5706 39.4954C87.7906 39.9754 85.5606 39.8454 84.1906 39.6854C84.2906 39.6654 84.3906 39.6554 84.5006 39.6354C85.9506 39.3354 87.6506 38.9954 89.0106 38.7254C90.1106 38.5054 91.0506 38.3154 91.5506 38.2154C91.6406 38.1954 100.201 36.0954 100.961 33.9454C102.181 33.8054 103.211 33.6854 103.941 33.5954ZM124.921 34.8354C125.391 35.1854 125.801 35.5654 126.161 35.9554C125.361 36.1554 121.911 36.2154 120.361 36.2454L119.771 36.2554C117.951 36.2854 110.081 37.2154 106.301 37.6654L105.521 37.7554C103.831 37.9554 102.061 38.3954 100.341 38.8254C98.8306 39.2054 97.4006 39.5554 96.1806 39.7054C94.3506 39.9254 91.3006 39.8354 89.6806 39.7654C92.7106 38.9454 96.2806 38.0254 99.0006 37.3754C100.011 37.1354 100.701 36.8254 101.431 36.5054C102.811 35.8854 104.251 35.2554 108.221 34.9454C110.131 34.7954 112.061 34.7654 113.761 34.7354C117.561 34.6654 120.331 34.6154 120.891 33.4554C122.571 33.7354 124.051 34.1654 124.921 34.8354ZM126.721 36.6354C126.411 36.9554 125.281 38.1254 124.141 38.7954C123.861 38.9554 123.571 39.1154 123.281 39.2654C122.141 39.8754 121.071 40.4454 120.661 41.5254C120.341 42.3654 119.791 42.3054 118.461 42.1454C117.951 42.0854 117.321 42.0054 116.571 41.9754C115.261 41.9154 114.021 41.7654 112.921 41.6354C111.741 41.4954 110.731 41.3654 109.931 41.3954C109.351 41.4154 108.841 41.3154 108.181 41.1954C107.111 41.0054 105.781 40.7654 103.481 40.8754C101.901 40.9554 100.711 40.9054 99.5606 40.8654C98.0406 40.8054 96.7206 40.7554 94.9206 41.0154C91.5606 41.5154 88.8306 41.7954 86.3906 41.5254C86.1706 41.5054 85.9506 41.4754 85.7306 41.4554C83.1006 41.1654 81.6506 41.0354 81.1506 41.2654C80.7806 41.0354 79.3006 40.1354 78.6106 40.3254C78.4606 40.3654 78.3506 40.4554 78.2906 40.5854C78.1706 40.8154 78.1106 40.9954 78.0906 41.1354C77.7006 41.1254 76.5706 41.1154 76.0506 41.1354C75.8406 41.1454 75.5506 41.1254 75.2406 41.1054C74.6106 41.0654 73.8906 41.0054 73.3906 41.1454C73.1006 41.2254 72.7206 41.2154 72.3506 41.2054C72.2206 41.2054 72.1106 41.1954 71.9906 41.1954C71.8406 41.1954 71.7006 41.2054 71.5806 41.2254C71.7306 40.8554 71.8706 40.4854 71.9906 40.1254C72.0606 40.1154 72.1706 40.0954 72.3106 40.0754C73.6906 39.8654 78.1606 39.1954 79.3606 39.1554C79.8706 39.1354 80.3406 39.2754 80.8806 39.4254C81.4706 39.5954 82.1106 39.7754 82.9306 39.7954C83.0206 39.8154 84.6906 40.1154 86.6106 40.1154C87.2606 40.1154 87.9306 40.0754 88.5806 39.9854C88.6106 39.9854 90.8306 40.1254 93.0806 40.1254C94.2106 40.1254 95.3606 40.0954 96.2306 39.9854C97.4706 39.8354 98.9106 39.4754 100.431 39.0954C102.141 38.6654 103.901 38.2254 105.571 38.0354L106.351 37.9454C110.121 37.4954 117.981 36.5754 119.791 36.5354L120.381 36.5254C123.691 36.4654 125.771 36.3854 126.361 36.1854C126.481 36.3254 126.601 36.4854 126.721 36.6354ZM104.541 47.0454C102.591 46.5454 100.051 46.0254 96.7806 45.4554L96.3006 45.3754C91.5706 44.5654 87.9506 43.8554 85.4506 43.2354C85.6606 43.0054 85.7806 42.7454 85.8106 42.4654C85.8306 42.1754 85.7506 41.9154 85.6606 41.7354C85.6706 41.7354 85.6906 41.7354 85.7006 41.7354C85.9306 41.7654 86.1506 41.7854 86.3606 41.8054C88.8206 42.0754 91.5806 41.7954 94.9606 41.2954C96.7306 41.0354 98.0406 41.0854 99.5506 41.1454C100.651 41.1854 101.901 41.2354 103.491 41.1554C105.751 41.0354 107.071 41.2754 108.121 41.4654C108.761 41.5854 109.321 41.6854 109.931 41.6654C110.071 41.6654 110.221 41.6654 110.381 41.6754C110.321 41.9154 110.091 42.5054 109.041 43.3854C107.511 44.6754 107.141 45.2454 106.671 46.2354C106.311 46.9854 106.071 47.4054 105.981 47.5554C105.541 47.3554 105.061 47.1854 104.541 47.0454ZM84.1506 43.9454C83.5006 43.4854 82.8706 43.0254 82.3506 42.6054C82.8806 42.8054 83.5506 43.0154 84.3206 43.2254C84.3506 43.3554 84.3906 43.6554 84.1506 43.9454ZM91.2906 54.5854C90.6006 54.1654 89.9706 53.7554 89.5106 53.4154C87.9006 52.2654 86.1806 50.0754 85.5506 48.9354C85.0206 47.9854 84.8906 47.3754 84.7306 46.6654C84.7006 46.5254 84.6606 46.3754 84.6306 46.2154C84.4606 45.5054 84.0406 45.2854 83.3406 44.8954C83.0306 44.7254 82.6406 44.5154 82.1906 44.2154C81.3006 43.6254 80.7906 43.2154 80.3006 42.8154C79.9706 42.5454 79.6606 42.2954 79.2606 42.0054L79.0806 41.8754C78.2606 41.2954 78.2606 41.2954 78.5506 40.7054C78.5806 40.6454 78.6306 40.6154 78.7006 40.5954C79.2006 40.4554 80.4206 41.1254 80.9706 41.4754C80.9506 41.5454 80.9606 41.6454 81.0506 41.7554C81.1206 41.8454 81.2106 41.9454 81.3206 42.0554C81.9706 42.7054 83.3406 43.7454 85.6806 45.3354C87.5206 46.5954 91.7306 50.0054 91.2906 54.5854ZM81.5006 41.8654C81.4006 41.7654 81.3206 41.6754 81.2506 41.5954C81.2306 41.5654 81.2206 41.5554 81.2206 41.5554C81.4206 41.2954 83.7006 41.5354 85.3006 41.7054C85.3906 41.8254 85.5506 42.1254 85.5206 42.4554C85.5006 42.7154 85.3606 42.9554 85.1306 43.1654C83.1206 42.6554 81.9106 42.2154 81.5006 41.8654ZM77.0306 46.4854C77.0206 46.3854 76.9406 45.9154 76.7406 45.4154C76.5606 44.9754 76.2906 44.5054 75.8806 44.2554C75.5406 44.0554 75.1906 43.8354 74.8606 43.6254C74.3606 43.3154 73.9006 43.0254 73.5006 42.8054C73.4606 42.7754 73.4106 42.7554 73.3706 42.7354C72.6606 42.3554 72.1006 42.1154 71.6706 42.0154C71.5106 41.9754 71.3806 41.9654 71.2506 41.9654C71.3006 41.8454 71.3606 41.7254 71.4106 41.6054C71.4506 41.5154 71.6406 41.4954 71.8706 41.4854C72.0206 41.4854 72.1806 41.4854 72.3306 41.4854C72.7006 41.4954 73.1206 41.5054 73.4506 41.4154C73.9106 41.2854 74.6006 41.3354 75.2106 41.3854C75.5306 41.4054 75.8206 41.4354 76.0506 41.4254C76.5806 41.4054 77.7706 41.4154 78.1106 41.4254C78.2106 41.6354 78.4606 41.8154 78.8906 42.1154L79.0706 42.2454C79.2606 42.3754 79.4306 42.5054 79.5906 42.6254C79.7706 42.7654 79.9306 42.8954 80.1006 43.0354C80.3706 43.2554 80.6506 43.4754 80.9906 43.7354C81.2806 43.9454 81.6106 44.1854 82.0206 44.4554C82.2106 44.5754 82.3806 44.6854 82.5406 44.7754C82.4606 45.1554 82.6706 45.6154 82.9006 46.1054C83.0906 46.5154 83.2906 46.9354 83.3006 47.2954C83.3206 47.7454 83.2106 48.3554 83.0906 48.9354C83.0506 49.1054 83.0106 49.2854 82.9806 49.4454C82.9106 49.7754 82.8406 50.0754 82.8006 50.3154C82.7206 50.8254 82.5006 51.0454 82.4106 51.1254C82.4006 51.1254 82.3906 51.1154 82.3706 51.1054C81.7106 50.8254 78.0906 49.1854 77.0306 46.4854ZM82.6206 51.3054C82.7706 51.1754 83.0006 50.8954 83.0806 50.3554C83.1106 50.1254 83.1806 49.8254 83.2506 49.5054C83.2606 49.4554 83.2706 49.4154 83.2806 49.3654C83.4306 48.6754 83.6006 47.8554 83.5806 47.2754C83.5606 46.8554 83.3506 46.4054 83.1506 45.9754C82.9606 45.5854 82.7906 45.2054 82.8006 44.9254C82.9406 45.0054 83.0806 45.0754 83.1906 45.1454C83.8906 45.5254 84.2006 45.6954 84.3506 46.2854C84.3906 46.4354 84.4206 46.5854 84.4506 46.7354C84.6106 47.4554 84.7506 48.0854 85.3006 49.0754C85.9106 50.1954 87.6206 52.4254 89.3406 53.6454C90.4506 54.4354 93.4306 56.3054 95.3506 56.9054C94.6006 56.9654 93.8506 57.0054 93.1206 57.0054C91.0406 57.0054 88.7706 56.7454 86.5606 55.3654C85.2006 54.5054 83.8606 53.2254 82.6206 51.3054Z" fill="#0C0C0C"/>
</svg>
