<svg width="123" height="62" viewBox="0 0 123 62" fill="none" xmlns="http://www.w3.org/2000/svg">
<path d="M119.729 38.2726C119.479 38.4726 118.919 38.9026 118.609 39.0826C118.189 39.3326 115.769 39.4126 112.849 38.1626C109.929 36.9126 108.259 36.6626 106.419 36.9126C104.639 37.1526 98.3189 36.1426 96.4889 35.8526C96.3989 35.8426 96.2489 35.8126 96.1589 35.8026C94.5589 35.6226 92.0389 36.2526 90.0689 36.6226C88.0289 37.0026 84.7689 37.5426 85.4789 38.3726C86.1889 39.2026 86.8589 39.3326 88.7789 39.4126C90.6289 39.4926 91.5489 39.9226 92.1389 41.3026C92.1789 41.3926 92.2689 41.5026 92.3289 41.5626C92.4589 41.6726 92.6489 41.8726 92.7389 42.1326C92.7689 42.2226 92.7189 42.2626 92.6289 42.2226C92.4089 42.1226 91.9789 41.9526 91.6489 41.9226C91.5589 41.9126 91.5389 41.9726 91.5989 42.0426C91.7289 42.1926 91.9289 42.4726 91.9989 42.8026C92.0189 42.8926 91.9589 42.9326 91.8789 42.8826C91.7289 42.8026 91.4889 42.6726 91.2689 42.5926C91.1789 42.5626 91.0389 42.5326 90.9489 42.5026C90.6889 42.4326 90.4089 42.3326 90.2389 42.2326C90.1589 42.1826 90.0389 42.1326 89.9489 42.1326C89.8489 42.1326 89.7089 42.1326 89.5689 42.1126C89.4789 42.1026 89.4489 42.1426 89.4989 42.2126C89.6189 42.4126 89.8189 42.8126 89.7089 43.2126C89.6889 43.3026 89.5989 43.3126 89.5389 43.2526C89.3589 43.0826 89.0089 42.8026 88.6589 42.8326C88.1589 42.8726 87.0089 42.0526 85.3889 41.9426C83.7589 41.8326 81.5889 40.5926 80.4289 39.5726C79.2589 38.5526 74.3589 36.4326 74.1389 35.3826C73.9189 34.3226 69.3589 35.1026 65.4089 34.5526C61.4589 33.9926 56.6789 32.5526 55.7289 33.1626C54.7889 33.7726 53.4489 35.1126 55.7289 35.4426C57.8189 35.7526 59.7189 35.3526 60.3189 35.6226C60.3989 35.6626 60.5089 35.7726 60.5589 35.8526C60.8389 36.2526 60.8489 36.6326 61.3489 36.7826C61.8689 36.9426 62.8389 37.0026 63.2589 37.7326C63.3089 37.8126 63.2589 37.8726 63.1689 37.8626C63.0489 37.8626 62.8789 37.8626 62.7289 37.9226C62.6389 37.9526 62.6489 38.0326 62.7289 38.0826C63.0189 38.2626 63.6589 38.7326 63.7789 39.4226C63.7989 39.5126 63.7289 39.5626 63.6389 39.5326C63.3189 39.4226 62.5689 39.1826 62.0889 39.1326C61.9989 39.1226 61.9789 39.1726 62.0289 39.2526C62.1389 39.4026 62.2889 39.6626 62.3289 40.0026C62.3389 40.0926 62.2689 40.1426 62.1889 40.1026C61.6589 39.8826 59.8989 39.1626 58.9989 39.1526C58.9089 39.1526 58.8589 39.2326 58.8789 39.3226C58.9289 39.5226 58.9889 39.8726 58.8389 40.1526C58.7989 40.2326 58.6889 40.2426 58.6189 40.1826C58.3389 39.9426 57.6589 39.4126 57.3689 39.4126C56.9889 39.4126 56.9489 39.2426 56.1989 38.9526C54.7789 38.4026 53.3689 37.7726 51.8989 37.3626C49.3389 36.6526 46.5889 36.4826 43.9689 36.0726C42.3389 35.8226 42.1789 35.4926 42.1289 35.1526C42.0489 34.4826 39.5189 33.5226 38.9389 33.1526C37.5489 32.2526 36.2589 31.1926 34.7689 30.4426C31.9289 29.0126 28.5189 28.8426 25.4089 29.2426C21.5489 29.7426 18.0489 32.0126 14.6089 33.6926C9.27893 36.2926 2.64893 39.9926 3.38893 46.9826C3.54893 48.4826 4.20893 50.3426 5.15893 51.5326C8.48893 55.7126 13.7789 57.5426 18.8689 58.3326C30.5689 60.1526 42.5889 58.6626 54.3289 58.0926C57.7389 57.9226 61.1489 57.7826 64.5589 57.7026C68.5889 57.6026 72.6289 57.5626 76.6589 57.6326C80.4589 57.6926 84.3489 57.7326 88.0889 58.4326C90.1289 58.8226 91.9889 60.1126 91.2389 59.9226C88.8389 59.3226 86.2289 59.3126 83.7689 59.2726C71.4289 59.0726 59.1289 60.3026 46.8089 60.8626C36.3389 61.3426 25.4789 62.2926 15.1489 59.9426C8.87893 58.5126 1.64893 55.1326 0.308934 48.1626C0.0089336 46.6126 -0.141071 44.6526 0.178929 43.1026C2.06893 33.9426 11.4889 31.5826 18.6789 27.7426C20.0989 26.9826 21.5589 26.0726 22.4789 24.7026C26.5389 18.6326 27.2089 17.0826 30.4889 12.5726C33.7689 8.06259 40.2789 -0.167407 54.5289 0.00259305C68.7689 0.172593 82.0189 6.96259 86.0189 9.90259C89.5589 12.5126 93.3189 13.3326 94.1489 13.4926C94.2389 13.5126 94.3389 13.4526 94.3589 13.3626C94.5889 12.6626 95.7089 9.93259 98.7289 10.2926C102.119 10.7026 103.909 12.9426 103.949 15.3426C103.949 15.4326 104.019 15.5026 104.119 15.5026C104.569 15.4926 105.819 15.4926 106.409 15.9026C106.489 15.9526 106.569 15.9426 106.609 15.8526C106.869 15.2626 107.799 13.1226 107.839 12.5826C107.879 11.9526 108.299 7.82259 111.009 8.91259C113.679 9.98259 113.959 16.1426 111.629 18.6826C111.569 18.7526 111.569 18.8526 111.629 18.9226C112.259 19.5726 115.249 22.7026 115.769 23.9326C116.349 25.3126 116.729 27.2326 116.809 28.4426C116.889 29.6526 118.649 30.1926 119.859 31.9026C121.069 33.6126 121.109 33.8226 121.899 35.3226C122.679 36.7926 122.449 38.5426 120.019 38.1826C119.939 38.1826 119.799 38.2126 119.729 38.2726Z" fill="#0C0C0C"/>
<path d="M111.099 44.7226C111.069 44.7226 111.039 44.7026 111.019 44.6726C110.999 44.6326 111.019 44.5826 111.059 44.5626C116.549 41.9426 117.469 37.9426 117.479 37.9026C117.489 37.8626 117.529 37.8326 117.579 37.8426C117.619 37.8526 117.649 37.8926 117.639 37.9426C117.629 37.9826 116.689 42.0626 111.129 44.7226C111.119 44.7226 111.109 44.7226 111.099 44.7226Z" fill="#0C0C0C"/>
<path d="M110.679 43.2225C110.649 43.2225 110.619 43.2025 110.599 43.1725C110.579 43.1325 110.599 43.0825 110.639 43.0625C114.529 41.2425 116.339 38.1625 116.359 38.1325C116.379 38.0925 116.429 38.0825 116.469 38.1025C116.509 38.1225 116.519 38.1725 116.499 38.2225C116.479 38.2525 114.649 41.3725 110.699 43.2225C110.699 43.2225 110.689 43.2225 110.679 43.2225Z" fill="#0C0C0C"/>
<path d="M99.8289 46.1425C99.7889 46.1425 99.7589 46.1125 99.7489 46.0825C99.7389 46.0425 99.7689 45.9925 99.8089 45.9825C110.989 43.2925 115.149 38.6525 116.159 37.2925C116.189 37.2525 116.239 37.2525 116.279 37.2725C116.319 37.3025 116.319 37.3525 116.299 37.3925C115.279 38.7625 111.089 43.4325 99.8489 46.1425C99.8389 46.1425 99.8389 46.1425 99.8289 46.1425Z" fill="#0C0C0C"/>
<path d="M87.2289 47.4326C87.1889 47.4326 87.1489 47.4026 87.1489 47.3626C87.1489 47.3226 87.1789 47.2726 87.2189 47.2726C101.659 45.6526 112.969 39.5726 114.589 37.8626C114.619 37.8326 114.669 37.8326 114.709 37.8626C114.739 37.8926 114.739 37.9426 114.709 37.9826C113.339 39.4326 102.549 45.7226 87.2389 47.4426C87.2389 47.4326 87.2289 47.4326 87.2289 47.4326Z" fill="#0C0C0C"/>
<path d="M92.0289 44.7226C91.9889 44.7226 91.9489 44.6926 91.9489 44.6426C91.9489 44.6026 91.9789 44.5526 92.0289 44.5526C102.339 43.7726 112.459 38.3126 114.089 36.5726C114.119 36.5426 114.169 36.5326 114.209 36.5726C114.239 36.6026 114.249 36.6526 114.209 36.6926C112.559 38.4426 102.389 43.9326 92.0289 44.7226Z" fill="#0C0C0C"/>
<path d="M96.0789 40.2126C96.0289 40.2126 95.999 40.1726 95.999 40.1326C95.999 40.0826 96.0389 40.0526 96.0789 40.0426C105.919 39.8326 111.799 36.5826 111.859 36.5526C111.899 36.5326 111.949 36.5426 111.969 36.5826C111.989 36.6226 111.979 36.6726 111.939 36.6926C111.869 36.7326 105.959 40.0126 96.0789 40.2126Z" fill="#0C0C0C"/>
<path d="M90.969 36.6126C91.099 36.7626 91.429 36.9926 92.189 37.1326C93.319 37.3326 94.109 37.0926 94.599 38.0226C94.639 38.1026 94.699 38.1026 94.729 38.0226C94.759 37.9326 94.799 37.8126 94.809 37.7126C94.819 37.6226 94.869 37.5326 94.959 37.5226C95.229 37.4926 95.749 37.4626 96.069 37.6726C96.149 37.7226 96.179 37.7126 96.149 37.6226C96.109 37.5226 96.039 37.3826 95.919 37.2426C95.859 37.1726 95.869 37.1226 95.959 37.1126C96.259 37.0826 96.889 37.0426 97.249 37.2426C97.329 37.2826 97.349 37.2726 97.309 37.1926C97.129 36.8526 96.659 36.0326 96.069 35.8126C95.349 35.5426 90.379 35.1426 90.799 36.3326C90.839 36.4126 90.909 36.5426 90.969 36.6126Z" fill="#0C0C0C"/>
<path d="M121.889 36.1626C121.869 36.1626 121.859 36.1626 121.839 36.1526C121.799 36.1226 121.789 36.0726 121.819 36.0326C121.829 36.0226 122.499 35.0426 122.529 34.0226C122.529 33.9726 122.569 33.9426 122.619 33.9426C122.669 33.9426 122.699 33.9826 122.699 34.0326C122.669 35.1026 121.989 36.0926 121.959 36.1326C121.939 36.1526 121.919 36.1626 121.889 36.1626Z" fill="#0C0C0C"/>
<path d="M120.639 35.3626C120.629 35.3626 120.619 35.3626 120.599 35.3526C120.559 35.3326 120.539 35.2826 120.559 35.2426C120.569 35.2126 121.929 32.2626 121.419 30.0126C121.409 29.9626 121.439 29.9226 121.479 29.9126C121.529 29.9026 121.569 29.9326 121.579 29.9726C122.109 32.2826 120.729 35.2826 120.709 35.3126C120.699 35.3426 120.669 35.3626 120.639 35.3626Z" fill="#0C0C0C"/>
<path d="M120.639 34.3826H120.629C120.589 34.3726 120.549 34.3326 120.559 34.2826C120.569 34.2426 121.149 30.6226 120.039 28.8026C120.019 28.7626 120.029 28.7126 120.069 28.6926C120.109 28.6726 120.159 28.6826 120.179 28.7226C121.319 30.5926 120.749 34.1626 120.719 34.3126C120.719 34.3626 120.679 34.3826 120.639 34.3826Z" fill="#0C0C0C"/>
<path d="M119.779 33.4726C119.739 33.4726 119.699 33.4426 119.699 33.4026C119.689 33.3626 118.969 28.9026 118.099 27.5926C118.069 27.5526 118.079 27.5026 118.119 27.4726C118.159 27.4426 118.209 27.4526 118.239 27.4926C119.129 28.8226 119.839 33.1826 119.869 33.3626C119.879 33.4026 119.849 33.4526 119.799 33.4626C119.789 33.4726 119.779 33.4726 119.779 33.4726Z" fill="#0C0C0C"/>
</svg>
