<svg width="95" height="116" viewBox="0 0 95 116" fill="none" xmlns="http://www.w3.org/2000/svg">
<path d="M93.9297 64.4413C94.7997 63.6013 94.0797 62.7713 93.7997 62.5013C93.7397 62.4513 93.7297 62.4613 93.7697 62.5313C94.2497 63.3813 93.5097 64.1513 93.5097 64.1513C93.2597 63.0813 91.6297 63.4013 91.6297 63.4013C91.3897 62.6513 90.4597 62.8913 90.4597 62.8913C90.4197 61.6513 89.0197 61.9314 89.0197 61.9314C89.3597 60.3914 87.7197 60.4214 87.7197 60.4214C87.7197 60.4214 88.6797 58.8113 86.0697 56.4713C83.4597 54.1413 79.6197 54.1413 79.6197 54.1413C79.1097 52.1513 74.8197 50.1614 72.0697 48.4813C69.3197 46.8013 66.0297 47.1814 66.0297 47.1814C66.0297 47.1814 65.8597 46.9714 65.7997 46.7313C65.7597 46.5813 64.2897 47.4713 63.2297 48.1313C62.4897 46.2613 61.8597 44.6813 61.3997 43.5013C61.3197 42.0613 61.2697 41.2213 61.2697 41.2213C63.9397 37.1713 62.4497 33.5314 60.5397 31.0514C61.5997 30.1014 62.2297 28.3214 62.5297 27.9314C63.0097 27.3114 64.2197 26.5813 64.4997 26.3113C64.7797 26.0313 63.9097 25.3913 63.9097 25.3913C66.3597 24.1613 67.3897 21.1814 68.2797 17.9814C69.1697 14.7814 67.8197 13.4713 67.8197 13.4713C68.6897 12.7813 68.9197 11.6413 69.0297 10.7913C69.1397 9.95135 69.5297 8.94133 69.8997 8.39132C70.2697 7.84132 69.4197 7.77133 69.4197 7.77133C69.4697 7.47133 69.9497 6.49134 71.6197 4.66134C73.2897 2.83134 73.5897 1.87134 73.7897 1.16134C73.9997 0.451344 73.5597 -0.258644 73.4897 0.111356C73.4197 0.481356 73.0097 1.23131 72.1197 2.1213C71.2297 3.0113 68.2997 7.13131 68.2997 7.13131C68.0297 6.85131 67.5497 6.82133 67.5797 7.40133C67.6097 7.98133 67.2697 8.91131 66.6497 10.6313C66.0297 12.3513 66.2397 13.0313 66.2397 13.0313C65.1397 13.0613 64.1497 15.6713 63.9097 18.0013C63.6697 20.3413 63.0897 24.5913 63.0897 24.5913C62.9497 24.3513 62.7797 24.4213 62.1597 25.3513C61.5397 26.2813 60.1997 26.6214 58.6297 27.9914C58.4297 28.1614 58.2697 28.3513 58.1497 28.5413C57.5197 28.0113 57.0897 27.7113 57.0897 27.7113C57.8097 27.0613 60.2097 24.3513 59.3897 20.4413C58.7697 17.5213 56.4597 15.5914 55.3197 14.8014C55.3497 14.7614 55.3797 14.7214 55.4097 14.6814C55.5697 14.4514 55.7397 14.2213 55.9097 13.9713C56.0697 13.7213 56.2297 13.4713 56.3897 13.2213C56.6997 12.7013 57.0197 12.1613 57.2997 11.5913C57.3697 11.4513 57.4497 11.3114 57.5197 11.1714C57.5897 11.0314 57.6597 10.8814 57.7197 10.7414C57.8497 10.4514 57.9897 10.1713 58.1197 9.88132C58.3797 9.31132 58.6497 8.74136 58.8997 8.18136C58.9697 8.04136 59.0297 7.90132 59.0897 7.76132C59.1597 7.63132 59.2197 7.49136 59.2897 7.36136C59.4197 7.09136 59.5597 6.83132 59.6897 6.57132C59.7497 6.44132 59.8197 6.31131 59.8797 6.19131C59.9097 6.13131 59.9397 6.06131 59.9697 6.00131C59.9997 5.94131 60.0397 5.88132 60.0697 5.82132C60.1997 5.58132 60.3397 5.34136 60.4697 5.11136C60.7197 4.64136 60.9897 4.23133 61.2297 3.83133C61.2897 3.73133 61.3497 3.64135 61.4097 3.54135C61.4697 3.45135 61.5297 3.37134 61.5897 3.28134C61.7097 3.11134 61.8197 2.95136 61.9297 2.80136C62.0397 2.66136 62.1497 2.53134 62.2497 2.41134C62.2997 2.35134 62.3497 2.29136 62.3897 2.24136C62.4397 2.19136 62.4897 2.14134 62.5297 2.09134C62.6197 2.00134 62.6997 1.91134 62.7697 1.84134C62.8397 1.77134 62.9097 1.72135 62.9597 1.67135C63.0597 1.58135 63.1197 1.53134 63.1197 1.53134L63.1397 1.52133C63.3297 1.34133 63.3597 1.04134 63.1897 0.841337C63.0197 0.631337 62.7097 0.601339 62.4997 0.781339C62.4997 0.781339 62.4397 0.831364 62.3197 0.931364C62.2597 0.981364 62.1897 1.04131 62.0997 1.12131C62.0197 1.20131 61.9197 1.29132 61.8197 1.39132C61.7697 1.44132 61.7097 1.49136 61.6597 1.55136C61.6097 1.61136 61.5497 1.67136 61.4897 1.74136C61.3797 1.87136 61.2497 2.01134 61.1197 2.16134C60.9997 2.32134 60.8697 2.48134 60.7397 2.66134C60.6697 2.75134 60.5997 2.84136 60.5297 2.93136C60.4597 3.02136 60.3997 3.12134 60.3297 3.22134C60.0597 3.62134 59.7597 4.05133 59.4797 4.52133C59.3397 4.76133 59.1897 5.00136 59.0397 5.24136C58.9997 5.30136 58.9697 5.36136 58.9297 5.43136C58.8997 5.49136 58.8597 5.56131 58.8197 5.6213C58.7497 5.75131 58.6797 5.88132 58.6097 6.01132C58.4697 6.27132 58.3197 6.54136 58.1697 6.80136C58.0997 6.94136 58.0197 7.07133 57.9497 7.21133C57.8797 7.35133 57.8097 7.48131 57.7397 7.6213C57.4597 8.1713 57.1697 8.73134 56.8897 9.28134C56.7497 9.56134 56.5997 9.83136 56.4597 10.1114C56.3897 10.2414 56.3197 10.3813 56.2497 10.5113C56.1697 10.6413 56.0997 10.7713 56.0197 10.9013C55.7297 11.4313 55.4097 11.9213 55.0997 12.4013C54.9397 12.6313 54.7797 12.8613 54.6197 13.0813C54.4597 13.2913 54.3097 13.4914 54.1597 13.6814C53.3497 12.9314 51.9897 12.4314 51.9897 12.4314C52.0097 12.0214 51.4197 11.8813 50.9397 11.5413C50.4597 11.2013 50.5097 11.2013 50.4797 10.1513C50.4597 9.10133 48.2997 8.14132 47.3697 8.14132C46.4397 8.14132 44.2797 9.10133 44.2597 10.1513C44.2397 11.2013 44.2797 11.2013 43.7997 11.5413C43.3197 11.8813 42.7197 12.0214 42.7497 12.4314C42.7497 12.4314 41.3897 12.9314 40.5797 13.6814C40.4297 13.4814 40.2697 13.2813 40.1197 13.0813C39.9597 12.8613 39.8097 12.6313 39.6397 12.4013C39.3297 11.9213 39.0097 11.4313 38.7197 10.9013C38.6497 10.7713 38.5697 10.6413 38.4897 10.5113C38.4197 10.3813 38.3497 10.2414 38.2797 10.1114C38.1397 9.84136 37.9997 9.56134 37.8497 9.28134C37.5697 8.72134 37.2797 8.16131 36.9997 7.6213C36.9297 7.48131 36.8597 7.35133 36.7897 7.21133C36.7097 7.07133 36.6397 6.94136 36.5697 6.80136C36.4197 6.53136 36.2797 6.27132 36.1297 6.01132C36.0597 5.88132 35.9797 5.75131 35.9097 5.6213C35.8697 5.5513 35.8397 5.49136 35.7997 5.43136C35.7597 5.37136 35.7297 5.31136 35.6897 5.24136C35.5397 5.00136 35.3997 4.76133 35.2497 4.52133C34.9797 4.05133 34.6697 3.62134 34.3997 3.22134C34.3297 3.12134 34.2697 3.02136 34.1997 2.93136C34.1297 2.84136 34.0597 2.75134 33.9897 2.66134C33.8597 2.48134 33.7297 2.32134 33.6097 2.16134C33.4797 2.01134 33.3497 1.87136 33.2397 1.74136C33.1797 1.68136 33.1297 1.61136 33.0697 1.55136C33.0197 1.49136 32.9597 1.44132 32.9097 1.39132C32.7997 1.29132 32.7097 1.20131 32.6297 1.12131C32.5497 1.04131 32.4697 0.991364 32.4097 0.931364C32.2897 0.831364 32.2297 0.781339 32.2297 0.781339C32.0297 0.611339 31.7297 0.631327 31.5497 0.831327C31.3697 1.03133 31.3797 1.34133 31.5797 1.52133L31.5997 1.53134C31.5997 1.53134 31.6497 1.58135 31.7597 1.67135C31.8097 1.72135 31.8797 1.77134 31.9497 1.84134C32.0197 1.91134 32.0997 1.99134 32.1897 2.09134C32.2297 2.14134 32.2797 2.18136 32.3297 2.24136C32.3797 2.30136 32.4197 2.36134 32.4697 2.41134C32.5697 2.53134 32.6797 2.66136 32.7897 2.80136C32.8997 2.95136 33.0097 3.11134 33.1297 3.28134C33.1897 3.36134 33.2497 3.45135 33.3097 3.54135C33.3697 3.63135 33.4297 3.73133 33.4897 3.83133C33.7297 4.22133 33.9997 4.63136 34.2497 5.11136C34.3797 5.34136 34.5097 5.58132 34.6397 5.82132C34.6697 5.88132 34.7097 5.94131 34.7397 6.00131C34.7697 6.06131 34.7997 6.13131 34.8297 6.19131C34.8897 6.32131 34.9597 6.44132 35.0197 6.57132C35.1497 6.83132 35.2797 7.09136 35.4097 7.36136C35.4797 7.49136 35.5397 7.63132 35.6097 7.76132C35.6697 7.90132 35.7397 8.04136 35.7997 8.18136C36.0597 8.74136 36.3197 9.31132 36.5797 9.88132C36.7097 10.1713 36.8497 10.4514 36.9797 10.7414C37.0497 10.8814 37.1197 11.0314 37.1797 11.1714C37.2497 11.3114 37.3297 11.4513 37.3997 11.5913C37.6797 12.1613 37.9997 12.7013 38.3097 13.2213C38.4697 13.4813 38.6397 13.7313 38.7897 13.9713C38.9597 14.2113 39.1197 14.4514 39.2897 14.6814C39.3197 14.7214 39.3497 14.7614 39.3797 14.8014C38.2497 15.5914 35.9297 17.5113 35.3097 20.4413C34.4897 24.3513 36.8897 27.0613 37.6097 27.7113C37.6097 27.7113 37.1697 28.0013 36.5397 28.5313C36.4197 28.3413 36.2597 28.1614 36.0597 27.9814C34.4797 26.6114 33.1397 26.2613 32.5297 25.3413C31.9097 24.4113 31.7397 24.3413 31.5997 24.5813C31.5997 24.5813 31.0197 20.3314 30.7797 17.9914C30.5397 15.6614 29.5397 13.0513 28.4497 13.0213C28.4497 13.0213 28.6597 12.3313 28.0397 10.6213C27.4197 8.91131 27.0797 7.98132 27.1097 7.39132C27.1397 6.81132 26.6597 6.8413 26.3897 7.1213C26.3897 7.1213 23.4597 3.00136 22.5697 2.11136C21.6797 1.22136 21.2697 0.461347 21.1997 0.101347C21.1297 -0.268653 20.6997 0.441334 20.8997 1.15133C21.1097 1.86133 21.3997 2.82133 23.0697 4.65133C24.7397 6.48133 25.2197 7.46132 25.2697 7.76132C25.2697 7.76132 24.4197 7.83132 24.7897 8.38132C25.1597 8.93132 25.5397 9.94134 25.6597 10.7813C25.7697 11.6313 25.9997 12.7713 26.8697 13.4613C26.8697 13.4613 25.5197 14.7613 26.4097 17.9713C27.2997 21.1713 28.3297 24.1513 30.7797 25.3813C30.7797 25.3813 29.9097 26.0214 30.1897 26.3014C30.4597 26.5714 31.6797 27.3114 32.1597 27.9214C32.4597 28.3114 33.0897 30.0913 34.1497 31.0413C32.2397 33.5214 30.7497 37.1713 33.4197 41.2113C33.4197 41.2113 33.3697 42.0514 33.2897 43.4914C32.8297 44.6714 32.1997 46.2513 31.4597 48.1213C30.3997 47.4613 28.9297 46.5713 28.8897 46.7213C28.8397 46.9613 28.6597 47.1714 28.6597 47.1714C28.6597 47.1714 25.3697 46.7913 22.6197 48.4713C19.8697 50.1513 15.5897 52.1413 15.0697 54.1313C15.0697 54.1313 11.2297 54.1313 8.61966 56.4613C6.00966 58.7913 6.96967 60.4113 6.96967 60.4113C6.96967 60.4113 5.31967 60.3814 5.66967 61.9214C5.66967 61.9214 4.25967 61.6513 4.22966 62.8813C4.22966 62.8813 3.29967 62.6413 3.05967 63.3913C3.05967 63.3913 1.43967 63.0713 1.17967 64.1413C1.17967 64.1413 0.449667 63.3713 0.919667 62.5213C0.959667 62.4513 0.939668 62.4414 0.889668 62.4914C0.609668 62.7614 -0.110337 63.5914 0.759663 64.4314C0.759663 64.4314 -0.560332 65.3713 0.279668 66.9413C0.319668 67.0113 0.339667 67.0014 0.349667 66.9214C0.349667 66.5614 0.429664 65.5713 1.11966 65.3913C1.11966 65.3913 0.96967 67.3713 2.71967 67.2613C2.78967 67.2613 2.79966 67.2313 2.72966 67.2013C2.43966 67.0713 1.78967 66.7113 2.16967 66.0813C2.64967 65.2813 3.26967 65.1413 3.35967 64.6413C3.35967 64.6413 4.52967 64.8714 4.70967 63.8614C4.70967 63.8614 6.05967 64.3013 6.35967 62.8313C6.35967 62.8313 7.61967 63.0614 7.77967 61.7313C7.77967 61.7313 8.91967 62.3013 10.4997 61.7813C12.0797 61.2513 15.7797 58.7814 16.6097 56.8614C16.6097 56.8614 20.4297 57.0213 23.7697 54.1413C27.1097 51.2613 26.9997 50.0013 28.0697 49.5213C28.0697 49.5213 27.7297 50.2113 28.2097 50.2813C28.5597 50.3313 29.6597 50.4013 30.4797 50.5913C27.7397 57.4513 23.9497 66.8213 20.7397 74.3213C20.1697 75.6613 19.6597 76.8813 19.1997 78.0213C19.1997 78.0213 19.1997 78.0213 19.1997 78.0313C15.4697 87.3213 15.4597 90.1713 15.4597 92.5013C15.4597 92.7313 15.4597 92.9514 15.4597 93.1814C15.4197 95.8914 16.2097 100.971 17.7797 103.051C18.4497 103.951 18.6897 104.541 18.8997 105.061C19.1497 105.691 19.3697 106.231 20.2697 107.051C21.2397 107.941 22.6797 108.471 24.1097 108.471C25.2197 108.471 26.2797 108.161 27.1597 107.571C28.1797 106.891 28.6497 106.411 29.0297 106.021C29.4697 105.571 29.7697 105.271 30.6497 104.931C32.1397 104.371 34.2797 101.841 35.6797 99.8614C36.6597 102.471 37.8597 104.751 39.3197 106.491C44.8097 113.081 46.8797 113.761 47.2797 115.421C47.3697 115.791 47.3397 115.791 47.4197 115.421C47.8097 113.761 49.8897 113.081 55.3797 106.491C56.8297 104.751 58.0297 102.471 59.0197 99.8614C60.4197 101.841 62.5597 104.371 64.0497 104.931C64.9397 105.271 65.2297 105.571 65.6697 106.021C66.0497 106.411 66.5197 106.891 67.5397 107.571C68.4197 108.161 69.4797 108.471 70.5897 108.471C72.0197 108.471 73.4597 107.941 74.4297 107.051C75.3297 106.231 75.5397 105.691 75.7997 105.061C76.0097 104.541 76.2497 103.951 76.9197 103.051C78.4797 100.971 79.2797 95.8914 79.2397 93.1814C79.2397 92.9514 79.2397 92.7313 79.2397 92.5013C79.2397 90.1713 79.2297 87.3213 75.4997 78.0313C75.0397 76.9013 74.5397 75.6713 73.9597 74.3313C70.7497 66.8413 66.9597 57.4713 64.2197 50.6013C65.0397 50.4213 66.1397 50.3413 66.4897 50.2913C66.9697 50.2213 66.6297 49.5313 66.6297 49.5313C67.7097 50.0113 67.5897 51.2713 70.9297 54.1513C74.2697 57.0313 78.0897 56.8713 78.0897 56.8713C78.9097 58.7913 82.6197 61.2613 84.1997 61.7913C85.7797 62.3213 86.9197 61.7414 86.9197 61.7414C87.0797 63.0714 88.3397 62.8413 88.3397 62.8413C88.6397 64.3013 89.9897 63.8713 89.9897 63.8713C90.1697 64.8813 91.3397 64.6513 91.3397 64.6513C91.4297 65.1513 92.0497 65.2913 92.5297 66.0913C92.9097 66.7213 92.2597 67.0813 91.9697 67.2113C91.8997 67.2413 91.8997 67.2713 91.9797 67.2713C93.7297 67.3913 93.5797 65.4013 93.5797 65.4013C94.2697 65.5913 94.3397 66.5714 94.3497 66.9314C94.3497 67.0114 94.3797 67.0113 94.4197 66.9513C95.2497 65.3813 93.9297 64.4413 93.9297 64.4413ZM29.8497 105.001C29.5697 103.201 28.0197 99.8613 26.7597 97.1413C26.5097 96.6113 26.2797 96.1013 26.0697 95.6413C27.8897 95.2113 30.5697 92.8013 31.4097 92.0113C31.3397 94.2413 33.6897 97.8013 35.4297 99.1013C35.5397 99.1814 35.6397 99.2513 35.7397 99.3113C35.6897 99.3913 35.6397 99.4613 35.5797 99.5414C34.2097 101.511 32.0397 104.111 30.5697 104.661C30.2797 104.771 30.0497 104.881 29.8497 105.001ZM28.8597 105.811C28.4897 106.191 28.0297 106.661 27.0297 107.331C26.1897 107.891 25.1897 108.191 24.1297 108.191C22.7597 108.191 21.3897 107.691 20.4697 106.841C19.6197 106.061 19.4197 105.571 19.1697 104.951C19.0397 104.631 18.8997 104.281 18.6597 103.851C18.5997 101.261 19.8497 90.6913 20.5597 84.9413C21.5597 86.8013 24.8597 93.3013 24.8997 93.3713C24.9497 93.6113 24.9997 93.8413 25.0797 94.0313C25.3797 94.8113 25.9097 95.9414 26.5097 97.2414C27.7897 100.001 29.3797 103.421 29.5997 105.141C29.3097 105.351 29.0997 105.571 28.8597 105.811ZM15.7597 92.4914C15.7597 90.2214 15.7597 87.4713 19.2797 78.6213C19.5097 79.4613 20.2397 80.8113 20.7497 81.2213C20.5897 82.4913 18.4797 99.0613 18.3897 103.411C18.2797 103.241 18.1597 103.071 18.0197 102.881C17.0497 101.591 15.6897 97.3914 15.7597 93.1714C15.7597 92.9514 15.7597 92.7214 15.7597 92.4914ZM21.0197 74.4214C21.7197 72.8014 22.4397 71.0813 23.1697 69.3313C23.8497 69.2513 25.1497 68.8613 26.4097 68.0313C26.1297 69.7213 24.7997 77.6113 24.3197 78.5713C23.8797 79.4413 22.2397 80.8113 21.3497 81.0613C21.1697 81.1113 21.0397 81.1113 20.9697 81.0613C20.3297 80.6413 19.3597 78.4413 19.4797 78.1313C19.9397 76.9913 20.4497 75.7614 21.0197 74.4214ZM33.2897 44.3513C33.5597 43.6713 33.7797 43.1013 33.9697 42.6313C33.9397 43.4013 33.8797 44.6813 33.7997 46.3413C33.5097 48.3613 33.1597 50.8513 32.7997 53.4813C32.3297 56.8814 31.8497 60.5113 31.4597 63.6313C31.0797 63.7913 29.2997 64.6313 27.9197 66.3213C26.6097 67.9313 24.4897 68.8513 23.3097 69.0414C25.9297 62.7614 28.6797 55.9613 30.7897 50.6613C31.1297 49.8213 31.4497 49.0213 31.7497 48.2613C32.3397 46.7513 32.8597 45.4313 33.2897 44.3513ZM41.3197 86.6313C40.0997 85.5713 38.6497 80.5713 38.4497 78.4713C38.3397 77.2813 38.3697 76.1913 38.4097 74.8213C38.4397 73.7913 38.4697 72.6413 38.4597 71.1513C40.3397 74.8113 43.4097 76.4313 43.9497 76.6913C43.9497 76.8413 43.9497 77.0313 43.9697 77.1613C44.5297 83.1013 42.2497 85.6614 41.5497 86.3014C41.4597 86.3914 41.3797 86.5113 41.3197 86.6313ZM36.7897 97.8313C36.5197 98.1913 36.2697 98.5314 36.0497 98.8614C35.9997 98.9314 35.9497 99.0113 35.8997 99.0813C35.6997 98.9613 35.4897 98.8113 35.2697 98.6213C34.5197 97.9813 33.6997 96.9714 33.0197 95.8513C32.0197 94.1913 31.5397 92.6714 31.7097 91.6814C31.8097 91.1014 32.0297 87.6213 32.2897 82.7513C32.3697 81.3013 32.4497 79.7413 32.5397 78.0913C33.2397 77.9613 33.9997 77.8513 34.6197 77.7613C34.6697 80.2113 34.7597 82.0113 34.9097 82.7613C35.7997 87.4413 36.6497 89.1713 39.5397 89.4013C39.7297 93.8913 38.0997 96.0713 36.7897 97.8313ZM25.3397 93.9413C24.5297 91.8713 25.5097 86.5713 25.9797 84.0313C26.0597 83.5813 26.1297 83.2213 26.1697 82.9713C26.2197 82.6813 26.2897 82.4813 26.3997 82.3313L26.4097 82.3213C26.6497 82.0013 27.0497 81.9613 27.5897 81.9113C28.0997 81.8613 28.7397 81.7914 29.3897 81.4214C30.0797 81.0314 30.4297 80.0113 30.6297 78.5813C30.9297 78.4513 31.4397 78.3113 32.0197 78.1913C32.0997 78.1713 32.1797 78.1613 32.2597 78.1413C32.2197 78.9613 32.1797 79.7613 32.1397 80.5313C31.8297 86.4313 31.5697 90.8213 31.4497 91.5913C31.1297 91.9013 27.9197 94.9613 25.9597 95.3913C25.6997 94.8313 25.4897 94.3413 25.3397 93.9413ZM21.0097 81.3413C21.0497 81.3513 21.0797 81.3513 21.1297 81.3513C21.2197 81.3513 21.3197 81.3313 21.4297 81.3113C22.2497 81.0913 23.5997 80.0313 24.2797 79.1513C24.6397 80.0213 25.8597 81.8513 26.1297 82.2513C26.0297 82.4213 25.9497 82.6414 25.8997 82.9314C25.8597 83.1814 25.7897 83.5414 25.7097 83.9914C25.3197 86.0814 24.5997 90.0213 24.7897 92.5713C23.8197 90.6713 21.1797 85.4814 20.6197 84.4914C20.8197 82.9014 20.9597 81.7513 21.0097 81.3413ZM28.1297 66.4914C29.3197 65.0314 30.8497 64.2213 31.4097 63.9513C31.0297 67.0513 30.7497 69.6114 30.6997 70.8614C30.6597 71.8214 30.6397 72.7713 30.6197 73.6913C30.5397 77.3413 30.4597 80.5014 29.2597 81.1814C28.6597 81.5214 28.0797 81.5813 27.5697 81.6313C27.0797 81.6813 26.6297 81.7313 26.3097 82.0213C25.7597 81.2113 24.6297 79.4513 24.4697 78.8713C24.5097 78.8013 24.5497 78.7414 24.5797 78.6814C25.1197 77.6114 26.5897 68.6714 26.7397 67.8014C27.2297 67.4414 27.7097 67.0114 28.1297 66.4914ZM38.4497 70.5113C38.3697 66.5413 36.5797 51.1013 36.5597 50.9513V50.9413C36.5097 48.4013 36.3997 46.2313 36.2097 44.7513C36.3497 45.0213 36.4897 45.3013 36.6297 45.6013C36.6297 45.9813 36.6697 49.7914 37.1997 53.7414C37.9497 59.2414 39.2697 62.4013 41.1297 63.1613C41.1097 63.3213 41.1597 63.5113 41.2597 63.6313C44.0597 67.0913 44.0197 74.4613 43.9597 76.3913C43.1897 76.0013 40.1597 74.2513 38.4497 70.5113ZM35.8097 77.3313C35.6397 77.3513 35.3097 77.3913 34.8897 77.4413C34.6897 67.1913 35.0997 46.2313 35.1697 42.7913C35.3697 43.1313 35.5797 43.5313 35.8097 43.9713C36.9397 49.8613 35.8897 75.3913 35.8097 77.3313ZM41.2097 62.9013C37.4597 61.2913 36.9797 49.0714 36.9197 46.1814C38.8597 50.1814 41.1697 55.5213 41.7097 57.0313C42.3997 58.9513 41.5497 61.8613 41.2097 62.9013ZM34.2697 41.8513C34.3097 41.7713 34.3697 41.7213 34.4197 41.7213C34.4297 41.7213 34.4397 41.7314 34.4497 41.7414C34.4197 41.9614 34.3297 42.5913 34.1897 43.5213C34.2397 42.6413 34.2597 42.0613 34.2697 41.8513ZM34.6897 42.0313C34.7597 42.1313 34.8197 42.2313 34.8997 42.3513C34.8697 43.9113 34.3897 66.6514 34.6097 77.4814C33.9997 77.5614 33.2497 77.6714 32.5497 77.8014C33.0897 67.2614 33.7397 53.4314 34.0697 46.3614C34.3697 44.2614 34.5997 42.6813 34.6897 42.0313ZM32.2697 77.8614C32.1797 77.8814 32.0897 77.8913 31.9997 77.9113C31.4697 78.0213 30.9997 78.1413 30.6597 78.2613C30.7997 76.9813 30.8397 75.4213 30.8797 73.6913C30.8997 72.7713 30.9197 71.8214 30.9597 70.8614C31.0497 68.7214 31.7997 62.7313 32.6097 56.7313C32.9597 54.1314 33.3197 51.5314 33.6397 49.2414C33.3097 56.7914 32.7497 68.6014 32.2697 77.8614ZM39.5497 89.1313C36.8097 88.9213 36.0397 87.3113 35.1697 82.7113C35.0297 81.9813 34.9397 80.1713 34.8897 77.7213C35.3397 77.6613 35.6897 77.6213 35.8497 77.6013C37.3397 80.8214 39.4797 87.9414 39.7497 88.8614C39.6597 88.9314 39.5897 89.0313 39.5497 89.1313ZM39.9997 88.7213C39.6697 87.6013 37.5497 80.5814 36.0797 77.4314C36.1097 76.6614 36.6597 63.5514 36.5997 53.6714C37.1197 58.3214 38.1297 67.6414 38.1797 70.5514C38.2097 72.3414 38.1697 73.6613 38.1397 74.8213C38.0997 76.2013 38.0697 77.2913 38.1797 78.5013C38.2897 79.6513 38.7397 81.5514 39.3097 83.2314C39.6897 84.3714 40.4397 86.3214 41.2397 86.9113C41.0197 88.0013 40.4197 88.5013 39.9997 88.7213ZM73.7197 74.4214C74.2897 75.7614 74.7997 76.9813 75.2597 78.1213C75.3797 78.4313 74.4097 80.6314 73.7697 81.0514C73.6997 81.1014 73.5597 81.1014 73.3897 81.0514C72.4897 80.8114 70.8497 79.4313 70.4197 78.5613C69.9397 77.6013 68.6097 69.7213 68.3297 68.0213C69.5897 68.8613 70.8897 69.2513 71.5697 69.3213C72.2997 71.0913 73.0297 72.8014 73.7197 74.4214ZM78.9797 92.4914C78.9797 92.7214 78.9797 92.9514 78.9797 93.1714C79.0497 97.3914 77.6897 101.591 76.7197 102.881C76.5797 103.071 76.4597 103.241 76.3497 103.411C76.2597 99.0613 74.1497 82.4913 73.9897 81.2213C74.4997 80.8113 75.2197 79.4613 75.4597 78.6213C78.9797 87.4713 78.9797 90.2214 78.9797 92.4914ZM75.5697 104.951C75.3197 105.571 75.1197 106.061 74.2697 106.841C73.3497 107.681 71.9797 108.191 70.6097 108.191C69.5497 108.191 68.5497 107.891 67.7097 107.331C66.7097 106.671 66.2497 106.201 65.8797 105.811C65.6397 105.561 65.4297 105.351 65.1397 105.151C65.3597 103.431 66.9397 100.011 68.2297 97.2513C68.8397 95.9413 69.3597 94.8113 69.6597 94.0414C69.7397 93.8513 69.7897 93.6213 69.8397 93.3813C69.8797 93.3113 73.1797 86.8013 74.1797 84.9513C74.8897 90.7013 76.1297 101.271 76.0797 103.861C75.8397 104.281 75.6997 104.631 75.5697 104.951ZM64.1697 104.661C62.6997 104.101 60.5297 101.511 59.1597 99.5414C59.1097 99.4613 59.0497 99.3913 58.9997 99.3113C59.0997 99.2513 59.2097 99.1814 59.3097 99.1013C61.0597 97.8013 63.4097 94.2413 63.3297 92.0113C64.1697 92.8013 66.8397 95.2113 68.6697 95.6413C68.4597 96.1013 68.2297 96.6113 67.9797 97.1413C66.7197 99.8513 65.1697 103.201 64.8897 105.001C64.6897 104.881 64.4597 104.771 64.1697 104.661ZM68.0097 67.8014C68.1497 68.6714 69.6297 77.6114 70.1697 78.6814C70.1997 78.7414 70.2397 78.8113 70.2797 78.8713C70.1197 79.4513 68.9897 81.2113 68.4397 82.0213C68.1197 81.7313 67.6697 81.6813 67.1797 81.6313C66.6697 81.5813 66.0897 81.5214 65.4797 81.1814C64.2797 80.5014 64.2097 77.3513 64.1197 73.6913C64.0997 72.7713 64.0797 71.8214 64.0397 70.8614C63.9897 69.6114 63.7097 67.0513 63.3297 63.9513C63.8897 64.2213 65.4297 65.0414 66.6097 66.4914C67.0397 67.0114 67.5197 67.4414 68.0097 67.8014ZM73.7297 81.3413C73.7797 81.7513 73.9297 82.9014 74.1197 84.4814C73.5597 85.4614 70.9197 90.6513 69.9497 92.5613C70.1397 90.0113 69.4197 86.0814 69.0297 83.9814C68.9497 83.5314 68.8797 83.1714 68.8397 82.9214C68.7897 82.6314 68.7097 82.4114 68.6097 82.2414C68.8797 81.8414 70.1097 80.0113 70.4597 79.1413C71.1397 80.0313 72.4797 81.0814 73.2997 81.3014C73.4097 81.3314 73.5097 81.3413 73.5997 81.3413C73.6597 81.3613 73.6997 81.3513 73.7297 81.3413ZM68.7897 95.3913C66.8297 94.9613 63.6197 91.9013 63.2997 91.5913C63.1797 90.8313 62.9197 86.4313 62.6097 80.5313C62.5697 79.7513 62.5297 78.9613 62.4797 78.1413C62.5597 78.1613 62.6397 78.1713 62.7197 78.1913C63.2997 78.3113 63.7997 78.4413 64.1097 78.5813C64.2997 80.0113 64.6497 81.0314 65.3397 81.4214C65.9897 81.7914 66.6297 81.8513 67.1397 81.9113C67.6797 81.9713 68.0797 82.0113 68.3197 82.3213L68.3297 82.3313C68.4397 82.4813 68.5197 82.6813 68.5597 82.9713C68.5997 83.2213 68.6697 83.5813 68.7497 84.0313C69.2197 86.5813 70.1997 91.8713 69.3897 93.9413C69.2597 94.3413 69.0397 94.8313 68.7897 95.3913ZM58.6997 98.8614C58.4797 98.5214 58.2297 98.1913 57.9597 97.8313C56.6497 96.0713 55.0197 93.8913 55.2097 89.4113C58.0997 89.1813 58.9497 87.4513 59.8397 82.7713C59.9797 82.0213 60.0697 80.2213 60.1297 77.7713C60.7497 77.8513 61.5097 77.9714 62.2097 78.1013C62.2997 79.7514 62.3797 81.3213 62.4597 82.7713C62.7197 87.6413 62.9397 91.1213 63.0397 91.7013C63.2097 92.7013 62.7397 94.2213 61.7397 95.8713C61.0597 96.9913 60.2297 98.0013 59.4897 98.6413C59.2697 98.8313 59.0597 98.9813 58.8597 99.1013C58.7997 99.0114 58.7397 98.9314 58.6997 98.8614ZM53.1997 86.3113C52.4897 85.6713 50.2197 83.1214 50.7797 77.1714C50.7897 77.0414 50.7997 76.8513 50.7997 76.7013C51.3397 76.4413 54.4197 74.8214 56.2897 71.1613C56.2797 72.6513 56.3097 73.8013 56.3397 74.8313C56.3797 76.2013 56.4097 77.2814 56.2997 78.4814C56.0997 80.5714 54.6497 85.5713 53.4297 86.6413C53.3697 86.5113 53.2897 86.3913 53.1997 86.3113ZM59.8597 77.4513C59.4397 77.3913 59.1097 77.3613 58.9397 77.3413C58.8597 75.4013 57.8097 49.8614 58.9397 43.9813C59.1697 43.5414 59.3897 43.1414 59.5797 42.8014C59.6497 46.2314 60.0597 67.2013 59.8597 77.4513ZM58.1797 50.9513C58.1597 51.1113 56.3697 66.5413 56.2897 70.5113C54.5797 74.2513 51.5497 76.0013 50.7797 76.3913C50.7197 74.4613 50.6697 67.1013 53.4697 63.6313C53.5697 63.5113 53.6197 63.3213 53.5997 63.1613C55.4597 62.4013 56.7897 59.2314 57.5297 53.7414C58.0697 49.7914 58.0997 45.9813 58.0997 45.6013C58.2397 45.3013 58.3897 45.0213 58.5197 44.7513C58.3497 46.2213 58.2397 48.4013 58.1797 50.9513C58.1797 50.9413 58.1797 50.9413 58.1797 50.9513ZM53.5397 62.9013C53.1897 61.8613 52.3497 58.9513 53.0397 57.0313C53.5797 55.5213 55.8997 50.1814 57.8297 46.1814C57.7697 49.0714 57.2897 61.2913 53.5397 62.9013ZM56.5697 78.5013C56.6797 77.2913 56.6497 76.2013 56.6097 74.8213C56.5797 73.6613 56.5397 72.3414 56.5697 70.5514C56.6197 67.6414 57.6297 58.3314 58.1497 53.6814C58.0897 63.5614 58.6397 76.6713 58.6697 77.4413C57.1997 80.6013 55.0797 87.6214 54.7497 88.7314C54.3297 88.5114 53.7297 88.0114 53.5197 86.9214C54.9297 85.8614 56.3797 80.5213 56.5697 78.5013ZM58.8897 77.6013C59.0497 77.6213 59.3997 77.6613 59.8497 77.7213C59.7997 80.1713 59.7097 81.9713 59.5697 82.7113C58.6897 87.3113 57.9297 88.9113 55.1897 89.1313C55.1597 89.0213 55.0897 88.9314 54.9897 88.8614C55.2697 87.9414 57.3997 80.8314 58.8897 77.6013ZM63.7697 70.8713C63.8097 71.8313 63.8297 72.7813 63.8497 73.7013C63.8897 75.4313 63.9297 76.9913 64.0697 78.2713C63.7397 78.1513 63.2597 78.0314 62.7297 77.9214C62.6397 77.9014 62.5497 77.8913 62.4697 77.8713C61.9897 68.6113 61.4297 56.8013 61.0797 49.2713C61.3997 51.5613 61.7597 54.1613 62.1097 56.7613C62.9297 62.7413 63.6797 68.7313 63.7697 70.8713ZM62.1997 77.8113C61.4997 77.6813 60.7497 77.5714 60.1397 77.4914C60.3597 66.6514 59.8797 43.9214 59.8497 42.3614C59.9197 42.2414 59.9897 42.1313 60.0597 42.0413C60.1597 42.7013 60.3797 44.2713 60.6897 46.3813C61.0097 53.4413 61.6497 67.2613 62.1997 77.8113ZM60.2897 41.7414C60.2997 41.7414 60.3097 41.7213 60.3197 41.7213C60.3697 41.7213 60.4297 41.7713 60.4697 41.8513C60.4797 42.0613 60.5097 42.6413 60.5497 43.5213C60.4097 42.5913 60.3197 41.9614 60.2897 41.7414ZM66.8297 66.3213C65.4497 64.6313 63.6697 63.8013 63.2897 63.6313C62.8997 60.5113 62.4197 56.8814 61.9497 53.4813C61.5897 50.8513 61.2397 48.3513 60.9497 46.3413C60.8697 44.6813 60.8097 43.4013 60.7797 42.6313C60.9597 43.1013 61.1897 43.6813 61.4597 44.3513C61.8797 45.4313 62.4097 46.7513 63.0097 48.2513C63.3097 49.0113 63.6297 49.8113 63.9697 50.6513C66.0897 55.9513 68.8297 62.7513 71.4497 69.0313C70.2597 68.8513 68.1397 67.9313 66.8297 66.3213Z" fill="#0C0C0C"/>
</svg>
