<svg width="273" height="273" viewBox="0 0 273 273" fill="none" xmlns="http://www.w3.org/2000/svg">
<path d="M263.004 85.1396C256.135 68.2015 246.047 53.0075 233.019 39.9793C219.993 26.9527 204.799 16.8638 187.859 9.99483C171.505 3.36245 154.224 0 136.5 0C118.776 0 101.495 3.36245 85.1396 9.99635C68.2015 16.8638 53.0075 26.9527 39.9793 39.9793C26.9512 53.006 16.8638 68.2 9.99483 85.1396C3.36245 101.495 0 118.776 0 136.5C0 154.224 3.36245 171.505 9.99635 187.86C16.8653 204.799 26.9527 219.993 39.9809 233.021C53.0075 246.049 68.2015 256.136 85.1411 263.005C101.495 269.638 118.776 273 136.5 273C154.224 273 171.505 269.638 187.86 263.004C204.799 256.135 219.993 246.047 233.021 233.019C246.047 219.993 256.136 204.799 263.005 187.859C269.638 171.505 273 154.224 273 136.5C273 118.776 269.638 101.495 263.004 85.1396ZM220.055 220.055C197.737 242.372 168.063 254.663 136.5 254.663C108.012 254.663 81.0658 244.65 59.6748 226.29L88.3974 197.567L81.8348 178.198L46.7088 213.324C28.3495 191.934 18.3365 164.988 18.3365 136.5C18.3365 104.937 30.6276 75.2631 52.9453 52.9453C75.2631 30.6276 104.937 18.3365 136.5 18.3365C164.988 18.3365 191.934 28.3511 213.325 46.7103L177.562 82.4733L197.057 88.9085L226.29 59.6763C244.65 81.0658 254.663 108.012 254.663 136.5C254.663 168.063 242.372 197.737 220.055 220.055Z" fill="#313131"/>
<path d="M91.8964 181.533C91.4156 180.336 90.1886 178.196 89.0587 176.795C89.8368 177.145 90.4192 177.597 89.9627 175.774C89.7655 174.988 89.3332 173.802 88.8085 172.639C90.3691 173.138 92.6699 174.708 96.1764 178.107C92.1103 171.793 90.5193 171.922 90.354 169.181C90.2114 166.842 92.9141 166.302 94.2306 154.639C94.6658 155.401 95.0829 156.089 95.4879 156.717C98.8822 154.391 100.127 150.329 101.024 146.666C97.8342 148.248 94.5263 147.13 90.36 144.708C89.8671 146.278 89.9293 147.914 90.3828 149.352C85.1579 156.003 85.3323 160.354 84.624 161.426C83.9036 162.024 83.1665 162.594 82.5689 163.682C83.0421 163.19 83.7049 162.688 84.4056 162.433C84.4496 163.659 84.4374 166.208 83.7125 168.044C82.7236 170.542 83.5547 171.626 80.1468 175.718C83.303 173.545 83.1877 172.415 83.1361 174.677C84.3464 173.22 84.7544 173.252 84.5042 176.726C84.9122 176.188 85.1503 175.269 85.4961 174.42C85.5886 175.348 85.7266 176.203 85.8737 176.793C86.1998 178.102 86.4607 178.031 86.805 177.64C86.9521 179.44 87.5481 181.873 88.0335 183.08C88.4581 184.141 88.6993 184.213 88.9404 183.941C89.1179 185.924 89.6472 188.396 90.0916 189.692C90.5724 191.094 90.8317 191.045 91.1244 190.621C91.1851 192.744 91.6158 195.218 92.3802 196.549C93.0582 197.943 93.3266 198.043 93.5283 197.7C94.3928 200.239 96.2993 203.491 97.9388 204.606C99.7967 206.094 99.8104 206.109 99.9818 205.633C101.682 209.233 103.726 209.643 105.565 209.464C103.619 208.815 102.249 208.024 100.907 205.304C103.936 207.973 105.986 207.53 107.608 206.626C105.528 206.811 103.939 206.628 101.552 204.571C102.072 204.627 102.894 204.715 104.388 204.559C101.994 203.858 101.031 202.563 99.5798 200.864C98.4833 199.578 97.088 197.597 95.864 196.173C96.6375 196.413 97.1592 196.58 96.2932 194.808C95.632 193.701 94.7675 191.547 93.9545 189.749C94.4338 189.914 94.6492 189.774 94.1411 188.3C93.6618 186.903 92.4212 184.378 91.2685 182.685C92.0147 182.922 92.5501 183.168 91.8964 181.533Z" fill="#0C0C0C"/>
<path d="M129.576 140.865C125.909 138.82 121.772 136.527 117.727 135.728C117.523 135.971 117.294 136.207 117.032 136.432C115.882 137.421 114.448 138.009 112.787 138.688C110.133 139.774 107.125 141.007 104.028 144.329C103.905 144.461 103.779 144.59 103.657 144.714C103.6 144.77 103.544 144.82 103.485 144.876C103.296 145.564 103.121 146.269 102.941 147.01C102.137 150.294 101.244 153.946 98.5288 156.661C98.0419 157.148 97.2532 157.847 96.5859 158.317C101.201 164.576 104.336 163.01 112.359 170.931C106.535 179.537 104.591 186.495 110.58 189.932C113.488 196.74 118.964 203.264 119.316 208.625C120.476 204.905 124.96 211.708 126.378 214.79C127.797 217.869 128.753 220.575 130.335 221.967C130.057 219.807 130.044 218.138 130.382 216.911C130.784 217.93 131.217 218.856 131.572 219.468C132.314 220.737 132.566 220.582 132.808 220.068C133.508 221.905 134.873 224.263 135.746 225.38C136.514 226.361 136.79 226.362 136.957 226.004C137.745 228.022 139.051 230.444 139.911 231.665C140.841 232.983 141.096 232.852 141.273 232.321C141.983 234.522 143.184 236.975 144.388 238.133C145.518 239.383 145.832 239.407 145.94 238.989C147.616 241.379 150.599 244.197 152.653 244.863C155.047 245.855 155.066 245.864 155.099 245.315C157.973 248.56 160.233 248.365 162.098 247.62C159.867 247.534 158.196 247.124 155.962 244.687C159.942 246.558 161.95 245.471 163.368 244.032C161.252 244.86 159.535 245.149 156.412 243.73C156.975 243.631 157.858 243.47 159.376 242.853C156.661 242.85 155.258 241.788 153.224 240.454C151.688 239.445 149.628 237.8 147.913 236.683C148.794 236.699 149.39 236.715 147.945 235.126C146.915 234.169 145.359 232.18 143.962 230.551C144.513 230.577 144.695 230.365 143.716 228.979C142.791 227.665 140.725 225.402 139.006 223.987C139.856 224.002 140.49 224.097 139.307 222.587C138.443 221.482 136.508 219.619 134.901 218.499C135.821 218.627 136.567 218.923 135.535 217.156C135.103 216.416 134.322 215.347 133.448 214.32C135.317 214.065 138.071 214.56 141.94 215.696C140.396 213.847 132.98 212.074 144.914 213.636C142.38 211.102 133.133 211.921 128.595 205.401C124.761 199.889 120.628 193.208 116.445 189.57C118.835 187.442 120.219 182.922 120.563 178.841C132.458 189.906 154.84 209.15 167.329 209.929C182.511 210.879 191.72 202.748 196.361 198.177L142.424 144.239C139.169 146.243 134.701 143.716 129.576 140.865Z" fill="#0C0C0C"/>
<path d="M139.185 130.524C137.183 126.918 134.95 122.882 134.004 118.752C133.473 118.987 132.904 119.172 132.314 119.38C130.256 120.102 127.688 120.989 124.38 124.297L124.298 124.379C120.991 127.687 120.108 130.26 119.386 132.317C119.183 132.892 118.999 133.445 118.773 133.964C122.882 134.923 126.9 137.146 130.496 139.15C135.469 141.917 139.75 144.296 141.984 142.063L142.066 141.981C144.3 139.746 141.94 135.482 139.185 130.524Z" fill="#0C0C0C"/>
<path d="M35.2776 107.457C34.4996 107.885 33.6927 108.197 36.0238 108.252C38.0638 108.299 41.2821 109.649 43.2841 110.409C42.6153 110.582 41.7932 110.479 43.2553 111.411C44.1805 111.998 46.052 112.925 47.4898 113.427C46.8695 113.538 46.4676 113.617 47.8675 114.507C48.964 115.204 51.1966 116.306 52.8786 116.883C52.3417 117.255 51.9868 117.498 53.376 117.869C53.7779 117.975 54.3285 118.077 54.9412 118.159C53.8204 118.822 52.6495 119.802 52.6435 121.361C55.6556 118.424 58.0959 119.187 55.0853 124.156C60.3072 120.789 64.2611 121.462 62.4563 125.63C66.7394 123.006 72.7681 126.717 78.3798 123.492C79.1381 124.899 80.488 125.453 82.0653 125.468C83.3666 132.033 86.1694 138.024 90.3842 142.239C90.6405 142.495 90.8984 142.717 91.1562 142.912C96.5995 146.108 99.3629 146.489 102.609 143.002C105.994 139.367 109.353 137.994 112.051 136.89C113.556 136.274 114.854 135.743 115.764 134.959C116.704 134.149 117.038 133.089 117.54 131.659C118.288 129.535 119.281 126.598 122.9 122.979L122.982 122.897C126.601 119.278 129.54 118.283 131.662 117.537C133.09 117.035 134.137 116.688 134.947 115.747C135.731 114.839 136.262 113.539 136.873 112.03C137.967 109.32 139.329 105.951 142.962 102.565C146.536 99.2385 146.053 96.4175 142.636 90.7012C142.529 90.5784 142.413 90.454 142.289 90.3296C138.064 86.1042 132.055 83.2969 125.466 82.0001C125.437 80.4516 124.881 79.1275 123.492 78.3783C126.717 72.7666 123.006 66.7379 125.63 62.4548C121.462 64.2597 120.787 60.3057 124.156 55.0838C119.187 58.0944 118.424 55.6541 121.361 52.642C119.801 52.6481 118.823 53.8189 118.159 54.9397C118.077 54.327 117.975 53.778 117.869 53.3745C117.499 51.9853 117.257 52.3402 116.883 52.8771C116.306 51.1951 115.204 48.9626 114.507 47.866C113.617 46.4661 113.538 46.8665 113.427 47.4884C112.923 46.0521 111.998 44.1805 111.411 43.2538C110.48 41.7918 110.582 42.6138 110.409 43.2826C109.649 41.2822 108.299 38.0623 108.252 36.0224C108.197 33.6912 107.885 34.4981 107.457 35.2762C107.401 34.0977 107.811 33.3909 108.478 32.575C107.526 33.121 106.66 33.9385 106.882 35.7569C105.891 34.4632 105.833 33.5244 105.989 32.3156C105.508 33.1316 105.204 34.1174 105.906 35.4127C105.483 34.9865 105.229 34.7999 105.628 36.7852C105.86 38.7888 107.732 42.039 109.208 43.8302C108.716 43.7361 108.405 43.6891 109.114 44.8039C109.741 45.7897 111.173 47.5612 112.286 48.5955C111.557 48.4954 110.858 48.1269 111.839 49.6678C112.474 50.6673 113.821 52.3644 115.015 53.5778C114.413 53.3715 113.994 53.1804 114.354 54.5272C114.599 55.4463 115.247 57.007 115.951 58.2415C115.329 58.3826 114.476 57.7547 114.307 56.3593C113.221 58.7815 115.49 59.1743 115.972 64.2324C116.403 68.7353 117.056 72.0917 119.65 77.7413C117.57 77.9021 116.864 78.9728 116.529 81.1766C111.621 81.216 106.691 82.0517 102.184 83.7215C102.49 82.1002 101.723 80.4213 99.2764 78.9971C98.3695 78.4678 97.5717 78.2464 96.871 78.2054C96.5085 78.1387 96.2446 78.0507 96.413 77.849C97.1986 76.9087 97.3427 75.8546 96.9271 75.1539C97.3745 75.0523 97.8341 74.6549 97.8629 73.9148C97.9069 72.803 99.2567 71.4623 100.161 71.4092C100.787 71.3713 101.621 70.1519 101.01 69.345C101.212 68.4335 100.945 66.7409 100.105 65.0043C98.9655 62.6444 97.2107 61.102 96.4918 61.4493L99.5388 67.7601C98.9761 67.2035 98.2512 66.5498 97.4412 65.8704C95.4301 64.1914 93.6435 63.0145 93.4539 63.2435C93.2613 63.4725 94.7385 65.0195 96.7496 66.6985C97.7218 67.5114 98.6409 68.206 99.3538 68.6792L91.5399 66.3648C91.3352 67.155 93.3857 68.7778 95.9352 69.5316C96.9574 69.8334 97.8993 69.9502 98.6804 69.9305C98.5484 70.663 97.6945 71.0012 97.1076 71.705C96.4933 72.4421 95.6258 73.6114 95.8988 74.4517C95.1799 74.3288 94.3093 74.6837 93.6177 75.5133C93.093 76.1412 92.8533 77.1286 92.7593 78.1205C92.3119 75.6362 89.2801 73.528 86.7685 73.5053C85.5112 73.4931 83.7943 73.4294 82.1411 74.7777C79.5294 76.9071 80.4136 77.8262 79.1412 79.0987C77.7686 80.4713 76.9299 79.5082 74.8005 82.1184C73.4521 83.7716 73.4946 85.5112 73.5067 86.767C73.531 89.2771 75.6346 92.3074 78.1189 92.7578C77.1285 92.8503 76.1442 93.0915 75.5163 93.6147C74.6867 94.3079 74.3318 95.1784 74.4547 95.8958C73.6144 95.6228 72.4451 96.4903 71.708 97.1046C71.0042 97.6915 70.666 98.5454 69.9335 98.6774C69.9517 97.8963 69.8364 96.9544 69.5346 95.9322C68.7808 93.3827 67.158 91.3322 66.3678 91.5369L68.6822 99.3508C68.2075 98.6379 67.5144 97.7188 66.7015 96.7467C65.0225 94.7356 63.4755 93.2583 63.2465 93.4509C63.0175 93.6405 64.1944 95.4256 65.8734 97.4383C66.5528 98.2482 67.2065 98.9731 67.7631 99.5358L61.4523 96.4888C61.105 97.2092 62.6474 98.9625 65.0073 100.102C66.7439 100.942 68.4365 101.209 69.348 101.007C70.1549 101.618 71.3728 100.784 71.4122 100.158C71.4653 99.2537 72.806 97.9039 73.9178 97.8599C74.6579 97.8311 75.0537 97.37 75.1569 96.9241C75.8576 97.3412 76.9101 97.1956 77.852 96.41C78.0522 96.2401 78.1402 96.4994 78.2054 96.8589C78.2448 97.5611 78.4678 98.3634 78.9986 99.2749C80.4318 101.733 82.1305 102.492 83.764 102.167C82.0987 106.676 81.266 111.608 81.2311 116.518C78.9925 116.85 77.9081 117.551 77.7458 119.647C72.0962 117.053 68.7399 116.4 64.2369 115.969C59.1788 115.487 58.786 113.218 56.3639 114.304C57.7592 114.473 58.3856 115.326 58.246 115.948C57.0115 115.244 55.4523 114.596 54.5317 114.351C53.1849 113.993 53.3775 114.41 53.5838 115.012C52.3705 113.82 50.6718 112.473 49.6738 111.836C48.1329 110.853 48.5015 111.554 48.6016 112.283C47.5672 111.17 45.7957 109.74 44.8099 109.111C43.6967 108.402 43.7422 108.715 43.8362 109.205C42.045 107.729 38.7948 105.857 36.7913 105.625C34.806 105.226 34.9925 105.48 35.4187 105.903C34.1219 105.201 33.1376 105.507 32.3217 105.986C33.5289 105.83 34.4693 105.889 35.763 106.88C33.9445 106.657 33.127 107.523 32.581 108.475C33.3939 107.811 34.0992 107.401 35.2776 107.457Z" fill="#0C0C0C"/>
<path d="M232.32 141.273C232.851 141.095 232.98 140.841 231.663 139.911C230.442 139.051 228.022 137.745 226.003 136.956C226.36 136.788 226.358 136.512 225.378 135.746C224.263 134.873 221.904 133.508 220.067 132.808C220.581 132.566 220.734 132.314 219.466 131.572C218.855 131.217 217.927 130.784 216.909 130.382C218.136 130.043 219.806 130.057 221.966 130.335C220.573 128.753 217.868 127.799 214.789 126.378C211.708 124.96 204.905 120.476 208.624 119.316C203.262 118.964 196.739 113.486 189.931 110.58C186.503 104.609 179.578 106.523 171.006 112.306C163.066 104.268 164.639 101.14 158.361 96.5206C157.891 97.2016 157.162 98.0267 156.66 98.5272C153.945 101.242 150.294 102.134 147.009 102.939C146.234 103.129 145.497 103.309 144.781 103.511C144.625 103.67 144.463 103.829 144.291 103.989C140.973 107.081 139.755 110.099 138.681 112.761C138.008 114.432 137.424 115.875 136.433 117.029C136.33 117.147 136.226 117.261 136.119 117.367C136.006 117.481 135.887 117.587 135.772 117.687C136.552 121.758 138.872 125.898 140.92 129.579C143.918 134.979 146.472 139.724 143.904 142.914L197.767 196.777C202.201 192.325 210.968 182.987 209.984 167.276C209.204 154.805 190.014 132.463 178.953 120.546C183.007 120.187 187.465 118.813 189.573 116.442C193.211 120.623 199.891 124.759 205.402 128.594C211.922 133.131 211.102 142.38 213.638 144.914C212.074 132.98 213.847 140.398 215.696 141.94C214.56 138.071 214.065 135.317 214.32 133.448C215.348 134.32 216.418 135.103 217.156 135.535C218.922 136.567 218.628 135.82 218.499 134.901C219.619 136.508 221.482 138.443 222.588 139.307C224.098 140.49 224.003 139.856 223.987 139.005C225.402 140.725 227.667 142.791 228.979 143.716C230.365 144.694 230.577 144.512 230.552 143.962C232.18 145.359 234.169 146.915 235.126 147.945C236.715 149.39 236.699 148.794 236.683 147.913C237.8 149.627 239.445 151.688 240.454 153.224C241.789 155.258 242.85 156.661 242.853 159.376C243.471 157.858 243.631 156.975 243.73 156.412C245.149 159.535 244.86 161.252 244.032 163.368C245.471 161.95 246.558 159.94 244.687 155.962C247.124 158.194 247.534 159.866 247.62 162.098C248.366 160.233 248.56 157.973 245.316 155.099C245.865 155.065 245.856 155.047 244.864 152.652C244.2 150.599 241.381 147.616 238.99 145.94C239.409 145.834 239.383 145.518 238.135 144.388C236.975 143.184 234.522 141.981 232.32 141.273Z" fill="#0C0C0C"/>
<path d="M204.609 97.9402C203.494 96.3007 200.242 94.3943 197.704 93.5298C198.045 93.3281 197.946 93.0581 196.552 92.3817C195.221 91.6173 192.747 91.188 190.624 91.1259C191.048 90.8331 191.097 90.5738 189.696 90.093C188.399 89.6471 185.927 89.1178 183.944 88.9419C184.216 88.7007 184.145 88.458 183.083 88.0349C181.876 87.5496 179.444 86.952 177.643 86.8064C178.032 86.4621 178.105 86.2012 176.796 85.8752C176.206 85.7265 175.352 85.59 174.423 85.4975C175.271 85.1532 176.191 84.9136 176.73 84.5056C173.255 84.7559 173.223 84.3479 174.681 83.1376C172.418 83.1891 173.548 83.3044 175.721 80.1482C171.629 83.5577 170.545 82.7266 168.047 83.7139C166.212 84.4389 163.662 84.451 162.437 84.407C162.691 83.7063 163.193 83.0435 163.685 82.5703C162.597 83.1664 162.027 83.905 161.429 84.6254C160.36 85.3322 156.032 85.1608 149.413 90.3402C147.957 89.8837 146.293 89.8276 144.704 90.3402C145.818 92.2452 146.63 93.9135 147.058 95.4999C147.61 97.5505 147.481 99.3447 146.619 101.037C150.323 100.132 154.438 98.8806 156.766 95.4226C156.164 95.0343 155.501 94.6339 154.773 94.2168C166.313 92.8958 166.856 90.2143 169.186 90.3554C171.926 90.5222 171.797 92.1117 178.111 96.1779C174.711 92.6713 173.143 90.3706 172.644 88.8099C173.805 89.3347 174.993 89.7684 175.779 89.9641C177.602 90.4206 177.15 89.8382 176.799 89.0602C178.201 90.1901 180.341 91.4186 181.537 91.8978C183.172 92.55 182.927 92.0146 182.693 91.2699C184.384 92.4211 186.911 93.6632 188.308 94.1425C189.782 94.6506 189.922 94.4352 189.756 93.956C191.555 94.7689 193.709 95.6319 194.816 96.2947C196.589 97.1607 196.42 96.6389 196.181 95.8654C197.605 97.0894 199.587 98.4847 200.872 99.5813C202.569 101.031 203.866 101.996 204.567 104.389C204.723 102.894 204.635 102.072 204.579 101.553C206.635 103.942 206.817 105.531 206.634 107.609C207.538 105.988 207.981 103.937 205.311 100.908C208.032 102.251 208.822 103.62 209.471 105.566C209.65 103.728 209.241 101.685 205.64 99.9832C206.112 99.8118 206.098 99.7982 204.609 97.9402Z" fill="#0C0C0C"/>
</svg>
