<svg width="793" height="735" viewBox="0 0 793 735" fill="none" xmlns="http://www.w3.org/2000/svg">
<path d="M361.819 281.99C378.466 266.361 383.517 239.669 374.073 223.895C370.082 217.228 366.141 216.922 362.569 208.54C357.932 197.643 361.968 191.997 359.693 182.014C356.714 168.928 344.323 154.666 332.107 153.966C316.372 153.065 304.392 174.867 293.555 194.581C286.991 206.524 276.971 225.296 277.741 250.426C278.11 262.469 278.438 273.222 286.369 282.537C298.984 297.353 322.12 298.275 336.939 294.843C340.983 293.905 351.994 291.217 361.819 281.99Z" fill="#F3F2F2"/>
<path d="M322.086 297.442C308.502 297.442 294.342 293.358 285.627 283.129C277.489 273.568 277.145 262.341 276.78 250.454C275.989 224.563 286.456 205.522 292.71 194.142C303.538 174.436 315.792 152.115 332.165 153.037C345.247 153.785 357.667 168.803 360.63 181.812C361.616 186.146 361.446 189.679 361.285 193.1C361.065 197.715 360.858 202.077 363.456 208.186C365.429 212.817 367.496 214.878 369.689 217.055C371.383 218.737 373.132 220.479 374.898 223.429C384.781 239.935 379.095 267.061 362.482 282.658L361.815 281.99L362.482 282.658C352.263 292.251 340.896 294.883 337.158 295.744C332.451 296.838 327.312 297.442 322.086 297.442ZM331.178 154.876C316.467 154.876 304.76 176.179 294.404 195.019C288.238 206.234 277.924 225.002 278.703 250.397C279.072 262.457 279.391 272.875 287.111 281.942C298.648 295.49 320.338 297.728 336.719 293.937C340.328 293.104 351.31 290.561 361.152 281.322C377.181 266.272 382.717 240.193 373.244 224.366C371.599 221.614 369.929 219.96 368.321 218.358C366.1 216.149 363.8 213.864 361.686 208.898C358.927 202.407 359.15 197.631 359.374 193.015C359.532 189.72 359.693 186.311 358.761 182.219C355.951 169.885 343.938 155.58 332.057 154.9C331.758 154.884 331.468 154.876 331.178 154.876Z" fill="#0C0C0C"/>
<path d="M327.842 343.022C327.32 343.022 326.889 342.611 326.885 342.104L324.904 201.691C324.896 201.176 325.323 200.753 325.849 200.745C325.853 200.745 325.857 200.745 325.862 200.745C326.384 200.745 326.815 201.156 326.819 201.663L328.8 342.076C328.808 342.591 328.381 343.014 327.855 343.022C327.851 343.022 327.847 343.022 327.842 343.022Z" fill="#0C0C0C"/>
<path d="M651.924 327.505C584.866 332.077 517.853 345.058 449.485 341.42C414.974 339.581 380.923 332.531 346.403 330.845C261.87 326.717 180.416 354.921 104.858 388.976C85.8453 397.547 67.0978 409.003 47.3807 415.836C37.8205 419.152 22.0816 418.295 14.1251 424.753C-8.54675 443.163 15.8365 484.015 24.1287 504.135C35.5868 531.945 50.5881 558.499 69.4682 582.224C167.47 705.359 376.858 781.219 564.129 701.174C726.433 631.804 802.372 474.884 791.212 338.253C744.459 325.196 698.183 324.35 651.924 327.505Z" fill="#F3F2F2"/>
<path d="M5.73761 438.805C5.65887 438.805 5.58013 438.797 5.5014 438.777C4.98754 438.652 4.67674 438.145 4.80521 437.646C6.2266 432.153 9.15641 427.578 13.5118 424.045C18.6876 419.84 26.7808 418.649 34.6089 417.494C39.2128 416.814 43.5599 416.174 47.0616 414.963C59.3941 410.689 71.536 404.497 83.2801 398.509C90.2089 394.976 97.3739 391.322 104.456 388.131C169.732 358.711 256.222 325.513 346.453 329.916C363.995 330.773 381.694 333.046 398.804 335.247C415.401 337.38 432.565 339.589 449.539 340.491C494.991 342.909 540.533 337.895 584.576 333.046C606.63 330.62 629.435 328.109 651.858 326.576C708.009 322.749 751.069 326.077 791.482 337.368C791.991 337.509 792.285 338.028 792.14 338.523C791.995 339.018 791.457 339.3 790.951 339.163C750.763 327.936 707.905 324.624 651.99 328.439C629.609 329.964 606.825 332.475 584.787 334.901C540.662 339.758 495.04 344.78 449.432 342.354C432.383 341.444 415.186 339.235 398.552 337.099C381.474 334.905 363.821 332.632 346.354 331.783C256.553 327.389 170.337 360.498 105.264 389.829C98.2234 393 91.0792 396.642 84.1711 400.167C72.369 406.183 60.1649 412.404 47.7039 416.721C44.0282 417.997 39.5941 418.649 34.8948 419.341C27.3279 420.456 19.5081 421.607 14.7425 425.478C10.7063 428.753 7.98781 433.003 6.66587 438.105C6.55813 438.523 6.16444 438.805 5.73761 438.805Z" fill="#0C0C0C"/>
<path d="M16.7897 485.319C16.3421 485.319 15.9443 485.013 15.849 484.574C15.7412 484.071 16.0769 483.576 16.599 483.476C30.8544 480.651 45.462 478.57 59.593 476.558C79.3475 473.742 99.7774 470.832 119.648 465.842C147.898 458.748 176.218 450.129 203.601 441.795C209.523 439.992 215.445 438.189 221.367 436.403C225.436 435.175 229.489 433.948 233.529 432.725C282.876 417.78 329.483 403.664 378.834 395.402C402.94 391.366 425.682 389.06 448.367 388.356C499.62 386.755 554.055 389.998 624.864 398.851C640.234 400.774 780.579 415.993 787.851 415.993C787.901 415.993 787.942 415.993 787.98 415.989C788.108 415.953 788.249 415.941 788.398 415.961C788.92 416.037 789.285 416.512 789.206 417.019C789.02 418.218 789.024 418.218 764.545 415.772C751.604 414.48 733.32 412.573 711.664 410.263C671.89 406.018 631.523 401.559 624.619 400.698C553.914 391.857 499.578 388.622 448.429 390.219C425.836 390.924 403.176 393.221 379.162 397.241C329.939 405.478 283.386 419.578 234.101 434.503C230.061 435.727 226.004 436.954 221.938 438.185C216.017 439.972 210.095 441.775 204.177 443.578C176.769 451.919 148.424 460.547 120.129 467.653C100.159 472.667 79.679 475.584 59.8707 478.405C45.7687 480.413 31.1818 482.494 16.9803 485.306C16.9181 485.315 16.856 485.319 16.7897 485.319ZM787.312 416.729C787.308 416.729 787.308 416.729 787.312 416.729C787.308 416.729 787.308 416.729 787.312 416.729ZM787.312 416.721C787.312 416.725 787.312 416.725 787.312 416.721C787.312 416.725 787.312 416.725 787.312 416.721ZM787.312 416.717C787.312 416.717 787.312 416.721 787.312 416.717C787.312 416.717 787.312 416.721 787.312 416.717ZM787.317 416.701C787.317 416.701 787.317 416.705 787.317 416.701C787.317 416.701 787.317 416.705 787.317 416.701Z" fill="#0C0C0C"/>
<path d="M484.266 486.848C479.214 478.075 479.84 473.963 481.282 471.83C483.847 468.031 489.591 469.633 492.135 465.508C494.754 461.263 490.01 457.412 491.775 451.972C493.859 445.537 504.215 439.469 510.858 443.115C516.539 446.233 518.035 455.642 514.658 460.503C510.908 465.899 502.641 463.541 500.316 468.567C498.173 473.19 504.062 477.572 502.176 481.842C501.095 484.296 497.32 487.009 484.266 486.848Z" fill="#F3F2F2"/>
<path d="M485.356 487.789C484.995 487.789 484.627 487.789 484.254 487.781C483.91 487.777 483.595 487.596 483.429 487.302C479.173 479.91 478.207 474.683 480.478 471.319C481.925 469.182 484.142 468.551 486.288 467.943C488.302 467.371 490.2 466.832 491.311 465.03C492.45 463.178 491.937 461.432 491.282 459.219C490.644 457.046 489.918 454.583 490.855 451.69C492.115 447.811 496.163 443.972 500.937 442.145C504.771 440.676 508.463 440.733 511.326 442.302C514.024 443.783 516.071 446.7 516.946 450.31C517.895 454.225 517.319 458.33 515.445 461.026C513.365 464.015 510.079 464.844 507.182 465.577C504.485 466.257 502.156 466.844 501.182 468.953C500.258 470.953 501.153 472.989 502.098 475.146C503.096 477.415 504.128 479.765 503.051 482.212C501.401 485.958 495.608 487.789 485.356 487.789ZM484.838 485.922C494.332 485.962 499.984 484.441 501.294 481.476C502.052 479.761 501.219 477.874 500.341 475.878C499.321 473.56 498.165 470.933 499.437 468.188C500.788 465.267 503.797 464.51 506.706 463.774C509.399 463.094 512.188 462.39 513.858 459.983C515.441 457.706 515.91 454.161 515.081 450.736C514.327 447.634 512.615 445.151 510.386 443.928C508.036 442.64 504.932 442.624 501.646 443.883C497.448 445.493 493.768 448.934 492.691 452.253C491.924 454.611 492.537 456.696 493.13 458.708C493.818 461.038 494.527 463.448 492.96 465.987C491.46 468.418 488.998 469.114 486.827 469.734C484.85 470.297 483.143 470.78 482.082 472.345C480.313 474.969 481.237 479.536 484.838 485.922Z" fill="#0C0C0C"/>
<path d="M483.317 491.359C483.213 491.359 483.106 491.342 483.002 491.306C482.501 491.137 482.235 490.606 482.41 490.119C491.713 464.019 503.925 455.553 504.443 455.207C504.878 454.913 505.475 455.018 505.778 455.44C506.08 455.863 505.972 456.442 505.541 456.736C505.421 456.821 493.3 465.275 484.225 490.731C484.088 491.117 483.715 491.359 483.317 491.359Z" fill="#0C0C0C"/>
<path d="M476.43 483.822C476.376 475.629 478.792 470.639 481.009 467.597C485.053 462.048 489.537 461.476 491.079 456.116C492.537 451.05 489.123 449.517 490.267 443.815C491.626 437.023 496.996 436.556 498.381 430.962C500.063 424.158 493.138 420.713 489.657 411.16C485.157 398.799 492.616 393.205 490.913 381.664C488.145 362.929 463.766 345.662 453.339 350.37C443.506 354.808 442.793 380.268 450.737 398.766C459.207 418.484 472.323 418.202 474.229 434.681C475.547 446.068 470.04 452.744 472.874 470.249C473.836 476.176 475.356 480.888 476.43 483.822Z" fill="#0C0C0C"/>
<path d="M479.011 491.733C478.647 491.733 478.299 491.532 478.137 491.19C473.032 480.361 475.091 468.547 477.706 453.593C479.074 445.771 480.623 436.902 481.22 427.148C482.886 400.014 459.518 367.154 459.282 366.824C458.979 366.401 459.087 365.822 459.518 365.528C459.957 365.234 460.55 365.339 460.857 365.757C461.097 366.091 484.842 399.487 483.139 427.26C482.534 437.115 480.976 446.036 479.6 453.907C477.043 468.546 475.021 480.111 479.886 490.417C480.105 490.884 479.894 491.439 479.413 491.652C479.281 491.705 479.144 491.733 479.011 491.733Z" fill="#F3F2F2"/>
<path d="M470.205 485.822C469.07 480.61 467.877 472.929 468.274 463.665C468.921 448.567 473.239 442.141 468.9 436.499C464.118 430.278 456.066 434.443 450.364 427.043C446.477 421.997 448.425 417.735 443.087 412.987C442.068 412.082 438.757 409.217 434.086 408.863C429.752 408.537 428.218 410.673 422.686 412.549C412.662 415.945 408.195 412.142 404.511 415.711C401.249 418.874 400.599 425.876 403.711 429.739C409.57 437.014 425.073 428.544 430.887 435.441C435.856 441.332 427.294 450.768 432.727 457.34C437.625 463.259 447.43 459.05 451.45 465.243C454.52 469.979 450.219 474.643 453.066 479.58C456.041 484.731 464.217 485.717 470.205 485.822Z" fill="#F3F2F2"/>
<path d="M470.205 486.751C470.201 486.751 470.193 486.751 470.189 486.751C460.753 486.59 454.711 484.333 452.233 480.039C450.671 477.331 451.048 474.663 451.379 472.309C451.703 470.019 452.009 467.854 450.637 465.742C448.831 462.957 445.561 462.535 442.101 462.088C438.425 461.613 434.625 461.122 431.981 457.927C428.915 454.221 429.893 449.682 430.755 445.674C431.542 442.02 432.284 438.568 430.145 436.037C427.589 433.003 422.728 433.316 417.581 433.65C412.007 434.009 406.235 434.387 402.952 430.314C399.662 426.23 400.097 418.669 403.831 415.051C405.965 412.983 408.294 413.048 411.249 413.132C414.046 413.213 417.527 413.309 422.371 411.667C424.336 411.003 425.778 410.303 427.05 409.687C429.337 408.581 431.14 407.708 434.157 407.933C436.486 408.106 440.033 409.007 443.734 412.299C446.929 415.14 447.691 417.856 448.429 420.488C448.996 422.504 449.531 424.411 451.131 426.488C453.886 430.065 457.144 430.705 460.596 431.389C463.824 432.025 467.16 432.685 469.667 435.944C472.613 439.779 471.913 443.851 470.856 450.016C470.239 453.605 469.472 458.072 469.232 463.71C468.921 471.001 469.563 478.377 471.142 485.632C471.2 485.91 471.13 486.2 470.943 486.417C470.765 486.626 470.491 486.751 470.205 486.751ZM422.201 431.582C425.935 431.582 429.383 432.186 431.633 434.854C434.352 438.077 433.477 442.133 432.636 446.056C431.786 450.008 430.982 453.742 433.481 456.76C435.644 459.376 438.906 459.798 442.362 460.245C446.108 460.732 449.983 461.231 452.266 464.752C454.011 467.44 453.642 470.043 453.286 472.566C452.966 474.832 452.664 476.969 453.911 479.134C455.934 482.635 461.014 484.562 469.024 484.86C467.591 477.826 467.015 470.687 467.317 463.629C467.562 457.879 468.341 453.348 468.966 449.71C469.978 443.815 470.591 440.254 468.133 437.059C466.066 434.367 463.355 433.831 460.218 433.216C456.737 432.528 452.792 431.751 449.597 427.606C447.778 425.244 447.169 423.079 446.58 420.983C445.884 418.5 445.225 416.158 442.441 413.679C439.797 411.325 436.958 410.017 434.012 409.796C431.517 409.607 430.083 410.307 427.908 411.361C426.582 412.001 425.081 412.73 423.005 413.434C417.825 415.188 413.992 415.08 411.195 414.999C408.423 414.923 406.74 414.874 405.19 416.375C402.124 419.349 401.759 425.804 404.469 429.172C407.125 432.467 412.144 432.145 417.456 431.795C419.044 431.687 420.647 431.582 422.201 431.582Z" fill="#0C0C0C"/>
<path d="M473.935 491.507C473.732 491.507 473.525 491.443 473.351 491.314C468.167 487.423 466.393 481.025 463.712 471.339C461.702 464.084 459.203 455.054 454.371 444.004C443.622 419.405 414.241 422.21 413.942 422.242C413.42 422.291 412.944 421.928 412.886 421.417C412.828 420.906 413.209 420.448 413.735 420.391C414.046 420.355 444.823 417.393 456.141 443.28C461.027 454.45 463.542 463.549 465.568 470.86C468.15 480.18 469.853 486.337 474.528 489.846C474.946 490.159 475.025 490.747 474.702 491.153C474.507 491.383 474.221 491.507 473.935 491.507Z" fill="#0C0C0C"/>
<path d="M487.54 499.745L468.448 499.881L466.264 494.175C465.498 492.175 468.034 490.188 472.393 489.475C478.266 488.518 483.972 488.711 489.512 490.015C492.111 490.626 493.611 491.858 493.433 493.141L492.815 495.552C492.185 498.01 490.022 499.729 487.54 499.745Z" fill="#0C0C0C"/>
<path d="M601.417 604.022C613.066 583.351 611.615 573.661 608.296 568.635C602.378 559.682 589.146 563.457 583.283 553.735C577.249 543.735 588.185 534.653 584.116 521.836C579.309 506.678 555.447 492.377 540.131 500.968C527.032 508.312 523.588 530.488 531.375 541.94C540.019 554.652 559.069 549.099 564.432 560.946C569.367 571.843 555.796 582.16 560.139 592.224C562.641 598.003 571.34 604.397 601.417 604.022Z" fill="#F3F2F2"/>
<path d="M598.864 604.972C575.819 604.972 562.857 600.916 559.26 592.59C556.989 587.331 559.26 582.051 561.452 576.949C563.752 571.601 565.924 566.551 563.557 561.328C561.063 555.819 555.427 554.362 548.9 552.676C542.435 551.006 535.105 549.115 530.579 542.459C526.415 536.339 525.184 526.979 527.355 518.026C529.315 509.957 533.799 503.451 539.655 500.163C545.829 496.702 553.835 496.55 562.202 499.741C573.026 503.869 582.201 512.637 585.036 521.567C587.079 528.013 585.467 533.619 584.041 538.564C582.516 543.86 581.198 548.435 584.112 553.268C586.929 557.936 591.538 559.276 596.415 560.692C601.143 562.064 606.033 563.485 609.104 568.136C613.986 575.52 611.682 587.745 602.258 604.473C602.092 604.767 601.777 604.952 601.429 604.96C600.563 604.964 599.705 604.972 598.864 604.972ZM601.417 604.023H601.425H601.417ZM550.607 499.318C546.932 499.318 543.538 500.139 540.616 501.781C535.217 504.807 531.064 510.887 529.228 518.456C527.169 526.923 528.304 535.727 532.183 541.433C536.306 547.497 542.962 549.212 549.397 550.874C556.111 552.608 562.451 554.242 565.319 560.575C568.016 566.531 565.584 572.193 563.226 577.665C561.087 582.635 559.069 587.327 561.03 591.866C564.345 599.544 577.726 603.302 600.845 603.097C609.684 587.263 611.918 575.842 607.488 569.142C604.798 565.07 600.46 563.811 595.864 562.479C590.846 561.022 585.653 559.513 582.454 554.213C579.13 548.701 580.618 543.534 582.193 538.065C583.61 533.14 585.081 528.045 583.2 522.118C580.573 513.837 571.651 505.346 561.502 501.479C557.727 500.034 554.043 499.318 550.607 499.318Z" fill="#0C0C0C"/>
<path d="M603.609 613.386C603.207 613.386 602.834 613.141 602.702 612.755C581.617 552.29 553.388 532.234 553.106 532.037C552.675 531.739 552.572 531.156 552.878 530.737C553.185 530.319 553.782 530.218 554.217 530.516C554.503 530.713 583.212 551.047 604.521 612.155C604.691 612.642 604.421 613.173 603.92 613.338C603.816 613.37 603.713 613.386 603.609 613.386Z" fill="#0C0C0C"/>
<path d="M617.268 601.057C617.359 586.921 613.194 578.313 609.365 573.066C602.382 563.493 594.65 562.507 591.989 553.26C589.474 544.524 595.363 541.876 593.39 532.037C591.04 520.319 581.778 519.514 579.392 509.865C576.487 498.123 588.438 492.183 594.438 475.697C602.2 454.37 589.333 444.72 592.275 424.806C597.049 392.481 639.111 362.691 657.1 370.812C674.061 378.469 675.296 422.399 661.588 454.31C646.976 488.328 648.605 494.397 645.314 522.83C643.039 542.479 637.623 547.606 632.733 577.806C631.076 588.031 619.12 595.995 617.268 601.057Z" fill="#F3F2F2"/>
<path d="M617.268 601.986C617.214 601.986 617.156 601.982 617.102 601.974C616.642 601.894 616.306 601.504 616.306 601.049C616.381 589.967 613.778 580.732 608.582 573.601C605.677 569.617 602.586 567.114 599.859 564.909C596.001 561.787 592.673 559.091 591.065 553.505C589.718 548.833 590.672 545.715 591.592 542.701C592.47 539.828 593.378 536.858 592.445 532.21C591.252 526.259 588.16 523.221 585.168 520.283C582.45 517.611 579.636 514.851 578.455 510.078C576.652 502.787 580.171 497.745 584.625 491.355C587.659 487.009 591.094 482.079 593.531 475.383C597.795 463.673 595.715 455.65 593.518 447.155C591.79 440.483 590.004 433.586 591.322 424.673C594.583 402.593 614.197 383 631.042 374.135C641.676 368.542 651.07 367.057 657.502 369.963C675.831 378.236 675.549 424.222 662.475 454.668C650.345 482.908 649.483 491.512 647.598 510.368C647.229 514.042 646.814 518.203 646.267 522.931C645.161 532.488 643.309 538.673 641.162 545.831C638.837 553.586 636.202 562.378 633.682 577.951C632.605 584.607 627.425 590.248 623.264 594.783C620.873 597.391 618.805 599.64 618.171 601.371C618.034 601.745 617.67 601.986 617.268 601.986ZM650.175 370.401C645.008 370.401 638.692 372.232 631.958 375.777C615.523 384.425 596.394 403.495 593.228 424.938C591.964 433.489 593.705 440.205 595.387 446.704C597.559 455.094 599.805 463.766 595.346 476.007C592.826 482.928 589.316 487.962 586.221 492.401C581.87 498.642 578.724 503.153 580.328 509.644C581.381 513.909 583.888 516.372 586.54 518.975C589.731 522.11 593.029 525.349 594.335 531.856C595.354 536.951 594.335 540.286 593.436 543.232C592.516 546.246 591.72 548.849 592.918 553.006C594.364 558.032 597.335 560.435 601.094 563.481C603.912 565.762 607.103 568.346 610.153 572.527C615.055 579.251 617.748 587.717 618.171 597.737C619.17 596.445 620.45 595.049 621.834 593.544C625.829 589.194 630.798 583.782 631.788 577.665C634.329 561.976 636.981 553.123 639.322 545.316C641.444 538.242 643.275 532.13 644.361 522.73C644.908 518.014 645.323 513.857 645.687 510.195C647.536 491.725 648.464 482.453 660.701 453.955C667.191 438.845 670.626 419.985 669.884 403.507C669.13 386.71 664.323 375.101 656.69 371.657C654.833 370.812 652.633 370.401 650.175 370.401Z" fill="#0C0C0C"/>
<path d="M612.813 614.03C612.68 614.03 612.544 614.002 612.415 613.946C611.934 613.732 611.719 613.177 611.943 612.71C620.417 594.739 616.92 574.7 612.486 549.328C610.115 535.763 607.43 520.392 606.39 503.423C603.464 455.738 644.295 398.316 644.709 397.74C645.012 397.318 645.609 397.213 646.048 397.511C646.483 397.805 646.586 398.388 646.284 398.807C645.874 399.374 605.42 456.281 608.304 503.31C609.34 520.178 612.017 535.498 614.375 549.014C618.863 574.704 622.406 594.993 613.683 613.487C613.526 613.829 613.178 614.03 612.813 614.03Z" fill="#0C0C0C"/>
<path d="M626.65 604.501C628.195 595.508 629.82 582.257 629.281 566.277C628.398 540.226 622.514 529.14 628.428 519.406C634.942 508.674 645.911 515.861 653.681 503.093C658.977 494.389 656.321 487.033 663.598 478.84C664.986 477.279 669.495 472.333 675.864 471.725C681.773 471.162 683.858 474.852 691.396 478.083C705.05 483.942 711.142 477.379 716.16 483.544C720.607 489 721.489 501.085 717.25 507.748C709.265 520.303 688.143 505.684 680.219 517.587C673.452 527.756 685.117 544.033 677.712 555.364C671.04 565.573 657.68 558.314 652.202 569.002C648.016 577.174 653.876 585.222 649.997 593.737C645.948 602.626 634.809 604.328 626.65 604.501Z" fill="#0C0C0C"/>
<path d="M621.565 613.644C621.316 613.644 621.068 613.551 620.877 613.362C620.508 612.996 620.512 612.404 620.894 612.046C627.4 605.861 629.745 595.138 633.297 578.913C636.048 566.326 639.475 550.66 646.114 531.438C661.405 487.141 703.165 492.236 703.587 492.292C704.114 492.365 704.478 492.831 704.404 493.342C704.329 493.853 703.836 494.208 703.322 494.139C703.218 494.127 693.037 492.831 681.181 496.851C665.322 502.235 654.133 514.07 647.933 532.029C641.332 551.151 637.917 566.76 635.174 579.303C631.552 595.862 629.161 606.803 622.236 613.382C622.05 613.555 621.81 613.644 621.565 613.644Z" fill="#F3F2F2"/>
<path d="M629.778 629.784L602.847 629.981C597.033 630.026 591.815 626.517 589.81 621.213L588.964 618.976C587.497 615.093 592.362 611.23 600.725 609.849C611.992 607.99 622.937 608.364 633.566 610.896C638.551 612.083 641.431 614.477 641.087 616.968L639.898 621.644C638.684 626.416 634.536 629.752 629.778 629.784Z" fill="#0C0C0C"/>
<path d="M320.968 657.542C330.292 640.991 329.135 633.233 326.475 629.209C321.738 622.042 311.142 625.064 306.447 617.278C301.619 609.27 310.371 601.998 307.114 591.737C303.264 579.601 284.161 568.149 271.898 575.026C261.41 580.905 258.65 598.663 264.887 607.833C271.807 618.01 287.061 613.563 291.355 623.052C295.308 631.776 284.438 640.041 287.919 648.097C289.917 652.721 296.883 657.839 320.968 657.542Z" fill="#F3F2F2"/>
<path d="M318.929 658.487C300.388 658.487 289.95 655.2 287.036 648.46C285.188 644.174 287.02 639.913 288.794 635.792C290.617 631.547 292.341 627.539 290.48 623.43C288.52 619.1 284.049 617.946 278.869 616.61C273.66 615.266 267.75 613.74 264.087 608.352C260.726 603.411 259.728 595.862 261.48 588.647C263.063 582.14 266.685 576.881 271.418 574.229C276.415 571.428 282.884 571.303 289.639 573.879C298.358 577.203 305.751 584.273 308.034 591.472C309.688 596.687 308.386 601.202 307.238 605.185C306.028 609.387 304.984 613.012 307.276 616.815C309.493 620.489 313.148 621.551 317.018 622.674C320.835 623.78 324.784 624.927 327.287 628.71C331.236 634.685 329.396 644.536 321.813 657.992C321.647 658.286 321.328 658.471 320.984 658.475C320.284 658.479 319.6 658.487 318.929 658.487ZM320.968 657.542H320.976H320.968ZM280.282 573.891C277.373 573.891 274.687 574.539 272.379 575.838C268.103 578.237 264.812 583.061 263.349 589.069C261.712 595.801 262.612 602.795 265.691 607.322C268.952 612.119 274.244 613.483 279.362 614.807C284.782 616.207 289.904 617.527 292.237 622.678C294.429 627.519 292.465 632.09 290.563 636.508C288.868 640.448 287.269 644.17 288.806 647.735C291.421 653.791 302.046 656.769 320.392 656.612C327.387 644.049 329.16 634.999 325.667 629.708C323.553 626.509 320.11 625.507 316.467 624.448C312.41 623.273 308.221 622.054 305.618 617.744C302.912 613.262 304.114 609.089 305.39 604.67C306.517 600.751 307.686 596.699 306.198 592.007C304.11 585.424 297.011 578.679 288.939 575.601C285.938 574.462 283.013 573.891 280.282 573.891Z" fill="#0C0C0C"/>
<path d="M322.72 665.224C322.318 665.224 321.946 664.978 321.813 664.592C304.93 616.175 282.399 600.212 282.171 600.055C281.74 599.757 281.637 599.174 281.944 598.755C282.25 598.337 282.847 598.236 283.282 598.534C284.223 599.182 306.546 615.004 323.628 663.992C323.798 664.479 323.529 665.01 323.027 665.175C322.928 665.207 322.824 665.224 322.72 665.224Z" fill="#0C0C0C"/>
<path d="M333.656 655.168C333.731 643.848 330.395 636.959 327.329 632.754C321.738 625.088 315.547 624.299 313.417 616.895C311.403 609.898 316.115 607.781 314.536 599.902C312.655 590.522 305.241 589.874 303.331 582.148C301.006 572.748 310.574 567.992 315.377 554.793C321.593 537.719 311.287 529.989 313.645 514.046C317.47 488.164 351.144 464.313 365.549 470.812C379.133 476.945 380.119 512.114 369.142 537.667C357.443 564.905 358.744 569.762 356.109 592.53C354.289 608.264 349.951 612.368 346.035 636.548C344.713 644.737 335.14 651.111 333.656 655.168Z" fill="#F3F2F2"/>
<path d="M333.656 656.097C333.603 656.097 333.545 656.093 333.491 656.085C333.031 656.005 332.695 655.614 332.695 655.159C332.753 646.327 330.685 638.967 326.545 633.293C324.233 630.122 321.772 628.13 319.596 626.368C316.484 623.849 313.794 621.672 312.493 617.145C311.399 613.35 312.17 610.827 312.916 608.389C313.612 606.111 314.333 603.753 313.595 600.079C312.651 595.367 310.305 593.065 307.823 590.623C305.626 588.466 303.356 586.236 302.398 582.365C300.935 576.45 303.915 572.173 307.367 567.227C309.787 563.754 312.53 559.823 314.474 554.483C317.868 545.159 316.21 538.761 314.457 531.989C313.069 526.629 311.635 521.088 312.696 513.917C315.315 496.175 331.066 480.433 344.593 473.319C353.162 468.808 360.746 467.621 365.951 469.971C380.716 476.635 380.529 513.583 370.028 538.033C360.327 560.616 359.639 567.497 358.131 582.575C357.837 585.516 357.501 588.848 357.066 592.639C356.179 600.308 354.691 605.266 352.972 611.004C351.111 617.209 349.002 624.239 346.988 636.697C346.118 642.081 341.949 646.621 338.6 650.266C336.698 652.339 335.053 654.129 334.56 655.477C334.423 655.856 334.058 656.097 333.656 656.097ZM360.004 470.667C355.902 470.667 350.879 472.128 345.508 474.953C332.393 481.854 317.122 497.073 314.594 514.179C313.587 520.987 314.975 526.351 316.318 531.534C318.063 538.278 319.869 545.252 316.281 555.103C314.254 560.668 311.436 564.708 308.95 568.273C305.494 573.231 302.995 576.812 304.259 581.931C305.092 585.295 307.077 587.246 309.182 589.315C311.635 591.725 314.42 594.457 315.477 599.725C316.301 603.849 315.481 606.546 314.752 608.924C314.022 611.31 313.392 613.37 314.337 616.646C315.481 620.613 317.839 622.521 320.823 624.939C323.085 626.77 325.654 628.851 328.108 632.219C331.97 637.518 334.129 644.158 334.539 651.997C335.289 651.071 336.193 650.085 337.162 649.031C340.345 645.566 344.302 641.253 345.086 636.412C347.12 623.837 349.246 616.746 351.123 610.489C352.818 604.831 354.285 599.946 355.151 592.437C355.587 588.659 355.922 585.335 356.216 582.398C357.7 567.589 358.442 560.161 368.251 537.317C379.269 511.668 377.637 477.307 365.138 471.665C363.676 470.993 361.943 470.667 360.004 470.667Z" fill="#0C0C0C"/>
<path d="M330.088 665.739C329.956 665.739 329.819 665.71 329.691 665.654C329.21 665.441 328.999 664.885 329.218 664.419C335.981 650.081 333.18 634.062 329.637 613.777C327.739 602.912 325.588 590.598 324.755 577.001C322.41 538.761 355.139 492.727 355.47 492.268C355.773 491.849 356.374 491.745 356.809 492.039C357.244 492.332 357.352 492.916 357.045 493.334C356.718 493.789 324.366 539.3 326.67 576.893C327.498 590.389 329.641 602.65 331.531 613.467C335.128 634.07 337.97 650.339 330.963 665.195C330.801 665.537 330.453 665.739 330.088 665.739Z" fill="#0C0C0C"/>
<path d="M341.17 657.924C342.409 650.721 343.71 640.114 343.275 627.317C342.57 606.461 337.859 597.58 342.591 589.786C347.808 581.194 356.589 586.945 362.81 576.724C367.049 569.754 364.923 563.863 370.749 557.308C371.86 556.056 375.474 552.097 380.571 551.61C385.299 551.159 386.973 554.113 393.007 556.7C403.943 561.392 408.816 556.137 412.836 561.07C416.396 565.436 417.104 575.114 413.71 580.45C407.316 590.502 390.404 578.796 384.06 588.329C378.64 596.469 387.98 609.503 382.05 618.577C376.709 626.754 366.009 620.939 361.624 629.494C358.272 636.037 362.967 642.48 359.859 649.301C356.623 656.423 347.701 657.787 341.17 657.924Z" fill="#F3F2F2"/>
<path d="M341.17 658.858C340.892 658.858 340.627 658.741 340.444 658.536C340.258 658.326 340.175 658.045 340.225 657.771C341.957 647.703 342.661 637.466 342.317 627.35C342.052 619.527 341.215 613.342 340.54 608.368C339.404 599.986 338.65 594.445 341.766 589.315C344.464 584.872 348.102 583.963 351.617 583.086C355.384 582.144 358.943 581.255 361.985 576.253C363.771 573.319 364.393 570.519 364.993 567.815C365.785 564.245 366.601 560.555 370.024 556.704C374.044 552.173 377.931 550.93 380.48 550.688C383.811 550.37 385.788 551.586 388.295 553.119C389.683 553.972 391.258 554.938 393.396 555.855C398.659 558.117 402.443 557.976 405.48 557.871C408.588 557.755 411.278 557.662 413.59 560.503C417.543 565.352 418.008 575.48 414.527 580.949C410.979 586.526 404.664 586.007 398.564 585.504C392.97 585.045 387.686 584.611 384.868 588.844C382.423 592.518 383.252 597.403 384.13 602.582C385.096 608.268 386.095 614.143 382.862 619.088C380.011 623.454 375.673 624.163 371.848 624.79C367.907 625.438 364.5 625.994 362.486 629.925C360.912 632.995 361.256 636.078 361.62 639.341C361.993 642.665 362.374 646.101 360.738 649.695C358.065 655.558 351.488 658.644 341.186 658.866C341.182 658.858 341.174 658.858 341.17 658.858ZM381.499 552.499C381.234 552.499 380.956 552.511 380.662 552.539C378.461 552.749 375.08 553.851 371.475 557.916C368.371 561.408 367.641 564.708 366.866 568.201C366.232 571.054 365.582 574.003 363.634 577.199C360.186 582.864 355.885 583.939 352.089 584.888C348.666 585.745 345.707 586.482 343.411 590.26C340.631 594.84 341.31 599.838 342.433 608.123C343.113 613.137 343.958 619.374 344.228 627.285C344.563 637.148 343.913 647.124 342.297 656.954C351.119 656.56 356.73 653.864 358.976 648.93C360.406 645.796 360.066 642.754 359.706 639.53C359.329 636.146 358.935 632.641 360.758 629.084C363.207 624.303 367.434 623.611 371.52 622.943C375.283 622.328 378.839 621.744 381.234 618.082C384.072 613.74 383.136 608.22 382.228 602.88C381.329 597.584 380.401 592.103 383.248 587.826C386.691 582.651 392.808 583.15 398.721 583.641C404.502 584.12 409.96 584.566 412.89 579.963C415.956 575.146 415.546 565.907 412.082 561.65C410.374 559.553 408.555 559.622 405.547 559.726C402.48 559.839 398.286 559.984 392.613 557.553C390.346 556.58 388.705 555.574 387.263 554.688C385.158 553.401 383.687 552.499 381.499 552.499Z" fill="#0C0C0C"/>
<path d="M337.1 665.429C336.852 665.429 336.603 665.336 336.416 665.147C336.043 664.781 336.052 664.189 336.429 663.831C341.596 658.918 343.469 650.355 346.304 637.394C348.509 627.309 351.256 614.759 356.573 599.359C368.868 563.742 402.459 567.843 402.799 567.891C403.325 567.963 403.69 568.43 403.616 568.941C403.541 569.452 403.048 569.81 402.534 569.738C401.216 569.561 370.173 565.831 358.392 599.95C353.108 615.249 350.378 627.744 348.181 637.78C345.272 651.071 343.353 659.851 337.772 665.163C337.585 665.34 337.341 665.429 337.1 665.429Z" fill="#0C0C0C"/>
<path d="M345.836 684.716L312.924 684.941C311.233 684.953 309.712 683.951 309.095 682.422L306.037 674.833C304.607 671.28 309.348 667.751 317.507 666.491C328.497 664.793 339.168 665.135 349.532 667.445C354.393 668.527 357.203 670.716 356.867 672.998L355.707 677.275C354.522 681.637 350.477 684.688 345.836 684.716Z" fill="#0C0C0C"/>
<path d="M97.1584 731.406C89.5666 732.066 77.1595 733.571 62.7508 730.907C58.039 730.038 55.1258 725.406 56.5016 720.944C60.3514 708.494 67.0937 684.849 77.118 674.225L100.101 673.976L101.323 701.572C101.559 706.952 102.189 711.105 103.209 716.397L104.468 722.952C104.825 727.237 101.572 731.02 97.1584 731.406Z" fill="#F3F2F2"/>
<path d="M80.0644 733.358C74.7684 733.358 68.859 732.98 62.5726 731.821C60.053 731.354 57.8484 729.869 56.5182 727.74C55.1921 725.62 54.8523 723.044 55.5858 720.674L56.4146 717.982C60.3472 705.142 66.9279 683.649 76.4135 673.597C76.5917 673.408 76.8445 673.3 77.1097 673.296L100.092 673.046C100.097 673.046 100.101 673.046 100.105 673.046C100.619 673.046 101.041 673.441 101.062 673.94L102.285 701.536C102.521 706.928 103.151 711.005 104.153 716.228L105.413 722.783C105.417 722.815 105.426 722.847 105.426 722.879C105.824 727.664 102.156 731.905 97.2496 732.336L95.2273 732.517C91.1579 732.887 85.9945 733.358 80.0644 733.358ZM77.5531 675.155C68.5109 685.022 62.1002 705.958 58.2545 718.513L57.4257 721.214C56.8497 723.081 57.1149 725.109 58.1592 726.779C59.2076 728.457 60.9481 729.628 62.9331 729.994C75.9909 732.408 87.4573 731.358 95.045 730.662L97.0755 730.481C100.921 730.147 103.801 726.831 103.515 723.077L102.264 716.574C101.244 711.27 100.606 707.121 100.366 701.621L99.1848 674.925L77.5531 675.155ZM97.1626 731.406H97.1708H97.1626Z" fill="#0C0C0C"/>
<path d="M84.4156 723.286C79.5298 723.286 73.0155 722.67 65.1501 720.521C64.6404 720.38 64.3421 719.865 64.4871 719.371C64.6321 718.876 65.1626 718.59 65.6723 718.727C83.1268 723.499 93.9302 720.425 94.0338 720.397C94.5394 720.244 95.0781 720.521 95.2314 721.016C95.3848 721.507 95.103 722.026 94.5974 722.179C94.3405 722.252 90.7435 723.286 84.4156 723.286Z" fill="#0C0C0C"/>
<path d="M156.579 707.677C156.339 711.258 158.697 714.53 162.248 715.515C174.61 718.956 202.457 726.63 210.435 728.183C220.786 730.203 233.77 727.728 239.588 722.071C245.406 716.417 228.287 701.395 220.082 695.834C207.89 687.573 196.585 671.867 191.55 670.942C188.331 670.35 176.81 672.893 168.916 674.809C164.067 675.984 160.375 679.798 159.484 684.575C158.456 690.068 157.222 698.12 156.579 707.677Z" fill="#F3F2F2"/>
<path d="M217.948 729.817C215.337 729.817 212.735 729.587 210.244 729.1C202.188 727.527 173.81 719.704 161.983 716.413C158.025 715.31 155.348 711.612 155.618 707.616C156.277 697.806 157.57 689.581 158.535 684.41C159.492 679.291 163.475 675.171 168.68 673.907C181.311 670.845 189.064 669.537 191.724 670.032C194.551 670.555 198.662 674.74 203.862 680.04C208.91 685.183 214.628 691.009 220.629 695.078C227.21 699.54 241.021 711.161 241.701 718.614C241.854 720.276 241.37 721.664 240.263 722.739C235.73 727.145 226.82 729.817 217.948 729.817ZM190.34 671.787C187.15 671.787 179.612 673.179 169.152 675.714C164.677 676.801 161.254 680.342 160.429 684.74C159.472 689.862 158.191 698.011 157.536 707.737C157.325 710.864 159.418 713.761 162.513 714.622C174.316 717.906 202.636 725.712 210.621 727.274C221.014 729.302 233.442 726.73 238.904 721.419C239.6 720.743 239.886 719.882 239.787 718.775C239.206 712.417 226.306 701.198 219.531 696.607C213.373 692.434 207.584 686.531 202.474 681.328C197.903 676.672 193.589 672.274 191.368 671.863C191.107 671.811 190.759 671.787 190.34 671.787ZM156.579 707.677H156.587H156.579Z" fill="#0C0C0C"/>
<path d="M216.22 716.88C197.771 716.88 170.035 707.041 168.572 706.518C168.075 706.341 167.822 705.801 168.004 705.323C168.187 704.84 168.742 704.59 169.235 704.771C169.678 704.932 213.733 720.566 227.11 712.956C227.566 712.699 228.154 712.843 228.424 713.29C228.693 713.733 228.54 714.304 228.08 714.566C225.167 716.216 221.006 716.88 216.22 716.88Z" fill="#0C0C0C"/>
<path d="M84.6062 397.072C84.6062 397.072 71.7143 515.197 66.0618 555.916C60.4094 596.634 70.8854 674.016 70.8854 674.016L104.555 673.948C104.555 673.948 107.203 604.027 110.854 573.424C111.749 565.919 113.888 558.616 117.132 551.755C122.234 540.966 130.228 522.384 133.887 504.98C137.326 488.618 144.893 466.567 150.214 452C151.341 448.909 156.049 449.698 156.057 452.978C156.215 502.984 160.972 659.365 161.187 673.211C161.187 673.211 186.221 678.048 195.964 672.744C195.964 672.744 213.659 586.265 213.439 544.182C213.215 502.095 221.271 397.953 221.271 397.953L84.6062 397.072Z" fill="#0C0C0C"/>
<path d="M96.2799 562.507C93.089 562.507 89.9188 561.626 87.2004 559.907C86.757 559.626 86.6285 559.05 86.9186 558.62C87.2086 558.189 87.8012 558.064 88.2446 558.346C92.082 560.769 96.9429 561.312 101.249 559.807C101.746 559.63 102.297 559.883 102.475 560.366C102.653 560.849 102.396 561.384 101.899 561.557C100.08 562.193 98.1778 562.507 96.2799 562.507Z" fill="#F3F2F2"/>
<path d="M89.7614 441.763C89.2765 441.763 88.858 441.409 88.8082 440.926C88.7544 440.415 89.1356 439.956 89.6619 439.904C95.1113 439.348 101.588 435.602 103.432 426.741C103.536 426.234 104.042 425.908 104.564 426.013C105.082 426.113 105.417 426.604 105.314 427.111C103.267 436.962 95.9898 441.139 89.8608 441.759C89.8277 441.759 89.7945 441.763 89.7614 441.763Z" fill="#F3F2F2"/>
<path d="M176.288 626.718C176.267 626.718 176.242 626.718 176.222 626.718C175.691 626.682 175.294 626.239 175.331 625.724C176.715 606.208 200.626 572.245 201.645 570.808C201.948 570.386 202.544 570.277 202.98 570.567C203.415 570.861 203.527 571.44 203.224 571.863C202.98 572.209 178.592 606.843 177.245 625.849C177.208 626.344 176.785 626.718 176.288 626.718Z" fill="#F3F2F2"/>
<path d="M150.728 379.52L50.5343 387.946C43.0295 388.578 36.4198 383.181 35.7692 375.894L16.6281 161.33C15.016 143.242 28.8073 127.311 47.4304 125.746L107.353 120.704C125.98 119.139 142.386 132.53 143.998 150.614L163.139 365.178C163.79 372.465 158.233 378.888 150.728 379.52Z" fill="#0C0C0C"/>
<path d="M49.7925 342.133C49.2994 342.133 48.8808 341.766 48.8352 341.279L34.7746 181.004C33.6309 168.175 36.0883 158.711 42.2836 152.067C49.3159 144.526 60.9937 140.76 77.9841 140.55C78.5477 140.546 78.9497 140.957 78.958 141.472C78.9663 141.987 78.5394 142.409 78.009 142.417C61.578 142.619 50.3561 146.184 43.705 153.318C37.8868 159.56 35.591 168.561 36.685 180.847L50.7456 341.123C50.7912 341.638 50.3975 342.088 49.8712 342.129C49.8464 342.129 49.8174 342.133 49.7925 342.133Z" fill="#F3F2F2"/>
<path d="M227.752 390.409L237.557 400.646C237.557 400.646 263.333 398.706 267.357 405.704C268.078 406.959 268.024 408.959 267.568 409.873C265.131 414.734 256.557 420.484 259.645 423.792C264.46 428.954 269.785 434.616 270.821 435.554C273.32 437.811 272.901 440.58 269.744 441.835C265.227 443.63 257.403 445.449 250.491 442.254C238.129 436.544 228.776 418.154 224.155 411.909C223.517 411.048 216.957 406.609 216.957 406.609L227.752 390.409Z" fill="#F3F2F2"/>
<path d="M258.903 444.938C256.06 444.938 253.014 444.455 250.072 443.099C240.093 438.491 232.166 426.049 226.919 417.82C225.531 415.643 224.334 413.764 223.368 412.456C222.962 411.953 219.502 409.478 216.402 407.378C215.979 407.092 215.863 406.529 216.145 406.106L226.949 389.901C227.11 389.66 227.375 389.503 227.67 389.479C227.964 389.451 228.254 389.563 228.457 389.773L237.947 399.684C242.203 399.394 264.174 398.255 268.198 405.249C269.081 406.782 269.031 409.088 268.434 410.279C267.502 412.142 265.774 414.066 264.099 415.929C261.572 418.745 258.957 421.663 260.357 423.164C268.509 431.904 270.904 434.355 271.476 434.87C272.959 436.214 273.622 437.783 273.336 439.296C273.059 440.773 271.911 441.98 270.108 442.696C267.974 443.545 263.735 444.938 258.903 444.938ZM218.259 406.364C220.318 407.768 224.334 410.565 224.926 411.365C225.933 412.726 227.147 414.629 228.552 416.834C233.678 424.878 241.428 437.039 250.897 441.409C258.149 444.757 266.234 442.217 269.375 440.97C270.552 440.503 271.285 439.787 271.443 438.958C271.604 438.093 271.153 437.123 270.162 436.23C269.292 435.441 265.513 431.465 258.932 424.411C256.387 421.683 259.57 418.134 262.649 414.701C264.236 412.931 265.881 411.1 266.702 409.462C267.025 408.818 267.087 407.148 266.515 406.154C263.461 400.843 244.627 401.048 237.628 401.571C237.337 401.599 237.052 401.487 236.853 401.277L227.889 391.918L218.259 406.364Z" fill="#0C0C0C"/>
<path d="M241.859 223.501C241.825 218.266 241.021 211.819 238.51 204.657C234.113 192.122 230.26 182.283 224.462 178.553C195.156 159.7 143.236 159.129 102.189 173.712C59.5558 188.858 64.2343 258.534 64.2343 258.534L89.2061 256.586L76.3887 414.412C148.938 431.196 224.889 419.836 224.889 419.836C225.668 416.613 226.356 412.545 226.965 407.853L236.127 396.127C238.651 355.677 245.153 258.381 241.859 223.501Z" fill="#F3F2F2"/>
<path d="M164.561 424.476C138.466 424.476 106.922 422.431 76.1608 415.313C75.7008 415.208 75.39 414.79 75.4273 414.335L88.1576 257.596L64.3089 259.459C64.0437 259.48 63.7992 259.399 63.6044 259.234C63.4097 259.069 63.2895 258.84 63.2729 258.59C63.2605 258.413 62.1416 240.824 66.2815 221.61C71.7971 196.009 84.0965 179.144 101.858 172.835C144.955 157.523 196.743 159.604 224.993 177.776C231.097 181.704 234.98 191.699 239.418 204.355C241.627 210.652 242.77 217.079 242.82 223.453C245.911 256.289 240.292 345.308 237.59 388.095L237.081 396.175C237.068 396.36 237.002 396.537 236.886 396.682L227.881 408.211C227.255 412.991 226.559 416.975 225.817 420.045C225.726 420.415 225.415 420.693 225.03 420.753C224.595 420.822 199.453 424.476 164.561 424.476ZM77.404 413.687C145.187 429.168 216.584 420.037 224.093 419.003C224.777 416.029 225.419 412.243 226.008 407.732C226.029 407.571 226.095 407.414 226.194 407.285L235.183 395.785L235.676 387.982C238.374 345.223 243.993 256.248 240.905 223.585C240.901 223.557 240.901 223.533 240.901 223.505C240.86 217.32 239.753 211.079 237.603 204.954C233.43 193.063 229.522 182.923 223.932 179.33C196.15 161.455 145.088 159.463 102.517 174.585C63.708 188.371 64.8021 249.178 65.1419 257.524L89.1232 255.653C89.405 255.633 89.6785 255.729 89.8774 255.922C90.0763 256.116 90.1799 256.385 90.155 256.655L77.404 413.687ZM236.123 396.123H236.132H236.123Z" fill="#0C0C0C"/>
<path d="M164.561 424.476C138.466 424.476 106.922 422.432 76.1608 415.313C75.7008 415.208 75.39 414.79 75.4273 414.331L88.1576 257.596L64.3089 259.459C64.0437 259.48 63.7992 259.399 63.6044 259.234C63.4097 259.069 63.2895 258.84 63.2729 258.59C63.2605 258.413 62.1416 240.824 66.2815 221.61C71.793 196.009 84.0965 179.144 101.858 172.835C142.477 158.405 202.615 157.294 228.942 180.657C231.925 183.309 239.347 203.461 242.174 216.604C246.91 238.623 236.869 387.085 236.438 393.394C236.405 393.905 235.949 394.276 235.419 394.263C234.888 394.227 234.491 393.785 234.524 393.27C234.627 391.728 244.975 238.756 240.292 216.982C237.226 202.733 229.862 184.001 227.645 182.034C201.848 159.137 142.606 160.34 102.517 174.585C63.708 188.371 64.8021 249.178 65.1419 257.524L89.1232 255.653C89.405 255.633 89.6785 255.729 89.8774 255.922C90.0763 256.116 90.1799 256.385 90.155 256.655L77.3998 413.683C145.183 429.164 216.58 420.033 224.089 418.999C230.898 389.467 230.641 293.418 230.516 274.344C230.496 273.262 230.052 247.448 233.102 234.688C233.223 234.185 233.736 233.875 234.254 233.992C234.772 234.108 235.091 234.607 234.971 235.11C231.975 247.645 232.431 274.059 232.435 274.324C232.609 301.373 232.642 391.781 225.809 420.045C225.718 420.415 225.407 420.693 225.022 420.753C224.595 420.822 199.453 424.476 164.561 424.476Z" fill="#0C0C0C"/>
<path d="M79.5878 329.787C79.2149 329.787 78.8585 329.574 78.7052 329.224C78.498 328.749 78.7218 328.201 79.2107 328C104.605 317.461 116.954 286.561 122.056 269.081C129.502 243.573 130.741 215.256 125.139 198.617C114.455 166.883 88.0706 174.102 86.9517 174.424C86.4462 174.573 85.9116 174.292 85.7583 173.797C85.6049 173.302 85.895 172.787 86.4006 172.638C86.6907 172.553 115.686 164.541 126.962 198.037C132.672 214.998 131.442 243.754 123.9 269.588C118.703 287.39 106.089 318.87 79.9608 329.714C79.8448 329.763 79.7163 329.787 79.5878 329.787Z" fill="#0C0C0C"/>
<path d="M226.625 253.987C226.095 253.987 225.664 253.568 225.664 253.053L225.668 250.269C225.714 236.362 225.767 219.05 215.76 198.826C199.855 166.674 188.343 166.867 188.239 166.839C187.705 166.851 187.261 166.469 187.232 165.954C187.208 165.439 187.614 165.004 188.144 164.98C188.67 164.956 201.032 164.759 217.488 198.021C227.686 218.632 227.628 236.177 227.587 250.277L227.583 253.057C227.583 253.572 227.152 253.987 226.625 253.987Z" fill="#0C0C0C"/>
<path d="M29.4289 432.013C22.181 432.013 16.2717 430.089 11.8044 426.266C-0.283608 415.925 -0.109562 393.692 0.0313343 375.83C0.21367 352.861 12.0862 333.767 31.0202 326C31.5092 325.799 32.0727 326.02 32.2758 326.495C32.483 326.97 32.2551 327.517 31.7661 327.719C13.5491 335.195 2.12406 353.637 1.95001 375.846C1.81326 393.33 1.63921 415.092 13.0725 424.87C18.3851 429.417 25.6703 431.015 35.3382 429.747C62.7052 426.166 58.5653 388.103 58.5197 387.72C58.4617 387.209 58.8388 386.747 59.3651 386.69C59.8873 386.618 60.368 387 60.426 387.511C60.4716 387.914 64.8021 427.775 35.5951 431.598C33.4444 431.872 31.389 432.013 29.4289 432.013Z" fill="#0C0C0C"/>
<path d="M31.3931 327.787C31.0202 327.787 30.6638 327.574 30.5063 327.216C30.2991 326.741 30.5312 326.194 31.016 325.996C31.7951 325.678 32.5825 325.377 33.3532 325.103L57.7158 316.512C58.2172 316.339 58.7642 316.588 58.9466 317.071C59.1289 317.554 58.872 318.089 58.3706 318.266L34.008 326.857C33.2455 327.127 32.4954 327.413 31.7619 327.715C31.6459 327.767 31.5174 327.787 31.3931 327.787Z" fill="#F3F2F2"/>
<path d="M161.067 361.564C158.423 361.613 155.282 362.562 154.64 365.049C154.064 367.287 155.858 369.403 157.623 370.948C162.273 375.021 183.204 389.793 181.24 375.278C180.084 366.731 169.107 361.416 161.067 361.564Z" fill="#F3F2F2"/>
<path d="M177.535 382.445C170.826 382.445 159.281 373.661 156.977 371.645C154.254 369.262 153.156 366.969 153.707 364.824C154.482 361.818 158.009 360.687 161.046 360.631C161.175 360.631 161.299 360.627 161.428 360.627C170.399 360.627 181.021 366.51 182.189 375.162C182.662 378.65 181.903 380.932 179.939 381.934C179.247 382.288 178.435 382.445 177.535 382.445ZM161.084 362.498C158.863 362.538 156.082 363.291 155.572 365.279C155.208 366.699 156.111 368.373 158.266 370.26C162.501 373.97 174.904 382.401 179.048 380.284C180.229 379.681 180.648 378.039 180.291 375.403C179.181 367.206 168.336 362.341 161.084 362.498ZM161.067 361.564H161.075H161.067Z" fill="#0C0C0C"/>
<path d="M449.2 543.453C449.038 543.453 448.872 543.413 448.723 543.329L443.729 540.548C443.269 540.29 443.112 539.723 443.373 539.276C443.638 538.83 444.223 538.673 444.683 538.93L449.676 541.711C450.136 541.968 450.294 542.536 450.032 542.982C449.854 543.284 449.531 543.453 449.2 543.453Z" fill="#0C0C0C"/>
<path d="M564.067 607.37C563.905 607.37 563.74 607.33 563.59 607.246L554.018 601.918C553.558 601.66 553.4 601.093 553.661 600.646C553.927 600.2 554.515 600.047 554.971 600.3L564.544 605.628C565.004 605.886 565.161 606.453 564.9 606.9C564.722 607.201 564.399 607.37 564.067 607.37ZM544.922 596.719C544.76 596.719 544.594 596.679 544.445 596.594L534.873 591.27C534.413 591.013 534.255 590.445 534.516 589.999C534.781 589.552 535.366 589.399 535.826 589.653L545.398 594.976C545.858 595.234 546.016 595.801 545.755 596.248C545.581 596.55 545.257 596.719 544.922 596.719ZM525.781 586.067C525.619 586.067 525.453 586.027 525.304 585.943L515.731 580.615C515.271 580.357 515.114 579.79 515.375 579.343C515.64 578.897 516.225 578.744 516.685 578.997L526.257 584.325C526.717 584.582 526.875 585.15 526.614 585.597C526.435 585.898 526.112 586.067 525.781 586.067ZM506.635 575.412C506.474 575.412 506.308 575.372 506.159 575.287L496.586 569.959C496.126 569.702 495.969 569.134 496.23 568.688C496.491 568.241 497.079 568.088 497.539 568.342L507.112 573.669C507.572 573.927 507.729 574.494 507.468 574.941C507.29 575.243 506.967 575.412 506.635 575.412ZM487.49 564.76C487.328 564.76 487.163 564.72 487.014 564.636L477.441 559.312C476.981 559.054 476.823 558.487 477.084 558.04C477.35 557.594 477.934 557.441 478.394 557.694L487.967 563.018C488.427 563.275 488.584 563.843 488.323 564.289C488.145 564.591 487.822 564.76 487.49 564.76ZM468.345 554.109C468.183 554.109 468.017 554.069 467.868 553.984L458.296 548.656C457.836 548.399 457.678 547.831 457.939 547.385C458.2 546.938 458.789 546.785 459.249 547.039L468.821 552.366C469.281 552.624 469.439 553.191 469.178 553.638C469 553.94 468.676 554.109 468.345 554.109Z" fill="#0C0C0C"/>
<path d="M578.637 615.479C578.476 615.479 578.31 615.439 578.161 615.354L573.163 612.573C572.703 612.316 572.546 611.749 572.807 611.302C573.072 610.855 573.656 610.698 574.116 610.956L579.114 613.736C579.574 613.994 579.731 614.561 579.47 615.008C579.292 615.31 578.969 615.479 578.637 615.479Z" fill="#0C0C0C"/>
<path d="M445.743 551.368C445.569 551.368 445.395 551.324 445.238 551.228L440.352 548.266C439.9 547.992 439.764 547.417 440.045 546.982C440.327 546.544 440.92 546.411 441.367 546.685L446.253 549.646C446.705 549.92 446.842 550.495 446.56 550.93C446.377 551.211 446.062 551.368 445.743 551.368Z" fill="#0C0C0C"/>
<path d="M566.263 624.424C566.089 624.424 565.915 624.38 565.758 624.283L555.717 618.195C555.265 617.921 555.128 617.346 555.41 616.911C555.692 616.477 556.285 616.34 556.732 616.614L566.777 622.702C567.229 622.975 567.366 623.551 567.084 623.985C566.897 624.267 566.582 624.424 566.263 624.424ZM546.177 612.247C546.003 612.247 545.829 612.203 545.672 612.107L535.627 606.018C535.175 605.745 535.038 605.169 535.32 604.735C535.602 604.3 536.195 604.163 536.642 604.437L546.683 610.525C547.135 610.799 547.271 611.374 546.99 611.809C546.807 612.091 546.497 612.247 546.177 612.247ZM526.091 600.071C525.917 600.071 525.743 600.027 525.586 599.93L515.545 593.842C515.093 593.568 514.957 592.993 515.238 592.558C515.52 592.123 516.113 591.987 516.56 592.26L526.605 598.349C527.057 598.622 527.194 599.198 526.912 599.632C526.721 599.914 526.411 600.071 526.091 600.071ZM506.001 587.894C505.827 587.894 505.653 587.85 505.496 587.753L495.451 581.665C494.999 581.391 494.862 580.816 495.144 580.381C495.426 579.943 496.018 579.81 496.466 580.084L506.507 586.172C506.959 586.446 507.095 587.021 506.814 587.456C506.635 587.741 506.325 587.894 506.001 587.894ZM485.915 575.718C485.741 575.718 485.567 575.673 485.41 575.577L475.369 569.488C474.917 569.215 474.78 568.639 475.062 568.205C475.344 567.77 475.937 567.633 476.384 567.907L486.429 573.995C486.881 574.269 487.018 574.844 486.736 575.279C486.549 575.565 486.234 575.718 485.915 575.718ZM465.829 563.545C465.655 563.545 465.481 563.501 465.324 563.404L455.279 557.316C454.827 557.042 454.69 556.467 454.972 556.032C455.254 555.598 455.847 555.461 456.294 555.734L466.335 561.823C466.787 562.096 466.923 562.672 466.642 563.106C466.463 563.388 466.149 563.545 465.829 563.545Z" fill="#0C0C0C"/>
<path d="M581.194 633.474C581.02 633.474 580.846 633.43 580.689 633.333L575.803 630.372C575.351 630.098 575.214 629.523 575.496 629.088C575.778 628.653 576.371 628.517 576.818 628.79L581.704 631.752C582.156 632.025 582.292 632.601 582.011 633.035C581.824 633.317 581.513 633.474 581.194 633.474Z" fill="#0C0C0C"/>
<path d="M440.224 561.847C440.008 561.847 439.797 561.779 439.619 561.638L435.164 558.097C434.754 557.771 434.691 557.183 435.027 556.785C435.363 556.386 435.968 556.326 436.378 556.652L440.833 560.193C441.243 560.519 441.305 561.106 440.97 561.505C440.775 561.73 440.501 561.847 440.224 561.847Z" fill="#0C0C0C"/>
<path d="M550.309 649.325C550.093 649.325 549.882 649.256 549.704 649.115L540.529 641.828C540.119 641.502 540.057 640.914 540.392 640.516C540.728 640.118 541.333 640.061 541.743 640.383L550.918 647.675C551.328 648.001 551.391 648.588 551.055 648.987C550.864 649.208 550.587 649.325 550.309 649.325ZM531.959 634.746C531.744 634.746 531.533 634.677 531.35 634.536L522.175 627.245C521.765 626.919 521.703 626.331 522.043 625.933C522.378 625.535 522.979 625.474 523.394 625.804L532.568 633.096C532.979 633.422 533.041 634.009 532.701 634.408C532.515 634.629 532.241 634.746 531.959 634.746ZM513.614 620.163C513.398 620.163 513.187 620.094 513.005 619.953L503.83 612.662C503.42 612.336 503.357 611.749 503.697 611.35C504.033 610.952 504.634 610.891 505.048 611.221L514.223 618.513C514.633 618.839 514.695 619.426 514.356 619.825C514.165 620.05 513.891 620.163 513.614 620.163ZM495.264 605.584C495.049 605.584 494.837 605.515 494.655 605.375L485.48 598.083C485.07 597.757 485.008 597.17 485.348 596.771C485.683 596.373 486.284 596.312 486.699 596.642L495.873 603.934C496.284 604.26 496.346 604.847 496.006 605.246C495.819 605.467 495.542 605.584 495.264 605.584ZM476.919 591.005C476.703 591.005 476.492 590.936 476.314 590.796L467.139 583.504C466.729 583.178 466.666 582.591 467.002 582.192C467.338 581.794 467.943 581.734 468.353 582.059L477.528 589.347C477.938 589.673 478 590.26 477.665 590.659C477.47 590.888 477.196 591.005 476.919 591.005ZM458.569 576.426C458.354 576.426 458.142 576.357 457.964 576.217L448.789 568.929C448.379 568.603 448.317 568.016 448.652 567.617C448.988 567.219 449.593 567.159 450.003 567.485L459.178 574.776C459.589 575.102 459.651 575.689 459.315 576.088C459.124 576.309 458.847 576.426 458.569 576.426Z" fill="#0C0C0C"/>
<path d="M563.939 660.157C563.723 660.157 563.512 660.089 563.329 659.948L558.875 656.407C558.464 656.081 558.402 655.493 558.742 655.095C559.078 654.697 559.679 654.636 560.093 654.966L564.548 658.507C564.958 658.833 565.02 659.421 564.68 659.819C564.494 660.041 564.216 660.157 563.939 660.157Z" fill="#0C0C0C"/>
<path d="M438.541 562.905C438.301 562.905 438.06 562.821 437.874 562.644L433.726 558.765C433.345 558.406 433.332 557.819 433.701 557.449C434.07 557.079 434.675 557.066 435.056 557.425L439.204 561.304C439.585 561.662 439.598 562.249 439.229 562.62C439.043 562.813 438.79 562.905 438.541 562.905Z" fill="#0C0C0C"/>
<path d="M539.85 657.687C539.609 657.687 539.369 657.602 539.182 657.425L530.741 649.526C530.36 649.168 530.347 648.58 530.716 648.21C531.085 647.84 531.694 647.828 532.071 648.186L540.513 656.085C540.894 656.443 540.906 657.031 540.537 657.401C540.351 657.59 540.098 657.687 539.85 657.687ZM522.963 641.888C522.722 641.888 522.482 641.804 522.296 641.627L513.854 633.728C513.473 633.369 513.461 632.782 513.829 632.412C514.198 632.042 514.807 632.03 515.184 632.388L523.626 640.287C524.007 640.645 524.019 641.232 523.651 641.603C523.468 641.792 523.216 641.888 522.963 641.888ZM506.08 626.094C505.84 626.094 505.599 626.01 505.413 625.833L496.972 617.933C496.59 617.575 496.578 616.988 496.947 616.618C497.316 616.247 497.925 616.235 498.302 616.593L506.743 624.493C507.124 624.851 507.137 625.438 506.768 625.808C506.581 625.998 506.333 626.094 506.08 626.094ZM489.193 610.296C488.953 610.296 488.713 610.211 488.526 610.034L480.085 602.135C479.704 601.777 479.691 601.19 480.06 600.819C480.429 600.449 481.038 600.437 481.415 600.795L489.856 608.694C490.238 609.052 490.25 609.64 489.881 610.01C489.695 610.199 489.446 610.296 489.193 610.296ZM472.311 594.498C472.07 594.498 471.83 594.413 471.643 594.236L463.202 586.337C462.821 585.979 462.808 585.391 463.177 585.021C463.546 584.651 464.155 584.639 464.532 584.997L472.974 592.896C473.355 593.254 473.367 593.842 472.999 594.212C472.812 594.405 472.559 594.498 472.311 594.498ZM455.424 578.703C455.183 578.703 454.943 578.619 454.757 578.442L446.315 570.543C445.934 570.185 445.922 569.597 446.29 569.227C446.659 568.857 447.268 568.845 447.646 569.203L456.087 577.102C456.468 577.46 456.481 578.048 456.112 578.418C455.929 578.607 455.677 578.703 455.424 578.703Z" fill="#0C0C0C"/>
<path d="M552.439 669.465C552.199 669.465 551.958 669.38 551.772 669.203L547.624 665.324C547.242 664.966 547.23 664.378 547.599 664.008C547.968 663.638 548.577 663.626 548.954 663.984L553.102 667.863C553.483 668.221 553.496 668.809 553.127 669.179C552.94 669.368 552.688 669.465 552.439 669.465Z" fill="#0C0C0C"/>
<path d="M534.545 679.392C534.272 679.392 533.998 679.279 533.808 679.058L530.107 674.772C529.767 674.378 529.821 673.791 530.223 673.461C530.629 673.131 531.234 673.183 531.574 673.573L535.275 677.859C535.614 678.253 535.56 678.841 535.154 679.171C534.98 679.32 534.765 679.392 534.545 679.392Z" fill="#0C0C0C"/>
<path d="M523.597 666.72C523.323 666.72 523.05 666.608 522.859 666.386L515.611 658C515.271 657.606 515.325 657.019 515.727 656.689C516.133 656.359 516.738 656.411 517.078 656.805L524.326 665.191C524.666 665.586 524.612 666.173 524.21 666.503C524.032 666.648 523.816 666.72 523.597 666.72ZM509.105 649.948C508.832 649.948 508.558 649.836 508.368 649.614L501.12 641.228C500.78 640.834 500.834 640.246 501.236 639.917C501.642 639.587 502.247 639.639 502.587 640.029L509.835 648.415C510.174 648.81 510.12 649.397 509.718 649.727C509.54 649.876 509.321 649.948 509.105 649.948ZM494.614 633.176C494.34 633.176 494.067 633.064 493.876 632.842L486.632 624.456C486.292 624.062 486.346 623.474 486.752 623.145C487.159 622.815 487.764 622.867 488.103 623.261L495.347 631.647C495.687 632.042 495.633 632.629 495.227 632.959C495.049 633.104 494.829 633.176 494.614 633.176ZM480.122 616.404C479.849 616.404 479.575 616.292 479.384 616.07L472.137 607.684C471.797 607.29 471.851 606.702 472.257 606.372C472.663 606.042 473.268 606.095 473.608 606.485L480.856 614.871C481.195 615.265 481.141 615.853 480.735 616.183C480.557 616.332 480.338 616.404 480.122 616.404ZM465.626 599.632C465.353 599.632 465.079 599.52 464.889 599.298L457.641 590.912C457.301 590.518 457.355 589.93 457.761 589.6C458.171 589.27 458.772 589.323 459.112 589.717L466.36 598.103C466.7 598.498 466.646 599.085 466.24 599.415C466.061 599.56 465.846 599.632 465.626 599.632ZM451.135 582.86C450.861 582.86 450.588 582.748 450.397 582.526L443.149 574.14C442.809 573.746 442.863 573.158 443.269 572.828C443.676 572.498 444.281 572.551 444.62 572.941L451.868 581.327C452.208 581.721 452.154 582.309 451.752 582.639C451.57 582.788 451.35 582.86 451.135 582.86Z" fill="#0C0C0C"/>
<path d="M436.038 566.519C435.723 566.519 435.412 566.366 435.23 566.088L432.135 561.376C431.861 560.962 431.969 560.414 432.375 560.125C432.781 559.835 433.353 559.899 433.676 560.278L437.377 564.559C437.717 564.953 437.667 565.541 437.261 565.871C437.14 565.967 437.004 566.032 436.863 566.064C436.788 566.185 436.685 566.293 436.556 566.374C436.395 566.47 436.216 566.519 436.038 566.519Z" fill="#0C0C0C"/>
<path d="M504.642 670.941C504.327 670.941 504.016 670.789 503.834 670.511L498.115 661.811C497.829 661.376 497.962 660.801 498.41 660.523C498.857 660.246 499.45 660.375 499.736 660.809L505.454 669.509C505.74 669.944 505.608 670.519 505.16 670.797C504.998 670.893 504.82 670.941 504.642 670.941ZM493.209 653.538C492.894 653.538 492.583 653.385 492.401 653.107L486.682 644.403C486.396 643.969 486.529 643.393 486.976 643.116C487.424 642.838 488.016 642.967 488.302 643.401L494.021 652.105C494.307 652.54 494.174 653.115 493.727 653.393C493.565 653.489 493.387 653.538 493.209 653.538ZM481.775 636.134C481.461 636.134 481.15 635.981 480.967 635.703L475.249 626.999C474.963 626.565 475.095 625.989 475.543 625.712C475.99 625.434 476.583 625.563 476.869 625.997L482.588 634.701C482.874 635.136 482.741 635.711 482.293 635.989C482.132 636.086 481.95 636.134 481.775 636.134ZM470.342 618.73C470.027 618.73 469.716 618.577 469.534 618.3L463.815 609.596C463.529 609.161 463.662 608.586 464.11 608.308C464.557 608.03 465.15 608.159 465.436 608.594L471.154 617.298C471.44 617.732 471.308 618.308 470.86 618.585C470.699 618.682 470.516 618.73 470.342 618.73ZM458.909 601.326C458.594 601.326 458.283 601.173 458.101 600.896L452.382 592.192C452.096 591.757 452.229 591.182 452.676 590.904C453.124 590.627 453.716 590.755 454.002 591.19L459.721 599.894C460.007 600.328 459.874 600.904 459.427 601.181C459.261 601.278 459.083 601.326 458.909 601.326ZM447.471 583.922C447.156 583.922 446.846 583.77 446.663 583.492L440.945 574.788C440.659 574.353 440.791 573.778 441.239 573.5C441.686 573.223 442.279 573.351 442.565 573.786L448.284 582.49C448.57 582.925 448.437 583.5 447.989 583.778C447.828 583.874 447.65 583.922 447.471 583.922Z" fill="#0C0C0C"/>
<path d="M513.456 684.358C513.141 684.358 512.831 684.205 512.648 683.927L509.553 679.211C509.267 678.776 509.399 678.201 509.847 677.923C510.294 677.646 510.887 677.774 511.173 678.209L514.269 682.921C514.555 683.356 514.422 683.931 513.974 684.209C513.813 684.309 513.635 684.358 513.456 684.358Z" fill="#0C0C0C"/>
<path d="M576.081 646.504C575.89 646.504 575.699 646.448 575.529 646.335L566.102 639.913C565.667 639.619 565.563 639.035 565.866 638.617C566.168 638.194 566.769 638.094 567.2 638.387L576.628 644.81C577.063 645.104 577.166 645.687 576.864 646.105C576.681 646.367 576.383 646.504 576.081 646.504ZM557.225 633.659C557.035 633.659 556.844 633.603 556.674 633.49L547.247 627.068C546.811 626.774 546.708 626.191 547.01 625.772C547.313 625.35 547.914 625.249 548.349 625.543L557.776 631.965C558.212 632.259 558.315 632.842 558.013 633.261C557.826 633.522 557.528 633.659 557.225 633.659ZM538.366 620.815C538.175 620.815 537.985 620.758 537.815 620.646L528.387 614.223C527.952 613.93 527.849 613.346 528.151 612.924C528.454 612.505 529.054 612.4 529.485 612.694L538.913 619.117C539.348 619.41 539.452 619.994 539.149 620.412C538.967 620.678 538.673 620.815 538.366 620.815ZM519.511 607.974C519.32 607.974 519.13 607.918 518.96 607.805L509.532 601.383C509.097 601.089 508.993 600.506 509.296 600.083C509.598 599.66 510.199 599.56 510.63 599.854L520.058 606.276C520.493 606.57 520.596 607.153 520.294 607.572C520.112 607.833 519.813 607.974 519.511 607.974ZM500.656 595.129C500.465 595.129 500.274 595.073 500.104 594.96L490.677 588.538C490.242 588.244 490.138 587.661 490.441 587.238C490.743 586.816 491.344 586.715 491.775 587.009L501.203 593.431C501.638 593.725 501.741 594.309 501.439 594.727C501.256 594.993 500.958 595.129 500.656 595.129ZM481.8 582.285C481.61 582.285 481.419 582.229 481.249 582.116L471.822 575.694C471.387 575.4 471.283 574.816 471.585 574.394C471.888 573.975 472.489 573.871 472.924 574.164L482.352 580.587C482.787 580.88 482.89 581.464 482.588 581.882C482.401 582.148 482.103 582.285 481.8 582.285ZM462.945 569.444C462.755 569.444 462.564 569.388 462.394 569.275L452.966 562.853C452.531 562.559 452.428 561.976 452.73 561.553C453.033 561.135 453.634 561.03 454.065 561.324L463.492 567.746C463.927 568.04 464.031 568.623 463.728 569.042C463.542 569.303 463.248 569.444 462.945 569.444ZM444.086 556.6C443.895 556.6 443.705 556.543 443.535 556.431L434.704 550.415C434.269 550.121 434.165 549.538 434.468 549.115C434.77 548.692 435.371 548.592 435.802 548.886L444.633 554.902C445.068 555.195 445.172 555.779 444.869 556.197C444.687 556.459 444.392 556.6 444.086 556.6Z" fill="#0C0C0C"/>
<path d="M72.594 308.054L66.5984 316.853L413.511 539.735L419.507 530.935L72.594 308.054Z" fill="#0C0C0C"/>
<path d="M457.827 539.119L418.683 530.424L412.691 539.22L435.458 568.881L457.827 539.119Z" fill="#0C0C0C"/>
<path d="M444.434 546.829C444.314 546.829 444.189 546.805 444.069 546.761L423.515 538.528C423.026 538.331 422.79 537.787 422.993 537.313C423.196 536.834 423.76 536.612 424.244 536.806L444.799 545.039C445.288 545.236 445.524 545.779 445.321 546.254C445.172 546.612 444.811 546.829 444.434 546.829Z" fill="#F3F2F2"/>
<path d="M127.107 360.482C132.2 361.959 142.166 362.168 145.154 357.903C147.413 354.683 151.217 351.388 157.507 350.515C158.195 350.418 158.817 350.422 159.447 350.716C159.343 356.341 155.29 361.315 155.643 367.347C155.85 370.9 156.977 374.598 159.294 377.411C160.901 379.363 174.357 384.051 174.452 385.882C174.883 394.107 147.45 385.334 144.205 384.69C142.013 384.256 130.733 379.025 122.254 376.819L127.107 360.482Z" fill="#F3F2F2"/>
<path d="M168.158 390.312C162.542 390.312 154.441 388.392 146.708 386.304C145.444 385.962 144.45 385.692 144.015 385.608C143.095 385.427 140.989 384.586 138.072 383.419C133.489 381.588 127.207 379.077 122.006 377.721C121.757 377.656 121.546 377.495 121.417 377.278C121.289 377.061 121.26 376.799 121.33 376.562L126.183 360.22C126.253 359.983 126.419 359.782 126.643 359.661C126.867 359.54 127.132 359.516 127.376 359.585C132.606 361.098 141.818 360.993 144.359 357.375C147.4 353.042 151.896 350.346 157.371 349.589C158.042 349.496 158.937 349.444 159.861 349.871C160.201 350.028 160.412 350.362 160.408 350.728C160.359 353.504 159.401 356.116 158.477 358.643C157.47 361.403 156.426 364.261 156.6 367.291C156.815 371.009 158.038 374.397 160.039 376.828C160.628 377.544 164.059 379.113 166.815 380.373C172.994 383.202 175.335 384.405 175.41 385.833C175.476 387.105 174.999 388.175 174.03 388.928C172.782 389.91 170.731 390.312 168.158 390.312ZM123.444 376.176C128.557 377.6 134.442 379.95 138.801 381.693C141.404 382.731 143.654 383.632 144.396 383.781C144.897 383.882 145.871 384.143 147.218 384.505C153.194 386.119 169.065 390.396 172.832 387.475C173.292 387.117 173.507 386.658 173.499 386.034C172.894 385.218 168.758 383.322 165.999 382.059C161.913 380.188 159.368 378.992 158.543 377.99C156.293 375.258 154.922 371.496 154.685 367.395C154.487 363.987 155.597 360.953 156.67 358.019C157.495 355.762 158.278 353.617 158.456 351.396C158.229 351.372 157.967 351.388 157.644 351.432C152.651 352.124 148.718 354.478 145.95 358.422C142.705 363.045 132.913 362.808 127.77 361.609L123.444 376.176Z" fill="#0C0C0C"/>
<path d="M124.293 379.371C98.2276 383.008 59.7505 330.35 58.0515 317.393C56.7213 307.265 65.5024 237.895 65.5024 237.895L111.513 230.45C111.513 230.45 96.6736 300.098 98.7331 302.432C106.4 311.12 112.79 343.384 131.322 358.901L124.293 379.371Z" fill="#F3F2F2"/>
<path d="M121.633 380.481C114.812 380.481 106.959 377.226 98.2317 370.775C78.096 355.891 58.354 327.047 57.1025 317.506C55.938 308.621 63.6169 240.148 65.3532 226.141C65.4154 225.63 65.8878 225.264 66.4224 225.328C66.9486 225.388 67.3216 225.855 67.2594 226.366C65.5314 240.333 57.865 308.556 59.0087 317.272C60.2229 326.519 79.6003 354.659 99.3962 369.291C108.65 376.131 116.78 379.234 123.576 378.514L130.211 359.182C118.599 349.175 111.861 332.942 106.433 319.864C103.366 312.48 100.718 306.098 98.0079 303.027C97.3946 302.335 96.1224 300.891 106.586 249.468C106.69 248.965 107.191 248.635 107.713 248.736C108.235 248.836 108.571 249.327 108.467 249.83C99.421 294.275 99.3091 300.943 99.5412 301.905C102.425 305.236 105.111 311.695 108.21 319.168C113.639 332.242 120.394 348.511 131.947 358.184C132.242 358.434 132.353 358.828 132.233 359.186L125.205 379.664C125.089 379.998 124.791 380.24 124.43 380.292C123.518 380.421 122.586 380.481 121.633 380.481ZM99.5578 301.969H99.5661H99.5578Z" fill="#0C0C0C"/>
<path d="M147.906 132.18C143.053 133.371 139.697 132.965 137.355 132.321C128.901 129.987 124.948 122.096 124.157 120.519C120.071 112.362 119.95 100.391 126.295 94.7491C130.866 90.6889 134.811 93.4453 140.036 88.9304C145.966 83.8038 142.469 77.8161 147.877 73.3736C154.101 68.2591 164.594 71.0276 166.479 71.5226C172.952 73.2288 173.01 76.5485 179.23 77.7276C185.579 78.9267 179.777 83.0875 185.579 84.3108C190.187 85.2806 202.573 86.3792 204.393 92.2019C206.676 99.5055 202.084 102.415 196.573 105.956C189.951 110.205 186.835 106.483 178.29 109.26C163.483 114.076 163.475 128.366 147.906 132.18Z" fill="#0C0C0C"/>
<path d="M142.075 133.874C140.335 133.874 138.681 133.657 137.094 133.219C131.375 131.641 126.477 127.275 123.299 120.925C119.171 112.68 118.898 100.065 125.653 94.065C128.085 91.9001 130.377 91.5057 132.594 91.1235C134.823 90.7372 136.928 90.375 139.402 88.2383C142.187 85.8319 142.701 83.2686 143.248 80.5565C143.791 77.8523 144.354 75.0556 147.259 72.6694C153.007 67.9493 161.925 69.3657 166.732 70.6292C170.068 71.5105 171.846 72.8304 173.412 73.9973C175.041 75.2085 176.446 76.2588 179.417 76.8182C183.097 77.5143 183.486 79.2245 183.577 81.0635C183.64 82.2868 183.673 82.9588 185.786 83.4054C186.491 83.5543 187.382 83.7073 188.384 83.8763C194.443 84.9104 203.601 86.4677 205.313 91.9363C207.791 99.8757 202.636 103.187 197.174 106.692C193.22 109.231 190.369 109.155 187.348 109.079C184.866 109.014 182.297 108.946 178.6 110.149C171.717 112.386 168.224 116.672 164.527 121.207C160.586 126.04 156.509 131.042 148.146 133.09C145.995 133.613 143.981 133.874 142.075 133.874ZM147.906 132.18H147.918H147.906ZM157.938 71.2811C154.627 71.2811 151.117 71.9371 148.498 74.0899C146.107 76.0536 145.656 78.303 145.134 80.9106C144.578 83.675 143.948 86.8057 140.679 89.6306C137.799 92.1174 135.213 92.5641 132.929 92.9584C130.808 93.3246 128.972 93.6425 126.95 95.4372C120.846 100.862 121.198 112.467 125.027 120.108C127.965 125.975 132.436 129.995 137.625 131.424C140.617 132.253 143.903 132.2 147.678 131.279C155.411 129.384 159.107 124.849 163.023 120.048C166.732 115.497 170.569 110.793 177.991 108.378C182.011 107.071 184.874 107.147 187.402 107.211C190.345 107.288 192.673 107.348 196.051 105.179C201.591 101.622 205.549 99.083 203.481 92.4715C202.118 88.1015 193.316 86.6045 188.061 85.7072C187.025 85.5301 186.109 85.3732 185.384 85.2203C181.829 84.4718 181.729 82.4719 181.667 81.148C181.605 79.8804 181.568 79.1159 179.056 78.641C175.642 77.9972 173.918 76.7135 172.252 75.4701C170.69 74.3072 169.21 73.2046 166.239 72.424C164.432 71.9491 161.291 71.2811 157.938 71.2811Z" fill="#F3F2F2"/>
<path d="M166.355 154.687C166.338 154.683 166.322 154.675 166.301 154.666L166.952 144.176C167.747 144.26 174.51 144.57 175.335 144.369C182.032 142.759 183.731 127.714 183.731 127.714L187.97 124.555L182.968 100.68C170.387 106.97 168.539 97.7148 157.064 99.6664C145.593 101.618 148.681 114.205 148.681 114.205C148.681 114.205 140.94 108.676 140.923 117.135C140.911 123.521 145.39 124.893 148.453 125.295L143.144 141.713H143.14L142.954 142.309L138.031 157.536C138.064 157.56 138.097 157.58 138.126 157.604L136.083 164.075C136.083 164.075 117.621 169.169 114.054 170.086C118.699 169.873 150.819 183.438 187.253 168.614L167.722 162.964L166.355 154.687Z" fill="#F3F2F2"/>
<path d="M151.184 176.477C137.218 176.477 125.876 173.692 119.403 172.098C116.863 171.475 114.866 170.972 114.103 171.016C113.598 171.032 113.183 170.698 113.109 170.227C113.034 169.756 113.337 169.306 113.813 169.185C117.004 168.364 132.341 164.139 135.325 163.318L137.094 157.717C137.065 157.568 137.069 157.411 137.119 157.258L142.229 141.44C142.237 141.407 142.249 141.379 142.262 141.347L147.214 126.032C142.394 125.05 139.958 122.06 139.97 117.131C139.974 114.398 140.757 112.632 142.299 111.875C143.948 111.07 145.987 111.694 147.433 112.39C147.21 110.105 147.259 106.31 149.344 103.232C150.968 100.833 153.509 99.3244 156.902 98.749C162.124 97.8637 165.53 99.2037 168.535 100.387C172.418 101.916 175.766 103.236 182.533 99.8515C182.802 99.7187 183.117 99.7147 183.387 99.8395C183.656 99.9642 183.851 100.21 183.913 100.495L188.915 124.37C188.989 124.72 188.849 125.078 188.558 125.295L184.638 128.217C184.307 130.728 182.268 143.669 175.571 145.278C174.709 145.484 169.981 145.287 167.859 145.17L167.283 154.437C167.296 154.469 167.304 154.506 167.308 154.542L168.584 162.244L187.535 167.728C187.924 167.841 188.198 168.179 188.219 168.569C188.239 168.964 188.007 169.326 187.63 169.479C174.597 174.774 162.091 176.477 151.184 176.477ZM118.322 169.913C118.798 170.03 119.316 170.155 119.876 170.292C130.886 172.996 156.235 179.221 184.348 168.742L167.453 163.857C167.101 163.757 166.84 163.467 166.782 163.113L165.452 155.077C165.377 154.936 165.335 154.775 165.348 154.61L165.999 144.12C166.015 143.866 166.135 143.629 166.338 143.464C166.537 143.299 166.798 143.222 167.064 143.25C167.963 143.347 174.353 143.609 175.124 143.464C180.063 142.277 182.33 131.621 182.782 127.613C182.811 127.36 182.943 127.13 183.151 126.977L186.917 124.173L182.28 102.049C175.447 105.119 171.572 103.594 167.818 102.113C164.917 100.97 161.917 99.7872 157.238 100.584C154.395 101.067 152.282 102.298 150.96 104.246C148.266 108.213 149.613 113.932 149.626 113.988C149.717 114.366 149.555 114.764 149.219 114.978C148.884 115.195 148.449 115.183 148.121 114.954C147.293 114.362 144.599 112.833 143.165 113.537C142.121 114.052 141.897 115.775 141.893 117.131C141.885 121.464 144.015 123.762 148.594 124.366C148.876 124.402 149.124 124.559 149.273 124.788C149.427 125.022 149.464 125.303 149.377 125.569L144.068 141.987C144.06 142.015 144.048 142.039 144.039 142.067L143.878 142.574L139.075 157.427C139.104 157.572 139.096 157.725 139.05 157.874L137.007 164.344C136.912 164.646 136.663 164.879 136.352 164.968C136.203 165.012 124.894 168.131 118.322 169.913Z" fill="#0C0C0C"/>
<path d="M166.956 145.109C166.931 145.109 166.902 145.109 166.873 145.105C155.767 144.2 152.605 135.037 152.572 134.949C152.41 134.458 152.688 133.935 153.189 133.774C153.695 133.617 154.234 133.887 154.395 134.373C154.507 134.711 157.234 142.45 167.03 143.246C167.557 143.291 167.95 143.741 167.905 144.252C167.867 144.743 167.449 145.109 166.956 145.109Z" fill="#0C0C0C"/>
<path d="M119.304 104.483C119.304 104.483 163.322 116.39 204.571 105.883C240.495 96.7329 196.846 77.8523 162.335 76.629C111.26 74.8142 85.8163 92.379 119.304 104.483Z" fill="#F3F2F2"/>
<path d="M167.399 111.115C140.683 111.115 119.354 105.465 119.047 105.38C119.022 105.372 118.997 105.364 118.968 105.356C104.68 100.19 102.575 94.737 103.325 91.0711C105.384 81.0192 130.211 74.5567 162.368 75.6955C186.358 76.5445 217.807 86.512 218.942 96.4955C219.431 100.809 214.678 104.27 204.811 106.781C192.197 110 179.263 111.115 167.399 111.115ZM119.602 103.594C121.115 103.992 164.333 115.171 204.331 104.982C212.884 102.801 217.401 99.8596 217.04 96.7007C216.104 88.4676 187.456 78.4479 162.302 77.5586C128.587 76.3715 106.801 83.675 105.214 91.4333C104.357 95.6062 109.466 99.924 119.602 103.594Z" fill="#0C0C0C"/>
<path d="M139.382 99.5497C133.845 97.912 130.435 93.2481 131.259 88.4194C133.058 77.9248 138.652 63.7361 146.609 59.9335C155.452 55.7042 170.002 56.6217 177.796 60.0864C186.308 63.8729 190.191 77.5143 189.197 89.9807C188.318 101.031 163.537 106.688 139.382 99.5497Z" fill="#F3F2F2"/>
<path d="M161.096 103.622C153.973 103.622 146.327 102.576 139.104 100.443C133.108 98.6685 129.411 93.55 130.315 88.2664C132.254 76.9469 138.047 62.9877 146.186 59.0965C155.319 54.7304 170.114 55.6439 178.198 59.2413C187.336 63.3056 191.132 77.8161 190.158 90.0531C189.914 93.1154 187.999 95.9201 184.618 98.1615C179.181 101.763 170.598 103.622 161.096 103.622ZM161.407 58.0542C156.206 58.0542 150.993 58.8751 147.031 60.7664C139.833 64.2069 134.127 77.3574 132.208 88.5682C131.462 92.9142 134.599 97.1555 139.663 98.6524C158.187 104.129 175.754 101.771 183.536 96.6162C186.42 94.7048 188.045 92.383 188.244 89.9042C189.168 78.3111 185.741 64.6375 177.399 60.9314C173.371 59.1407 167.395 58.0542 161.407 58.0542Z" fill="#0C0C0C"/>
<path d="M165.095 71.1162C155.726 71.1162 149.149 67.0479 148.768 66.8064C148.324 66.5248 148.2 65.9493 148.486 65.5188C148.776 65.0882 149.369 64.9635 149.812 65.2451C149.936 65.3216 162.273 72.9189 176.852 66.8829C177.341 66.6817 177.904 66.903 178.111 67.3738C178.319 67.8487 178.091 68.3959 177.606 68.5971C173.13 70.4522 168.883 71.1162 165.095 71.1162Z" fill="#0C0C0C"/>
<path d="M594.036 722.976C593.659 722.976 593.299 722.755 593.15 722.397C592.951 721.918 593.187 721.374 593.676 721.181C667.302 692.076 727.303 641.599 762.627 579.046C762.88 578.595 763.464 578.426 763.928 578.675C764.392 578.921 764.562 579.488 764.309 579.939C746.291 611.845 722.281 640.444 692.937 664.938C664.223 688.909 631.071 708.409 594.401 722.908C594.277 722.952 594.157 722.976 594.036 722.976Z" fill="#0C0C0C"/>
<path d="M569.313 710.791C568.911 710.791 568.538 710.546 568.402 710.156C568.232 709.669 568.505 709.141 569.007 708.977C669.059 676.438 742.184 606.183 769.634 516.227C769.783 515.736 770.318 515.45 770.828 515.599C771.337 515.744 771.623 516.263 771.474 516.758C743.846 607.302 670.269 678.008 569.616 710.747C569.516 710.775 569.417 710.791 569.313 710.791Z" fill="#0C0C0C"/>
<path d="M506.884 26.6831C506.354 26.6831 505.923 26.2646 505.923 25.7496V18.2931C505.923 17.778 506.354 17.3595 506.884 17.3595C507.414 17.3595 507.845 17.778 507.845 18.2931V25.7496C507.841 26.2687 507.414 26.6831 506.884 26.6831Z" fill="#0C0C0C"/>
<path d="M506.884 43.4592C506.354 43.4592 505.923 43.0407 505.923 42.5256V35.0692C505.923 34.5541 506.354 34.1356 506.884 34.1356C507.414 34.1356 507.845 34.5541 507.845 35.0692V42.5256C507.841 43.0407 507.414 43.4592 506.884 43.4592Z" fill="#0C0C0C"/>
<path d="M502.566 30.8762H494.887C494.357 30.8762 493.926 30.4577 493.926 29.9426C493.926 29.4275 494.357 29.009 494.887 29.009H502.566C503.096 29.009 503.527 29.4275 503.527 29.9426C503.523 30.4617 503.096 30.8762 502.566 30.8762Z" fill="#0C0C0C"/>
<path d="M519.838 30.8762H512.159C511.629 30.8762 511.198 30.4577 511.198 29.9426C511.198 29.4275 511.629 29.009 512.159 29.009H519.838C520.369 29.009 520.8 29.4275 520.8 29.9426C520.8 30.4617 520.369 30.8762 519.838 30.8762Z" fill="#0C0C0C"/>
<path d="M724.734 226.109C724.204 226.109 723.773 225.69 723.773 225.175V217.719C723.773 217.203 724.204 216.785 724.734 216.785C725.265 216.785 725.695 217.203 725.695 217.719V225.175C725.691 225.694 725.265 226.109 724.734 226.109Z" fill="#0C0C0C"/>
<path d="M724.734 242.885C724.204 242.885 723.773 242.466 723.773 241.951V234.495C723.773 233.98 724.204 233.561 724.734 233.561C725.265 233.561 725.695 233.98 725.695 234.495V241.951C725.691 242.466 725.265 242.885 724.734 242.885Z" fill="#0C0C0C"/>
<path d="M720.412 230.306H712.733C712.203 230.306 711.772 229.887 711.772 229.372C711.772 228.857 712.203 228.438 712.733 228.438H720.412C720.942 228.438 721.373 228.857 721.373 229.372C721.373 229.887 720.942 230.306 720.412 230.306Z" fill="#0C0C0C"/>
<path d="M737.688 230.306H730.009C729.479 230.306 729.048 229.887 729.048 229.372C729.048 228.857 729.479 228.438 730.009 228.438H737.688C738.219 228.438 738.65 228.857 738.65 229.372C738.65 229.887 738.219 230.306 737.688 230.306Z" fill="#0C0C0C"/>
<path d="M459.779 15.4361C455.395 15.4361 451.831 11.9714 451.831 7.71803C451.831 3.46064 455.399 0 459.779 0C464.159 0 467.727 3.46466 467.727 7.71803C467.727 11.9754 464.164 15.4361 459.779 15.4361ZM459.779 1.86311C456.456 1.86311 453.75 4.49078 453.75 7.71803C453.75 10.9453 456.456 13.573 459.779 13.573C463.103 13.573 465.809 10.9453 465.809 7.71803C465.809 4.49078 463.103 1.86311 459.779 1.86311Z" fill="#0C0C0C"/>
</svg>
