<svg width="754" height="367" viewBox="0 0 754 367" fill="none" xmlns="http://www.w3.org/2000/svg">
<path d="M607.711 130.474L595.933 5.77859C595.748 3.83076 594.131 2.34302 592.18 2.34302L545.766 1.50026C465.284 0.0383153 384.776 1.45725 304.397 5.7571C291.767 5.93769 280.375 13.3979 275.161 24.9043L230.036 124.532L218.821 137.952C214.518 143.099 211.435 149.153 209.806 155.663L203.242 181.857C201.475 188.905 200.581 196.146 200.581 203.412V292.78L499.928 287.913V297.721H535.191C534.572 294.479 534.064 291.005 533.669 287.363L571.528 286.748C571.129 290.613 570.6 294.303 569.946 297.721H588.646C594.914 297.721 600.575 294.101 603.013 288.326L603.069 288.072C607.363 277.894 609.5 267.024 609.5 255.974V169.951C609.5 156.772 608.958 143.597 607.711 130.474Z" fill="#F3F2F2"/>
<path d="M259.238 358.335C275.648 358.335 288.951 332.175 288.951 299.905C288.951 267.634 275.648 241.474 259.238 241.474C242.828 241.474 229.525 267.634 229.525 299.905C229.525 332.175 242.828 358.335 259.238 358.335Z" fill="#0C0C0C"/>
<path d="M259.238 241.371C259.199 241.371 259.165 241.371 259.126 241.371C253.473 241.371 233.944 241.371 228.3 241.371C228.252 241.371 228.209 241.371 228.162 241.371C211.749 241.371 198.445 267.583 198.445 299.853C198.445 331.973 211.625 358.065 227.93 358.305C228.007 358.305 259.049 359.041 259.049 359.041C259.049 359.041 259.174 359.041 259.234 359.041C275.647 359.041 288.947 332.476 288.947 300.206C288.951 267.936 275.651 241.371 259.238 241.371Z" fill="#0C0C0C"/>
<path d="M259.238 360.533H259.053C258.718 360.524 228.192 359.669 227.913 359.664C211.147 359.415 197.499 332.704 197.499 300.124C197.499 288.317 199.27 276.94 202.627 267.218C202.799 266.723 203.337 266.456 203.835 266.628C204.33 266.8 204.592 267.338 204.424 267.837C201.14 277.361 199.403 288.528 199.403 300.124C199.403 331.672 212.209 357.532 227.956 357.764C228.033 357.764 251.805 358.43 259.088 358.632H259.247C270.677 358.632 281.042 344.873 285.65 323.58C285.762 323.068 286.269 322.746 286.776 322.853C287.288 322.965 287.614 323.468 287.503 323.984C282.692 346.184 271.597 360.533 259.238 360.533Z" fill="#0C0C0C"/>
<path d="M652.028 298.525H567.548V312.964H652.028V298.525Z" fill="#0C0C0C"/>
<path d="M726.702 314.77L481.138 312.784V170.85H726.702V314.77Z" fill="#F3F2F2"/>
<path d="M726.702 315.72C726.698 315.72 726.698 315.72 726.693 315.72L481.129 313.733C480.609 313.729 480.188 313.303 480.188 312.783V170.849C480.188 170.325 480.613 169.899 481.138 169.899H726.702C727.226 169.899 727.652 170.325 727.652 170.849V314.77C727.652 315.023 727.553 315.264 727.373 315.445C727.196 315.621 726.956 315.72 726.702 315.72ZM482.088 311.841L725.756 313.815V171.8H482.088V311.841Z" fill="#0C0C0C"/>
<path d="M207.786 102.59L211.792 159.489H200.039C194.924 159.489 190.023 157.43 186.442 153.775C182.956 150.215 181.004 145.425 181.004 140.437L181.03 106.361C181.034 101.3 185.148 97.2061 190.208 97.2362L201.394 97.2965C204.514 97.3137 207.188 99.528 207.786 102.59Z" fill="#0C0C0C"/>
<path d="M241.518 127.649L194 125.134L194.21 114.668H241.518V127.649Z" fill="#0C0C0C"/>
<path d="M241.041 114.668H209.08C208.83 114.668 208.624 114.474 208.603 114.225L207.786 102.632C207.786 102.607 207.782 102.576 207.773 102.551C207.163 99.5107 204.497 97.3135 201.394 97.2963L190.685 97.2404C185.363 97.2103 181.03 101.519 181.026 106.842L181 139.882C180.996 143.657 181.911 147.424 183.932 150.614C187.483 156.221 193.587 159.494 200.031 159.494H211.272C211.547 159.494 211.767 159.261 211.749 158.982L209.462 126.488C209.441 126.204 209.677 125.963 209.961 125.981L241.007 127.623C241.278 127.636 241.51 127.421 241.51 127.146V115.145C241.518 114.878 241.304 114.668 241.041 114.668Z" fill="#0C0C0C"/>
<path d="M607.711 130.474L595.933 5.77859C595.748 3.83076 594.131 2.34302 592.18 2.34302L545.766 1.50026C465.284 0.0383154 384.776 1.45725 304.397 5.7571C291.767 5.93769 280.375 13.3979 275.161 24.9043L230.036 124.532L218.821 137.952C214.518 143.099 211.435 149.153 209.806 155.663L203.242 181.857C201.475 188.905 200.581 196.146 200.581 203.412V242.068C200.581 270.18 223.176 293.069 251.277 293.43L588.646 297.73C594.914 297.73 600.575 294.109 603.013 288.334L603.069 288.081C607.363 277.903 609.5 267.033 609.5 255.982V169.96C609.5 156.772 608.958 143.597 607.711 130.474Z" fill="#F3F2F2"/>
<path d="M478.67 307.933C478.67 280.551 471.216 258.351 462.025 258.351C460.968 258.351 459.932 258.657 458.93 259.22C454.382 259.22 447.169 259.22 444.692 259.22C444.667 259.22 444.641 259.22 444.615 259.22C443.098 259.22 441.627 259.826 440.226 260.94C438.833 259.826 437.367 259.22 435.854 259.22C435.833 259.22 435.811 259.22 435.79 259.22C432.621 259.22 421.685 259.22 418.521 259.22C418.496 259.22 418.47 259.22 418.444 259.22C409.249 259.22 401.799 280.986 401.799 308.367C401.799 335.624 409.18 357.523 418.315 357.729C418.358 357.729 461.913 357.57 461.913 357.57C461.913 357.57 461.982 357.54 462.017 357.54C471.212 357.54 478.662 335.761 478.662 308.376C478.662 308.303 478.662 308.234 478.662 308.161C478.67 308.088 478.67 308.01 478.67 307.933Z" fill="#0C0C0C"/>
<path d="M401.343 236.83H269.181C261.499 236.83 254.256 233.244 249.6 227.13L244.67 220.654C241.291 216.217 240.758 210.236 243.294 205.27L255.915 180.588C261.026 170.591 271.305 164.305 282.529 164.305H389.578C400.952 164.305 411.338 170.759 416.376 180.958L427.807 204.096C430.137 208.808 429.728 214.411 426.749 218.741L421.625 226.18C417.021 232.844 409.442 236.83 401.343 236.83Z" fill="#0C0C0C"/>
<path d="M696.722 259.762C696.701 259.762 696.679 259.762 696.658 259.762C693.49 259.762 653.111 259.762 649.951 259.762C649.926 259.762 649.9 259.762 649.874 259.762C640.679 259.762 633.229 281.252 633.229 308.638C633.229 335.895 640.614 357.661 649.745 357.867C649.788 357.867 696.615 357.635 696.615 357.635C696.615 357.635 696.684 357.575 696.718 357.575C705.913 357.575 713.363 336.054 713.363 308.668C713.367 281.282 705.913 259.762 696.722 259.762Z" fill="#0C0C0C"/>
<path d="M696.722 341.717C702.985 341.717 708.062 326.591 708.062 307.933C708.062 289.275 702.985 274.149 696.722 274.149C690.459 274.149 685.382 289.275 685.382 307.933C685.382 326.591 690.459 341.717 696.722 341.717Z" fill="#F3F2F2"/>
<path d="M750.969 130.474L739.087 8.25506C738.902 6.30723 737.286 4.81949 735.334 4.81949C735.179 4.81949 591.875 2.34277 591.72 2.34277C577.714 2.53627 565.381 11.6691 561.117 25.0503L533.931 110.359C530.243 121.926 522.514 131.772 512.149 138.093L509.544 139.787C503.457 143.502 499.919 150.116 499.919 157.249V297.716C499.919 297.716 521.082 279.76 522.922 269.733C529.882 231.813 541.613 211.406 552.566 211.406C563.515 211.406 572.397 237.445 572.397 269.699C572.397 279.894 565.394 306.738 563.834 314.916H580.96H647.131C650.355 312.134 667.675 312.056 673.298 272.287C678.882 232.802 696.082 233.941 701.932 234.1C707.112 234.242 728.331 240.524 720.967 314.916H725.791C732.058 314.916 740.217 305.267 740.217 305.267C747.762 294.418 752.761 283.634 752.761 255.969V169.946C752.757 156.772 752.215 143.597 750.969 130.474Z" fill="#F3F2F2"/>
<path d="M694.577 38.2937C674.003 34.1659 653.562 50.0753 653.562 74.765C653.562 99.4547 674.003 115.368 694.577 111.236C711.351 107.87 722.833 91.7752 722.833 74.765C722.833 57.7548 711.351 41.6605 694.577 38.2937ZM694.577 105.831C677.343 108.777 660.776 95.1162 660.776 74.765C660.776 54.4138 677.343 40.7532 694.577 43.6986C709.064 46.1753 719.213 59.9348 719.213 74.765C719.213 89.5995 709.064 103.355 694.577 105.831Z" fill="#0C0C0C"/>
<path d="M671.346 58.7393C671.346 58.7393 662.835 49.7397 669.803 47.6586C675.989 45.8097 677.734 53.1366 676.066 55.9272C674.704 58.1976 671.346 58.7393 671.346 58.7393Z" fill="#F3F2F2"/>
<path d="M671.346 59.6896C671.088 59.6896 670.839 59.5821 670.658 59.3929C670.1 58.8038 665.238 53.5193 666.257 49.7139C666.519 48.7292 667.301 47.4135 669.536 46.747C672.215 45.9429 674.527 46.5879 676.058 48.5573C677.751 50.7373 678.13 54.3363 676.887 56.4131C675.318 59.036 671.66 59.6509 671.505 59.6767C671.445 59.6853 671.394 59.6896 671.346 59.6896ZM671.69 48.3079C671.191 48.3079 670.65 48.3939 670.074 48.5659C668.939 48.9056 668.29 49.4387 668.084 50.2041C667.507 52.3583 670.263 56.082 671.677 57.6945C672.559 57.4666 674.416 56.8345 675.25 55.4413C676.019 54.1557 675.881 51.4382 674.553 49.7225C673.822 48.7809 672.864 48.3079 671.69 48.3079Z" fill="#0C0C0C"/>
<path d="M669.889 72.3184C669.889 72.3184 667.469 78.7251 660.556 77.7405C660.556 77.7405 659.778 77.2718 659.06 78.9788C658.338 80.6945 657.917 82.1822 657.272 83.2787C656.623 84.3837 658.863 84.3751 660.531 81.2835C660.531 81.2835 660.879 80.1054 662.59 80.6429C662.59 80.6429 660.943 81.7565 661.438 82.4187C661.928 83.0766 663.561 81.6189 664.765 81.0212C665.951 80.4322 672.03 78.7208 674.699 78.6133C675.967 78.5617 669.889 72.3184 669.889 72.3184Z" fill="#F3F2F2"/>
<path d="M657.569 84.8909C657.044 84.8909 656.61 84.6587 656.374 84.2546C656.258 84.0525 656.03 83.5064 656.451 82.7926C656.816 82.1691 657.117 81.3651 657.47 80.4363C657.685 79.8644 657.913 79.2495 658.188 78.6089C658.6 77.6328 659.142 77.0265 659.795 76.8158C660.178 76.6911 660.535 76.7255 660.806 76.8158C666.802 77.6027 668.917 72.215 669.003 71.9828C669.119 71.6775 669.382 71.4539 669.696 71.3894C670.014 71.3206 670.345 71.4238 670.568 71.656C676.277 77.5167 675.95 78.3337 675.735 78.8711C675.572 79.2796 675.185 79.5419 674.729 79.5591C672.18 79.658 666.244 81.3435 665.182 81.8681C664.872 82.0229 664.494 82.2637 664.129 82.4959C662.977 83.2355 661.549 84.1513 660.677 82.9775C660.655 82.9517 660.638 82.9259 660.621 82.8958C659.546 84.3233 658.377 84.8737 657.603 84.8866C657.59 84.8909 657.577 84.8909 657.569 84.8909ZM660.337 78.6605C660.26 78.7379 660.109 78.927 659.937 79.3441C659.675 79.9633 659.456 80.5524 659.249 81.1027C659.133 81.4166 659.017 81.7219 658.906 82.01C659.151 81.7219 659.408 81.3521 659.666 80.8878C659.765 80.6427 660.028 80.1439 660.634 79.8214C661.253 79.4903 662.009 79.4602 662.878 79.7354C663.226 79.8429 663.479 80.1439 663.531 80.5008C663.54 80.5438 663.54 80.5868 663.54 80.6255C663.81 80.4578 664.081 80.2987 664.344 80.1654C665.539 79.572 670.418 78.1918 673.457 77.7747C672.769 76.8416 671.458 75.3453 670.13 73.9306C668.926 75.9258 665.968 79.4645 660.432 78.6776C660.393 78.6733 660.363 78.6691 660.337 78.6605Z" fill="#0C0C0C"/>
<path d="M677.102 60.1194C677.102 60.1194 667.791 51.769 674.179 49.116C680.189 46.6178 684.015 54.4221 680.713 56.9246C678.676 58.4682 677.102 60.1194 677.102 60.1194Z" fill="#F3F2F2"/>
<path d="M677.102 61.0699C676.875 61.0699 676.651 60.9881 676.47 60.829C675.847 60.2701 670.388 55.2436 671.05 51.3436C671.213 50.3847 671.823 49.069 673.818 48.2391C677.481 46.717 680.554 48.5401 681.977 51.0168C683.4 53.4978 683.112 56.297 681.289 57.6816C679.338 59.1607 677.807 60.7603 677.79 60.7774C677.605 60.9709 677.356 61.0699 677.102 61.0699ZM676.501 49.5721C675.899 49.5721 675.245 49.7011 674.549 49.9891C673.577 50.3933 673.044 50.9394 672.924 51.6575C672.563 53.773 675.43 57.1398 677.089 58.7909C677.751 58.1502 678.852 57.1398 680.142 56.1637C681.332 55.2608 681.139 53.3645 680.331 51.9585C679.6 50.6857 678.276 49.5721 676.501 49.5721Z" fill="#0C0C0C"/>
<path d="M726.036 84.5258C724.243 83.683 718.319 85.3342 714.601 84.3968C709.769 83.1799 709.412 78.4157 709.339 78.3899C708.625 71.5661 706.459 62.9019 700.079 58.6536C691.989 53.2659 681.173 55.6996 681.173 55.6996C681.173 55.6996 679.381 52.2683 670.916 51.6921C670.916 51.6921 647.845 53.6013 643.757 61.3496C640.09 68.2939 660.187 70.2331 665.031 70.5814C665.732 70.633 666.373 70.9856 666.764 71.5316C667.903 73.1312 670.689 76.5539 675.245 79.5251C674.682 80.2776 673.951 81.1977 672.971 82.4232C671.209 84.6204 672.258 85.3901 670.035 87.3422C667.765 89.333 658.755 89.2642 661.283 90.6488C662.796 91.4787 668.66 90.4811 668.66 90.4811C668.66 90.4811 664.301 92.459 667.864 91.8656C671.312 91.2937 671.48 90.1242 671.48 90.1242C671.48 90.1242 671.48 90.1242 671.69 90.4252C671.901 90.7262 673.006 92.2139 673.728 91.612C674.166 91.2422 673.423 89.1954 673.423 89.1954C677.132 87.0541 679.781 83.7905 679.781 83.7905C681.586 84.1732 684.642 84.0872 685.997 84.0227C686.401 84.1087 686.796 84.2076 687.213 84.285C687.213 84.285 691.387 87.9442 696.89 89.4964C695.656 90.4682 694.108 90.0382 692.582 90.0554C692.109 89.5824 690.472 88.142 688.215 89.1352C686.775 89.7716 685.812 90.9412 682.059 91.3454C680.335 91.5303 679.462 93.0395 679.931 93.5211C680.228 93.8306 683.856 94.682 687.248 93.0868C687.965 92.7514 688.524 92.4332 689.775 92.2999L689.337 93.4136C688.744 94.7293 689.324 96.2472 691.327 93.7963C692.312 92.5923 693.124 92.2268 699.736 92.3386C703.084 92.3945 704.116 90.9111 704.43 89.8662C705.84 89.5652 707.254 89.032 708.638 88.1764C708.638 88.1764 709.133 90.1887 714.627 89.7415C719.772 89.3201 723.886 86.7746 724.183 86.9982C724.823 87.4755 722.915 88.8772 721.023 90.2962C719.789 91.2206 719.807 91.8183 720.37 91.7538C720.684 91.7237 731.052 86.8821 726.036 84.5258Z" fill="#F3F2F2"/>
<path d="M689.629 96.0666C689.371 96.0666 689.126 95.9935 688.894 95.8516C688.262 95.4603 688.03 94.6132 688.258 93.6716C688.129 93.7275 688 93.792 687.867 93.8522L687.66 93.9511C684.088 95.628 679.965 94.9228 679.256 94.1833C678.856 93.7705 678.757 93.147 678.99 92.5149C679.325 91.5862 680.378 90.5757 681.969 90.4037C684.565 90.1242 685.696 89.4621 686.689 88.8816C687.067 88.658 687.428 88.4516 687.841 88.2667C689.036 87.7421 690.089 87.755 690.962 88.0001C688.829 86.7961 687.325 85.6051 686.796 85.1665C686.581 85.1235 686.371 85.0762 686.16 85.0289L685.919 84.973C684.445 85.0418 681.96 85.0891 680.155 84.8182C679.346 85.7298 677.287 87.9012 674.566 89.6125C675.159 91.6507 674.579 92.1408 674.347 92.3343C674.003 92.6224 673.573 92.7428 673.135 92.6826C672.473 92.5966 671.879 92.1065 671.441 91.6163C670.8 92.0635 669.747 92.5063 668.032 92.7944C667.125 92.9449 665.882 93.1513 665.573 92.1365C665.543 92.0333 665.521 91.9302 665.517 91.8313C663.733 91.9818 661.781 91.986 660.84 91.47C659.959 90.9885 659.851 90.4123 659.916 90.0081C660.092 88.9332 661.382 88.6967 663.961 88.2323C665.887 87.884 668.526 87.4024 669.42 86.6199C670.448 85.7169 670.62 85.188 670.852 84.457C671.067 83.7819 671.338 82.9435 672.236 81.8212C672.89 81.0042 673.431 80.3249 673.887 79.7401C669.558 76.7259 666.953 73.415 665.999 72.0734C665.771 71.7552 665.388 71.5489 664.971 71.5188C659.215 71.1017 645.536 69.6183 642.858 64.7938C642.192 63.5942 642.218 62.244 642.927 60.8981C647.213 52.78 669.885 50.815 670.848 50.7376C670.895 50.7333 670.942 50.7333 670.99 50.7376C677.82 51.202 680.614 53.5196 681.586 54.6419C684.049 54.199 693.3 52.9821 700.612 57.8539C705.9 61.3711 709.24 68.41 710.28 78.205C710.298 78.2652 710.306 78.3211 710.315 78.3641C710.835 81.0902 712.4 82.8532 714.837 83.468C716.647 83.9238 719.14 83.7046 721.337 83.5068C723.59 83.309 725.369 83.1499 726.448 83.6573C728.344 84.5473 728.443 85.8244 728.331 86.5037C727.837 89.5222 721.023 92.631 720.49 92.6912C719.875 92.7643 719.351 92.4762 719.149 91.9602C718.857 91.2207 719.299 90.4037 720.469 89.5308L720.645 89.3975C720.679 89.3717 720.718 89.3416 720.752 89.3158C719.093 89.9092 717.012 90.494 714.717 90.6832C710.917 90.9928 709.171 90.1801 708.376 89.4276C707.353 89.9737 706.274 90.3908 705.148 90.6746C704.602 91.857 703.205 93.2975 699.736 93.2846C693.072 93.1685 692.741 93.5813 692.075 94.394C691.164 95.5119 690.347 96.0666 689.629 96.0666ZM689.78 91.3582C690.072 91.3582 690.356 91.4958 690.536 91.7323C690.738 91.9946 690.785 92.3472 690.665 92.6568L690.321 93.5254C690.407 93.4308 690.497 93.3233 690.601 93.2029C691.942 91.5603 693.313 91.2852 699.761 91.397C701.21 91.4228 703.071 91.1304 703.527 89.5996C703.626 89.2685 703.901 89.0148 704.236 88.946C705.621 88.6493 706.936 88.1205 708.144 87.3766C708.428 87.2003 708.767 87.1057 709.064 87.2605C709.361 87.411 709.541 87.626 709.563 87.9614C709.704 88.2409 710.921 89.1094 714.553 88.8042C717.962 88.5247 720.941 87.2562 722.541 86.5725C723.766 86.0479 724.226 85.8502 724.755 86.2458C725.077 86.4866 725.262 86.852 725.262 87.2476C725.262 87.4583 725.214 87.6604 725.116 87.8711C725.881 87.2433 726.427 86.6241 726.448 86.1511C726.465 85.8286 725.941 85.5363 725.627 85.3858C725.017 85.0977 723.142 85.2654 721.492 85.4073C719.145 85.618 716.484 85.8502 714.364 85.317C711.205 84.5215 709.098 82.1781 708.441 78.7253L708.449 78.721C708.419 78.6479 708.402 78.5662 708.393 78.4845C707.718 72.0305 705.633 63.4866 699.551 59.4405C691.907 54.3495 681.483 56.5983 681.38 56.6241C680.958 56.723 680.529 56.5166 680.331 56.1382C680.322 56.1253 678.555 53.1799 670.921 52.6468C664.593 53.1799 647.733 55.8415 644.591 61.7968C644.178 62.5837 644.148 63.2459 644.505 63.8866C646.323 67.1673 656.735 69.0378 665.096 69.6398C666.085 69.7129 666.974 70.203 667.533 70.9856C668.488 72.3228 671.196 75.7584 675.761 78.7339C675.98 78.8758 676.131 79.1037 676.178 79.366C676.225 79.624 676.161 79.8906 676.002 80.1013C675.434 80.8623 674.699 81.7911 673.706 83.0251C673.027 83.8722 672.842 84.4441 672.645 85.0504C672.365 85.9147 672.077 86.8133 670.654 88.0603C669.511 89.0622 667.254 89.5609 665.096 89.9651C666.192 89.8834 667.4 89.7372 668.492 89.548C668.969 89.4749 669.42 89.7501 669.558 90.2059C669.584 90.2876 669.597 90.365 669.597 90.4467C670.293 90.1715 670.512 89.9178 670.56 89.8533C670.658 89.5308 670.916 89.2815 671.247 89.2041C671.626 89.1138 672.021 89.2642 672.245 89.5824L672.455 89.8834C672.55 90.0167 672.649 90.1457 672.748 90.2575C672.683 90.0167 672.602 89.7544 672.516 89.5179C672.356 89.0837 672.533 88.6021 672.933 88.3699C676.436 86.3489 679.007 83.2186 679.028 83.1885C679.252 82.9133 679.613 82.7844 679.961 82.8575C681.681 83.223 684.711 83.1284 685.936 83.0682C686.022 83.0682 686.104 83.0724 686.181 83.0896L686.555 83.1714C686.822 83.2316 687.084 83.2918 687.364 83.3434C687.531 83.3735 687.69 83.4508 687.819 83.5626C687.858 83.597 691.907 87.1057 697.126 88.5719C697.47 88.6708 697.728 88.9504 697.801 89.2986C697.87 89.6469 697.737 90.0081 697.457 90.2274C696.241 91.1862 694.852 91.1046 693.623 91.0315C693.274 91.01 692.926 90.9971 692.574 90.9928C692.324 91.0272 692.075 90.8982 691.894 90.7176C691.327 90.15 690.141 89.3029 688.58 89.9952C688.266 90.1328 687.965 90.3091 687.622 90.5112C686.521 91.1562 685.145 91.9602 682.145 92.2827C681.53 92.3472 681.13 92.6439 680.92 92.8847C681.999 93.1298 684.488 93.319 686.826 92.2225L687.024 92.1279C687.682 91.814 688.365 91.4873 689.659 91.3497C689.715 91.3626 689.749 91.3582 689.78 91.3582ZM720.374 91.7581H720.383H720.374ZM670.542 89.9909C670.542 89.9952 670.542 89.9952 670.542 89.9909C670.542 89.9952 670.542 89.9952 670.542 89.9909ZM670.542 89.9866C670.542 89.9909 670.542 89.9909 670.542 89.9866C670.542 89.9909 670.542 89.9909 670.542 89.9866ZM692.961 89.1137C693.021 89.1137 693.077 89.118 693.137 89.1223C693.004 89.0621 692.875 89.0019 692.746 88.9417C692.823 88.9976 692.892 89.0578 692.961 89.1137Z" fill="#0C0C0C"/>
<path d="M659.095 59.3111C658.751 58.9327 658.708 58.4124 658.987 58.034C659.404 57.4664 660.217 56.6839 661.489 56.714C662.68 56.7441 663.501 57.4793 663.961 58.0469C664.382 58.5672 664.378 59.2681 663.944 59.711C663.561 60.0979 662.86 60.4376 661.562 60.3516C660.255 60.2613 659.507 59.7583 659.095 59.3111Z" fill="#0C0C0C"/>
<path d="M673.027 104.236L715.908 56.2325L712.585 51.7434L667.658 99.7856L673.027 104.236Z" fill="#0C0C0C"/>
<path d="M522.35 276.088C523.016 228.657 536.291 190.9 552.562 190.9C569.263 190.9 582.8 230.609 582.8 279.79C582.8 290.437 582.164 300.692 580.999 310.1L522.35 276.088Z" fill="#F3F2F2"/>
<path d="M580.999 311.05C580.835 311.05 580.668 311.007 580.521 310.921L521.873 276.909C521.576 276.737 521.396 276.419 521.4 276.075C522.079 227.779 535.767 189.949 552.562 189.949C570.05 189.949 583.75 229.413 583.75 279.79C583.75 290.286 583.139 300.524 581.94 310.216C581.901 310.534 581.708 310.809 581.42 310.951C581.291 311.016 581.145 311.05 580.999 311.05ZM523.309 275.546L580.229 308.556C581.308 299.363 581.85 289.693 581.85 279.79C581.85 231.301 568.713 191.85 552.562 191.85C537.142 191.845 524.057 229.34 523.309 275.546Z" fill="#0C0C0C"/>
<path d="M725.791 315.87H720.972C720.705 315.87 720.447 315.759 720.267 315.561C720.086 315.363 720 315.096 720.026 314.83C724.759 266.985 717.657 247.757 710.869 240.051C706.996 235.657 703.312 235.093 701.906 235.055L701.618 235.046C695.604 234.866 679.613 234.41 674.239 272.425C669.459 306.247 656.374 311.798 650.089 314.464C649.057 314.903 648.163 315.281 647.755 315.634C647.583 315.784 647.363 315.866 647.136 315.866H563.838C563.554 315.866 563.288 315.741 563.107 315.522C562.926 315.303 562.853 315.015 562.905 314.74C563.326 312.529 564.147 308.943 565.097 304.79C567.625 293.748 571.447 277.056 571.447 269.699C571.447 238.615 562.802 212.356 552.566 212.356C545.791 212.356 538.514 221.304 532.598 236.908C532.414 237.398 531.863 237.648 531.373 237.458C530.883 237.273 530.638 236.723 530.823 236.233C537.125 219.61 544.85 210.455 552.566 210.455C564.216 210.455 573.342 236.478 573.342 269.699C573.342 277.271 569.645 293.421 566.942 305.211C566.142 308.694 565.437 311.781 564.986 313.966H646.8C647.428 313.523 648.288 313.157 649.336 312.714C655.303 310.182 667.718 304.914 672.348 272.158C677.962 232.462 695.183 232.948 701.661 233.146L701.949 233.154C703.6 233.202 707.92 233.838 712.284 238.791C719.274 246.72 726.599 266.207 722.008 313.97H725.782C731.547 313.97 739.405 304.751 739.482 304.656C746.197 294.99 751.803 284.598 751.803 255.969V169.946C751.803 156.303 751.201 143.047 750.019 130.556L738.137 8.34107C737.999 6.87053 736.791 5.76547 735.325 5.76547C735.171 5.76547 613.553 3.66715 589.175 3.24577C588.65 3.23717 588.233 2.80288 588.242 2.2783C588.251 1.75802 588.676 1.34521 589.192 1.34521C589.196 1.34521 589.205 1.34521 589.209 1.34521C590.662 1.37101 734.723 3.85635 735.338 3.86494C737.776 3.86494 739.796 5.70957 740.028 8.15618L751.91 130.371C753.101 142.926 753.703 156.243 753.703 169.946V255.969C753.703 282.495 749.236 293.95 740.991 305.809C740.596 306.295 732.424 315.87 725.791 315.87Z" fill="#0C0C0C"/>
<path d="M499.923 226.111C499.399 226.111 498.973 225.685 498.973 225.161V157.253C498.973 149.66 502.743 142.827 509.054 138.979L511.633 137.298C521.821 131.084 529.413 121.418 533.028 110.071L560.214 24.7619C562.798 16.6524 568.304 9.88878 575.715 5.70933C576.171 5.44704 576.751 5.61472 577.009 6.0705C577.267 6.52628 577.104 7.10677 576.648 7.36476C569.654 11.3077 564.461 17.693 562.024 25.3424L534.838 110.651C531.081 122.437 523.201 132.469 512.643 138.906L510.064 140.587C504.3 144.104 500.869 150.33 500.869 157.253V225.161C500.873 225.689 500.448 226.111 499.923 226.111Z" fill="#0C0C0C"/>
<path d="M458.423 160.31C475.773 157.094 509.114 150.566 520.192 146.004C521.116 145.626 522.105 146.365 522.002 147.359L518.662 180.21C517.875 187.932 511.861 194.085 504.162 195.048L459.416 200.642C454.704 201.231 450.053 199.176 447.315 195.302L437.225 181.022C435.893 179.135 435.979 176.589 437.44 174.8L440.682 170.827C445.165 165.332 451.45 161.604 458.423 160.31Z" fill="#F3F2F2"/>
<path d="M457.817 201.692C453.367 201.692 449.159 199.546 446.545 195.848L436.452 181.569C434.878 179.341 434.981 176.31 436.705 174.199L439.947 170.226C444.568 164.558 451.068 160.706 458.251 159.373C476.581 155.972 508.951 149.604 519.831 145.123C520.575 144.818 521.404 144.921 522.049 145.403C522.694 145.884 523.029 146.65 522.948 147.454L519.608 180.305C518.774 188.517 512.472 194.967 504.282 195.99L459.536 201.584C458.96 201.658 458.384 201.692 457.817 201.692ZM458.599 161.243C451.858 162.495 445.754 166.111 441.417 171.43L438.175 175.403C436.989 176.856 436.916 178.946 437.999 180.476L448.088 194.756C450.633 198.355 454.928 200.252 459.3 199.705L504.046 194.111C511.35 193.2 516.972 187.447 517.716 180.12L521.056 147.269C521.073 147.088 520.974 146.981 520.91 146.933C520.85 146.89 520.721 146.822 520.549 146.89C509.514 151.427 476.998 157.829 458.599 161.243Z" fill="#0C0C0C"/>
<path d="M202.877 183.465C201.617 188.505 204.536 193.647 209.51 195.144L226.984 200.398C229.658 201.107 232.478 199.934 233.858 197.534L244.231 179.492C245.908 176.573 246.045 173.017 244.596 169.981L244.485 169.749C242.632 165.857 239.219 162.929 235.083 161.721C229.469 160.078 220.88 157.03 212.476 151.952C211.732 151.504 210.769 151.887 210.563 152.73L202.877 183.465Z" fill="#F3F2F2"/>
<path d="M228.545 201.55C227.947 201.55 227.341 201.473 226.739 201.314L209.235 196.051C203.766 194.404 200.568 188.776 201.952 183.233L209.639 152.493C209.811 151.801 210.288 151.251 210.945 150.98C211.607 150.705 212.347 150.765 212.962 151.139C221.237 156.14 229.701 159.158 235.341 160.809C239.717 162.091 243.358 165.2 245.336 169.34L245.448 169.572C247.03 172.892 246.879 176.779 245.048 179.97L234.675 198.012C233.398 200.235 231.029 201.55 228.545 201.55ZM211.81 152.708C211.754 152.708 211.711 152.721 211.676 152.734C211.607 152.76 211.517 152.825 211.487 152.958L203.801 183.697C202.662 188.255 205.293 192.882 209.789 194.236L227.264 199.491C229.49 200.084 231.876 199.087 233.041 197.061L243.414 179.019C244.936 176.371 245.061 173.146 243.745 170.389L243.633 170.157C241.892 166.502 238.681 163.759 234.821 162.633C229.069 160.947 220.441 157.873 211.99 152.764C211.926 152.721 211.861 152.708 211.81 152.708ZM202.877 183.465H202.885H202.877Z" fill="#0C0C0C"/>
<path d="M541.248 161.222C540.216 161.222 539.21 160.839 538.419 160.121C537.336 159.132 536.854 157.683 537.129 156.247C545.448 112.642 561.792 55.8067 568.429 33.3959C569.731 28.9972 573.686 25.854 578.269 25.5788L582.176 25.3423C584.025 25.2391 585.787 25.8626 587.146 27.1182C588.504 28.3737 589.27 30.0807 589.3 31.9297C589.441 39.8629 589.798 58.808 590.624 96.5778C591.617 141.946 557.252 156.784 542.43 161.058C542.039 161.17 541.639 161.222 541.248 161.222ZM570.252 33.9334C565.076 51.3994 547.532 111.86 538.995 156.599C538.845 157.399 539.098 158.169 539.7 158.715C540.298 159.261 541.123 159.45 541.905 159.227C556.306 155.073 589.691 140.66 588.728 96.6123C587.902 58.8424 587.541 39.893 587.404 31.9598C587.378 30.6354 586.832 29.41 585.861 28.507C584.885 27.604 583.621 27.1611 582.297 27.2342L578.389 27.4707C574.598 27.7029 571.326 30.3 570.252 33.9334Z" fill="#0C0C0C"/>
<path d="M531.713 298.611C531.709 298.611 531.704 298.611 531.7 298.611L251.264 294.375C222.793 294.014 199.631 270.546 199.631 242.068V203.412C199.631 196.072 200.534 188.745 202.318 181.625L208.882 155.43C210.537 148.821 213.722 142.569 218.09 137.341L229.224 124.02L274.297 24.5084C279.64 12.7225 291.449 4.99144 304.384 4.80654C384.398 0.528196 465.628 -0.903663 545.783 0.549685L589.717 1.34945C590.241 1.35805 590.658 1.79233 590.649 2.31692C590.641 2.8415 590.189 3.27577 589.682 3.24997L545.748 2.45021C465.636 0.996862 384.449 2.42442 304.449 6.70707C292.206 6.88336 281.063 14.1802 276.025 25.2996L230.9 124.927C230.866 125.004 230.819 125.078 230.763 125.142L219.547 138.562C215.365 143.567 212.312 149.561 210.726 155.895L204.162 182.089C202.417 189.055 201.531 196.231 201.531 203.412V242.068C201.531 269.514 223.855 292.127 251.29 292.479L531.726 296.715C532.25 296.723 532.667 297.153 532.659 297.678C532.65 298.198 532.229 298.611 531.713 298.611Z" fill="#0C0C0C"/>
<path d="M577.62 305.628C577.62 273.358 564.315 247.198 547.906 247.198C547.692 247.198 547.477 247.219 547.262 247.228C541.011 247.228 522.449 247.228 516.968 247.228C516.921 247.228 516.878 247.228 516.83 247.228C500.418 247.228 487.113 273.371 487.113 305.641C487.113 337.761 500.293 363.818 516.598 364.059C516.676 364.059 547.842 364.098 547.902 364.098C564.315 364.098 577.615 337.933 577.615 305.663C577.615 305.658 577.615 305.654 577.615 305.65C577.62 305.646 577.62 305.637 577.62 305.628Z" fill="#0C0C0C"/>
<path d="M575.647 327.561C575.586 327.561 575.526 327.557 575.462 327.544C574.946 327.445 574.611 326.947 574.714 326.431C576.012 319.8 576.67 312.8 576.67 305.628C576.67 273.934 563.765 248.148 547.902 248.148C547.502 248.148 547.107 248.165 546.711 248.195C546.187 248.251 545.731 247.851 545.688 247.326C545.645 246.806 546.032 246.346 546.557 246.303C547.004 246.264 547.455 246.247 547.906 246.247C564.814 246.247 578.57 272.885 578.57 305.624C578.57 312.916 577.899 320.037 576.579 326.787C576.489 327.248 576.089 327.561 575.647 327.561Z" fill="#0C0C0C"/>
<path d="M547.902 345.44C559.084 345.44 568.149 327.616 568.149 305.628C568.149 283.64 559.084 265.816 547.902 265.816C536.72 265.816 527.655 283.64 527.655 305.628C527.655 327.616 536.72 345.44 547.902 345.44Z" fill="#F3F2F2"/>
<path d="M490.866 125.228H251.376C248.685 125.228 246.208 123.882 244.747 121.625C243.285 119.368 243.066 116.555 244.167 114.1L279.881 34.3467C283.204 26.9294 289.269 22.7629 296.96 22.621L310.544 21.8728C387.531 17.6245 465.645 16.7302 542.714 19.2155C544.755 19.28 546.608 20.2733 547.79 21.9416C548.973 23.6099 549.304 25.6825 548.689 27.6346L526.258 99.227C521.387 114.78 507.163 125.228 490.866 125.228ZM457.288 19.7401C408.325 19.7401 359.267 21.0859 310.652 23.7647L297.029 24.5172C288.13 24.6849 283.737 30.3779 281.613 35.1249L245.899 114.878C245.065 116.745 245.228 118.882 246.342 120.597C247.451 122.313 249.334 123.336 251.376 123.336H490.866C506.329 123.336 519.827 113.421 524.448 98.6595L546.879 27.067C547.309 25.6868 547.081 24.2205 546.243 23.0423C545.405 21.8642 544.098 21.1633 542.653 21.116C514.307 20.1958 485.81 19.7401 457.288 19.7401Z" fill="#0C0C0C"/>
<path d="M528.252 38.4319C528.252 38.4319 419.931 37.3785 361.696 40.1734L357.117 40.2464C345.996 40.427 337.076 49.4911 337.076 60.6148V74.2067C337.076 83.0945 340.541 91.6296 346.731 98.0063L346.929 98.2084C352.144 103.575 359.305 106.606 366.785 106.606H489.206C501.11 106.606 511.638 99.8853 515.197 90.0129L532.1 43.136C532.921 40.8485 531.008 38.505 528.252 38.4319Z" fill="#F3F2F2"/>
<path d="M425.133 118.267H369.524C369.227 118.267 368.948 118.13 368.767 117.893C368.587 117.657 368.526 117.351 368.608 117.068L379.407 77.7239C380.666 73.136 384.866 69.9326 389.621 69.9326H415.495C421.337 69.9326 426.087 74.684 426.087 80.5274V117.317C426.083 117.841 425.657 118.267 425.133 118.267ZM370.766 116.367H424.187V80.5274C424.187 75.7331 420.288 71.8332 415.495 71.8332H389.621C385.717 71.8332 382.27 74.4604 381.238 78.227L370.766 116.367Z" fill="#0C0C0C"/>
<path d="M494.7 118.267H475.867C475.571 118.267 475.291 118.13 475.111 117.893C474.93 117.657 474.87 117.351 474.952 117.068L485.75 77.7239C487.01 73.136 491.21 69.9326 495.964 69.9326H521.839C522.316 69.9326 523.188 70.1218 523.67 71.3774C523.919 72.0309 524.04 72.8995 524.04 74.0347C524.04 79.2977 521.271 90.1978 516.143 100.032C511.805 108.352 504.562 118.267 494.7 118.267ZM477.114 116.367H494.7C507.756 116.367 516.16 96.295 518.425 90.1462C522.268 79.7148 522.642 72.5598 521.757 71.803L495.964 71.8332C492.061 71.8332 488.613 74.4604 487.581 78.227L477.114 116.367Z" fill="#0C0C0C"/>
<path d="M501.578 314.77H226.778C220.037 314.77 213.589 312.013 208.925 307.146L206.758 304.884C201.222 299.097 197.52 291.8 196.123 283.914L190.509 252.159C189.924 248.857 190.698 245.465 192.65 242.738L200.461 231.856L237.856 237.058C242.563 237.712 247.012 239.587 250.769 242.498L252.562 243.887C255.167 245.903 258.37 247 261.663 247H409.919C413.376 247 416.724 245.796 419.39 243.594L420.228 242.902C424.66 239.238 430.137 237.076 435.871 236.719L547.098 229.83L528.282 286.571C525.776 294.126 521.946 301.178 516.968 307.387C516.972 307.382 511.087 314.77 501.578 314.77Z" fill="#F3F2F2"/>
<path d="M501.578 315.72H226.778C219.814 315.72 213.056 312.835 208.241 307.804L206.075 305.542C200.388 299.604 196.626 292.183 195.19 284.082L189.576 252.327C188.953 248.797 189.791 245.104 191.88 242.188L199.691 231.305C199.898 231.022 200.241 230.867 200.594 230.918L237.989 236.121C242.851 236.796 247.472 238.744 251.354 241.75L253.147 243.139C255.576 245.018 258.602 246.054 261.667 246.054H409.919C413.148 246.054 416.295 244.923 418.784 242.863L419.622 242.171C424.234 238.357 429.836 236.143 435.811 235.769L547.038 228.88C547.365 228.872 547.657 229.001 547.851 229.25C548.044 229.499 548.1 229.831 548.001 230.127L529.185 286.868C526.636 294.556 522.776 301.659 517.707 307.98C517.462 308.29 511.431 315.72 501.578 315.72ZM200.903 232.875L193.428 243.293C191.635 245.792 190.913 248.965 191.45 251.992L197.065 283.746C198.432 291.477 202.021 298.559 207.451 304.226L209.617 306.488C214.079 311.149 220.334 313.819 226.786 313.819H501.583C510.533 313.819 516.177 306.858 516.233 306.789C521.159 300.64 524.912 293.739 527.393 286.266L545.766 230.858L435.94 237.661C430.365 238.009 425.146 240.073 420.843 243.629L420.004 244.321C417.176 246.656 413.599 247.946 409.932 247.946H261.667C258.181 247.946 254.742 246.768 251.982 244.635L250.189 243.246C246.57 240.443 242.258 238.628 237.723 237.996L200.903 232.875Z" fill="#0C0C0C"/>
<path d="M501.578 315.72H226.778C219.814 315.72 213.056 312.835 208.241 307.804L206.075 305.542C200.388 299.604 196.626 292.183 195.19 284.082L189.576 252.327C188.953 248.797 189.791 245.104 191.88 242.188L199.691 231.305C199.898 231.022 200.241 230.867 200.594 230.918L237.989 236.121C242.851 236.796 247.472 238.744 251.354 241.75L253.147 243.139C255.576 245.018 258.602 246.054 261.667 246.054H409.919C413.148 246.054 416.295 244.923 418.784 242.863L419.622 242.171C424.234 238.357 429.836 236.143 435.811 235.769L547.038 228.88C547.365 228.872 547.657 229.001 547.851 229.25C548.044 229.499 548.1 229.831 548.001 230.127L529.185 286.868C526.636 294.556 522.776 301.659 517.707 307.98C517.462 308.29 511.431 315.72 501.578 315.72ZM200.903 232.875L193.428 243.293C191.635 245.792 190.913 248.965 191.45 251.992L197.065 283.746C198.432 291.477 202.021 298.559 207.451 304.226L209.617 306.488C214.079 311.149 220.334 313.819 226.786 313.819H501.583C510.533 313.819 516.177 306.858 516.233 306.789C521.159 300.64 524.912 293.739 527.393 286.266L545.766 230.858L435.94 237.661C430.365 238.009 425.146 240.073 420.843 243.629L420.004 244.321C417.176 246.656 413.599 247.946 409.932 247.946H261.667C258.181 247.946 254.742 246.768 251.982 244.635L250.189 243.246C246.57 240.443 242.258 238.628 237.723 237.996L200.903 232.875Z" fill="#0C0C0C"/>
<path d="M338.087 295.184H294.553C288.216 295.184 282.202 292.135 278.454 287.027L272.719 279.201C271.718 277.838 271.571 276.049 272.337 274.54C273.102 273.031 274.628 272.094 276.317 272.094H367.25C367.774 272.094 368.2 272.519 368.2 273.044C368.2 273.568 367.774 273.994 367.25 273.994H276.317C275.329 273.994 274.473 274.519 274.026 275.4C273.579 276.282 273.661 277.283 274.245 278.079L279.98 285.905C283.372 290.527 288.814 293.287 294.548 293.287H338.087C338.611 293.287 339.037 293.713 339.037 294.238C339.037 294.762 338.611 295.184 338.087 295.184Z" fill="#0C0C0C"/>
<path d="M552.962 90.1713C547.597 111.056 540.891 138.785 537.443 156.862C536.988 159.248 539.201 161.291 541.536 160.616C545.104 159.588 550.236 157.799 555.825 154.862C557.054 154.218 557.802 152.915 557.746 151.53L555.257 90.4207C555.197 89.0748 553.293 88.8685 552.962 90.1713Z" fill="#0C0C0C"/>
<path d="M613.523 154.011H602.265C598.551 154.011 595.309 151.5 594.381 147.901L589.974 130.822C587.847 122.575 588.225 113.881 591.058 105.844L592.614 101.433C594.617 95.7567 599.978 91.96 605.996 91.96H611.825C617.495 91.96 622.267 96.2039 622.933 101.837L627.262 138.54C628.238 146.774 621.807 154.011 613.523 154.011Z" fill="#0C0C0C"/>
<path d="M596.78 123.912L551.346 123.632L552.609 110.767L598.043 111.047L596.78 123.912Z" fill="#0C0C0C"/>
<path d="M599.767 152.27L554.191 154.514V141.585L599.767 139.344V152.27Z" fill="#0C0C0C"/>
<path d="M107.03 322.511C108.216 322.272 108.057 321.185 107.967 320.806C107.943 320.732 107.929 320.735 107.925 320.816C107.871 321.79 106.833 322.04 106.833 322.04C107.199 321.004 105.654 320.395 105.654 320.395C105.856 319.634 104.943 319.335 104.943 319.335C105.578 318.269 104.248 317.75 104.248 317.75C105.364 316.636 103.967 315.777 103.967 315.777C103.967 315.777 105.643 314.939 104.706 311.561C103.763 308.191 100.529 306.122 100.529 306.122C101.172 304.171 98.6312 300.182 97.2204 297.285C95.8096 294.387 92.8336 292.934 92.8336 292.934C92.8336 292.934 92.8036 292.666 92.8825 292.431C92.9296 292.283 91.2117 292.24 89.9631 292.225C90.3478 290.251 90.6688 288.581 90.9174 287.339C91.6262 286.083 92.0368 285.348 92.0368 285.348C96.4687 283.376 97.1757 279.507 96.9036 276.389C98.3085 276.16 99.7986 275 100.262 274.833C101 274.57 102.413 274.607 102.794 274.531C103.181 274.446 102.793 273.438 102.793 273.438C105.52 273.722 107.993 271.767 110.468 269.552C112.942 267.336 112.511 265.505 112.511 265.505C113.616 265.393 114.424 264.557 114.975 263.9C115.521 263.252 116.393 262.611 117.002 262.347C117.61 262.083 116.931 261.566 116.931 261.566C117.135 261.341 118.068 260.774 120.461 260.133C122.854 259.491 123.624 258.844 124.175 258.354C124.735 257.869 124.747 257.034 124.488 257.308C124.23 257.582 123.48 257.993 122.251 258.263C121.022 258.533 116.333 260.424 116.333 260.424C116.257 260.042 115.868 259.758 115.581 260.263C115.294 260.768 114.506 261.368 113.057 262.482C111.607 263.597 111.418 264.283 111.418 264.283C110.475 263.715 108.234 265.38 106.776 267.213C105.313 269.055 102.534 272.322 102.534 272.322C102.545 272.044 102.364 272.012 101.341 272.461C100.317 272.91 99.0051 272.474 96.9442 272.782C96.6841 272.817 96.447 272.891 96.2435 272.986C95.9985 272.2 95.798 271.716 95.798 271.716C96.7548 271.556 100.237 270.567 101.654 266.832C102.706 264.038 101.8 261.168 101.266 259.888C101.313 259.87 101.359 259.853 101.406 259.835C101.665 259.728 101.932 259.625 102.21 259.507C102.48 259.382 102.749 259.258 103.019 259.134C103.56 258.863 104.121 258.58 104.664 258.251C104.798 258.171 104.941 258.096 105.075 258.016C105.21 257.936 105.35 257.847 105.476 257.762C105.742 257.587 106.01 257.427 106.276 257.253C106.802 256.913 107.337 256.578 107.849 256.241C107.984 256.161 108.11 256.075 108.236 255.99C108.365 255.918 108.491 255.833 108.62 255.761C108.875 255.603 109.133 255.46 109.383 255.311C109.503 255.234 109.632 255.162 109.748 255.093C109.805 255.059 109.868 255.016 109.926 254.982C109.983 254.947 110.049 254.918 110.107 254.884C110.346 254.752 110.593 254.625 110.827 254.502C111.291 254.241 111.739 254.041 112.157 253.833C112.261 253.781 112.36 253.738 112.465 253.686C112.564 253.642 112.657 253.607 112.756 253.564C112.949 253.485 113.128 253.41 113.302 253.343C113.47 253.284 113.632 253.234 113.781 253.187C113.856 253.163 113.93 253.14 113.991 253.119C114.06 253.104 114.129 253.089 114.19 253.068C114.314 253.041 114.43 253.008 114.527 252.987C114.623 252.966 114.709 252.961 114.778 252.946C114.911 252.924 114.988 252.915 114.988 252.915L115.011 252.917C115.268 252.868 115.455 252.631 115.419 252.371C115.389 252.103 115.144 251.91 114.87 251.949C114.87 251.949 114.793 251.958 114.638 251.978C114.56 251.988 114.469 252.001 114.35 252.019C114.24 252.044 114.107 252.066 113.969 252.096C113.9 252.111 113.822 252.121 113.748 252.145C113.673 252.168 113.591 252.186 113.502 252.213C113.34 252.263 113.155 252.311 112.964 252.367C112.777 252.437 112.581 252.502 112.375 252.584C112.267 252.622 112.16 252.66 112.052 252.698C111.945 252.736 111.84 252.788 111.727 252.834C111.284 253.026 110.8 253.226 110.311 253.471C110.064 253.598 109.808 253.719 109.552 253.84C109.486 253.869 109.428 253.904 109.357 253.941C109.299 253.975 109.228 254.013 109.162 254.042C109.033 254.114 108.904 254.185 108.775 254.257C108.517 254.401 108.245 254.547 107.978 254.685C107.844 254.766 107.707 254.832 107.572 254.912C107.438 254.992 107.309 255.064 107.174 255.144C106.642 255.457 106.096 255.772 105.564 256.084C105.295 256.245 105.023 256.391 104.754 256.552C104.625 256.623 104.491 256.704 104.362 256.775C104.224 256.842 104.095 256.914 103.958 256.98C103.428 257.27 102.894 257.51 102.374 257.748C102.115 257.855 101.857 257.962 101.603 258.062C101.355 258.152 101.121 258.24 100.892 258.319C100.614 257.251 99.7384 256.096 99.7384 256.096C99.9762 255.762 99.5547 255.326 99.3337 254.781C99.1127 254.236 99.1548 254.263 99.6955 253.362C100.245 252.467 98.9427 250.494 98.1593 249.993C97.376 249.491 95.0392 249.136 94.4564 250.009C93.8736 250.883 93.9073 250.905 93.3197 250.932C92.7321 250.96 92.1513 250.755 91.9556 251.116C91.9556 251.116 90.5405 250.804 89.454 250.999C89.4355 250.75 89.4085 250.495 89.39 250.246C89.3738 249.974 89.3714 249.7 89.3522 249.414C89.3498 248.843 89.3444 248.258 89.3858 247.655C89.3969 247.508 89.3996 247.355 89.4023 247.203C89.4134 247.055 89.4299 246.9 89.441 246.752C89.4686 246.45 89.5016 246.138 89.5262 245.822C89.5922 245.199 89.6498 244.571 89.705 243.965C89.7215 243.81 89.7326 243.662 89.7491 243.507C89.7572 243.346 89.7683 243.198 89.7848 243.043C89.804 242.735 89.8262 242.44 89.84 242.14C89.8511 241.993 89.8538 241.84 89.8649 241.693C89.869 241.613 89.876 241.546 89.8747 241.474C89.8733 241.402 89.8804 241.335 89.8844 241.254C89.8874 240.971 89.8989 240.694 89.9019 240.411C89.9278 239.869 89.8985 239.34 89.8867 238.858C89.8816 238.736 89.885 238.619 89.8745 238.506C89.8641 238.392 89.8536 238.279 89.8432 238.165C89.8307 237.943 89.8074 237.738 89.7926 237.539C89.764 237.343 89.7299 237.155 89.7073 236.986C89.6891 236.903 89.6847 236.817 89.6665 236.734C89.6568 236.657 89.6332 236.582 89.618 236.513C89.5793 236.37 89.552 236.245 89.5277 236.135C89.5035 236.024 89.463 235.939 89.4448 235.856C89.3976 235.707 89.3741 235.633 89.3741 235.633C89.2972 235.382 89.0338 235.237 88.7744 235.308C88.5149 235.38 88.3563 235.646 88.4277 235.906L88.4392 235.925C88.4392 235.925 88.4543 235.994 88.4985 236.129C88.5136 236.198 88.5456 236.278 88.5669 236.375C88.5881 236.471 88.6124 236.582 88.6343 236.715C88.641 236.778 88.6616 236.839 88.6713 236.916C88.6811 236.994 88.6825 237.066 88.6976 237.135C88.7172 237.29 88.7398 237.459 88.7569 237.636C88.7687 237.822 88.7752 238.016 88.7846 238.224C88.792 238.323 88.794 238.432 88.7961 238.54C88.7981 238.648 88.7947 238.764 88.7914 238.881C88.7833 239.339 88.7897 239.83 88.7416 240.369C88.7271 240.633 88.7073 240.905 88.6874 241.177C88.6803 241.244 88.6817 241.316 88.6746 241.383C88.6675 241.449 88.6551 241.524 88.648 241.591C88.6285 241.733 88.6227 241.872 88.6032 242.014C88.5726 242.303 88.5419 242.592 88.5059 242.889C88.4948 243.036 88.4699 243.187 88.4587 243.334C88.4338 243.484 88.4173 243.64 88.3924 243.79C88.3095 244.402 88.2213 245.022 88.1331 245.642C88.0863 245.957 88.0532 246.268 88.0064 246.582C87.9899 246.738 87.968 246.902 87.9431 247.052C87.9266 247.208 87.9185 247.369 87.902 247.525C87.8306 248.156 87.8091 248.783 87.7899 249.388C87.7846 249.693 87.793 249.996 87.79 250.279C87.8038 250.572 87.8092 250.861 87.8284 251.146C87.8321 251.196 87.8358 251.246 87.8395 251.296C86.4619 251.352 83.4729 251.719 81.3714 253.853C78.5732 256.704 79.134 260.28 79.3901 261.216C79.3901 261.216 78.8631 261.223 78.0468 261.33C78.0481 261.105 78.0104 260.867 77.939 260.608C77.3466 258.602 76.4065 257.585 76.3886 256.481C76.3677 255.364 76.2622 255.213 76.015 255.34C76.015 255.34 77.8172 251.448 78.8763 249.347C79.9301 247.255 80.4946 244.518 79.5927 243.905C79.5927 243.905 80.1415 243.437 80.541 241.663C80.9405 239.888 81.1554 238.921 81.4986 238.441C81.8365 237.968 81.4161 237.735 81.0377 237.825C81.0377 237.825 80.7905 232.776 80.5206 231.546C80.2506 230.317 80.315 229.456 80.45 229.115C80.5905 228.765 79.8456 229.132 79.6314 229.837C79.4256 230.549 79.1524 231.514 79.5726 233.955C79.9929 236.397 79.869 237.481 79.7494 237.761C79.7494 237.761 78.9957 237.361 79.0109 238.024C79.0261 238.687 78.8017 239.742 78.4501 240.514C78.0845 241.29 77.6638 242.374 78.0247 243.424C78.0247 243.424 76.1869 243.791 75.2063 246.975C74.2311 250.15 73.4924 253.215 74.8931 255.572C74.8931 255.572 73.8153 255.642 73.9002 256.029C73.9821 256.402 74.6108 257.683 74.6863 258.455C74.7288 258.945 74.3 260.784 74.6808 262.156C71.7353 263.215 68.5128 265.486 68.5842 270.328C68.5842 270.328 68.0893 271.009 67.2457 272.179C66.2222 272.925 64.84 273.916 63.2087 275.092C62.6716 273.965 61.9131 272.423 61.7986 272.528C61.6271 272.703 61.3623 272.783 61.3623 272.783C61.3623 272.783 58.796 270.689 55.5741 270.622C52.3523 270.555 47.6746 269.924 46.164 271.32C46.164 271.32 42.9295 269.25 39.4752 269.806C36.021 270.362 35.9564 272.244 35.9564 272.244C35.9564 272.244 34.5827 271.329 34.0475 272.815C34.0475 272.815 33.0054 271.827 32.3171 272.847C32.3171 272.847 31.6631 272.144 31.0567 272.646C31.0567 272.646 29.8647 271.503 29.0689 272.265C29.0689 272.265 28.8691 271.222 29.7231 270.76C29.7946 270.722 29.7831 270.703 29.714 270.718C29.3327 270.795 28.2788 271.106 28.5588 272.282C28.5588 272.282 26.9404 272.363 26.8017 274.138C26.7976 274.218 26.8198 274.221 26.8714 274.159C27.0654 273.856 27.6664 273.065 28.3446 273.285C28.3446 273.285 27.1511 274.872 28.6844 275.723C28.7433 275.76 28.7679 275.74 28.7251 275.677C28.5509 275.412 28.1975 274.758 28.8571 274.432C29.6926 274.017 30.2903 274.233 30.6357 273.861C30.6357 273.861 31.4972 274.685 32.1932 273.931C32.1932 273.931 33.0931 275.03 34.1382 273.953C34.1382 273.953 35.0755 274.826 35.9271 273.792C35.9271 273.792 36.5801 274.887 38.1912 275.3C39.8077 275.706 44.2556 275.619 45.9896 274.45C45.9896 274.45 49.121 276.643 53.4866 276.018C57.8522 275.392 58.4387 274.272 59.5987 274.444C59.5987 274.444 58.9404 274.842 59.307 275.16C59.5748 275.391 60.4636 276.042 61.0519 276.644C55.0464 280.946 46.8035 286.795 40.0572 291.382C38.8548 292.204 37.7676 292.956 36.7657 293.669C36.7657 293.669 36.7657 293.669 36.7603 293.677C28.6111 299.491 27.0665 301.887 25.8106 303.849C25.6866 304.043 25.568 304.228 25.4441 304.422C23.9496 306.683 21.8769 311.388 22.0781 313.986C22.1574 315.105 22.0415 315.731 21.9381 316.283C21.8091 316.948 21.7033 317.522 22.0194 318.697C22.3567 319.97 23.284 321.192 24.4885 321.963C25.4234 322.561 26.4834 322.872 27.5426 322.849C28.7683 322.826 29.4229 322.675 29.9532 322.551C30.5663 322.41 30.9807 322.319 31.9052 322.507C33.4621 322.838 36.6283 321.86 38.8747 320.947C38.2934 323.674 38.0752 326.241 38.3671 328.494C39.4392 337.004 40.8162 338.692 40.2584 340.306C40.1348 340.666 40.1095 340.65 40.3763 340.382C41.5996 339.194 43.7181 339.742 51.8944 337.15C54.0536 336.466 56.2933 335.193 58.534 333.528C58.646 335.95 59.0848 339.235 60.038 340.51C60.6043 341.276 60.6869 341.685 60.815 342.301C60.9248 342.834 61.062 343.492 61.5546 344.614C61.9778 345.586 62.7035 346.418 63.6385 347.016C64.843 347.787 66.3416 348.117 67.6383 347.89C68.8384 347.685 69.3063 347.343 69.8649 346.952C70.3221 346.628 70.8422 346.26 71.8917 345.863C74.3268 344.952 77.7388 341.104 79.1659 338.8C79.2898 338.606 79.4084 338.421 79.5324 338.227C80.7883 336.265 82.316 333.859 84.1817 324.023C84.4033 322.824 84.6452 321.518 84.8789 320.077C86.2123 312.038 88.0705 302.103 89.4656 294.839C90.2534 295.129 91.223 295.655 91.5448 295.802C91.9868 296.001 92.0723 295.237 92.0723 295.237C92.7233 296.223 91.9431 297.22 93.204 301.446C94.4649 305.672 97.7687 307.596 97.7687 307.596C97.4245 309.656 99.2181 313.736 100.263 315.034C101.308 316.332 102.581 316.458 102.581 316.458C101.999 317.664 103.184 318.15 103.184 318.15C102.65 319.541 104.019 319.907 104.019 319.907C103.626 320.854 104.736 321.291 104.736 321.291C104.542 321.761 104.989 322.213 104.962 323.146C104.942 323.881 104.201 323.834 103.886 323.787C103.811 323.775 103.795 323.8 103.863 323.843C105.272 324.888 106.218 323.13 106.218 323.13C106.697 323.662 106.228 324.526 106.042 324.834C105.999 324.902 106.024 324.918 106.09 324.889C107.636 324.014 107.03 322.511 107.03 322.511ZM31.1936 322.134C31.928 320.467 32.4227 316.818 32.8276 313.848C32.9027 313.267 32.9838 312.714 33.0549 312.213C34.8197 312.832 38.376 312.246 39.5094 312.034C38.2484 313.874 38.3089 318.14 39.0738 320.172C39.1233 320.299 39.1699 320.412 39.2218 320.516C39.1365 320.557 39.0567 320.589 38.963 320.624C36.7472 321.545 33.518 322.565 31.9833 322.236C31.6798 322.172 31.4268 322.141 31.1936 322.134ZM29.9232 322.283C29.4067 322.404 28.7659 322.552 27.5625 322.577C26.5531 322.596 25.5491 322.309 24.6562 321.738C23.5023 321 22.6178 319.84 22.3011 318.628C22.0056 317.513 22.1012 316.993 22.2248 316.336C22.2878 315.996 22.3585 315.626 22.3882 315.134C23.7337 312.92 30.4839 304.691 34.1813 300.23C34.021 302.336 33.297 309.59 33.293 309.67C33.2057 309.899 33.1238 310.12 33.0888 310.323C32.9211 311.142 32.7584 312.379 32.5631 313.798C32.1535 316.812 31.6494 320.55 30.9076 322.117C30.5501 322.138 30.2547 322.21 29.9232 322.283ZM26.0687 304.003C27.2922 302.09 28.7745 299.774 36.5097 294.217C36.2506 295.049 36.1378 296.579 36.3464 297.199C35.5271 298.183 24.8184 311.003 22.3979 314.618C22.3969 314.416 22.3875 314.208 22.372 313.972C22.2502 312.363 23.3685 308.092 25.7021 304.575C25.8207 304.39 25.9447 304.196 26.0687 304.003ZM40.2391 291.617C41.7019 290.63 43.2355 289.569 44.7936 288.489C45.4095 288.788 46.7147 289.16 48.2234 289.14C47.0766 290.413 41.7036 296.342 40.7818 296.892C39.9422 297.387 37.8224 297.657 36.938 297.388C36.7595 297.333 36.65 297.263 36.618 297.183C36.3053 296.485 36.6741 294.109 36.9422 293.912C37.9442 293.2 39.0367 292.439 40.2391 291.617ZM66.7822 272.903C67.3761 272.476 67.8687 272.114 68.2821 271.821C67.8417 272.453 67.1013 273.499 66.1391 274.854C64.806 276.399 63.1691 278.308 61.4483 280.329C59.2197 282.94 56.8589 285.738 54.8486 288.156C54.4423 288.086 52.4903 287.834 50.417 288.514C48.4457 289.164 46.1642 288.796 45.0678 288.32C50.6597 284.443 56.6413 280.197 61.2753 276.87C62.0144 276.346 62.7152 275.845 63.3775 275.366C64.6884 274.413 65.8379 273.581 66.7822 272.903ZM50.7564 312.844C50.3002 311.293 51.7739 306.3 52.7374 304.424C53.2861 303.362 53.8989 302.46 54.6711 301.328C55.2515 300.476 55.8967 299.524 56.6914 298.263C56.3021 302.36 58.0148 305.379 58.3295 305.889C58.2486 306.015 58.1462 306.175 58.093 306.296C55.3629 311.601 52.0626 312.528 51.128 312.69C51.0037 312.717 50.8717 312.775 50.7564 312.844ZM40.9039 319.836C40.4824 319.993 40.0886 320.145 39.7254 320.304C39.6455 320.336 39.5603 320.377 39.4805 320.409C39.3767 320.2 39.2807 319.96 39.1978 319.682C38.911 318.739 38.7647 317.446 38.7957 316.136C38.8481 314.199 39.2631 312.66 39.9399 311.917C40.3368 311.483 42.3979 308.67 45.2419 304.708C46.0908 303.53 46.999 302.259 47.9642 300.918C48.6239 301.186 49.3233 301.503 49.8941 301.761C48.6156 303.852 47.7212 305.416 47.4433 306.129C45.6704 310.551 45.4538 312.466 47.7641 314.217C45.504 318.102 42.956 319.059 40.9039 319.836ZM33.3563 310.388C33.7898 308.207 37.472 304.271 39.237 302.385C39.5469 302.049 39.7999 301.784 39.9684 301.595C40.1668 301.378 40.3336 301.247 40.5071 301.18L40.5209 301.177C40.8955 301.037 41.254 301.219 41.7358 301.467C42.1923 301.7 42.7691 301.986 43.5161 302.025C44.3075 302.068 45.1521 301.398 46.0913 300.301C46.4141 300.353 46.9191 300.51 47.4723 300.722C47.5505 300.748 47.6233 300.783 47.7014 300.809C47.2257 301.478 46.7608 302.131 46.3121 302.758C42.8708 307.56 40.2856 311.118 39.7694 311.702C39.3328 311.79 34.9797 312.637 33.097 311.943C33.1798 311.331 33.2671 310.805 33.3563 310.388ZM36.5007 297.441C36.529 297.471 36.5543 297.487 36.5964 297.514C36.6722 297.562 36.7672 297.599 36.8707 297.642C37.6799 297.898 39.3884 297.733 40.4355 297.359C40.2698 298.285 40.311 300.484 40.3228 300.967C40.1469 301.056 39.9609 301.198 39.7625 301.416C39.5941 301.605 39.3411 301.87 39.0311 302.206C37.5761 303.756 34.846 306.687 33.6315 308.937C33.8386 306.814 34.4124 301.019 34.4743 299.884C35.4998 298.652 36.2376 297.759 36.5007 297.441ZM50.5022 288.77C52.2915 288.182 54.0168 288.324 54.634 288.399C52.643 290.805 51.0273 292.81 50.3114 293.836C49.7603 294.623 49.2314 295.413 48.7187 296.177C46.6839 299.208 44.9132 301.827 43.5359 301.753C42.8473 301.716 42.3264 301.454 41.8699 301.221C41.4302 300.999 41.0242 300.798 40.5984 300.87C40.5717 299.891 40.5686 297.8 40.7464 297.225C40.8179 297.188 40.8839 297.159 40.9415 297.124C41.9731 296.514 48.03 289.776 48.6253 289.125C49.2321 289.085 49.8681 288.982 50.5022 288.77ZM57.0279 297.719C59.1004 294.332 65.915 280.362 65.979 280.225L65.9844 280.216C67.3114 278.05 68.3884 276.163 69.0261 274.814C68.9985 275.117 68.9655 275.428 68.9217 275.756C68.7169 276.076 66.6969 279.307 65.0142 282.92C62.6814 287.957 62.09 291.33 63.247 292.973C63.1439 293.097 63.0836 293.284 63.1032 293.439C63.5966 297.862 59.5904 304.048 58.4996 305.642C58.0612 304.898 56.4523 301.791 57.0279 297.719ZM51.1282 302.04C50.9742 301.966 50.6747 301.821 50.294 301.637C55.6504 292.896 67.2934 275.462 69.2066 272.602C69.1917 272.997 69.153 273.447 69.1096 273.941C66.8866 279.512 52.2412 300.449 51.1282 302.04ZM63.4545 292.797C61.1637 289.419 67.3461 278.868 68.8533 276.401C68.3313 280.816 67.3987 286.559 67.0397 288.122C66.5859 290.111 64.3015 292.104 63.4545 292.797ZM68.9552 271.326C69.032 271.28 69.1095 271.27 69.1516 271.297C69.16 271.302 69.163 271.316 69.166 271.33C69.0222 271.499 68.6068 271.981 67.9876 272.689C68.5041 271.975 68.8335 271.497 68.9552 271.326ZM69.2119 271.704C69.217 271.826 69.2136 271.942 69.2163 272.086C68.3502 273.384 55.6887 292.279 50.0366 301.52C49.4796 301.259 48.7886 300.947 48.1289 300.679C54.265 292.092 62.267 280.794 66.3557 275.017C67.7404 273.409 68.7857 272.203 69.2119 271.704ZM47.8607 300.579C47.7742 300.547 47.693 300.507 47.6064 300.475C47.1007 300.282 46.6401 300.13 46.2891 300.048C47.0969 299.045 47.9715 297.753 48.9377 296.317C49.4504 295.553 49.9793 294.764 50.5304 293.977C51.7597 292.223 55.6201 287.581 59.5364 282.964C61.2327 280.963 62.9373 278.967 64.4412 277.211C60.0937 283.392 53.2563 293.038 47.8607 300.579ZM47.918 313.995C45.7233 312.342 45.9426 310.571 47.6892 306.227C47.9648 305.537 48.8646 303.964 50.143 301.873C50.5544 302.065 50.8708 302.22 51.0163 302.289C50.5357 305.805 48.5005 312.955 48.232 313.876C48.1185 313.886 48.0056 313.933 47.918 313.995ZM48.5181 313.893C48.8438 312.771 50.842 305.716 51.3017 302.27C51.742 301.638 59.2717 290.892 64.5466 282.537C62.4782 286.734 58.3053 295.129 56.7789 297.607C55.8393 299.131 55.0942 300.221 54.4437 301.182C53.6661 302.323 53.0533 303.225 52.4938 304.303C51.9666 305.331 51.3215 307.174 50.896 308.897C50.6016 310.062 50.1823 312.108 50.5381 313.036C49.7653 313.836 48.9904 313.934 48.5181 313.893ZM84.6282 320.023C84.3861 321.459 84.1581 322.762 83.931 323.97C83.865 324.296 81.8622 325.626 81.0967 325.635C81.0108 325.639 80.8929 325.564 80.7766 325.43C80.1479 324.743 79.5104 322.696 79.6172 321.732C79.7303 320.664 82.8574 313.31 83.5379 311.727C84.1465 313.114 85.0312 314.143 85.5663 314.569C85.2271 316.453 84.9202 318.287 84.6282 320.023ZM79.3188 338.079C79.1948 338.273 79.0708 338.466 78.9522 338.652C76.7366 342.244 73.3272 345.048 71.8149 345.612C71.5945 345.697 71.4018 345.775 71.2175 345.859C73.4864 342.147 80.6406 327.052 81.1904 325.896C81.8409 325.826 83.1751 325.077 83.83 324.499C82.0246 333.85 80.5423 336.167 79.3188 338.079ZM69.7305 346.736C69.1857 347.123 68.7531 347.428 67.6168 347.627C66.3891 347.839 64.9602 347.53 63.8063 346.791C62.9134 346.22 62.2328 345.428 61.8272 344.504C61.3406 343.409 61.2065 342.765 61.1051 342.237C61.0377 341.897 60.974 341.607 60.8375 341.282C61.9499 339.952 65.1242 337.923 67.6984 336.294C68.9183 335.519 69.9654 334.848 70.6331 334.361C70.8029 334.244 70.969 334.077 71.1405 333.902C71.2119 333.864 77.5004 330.16 79.3399 329.141C76.8386 334.367 72.1857 343.938 70.7476 346.093C70.319 346.317 70.0125 346.536 69.7305 346.736ZM60.2846 340.347C59.3482 339.083 58.9165 335.732 58.8244 333.334C58.8254 333.239 58.8126 333.148 58.8136 333.054C58.9302 333.057 59.0605 333.058 59.1879 333.044C61.3626 332.892 65.2609 331.16 66.3955 329.239C66.6773 330.357 67.6272 333.826 68.9368 335.175C68.512 335.449 68.0434 335.755 67.5471 336.066C65.0251 337.67 61.9138 339.656 60.7078 341.021C60.604 340.812 60.4695 340.596 60.2846 340.347ZM83.3869 311.37C83.0359 312.178 79.4638 320.506 79.3419 321.698C79.3348 321.765 79.3308 321.845 79.3321 321.917C78.8847 322.32 76.9843 323.193 76.0844 323.579C75.9712 323.162 75.6191 322.877 75.2333 322.571C74.8307 322.254 74.3745 321.891 74.044 321.276C73.3997 320.056 75.0387 317.365 76.9357 314.234C77.4147 313.448 77.9099 312.637 78.3936 311.807C79.0253 310.727 80.1693 308.42 81.5202 305.604C81.8464 306.133 82.7015 307.654 82.9138 309.511C82.9957 310.181 83.1683 310.802 83.3869 311.37ZM80.9067 325.857C80.7278 326.23 80.2343 327.279 79.5427 328.712C78.5428 329.236 73.5217 332.185 71.6751 333.27C73.2096 331.225 74.7215 327.527 75.5249 325.548C75.7001 325.126 75.8351 324.785 75.9362 324.552C76.0504 324.281 76.1016 324.053 76.109 323.856C76.552 323.664 78.5745 322.786 79.3382 322.242C79.4312 323.358 79.994 324.965 80.5661 325.592C80.6425 325.676 80.7214 325.739 80.7972 325.787C80.8369 325.836 80.876 325.85 80.9067 325.857ZM69.1726 335.029C67.7535 333.61 66.6991 329.303 66.5967 328.869C66.9052 328.164 69.0579 324.318 71.9769 319.181C72.3637 318.503 72.7558 317.816 73.1557 317.098C73.2123 317.158 73.2743 317.21 73.3309 317.27C73.7547 317.683 74.1058 318.062 74.2915 318.347C73.6807 319.654 73.4257 320.702 73.7967 321.402C74.1447 322.064 74.6515 322.46 75.0487 322.785C75.4712 323.127 75.7866 323.376 75.8216 323.767L75.8247 323.781C75.8365 323.966 75.796 324.178 75.6734 324.444C75.5724 324.676 75.4373 325.017 75.2621 325.439C74.2835 327.84 72.2576 332.824 70.4596 334.131C70.1345 334.398 69.6851 334.692 69.1726 335.029ZM58.8035 332.513C58.8014 332.108 58.7687 331.695 58.7353 331.247C58.5806 329.058 58.3827 326.343 60.9575 322.672C63.5157 324.036 65.1642 323.037 68.4364 319.575C68.9586 319.019 70.0046 317.551 71.3757 315.52C71.8548 315.921 72.4303 316.432 72.9498 316.919C72.1362 318.357 71.3574 319.723 70.6432 320.987C68.2372 325.229 66.5468 328.279 66.3184 328.822C65.9225 329.755 64.7074 330.782 62.9757 331.633C61.7993 332.21 60.5557 332.613 59.5875 332.754C59.2998 332.795 59.042 332.808 58.8089 332.801C58.8068 332.693 58.7994 332.594 58.8035 332.513ZM60.9354 318.978C60.6824 318.056 60.1448 314.685 63.8236 309.975C63.9021 309.871 64.013 309.716 64.0938 309.59C64.6888 309.662 68.1563 309.957 71.7041 307.882C70.8926 309.132 70.298 310.117 69.7681 311.001C69.0633 312.176 68.5065 313.102 67.767 314.053C66.472 315.706 62.5556 319.136 60.9513 319.38C60.9708 319.238 60.9681 319.094 60.9354 318.978ZM71.3208 315.105C70.9994 314.828 70.7376 314.625 70.6051 314.516C71.5834 312.839 84.4654 290.761 88.5866 286.417C89.0175 286.17 89.4184 285.952 89.7617 285.768C87.9718 288.695 77.0141 306.579 71.3208 315.105ZM84.1895 291.878C84.0864 292.002 74.2618 304.034 72.0545 307.335C68.5983 309.563 65.1028 309.404 64.2441 309.318C65.2338 307.66 69.1588 301.433 73.3876 300.02C73.5365 299.973 73.681 299.84 73.7504 299.694C75.7268 300.056 78.5557 298.103 82.1382 293.878C84.7221 290.842 86.801 287.649 87.0058 287.329C87.2855 287.152 87.5628 286.997 87.8178 286.839C86.8822 287.986 85.6145 289.763 84.1895 291.878C84.1949 291.87 84.1949 291.87 84.1895 291.878ZM73.8401 299.443C74.1058 298.378 74.9668 295.474 76.5829 294.229C77.8517 293.248 82.6841 290.001 86.4658 287.672C84.8575 290.074 77.8665 300.108 73.8401 299.443ZM67.9837 314.216C68.7285 313.256 69.2908 312.322 70.0009 311.138C70.6009 310.144 71.2787 309.011 72.2688 307.52C73.8794 305.095 79.7483 297.798 82.6927 294.162C77.3168 302.451 70.7136 313.79 70.3238 314.455C67.3824 316.324 61.8128 321.094 60.9366 321.852C60.7014 321.44 60.4655 320.695 60.8762 319.664C62.6351 319.531 66.7348 315.815 67.9837 314.216ZM70.4229 314.708C70.5469 314.811 70.8201 315.034 71.1668 315.327C69.8041 317.363 68.7581 318.831 68.2413 319.379C65.0206 322.779 63.5181 323.717 61.0916 322.426C61.1256 322.317 61.1151 322.203 61.0686 322.09C61.8004 321.466 67.4269 316.626 70.4229 314.708ZM78.1609 311.67C77.6771 312.5 77.1819 313.311 76.7028 314.097C75.804 315.575 74.9969 316.911 74.4249 318.065C74.2116 317.786 73.8719 317.426 73.4848 317.048C73.4198 316.982 73.3494 316.925 73.2928 316.865C77.8797 308.807 83.7738 298.558 87.5377 292.026C86.5729 294.128 85.4747 296.512 84.3681 298.89C81.8355 304.369 79.2385 309.819 78.1609 311.67ZM73.0977 316.669C72.5782 316.182 72.0057 315.686 71.535 315.289C77.5632 306.277 89.4107 286.873 90.2262 285.543C90.3499 285.48 90.4681 285.425 90.5756 285.387C90.3041 285.997 89.6432 287.438 88.767 289.382C85.2311 295.501 78.321 307.487 73.0977 316.669ZM90.931 285.258C90.9395 285.263 90.9587 285.252 90.9671 285.257C91.0092 285.284 91.0328 285.359 91.0234 285.448C90.9186 285.63 90.6313 286.135 90.1906 286.897C90.574 286.039 90.8377 285.46 90.931 285.258ZM83.1908 309.487C82.9394 307.32 81.8874 305.661 81.659 305.313C83.0122 302.475 84.5645 299.159 86.0013 296.041C87.1156 293.632 88.1684 291.338 89.0075 289.488C89.8349 288.047 90.4743 286.937 90.8641 286.272C90.7624 286.765 90.6434 287.377 90.5097 288.087C90.2813 289.223 90.0163 290.621 89.7132 292.207C89.5562 293.009 89.3945 293.856 89.2281 294.746C88.157 300.353 86.7997 307.558 85.6215 314.26C84.7162 313.467 83.4264 311.549 83.1908 309.487Z" fill="#0C0C0C"/>
</svg>
