<svg width="200" height="173" viewBox="0 0 200 173" fill="none" xmlns="http://www.w3.org/2000/svg">
<path d="M121.319 170.685L121.417 171.175L121.319 170.685C73.7733 180.234 23.5 143.455 23.5 86.3441C23.5 29.2334 73.7732 -7.5357 121.319 2.00362C160.069 9.78126 186.64 46.9828 186.64 86.3441C186.64 125.705 160.069 162.907 121.319 170.685ZM121.502 153.493L121.417 153L121.502 153.493C155.437 147.691 177.5 121.748 177.5 87C177.5 52.2867 156.044 24.313 122.084 18.5072L122 19L122.084 18.5071C101.905 15.0583 83.2484 20.2578 69.6366 32.3055C56.0251 44.353 47.5 63.21 47.5 87C47.5 110.788 55.8786 129.15 69.3513 140.7C82.8226 152.248 101.333 156.94 121.502 153.493Z" fill="#0C0C0C" stroke="white"/>
<path d="M63.9369 23.7754L63.937 23.7753C67.4364 22.7294 70.2593 22.9929 72.4742 24.0273C74.6953 25.0646 76.3579 26.902 77.4836 29.0942C78.6101 31.2878 79.1878 33.8172 79.246 36.1929C79.3043 38.5754 78.8395 40.7554 77.9329 42.2722C76.4287 44.7778 73.8005 46.3593 71.4924 47.3177C70.3449 47.7941 69.2932 48.1096 68.5287 48.3059C68.1469 48.4039 67.8377 48.4719 67.6253 48.5152C67.6035 48.5196 67.5828 48.5238 67.5631 48.5277C67.5538 48.5176 67.5442 48.5071 67.5342 48.4962C67.3953 48.344 67.1929 48.1193 66.9404 47.8312C66.4355 47.2548 65.7313 46.425 64.9363 45.4141C63.3437 43.389 61.3981 40.651 59.9576 37.7743C58.509 34.8813 57.6128 31.9288 58.0106 29.4445C58.2073 28.2163 58.7205 27.0984 59.6525 26.1426C60.5886 25.1825 61.9702 24.3627 63.9369 23.7754Z" fill="white" stroke="white"/>
<path d="M67.3832 51.2802C66.7832 51.2802 66.2033 51.0301 65.7834 50.59C64.4835 49.2198 53.1749 36.9283 55.5446 28.0771C56.1545 25.7868 57.9743 22.7264 63.1737 21.1762C69.403 19.306 74.7823 20.8063 78.3418 25.3869C82.2814 30.4575 83.1613 38.8286 80.2717 43.6592C76.6221 49.76 68.1131 51.1901 67.7531 51.2501C67.6131 51.2701 67.4932 51.2802 67.3832 51.2802ZM68.183 24.8067C67.0231 24.8067 65.7634 25.0068 64.4236 25.4069C61.7839 26.197 60.274 27.4371 59.7941 29.2173C58.4542 34.2279 64.8635 42.8891 68.1531 46.6396C70.2029 46.1095 74.5223 44.6393 76.4621 41.3989C78.2518 38.4085 77.9319 32.0877 74.8423 28.0972C73.1425 25.9069 70.9127 24.8067 68.183 24.8067Z" fill="#0C0C0C"/>
<path d="M63.9941 80.6533C63.9941 80.6533 58.3648 95.5552 42.2867 93.2649C42.2867 93.2649 40.4769 92.1748 38.8071 96.1453C37.1273 100.136 36.1474 103.596 34.6476 106.147C33.1377 108.717 38.3471 108.697 42.2266 101.506C42.2266 101.506 43.0366 98.7656 47.0161 100.016C47.0161 100.016 43.1865 102.606 44.3364 104.146C45.4762 105.676 49.2758 102.286 52.0755 100.896C54.8351 99.5257 68.9735 95.5452 75.1827 95.2952C78.1324 95.1752 63.9941 80.6533 63.9941 80.6533Z" fill="white"/>
<path d="M35.3369 109.895C34.117 109.895 33.1073 109.355 32.5573 108.415C32.2874 107.945 31.7573 106.675 32.7372 105.015C33.5871 103.564 34.287 101.694 35.107 99.5339C35.6069 98.2038 36.1369 96.7736 36.7768 95.2834C37.7367 93.0131 38.9965 91.6029 40.5163 91.1128C41.4062 90.8228 42.2361 90.9028 42.866 91.1128C56.8144 92.9431 61.7338 80.4115 61.9338 79.8714C62.2037 79.1613 62.8138 78.6412 63.5437 78.4912C64.2836 78.3312 65.0534 78.5712 65.5733 79.1113C78.8518 92.743 78.0919 94.6433 77.592 95.8935C77.212 96.8436 76.3121 97.4536 75.2523 97.4936C69.323 97.7237 55.5146 101.644 53.0449 102.864C52.325 103.224 51.445 103.784 50.5951 104.324C47.9154 106.045 44.5958 108.175 42.566 105.445C42.516 105.385 42.476 105.325 42.436 105.255C39.9363 108.575 37.2168 109.855 35.417 109.885C35.387 109.895 35.3569 109.895 35.3369 109.895ZM41.7762 95.4034C41.5962 95.5834 41.2462 96.0234 40.8463 96.9936C40.2363 98.4338 39.7264 99.8039 39.2465 101.084C38.9765 101.814 38.7065 102.524 38.4465 103.194C39.0165 102.524 39.6164 101.664 40.2163 100.584C40.4463 100.014 41.0562 98.8538 42.4661 98.1037C43.9059 97.3336 45.6657 97.2636 47.6854 97.9037C48.4953 98.1538 49.0853 98.8537 49.2053 99.6839C49.2253 99.7839 49.2253 99.8839 49.2253 99.9739C49.8552 99.5839 50.4851 99.2139 51.0951 98.9038C53.8747 97.5237 65.2235 94.3132 72.2927 93.3431C70.6928 91.1728 67.6432 87.6924 64.5536 84.402C61.7539 89.0426 54.8746 97.2736 41.9962 95.4433C41.9062 95.4333 41.8362 95.4234 41.7762 95.4034Z" fill="#0C0C0C"/>
<path d="M80.7727 52.2776C80.7727 52.2776 59.1152 32.855 73.9735 26.6842C87.9518 20.8735 96.8509 39.0258 89.1718 44.8466C84.4323 48.437 80.7727 52.2776 80.7727 52.2776Z" fill="white"/>
<path d="M82.0188 53.4561C82.0346 53.4391 82.3004 53.1647 82.67 52.797C83.0835 52.3856 83.6779 51.8056 84.4134 51.1189C85.8836 49.7463 87.9217 47.9442 90.209 46.2106C94.1834 43.1915 94.9075 36.9874 91.6775 31.3555C88.4652 25.7645 81.5637 21.6839 73.3256 25.1076C68.8585 26.9661 67.5409 29.8742 67.1871 31.9506L82.0188 53.4561ZM82.0188 53.4561L82.0187 53.456L82.0109 53.4642C81.6795 53.8111 81.2322 53.9898 80.7726 53.9898C80.3646 53.9898 79.9629 53.8442 79.6349 53.5558C78.9159 52.911 75.4097 49.6901 72.2774 45.5124C70.7101 43.422 69.2474 41.1063 68.2723 38.766C67.2959 36.4224 66.8238 34.0912 67.1871 31.9509L82.0188 53.4561ZM74.6421 28.2544L74.6412 28.2548C72.3004 29.2287 70.881 30.6051 70.5608 32.5136C70.3299 33.8676 70.6203 35.3764 71.2035 36.9036C71.7889 38.437 72.6859 40.0316 73.7205 41.5763C75.7897 44.6658 78.4462 47.6094 80.3899 49.5435L80.7377 49.8896L81.0903 49.5483C82.6213 48.0667 85.1652 45.731 88.1435 43.477L88.1438 43.4767C89.6891 42.3049 90.3066 40.5056 90.3053 38.6261C90.304 36.7505 89.6909 34.7454 88.7152 33.0478C86.9555 29.9831 83.733 27.2464 79.3728 27.2464C77.9004 27.2464 76.3158 27.5621 74.6421 28.2544Z" fill="#0C0C0C" stroke="white"/>
<path d="M61.1343 122.898L61.0503 122.405L61.05 122.405L61.0483 122.406L61.0412 122.407L61.0126 122.412L60.8993 122.43C60.7996 122.447 60.6525 122.471 60.4638 122.5C60.0863 122.56 59.5425 122.642 58.8787 122.736C57.5506 122.922 55.7448 123.151 53.8313 123.319C51.9155 123.488 49.9027 123.595 48.1572 123.542C46.383 123.488 44.981 123.269 44.2167 122.85L44.2164 122.85C43.8693 122.66 43.6575 122.501 43.5403 122.378C43.4819 122.316 43.4587 122.277 43.4498 122.257C43.4602 122.24 43.4847 122.209 43.5393 122.164C43.6524 122.07 43.8424 121.96 44.1272 121.841C45.2853 121.356 47.4525 120.939 50.0602 120.464C50.2615 120.427 50.4651 120.39 50.6706 120.353C53.0947 119.912 55.794 119.422 58.2259 118.783C60.8425 118.097 63.247 117.216 64.6635 115.973L64.6638 115.973C65.9834 114.814 66.8343 113.816 67.4274 112.881C68.0216 111.944 68.3446 111.091 68.6242 110.248C68.6813 110.076 68.7367 109.904 68.7923 109.731C69.2728 108.24 69.7725 106.689 71.5531 104.469L71.5536 104.468C73.8324 101.619 75.5372 99.4725 76.8527 97.7147L77.1723 97.2876L76.7255 96.9963C66.1934 90.1289 59.7569 82.2182 57.132 78.5326L57.1312 78.5315C56.131 77.1353 54.5028 76.2442 52.7319 76.1138L52.731 76.1137C47.1026 75.7091 32.6392 74.3813 20.6593 71.1466C14.6579 69.5261 9.34771 67.444 6.07383 64.8057C4.44223 63.4909 3.35238 62.0664 2.9066 60.5274C2.46474 59.0019 2.63661 57.2983 3.65316 55.3732L3.65324 55.373C5.95158 51.017 10.9621 47.4187 17.3035 44.4804C23.6273 41.5502 31.1893 39.3149 38.4754 37.6371C45.7581 35.9601 52.7471 34.8443 57.9169 34.1477C60.5013 33.7995 62.6298 33.5562 64.1116 33.4C64.8525 33.3219 65.4316 33.2656 65.8252 33.2289C66.0219 33.2105 66.1723 33.197 66.2732 33.1881L66.3872 33.1782L66.3877 33.1782C76.1437 33.8472 82.0152 36.1557 85.4325 38.2654C87.1439 39.322 88.2442 40.3313 88.9116 41.0662C89.2454 41.4338 89.4715 41.7333 89.6117 41.9365C89.6819 42.0381 89.7306 42.1157 89.7607 42.1657C89.7757 42.1907 89.7861 42.2088 89.7921 42.2196L89.7977 42.2295L89.798 42.2303L89.7983 42.2308L89.7986 42.2313L89.9756 42.5702L90.3506 42.4858L90.3511 42.4857L90.354 42.4851L90.3665 42.4823L90.4184 42.471C90.4649 42.4611 90.5349 42.4463 90.6276 42.4275C90.8129 42.3898 91.0886 42.3358 91.447 42.2714C92.164 42.1424 93.2115 41.9716 94.5283 41.8054C97.1624 41.4728 100.871 41.1589 105.163 41.234C113.756 41.3844 124.641 43.0934 133.939 49.285C141.247 54.1518 146.164 61.5629 149.462 69.7619C152.761 77.9606 154.429 86.9168 155.256 94.8267L155.289 95.141L155.335 95.1573C155.34 95.185 155.346 95.2151 155.352 95.2477C155.359 95.2855 155.367 95.3266 155.376 95.3714C155.438 95.6898 155.53 96.1492 155.672 96.7082C155.956 97.8254 156.439 99.3435 157.278 100.953C158.962 104.18 162.082 107.774 167.869 109.231C172.291 110.346 177.986 109.918 183.014 109.477C183.31 109.451 183.604 109.425 183.896 109.399C186.094 109.205 188.143 109.023 189.903 108.979C191.919 108.929 193.452 109.065 194.376 109.499L194.376 109.499C195.783 110.16 196.578 110.876 196.964 111.58C197.339 112.266 197.361 113.005 197.082 113.812C196.798 114.635 196.204 115.514 195.372 116.417C194.542 117.317 193.499 118.216 192.348 119.082C190.047 120.815 187.354 122.386 185.185 123.531C184.102 124.102 183.153 124.565 182.455 124.887C182.106 125.048 181.822 125.172 181.617 125.256C181.514 125.298 181.435 125.329 181.379 125.348C181.355 125.357 181.339 125.362 181.331 125.364C181.158 125.381 181.079 125.355 181.053 125.344C181.05 125.32 181.051 125.269 181.08 125.174C181.144 124.97 181.317 124.661 181.673 124.257C182.024 123.859 182.532 123.391 183.23 122.868L183.23 122.868C183.363 122.768 183.497 122.668 183.631 122.568C185.689 121.025 187.747 119.482 189.153 118.178C189.895 117.49 190.501 116.828 190.819 116.237C190.978 115.94 191.091 115.612 191.071 115.279C191.048 114.92 190.873 114.617 190.58 114.398C190.459 114.307 190.329 114.279 190.24 114.27C190.148 114.26 190.058 114.266 189.98 114.277C189.825 114.298 189.647 114.346 189.462 114.406C189.089 114.528 188.593 114.728 188.004 114.976C187.729 115.092 187.431 115.219 187.111 115.356C186.046 115.811 184.736 116.37 183.214 116.959C179.262 118.488 173.928 120.195 168.011 120.68C161.675 121.196 158.303 120.285 156.537 119.31C155.657 118.824 155.17 118.32 154.907 117.959C154.775 117.777 154.697 117.628 154.654 117.532C154.633 117.484 154.62 117.449 154.613 117.429C154.61 117.421 154.608 117.415 154.608 117.413C154.607 117.412 154.607 117.412 154.607 117.412C154.607 117.412 154.607 117.412 154.607 117.411L154.445 116.751L153.86 117.112C150.693 119.071 147.457 120.29 144.23 120.979L143.941 121.041L143.856 121.324C143.516 122.454 142.791 123.819 141.238 124.892C139.682 125.967 137.245 126.783 133.424 126.719C125.744 126.589 121.373 126.734 118.632 127.276C117.25 127.549 116.255 127.928 115.449 128.439C114.644 128.951 114.056 129.577 113.471 130.293L113.471 130.293C112.322 131.698 111.412 132.49 110.732 132.869C110.047 133.25 109.719 133.153 109.576 133.048C109.392 132.912 109.219 132.563 109.215 131.947C109.21 131.357 109.365 130.634 109.684 129.925L109.689 129.914L109.694 129.902L110.714 127.312L111.016 126.544L110.196 126.632C107.497 126.919 106.118 127.575 104.656 128.27C104.492 128.348 104.326 128.427 104.158 128.506L104.156 128.507C100.303 130.319 96.3054 130.745 93.1795 130.626C91.6178 130.566 90.2823 130.371 89.3023 130.149C88.8115 130.038 88.4168 129.922 88.1308 129.816C87.9875 129.763 87.8783 129.715 87.801 129.674C87.7325 129.638 87.7083 129.618 87.708 129.619C87.708 129.619 87.7081 129.619 87.7084 129.619C87.594 129.501 87.51 129.266 87.591 128.865C87.6709 128.47 87.9031 127.985 88.3013 127.496C89.094 126.522 90.4855 125.606 92.354 125.406L92.3542 125.406C98.9907 124.691 102.004 122.928 104.459 121.492C105.271 121.018 106.021 120.579 106.821 120.225C111.762 118.051 115.348 121.185 116.424 122.262L116.573 122.411L116.783 122.408C117.631 122.399 118.484 122.45 119.349 122.502L119.407 122.505C120.286 122.558 121.178 122.61 122.053 122.591C123.81 122.552 125.552 122.225 127.106 121.001L127.877 120.393L126.932 120.127C120.596 118.339 115.015 115.335 111.013 112.772C109.014 111.492 107.412 110.323 106.311 109.476C105.761 109.053 105.336 108.71 105.05 108.474C104.907 108.355 104.798 108.264 104.726 108.202C104.689 108.171 104.662 108.148 104.644 108.133L104.625 108.115L104.62 108.111L104.619 108.111L104.619 108.11L104.619 108.11L104.516 108.02L104.38 107.995C103.768 107.881 103.186 107.75 102.596 107.616C102.257 107.539 101.915 107.462 101.564 107.387L101.5 107.374L101.436 107.377C98.2743 107.528 91.2306 107.722 87.1049 106.847L86.8057 106.784L86.613 107.021L86.613 107.021L86.6129 107.021L86.6123 107.022L86.6094 107.026L86.5969 107.041L86.5454 107.103C86.5289 107.123 86.5093 107.147 86.4868 107.173C86.4468 107.221 86.3976 107.279 86.3392 107.348C86.1568 107.562 85.8855 107.874 85.5328 108.265C84.8271 109.047 83.7957 110.143 82.4962 111.394C79.8949 113.898 76.2304 117.012 71.963 119.475L71.5998 119.685L71.743 120.079L71.743 120.079L71.7431 120.079L71.7439 120.081L71.7472 120.091L71.7608 120.129C71.7727 120.162 71.7903 120.212 71.8124 120.277C71.8567 120.405 71.919 120.591 71.9908 120.817C72.1347 121.269 72.3151 121.878 72.4636 122.51C72.6133 123.147 72.7254 123.786 72.7425 124.304C72.7511 124.564 72.735 124.772 72.6987 124.925C72.6614 125.082 72.6144 125.135 72.6006 125.146L72.9226 125.528L72.6028 125.145C72.3354 125.367 72.0403 125.409 71.6799 125.306C71.2952 125.196 70.8655 124.925 70.431 124.555C69.5672 123.82 68.8317 122.823 68.593 122.482L68.1644 121.869L68.1108 121.793L68.1072 121.787L68.1112 121.793L68.1185 121.805C68.1783 121.953 68.188 122.113 67.7821 122.078L67.2742 122.008C67.1986 121.997 67.1986 121.996 67.1987 121.996L67.1989 121.995L67.1992 121.992L67.1999 121.988L67.2007 121.983M61.1343 122.898L61.3408 123.354L61.3406 123.354L61.3394 123.354L61.3343 123.357L61.3135 123.366L61.2321 123.404C61.1609 123.436 61.0573 123.485 60.9281 123.546C60.6696 123.667 60.3093 123.84 59.9029 124.043C59.0851 124.451 58.0982 124.973 57.3742 125.445C57.1295 125.604 56.9291 125.749 56.7792 125.875C56.8383 125.877 56.9044 125.878 56.978 125.877C57.4563 125.871 58.1752 125.797 59.2024 125.625L59.2027 125.625C63.166 124.968 65.1799 123.977 66.1912 123.198C66.6945 122.811 66.9493 122.477 67.076 122.261C67.1396 122.152 67.1722 122.072 67.1879 122.026C67.1958 122.003 67.1995 121.988 67.2007 121.983M61.1343 122.898L61.0504 122.405L61.3409 123.354L61.1343 122.898ZM67.2007 121.983C67.2012 121.981 67.2012 121.981 67.2008 121.983L67.2007 121.983ZM109.229 129.719L110.041 127.655C110.126 127.645 110.213 127.635 110.301 127.626L110.248 127.129L109.783 126.946L109.684 127.197C107.439 127.501 106.213 128.084 104.871 128.722L109.229 129.719ZM109.229 129.719C107.849 132.78 109.199 136.31 113.858 130.609L109.229 129.719ZM181.362 125.361L181.353 125.362C181.356 125.362 181.359 125.361 181.362 125.361ZM43.4447 122.242C43.4448 122.242 43.445 122.243 43.4452 122.245C43.4447 122.243 43.4446 122.242 43.4447 122.242ZM43.4435 122.268C43.4431 122.27 43.4429 122.27 43.4429 122.27L43.4435 122.268ZM181.055 125.353C181.058 125.358 181.059 125.362 181.058 125.361C181.057 125.36 181.056 125.357 181.055 125.353Z" fill="white" stroke="white"/>
<path d="M109.909 135.892C109.309 135.892 108.739 135.722 108.199 135.392C106.729 134.482 106.189 132.512 106.719 130.321C106.419 130.451 106.119 130.601 105.809 130.741L105.329 130.971C97.02 134.872 87.4312 133.232 85.7814 131.512C84.8515 130.551 84.6215 129.101 85.1615 127.631C85.9414 125.471 88.391 123.12 92.0906 122.72C98.1299 122.07 100.76 120.53 103.069 119.18C103.949 118.66 104.789 118.18 105.749 117.75C108.529 116.53 110.978 116.56 113.008 117.13C108.049 114.329 104.549 111.559 103.319 110.539C102.819 110.439 102.329 110.329 101.839 110.219L101.28 110.089C97.85 110.249 92.0706 110.359 87.8711 109.729C85.9913 111.849 81.2019 116.9 74.8726 120.88C76.2525 125.621 74.9026 126.761 74.3627 127.211C73.5628 127.881 72.5629 128.161 71.5431 128.021C70.0032 127.821 68.6233 126.681 67.6035 125.541C66.1136 126.581 63.664 127.611 59.6745 128.281C57.5647 128.631 54.675 129.111 53.955 126.751C53.885 126.511 53.835 126.271 53.825 126.041C49.6755 126.391 45.1361 126.401 42.9463 125.201C40.8966 124.081 40.6467 122.74 40.7967 121.8C41.2066 119.3 44.2062 118.75 50.2055 117.67C54.685 116.86 60.8243 115.74 62.9041 113.919C65.2938 111.819 65.6937 110.589 66.2336 108.889C66.7336 107.318 67.3635 105.368 69.4532 102.758C70.973 100.858 72.233 99.2775 73.2929 97.9173C63.224 90.9064 57.1647 83.2054 54.9449 80.085C54.415 79.3449 53.5252 78.8649 52.5553 78.7949C39.1669 77.8248 7.35054 74.3743 1.12127 63.1529C-0.428548 60.3625 -0.368521 57.2221 1.28129 54.0917C11.2501 35.2093 63.9839 30.6387 66.2236 30.4587C66.3336 30.4487 66.4437 30.4487 66.5537 30.4587C82.4418 31.5388 88.9409 36.9296 91.2007 39.5399C96.93 38.5098 118.447 35.6794 135.455 47.0108C147.754 55.1919 155.523 71.5639 157.943 94.3468C157.983 94.4868 158.003 94.6168 158.023 94.7168C159.233 101.058 162.872 105.158 168.542 106.588C172.751 107.648 178.551 107.139 183.66 106.678C188.899 106.218 193.039 105.848 195.548 107.028C199.958 109.099 200.188 112.069 199.928 113.649C198.778 120.67 182.93 127.901 181.69 128.041C180.26 128.211 179.04 127.541 178.57 126.341C177.891 124.621 178.92 122.72 181.64 120.69L182.05 120.38C182.13 120.32 182.22 120.25 182.3 120.19C178.44 121.57 173.601 122.93 168.262 123.371C159.423 124.091 155.363 122.2 153.513 120.45C151.134 121.72 148.624 122.69 146.004 123.35C144.734 126.101 141.485 129.451 133.416 129.421C117.918 129.151 117.148 130.111 115.598 132.002C113.478 134.602 111.578 135.892 109.909 135.892ZM110.258 124.941C110.938 124.941 111.598 125.261 112.018 125.811C112.488 126.421 112.598 127.241 112.318 127.961L111.518 129.981C111.718 129.761 111.928 129.511 112.168 129.231C115.288 125.411 118.477 124.771 133.476 125.031C136.845 125.091 141.175 124.411 142.235 120.85C142.465 120.08 143.105 119.49 143.885 119.33C147.104 118.64 150.164 117.41 152.973 115.68C153.633 115.27 154.423 115.049 155.113 115.41C155.803 115.76 156.223 116.26 156.273 117.04C156.603 117.69 159.433 119.71 167.882 119C175.811 118.35 182.74 115.399 186.46 113.809C189.309 112.589 190.379 112.129 191.609 113.049C192.359 113.609 192.789 114.459 192.789 115.38C192.789 115.87 192.679 116.34 192.449 116.83C194.229 115.369 195.498 113.929 195.548 112.829C195.588 112.079 194.369 111.399 193.639 111.049C192.219 110.379 187.859 110.769 184.02 111.099C178.56 111.589 172.371 112.129 167.442 110.889C160.093 109.039 155.193 103.588 153.663 95.5569L153.683 95.547C153.613 95.377 153.573 95.1869 153.553 94.9969C151.984 79.985 147.134 60.1124 132.986 50.7012C115.208 38.8597 90.9607 44.0905 90.7207 44.1505C89.7409 44.3805 88.741 43.9004 88.2811 43.0203C88.2611 42.9903 84.1516 36.1395 66.3936 34.8993C51.6754 36.1395 12.46 42.3302 5.15083 56.1819C4.19094 58.0121 4.12087 59.5525 4.95078 61.0426C9.18028 68.6736 33.3975 73.0242 52.8452 74.4243C55.1449 74.5944 57.2147 75.7344 58.5146 77.5546C60.7343 80.665 67.0336 88.6561 77.6523 95.5769C78.1623 95.907 78.5122 96.4371 78.6222 97.0472C78.7322 97.6473 78.5822 98.2673 78.2122 98.7574C76.8924 100.528 75.1826 102.688 72.8729 105.558C71.293 107.528 70.8631 108.859 70.4032 110.269C69.7533 112.279 69.0833 114.369 65.7737 117.27C63.114 119.6 57.8646 120.76 52.8452 121.7C55.3949 121.51 58.2046 121.17 60.7443 120.73C61.8542 120.56 62.904 121.2 63.224 122.26C63.284 122.45 63.3139 122.63 63.3139 122.82C64.9337 122.18 65.4438 121.59 65.5538 121.44C65.7837 120.69 66.3837 120.11 67.1536 119.93C68.0335 119.72 68.9533 120.07 69.4732 120.81L69.9632 121.51C70.1831 121.82 70.4132 122.12 70.6431 122.38C70.4932 121.82 70.3031 121.21 70.1032 120.66C69.7332 119.65 70.1431 118.53 71.073 117.99C79.2221 113.289 85.2014 106.008 85.2514 105.938C85.7714 105.298 86.6113 104.998 87.4212 105.168C91.4207 106.018 98.4698 105.798 101.319 105.658C101.519 105.658 101.709 105.668 101.889 105.708L102.759 105.898C103.379 106.038 103.989 106.178 104.639 106.298C105.029 106.368 105.399 106.548 105.699 106.808C105.789 106.888 115.208 115.049 127.346 118.46C128.146 118.69 128.746 119.34 128.916 120.15C129.076 120.96 128.766 121.8 128.116 122.31C125.287 124.541 122.057 124.351 119.197 124.181C118.387 124.131 117.578 124.101 116.758 124.091C116.178 124.171 115.598 123.871 115.178 123.45C113.858 122.13 111.098 120.16 107.469 121.77C106.739 122.09 106.039 122.5 105.239 122.97C102.679 124.471 99.4797 126.341 92.5006 127.091C91.0707 127.241 90.1409 127.931 89.6509 128.491C92.1606 129.061 97.9499 129.501 103.389 126.951L103.849 126.731C105.379 126.001 106.969 125.241 109.978 124.921C110.108 124.951 110.188 124.941 110.258 124.941ZM181.42 125.871H181.44H181.42ZM65.5137 121.76C65.5137 121.77 65.5137 121.77 65.5137 121.76C65.5137 121.77 65.5137 121.77 65.5137 121.76ZM65.5137 121.75C65.5137 121.76 65.5137 121.76 65.5137 121.75C65.5137 121.76 65.5137 121.76 65.5137 121.75ZM117.658 119.72C117.798 119.72 117.928 119.73 118.068 119.74C117.758 119.6 117.458 119.46 117.158 119.32C117.338 119.45 117.498 119.59 117.658 119.72Z" fill="#0C0C0C"/>
<path d="M38.887 50.3982C38.0871 49.5181 37.9871 48.3079 38.6371 47.4278C39.6069 46.1076 41.4967 44.2874 44.4563 44.3574C47.226 44.4274 49.1358 46.1376 50.2056 47.4578C51.1855 48.668 51.1756 50.2982 50.1657 51.3283C49.2758 52.2284 47.646 53.0185 44.6263 52.8185C41.5867 52.6084 39.8469 51.4384 38.887 50.3982Z" fill="#0C0C0C"/>
<path d="M163.258 33.5758L170.388 43.2077L71.2413 154.199L59.5325 144.494L163.258 33.5758Z" fill="#0C0C0C" stroke="white"/>
</svg>
