<svg width="630" height="629" viewBox="0 0 630 629" fill="none" xmlns="http://www.w3.org/2000/svg">
<path d="M398.576 0C271.502 0 168.488 103.014 168.488 230.088C168.488 357.163 271.502 460.176 398.576 460.176C525.651 460.176 628.664 357.163 628.664 230.088C628.664 103.014 525.651 0 398.576 0Z" fill="#F3F2F2"/>
<path d="M398.576 0C271.502 0 168.488 103.014 168.488 230.088C168.488 357.163 271.502 460.176 398.576 460.176C525.651 460.176 628.664 357.163 628.664 230.088C628.664 103.014 525.651 0 398.576 0ZM398.576 426.071C290.339 426.071 202.594 338.325 202.594 230.088C202.594 121.851 290.339 34.1057 398.576 34.1057C506.813 34.1057 594.559 121.851 594.559 230.088C594.559 338.325 506.813 426.071 398.576 426.071Z" fill="#0C0C0C"/>
<path d="M266.096 68.8834L237.364 97.615L536.03 396.281L564.762 367.549L266.096 68.8834Z" fill="#0C0C0C"/>
<path d="M335.925 50.4275C333.241 50.9492 331.075 53.0975 330.533 55.7778C330.06 58.1183 330.773 60.3044 332.174 61.8556C332.695 62.4321 332.812 63.2592 332.548 63.9902C330.873 68.6438 328.694 75.8335 328.333 82.5564C327.736 93.7099 320.756 90.8169 318.783 89.8526C289.746 75.6756 268.921 76.3654 268.801 75.9227C267.916 72.6315 264.635 70.3185 260.939 70.9843C258.231 71.4716 256.031 73.6302 255.503 76.3276C254.645 80.7101 257.977 84.5469 262.205 84.5469C264.086 84.5469 265.788 83.7851 267.02 82.5564C267.864 81.7156 269.12 81.4514 270.27 81.7637C284.636 85.652 315.536 95.1788 315.996 105.255C316.593 118.385 336.494 102.513 336.494 102.513C336.494 102.513 335.255 87.5532 335.581 76.9522C335.798 69.9581 337.146 64.1515 337.308 64.1515C341.134 64.1515 344.233 61.0491 344.233 57.2226C344.243 52.9396 340.359 49.5627 335.925 50.4275Z" fill="#F3F2F2"/>
<path d="M320.454 111.192C319.616 111.192 318.841 111.054 318.154 110.742C316.353 109.925 315.371 108.086 315.244 105.282C314.939 98.5831 298.054 90.0618 270.078 82.4878C269.148 82.2372 268.183 82.4672 267.559 83.0883C266.128 84.516 264.227 85.3019 262.209 85.3019C259.93 85.3019 257.792 84.2929 256.344 82.5324C254.895 80.7718 254.319 78.4588 254.765 76.1835C255.355 73.1703 257.785 70.7817 260.808 70.2395C264.59 69.5634 268.201 71.7083 269.398 75.274C269.666 75.3015 270.057 75.3289 270.459 75.3598C286.475 76.585 302.845 81.2317 319.115 89.173C320.725 89.9589 323.017 90.6796 324.771 89.65C326.436 88.6719 327.379 86.2731 327.578 82.5187C327.939 75.7682 330.094 68.5785 331.834 63.7361C332.012 63.242 331.927 62.7169 331.611 62.3668C329.957 60.5377 329.294 58.0839 329.788 55.6336C330.389 52.6582 332.795 50.2696 335.774 49.693C338.076 49.2469 340.413 49.8303 342.191 51.2957C343.969 52.7611 344.992 54.9232 344.992 57.2259C344.992 61.2824 341.831 64.6147 337.843 64.8927C337.452 66.3581 336.508 71.3514 336.336 76.9797C336.014 87.4125 337.236 102.303 337.246 102.454C337.266 102.705 337.16 102.952 336.964 103.11C336.505 103.467 326.741 111.192 320.454 111.192ZM269.333 80.8748C269.711 80.8748 270.095 80.9263 270.476 81.0292C287.56 85.6554 316.291 94.9488 316.758 105.213C316.857 107.434 317.52 108.793 318.783 109.366C322.794 111.185 332.071 105.001 335.719 102.163C335.527 99.6916 334.542 86.4721 334.837 76.9213C334.953 73.1429 335.386 69.8757 335.729 67.7995C336.46 63.3895 336.711 63.3895 337.318 63.3895C340.719 63.3895 343.488 60.62 343.488 57.2157C343.488 55.3659 342.668 53.6294 341.241 52.4522C339.813 51.2751 337.925 50.805 336.072 51.1687C333.687 51.632 331.758 53.5436 331.278 55.9253C330.88 57.902 331.412 59.8788 332.74 61.3476C333.43 62.1129 333.632 63.2214 333.265 64.2441C331.556 68.9937 329.445 76.029 329.095 82.5976C328.865 86.8908 327.671 89.7015 325.543 90.9507C323.697 92.0386 321.247 91.891 318.457 90.5286C302.358 82.6696 286.173 78.071 270.349 76.863C268.52 76.7223 268.238 76.7017 268.08 76.1148C267.253 73.0433 264.24 71.1524 261.083 71.7221C258.667 72.1545 256.724 74.0626 256.254 76.4683C255.897 78.2975 256.357 80.1575 257.517 81.568C258.677 82.9785 260.393 83.7884 262.215 83.7884C263.832 83.7884 265.352 83.1604 266.498 82.0176C267.236 81.2763 268.262 80.8748 269.333 80.8748ZM335.925 50.4275H335.931H335.925Z" fill="#0C0C0C"/>
<path d="M399.283 120.633C397.097 119.795 383.116 129.971 348.595 106.751C314.074 83.5311 297.111 125.732 316.387 125.925C316.387 125.925 319.441 135.228 328.793 129.552C328.793 129.552 336.378 146.632 346.011 155.092C355.644 163.551 366.025 166.595 369.55 170.59C373.074 174.585 369.979 182.584 380.552 188.226C391.126 193.865 405.694 195.746 435.301 189.87C435.301 189.87 448.781 183.652 461.853 188.226C486.229 196.758 507.067 194.133 516.237 192.197C517.994 191.826 518.303 189.455 516.704 188.638C505.382 182.849 475.947 167.361 464.67 157.213C450.576 144.515 399.283 120.633 399.283 120.633Z" fill="#F3F2F2"/>
<path d="M496.573 194.925C486.696 194.925 474.678 193.508 461.606 188.933C448.987 184.517 435.75 190.488 435.62 190.55C435.565 190.574 435.51 190.594 435.452 190.605C408.872 195.88 392.348 195.365 380.199 188.885C372.985 185.038 371.849 180.072 370.94 176.085C370.48 174.067 370.082 172.323 368.987 171.084C367.505 169.406 364.67 167.865 361.077 165.916C356.554 163.459 350.922 160.405 345.513 155.655C336.913 148.105 330.06 134.075 328.45 130.616C325.598 132.174 323.011 132.538 320.753 131.704C317.808 130.616 316.353 127.816 315.862 126.663C311.919 126.474 309.156 124.545 308.048 121.196C306.219 115.67 309.417 108.024 315.491 103.415C319.658 100.251 331.271 94.187 349.017 106.12C377.306 125.149 391.517 121.566 396.871 120.221C398.213 119.881 398.954 119.696 399.555 119.926C399.572 119.933 399.585 119.94 399.603 119.946C401.703 120.925 451.159 144.021 465.182 156.64C476.315 166.661 505.166 181.878 517.054 187.955C518.073 188.477 518.633 189.548 518.482 190.68C518.331 191.809 517.514 192.691 516.399 192.928C511.766 193.906 504.936 194.925 496.573 194.925ZM451.434 185.769C454.821 185.769 458.469 186.233 462.103 187.506C485.893 195.831 506.134 193.549 516.086 191.449C516.821 191.295 516.958 190.67 516.985 190.481C517.037 190.09 516.903 189.575 516.368 189.301C504.428 183.195 475.44 167.903 464.173 157.762C450.504 145.462 400.845 122.191 399.016 121.336C398.775 121.292 397.962 121.501 397.241 121.683C391.709 123.076 377.021 126.776 348.176 107.372C331.24 95.9785 320.32 101.651 316.411 104.616C310.282 109.267 308.079 116.456 309.486 120.719C310.436 123.591 312.828 125.129 316.397 125.163C316.72 125.166 317.005 125.376 317.108 125.681C317.118 125.715 318.306 129.192 321.291 130.287C323.285 131.018 325.681 130.551 328.405 128.897C328.591 128.783 328.817 128.756 329.023 128.821C329.229 128.886 329.401 129.037 329.487 129.236C329.562 129.405 337.116 146.265 346.512 154.515C351.79 159.152 357.339 162.162 361.797 164.585C365.521 166.606 368.462 168.202 370.12 170.079C371.468 171.61 371.928 173.617 372.412 175.741C373.298 179.623 374.306 184.022 380.909 187.547C392.708 193.841 408.91 194.318 435.071 189.136C435.98 188.731 442.882 185.769 451.434 185.769ZM399.026 121.343H399.033H399.026Z" fill="#0C0C0C"/>
<path d="M402.032 184.331C397.173 184.331 393.552 183.26 389.036 180.851C381.822 177.004 380.686 172.038 379.777 168.051C379.317 166.033 378.919 164.289 377.824 163.05C376.372 161.407 371.777 159.093 366.454 156.417C359.563 152.95 350.987 148.637 345.513 143.832C338.674 137.826 335.396 128.454 334.054 123.406C333.694 122.043 332.283 121.237 330.859 121.559C325.059 122.884 319.795 119.27 317.822 117.177C316.579 115.859 315.08 114.926 313.484 114.479L313.388 114.452C312.042 114.074 311.006 113.103 310.55 111.782C310.09 110.461 310.313 108.992 311.143 107.856C317.283 99.4342 330.883 93.9261 349.021 106.126C377.306 125.156 391.521 121.573 396.874 120.228C398.216 119.888 398.954 119.703 399.558 119.933C401.706 120.931 451.163 144.028 465.185 156.647C473.329 163.974 491.068 174.142 504.521 181.383C504.816 181.541 504.971 181.877 504.902 182.207C504.833 182.536 504.552 182.78 504.219 182.804C494.294 183.538 478.851 183.151 461.613 177.117C448.97 172.694 435.757 178.676 435.627 178.734C435.572 178.758 435.517 178.779 435.458 178.789C432.826 179.31 430.383 179.801 428.107 180.261C415.303 182.825 407.798 184.331 402.032 184.331ZM331.498 119.974C333.358 119.974 335.026 121.182 335.516 123.018C336.817 127.901 339.971 136.955 346.512 142.7C351.838 147.377 360.322 151.643 367.134 155.068C372.82 157.927 377.309 160.185 378.957 162.052C380.305 163.582 380.765 165.59 381.249 167.714C382.134 171.596 383.14 175.995 389.746 179.52C399.143 184.53 404.64 183.425 427.799 178.775C430.05 178.322 432.466 177.838 435.067 177.32C436.34 176.747 449.289 171.204 462.103 175.686C477.639 181.122 491.696 181.912 501.467 181.452C488.288 174.286 471.953 164.777 464.166 157.769C450.312 145.301 399.472 121.559 398.961 121.323C398.806 121.295 397.969 121.508 397.235 121.693C391.702 123.087 377.014 126.786 348.169 107.382C330.924 95.7793 318.1 100.869 312.358 108.748C311.813 109.496 311.672 110.423 311.97 111.291C312.262 112.135 312.928 112.757 313.789 113L313.885 113.028C315.742 113.549 317.482 114.627 318.916 116.144C320.684 118.018 325.379 121.257 330.519 120.091C330.849 120.012 331.175 119.974 331.498 119.974Z" fill="#0C0C0C"/>
<path d="M496.573 194.925C486.696 194.925 474.678 193.508 461.606 188.933C448.987 184.517 435.75 190.488 435.62 190.55C435.565 190.574 435.51 190.594 435.452 190.605C408.872 195.879 392.348 195.365 380.199 188.885C372.985 185.038 371.849 180.072 370.94 176.085C370.48 174.067 370.082 172.323 368.987 171.084C367.505 169.406 364.67 167.865 361.077 165.916C356.554 163.459 350.922 160.404 345.513 155.655C336.913 148.105 330.06 134.075 328.45 130.616C325.598 132.174 323.011 132.538 320.753 131.704C317.808 130.616 316.353 127.816 315.862 126.662C311.919 126.474 309.156 124.545 308.048 121.196C306.219 115.67 309.417 108.024 315.491 103.415C319.658 100.251 331.271 94.1869 349.017 106.119C377.306 125.149 391.517 121.566 396.871 120.221C398.213 119.881 398.954 119.696 399.555 119.926C399.572 119.933 399.585 119.94 399.603 119.946C401.703 120.924 451.159 144.021 465.182 156.64C476.315 166.661 505.166 181.877 517.054 187.955C518.073 188.477 518.633 189.548 518.482 190.68C518.331 191.809 517.514 192.691 516.399 192.928C511.766 193.906 504.936 194.925 496.573 194.925ZM451.434 185.769C454.821 185.769 458.469 186.232 462.103 187.506C485.893 195.831 506.134 193.549 516.086 191.449C516.821 191.294 516.958 190.67 516.985 190.481C517.037 190.09 516.903 189.575 516.368 189.301C504.428 183.195 475.44 167.903 464.173 157.762C450.504 145.462 400.845 122.191 399.016 121.336C398.775 121.292 397.962 121.501 397.241 121.683C391.709 123.076 377.021 126.776 348.176 107.372C331.24 95.9783 320.32 101.651 316.411 104.616C310.282 109.266 308.079 116.456 309.486 120.719C310.436 123.591 312.828 125.128 316.397 125.163C316.72 125.166 317.005 125.376 317.108 125.681C317.118 125.715 318.306 129.192 321.291 130.287C323.285 131.017 325.681 130.551 328.405 128.897C328.591 128.783 328.817 128.756 329.023 128.821C329.229 128.886 329.401 129.037 329.487 129.236C329.562 129.405 337.116 146.265 346.512 154.515C351.79 159.152 357.339 162.162 361.797 164.584C365.521 166.606 368.462 168.202 370.12 170.079C371.468 171.609 371.928 173.617 372.412 175.741C373.298 179.623 374.306 184.022 380.909 187.547C392.708 193.841 408.91 194.318 435.071 189.136C435.98 188.731 442.882 185.769 451.434 185.769ZM399.026 121.343H399.033H399.026Z" fill="#0C0C0C"/>
<path d="M328.793 130.304C328.553 130.304 328.316 130.19 328.169 129.974C327.932 129.631 328.021 129.161 328.364 128.924C331.913 126.487 331.443 123.402 331.439 123.371C331.371 122.959 331.649 122.568 332.06 122.5C332.472 122.424 332.86 122.709 332.932 123.121C332.96 123.285 333.557 127.194 329.222 130.17C329.092 130.262 328.941 130.304 328.793 130.304Z" fill="#0C0C0C"/>
<path d="M496.992 77.364C487.66 68.0671 472.745 59.9062 451.314 55.0673C407.63 45.2041 379.773 80.8576 369.073 98.2124C366.08 103.065 367.728 109.424 372.673 112.256C382.018 117.606 397.341 125.801 410.049 129.885C443.163 140.527 467.309 166.894 467.309 166.894C467.309 166.894 534.889 115.131 496.992 77.364Z" fill="#0C0C0C"/>
<path d="M477.77 64.0896C469.372 61.8246 458.98 60.9083 450.675 66.1247C426.762 81.139 417.551 103.456 420.571 133.976C445.404 143.605 467.309 166.894 467.309 166.894C467.309 166.894 534.893 115.131 496.995 77.364C492.139 72.5285 485.773 68.0019 477.77 64.0896Z" fill="#F3F2F2"/>
<path d="M467.306 167.652C467.104 167.652 466.904 167.573 466.757 167.416C466.541 167.182 444.676 144.137 420.297 134.683C420.032 134.58 419.847 134.336 419.816 134.051C416.721 102.725 426.683 80.2981 450.27 65.4862C457.264 61.0969 466.839 60.3625 477.965 63.3619C478.013 63.3757 478.058 63.3928 478.099 63.4134C485.862 67.209 492.396 71.7219 497.523 76.8319C505.986 85.264 509.916 95.0825 509.205 106.013C507.191 136.965 468.161 167.199 467.766 167.501C467.629 167.601 467.467 167.652 467.306 167.652ZM421.275 133.44C443.791 142.329 464.032 162.453 467.375 165.878C472.039 162.154 505.853 134.226 507.695 105.907C508.375 95.4325 504.593 86.0087 496.456 77.8992C491.463 72.9231 485.086 68.5166 477.502 64.7999C470.038 62.7957 459.42 61.5225 451.077 66.7629C428.135 81.1698 418.382 102.983 421.275 133.44Z" fill="#0C0C0C"/>
<path d="M477.952 75.4867C477.952 75.4867 491.236 70.5037 505.533 80.5178C517.782 89.0974 532.49 100.656 531.516 138.979C530.541 177.303 498.388 183.151 494.164 182.825C489.942 182.499 465.906 183.151 459.087 144.175C452.271 105.2 464.78 78.795 477.952 75.4867Z" fill="#0C0C0C"/>
<path d="M531.519 138.979C532.302 108.22 523.039 94.6159 512.974 86.0774C510.177 83.706 506.769 82.1788 503.145 81.64C503.128 81.6366 503.114 81.6366 503.097 81.6332C480.913 78.3523 477.914 105.073 478.137 116.58C478.621 141.649 490.979 167.23 518.863 171.366C525.582 164.752 531.121 154.546 531.519 138.979Z" fill="#F3F2F2"/>
<path d="M518.859 172.121C518.821 172.121 518.784 172.117 518.749 172.114C505.671 170.175 494.898 163.304 487.592 152.24C481.263 142.662 477.639 130.002 477.382 116.593C477.282 111.332 477.701 93.5108 487.379 84.9929C491.545 81.3277 496.868 79.9481 503.21 80.885C503.22 80.885 503.279 80.8953 503.289 80.8988C507.04 81.4513 510.571 83.0437 513.464 85.5009C522.658 93.298 533.105 106.425 532.278 138.996C531.928 152.768 527.593 163.84 519.395 171.904C519.247 172.045 519.058 172.121 518.859 172.121ZM499.507 82.1205C495.131 82.1205 491.404 83.4658 488.374 86.1323C481.071 92.5567 478.686 106.068 478.892 116.566C479.317 138.725 489.984 166.098 518.598 170.563C526.334 162.803 530.428 152.175 530.764 138.962C531.578 107.029 521.423 94.2349 512.486 86.6574C509.806 84.3855 506.539 82.9098 503.035 82.3916C501.813 82.2097 500.639 82.1205 499.507 82.1205Z" fill="#0C0C0C"/>
<path d="M503.663 90.0927C503.663 90.0927 495.114 97.5982 501.062 111.837C507.006 126.072 517.72 128.691 521.227 129.332C528.438 130.65 535.469 122.596 529.457 106.617C523.444 90.6349 510.338 84.2311 503.663 90.0927Z" fill="#0C0C0C"/>
<path d="M519.309 97.2481C515.74 101.342 517.816 109.043 521.752 112.77C527.281 118.004 534.481 110.059 532.048 102.818C530.411 97.9482 523.108 92.8897 519.309 97.2481Z" fill="#F3F2F2"/>
<path d="M525.627 115.21C524.082 115.21 522.555 114.572 521.231 113.319C516.941 109.26 514.919 101.136 518.739 96.7539C520.143 95.1444 522.061 94.5301 524.295 94.9728C527.789 95.6694 531.588 99.0807 532.765 102.581C534.354 107.317 532.092 112.197 528.983 114.181C527.902 114.867 526.759 115.21 525.627 115.21ZM522.933 96.3421C521.715 96.3421 520.692 96.8122 519.878 97.7457C516.649 101.452 518.547 108.693 522.27 112.221C524.714 114.534 527.017 113.642 528.17 112.904C530.788 111.233 532.686 107.094 531.331 103.058C530.328 100.069 526.969 97.0422 524 96.4519C523.629 96.3798 523.273 96.3421 522.933 96.3421ZM519.309 97.2481H519.316H519.309Z" fill="#0C0C0C"/>
<path d="M494.565 183.593C494.397 183.593 494.243 183.586 494.112 183.576C493.917 183.562 493.673 183.549 493.395 183.535C488.937 183.295 475.385 182.564 465.957 166.568C461.609 162.069 439.258 140.067 409.819 130.606C397.368 126.604 382.543 118.773 372.299 112.911C369.718 111.435 367.892 109.033 367.158 106.154C366.43 103.288 366.88 100.326 368.428 97.8177C378.559 81.3929 406.93 44.274 451.478 54.3328C469.911 58.4956 485.073 65.5618 495.334 74.7694C499.047 75.8333 502.623 77.5595 505.969 79.9035C511.481 83.7643 517.253 88.1022 522.023 94.9109C526.258 94.2383 531.365 98.4114 532.765 102.581C534.196 106.843 532.508 111.137 530.02 113.385C531.763 120.725 532.521 129.343 532.278 139.003C531.911 153.486 527.154 164.955 518.139 173.092C509.075 181.266 498.097 183.593 494.565 183.593ZM436.625 54.144C401.325 54.144 378.517 84.3306 369.711 98.607C368.38 100.766 367.992 103.316 368.616 105.78C369.248 108.257 370.82 110.327 373.044 111.597C383.226 117.424 397.952 125.204 410.276 129.164C440.201 138.784 462.862 161.187 467.1 165.583C467.141 165.624 467.179 165.672 467.207 165.727C476.222 181.098 489.201 181.798 493.467 182.028C493.762 182.046 494.013 182.059 494.219 182.073C495.893 182.21 507.236 180.886 517.116 171.966C525.809 164.118 530.397 153.012 530.754 138.959C531.001 129.233 530.222 120.595 528.431 113.285C528.362 113 528.462 112.698 528.695 112.516C530.97 110.701 532.604 106.871 531.324 103.058C530.105 99.4272 525.291 95.587 521.869 96.4793C521.56 96.5617 521.234 96.4381 521.056 96.1739C516.378 89.3342 510.606 84.9963 505.098 81.1355C501.841 78.8568 498.357 77.1855 494.751 76.1696C494.637 76.1387 494.534 76.0804 494.449 76.0015C484.376 66.9105 469.403 59.9233 451.142 55.8016C446.094 54.6622 441.251 54.144 436.625 54.144Z" fill="#0C0C0C"/>
<path d="M378.39 310.434L393.363 315.812L392.159 323.867L380.422 325.596L378.39 310.434Z" fill="#0C0C0C"/>
<path d="M389.118 317.411C389.118 317.411 398.803 318.245 402.139 344.039L419.281 351.105L415.821 360.543L396.672 346.139C396.672 346.139 394.602 323.125 390.474 320.936C386.345 318.753 389.118 317.411 389.118 317.411Z" fill="#0C0C0C"/>
<path d="M308.449 337.323L300.933 351.345L307.224 356.521L317.097 349.942L308.449 337.323Z" fill="#0C0C0C"/>
<path d="M304.303 350.021C304.303 350.021 297.67 357.125 312.475 378.516L304.482 395.246L313.37 399.937L317.942 376.415C317.942 376.415 304.06 357.942 305.663 353.552C307.262 349.156 304.303 350.021 304.303 350.021Z" fill="#0C0C0C"/>
<path d="M361.262 277.822L376.506 269.959C376.506 269.959 391.376 305.441 415.688 294.672L419.246 300.4C419.246 300.4 390.433 310.987 375.768 279.465L365.761 285.392L361.262 277.822Z" fill="#0C0C0C"/>
<path d="M300.614 301.138L284.028 305.51C284.028 305.51 296.757 341.815 271.492 350.107L272.686 356.744C272.686 356.744 301.17 345.302 290.943 312.075L302.344 309.772L300.614 301.138Z" fill="#0C0C0C"/>
<path d="M351.879 275.577C351.879 275.577 367.861 269.012 350.767 245.181L361.029 234.625L357.089 229.532L345.644 245.61C345.644 245.61 361.763 265.189 349.034 271.627C336.309 278.058 351.879 275.577 351.879 275.577Z" fill="#0C0C0C"/>
<path d="M321.408 251.256C321.284 251.256 321.157 251.225 321.041 251.16C320.677 250.957 320.546 250.497 320.749 250.13C321.349 249.052 335.619 223.657 350.287 219.353C350.688 219.237 351.107 219.466 351.224 219.865C351.34 220.266 351.11 220.685 350.712 220.801C336.635 224.93 322.214 250.604 322.07 250.861C321.929 251.115 321.672 251.256 321.408 251.256Z" fill="#0C0C0C"/>
<path d="M310.172 255.576C310.09 255.576 310.007 255.563 309.928 255.535C309.647 255.439 281.739 246.039 268.523 252.405C268.149 252.587 267.696 252.429 267.514 252.052C267.332 251.678 267.49 251.225 267.868 251.043C281.643 244.413 309.245 253.706 310.416 254.108C310.81 254.241 311.023 254.67 310.886 255.068C310.779 255.377 310.484 255.576 310.172 255.576Z" fill="#0C0C0C"/>
<path d="M302.553 294.538C302.553 294.538 286.29 300.372 283.016 271.225L268.324 270.265L267.837 263.844L287.103 268.113C287.103 268.113 288.253 293.45 302.011 289.699C315.776 285.952 302.553 294.538 302.553 294.538Z" fill="#0C0C0C"/>
<path d="M310.292 266.366C310.069 265.79 303.192 247.995 313.01 244.186C321.195 241.012 325.684 252.488 328.316 259.767C330.948 267.046 310.292 266.366 310.292 266.366Z" fill="#F3F2F2"/>
<path d="M311.96 267.145C311.126 267.145 310.525 267.128 310.268 267.121C309.966 267.111 309.698 266.922 309.589 266.637L310.296 266.366L309.589 266.63C308.84 264.678 302.553 247.436 312.742 243.483C314.843 242.669 316.871 242.693 318.769 243.555C324.143 245.998 327.321 254.787 329.03 259.509C329.504 260.824 329.359 262.063 328.611 263.096C325.952 266.75 316.088 267.145 311.96 267.145ZM310.824 265.625C315.128 265.707 325.169 265.254 327.386 262.207C327.846 261.575 327.915 260.879 327.606 260.024C325.972 255.511 322.935 247.11 318.141 244.931C316.607 244.234 315.014 244.22 313.285 244.893C305.017 248.098 309.798 262.756 310.824 265.625Z" fill="#0C0C0C"/>
<path d="M301.29 296.848C301.29 296.848 295.484 286.089 302.622 272.135C309.359 258.97 328.172 255.683 334.26 257.234C341.175 258.998 348.917 263.432 354.587 276.356C356.969 281.789 342.75 297.455 328.827 301.22C314.911 304.985 301.29 296.848 301.29 296.848Z" fill="#F3F2F2"/>
<path d="M321.041 302.98C310.237 302.98 301.362 297.771 300.906 297.496C300.789 297.428 300.693 297.328 300.628 297.205C300.384 296.752 294.715 285.934 301.953 271.792C308.882 258.246 328.117 254.883 334.452 256.503C343.739 258.871 350.554 265.264 355.284 276.054C355.901 277.465 355.647 279.362 354.528 281.7C351.052 288.954 339.727 299.054 329.03 301.947C326.315 302.682 323.621 302.98 321.041 302.98ZM301.867 296.306C303.535 297.239 316.061 303.89 328.635 300.492C338.938 297.706 349.83 288.011 353.166 281.051C354.062 279.184 354.323 277.626 353.9 276.662C349.305 266.184 343.004 260.244 334.078 257.968C328.766 256.613 309.939 259.506 303.298 272.482C296.915 284.95 301.17 294.85 301.867 296.306Z" fill="#0C0C0C"/>
<path d="M307.437 286.782C307.052 286.782 306.723 286.49 306.685 286.099C306.294 282.098 307.111 278.089 309.108 274.184C313.902 264.811 327.218 262.492 331.597 263.607C334.291 264.293 336.607 265.415 338.677 267.039C339.006 267.296 339.061 267.773 338.804 268.099C338.546 268.429 338.069 268.484 337.743 268.226C335.842 266.733 333.708 265.7 331.223 265.069C327.64 264.156 314.935 266.105 310.453 274.87C308.59 278.515 307.828 282.242 308.188 285.952C308.23 286.367 307.924 286.738 307.509 286.775C307.485 286.779 307.461 286.782 307.437 286.782Z" fill="#0C0C0C"/>
<path d="M306.894 293.032C301.942 294.363 298.061 298.221 296.726 303.173C294.44 311.656 294.416 326.468 308.586 347.488C332.201 382.514 389.399 390.184 387.107 324.327C387.107 324.327 383.933 287.256 362.35 276.531C358.276 274.506 353.482 274.541 349.429 276.6L345.482 278.604C341.36 280.698 337.736 283.656 334.861 287.276L331.298 291.765L323.189 290.897C319.239 290.475 315.248 290.787 311.411 291.817L306.894 293.032Z" fill="#F3F2F2"/>
<path d="M353.42 374.74C337.222 374.74 319.132 364.476 307.965 347.91C293.751 326.828 293.613 311.838 295.998 302.977C297.395 297.795 301.496 293.704 306.699 292.304L311.222 291.086C315.162 290.025 319.218 289.709 323.275 290.142L330.969 290.969L334.274 286.806C337.239 283.072 340.894 280.087 345.142 277.928L349.089 275.924C353.348 273.762 358.431 273.738 362.689 275.852C384.403 286.641 387.732 322.731 387.862 324.261C389.094 359.637 373.438 370.059 363.997 373.124C360.637 374.215 357.075 374.74 353.42 374.74ZM307.09 293.762C302.406 295.022 298.713 298.704 297.457 303.368C295.151 311.927 295.319 326.454 309.214 347.066C322.321 366.507 346.179 377.321 363.53 371.686C379.135 366.617 387.241 349.808 386.355 324.351C386.325 324.021 382.965 287.616 362.017 277.204C358.183 275.299 353.605 275.323 349.775 277.269L345.829 279.273C341.776 281.332 338.286 284.181 335.458 287.743L331.896 292.232C331.734 292.434 331.48 292.548 331.223 292.513L323.113 291.642C319.242 291.226 315.375 291.528 311.613 292.541L307.09 293.762ZM306.895 293.031H306.901H306.895Z" fill="#0C0C0C"/>
<path d="M308.514 298.001C304.31 311.234 303.768 347.135 343.324 367.557C344.168 367.993 345.002 366.943 344.384 366.219C337.644 358.312 319.963 337.858 316.212 322.322C313.123 309.535 314.692 302.318 314.63 298.969C314.596 297.177 313.089 295.767 311.298 295.863C310.017 295.931 308.902 296.779 308.514 298.001Z" fill="#0C0C0C"/>
<path d="M355.157 280.069C367.144 287.077 391.596 313.372 375.909 355.031C375.573 355.924 374.251 355.701 374.224 354.746C373.932 344.358 373.356 317.332 365.734 303.283C359.46 291.717 353.461 287.41 351.265 284.884C350.088 283.532 350.263 281.477 351.66 280.347C352.658 279.541 354.048 279.421 355.157 280.069Z" fill="#0C0C0C"/>
<path d="M322.235 300.479C323.498 311.227 329.171 343.353 353.156 367.18C353.653 367.678 354.463 367.091 354.141 366.466C350.184 358.847 340.496 339.708 336.055 326.712C332.74 317.006 329.73 304.906 328.776 299.518C328.498 297.939 327.118 296.793 325.516 296.796C323.539 296.8 322.005 298.519 322.235 300.479Z" fill="#0C0C0C"/>
<path d="M344.329 291.985C350.592 300.812 367.899 328.465 366.056 362.221C366.018 362.924 365.023 363.031 364.848 362.351C362.683 354.043 357.054 333.345 351.646 320.72C347.607 311.292 341.735 300.293 338.835 295.653C337.984 294.294 338.241 292.52 339.432 291.449C340.897 290.128 343.186 290.375 344.329 291.985Z" fill="#0C0C0C"/>
<path d="M359.419 365.656C359.117 365.656 358.829 365.471 358.712 365.172L332.53 297.067C332.379 296.68 332.575 296.24 332.966 296.093C333.354 295.942 333.793 296.137 333.941 296.529L360.122 364.634C360.273 365.021 360.078 365.461 359.687 365.608C359.601 365.639 359.508 365.656 359.419 365.656Z" fill="#0C0C0C"/>
<path d="M160.835 423.14C169.689 429.138 170.51 453.923 172.692 464.013C172.74 464.239 172.792 464.462 172.84 464.682C173.458 467.404 177.119 467.887 178.42 465.42C183.791 455.224 187.779 444.585 180.036 433.25C167.14 414.368 167.641 400.421 172.685 385.41C175.908 375.821 174.648 366.916 172.764 361.922C166.422 345.117 184.312 299.329 213.284 348.689C225.416 369.352 224.716 383.879 222.382 390.887C220.048 397.898 210.882 406.77 221.171 424.403C231.459 442.032 227.571 458.011 217.934 472.654C208.298 487.295 214.849 502.604 218.579 510.6L218.597 510.641C219.3 512.165 221.387 512.344 222.354 510.971C226.641 504.907 232.592 503.411 236.617 502.817C241.844 502.048 249.408 494.268 256.738 482.497C264.072 470.726 292.628 466.01 301.109 474.199C309.589 482.387 309.043 507.786 297.66 517.587C286.276 527.389 242.372 527.516 239.672 545.564C237.86 557.661 222.478 562.651 212.529 564.628C207.018 565.723 205.405 566.574 201.482 570.599C197.504 574.68 195.219 588.661 186.385 586.248C175.379 584.052 177.473 565.98 173.221 555.204C173.214 555.187 173.207 555.173 173.2 555.156C172.037 552.198 170.081 549.627 167.483 547.795C165.352 546.288 162.809 544.023 159.775 540.759C140.251 519.756 149.654 509.2 148.8 497.834C147.945 486.467 136.38 466.305 136.38 466.305C124.478 428.037 151.981 417.141 160.835 423.14Z" fill="#F3F2F2"/>
<path d="M188.376 587.281C187.689 587.281 186.962 587.182 186.186 586.973C178.29 585.397 176.756 576.21 175.273 567.322C174.583 563.18 173.869 558.9 172.517 555.479C171.368 552.555 169.484 550.125 167.047 548.409C164.754 546.789 162.122 544.39 159.222 541.271C144.397 525.326 145.975 515.264 147.365 506.389C147.825 503.455 148.258 500.682 148.048 497.889C147.218 486.821 135.838 466.882 135.724 466.683C135.697 466.635 135.676 466.583 135.659 466.532C127.467 440.203 138.202 428.734 143.199 425.027C149.119 420.634 156.882 419.553 161.254 422.519C168.255 427.261 170.311 442.386 171.965 454.534C172.469 458.248 172.905 461.453 173.427 463.855L173.574 464.518C173.832 465.647 174.724 466.151 175.472 466.251C176.22 466.35 177.209 466.089 177.747 465.07C182.614 455.832 187.158 445.025 179.408 433.676C166.199 414.337 166.879 400.297 171.965 385.17C175.009 376.113 174.007 367.362 172.054 362.19C168.063 351.613 173.077 331.849 183.482 326.876C189.845 323.832 200.298 325.078 213.933 348.308C227.42 371.285 224.832 385.908 223.096 391.127C222.615 392.569 221.86 394.079 221.064 395.675C217.818 402.168 213.782 410.243 221.819 424.022C230.999 439.75 229.932 455.794 218.562 473.066C208.812 487.878 216.133 503.575 219.259 510.278C219.492 510.786 219.925 511.088 220.433 511.136C220.948 511.18 221.435 510.957 221.733 510.532C226.184 504.238 232.293 502.686 236.501 502.069C241.357 501.355 248.862 493.702 256.093 482.099C260.729 474.659 272.47 470.77 281.118 469.703C290.236 468.574 297.9 470.057 301.627 473.657C305.645 477.538 307.893 485.139 307.639 493.99C307.348 504.262 303.799 513.298 298.147 518.161C293.607 522.07 284.217 524.441 274.278 526.953C259.144 530.776 241.992 535.111 240.413 545.674C238.508 558.392 222.214 563.471 212.673 565.366C207.296 566.433 205.803 567.24 202.021 571.124C200.878 572.298 199.828 574.47 198.713 576.773C196.424 581.516 193.633 587.281 188.376 587.281ZM137.083 466C137.965 467.544 148.721 486.598 149.562 497.772C149.785 500.741 149.339 503.596 148.865 506.619C147.527 515.154 146.013 524.832 160.338 540.238C163.166 543.278 165.719 545.612 167.925 547.17C170.602 549.061 172.672 551.724 173.911 554.875C175.338 558.492 176.066 562.854 176.769 567.071C178.231 575.84 179.614 584.117 186.536 585.5C192.089 587.017 194.766 581.471 197.36 576.111C198.527 573.695 199.632 571.416 200.947 570.067C204.965 565.942 206.678 565.016 212.388 563.883C221.541 562.064 237.163 557.253 238.927 545.447C240.657 533.889 258.327 529.424 273.918 525.484C283.678 523.017 292.9 520.687 297.169 517.011C302.502 512.419 305.855 503.795 306.136 493.942C306.373 485.634 304.245 478.276 300.587 474.738C297.183 471.45 289.979 470.129 281.31 471.196C272.336 472.304 261.457 476.35 257.383 482.892C249.813 495.044 242.091 502.769 236.731 503.558C232.798 504.138 227.09 505.58 222.976 511.4C222.361 512.272 221.352 512.728 220.302 512.635C219.252 512.539 218.356 511.908 217.914 510.95C214.664 503.98 207.093 487.748 217.306 472.229C228.48 455.248 229.503 440.169 220.519 424.777C212.066 410.291 216.486 401.45 219.715 394.992C220.491 393.444 221.219 391.982 221.665 390.644C223.339 385.619 225.807 371.508 212.636 349.067C202.45 331.715 192.329 324.323 184.138 328.235C174.618 332.786 169.731 351.74 173.471 361.651C175.517 367.067 176.57 376.213 173.399 385.647C168.457 400.349 167.802 413.997 180.661 432.821C188.884 444.863 184.162 456.144 179.089 465.77C178.348 467.177 176.852 467.949 175.28 467.743C173.705 467.538 172.456 466.398 172.102 464.847L171.951 464.171C171.419 461.71 170.98 458.477 170.468 454.733C168.941 443.504 166.848 428.13 160.406 423.764C157.115 421.537 150.286 421.643 144.098 426.235C139.373 429.749 129.221 440.652 137.083 466Z" fill="#0C0C0C"/>
<path d="M188.39 574.446C188.321 574.446 188.249 574.436 188.18 574.415C187.779 574.299 187.549 573.88 187.662 573.482C211.273 491.468 202.292 394.532 194.835 344.053C194.773 343.641 195.058 343.257 195.473 343.195C195.885 343.126 196.269 343.418 196.331 343.833C203.805 394.436 212.807 491.615 189.117 573.904C189.021 574.23 188.716 574.446 188.39 574.446Z" fill="#0C0C0C"/>
<path d="M211.764 556.398C211.657 556.398 211.548 556.374 211.445 556.326C211.067 556.151 210.902 555.698 211.081 555.321C223.103 529.568 245.715 512.186 262.569 502.141C280.806 491.265 296.431 486.399 296.589 486.351C296.987 486.227 297.409 486.454 297.532 486.852C297.656 487.25 297.433 487.672 297.031 487.796C296.414 487.984 235.155 507.33 212.45 555.962C212.32 556.237 212.049 556.398 211.764 556.398Z" fill="#0C0C0C"/>
<path d="M175.973 543.131C175.558 543.131 175.218 542.795 175.218 542.379C175.019 504.022 157.572 457.942 157.397 457.482C157.249 457.091 157.445 456.655 157.832 456.508C158.224 456.363 158.659 456.552 158.807 456.943C158.986 457.407 176.526 503.744 176.728 542.372C176.732 542.788 176.395 543.131 175.977 543.131H175.973Z" fill="#0C0C0C"/>
<path d="M203.28 473.341C203.013 473.341 202.752 473.197 202.614 472.943C196.194 461 193.029 445.543 192.995 445.388C192.913 444.98 193.177 444.582 193.585 444.496C194.001 444.417 194.395 444.678 194.478 445.086C194.508 445.241 197.631 460.482 203.946 472.222C204.145 472.589 204.004 473.049 203.637 473.245C203.524 473.31 203.404 473.341 203.28 473.341Z" fill="#0C0C0C"/>
<path d="M202.395 490.249C202.189 490.249 201.983 490.164 201.832 489.999C192.576 479.696 188.671 464.991 188.633 464.843C188.527 464.438 188.771 464.027 189.175 463.92C189.574 463.817 189.992 464.058 190.099 464.463C190.136 464.607 193.953 478.965 202.958 488.99C203.236 489.299 203.212 489.779 202.899 490.057C202.759 490.184 202.577 490.249 202.395 490.249Z" fill="#0C0C0C"/>
<path d="M174.007 520.995C173.856 520.995 173.705 520.951 173.571 520.858C165.647 515.261 157.482 493.208 157.139 492.274C156.995 491.883 157.197 491.447 157.589 491.303C157.98 491.159 158.416 491.361 158.56 491.753C158.642 491.979 166.903 514.296 174.446 519.623C174.786 519.863 174.868 520.333 174.628 520.676C174.477 520.886 174.243 520.995 174.007 520.995Z" fill="#0C0C0C"/>
<path d="M267.823 500.449C267.789 500.449 267.751 500.446 267.717 500.442C267.305 500.384 267.017 499.999 267.075 499.588C269.083 485.548 280.016 478.207 280.48 477.902C280.83 477.672 281.296 477.768 281.526 478.118C281.756 478.465 281.66 478.935 281.31 479.165C281.204 479.237 270.479 486.454 268.571 499.8C268.516 500.178 268.194 500.449 267.823 500.449Z" fill="#0C0C0C"/>
<path d="M233.258 526.74C232.883 526.74 232.557 526.462 232.509 526.081C232.454 525.666 232.746 525.289 233.161 525.234C249.109 523.164 267.833 514.543 268.022 514.458C268.403 514.283 268.849 514.447 269.024 514.825C269.199 515.202 269.035 515.652 268.657 515.827C268.468 515.916 249.531 524.63 233.357 526.73C233.323 526.737 233.292 526.74 233.258 526.74Z" fill="#0C0C0C"/>
<path d="M202.82 396.176C202.659 396.176 202.494 396.124 202.357 396.018C202.028 395.76 201.966 395.287 202.223 394.957C210.535 384.257 211.428 367.407 211.434 367.238C211.455 366.823 211.819 366.504 212.224 366.521C212.639 366.542 212.962 366.895 212.941 367.314C212.907 368.024 212.014 384.816 203.414 395.887C203.27 396.073 203.047 396.176 202.82 396.176Z" fill="#0C0C0C"/>
<path d="M364.11 624.472C366.9 626.511 370.789 626.102 373.119 623.553C379.842 616.191 391.939 601.465 393.377 589.121C393.635 586.907 394.036 583.472 392.368 579.855C389.036 572.624 381.784 574.062 378.994 568.626C375.312 561.453 385.944 555.101 385.607 538.968C385.525 535.1 385.402 529.074 381.362 524.283C376.853 518.933 372.107 520.625 367.388 515.951C361.506 510.123 365.198 503.843 361.471 494.278C357.545 484.203 346.258 472.723 333.715 473.749C322.777 474.641 315.035 484.704 312.032 492.607C307.595 504.286 311.298 517.076 317.588 525.011C326.631 536.418 340.561 537.194 340.149 542.372C339.768 547.194 327.678 546.727 324.751 554.778C322.705 560.4 325.859 568.173 330.88 572.047C337.84 577.415 345.273 572.881 348.825 577.439C352.552 582.216 346.11 589.416 346.227 598.586C346.32 605.405 350.054 614.208 364.11 624.472Z" fill="#F3F2F2"/>
<path d="M368.095 626.531C366.55 626.531 364.999 626.058 363.668 625.083C351.711 616.349 345.592 607.437 345.479 598.586C345.427 594.475 346.639 590.789 347.709 587.535C349.044 583.479 350.098 580.277 348.238 577.895C346.742 575.98 344.412 575.901 341.46 575.805C338.238 575.699 334.226 575.569 330.427 572.638C324.843 568.331 321.981 560.201 324.047 554.511C325.759 549.799 330.372 547.829 334.075 546.25C336.861 545.059 339.267 544.033 339.401 542.307C339.552 540.392 336.776 539.019 332.935 537.118C328.285 534.819 321.916 531.672 317.001 525.474C311.304 518.291 306.404 505.302 311.332 492.333C314.75 483.334 322.98 473.862 333.66 472.987C345.99 471.985 357.847 482.878 362.182 493.997C363.822 498.201 364.059 501.777 364.272 504.927C364.546 509.035 364.766 512.278 367.927 515.408C370.034 517.495 372.117 518.229 374.32 519.005C376.836 519.89 379.433 520.807 381.946 523.789C386.156 528.786 386.283 534.901 386.369 538.947C386.548 547.445 383.764 553.241 381.534 557.898C379.519 562.099 378.061 565.136 379.674 568.272C380.841 570.548 382.858 571.495 385.196 572.59C387.986 573.897 391.146 575.38 393.061 579.532C394.818 583.345 394.389 587.014 394.136 589.203C392.684 601.644 380.7 616.38 373.685 624.057C372.189 625.691 370.15 626.531 368.095 626.531ZM364.556 623.862C367.038 625.674 370.48 625.323 372.563 623.041C379.454 615.498 391.229 601.05 392.629 589.032C392.883 586.866 393.264 583.596 391.685 580.167C390.004 576.516 387.231 575.215 384.55 573.959C382.179 572.847 379.729 571.697 378.325 568.966C376.369 565.16 378.047 561.666 380.164 557.246C382.33 552.733 385.024 547.119 384.852 538.978C384.773 535.145 384.653 529.352 380.786 524.764C378.538 522.097 376.242 521.287 373.812 520.429C371.547 519.629 369.207 518.806 366.856 516.479C363.29 512.948 363.043 509.276 362.758 505.027C362.552 501.983 362.322 498.534 360.768 494.543C356.639 483.938 345.42 473.54 333.776 474.49C323.755 475.307 315.989 484.309 312.739 492.865C308.339 504.447 312.3 517.114 318.178 524.53C322.884 530.46 329.075 533.522 333.598 535.759C337.973 537.921 341.134 539.483 340.901 542.42C340.691 545.059 337.898 546.254 334.662 547.637C331.048 549.181 326.95 550.928 325.461 555.026C323.632 560.053 326.326 567.569 331.343 571.437C334.758 574.069 338.341 574.189 341.505 574.292C344.583 574.391 347.497 574.488 349.425 576.962C351.78 579.982 350.558 583.699 349.141 588.006C348.108 591.146 346.937 594.705 346.989 598.565C347.095 606.915 353.005 615.426 364.556 623.862Z" fill="#0C0C0C"/>
<path d="M369.951 571.56C369.605 571.56 369.292 571.323 369.213 570.97C360.249 531.033 335.719 502.796 335.472 502.515C335.197 502.203 335.228 501.726 335.54 501.448C335.852 501.173 336.33 501.204 336.607 501.516C336.858 501.801 361.643 530.327 370.689 570.637C370.782 571.045 370.524 571.447 370.116 571.54C370.065 571.553 370.006 571.56 369.951 571.56Z" fill="#0C0C0C"/>
<path d="M367.226 622.331C367.048 625.097 370.36 626.634 372.381 624.737C404.054 594.976 408.961 577.621 406.501 566.907C405.739 563.598 403.408 557.04 404.294 547.86C405.443 535.951 410.886 531.209 414.356 522.44C421.141 505.288 416.01 483.729 405.838 469.933C398.734 460.296 383.092 446.202 367.916 450.107C361.499 451.758 353.441 457.07 353.166 463.358C352.775 472.352 369.618 474.779 372.206 488.256C373.62 495.607 369.042 496.99 370.61 504.783C373.078 517.066 385.59 519.352 384.897 526.984C384.228 534.376 372.199 534.115 369.989 543.007C367.467 553.152 380.758 560.561 377.333 569.896C375.295 575.452 370.164 573.969 367.113 580.123C363.403 587.611 367.154 593.751 368.606 607.965C369.111 612.931 367.487 618.292 367.226 622.331Z" fill="#F3F2F2"/>
<path d="M370.301 626.339C369.749 626.339 369.183 626.216 368.647 625.962C367.206 625.282 366.372 623.872 366.475 622.283C366.571 620.804 366.839 619.18 367.123 617.461C367.614 614.496 368.17 611.136 367.854 608.041C367.374 603.342 366.65 599.574 366.012 596.249C364.711 589.481 363.85 585.01 366.437 579.786C368.067 576.499 370.281 575.236 372.237 574.124C374.097 573.063 375.703 572.15 376.626 569.635C378.232 565.252 375.82 561.241 373.263 556.992C370.645 552.64 367.937 548.138 369.258 542.822C370.463 537.976 374.385 535.68 377.848 533.659C381.071 531.775 383.854 530.148 384.145 526.915C384.441 523.658 382.004 521.438 378.915 518.627C375.483 515.504 371.214 511.616 369.872 504.934C369.035 500.761 369.872 498.331 370.682 495.984C371.424 493.836 372.124 491.811 371.468 488.4C370.161 481.587 364.975 477.655 360.401 474.188C356.19 470.997 352.212 467.984 352.415 463.33C352.72 456.35 361.554 450.972 367.731 449.38C383.579 445.299 399.527 460.101 406.449 469.487C415.749 482.099 422.411 504.138 415.063 522.722C413.876 525.728 412.451 528.278 411.075 530.742C408.361 535.608 405.797 540.203 405.052 547.935C404.318 555.561 405.866 561.44 406.789 564.95C406.967 565.626 407.125 566.224 407.242 566.742C410.588 581.286 399.355 600.436 372.906 625.289C372.161 625.982 371.245 626.339 370.301 626.339ZM367.981 622.382C367.909 623.525 368.609 624.277 369.289 624.596C369.979 624.922 371.019 624.984 371.863 624.188C397.526 600.072 408.93 580.857 405.763 567.078C405.646 566.57 405.495 565.99 405.32 565.331C404.369 561.721 402.777 555.681 403.539 547.788C404.314 539.74 407.077 534.788 409.747 530.004C411.099 527.581 412.496 525.076 413.649 522.162C420.784 504.114 414.284 482.668 405.224 470.382C398.528 461.298 383.171 446.96 368.098 450.842C361.468 452.547 354.158 457.832 353.918 463.392C353.75 467.253 357.25 469.905 361.306 472.98C366.097 476.615 371.527 480.73 372.947 488.111C373.678 491.917 372.879 494.234 372.107 496.475C371.328 498.733 370.593 500.868 371.348 504.636C372.594 510.834 376.489 514.379 379.928 517.512C383.191 520.484 386.009 523.048 385.645 527.053C385.281 531.061 382.038 532.959 378.603 534.966C375.243 536.933 371.767 538.965 370.717 543.189C369.546 547.898 372.089 552.126 374.55 556.213C377.175 560.578 379.893 565.095 378.037 570.153C376.925 573.187 374.917 574.33 372.978 575.435C371.125 576.488 369.21 577.58 367.786 580.456C365.425 585.222 366.245 589.495 367.491 595.964C368.136 599.32 368.867 603.123 369.354 607.89C369.691 611.184 369.117 614.65 368.613 617.708C368.335 619.39 368.071 620.979 367.981 622.382Z" fill="#0C0C0C"/>
<path d="M378.016 610.556C377.906 610.556 377.797 610.532 377.69 610.481C377.313 610.302 377.155 609.849 377.337 609.472C389.712 583.64 392.835 559.161 395.594 537.557C396.318 531.881 397.001 526.521 397.828 521.236C401.631 496.917 394.671 481.807 388.164 473.413C381.112 464.315 373.047 460.904 372.968 460.873C372.584 460.715 372.398 460.272 372.56 459.888C372.717 459.504 373.157 459.318 373.544 459.476C373.888 459.617 382.007 463.035 389.307 472.421C396.023 481.055 403.213 496.574 399.321 521.469C398.497 526.733 397.814 532.084 397.09 537.75C394.317 559.463 391.177 584.073 378.696 610.124C378.569 610.398 378.301 610.556 378.016 610.556Z" fill="#0C0C0C"/>
<path d="M506.223 611.25C501.604 610.512 470.93 605.391 458.383 592.622C456.636 590.844 453.925 588.085 452.889 583.863C450.819 575.431 458.122 572.13 456.815 565.609C455.092 557.009 441.461 558.125 430.661 543.776C428.07 540.334 424.037 534.977 424.26 528.233C424.507 520.707 429.806 519.204 430.702 512.141C431.817 503.335 424.281 500.154 420.952 489.426C417.441 478.128 419.38 460.969 431.011 453.978C441.152 447.883 454.817 451.833 462.865 456.871C474.76 464.315 480.333 477.854 480.309 488.764C480.275 504.447 468.679 513.885 472.594 518.168C476.242 522.155 486.452 514.142 494.538 519.355C500.183 522.996 502.784 531.792 501.072 538.343C498.7 547.428 489.108 548.124 489.146 554.353C489.184 560.884 499.747 563.142 505.952 571.251C511.069 577.954 513.952 589.584 506.223 611.25Z" fill="#F3F2F2"/>
<path d="M506.223 612.005C506.182 612.005 506.144 612.001 506.103 611.994C497.829 610.673 469.89 605.409 457.844 593.15C456.122 591.4 453.242 588.465 452.154 584.042C450.97 579.213 452.703 575.929 454.231 573.029C455.514 570.596 456.623 568.496 456.073 565.754C455.308 561.944 451.931 560.187 447.257 557.757C442.12 555.087 435.73 551.765 430.057 544.226C427.356 540.636 423.272 535.214 423.502 528.206C423.639 524.019 425.273 521.582 426.851 519.225C428.238 517.159 429.545 515.202 429.947 512.045C430.551 507.295 428.502 504.306 425.908 500.518C423.927 497.628 421.686 494.354 420.224 489.649C416.353 477.191 419.185 460.2 430.613 453.33C440.486 447.399 454.124 450.512 463.26 456.23C476.431 464.473 481.081 478.907 481.057 488.763C481.04 497.281 477.656 504.045 475.189 508.984C473.144 513.078 471.664 516.036 473.147 517.656C474.506 519.142 477.337 518.521 480.615 517.804C484.908 516.863 490.255 515.697 494.943 518.717C500.622 522.378 503.697 531.267 501.799 538.532C500.506 543.488 497.105 546.123 494.369 548.241C491.861 550.183 489.881 551.717 489.898 554.346C489.918 557.644 493.058 559.803 497.036 562.538C500.197 564.71 503.776 567.171 506.546 570.791C513.289 579.608 513.42 593.301 506.93 611.49C506.827 611.809 506.539 612.005 506.223 612.005ZM443.032 451.641C438.914 451.641 434.899 452.53 431.395 454.634C420.602 461.123 417.973 477.308 421.669 489.21C423.063 493.695 425.238 496.873 427.157 499.673C429.82 503.565 432.123 506.925 431.45 512.244C431.004 515.755 429.535 517.951 428.111 520.076C426.584 522.354 425.139 524.51 425.015 528.267C424.802 534.743 428.691 539.912 431.265 543.33C436.732 550.592 442.954 553.828 447.957 556.429C452.813 558.955 456.653 560.949 457.559 565.469C458.215 568.736 456.87 571.282 455.572 573.743C454.1 576.533 452.58 579.419 453.627 583.688C454.615 587.707 457.209 590.35 458.925 592.096C470.57 603.947 498.683 609.242 505.725 610.405C511.82 593.026 511.697 580.016 505.355 571.725C502.733 568.296 499.256 565.908 496.188 563.797C492.019 560.932 488.419 558.457 488.395 554.37C488.374 550.997 490.842 549.085 493.453 547.06C496.137 544.981 499.181 542.623 500.344 538.161C502.06 531.596 499.215 523.278 494.129 520C489.97 517.316 485.176 518.367 480.944 519.29C477.207 520.107 473.984 520.813 472.035 518.686C469.849 516.297 471.524 512.951 473.84 508.318C476.242 503.514 479.534 496.931 479.551 488.77C479.571 478.554 474.297 464.926 462.464 457.52C457 454.098 449.879 451.641 443.032 451.641Z" fill="#0C0C0C"/>
<path d="M495.306 590.497C495.1 590.497 494.895 590.411 494.747 590.25C491.648 586.822 488.278 583.458 484.709 579.9C473.84 569.058 462.604 557.847 456.75 542.647C443.719 508.806 443.87 468.567 443.873 468.166C443.877 467.75 444.213 467.417 444.628 467.417C444.632 467.417 444.632 467.417 444.635 467.417C445.05 467.421 445.387 467.761 445.383 468.179C445.38 468.581 445.229 508.541 458.157 542.108C463.895 557.009 475.017 568.101 485.773 578.832C489.356 582.405 492.739 585.782 495.866 589.238C496.144 589.547 496.12 590.027 495.811 590.305C495.67 590.432 495.488 590.497 495.306 590.497Z" fill="#0C0C0C"/>
<path d="M16.5192 565.448L17.6105 587.01L31.0633 589.44L32.2576 564.007L16.5192 565.448Z" fill="#F3F2F2"/>
<path d="M31.06 590.195C31.0154 590.195 30.9707 590.192 30.9261 590.185L17.4767 587.755C17.1301 587.693 16.8727 587.402 16.8556 587.048L15.7642 565.486C15.7436 565.081 16.0456 564.731 16.4506 564.693L32.189 563.255C32.4053 563.238 32.6215 563.31 32.7793 563.461C32.9372 563.612 33.023 563.825 33.0127 564.041L31.815 589.471C31.8047 589.687 31.7017 589.89 31.5301 590.027C31.3963 590.137 31.2316 590.195 31.06 590.195ZM18.3347 586.372L30.3461 588.541L31.4615 564.837L17.3086 566.131L18.3347 586.372Z" fill="#0C0C0C"/>
<path d="M31.4375 626.895C25.7578 627.441 16.4746 627.688 5.69521 625.492C2.16384 624.771 -0.022253 620.944 1.01073 617.255C3.89005 606.97 8.9383 587.443 16.4369 578.671L17.9606 583.73L20.6066 579.186C20.9704 578.565 21.5847 578.163 22.2676 578.108L25.9019 577.672C27.0173 577.583 28.0125 578.424 28.1875 579.611L28.8293 583.963L32.6592 578.407L36.901 619.912C37.1721 623.453 34.7355 626.576 31.4375 626.895Z" fill="#F3F2F2"/>
<path d="M23.3967 628.028C18.3175 628.028 12.2157 627.592 5.54422 626.233C3.69788 625.859 2.12266 624.73 1.09997 623.059C0.0120764 621.277 -0.286496 619.088 0.283191 617.053L0.900929 614.832C3.84202 604.228 8.76328 586.482 15.8638 578.18C16.0422 577.971 16.3236 577.871 16.5948 577.933C16.8659 577.992 17.0821 578.191 17.1644 578.455L18.1837 581.849L19.9545 578.808C20.4384 577.974 21.2827 577.432 22.2093 577.357L25.8161 576.924C27.3605 576.811 28.7092 577.933 28.9391 579.502L29.2995 581.955L32.0381 577.981C32.2165 577.72 32.5391 577.597 32.848 577.679C33.1534 577.758 33.3799 578.019 33.4108 578.335L37.6526 619.839C37.9511 623.8 35.1919 627.297 31.5061 627.65C29.2617 627.863 26.5231 628.028 23.3967 628.028ZM16.128 580.26C9.71391 588.716 5.13926 605.206 2.35946 615.234L1.74173 617.458C1.28529 619.091 1.52209 620.845 2.39035 622.269C3.18997 623.577 4.41857 624.459 5.84622 624.75C16.4369 626.909 25.569 626.696 31.3654 626.14C34.2413 625.866 36.3896 623.096 36.1529 619.966L32.1204 580.524L29.4573 584.388C29.2823 584.642 28.9666 584.766 28.6646 584.694C28.3626 584.625 28.1326 584.375 28.088 584.069L27.4462 579.718C27.3296 578.935 26.6775 578.366 25.9671 578.424L22.3603 578.856C21.897 578.894 21.4989 579.158 21.2621 579.563L18.6161 584.107C18.4651 584.368 18.17 584.515 17.8748 584.478C17.5763 584.443 17.3257 584.234 17.2399 583.946L16.128 580.26Z" fill="#0C0C0C"/>
<path d="M19.2064 620.924C14.7622 620.924 9.67275 620.444 4.65539 618.93C4.25729 618.81 4.03079 618.388 4.15091 617.99C4.27102 617.592 4.69314 617.365 5.09123 617.485C18.1837 621.435 32.2577 618.028 32.3984 617.993C32.8034 617.894 33.2118 618.137 33.3147 618.546C33.4143 618.951 33.1672 619.359 32.7622 619.462C32.3916 619.548 26.7187 620.924 19.2064 620.924Z" fill="#0C0C0C"/>
<path d="M26.2657 604.956C26.2623 604.956 26.2554 604.956 26.252 604.956L13.5473 604.719C13.1286 604.712 12.7991 604.365 12.806 603.95C12.8129 603.531 13.1252 603.212 13.5747 603.209L26.2794 603.446C26.6981 603.452 27.0276 603.799 27.0207 604.214C27.0138 604.626 26.6775 604.956 26.2657 604.956Z" fill="#0C0C0C"/>
<path d="M80.434 557.452L80.99 588.86L97.2741 589.742L99.5014 558.481L80.434 557.452Z" fill="#F3F2F2"/>
<path d="M97.2741 590.497C97.2603 590.497 97.2466 590.497 97.2329 590.497L80.9522 589.615C80.5575 589.595 80.2452 589.269 80.2384 588.874L79.6824 557.466C79.679 557.256 79.7613 557.054 79.9123 556.91C80.0633 556.762 80.2727 556.683 80.4786 556.7L99.5459 557.73C99.7484 557.74 99.9372 557.833 100.071 557.984C100.205 558.135 100.273 558.334 100.256 558.536L98.0256 589.797C97.9982 590.192 97.6653 590.497 97.2741 590.497ZM81.7347 588.146L96.574 588.949L98.6948 559.199L81.2062 558.255L81.7347 588.146Z" fill="#0C0C0C"/>
<path d="M75.9039 606.301C75.722 609.259 77.4894 611.96 80.1491 612.777C89.4013 615.618 110.24 621.957 116.211 623.24C123.96 624.908 133.672 622.863 138.027 618.192C142.382 613.521 135.642 603.97 123.432 596.52C113.764 590.621 105.847 576.722 102.079 575.956C98.3104 575.191 90.6711 586.605 90.6711 586.605L79.3392 580.768C79.3392 580.771 76.8202 591.297 75.9039 606.301Z" fill="#F3F2F2"/>
<path d="M121.836 624.575C119.876 624.575 117.923 624.383 116.053 623.982C110.003 622.681 88.7734 616.219 79.9261 613.501C76.9576 612.588 74.9499 609.54 75.149 606.256C76.055 591.355 78.5774 580.699 78.6014 580.593C78.6563 580.366 78.8107 580.178 79.0201 580.081C79.2294 579.985 79.4731 579.989 79.6824 580.099L90.4207 585.631C92.3528 582.82 98.4752 574.457 102.226 575.222C104.179 575.617 106.633 578.523 110.027 582.545C113.846 587.069 118.603 592.697 123.819 595.882C133.089 601.537 139.304 608.367 140.035 613.707C140.303 615.67 139.798 617.403 138.576 618.714C135.175 622.362 128.494 624.575 121.836 624.575ZM79.8643 581.89C79.2431 584.793 77.4071 594.121 76.6624 606.349C76.5045 608.947 78.066 611.349 80.3757 612.056C89.2024 614.767 110.384 621.215 116.376 622.502C124.132 624.17 133.401 622.053 137.482 617.677C138.398 616.696 138.758 615.426 138.549 613.906C137.887 609.081 131.802 602.509 123.044 597.165C117.615 593.853 112.772 588.122 108.884 583.517C106.049 580.16 103.372 576.989 101.935 576.698C99.6832 576.258 94.3604 582.463 91.3061 587.027C91.0933 587.347 90.6746 587.456 90.3314 587.278L79.8643 581.89ZM75.904 606.301H75.9108H75.904Z" fill="#0C0C0C"/>
<path d="M122.508 618.848C105.38 618.848 81.1787 606.816 79.8677 606.157C79.4936 605.968 79.3461 605.515 79.5314 605.141C79.7167 604.767 80.1697 604.619 80.5472 604.805C80.9522 605.01 121.331 625.087 134.008 614.005C134.321 613.731 134.798 613.762 135.076 614.077C135.35 614.393 135.319 614.87 135.004 615.145C131.953 617.811 127.536 618.848 122.508 618.848Z" fill="#0C0C0C"/>
<path d="M103.232 598.847C103.022 598.847 102.813 598.758 102.662 598.589C102.387 598.274 102.418 597.8 102.734 597.526L111.393 589.969C111.705 589.694 112.182 589.725 112.457 590.041C112.731 590.356 112.7 590.833 112.384 591.105L103.726 598.661C103.585 598.785 103.41 598.847 103.232 598.847Z" fill="#0C0C0C"/>
<path d="M65.0936 366.634C65.0936 366.634 3.02865 368.474 9.44277 347.478C13.5198 334.125 58.4392 346.812 71.5386 351.099C73.7762 351.83 126.719 346.713 126.719 346.713L112.357 375.729L65.0936 366.634Z" fill="#0C0C0C"/>
<path d="M22.5559 345.209C22.5559 345.209 12.3908 447.303 8.16272 480.939C3.93469 514.574 10.1944 569.347 10.1944 569.347L35.3944 569.288C35.3944 569.288 39.2312 516.908 41.9973 492.617C42.5189 488.029 43.7475 483.55 45.6007 479.319C49.3277 470.801 55.9923 454.27 58.9266 438.857C63.1169 416.863 75.4818 382.431 75.4818 382.431C75.4818 382.431 75.9622 557.651 76.1579 571.423C76.1579 571.423 95.8224 573.427 103.112 569.045C103.112 569.045 118.63 506.002 118.462 471.237C118.294 436.472 124.324 350.446 124.324 350.446L22.5559 345.209Z" fill="#F3F2F2"/>
<path d="M86.124 572.645C80.8183 572.645 76.453 572.212 76.0755 572.174C75.6946 572.137 75.4029 571.818 75.396 571.433C75.221 559.037 74.8092 414.131 74.7337 386.838C71.3396 396.666 62.9418 421.798 59.6644 438.998C56.713 454.49 50.0175 471.1 46.2871 479.621C44.4442 483.832 43.2533 488.235 42.742 492.703C40.0102 516.702 36.1803 568.822 36.1425 569.343C36.1151 569.738 35.7856 570.043 35.391 570.043L10.1909 570.102C9.80656 570.102 9.48397 569.813 9.43936 569.432C9.37758 568.883 3.21742 514.183 7.41114 480.843C11.5911 447.602 21.7013 346.153 21.8009 345.134C21.842 344.732 22.1921 344.427 22.5936 344.454L124.355 349.695C124.557 349.705 124.746 349.798 124.883 349.949C125.017 350.1 125.086 350.299 125.072 350.501C125.01 351.363 119.049 436.898 119.214 471.237C119.379 505.696 103.997 568.595 103.839 569.23C103.791 569.426 103.668 569.594 103.496 569.697C99.5322 572.075 92.2086 572.645 86.124 572.645ZM76.8992 570.73C80.331 571.021 96.018 572.123 102.449 568.55C103.626 563.698 117.862 504.262 117.704 471.24C117.546 438.59 122.917 359.805 123.51 351.16L23.2354 345.999C22.3191 355.186 12.909 449.249 8.91085 481.031C4.99168 512.193 10.1772 562.215 10.867 568.588L34.6874 568.533C35.1542 562.226 38.6787 515.041 41.2423 492.532C41.7673 487.912 42.9994 483.365 44.9041 479.017C48.607 470.554 55.2579 454.064 58.1819 438.717C62.3344 416.914 74.6444 382.52 74.768 382.177C74.8915 381.831 75.2519 381.625 75.6088 381.686C75.9691 381.748 76.2368 382.06 76.2368 382.428C76.2368 384.154 76.7035 552.874 76.8992 570.73Z" fill="#0C0C0C"/>
<path d="M146.796 219.858C146.796 219.858 165.76 231.681 174.762 255.765C183.763 279.846 185.411 278.415 195.147 283.069C204.886 287.723 212.189 289.143 212.189 289.143L210.796 307.874C210.796 307.874 164.748 310.345 142.907 280.739C121.064 251.132 146.796 219.858 146.796 219.858Z" fill="#F3F2F2"/>
<path d="M208.49 308.667C198.764 308.667 161.292 306.931 142.296 281.185C130.824 265.635 132.505 249.639 135.941 238.963C139.644 227.439 145.944 219.7 146.212 219.377C146.452 219.086 146.871 219.014 147.197 219.216C147.389 219.336 166.484 231.454 175.472 255.501C183.482 276.926 185.459 277.822 192.813 281.157C193.633 281.528 194.515 281.93 195.476 282.386C205.017 286.943 212.265 288.388 212.337 288.402C212.711 288.474 212.975 288.817 212.944 289.198L211.551 307.929C211.524 308.31 211.218 308.609 210.837 308.629C210.775 308.629 209.942 308.667 208.49 308.667ZM146.964 220.874C143.765 225.115 123.823 253.596 143.515 280.289C163.443 307.301 204.382 307.277 210.093 307.14L211.386 289.74C209.372 289.281 202.982 287.644 194.821 283.748C193.87 283.295 192.995 282.897 192.185 282.53C184.577 279.081 182.281 278.041 174.051 256.029C166.113 234.783 150.166 223.063 146.964 220.874Z" fill="#0C0C0C"/>
<path d="M74.0988 200.156C74.0988 200.156 50.594 213.584 41.9149 234.845C36.7054 247.601 38.2394 269.469 36.4926 281.895C31.8356 315.033 10.2321 345.807 10.2321 345.807C10.2321 345.807 14.0552 340.7 27.3605 350.786C39.7494 360.176 51.2358 367.249 77.0364 367.485C100.373 367.698 114.382 365.31 122.351 363.055C127.629 361.562 130.982 356.404 130.161 350.978C128.977 343.147 127.526 330.902 127.804 319.285C128.195 302.98 139.421 272.547 139.421 272.547C139.421 272.547 175.479 257.159 177.905 237.113C177.905 237.113 158.931 203.155 125.717 202.355C94.7962 201.607 74.0988 200.156 74.0988 200.156Z" fill="#0C0C0C"/>
<path d="M76.2506 254.636C76.2506 254.636 65.0079 273.226 80.6056 284.5L20.0164 305.246L14.7519 278.491C8.20737 243.658 30.0991 209.394 64.6921 201.686C68.0416 200.941 71.4323 200.41 74.8332 200.111L76.2506 254.636Z" fill="#0C0C0C"/>
<path d="M77.3075 285.396C77.0879 285.396 76.8717 285.3 76.7207 285.118C67.187 273.426 72.0259 243.133 72.2387 241.849C72.3073 241.437 72.6917 241.152 73.1069 241.228C73.5187 241.297 73.7967 241.684 73.7281 242.096C73.6766 242.405 68.7897 273 77.8909 284.164C78.1552 284.486 78.1071 284.963 77.7811 285.228C77.6438 285.337 77.4757 285.396 77.3075 285.396Z" fill="#F3F2F2"/>
<path d="M230.406 252.364L177.167 258.099C175.448 258.099 173.821 259.53 173.533 261.29L161.161 336.973C160.873 338.737 162.033 340.164 163.752 340.164L216.991 334.43C218.71 334.43 220.337 332.999 220.625 331.238L232.997 255.556C233.285 253.792 232.125 252.364 230.406 252.364Z" fill="#F3F2F2"/>
<path d="M163.749 340.923C162.716 340.923 161.796 340.511 161.161 339.763C160.509 338.994 160.235 337.934 160.413 336.849L172.785 261.167C173.132 259.036 175.033 257.364 177.123 257.34L230.323 251.609C230.351 251.606 230.378 251.606 230.406 251.606C231.439 251.606 232.358 252.018 232.993 252.766C233.645 253.534 233.92 254.595 233.741 255.679L221.37 331.362C221.02 333.493 219.118 335.164 217.032 335.188L163.831 340.92C163.804 340.92 163.776 340.923 163.749 340.923ZM230.443 253.119L177.25 258.85C177.222 258.854 177.195 258.854 177.167 258.854C175.829 258.854 174.504 260.024 174.278 261.414L161.906 337.096C161.8 337.752 161.944 338.353 162.314 338.788C162.651 339.183 163.145 339.406 163.715 339.413L216.912 333.682C216.939 333.678 216.967 333.678 216.994 333.678C218.332 333.678 219.657 332.508 219.884 331.118L232.255 255.436C232.362 254.78 232.218 254.18 231.847 253.744C231.507 253.349 231.01 253.13 230.443 253.119Z" fill="#0C0C0C"/>
<path d="M226.596 293.409L225.309 300.99L204.849 297.438C201.805 296.944 198.888 299.044 198.562 302.081C198.318 304.346 198.922 306.954 201.811 309.103C205.209 311.625 215.69 315.393 224.118 316.945C233.553 318.681 234.249 305.029 231.916 298.21C230.093 292.894 226.596 293.409 226.596 293.409Z" fill="#F3F2F2"/>
<path d="M225.673 317.851C225.127 317.851 224.561 317.799 223.978 317.689C215.71 316.169 204.928 312.367 201.355 309.71C198.706 307.74 197.477 305.074 197.807 302.002C197.982 300.369 198.809 298.91 200.137 297.898C201.503 296.855 203.26 296.415 204.965 296.69L224.685 300.115L225.845 293.282C225.9 292.959 226.157 292.709 226.48 292.661C226.651 292.633 230.625 292.122 232.623 297.963C234.16 302.455 234.689 311.124 230.951 315.462C229.599 317.041 227.794 317.851 225.673 317.851ZM203.963 298.121C202.923 298.121 201.89 298.461 201.056 299.099C200.061 299.857 199.44 300.945 199.31 302.164C199.035 304.71 200.027 306.841 202.258 308.499C205.683 311.042 216.163 314.717 224.249 316.203C226.583 316.632 228.453 316.052 229.808 314.481C233.017 310.76 232.674 302.785 231.195 298.457C230.014 295.005 228.137 294.305 227.228 294.178L226.047 301.117C226.013 301.316 225.903 301.491 225.738 301.608C225.574 301.724 225.371 301.772 225.172 301.735L204.711 298.183C204.468 298.142 204.217 298.121 203.963 298.121Z" fill="#0C0C0C"/>
<path d="M90.455 200.736L101.094 166.119L123.222 177.893L116.839 199.744C115.943 202.922 117.299 206.305 120.14 207.984L122.707 209.501C124.029 210.283 123.651 212.287 122.134 212.534L110.452 214.425C99.2542 216.241 87.7678 214.319 77.7674 208.965C76.3329 208.196 76.5731 206.072 78.1449 205.647C82.9495 204.349 89.9779 202.218 90.455 200.736Z" fill="#F3F2F2"/>
<path d="M102.257 215.836C93.6329 215.836 85.0396 213.715 77.4106 209.627C76.4805 209.13 75.9589 208.131 76.079 207.084C76.1991 206.038 76.9335 205.187 77.9494 204.912C88.6636 202.022 89.6554 200.66 89.7378 200.495L100.37 165.895C100.435 165.679 100.596 165.504 100.802 165.418C101.008 165.333 101.245 165.343 101.444 165.449L123.572 177.224C123.888 177.392 124.042 177.759 123.943 178.103L117.56 199.953C116.757 202.791 117.975 205.828 120.521 207.332L123.088 208.848C123.967 209.37 124.413 210.352 124.224 211.357C124.036 212.359 123.26 213.114 122.251 213.279L110.569 215.173C107.817 215.616 105.037 215.836 102.257 215.836ZM101.543 167.213L91.1757 200.955C91.1757 200.959 91.1757 200.962 91.1723 200.962C90.9698 201.6 90.4893 203.097 78.3406 206.371C77.7091 206.542 77.5959 207.091 77.5787 207.256C77.5581 207.421 77.541 207.984 78.1244 208.296C87.9223 213.543 99.3641 215.455 110.329 213.677L122.011 211.783C122.581 211.69 122.711 211.216 122.738 211.072C122.766 210.928 122.814 210.437 122.32 210.146L119.753 208.629C116.616 206.779 115.12 203.038 116.108 199.534L122.32 178.267L101.543 167.213ZM90.455 200.736H90.4619H90.455Z" fill="#0C0C0C"/>
<path d="M151.054 142.706C145.358 139.669 149.973 149.083 131.215 132.785C123.744 126.295 123.524 138.358 121.582 136.68C114.409 130.482 114.073 129.24 109.56 128.437C106.571 127.905 100.922 131.81 100.164 135.819C97.6927 148.904 100.267 146.608 99.1444 158.5C98.3551 166.85 99.3778 169.976 101.787 172.358C104.224 174.767 108.16 171.846 111.019 174.276C114.715 177.423 110.538 184.373 113.277 189.321C115.003 192.441 120.652 196.123 132.505 195.88C134.427 195.842 136.047 194.428 136.352 192.52C136.744 190.076 137.224 186.988 137.433 183.995C138.439 169.739 135.361 164.989 138.364 162.563C142.966 158.846 150.842 165.827 154.16 162.56C157.606 159.166 158.855 146.866 151.054 142.706Z" fill="#0C0C0C"/>
<path d="M121.101 154.234L121.352 158.129C121.469 159.965 121.462 161.805 121.328 163.637C121.074 167.076 120.871 172.996 120.72 176.325C120.226 187.025 135.851 182.227 135.851 182.227L137.756 180.1L139.527 180.179C139.87 180.196 140.217 180.141 140.522 179.98C141.281 179.585 141.658 178.768 141.524 177.975C140.793 173.651 139.51 164.104 140.862 156.691C140.858 156.691 132.447 149.834 121.101 154.234Z" fill="#F3F2F2"/>
<path d="M128.754 184.057C126.455 184.057 124.07 183.645 122.361 182.317C120.648 180.989 119.842 178.96 119.965 176.29C120.007 175.378 120.055 174.272 120.103 173.075C120.233 169.962 120.391 166.087 120.576 163.582C120.707 161.787 120.714 159.969 120.6 158.177L120.35 154.282C120.329 153.952 120.525 153.647 120.83 153.527C132.45 149.021 140.982 155.813 141.339 156.104C141.552 156.279 141.655 156.554 141.603 156.825C140.251 164.241 141.617 173.998 142.269 177.848C142.461 178.988 141.898 180.113 140.872 180.649C140.474 180.858 140.004 180.958 139.496 180.93L138.082 180.865L136.414 182.725C136.322 182.828 136.205 182.904 136.075 182.945C135.841 183.02 132.399 184.057 128.754 184.057ZM121.891 154.745L122.107 158.081C122.227 159.941 122.22 161.829 122.083 163.692C121.901 166.177 121.74 170.038 121.613 173.137C121.561 174.334 121.517 175.443 121.475 176.359C121.376 178.542 121.966 180.1 123.287 181.122C126.774 183.823 134.139 181.925 135.433 181.562L137.193 179.595C137.344 179.427 137.564 179.328 137.79 179.345L139.561 179.424C139.798 179.437 140.011 179.396 140.172 179.31C140.618 179.077 140.862 178.593 140.78 178.102C139.973 173.325 138.823 164.32 140.038 157.021C138.398 155.874 131.167 151.409 121.891 154.745Z" fill="#0C0C0C"/>
<path d="M118.5 166.228C118.5 166.228 117.91 156.859 113.726 158.03C109.543 159.196 110.452 169.495 118.5 166.228Z" fill="#F3F2F2"/>
<path d="M89.12 159.835C89.12 159.835 128.236 164.591 162.002 150.026C191.41 137.339 151.679 126.415 122.09 129.806C78.3062 134.827 58.9541 153.541 89.12 159.835Z" fill="#F3F2F2"/>
<path d="M104.512 161.307C95.2183 161.307 89.1817 160.607 89.0307 160.586C89.0101 160.583 88.9895 160.579 88.9689 160.576C76.1441 157.903 73.632 153.421 73.783 150.133C74.1914 141.224 94.9232 132.164 122.007 129.058C142.55 126.704 170.647 131.357 172.939 139.944C173.921 143.626 170.345 147.254 162.304 150.72C141.788 159.57 119.125 161.307 104.512 161.307ZM89.2435 159.09C90.5338 159.238 128.919 163.479 161.703 149.333C168.845 146.252 172.225 143.139 171.477 140.332C169.573 133.197 143.772 128.08 122.179 130.554C93.2416 133.873 75.6122 143.149 75.2896 150.198C75.118 154.014 80.0701 157.168 89.2435 159.09Z" fill="#0C0C0C"/>
<path d="M105.583 152.902C100.644 152.182 97.1127 148.527 97.1745 144.182C97.3083 134.734 100.188 121.553 106.461 117.184C113.438 112.324 125.964 111.247 133.072 113.282C140.834 115.502 145.962 126.978 146.778 138.053C147.499 147.868 127.124 156.046 105.583 152.902Z" fill="#F3F2F2"/>
<path d="M114.859 154.323C111.739 154.323 108.582 154.107 105.473 153.651C100.16 152.875 96.3509 148.887 96.4195 144.172C96.5636 134 99.6317 121.021 106.032 116.563C113.222 111.556 125.926 110.447 133.284 112.554C141.586 114.929 146.737 127.15 147.533 137.995C147.732 140.692 146.48 143.383 143.913 145.771C138.158 151.132 126.802 154.323 114.859 154.323ZM105.689 152.158C122.237 154.574 136.922 150.219 142.88 144.669C145.1 142.603 146.185 140.335 146.023 138.108C145.265 127.785 140.498 116.192 132.862 114.006C125.985 112.036 113.623 113.114 106.89 117.802C101.193 121.769 98.0702 134.079 97.9261 144.192C97.8746 148.142 101.138 151.492 105.689 152.158Z" fill="#0C0C0C"/>
<path d="M119.574 124.85C113.702 124.85 109.539 123.008 109.248 122.874C108.867 122.702 108.699 122.253 108.874 121.875C109.045 121.494 109.495 121.326 109.872 121.501C109.989 121.552 121.554 126.642 133.212 119.435C133.566 119.215 134.033 119.325 134.252 119.682C134.472 120.036 134.362 120.502 134.005 120.722C128.847 123.907 123.775 124.85 119.574 124.85Z" fill="#0C0C0C"/>
<path d="M80.4889 325.682C68.6422 319.635 44.3276 312.953 27.2404 314.086L20.1502 329.107C41.9047 326.427 62.8561 332.896 77.3042 338.308L80.4889 325.682Z" fill="#F3F2F2"/>
<path d="M77.3076 339.063C77.2183 339.063 77.1291 339.046 77.0433 339.015C63.1031 333.798 42.0522 327.172 20.2463 329.859C19.9683 329.89 19.704 329.776 19.5427 329.553C19.3814 329.33 19.354 329.035 19.4707 328.788L26.5608 313.767C26.6775 313.52 26.9212 313.355 27.1923 313.334C44.9521 312.157 69.7609 319.361 80.832 325.013C81.1478 325.174 81.3091 325.528 81.2233 325.871L78.042 338.497C77.9905 338.706 77.8498 338.881 77.661 338.981C77.5478 339.035 77.4277 339.063 77.3076 339.063ZM30.5521 327.727C48.3942 327.727 64.9804 332.927 76.779 337.306L79.6069 326.087C68.5357 320.606 44.9109 313.818 27.7345 314.813L21.4131 328.205C24.4846 327.878 27.5389 327.727 30.5521 327.727Z" fill="#0C0C0C"/>
<path d="M88.4645 199.651C90.9732 201.436 92.5896 205.104 94.7894 209.349C102.425 224.086 102.127 236.77 102.871 242C103.177 244.145 105.023 245.785 107.381 246.029L122.409 247.58C125.954 247.947 131.634 245.192 131.129 241.973C129.382 230.829 124.53 206.25 117.553 201.425L125.717 202.355C130.673 204.36 133.442 213.114 135.295 217.788C143.13 237.58 151.583 272.06 150.931 318.867C150.931 318.867 150.701 405.49 133.562 459.703C130.491 469.418 121.932 476.364 111.794 477.377C90.3177 479.522 59.8052 484.415 33.8295 471.175C-3.88303 451.95 51.8742 395.637 71.3671 335.731C82.0607 302.867 95.2699 248.967 91.2237 229.584C83.9722 194.826 57.7255 204.483 57.7255 204.483C57.7255 204.483 80.609 194.064 88.4645 199.651Z" fill="#F3F2F2"/>
<path d="M76.4393 480.788C62.2178 480.788 47.1554 478.815 33.4829 471.844C27.0722 468.577 23.0913 464.202 21.317 458.474C16.5605 443.13 28.8602 420.521 43.1024 394.346C52.89 376.353 63.9886 355.958 70.6464 335.494C80.5198 305.156 94.6315 249.619 90.4859 229.735C88.0939 218.276 83.382 210.52 76.4839 206.686C67.6161 201.762 58.0824 205.156 57.9863 205.19C57.6054 205.331 57.1798 205.142 57.0254 204.768C56.8709 204.394 57.0425 203.961 57.4098 203.793C58.3604 203.361 80.784 193.264 88.9004 199.033C91.2237 200.684 92.7886 203.762 94.6007 207.325C94.8786 207.87 95.1635 208.43 95.4586 208.999C101.808 221.251 102.724 232.03 103.273 238.472C103.39 239.821 103.486 240.984 103.616 241.89C103.87 243.675 105.449 245.065 107.456 245.274L122.484 246.825C124.746 247.062 127.955 245.875 129.506 244.238C130.196 243.51 130.491 242.786 130.381 242.086C127.759 225.345 122.896 206.038 117.12 202.043C116.836 201.847 116.719 201.48 116.842 201.158C116.966 200.832 117.295 200.636 117.635 200.674L125.8 201.604C125.868 201.611 125.933 201.628 125.999 201.655C130.68 203.55 133.356 210.588 135.309 215.729C135.553 216.368 135.779 216.968 135.996 217.51C142.166 233.094 152.407 266.987 151.686 318.877C151.683 319.735 151.26 406.231 134.283 459.929C131.119 469.94 122.32 477.085 111.87 478.128C109.907 478.324 107.872 478.543 105.768 478.77C97.0579 479.703 86.9785 480.788 76.4393 480.788ZM65.7011 202.479C69.1021 202.479 73.1825 203.131 77.1978 205.358C84.5076 209.411 89.4735 217.51 91.9616 229.429C96.169 249.598 82.0023 305.479 72.0809 335.964C65.3785 356.562 54.2456 377.019 44.4271 395.071C30.3496 420.947 18.1906 443.295 22.7584 458.028C24.4057 463.347 28.1395 467.428 34.1659 470.499C57.5676 482.428 84.1987 479.566 105.6 477.267C107.707 477.04 109.749 476.821 111.712 476.625C121.561 475.64 129.853 468.91 132.835 459.473C149.744 405.994 150.166 319.728 150.169 318.863C150.886 267.227 140.714 233.547 134.585 218.066C134.369 217.517 134.136 216.91 133.892 216.265C132.155 211.697 129.537 204.806 125.518 203.093L119.732 202.434C126.469 210.317 130.673 234.223 131.871 241.856C132.056 243.026 131.613 244.214 130.601 245.284C128.706 247.278 125.072 248.61 122.33 248.335L107.302 246.784C104.601 246.506 102.473 244.584 102.12 242.11C101.986 241.159 101.883 239.975 101.766 238.606C101.228 232.278 100.325 221.683 94.1168 209.699C93.8216 209.126 93.5334 208.564 93.2554 208.014C91.5326 204.627 90.0432 201.707 88.0252 200.269C83.1966 196.837 72.0466 199.905 64.7848 202.496C65.0868 202.482 65.3888 202.479 65.7011 202.479Z" fill="#0C0C0C"/>
<path d="M65.828 395.688C60.1792 407.274 75.0563 414.697 95.3248 415.339C122.254 416.194 129.025 404.961 130.285 397.874C131.541 390.788 132.217 361.658 132.217 361.658C132.217 361.658 108.458 366.305 81.412 360.708C81.412 360.708 76.8546 373.072 65.828 395.688Z" fill="#F3F2F2"/>
<path d="M98.1561 416.142C97.2295 416.142 96.2823 416.128 95.3042 416.094C80.259 415.617 69.0231 411.595 65.2481 405.335C63.4292 402.319 63.3949 398.959 65.152 395.355C76.0309 373.042 80.6605 360.57 80.7051 360.447C80.8355 360.097 81.1993 359.898 81.5665 359.966C108.156 365.471 131.836 360.961 132.073 360.913C132.299 360.872 132.529 360.931 132.704 361.078C132.879 361.226 132.979 361.445 132.972 361.675C132.945 362.866 132.282 390.945 131.03 398.005C130.045 403.561 124.849 416.142 98.1561 416.142ZM66.5076 396.021C64.9907 399.134 65.001 402.006 66.5384 404.556C69.9978 410.287 81.0346 414.131 95.3488 414.587C96.3097 414.618 97.25 414.632 98.1595 414.632C123.71 414.632 128.621 402.919 129.54 397.744C130.649 391.501 131.311 367.571 131.438 362.564C126.822 363.329 105.548 366.346 81.8891 361.579C80.8321 364.335 76.079 376.391 66.5076 396.021Z" fill="#0C0C0C"/>
<path d="M71.6039 288.007C73.2855 292.252 75.6328 295.372 77.3076 297.459C82.5274 303.962 91.838 305.355 104.165 306.711C122.337 308.708 131.768 307.25 143.11 306.848C157.977 306.32 163.77 291.151 166.529 290.708C172.298 289.782 167.38 305.112 167.38 305.112C166.68 306.073 167.112 307.438 168.238 307.819C168.238 307.819 174.823 312.174 180.524 309.237L186.502 305.242C188.359 304.744 190.394 305.633 191.09 307.428C191.386 308.187 191.31 310.239 191.07 311.08C190.136 314.333 189.162 325.682 174.954 327.412C164.137 328.73 157.942 322.123 153.769 321.808C150.725 321.578 114.831 338.785 76.8202 331.015C65.5089 328.702 58.0858 326.135 50.3264 321.001C42.3679 315.737 37.1927 308.238 33.8329 300.52L71.6039 288.007Z" fill="#F3F2F2"/>
<path d="M97.5451 333.802C90.8015 333.802 83.7834 333.208 76.6623 331.753C64.5754 329.282 57.3239 326.54 49.9008 321.629C42.7145 316.876 37.0726 309.875 33.1294 300.822C33.0436 300.626 33.047 300.407 33.1328 300.211C33.2186 300.019 33.3833 299.868 33.5858 299.803L71.3636 287.29C71.7445 287.163 72.1563 287.355 72.3039 287.729C73.8894 291.738 76.1235 294.782 77.8944 296.985C82.8602 303.173 91.9478 304.607 104.244 305.959C118.219 307.497 127.001 306.979 135.498 306.478C137.955 306.333 140.491 306.182 143.082 306.093C153.282 305.729 159.123 298.159 162.613 293.632C164.294 291.453 165.31 290.135 166.405 289.96C167.795 289.74 168.612 290.307 169.058 290.821C171.673 293.866 168.471 304.175 168.097 305.338C168.073 305.414 168.035 305.486 167.987 305.554C167.795 305.815 167.744 306.141 167.84 306.45C167.939 306.759 168.169 306.996 168.478 307.099C168.54 307.119 168.598 307.147 168.653 307.184C168.715 307.226 174.913 311.238 180.139 308.581L186.08 304.611C186.148 304.563 186.224 304.532 186.306 304.508C188.571 303.9 190.984 305.064 191.794 307.15C192.171 308.121 192.062 310.345 191.794 311.286C191.698 311.618 191.605 312.034 191.492 312.521C190.531 316.718 188.283 326.55 175.043 328.16C167.671 329.062 162.359 326.379 158.478 324.423C156.6 323.475 154.977 322.655 153.707 322.563C153.7 322.563 153.69 322.563 153.68 322.563C153.158 322.563 150.927 323.314 148.57 324.11C139.098 327.309 119.859 333.802 97.5451 333.802ZM34.8556 300.976C38.6581 309.391 43.998 315.915 50.7382 320.37C57.9828 325.161 65.0901 327.844 76.9678 330.274C107.25 336.465 135.869 326.804 148.089 322.679C151.631 321.485 153.096 320.994 153.824 321.056C155.389 321.173 157.136 322.055 159.16 323.074C163.073 325.047 167.946 327.501 174.861 326.66C187.048 325.178 189.055 316.402 190.02 312.185C190.14 311.666 190.239 311.224 190.342 310.87C190.565 310.095 190.589 308.228 190.383 307.703C189.862 306.357 188.311 305.596 186.811 305.946L180.942 309.868C180.918 309.885 180.894 309.899 180.867 309.913C175.119 312.875 168.718 309.027 167.898 308.502C167.177 308.228 166.635 307.655 166.402 306.913C166.172 306.182 166.278 305.414 166.693 304.779C167.997 300.671 169.456 293.612 167.912 291.813C167.733 291.604 167.404 291.336 166.649 291.46C166.144 291.542 164.905 293.148 163.811 294.562C160.159 299.298 154.044 307.222 143.137 307.61C140.567 307.703 138.037 307.85 135.591 307.994C127.035 308.499 118.184 309.017 104.083 307.469C91.4227 306.076 82.0503 304.58 76.7207 297.939C74.9842 295.774 72.8118 292.822 71.1748 288.955L34.8556 300.976Z" fill="#0C0C0C"/>
<path d="M507.126 626.271H610.332C620.322 626.271 628.417 618.175 628.417 608.185V395.328C628.417 381.783 617.435 370.801 603.89 370.801H513.567C500.022 370.801 489.04 381.783 489.04 395.328V608.185C489.04 618.175 497.136 626.271 507.126 626.271Z" fill="#F3F2F2"/>
<path d="M610.332 627.026H507.126C496.737 627.026 488.285 618.573 488.285 608.185V395.328C488.285 381.388 499.627 370.046 513.567 370.046H603.89C617.83 370.046 629.172 381.388 629.172 395.328V608.185C629.172 618.573 620.72 627.026 610.332 627.026ZM513.567 371.556C500.461 371.556 489.795 382.218 489.795 395.328V608.185C489.795 617.743 497.568 625.516 507.126 625.516H610.332C619.889 625.516 627.662 617.743 627.662 608.185V395.328C627.662 382.222 617 371.556 603.89 371.556H513.567Z" fill="#0C0C0C"/>
<path d="M516.213 591.691C515.794 591.691 515.458 591.355 515.458 590.936V411.581C515.458 411.163 515.794 410.826 516.213 410.826C516.632 410.826 516.968 411.163 516.968 411.581V590.933C516.968 591.352 516.632 591.691 516.213 591.691Z" fill="#0C0C0C"/>
<path d="M535.327 362.501H582.131V263.118H535.327V362.501Z" fill="#F3F2F2"/>
<path d="M582.129 363.258H535.325C534.906 363.258 534.57 362.921 534.57 362.503V263.12C534.57 262.701 534.906 262.365 535.325 262.365H582.129C582.547 262.365 582.884 262.701 582.884 263.12V362.503C582.887 362.921 582.547 363.258 582.129 363.258ZM536.084 361.748H581.377V263.875H536.084V361.748Z" fill="#0C0C0C"/>
<path d="M551.067 310.943C550.648 310.943 550.312 310.606 550.312 310.187V287.733C550.312 287.314 550.648 286.978 551.067 286.978C551.486 286.978 551.822 287.314 551.822 287.733V310.187C551.825 310.606 551.486 310.943 551.067 310.943Z" fill="#0C0C0C"/>
<path d="M515.392 370.801H602.063V321.688H515.392V370.801Z" fill="#F3F2F2"/>
<path d="M602.064 371.556H515.393C514.974 371.556 514.638 371.219 514.638 370.801V321.688C514.638 321.269 514.974 320.933 515.393 320.933H602.064C602.483 320.933 602.819 321.269 602.819 321.688V370.801C602.819 371.219 602.48 371.556 602.064 371.556ZM516.148 370.046H601.309V322.446H516.148V370.046Z" fill="#0C0C0C"/>
<path d="M586.731 322.443H547.546C547.127 322.443 546.791 322.106 546.791 321.688C546.791 321.269 547.127 320.933 547.546 320.933H586.731C587.149 320.933 587.486 321.269 587.486 321.688C587.486 322.106 587.149 322.443 586.731 322.443Z" fill="#0C0C0C"/>
<path d="M602.064 371.556H515.393C514.974 371.556 514.638 371.219 514.638 370.801V321.688C514.638 321.269 514.974 320.933 515.393 320.933H534.57V263.12C534.57 262.701 534.906 262.365 535.325 262.365H582.129C582.547 262.365 582.884 262.701 582.884 263.12V320.933H602.061C602.48 320.933 602.816 321.269 602.816 321.688V370.801C602.819 371.219 602.48 371.556 602.064 371.556ZM516.148 370.046H601.309V322.446H582.132C581.713 322.446 581.377 322.11 581.377 321.691V263.875H536.084V321.688C536.084 322.106 535.747 322.443 535.329 322.443H516.151V370.046H516.148Z" fill="#0C0C0C"/>
<path d="M533.757 363.257C533.338 363.257 533.002 362.921 533.002 362.503V336.156C533.002 335.738 533.338 335.401 533.757 335.401C534.175 335.401 534.512 335.738 534.512 336.156V362.503C534.515 362.921 534.175 363.257 533.757 363.257Z" fill="#0C0C0C"/>
<path d="M515.561 248.497C515.561 248.497 511.717 302.686 462.893 319.937L462.742 336.156C462.742 336.156 538.098 313.067 542.257 253.765L515.561 248.497Z" fill="#F3F2F2"/>
<path d="M462.742 336.911C462.58 336.911 462.422 336.86 462.289 336.76C462.096 336.616 461.983 336.39 461.987 336.146L462.138 319.93C462.141 319.615 462.344 319.33 462.642 319.227C487.592 310.411 500.44 291.662 506.827 277.489C513.77 262.08 514.799 248.582 514.81 248.445C514.823 248.229 514.933 248.03 515.105 247.899C515.276 247.769 515.496 247.714 515.709 247.759L542.405 253.023C542.779 253.099 543.04 253.438 543.013 253.819C540.844 284.754 519.168 305.702 501.367 317.827C482.135 330.926 463.153 336.822 462.965 336.88C462.889 336.901 462.814 336.911 462.742 336.911ZM463.641 320.473L463.503 335.11C467.622 333.723 483.988 327.831 500.543 316.55C517.926 304.703 539.062 284.329 541.451 254.375L516.23 249.403C515.884 252.632 514.257 264.64 508.22 278.059C501.762 292.424 488.789 311.399 463.641 320.473Z" fill="#0C0C0C"/>
<path d="M471.019 323.548C470.714 323.548 470.429 323.362 470.312 323.064C470.165 322.673 470.357 322.237 470.748 322.089C492.932 313.606 511.525 292.603 516.69 277.201C516.824 276.806 517.253 276.593 517.648 276.724C518.042 276.857 518.259 277.283 518.125 277.681C512.85 293.416 493.889 314.858 471.29 323.503C471.201 323.53 471.112 323.548 471.019 323.548Z" fill="#0C0C0C"/>
<path d="M482.712 248.322L623.163 279.198L629.238 248.49L489.541 217.614L482.712 248.322Z" fill="#F3F2F2"/>
<path d="M623.163 279.953C623.108 279.953 623.053 279.946 623.002 279.936L482.55 249.063C482.355 249.022 482.183 248.902 482.077 248.73C481.967 248.562 481.933 248.356 481.977 248.16L488.807 217.452C488.899 217.047 489.301 216.793 489.709 216.879L629.406 247.752C629.807 247.841 630.065 248.232 629.986 248.637L623.911 279.345C623.87 279.544 623.754 279.719 623.585 279.829C623.455 279.908 623.311 279.953 623.163 279.953ZM483.614 247.745L622.573 278.292L628.352 249.066L490.114 218.516L483.614 247.745Z" fill="#0C0C0C"/>
<path d="M619.141 256.548C619.086 256.548 619.031 256.541 618.976 256.531L495.248 229.018C494.84 228.928 494.582 228.523 494.675 228.115C494.768 227.707 495.173 227.456 495.578 227.542L619.306 255.055C619.714 255.144 619.972 255.549 619.879 255.957C619.8 256.311 619.488 256.548 619.141 256.548Z" fill="#0C0C0C"/>
<path d="M505.505 265.526L595.688 285.582L607.758 231.306L517.575 211.25L505.505 265.526Z" fill="#F3F2F2"/>
<path d="M595.702 286.377C595.647 286.377 595.592 286.371 595.537 286.36L505.358 266.308C505.163 266.263 504.991 266.143 504.885 265.975C504.778 265.807 504.741 265.601 504.785 265.405L516.855 211.131C516.9 210.935 517.02 210.764 517.188 210.657C517.356 210.551 517.562 210.513 517.758 210.558L607.936 230.61C608.345 230.699 608.602 231.104 608.509 231.512L596.44 285.787C596.361 286.141 596.048 286.377 595.702 286.377ZM506.422 264.997L595.125 284.72L606.865 231.921L518.163 212.198L506.422 264.997Z" fill="#0C0C0C"/>
<path d="M597.236 239.752C597.181 239.752 597.126 239.745 597.071 239.735L523.873 223.461C523.465 223.372 523.207 222.967 523.3 222.559C523.393 222.15 523.794 221.903 524.203 221.986L597.4 238.259C597.809 238.349 598.066 238.754 597.974 239.162C597.895 239.512 597.582 239.752 597.236 239.752Z" fill="#0C0C0C"/>
<path d="M167.049 89.7681C170.327 86.49 170.327 81.1751 167.049 77.8969C163.77 74.6188 158.456 74.6188 155.177 77.8969C151.899 81.1751 151.899 86.49 155.177 89.7681C158.456 93.0463 163.77 93.0463 167.049 89.7681Z" fill="#0C0C0C"/>
<path d="M147.715 35.7631C147.523 35.7631 147.327 35.6876 147.18 35.54C146.885 35.2449 146.885 34.7678 147.18 34.4727L149.984 31.6654C150.279 31.3703 150.756 31.3703 151.051 31.6654C151.346 31.9606 151.346 32.4376 151.051 32.7328L148.247 35.54C148.103 35.691 147.911 35.7631 147.715 35.7631Z" fill="#0C0C0C"/>
<path d="M157.53 25.9413C157.338 25.9413 157.142 25.8692 156.995 25.7216C156.7 25.4265 156.7 24.9495 156.995 24.6543L159.799 21.8471C160.094 21.5519 160.571 21.5519 160.866 21.8471C161.161 22.1422 161.161 22.6192 160.866 22.9144L158.062 25.7216C157.918 25.8692 157.726 25.9413 157.53 25.9413Z" fill="#0C0C0C"/>
<path d="M160.338 35.7631C160.145 35.7631 159.95 35.6876 159.802 35.54L156.998 32.7328C156.703 32.4376 156.703 31.9606 156.998 31.6654C157.293 31.3703 157.77 31.3703 158.066 31.6654L160.869 34.4727C161.165 34.7678 161.165 35.2449 160.869 35.54C160.722 35.691 160.53 35.7631 160.338 35.7631Z" fill="#0C0C0C"/>
<path d="M150.519 25.9413C150.327 25.9413 150.131 25.8692 149.984 25.7216L147.18 22.9144C146.885 22.6192 146.885 22.1388 147.18 21.8471C147.475 21.5519 147.952 21.5519 148.247 21.8471L151.051 24.6543C151.346 24.9495 151.346 25.4299 151.051 25.7216C150.907 25.8692 150.715 25.9413 150.519 25.9413Z" fill="#0C0C0C"/>
<path d="M183.664 56.3577C183.249 56.3577 182.909 56.0213 182.909 55.6027C182.909 55.1874 183.245 54.8477 183.664 54.8477H187.631C188.046 54.8477 188.386 55.184 188.386 55.6027C188.386 56.0179 188.05 56.3577 187.631 56.3577H183.664Z" fill="#0C0C0C"/>
<path d="M197.549 56.3508C197.134 56.3508 196.794 56.0145 196.794 55.5958C196.794 55.1806 197.13 54.8408 197.549 54.8408H201.516C201.932 54.8408 202.271 55.1771 202.271 55.5958C202.271 56.0111 201.935 56.3508 201.516 56.3508H197.549Z" fill="#0C0C0C"/>
<path d="M192.587 65.2806C192.168 65.2806 191.832 64.9408 191.832 64.5256L191.835 60.5583C191.835 60.1431 192.175 59.8033 192.59 59.8033C193.005 59.8033 193.345 60.1431 193.345 60.5583L193.342 64.5256C193.342 64.9443 193.005 65.2806 192.587 65.2806Z" fill="#0C0C0C"/>
<path d="M192.593 51.3952C192.175 51.3952 191.838 51.0554 191.838 50.6402L191.842 46.673C191.842 46.2577 192.182 45.918 192.597 45.918C193.012 45.918 193.352 46.2577 193.352 46.673L193.348 50.6402C193.348 51.0554 193.009 51.3952 192.593 51.3952Z" fill="#0C0C0C"/>
</svg>
